%TF.GenerationSoftware,Altium Limited,Altium Designer,22.0.2 (36)*%
G04 Layer_Color=16711935*
%FSLAX26Y26*%
%MOIN*%
%TF.SameCoordinates,7C2B3453-B62B-4687-BB94-77A5B7653B1A*%
%TF.FilePolarity,Positive*%
%TF.FileFunction,Other,Mechanical_5*%
%TF.Part,CustomerPanel*%
G01*
G75*
%TA.AperFunction,NonConductor*%
%ADD22C,0.007874*%
G36*
X784879Y986962D02*
X784842D01*
X784697D01*
X784478D01*
X784187Y986999D01*
X783860Y987035D01*
X783496Y987108D01*
X783132Y987181D01*
X782731Y987326D01*
X782695D01*
X782658Y987363D01*
X782440Y987436D01*
X782112Y987581D01*
X781676Y987799D01*
X781166Y988091D01*
X780584Y988455D01*
X780001Y988855D01*
X779382Y989365D01*
X779346D01*
X779310Y989438D01*
X779091Y989620D01*
X778764Y989947D01*
X778290Y990420D01*
X777744Y990966D01*
X777089Y991658D01*
X776361Y992495D01*
X775597Y993405D01*
X775560Y993442D01*
X775451Y993587D01*
X775269Y993806D01*
X775051Y994060D01*
X774760Y994388D01*
X774432Y994788D01*
X774068Y995189D01*
X773668Y995662D01*
X772794Y996572D01*
X771920Y997482D01*
X771484Y997919D01*
X771047Y998319D01*
X770646Y998683D01*
X770246Y998974D01*
X770210D01*
X770173Y999047D01*
X770064Y999120D01*
X769918Y999193D01*
X769518Y999447D01*
X769045Y999739D01*
X768462Y999994D01*
X767844Y1000248D01*
X767152Y1000394D01*
X766497Y1000467D01*
X766460D01*
X766424D01*
X766206Y1000430D01*
X765842Y1000394D01*
X765441Y1000285D01*
X764932Y1000139D01*
X764422Y999884D01*
X763912Y999557D01*
X763403Y999120D01*
X763330Y999047D01*
X763184Y998865D01*
X763002Y998610D01*
X762748Y998210D01*
X762529Y997700D01*
X762311Y997118D01*
X762165Y996426D01*
X762129Y995662D01*
Y995443D01*
X762165Y995298D01*
X762202Y994861D01*
X762311Y994351D01*
X762456Y993806D01*
X762711Y993187D01*
X763039Y992604D01*
X763476Y992058D01*
X763548Y991986D01*
X763730Y991840D01*
X764022Y991621D01*
X764458Y991403D01*
X764968Y991148D01*
X765623Y990930D01*
X766351Y990784D01*
X767188Y990712D01*
X766861Y987545D01*
X766824D01*
X766715Y987581D01*
X766533D01*
X766278Y987617D01*
X765987Y987690D01*
X765660Y987763D01*
X765259Y987872D01*
X764859Y987981D01*
X763985Y988273D01*
X763112Y988710D01*
X762675Y988964D01*
X762238Y989292D01*
X761838Y989620D01*
X761474Y989984D01*
X761437Y990020D01*
X761401Y990093D01*
X761292Y990202D01*
X761182Y990384D01*
X761037Y990602D01*
X760891Y990857D01*
X760709Y991148D01*
X760527Y991512D01*
X760345Y991913D01*
X760163Y992350D01*
X760018Y992823D01*
X759872Y993332D01*
X759763Y993878D01*
X759654Y994461D01*
X759617Y995080D01*
X759581Y995735D01*
Y996099D01*
X759617Y996354D01*
X759654Y996645D01*
X759690Y997009D01*
X759763Y997409D01*
X759836Y997809D01*
X760090Y998756D01*
X760454Y999702D01*
X760673Y1000176D01*
X760928Y1000649D01*
X761255Y1001086D01*
X761619Y1001486D01*
X761656Y1001522D01*
X761692Y1001595D01*
X761838Y1001668D01*
X761983Y1001813D01*
X762165Y1001995D01*
X762420Y1002178D01*
X762675Y1002360D01*
X763002Y1002578D01*
X763694Y1002942D01*
X764568Y1003306D01*
X765004Y1003452D01*
X765514Y1003524D01*
X766024Y1003597D01*
X766570Y1003634D01*
X766642D01*
X766824D01*
X767116Y1003597D01*
X767516Y1003561D01*
X767953Y1003488D01*
X768462Y1003342D01*
X769008Y1003197D01*
X769554Y1002978D01*
X769627Y1002942D01*
X769809Y1002869D01*
X770100Y1002723D01*
X770501Y1002505D01*
X770938Y1002214D01*
X771484Y1001850D01*
X772030Y1001413D01*
X772648Y1000904D01*
X772721Y1000831D01*
X772940Y1000649D01*
X773122Y1000467D01*
X773304Y1000285D01*
X773522Y1000066D01*
X773813Y999775D01*
X774104Y999484D01*
X774432Y999120D01*
X774796Y998756D01*
X775196Y998319D01*
X775597Y997846D01*
X776070Y997336D01*
X776543Y996754D01*
X777053Y996172D01*
X777089Y996135D01*
X777162Y996062D01*
X777271Y995917D01*
X777417Y995735D01*
X777635Y995516D01*
X777854Y995261D01*
X778327Y994679D01*
X778873Y994060D01*
X779419Y993478D01*
X779892Y992968D01*
X780074Y992750D01*
X780256Y992568D01*
X780292Y992532D01*
X780402Y992422D01*
X780547Y992277D01*
X780766Y992095D01*
X781020Y991913D01*
X781275Y991694D01*
X781894Y991258D01*
Y1003670D01*
X784879D01*
Y986962D01*
D02*
G37*
G36*
X229564D02*
X229527D01*
X229382D01*
X229163D01*
X228872Y986999D01*
X228545Y987035D01*
X228181Y987108D01*
X227817Y987181D01*
X227416Y987326D01*
X227380D01*
X227343Y987363D01*
X227125Y987436D01*
X226797Y987581D01*
X226361Y987799D01*
X225851Y988091D01*
X225269Y988455D01*
X224686Y988855D01*
X224067Y989365D01*
X224031D01*
X223995Y989438D01*
X223776Y989620D01*
X223449Y989947D01*
X222975Y990420D01*
X222429Y990966D01*
X221774Y991658D01*
X221046Y992495D01*
X220282Y993405D01*
X220245Y993442D01*
X220136Y993587D01*
X219954Y993806D01*
X219736Y994060D01*
X219445Y994388D01*
X219117Y994788D01*
X218753Y995189D01*
X218353Y995662D01*
X217479Y996572D01*
X216605Y997482D01*
X216169Y997919D01*
X215732Y998319D01*
X215331Y998683D01*
X214931Y998974D01*
X214895D01*
X214858Y999047D01*
X214749Y999120D01*
X214603Y999193D01*
X214203Y999447D01*
X213730Y999739D01*
X213147Y999994D01*
X212529Y1000248D01*
X211837Y1000394D01*
X211182Y1000467D01*
X211145D01*
X211109D01*
X210891Y1000430D01*
X210527Y1000394D01*
X210126Y1000285D01*
X209617Y1000139D01*
X209107Y999884D01*
X208597Y999557D01*
X208088Y999120D01*
X208015Y999047D01*
X207869Y998865D01*
X207687Y998610D01*
X207433Y998210D01*
X207214Y997700D01*
X206996Y997118D01*
X206850Y996426D01*
X206814Y995662D01*
Y995443D01*
X206850Y995298D01*
X206887Y994861D01*
X206996Y994351D01*
X207141Y993806D01*
X207396Y993187D01*
X207724Y992604D01*
X208161Y992058D01*
X208233Y991986D01*
X208415Y991840D01*
X208707Y991621D01*
X209143Y991403D01*
X209653Y991148D01*
X210308Y990930D01*
X211036Y990784D01*
X211873Y990712D01*
X211546Y987545D01*
X211509D01*
X211400Y987581D01*
X211218D01*
X210963Y987617D01*
X210672Y987690D01*
X210345Y987763D01*
X209944Y987872D01*
X209544Y987981D01*
X208670Y988273D01*
X207797Y988710D01*
X207360Y988964D01*
X206923Y989292D01*
X206523Y989620D01*
X206159Y989984D01*
X206122Y990020D01*
X206086Y990093D01*
X205977Y990202D01*
X205867Y990384D01*
X205722Y990602D01*
X205576Y990857D01*
X205394Y991148D01*
X205212Y991512D01*
X205030Y991913D01*
X204848Y992350D01*
X204703Y992823D01*
X204557Y993332D01*
X204448Y993878D01*
X204339Y994461D01*
X204302Y995080D01*
X204266Y995735D01*
Y996099D01*
X204302Y996354D01*
X204339Y996645D01*
X204375Y997009D01*
X204448Y997409D01*
X204521Y997809D01*
X204775Y998756D01*
X205139Y999702D01*
X205358Y1000176D01*
X205613Y1000649D01*
X205940Y1001086D01*
X206304Y1001486D01*
X206341Y1001522D01*
X206377Y1001595D01*
X206523Y1001668D01*
X206668Y1001813D01*
X206850Y1001995D01*
X207105Y1002178D01*
X207360Y1002360D01*
X207687Y1002578D01*
X208379Y1002942D01*
X209253Y1003306D01*
X209689Y1003452D01*
X210199Y1003524D01*
X210709Y1003597D01*
X211255Y1003634D01*
X211327D01*
X211509D01*
X211801Y1003597D01*
X212201Y1003561D01*
X212638Y1003488D01*
X213147Y1003342D01*
X213693Y1003197D01*
X214239Y1002978D01*
X214312Y1002942D01*
X214494Y1002869D01*
X214785Y1002723D01*
X215186Y1002505D01*
X215623Y1002214D01*
X216169Y1001850D01*
X216715Y1001413D01*
X217333Y1000904D01*
X217406Y1000831D01*
X217625Y1000649D01*
X217807Y1000467D01*
X217989Y1000285D01*
X218207Y1000066D01*
X218498Y999775D01*
X218789Y999484D01*
X219117Y999120D01*
X219481Y998756D01*
X219881Y998319D01*
X220282Y997846D01*
X220755Y997336D01*
X221228Y996754D01*
X221738Y996172D01*
X221774Y996135D01*
X221847Y996062D01*
X221956Y995917D01*
X222102Y995735D01*
X222320Y995516D01*
X222539Y995261D01*
X223012Y994679D01*
X223558Y994060D01*
X224104Y993478D01*
X224577Y992968D01*
X224759Y992750D01*
X224941Y992568D01*
X224977Y992532D01*
X225087Y992422D01*
X225232Y992277D01*
X225451Y992095D01*
X225705Y991913D01*
X225960Y991694D01*
X226579Y991258D01*
Y1003670D01*
X229564D01*
Y986962D01*
D02*
G37*
G36*
X-325751D02*
X-325788D01*
X-325933D01*
X-326152D01*
X-326443Y986999D01*
X-326770Y987035D01*
X-327134Y987108D01*
X-327498Y987181D01*
X-327899Y987326D01*
X-327935D01*
X-327972Y987363D01*
X-328190Y987436D01*
X-328518Y987581D01*
X-328954Y987799D01*
X-329464Y988091D01*
X-330046Y988455D01*
X-330629Y988855D01*
X-331248Y989365D01*
X-331284D01*
X-331320Y989438D01*
X-331539Y989620D01*
X-331866Y989947D01*
X-332340Y990420D01*
X-332886Y990966D01*
X-333541Y991658D01*
X-334269Y992495D01*
X-335033Y993405D01*
X-335070Y993442D01*
X-335179Y993587D01*
X-335361Y993806D01*
X-335579Y994060D01*
X-335870Y994388D01*
X-336198Y994788D01*
X-336562Y995189D01*
X-336962Y995662D01*
X-337836Y996572D01*
X-338710Y997482D01*
X-339146Y997919D01*
X-339583Y998319D01*
X-339984Y998683D01*
X-340384Y998974D01*
X-340420D01*
X-340457Y999047D01*
X-340566Y999120D01*
X-340712Y999193D01*
X-341112Y999447D01*
X-341585Y999739D01*
X-342168Y999994D01*
X-342786Y1000248D01*
X-343478Y1000394D01*
X-344133Y1000467D01*
X-344170D01*
X-344206D01*
X-344424Y1000430D01*
X-344788Y1000394D01*
X-345189Y1000285D01*
X-345698Y1000139D01*
X-346208Y999884D01*
X-346718Y999557D01*
X-347227Y999120D01*
X-347300Y999047D01*
X-347446Y998865D01*
X-347628Y998610D01*
X-347882Y998210D01*
X-348101Y997700D01*
X-348319Y997118D01*
X-348465Y996426D01*
X-348501Y995662D01*
Y995443D01*
X-348465Y995298D01*
X-348428Y994861D01*
X-348319Y994351D01*
X-348174Y993806D01*
X-347919Y993187D01*
X-347591Y992604D01*
X-347154Y992058D01*
X-347082Y991986D01*
X-346900Y991840D01*
X-346608Y991621D01*
X-346172Y991403D01*
X-345662Y991148D01*
X-345007Y990930D01*
X-344279Y990784D01*
X-343442Y990712D01*
X-343769Y987545D01*
X-343806D01*
X-343915Y987581D01*
X-344097D01*
X-344352Y987617D01*
X-344643Y987690D01*
X-344970Y987763D01*
X-345371Y987872D01*
X-345771Y987981D01*
X-346645Y988273D01*
X-347518Y988710D01*
X-347955Y988964D01*
X-348392Y989292D01*
X-348792Y989620D01*
X-349156Y989984D01*
X-349193Y990020D01*
X-349229Y990093D01*
X-349338Y990202D01*
X-349448Y990384D01*
X-349593Y990602D01*
X-349739Y990857D01*
X-349921Y991148D01*
X-350103Y991512D01*
X-350285Y991913D01*
X-350467Y992350D01*
X-350612Y992823D01*
X-350758Y993332D01*
X-350867Y993878D01*
X-350976Y994461D01*
X-351013Y995080D01*
X-351049Y995735D01*
Y996099D01*
X-351013Y996354D01*
X-350976Y996645D01*
X-350940Y997009D01*
X-350867Y997409D01*
X-350794Y997809D01*
X-350540Y998756D01*
X-350176Y999702D01*
X-349957Y1000176D01*
X-349702Y1000649D01*
X-349375Y1001086D01*
X-349011Y1001486D01*
X-348974Y1001522D01*
X-348938Y1001595D01*
X-348792Y1001668D01*
X-348647Y1001813D01*
X-348465Y1001995D01*
X-348210Y1002178D01*
X-347955Y1002360D01*
X-347628Y1002578D01*
X-346936Y1002942D01*
X-346062Y1003306D01*
X-345626Y1003452D01*
X-345116Y1003524D01*
X-344606Y1003597D01*
X-344060Y1003634D01*
X-343988D01*
X-343806D01*
X-343514Y1003597D01*
X-343114Y1003561D01*
X-342677Y1003488D01*
X-342168Y1003342D01*
X-341622Y1003197D01*
X-341076Y1002978D01*
X-341003Y1002942D01*
X-340821Y1002869D01*
X-340530Y1002723D01*
X-340129Y1002505D01*
X-339692Y1002214D01*
X-339146Y1001850D01*
X-338600Y1001413D01*
X-337982Y1000904D01*
X-337909Y1000831D01*
X-337690Y1000649D01*
X-337508Y1000467D01*
X-337326Y1000285D01*
X-337108Y1000066D01*
X-336817Y999775D01*
X-336526Y999484D01*
X-336198Y999120D01*
X-335834Y998756D01*
X-335434Y998319D01*
X-335033Y997846D01*
X-334560Y997336D01*
X-334087Y996754D01*
X-333577Y996172D01*
X-333541Y996135D01*
X-333468Y996062D01*
X-333359Y995917D01*
X-333213Y995735D01*
X-332995Y995516D01*
X-332776Y995261D01*
X-332303Y994679D01*
X-331757Y994060D01*
X-331211Y993478D01*
X-330738Y992968D01*
X-330556Y992750D01*
X-330374Y992568D01*
X-330338Y992532D01*
X-330228Y992422D01*
X-330083Y992277D01*
X-329864Y992095D01*
X-329610Y991913D01*
X-329355Y991694D01*
X-328736Y991258D01*
Y1003670D01*
X-325751D01*
Y986962D01*
D02*
G37*
G36*
X-881066D02*
X-881103D01*
X-881248D01*
X-881467D01*
X-881758Y986999D01*
X-882085Y987035D01*
X-882449Y987108D01*
X-882813Y987181D01*
X-883214Y987326D01*
X-883250D01*
X-883287Y987363D01*
X-883505Y987436D01*
X-883833Y987581D01*
X-884269Y987799D01*
X-884779Y988091D01*
X-885361Y988455D01*
X-885944Y988855D01*
X-886563Y989365D01*
X-886599D01*
X-886635Y989438D01*
X-886854Y989620D01*
X-887181Y989947D01*
X-887655Y990420D01*
X-888201Y990966D01*
X-888856Y991658D01*
X-889584Y992495D01*
X-890348Y993405D01*
X-890385Y993442D01*
X-890494Y993587D01*
X-890676Y993806D01*
X-890894Y994060D01*
X-891185Y994388D01*
X-891513Y994788D01*
X-891877Y995189D01*
X-892277Y995662D01*
X-893151Y996572D01*
X-894025Y997482D01*
X-894461Y997919D01*
X-894898Y998319D01*
X-895299Y998683D01*
X-895699Y998974D01*
X-895735D01*
X-895772Y999047D01*
X-895881Y999120D01*
X-896027Y999193D01*
X-896427Y999447D01*
X-896900Y999739D01*
X-897483Y999994D01*
X-898101Y1000248D01*
X-898793Y1000394D01*
X-899448Y1000467D01*
X-899485D01*
X-899521D01*
X-899739Y1000430D01*
X-900103Y1000394D01*
X-900504Y1000285D01*
X-901013Y1000139D01*
X-901523Y999884D01*
X-902033Y999557D01*
X-902542Y999120D01*
X-902615Y999047D01*
X-902761Y998865D01*
X-902943Y998610D01*
X-903197Y998210D01*
X-903416Y997700D01*
X-903634Y997118D01*
X-903780Y996426D01*
X-903816Y995662D01*
Y995443D01*
X-903780Y995298D01*
X-903743Y994861D01*
X-903634Y994351D01*
X-903489Y993806D01*
X-903234Y993187D01*
X-902906Y992604D01*
X-902469Y992058D01*
X-902397Y991986D01*
X-902215Y991840D01*
X-901923Y991621D01*
X-901487Y991403D01*
X-900977Y991148D01*
X-900322Y990930D01*
X-899594Y990784D01*
X-898757Y990712D01*
X-899084Y987545D01*
X-899121D01*
X-899230Y987581D01*
X-899412D01*
X-899667Y987617D01*
X-899958Y987690D01*
X-900285Y987763D01*
X-900686Y987872D01*
X-901086Y987981D01*
X-901960Y988273D01*
X-902833Y988710D01*
X-903270Y988964D01*
X-903707Y989292D01*
X-904107Y989620D01*
X-904471Y989984D01*
X-904508Y990020D01*
X-904544Y990093D01*
X-904653Y990202D01*
X-904763Y990384D01*
X-904908Y990602D01*
X-905054Y990857D01*
X-905236Y991148D01*
X-905418Y991512D01*
X-905600Y991913D01*
X-905782Y992350D01*
X-905927Y992823D01*
X-906073Y993332D01*
X-906182Y993878D01*
X-906291Y994461D01*
X-906328Y995080D01*
X-906364Y995735D01*
Y996099D01*
X-906328Y996354D01*
X-906291Y996645D01*
X-906255Y997009D01*
X-906182Y997409D01*
X-906109Y997809D01*
X-905855Y998756D01*
X-905491Y999702D01*
X-905272Y1000176D01*
X-905017Y1000649D01*
X-904690Y1001086D01*
X-904326Y1001486D01*
X-904289Y1001522D01*
X-904253Y1001595D01*
X-904107Y1001668D01*
X-903962Y1001813D01*
X-903780Y1001995D01*
X-903525Y1002178D01*
X-903270Y1002360D01*
X-902943Y1002578D01*
X-902251Y1002942D01*
X-901377Y1003306D01*
X-900941Y1003452D01*
X-900431Y1003524D01*
X-899921Y1003597D01*
X-899375Y1003634D01*
X-899303D01*
X-899121D01*
X-898829Y1003597D01*
X-898429Y1003561D01*
X-897992Y1003488D01*
X-897483Y1003342D01*
X-896937Y1003197D01*
X-896391Y1002978D01*
X-896318Y1002942D01*
X-896136Y1002869D01*
X-895845Y1002723D01*
X-895444Y1002505D01*
X-895007Y1002214D01*
X-894461Y1001850D01*
X-893915Y1001413D01*
X-893297Y1000904D01*
X-893224Y1000831D01*
X-893005Y1000649D01*
X-892823Y1000467D01*
X-892641Y1000285D01*
X-892423Y1000066D01*
X-892132Y999775D01*
X-891841Y999484D01*
X-891513Y999120D01*
X-891149Y998756D01*
X-890749Y998319D01*
X-890348Y997846D01*
X-889875Y997336D01*
X-889402Y996754D01*
X-888892Y996172D01*
X-888856Y996135D01*
X-888783Y996062D01*
X-888674Y995917D01*
X-888528Y995735D01*
X-888310Y995516D01*
X-888091Y995261D01*
X-887618Y994679D01*
X-887072Y994060D01*
X-886526Y993478D01*
X-886053Y992968D01*
X-885871Y992750D01*
X-885689Y992568D01*
X-885653Y992532D01*
X-885543Y992422D01*
X-885398Y992277D01*
X-885179Y992095D01*
X-884925Y991913D01*
X-884670Y991694D01*
X-884051Y991258D01*
Y1003670D01*
X-881066D01*
Y986962D01*
D02*
G37*
G36*
X777089Y984524D02*
X777308Y984451D01*
X777599Y984341D01*
X777926Y984232D01*
X778327Y984087D01*
X778764Y983905D01*
X779237Y983686D01*
X780256Y983177D01*
X781275Y982521D01*
X781785Y982121D01*
X782294Y981721D01*
X782731Y981284D01*
X783168Y980774D01*
X783204Y980738D01*
X783277Y980665D01*
X783350Y980483D01*
X783496Y980301D01*
X783678Y980010D01*
X783860Y979719D01*
X784042Y979318D01*
X784224Y978918D01*
X784442Y978445D01*
X784624Y977935D01*
X784806Y977389D01*
X784988Y976807D01*
X785134Y976188D01*
X785206Y975533D01*
X785279Y974841D01*
X785316Y974113D01*
Y973713D01*
X785279Y973422D01*
Y973094D01*
X785243Y972693D01*
X785170Y972257D01*
X785097Y971747D01*
X784915Y970692D01*
X784624Y969600D01*
X784224Y968508D01*
X783969Y967998D01*
X783678Y967488D01*
X783641Y967452D01*
X783605Y967379D01*
X783496Y967234D01*
X783350Y967088D01*
X783204Y966870D01*
X782986Y966615D01*
X782731Y966323D01*
X782440Y966032D01*
X782112Y965741D01*
X781785Y965413D01*
X780948Y964758D01*
X779965Y964139D01*
X778873Y963593D01*
X778836D01*
X778727Y963521D01*
X778545Y963484D01*
X778327Y963375D01*
X778036Y963302D01*
X777672Y963193D01*
X777271Y963048D01*
X776834Y962938D01*
X776361Y962829D01*
X775815Y962683D01*
X774687Y962501D01*
X773413Y962356D01*
X772102Y962283D01*
X772066D01*
X771920D01*
X771702D01*
X771447Y962319D01*
X771083D01*
X770719Y962356D01*
X770246Y962392D01*
X769773Y962465D01*
X768717Y962647D01*
X767552Y962902D01*
X766388Y963266D01*
X765259Y963775D01*
X765223Y963812D01*
X765114Y963848D01*
X764968Y963921D01*
X764786Y964067D01*
X764531Y964212D01*
X764240Y964394D01*
X763585Y964867D01*
X762857Y965486D01*
X762129Y966214D01*
X761401Y967052D01*
X760782Y968034D01*
X760746Y968071D01*
X760709Y968180D01*
X760636Y968326D01*
X760527Y968508D01*
X760418Y968799D01*
X760309Y969090D01*
X760163Y969454D01*
X760018Y969854D01*
X759872Y970291D01*
X759726Y970764D01*
X759508Y971784D01*
X759326Y972948D01*
X759253Y974149D01*
Y974514D01*
X759290Y974768D01*
X759326Y975096D01*
X759362Y975496D01*
X759399Y975897D01*
X759508Y976370D01*
X759726Y977353D01*
X760054Y978445D01*
X760272Y978991D01*
X760527Y979500D01*
X760855Y980010D01*
X761182Y980519D01*
X761219Y980556D01*
X761255Y980629D01*
X761364Y980774D01*
X761546Y980956D01*
X761728Y981138D01*
X761983Y981393D01*
X762274Y981648D01*
X762566Y981939D01*
X762930Y982230D01*
X763366Y982521D01*
X763803Y982849D01*
X764276Y983140D01*
X764822Y983395D01*
X765368Y983686D01*
X765951Y983905D01*
X766606Y984123D01*
X767370Y980847D01*
X767334D01*
X767261Y980811D01*
X767116Y980738D01*
X766934Y980665D01*
X766715Y980592D01*
X766424Y980483D01*
X765842Y980192D01*
X765186Y979828D01*
X764531Y979391D01*
X763912Y978845D01*
X763366Y978263D01*
X763294Y978190D01*
X763148Y977971D01*
X762966Y977607D01*
X762711Y977134D01*
X762493Y976515D01*
X762274Y975824D01*
X762129Y974987D01*
X762092Y974077D01*
Y973785D01*
X762129Y973604D01*
Y973349D01*
X762165Y973058D01*
X762274Y972366D01*
X762420Y971601D01*
X762675Y970801D01*
X763039Y969963D01*
X763512Y969199D01*
Y969163D01*
X763585Y969126D01*
X763767Y968871D01*
X764058Y968544D01*
X764495Y968144D01*
X765041Y967670D01*
X765660Y967234D01*
X766424Y966833D01*
X767261Y966469D01*
X767298D01*
X767370Y966433D01*
X767480Y966396D01*
X767662Y966360D01*
X767880Y966287D01*
X768135Y966214D01*
X768754Y966105D01*
X769482Y965960D01*
X770282Y965814D01*
X771156Y965741D01*
X772102Y965705D01*
X772139D01*
X772248D01*
X772430D01*
X772648D01*
X772903Y965741D01*
X773231D01*
X773595Y965778D01*
X773995Y965814D01*
X774869Y965923D01*
X775815Y966105D01*
X776762Y966323D01*
X777708Y966615D01*
X777744D01*
X777817Y966651D01*
X777926Y966724D01*
X778108Y966797D01*
X778545Y967015D01*
X779055Y967343D01*
X779637Y967743D01*
X780256Y968253D01*
X780802Y968835D01*
X781312Y969527D01*
Y969563D01*
X781348Y969636D01*
X781421Y969745D01*
X781494Y969891D01*
X781566Y970073D01*
X781676Y970291D01*
X781894Y970801D01*
X782112Y971456D01*
X782294Y972184D01*
X782440Y972985D01*
X782476Y973822D01*
Y974077D01*
X782440Y974295D01*
Y974550D01*
X782404Y974805D01*
X782258Y975460D01*
X782076Y976224D01*
X781785Y976989D01*
X781384Y977789D01*
X781166Y978190D01*
X780875Y978554D01*
X780838Y978590D01*
X780802Y978627D01*
X780693Y978736D01*
X780584Y978881D01*
X780402Y979027D01*
X780183Y979209D01*
X779965Y979428D01*
X779674Y979610D01*
X779346Y979828D01*
X778982Y980083D01*
X778618Y980301D01*
X778181Y980519D01*
X777708Y980702D01*
X777198Y980884D01*
X776652Y981066D01*
X776070Y981211D01*
X776907Y984560D01*
X776944D01*
X777089Y984524D01*
D02*
G37*
G36*
X221774D02*
X221993Y984451D01*
X222284Y984341D01*
X222611Y984232D01*
X223012Y984087D01*
X223449Y983905D01*
X223922Y983686D01*
X224941Y983177D01*
X225960Y982521D01*
X226470Y982121D01*
X226979Y981721D01*
X227416Y981284D01*
X227853Y980774D01*
X227889Y980738D01*
X227962Y980665D01*
X228035Y980483D01*
X228181Y980301D01*
X228363Y980010D01*
X228545Y979719D01*
X228727Y979318D01*
X228909Y978918D01*
X229127Y978445D01*
X229309Y977935D01*
X229491Y977389D01*
X229673Y976807D01*
X229819Y976188D01*
X229891Y975533D01*
X229964Y974841D01*
X230001Y974113D01*
Y973713D01*
X229964Y973422D01*
Y973094D01*
X229928Y972693D01*
X229855Y972257D01*
X229782Y971747D01*
X229600Y970692D01*
X229309Y969600D01*
X228909Y968508D01*
X228654Y967998D01*
X228363Y967488D01*
X228326Y967452D01*
X228290Y967379D01*
X228181Y967234D01*
X228035Y967088D01*
X227889Y966870D01*
X227671Y966615D01*
X227416Y966323D01*
X227125Y966032D01*
X226797Y965741D01*
X226470Y965413D01*
X225633Y964758D01*
X224650Y964139D01*
X223558Y963593D01*
X223521D01*
X223412Y963521D01*
X223230Y963484D01*
X223012Y963375D01*
X222721Y963302D01*
X222357Y963193D01*
X221956Y963048D01*
X221519Y962938D01*
X221046Y962829D01*
X220500Y962683D01*
X219372Y962501D01*
X218098Y962356D01*
X216787Y962283D01*
X216751D01*
X216605D01*
X216387D01*
X216132Y962319D01*
X215768D01*
X215404Y962356D01*
X214931Y962392D01*
X214458Y962465D01*
X213402Y962647D01*
X212237Y962902D01*
X211073Y963266D01*
X209944Y963775D01*
X209908Y963812D01*
X209799Y963848D01*
X209653Y963921D01*
X209471Y964067D01*
X209216Y964212D01*
X208925Y964394D01*
X208270Y964867D01*
X207542Y965486D01*
X206814Y966214D01*
X206086Y967052D01*
X205467Y968034D01*
X205431Y968071D01*
X205394Y968180D01*
X205321Y968326D01*
X205212Y968508D01*
X205103Y968799D01*
X204994Y969090D01*
X204848Y969454D01*
X204703Y969854D01*
X204557Y970291D01*
X204411Y970764D01*
X204193Y971784D01*
X204011Y972948D01*
X203938Y974149D01*
Y974514D01*
X203975Y974768D01*
X204011Y975096D01*
X204047Y975496D01*
X204084Y975897D01*
X204193Y976370D01*
X204411Y977353D01*
X204739Y978445D01*
X204957Y978991D01*
X205212Y979500D01*
X205540Y980010D01*
X205867Y980519D01*
X205904Y980556D01*
X205940Y980629D01*
X206049Y980774D01*
X206231Y980956D01*
X206413Y981138D01*
X206668Y981393D01*
X206959Y981648D01*
X207251Y981939D01*
X207615Y982230D01*
X208051Y982521D01*
X208488Y982849D01*
X208961Y983140D01*
X209507Y983395D01*
X210053Y983686D01*
X210636Y983905D01*
X211291Y984123D01*
X212055Y980847D01*
X212019D01*
X211946Y980811D01*
X211801Y980738D01*
X211619Y980665D01*
X211400Y980592D01*
X211109Y980483D01*
X210527Y980192D01*
X209871Y979828D01*
X209216Y979391D01*
X208597Y978845D01*
X208051Y978263D01*
X207979Y978190D01*
X207833Y977971D01*
X207651Y977607D01*
X207396Y977134D01*
X207178Y976515D01*
X206959Y975824D01*
X206814Y974987D01*
X206777Y974077D01*
Y973785D01*
X206814Y973604D01*
Y973349D01*
X206850Y973058D01*
X206959Y972366D01*
X207105Y971601D01*
X207360Y970801D01*
X207724Y969963D01*
X208197Y969199D01*
Y969163D01*
X208270Y969126D01*
X208452Y968871D01*
X208743Y968544D01*
X209180Y968144D01*
X209726Y967670D01*
X210345Y967234D01*
X211109Y966833D01*
X211946Y966469D01*
X211983D01*
X212055Y966433D01*
X212165Y966396D01*
X212347Y966360D01*
X212565Y966287D01*
X212820Y966214D01*
X213439Y966105D01*
X214167Y965960D01*
X214967Y965814D01*
X215841Y965741D01*
X216787Y965705D01*
X216824D01*
X216933D01*
X217115D01*
X217333D01*
X217588Y965741D01*
X217916D01*
X218280Y965778D01*
X218680Y965814D01*
X219554Y965923D01*
X220500Y966105D01*
X221447Y966323D01*
X222393Y966615D01*
X222429D01*
X222502Y966651D01*
X222611Y966724D01*
X222793Y966797D01*
X223230Y967015D01*
X223740Y967343D01*
X224322Y967743D01*
X224941Y968253D01*
X225487Y968835D01*
X225997Y969527D01*
Y969563D01*
X226033Y969636D01*
X226106Y969745D01*
X226179Y969891D01*
X226251Y970073D01*
X226361Y970291D01*
X226579Y970801D01*
X226797Y971456D01*
X226979Y972184D01*
X227125Y972985D01*
X227161Y973822D01*
Y974077D01*
X227125Y974295D01*
Y974550D01*
X227089Y974805D01*
X226943Y975460D01*
X226761Y976224D01*
X226470Y976989D01*
X226069Y977789D01*
X225851Y978190D01*
X225560Y978554D01*
X225523Y978590D01*
X225487Y978627D01*
X225378Y978736D01*
X225269Y978881D01*
X225087Y979027D01*
X224868Y979209D01*
X224650Y979428D01*
X224359Y979610D01*
X224031Y979828D01*
X223667Y980083D01*
X223303Y980301D01*
X222866Y980519D01*
X222393Y980702D01*
X221883Y980884D01*
X221337Y981066D01*
X220755Y981211D01*
X221592Y984560D01*
X221629D01*
X221774Y984524D01*
D02*
G37*
G36*
X-333541D02*
X-333322Y984451D01*
X-333031Y984341D01*
X-332704Y984232D01*
X-332303Y984087D01*
X-331866Y983905D01*
X-331393Y983686D01*
X-330374Y983177D01*
X-329355Y982521D01*
X-328845Y982121D01*
X-328336Y981721D01*
X-327899Y981284D01*
X-327462Y980774D01*
X-327426Y980738D01*
X-327353Y980665D01*
X-327280Y980483D01*
X-327134Y980301D01*
X-326952Y980010D01*
X-326770Y979719D01*
X-326588Y979318D01*
X-326406Y978918D01*
X-326188Y978445D01*
X-326006Y977935D01*
X-325824Y977389D01*
X-325642Y976807D01*
X-325496Y976188D01*
X-325424Y975533D01*
X-325351Y974841D01*
X-325314Y974113D01*
Y973713D01*
X-325351Y973422D01*
Y973094D01*
X-325387Y972693D01*
X-325460Y972257D01*
X-325533Y971747D01*
X-325715Y970692D01*
X-326006Y969600D01*
X-326406Y968508D01*
X-326661Y967998D01*
X-326952Y967488D01*
X-326989Y967452D01*
X-327025Y967379D01*
X-327134Y967234D01*
X-327280Y967088D01*
X-327426Y966870D01*
X-327644Y966615D01*
X-327899Y966323D01*
X-328190Y966032D01*
X-328518Y965741D01*
X-328845Y965413D01*
X-329682Y964758D01*
X-330665Y964139D01*
X-331757Y963593D01*
X-331794D01*
X-331903Y963521D01*
X-332085Y963484D01*
X-332303Y963375D01*
X-332594Y963302D01*
X-332958Y963193D01*
X-333359Y963048D01*
X-333796Y962938D01*
X-334269Y962829D01*
X-334815Y962683D01*
X-335943Y962501D01*
X-337217Y962356D01*
X-338528Y962283D01*
X-338564D01*
X-338710D01*
X-338928D01*
X-339183Y962319D01*
X-339547D01*
X-339911Y962356D01*
X-340384Y962392D01*
X-340857Y962465D01*
X-341913Y962647D01*
X-343078Y962902D01*
X-344242Y963266D01*
X-345371Y963775D01*
X-345407Y963812D01*
X-345516Y963848D01*
X-345662Y963921D01*
X-345844Y964067D01*
X-346099Y964212D01*
X-346390Y964394D01*
X-347045Y964867D01*
X-347773Y965486D01*
X-348501Y966214D01*
X-349229Y967052D01*
X-349848Y968034D01*
X-349884Y968071D01*
X-349921Y968180D01*
X-349994Y968326D01*
X-350103Y968508D01*
X-350212Y968799D01*
X-350321Y969090D01*
X-350467Y969454D01*
X-350612Y969854D01*
X-350758Y970291D01*
X-350904Y970764D01*
X-351122Y971784D01*
X-351304Y972948D01*
X-351377Y974149D01*
Y974514D01*
X-351340Y974768D01*
X-351304Y975096D01*
X-351268Y975496D01*
X-351231Y975897D01*
X-351122Y976370D01*
X-350904Y977353D01*
X-350576Y978445D01*
X-350358Y978991D01*
X-350103Y979500D01*
X-349775Y980010D01*
X-349448Y980519D01*
X-349411Y980556D01*
X-349375Y980629D01*
X-349266Y980774D01*
X-349084Y980956D01*
X-348902Y981138D01*
X-348647Y981393D01*
X-348356Y981648D01*
X-348064Y981939D01*
X-347700Y982230D01*
X-347264Y982521D01*
X-346827Y982849D01*
X-346354Y983140D01*
X-345808Y983395D01*
X-345262Y983686D01*
X-344679Y983905D01*
X-344024Y984123D01*
X-343260Y980847D01*
X-343296D01*
X-343369Y980811D01*
X-343514Y980738D01*
X-343696Y980665D01*
X-343915Y980592D01*
X-344206Y980483D01*
X-344788Y980192D01*
X-345444Y979828D01*
X-346099Y979391D01*
X-346718Y978845D01*
X-347264Y978263D01*
X-347336Y978190D01*
X-347482Y977971D01*
X-347664Y977607D01*
X-347919Y977134D01*
X-348137Y976515D01*
X-348356Y975824D01*
X-348501Y974987D01*
X-348538Y974077D01*
Y973785D01*
X-348501Y973604D01*
Y973349D01*
X-348465Y973058D01*
X-348356Y972366D01*
X-348210Y971601D01*
X-347955Y970801D01*
X-347591Y969963D01*
X-347118Y969199D01*
Y969163D01*
X-347045Y969126D01*
X-346863Y968871D01*
X-346572Y968544D01*
X-346135Y968144D01*
X-345589Y967670D01*
X-344970Y967234D01*
X-344206Y966833D01*
X-343369Y966469D01*
X-343332D01*
X-343260Y966433D01*
X-343150Y966396D01*
X-342968Y966360D01*
X-342750Y966287D01*
X-342495Y966214D01*
X-341876Y966105D01*
X-341148Y965960D01*
X-340348Y965814D01*
X-339474Y965741D01*
X-338528Y965705D01*
X-338491D01*
X-338382D01*
X-338200D01*
X-337982D01*
X-337727Y965741D01*
X-337399D01*
X-337035Y965778D01*
X-336635Y965814D01*
X-335761Y965923D01*
X-334815Y966105D01*
X-333868Y966323D01*
X-332922Y966615D01*
X-332886D01*
X-332813Y966651D01*
X-332704Y966724D01*
X-332522Y966797D01*
X-332085Y967015D01*
X-331575Y967343D01*
X-330993Y967743D01*
X-330374Y968253D01*
X-329828Y968835D01*
X-329318Y969527D01*
Y969563D01*
X-329282Y969636D01*
X-329209Y969745D01*
X-329136Y969891D01*
X-329064Y970073D01*
X-328954Y970291D01*
X-328736Y970801D01*
X-328518Y971456D01*
X-328336Y972184D01*
X-328190Y972985D01*
X-328154Y973822D01*
Y974077D01*
X-328190Y974295D01*
Y974550D01*
X-328226Y974805D01*
X-328372Y975460D01*
X-328554Y976224D01*
X-328845Y976989D01*
X-329246Y977789D01*
X-329464Y978190D01*
X-329755Y978554D01*
X-329792Y978590D01*
X-329828Y978627D01*
X-329937Y978736D01*
X-330046Y978881D01*
X-330228Y979027D01*
X-330447Y979209D01*
X-330665Y979428D01*
X-330956Y979610D01*
X-331284Y979828D01*
X-331648Y980083D01*
X-332012Y980301D01*
X-332449Y980519D01*
X-332922Y980702D01*
X-333432Y980884D01*
X-333978Y981066D01*
X-334560Y981211D01*
X-333723Y984560D01*
X-333686D01*
X-333541Y984524D01*
D02*
G37*
G36*
X-888856D02*
X-888637Y984451D01*
X-888346Y984341D01*
X-888019Y984232D01*
X-887618Y984087D01*
X-887181Y983905D01*
X-886708Y983686D01*
X-885689Y983177D01*
X-884670Y982521D01*
X-884160Y982121D01*
X-883651Y981721D01*
X-883214Y981284D01*
X-882777Y980774D01*
X-882741Y980738D01*
X-882668Y980665D01*
X-882595Y980483D01*
X-882449Y980301D01*
X-882267Y980010D01*
X-882085Y979719D01*
X-881903Y979318D01*
X-881721Y978918D01*
X-881503Y978445D01*
X-881321Y977935D01*
X-881139Y977389D01*
X-880957Y976807D01*
X-880811Y976188D01*
X-880739Y975533D01*
X-880666Y974841D01*
X-880629Y974113D01*
Y973713D01*
X-880666Y973422D01*
Y973094D01*
X-880702Y972693D01*
X-880775Y972257D01*
X-880848Y971747D01*
X-881030Y970692D01*
X-881321Y969600D01*
X-881721Y968508D01*
X-881976Y967998D01*
X-882267Y967488D01*
X-882304Y967452D01*
X-882340Y967379D01*
X-882449Y967234D01*
X-882595Y967088D01*
X-882741Y966870D01*
X-882959Y966615D01*
X-883214Y966323D01*
X-883505Y966032D01*
X-883833Y965741D01*
X-884160Y965413D01*
X-884997Y964758D01*
X-885980Y964139D01*
X-887072Y963593D01*
X-887109D01*
X-887218Y963521D01*
X-887400Y963484D01*
X-887618Y963375D01*
X-887909Y963302D01*
X-888273Y963193D01*
X-888674Y963048D01*
X-889111Y962938D01*
X-889584Y962829D01*
X-890130Y962683D01*
X-891258Y962501D01*
X-892532Y962356D01*
X-893843Y962283D01*
X-893879D01*
X-894025D01*
X-894243D01*
X-894498Y962319D01*
X-894862D01*
X-895226Y962356D01*
X-895699Y962392D01*
X-896172Y962465D01*
X-897228Y962647D01*
X-898393Y962902D01*
X-899557Y963266D01*
X-900686Y963775D01*
X-900722Y963812D01*
X-900831Y963848D01*
X-900977Y963921D01*
X-901159Y964067D01*
X-901414Y964212D01*
X-901705Y964394D01*
X-902360Y964867D01*
X-903088Y965486D01*
X-903816Y966214D01*
X-904544Y967052D01*
X-905163Y968034D01*
X-905199Y968071D01*
X-905236Y968180D01*
X-905309Y968326D01*
X-905418Y968508D01*
X-905527Y968799D01*
X-905636Y969090D01*
X-905782Y969454D01*
X-905927Y969854D01*
X-906073Y970291D01*
X-906219Y970764D01*
X-906437Y971784D01*
X-906619Y972948D01*
X-906692Y974149D01*
Y974514D01*
X-906655Y974768D01*
X-906619Y975096D01*
X-906583Y975496D01*
X-906546Y975897D01*
X-906437Y976370D01*
X-906219Y977353D01*
X-905891Y978445D01*
X-905673Y978991D01*
X-905418Y979500D01*
X-905090Y980010D01*
X-904763Y980519D01*
X-904726Y980556D01*
X-904690Y980629D01*
X-904581Y980774D01*
X-904399Y980956D01*
X-904217Y981138D01*
X-903962Y981393D01*
X-903671Y981648D01*
X-903379Y981939D01*
X-903015Y982230D01*
X-902579Y982521D01*
X-902142Y982849D01*
X-901669Y983140D01*
X-901123Y983395D01*
X-900577Y983686D01*
X-899994Y983905D01*
X-899339Y984123D01*
X-898575Y980847D01*
X-898611D01*
X-898684Y980811D01*
X-898829Y980738D01*
X-899011Y980665D01*
X-899230Y980592D01*
X-899521Y980483D01*
X-900103Y980192D01*
X-900759Y979828D01*
X-901414Y979391D01*
X-902033Y978845D01*
X-902579Y978263D01*
X-902651Y978190D01*
X-902797Y977971D01*
X-902979Y977607D01*
X-903234Y977134D01*
X-903452Y976515D01*
X-903671Y975824D01*
X-903816Y974987D01*
X-903853Y974077D01*
Y973785D01*
X-903816Y973604D01*
Y973349D01*
X-903780Y973058D01*
X-903671Y972366D01*
X-903525Y971601D01*
X-903270Y970801D01*
X-902906Y969963D01*
X-902433Y969199D01*
Y969163D01*
X-902360Y969126D01*
X-902178Y968871D01*
X-901887Y968544D01*
X-901450Y968144D01*
X-900904Y967670D01*
X-900285Y967234D01*
X-899521Y966833D01*
X-898684Y966469D01*
X-898647D01*
X-898575Y966433D01*
X-898465Y966396D01*
X-898283Y966360D01*
X-898065Y966287D01*
X-897810Y966214D01*
X-897191Y966105D01*
X-896463Y965960D01*
X-895663Y965814D01*
X-894789Y965741D01*
X-893843Y965705D01*
X-893806D01*
X-893697D01*
X-893515D01*
X-893297D01*
X-893042Y965741D01*
X-892714D01*
X-892350Y965778D01*
X-891950Y965814D01*
X-891076Y965923D01*
X-890130Y966105D01*
X-889183Y966323D01*
X-888237Y966615D01*
X-888201D01*
X-888128Y966651D01*
X-888019Y966724D01*
X-887837Y966797D01*
X-887400Y967015D01*
X-886890Y967343D01*
X-886308Y967743D01*
X-885689Y968253D01*
X-885143Y968835D01*
X-884633Y969527D01*
Y969563D01*
X-884597Y969636D01*
X-884524Y969745D01*
X-884451Y969891D01*
X-884379Y970073D01*
X-884269Y970291D01*
X-884051Y970801D01*
X-883833Y971456D01*
X-883651Y972184D01*
X-883505Y972985D01*
X-883469Y973822D01*
Y974077D01*
X-883505Y974295D01*
Y974550D01*
X-883541Y974805D01*
X-883687Y975460D01*
X-883869Y976224D01*
X-884160Y976989D01*
X-884561Y977789D01*
X-884779Y978190D01*
X-885070Y978554D01*
X-885107Y978590D01*
X-885143Y978627D01*
X-885252Y978736D01*
X-885361Y978881D01*
X-885543Y979027D01*
X-885762Y979209D01*
X-885980Y979428D01*
X-886271Y979610D01*
X-886599Y979828D01*
X-886963Y980083D01*
X-887327Y980301D01*
X-887764Y980519D01*
X-888237Y980702D01*
X-888747Y980884D01*
X-889293Y981066D01*
X-889875Y981211D01*
X-889038Y984560D01*
X-889001D01*
X-888856Y984524D01*
D02*
G37*
G36*
X842583Y972090D02*
X842910D01*
X843311Y972054D01*
X843748Y971981D01*
X844257Y971908D01*
X845313Y971726D01*
X846405Y971435D01*
X847497Y971034D01*
X848006Y970780D01*
X848516Y970488D01*
X848552Y970452D01*
X848625Y970416D01*
X848771Y970306D01*
X848916Y970161D01*
X849135Y970015D01*
X849390Y969797D01*
X849681Y969542D01*
X849972Y969251D01*
X850263Y968923D01*
X850591Y968596D01*
X851246Y967758D01*
X851865Y966776D01*
X852411Y965684D01*
Y965647D01*
X852484Y965538D01*
X852520Y965356D01*
X852629Y965138D01*
X852702Y964846D01*
X852811Y964482D01*
X852957Y964082D01*
X853066Y963645D01*
X853175Y963172D01*
X853321Y962626D01*
X853503Y961498D01*
X853648Y960224D01*
X853721Y958913D01*
Y958877D01*
Y958731D01*
Y958513D01*
X853685Y958258D01*
Y957894D01*
X853648Y957530D01*
X853612Y957057D01*
X853539Y956584D01*
X853357Y955528D01*
X853102Y954363D01*
X852738Y953198D01*
X852229Y952070D01*
X852192Y952034D01*
X852156Y951924D01*
X852083Y951779D01*
X851938Y951597D01*
X851792Y951342D01*
X851610Y951051D01*
X851137Y950396D01*
X850518Y949668D01*
X849790Y948940D01*
X848953Y948212D01*
X847970Y947593D01*
X847934Y947556D01*
X847824Y947520D01*
X847679Y947447D01*
X847497Y947338D01*
X847206Y947229D01*
X846914Y947120D01*
X846550Y946974D01*
X846150Y946828D01*
X845713Y946683D01*
X845240Y946537D01*
X844221Y946319D01*
X843056Y946137D01*
X841855Y946064D01*
X841491D01*
X841236Y946100D01*
X840908Y946137D01*
X840508Y946173D01*
X840108Y946210D01*
X839634Y946319D01*
X838652Y946537D01*
X837560Y946865D01*
X837014Y947083D01*
X836504Y947338D01*
X835994Y947666D01*
X835485Y947993D01*
X835448Y948030D01*
X835376Y948066D01*
X835230Y948175D01*
X835048Y948357D01*
X834866Y948539D01*
X834611Y948794D01*
X834356Y949085D01*
X834065Y949376D01*
X833774Y949740D01*
X833483Y950177D01*
X833155Y950614D01*
X832864Y951087D01*
X832609Y951633D01*
X832318Y952179D01*
X832100Y952762D01*
X831881Y953417D01*
X835157Y954181D01*
Y954145D01*
X835194Y954072D01*
X835266Y953926D01*
X835339Y953744D01*
X835412Y953526D01*
X835521Y953235D01*
X835812Y952652D01*
X836176Y951997D01*
X836613Y951342D01*
X837159Y950723D01*
X837742Y950177D01*
X837814Y950104D01*
X838033Y949959D01*
X838397Y949777D01*
X838870Y949522D01*
X839489Y949304D01*
X840180Y949085D01*
X841018Y948940D01*
X841928Y948903D01*
X842219D01*
X842401Y948940D01*
X842656D01*
X842947Y948976D01*
X843638Y949085D01*
X844403Y949231D01*
X845204Y949486D01*
X846041Y949850D01*
X846805Y950323D01*
X846842D01*
X846878Y950396D01*
X847133Y950578D01*
X847460Y950869D01*
X847861Y951306D01*
X848334Y951852D01*
X848771Y952470D01*
X849171Y953235D01*
X849535Y954072D01*
Y954108D01*
X849572Y954181D01*
X849608Y954290D01*
X849644Y954472D01*
X849717Y954691D01*
X849790Y954946D01*
X849899Y955564D01*
X850045Y956292D01*
X850190Y957093D01*
X850263Y957967D01*
X850300Y958913D01*
Y958950D01*
Y959059D01*
Y959241D01*
Y959459D01*
X850263Y959714D01*
Y960042D01*
X850227Y960406D01*
X850190Y960806D01*
X850081Y961680D01*
X849899Y962626D01*
X849681Y963572D01*
X849390Y964519D01*
Y964555D01*
X849353Y964628D01*
X849280Y964737D01*
X849208Y964919D01*
X848989Y965356D01*
X848662Y965866D01*
X848261Y966448D01*
X847752Y967067D01*
X847169Y967613D01*
X846478Y968122D01*
X846441D01*
X846368Y968159D01*
X846259Y968232D01*
X846114Y968304D01*
X845932Y968377D01*
X845713Y968486D01*
X845204Y968705D01*
X844548Y968923D01*
X843820Y969105D01*
X843020Y969251D01*
X842182Y969287D01*
X841928D01*
X841709Y969251D01*
X841454D01*
X841200Y969214D01*
X840544Y969069D01*
X839780Y968887D01*
X839016Y968596D01*
X838215Y968195D01*
X837814Y967977D01*
X837450Y967686D01*
X837414Y967649D01*
X837378Y967613D01*
X837268Y967504D01*
X837123Y967394D01*
X836977Y967212D01*
X836795Y966994D01*
X836577Y966776D01*
X836395Y966484D01*
X836176Y966157D01*
X835922Y965793D01*
X835703Y965429D01*
X835485Y964992D01*
X835303Y964519D01*
X835121Y964009D01*
X834939Y963463D01*
X834793Y962881D01*
X831444Y963718D01*
Y963754D01*
X831481Y963900D01*
X831554Y964118D01*
X831663Y964410D01*
X831772Y964737D01*
X831918Y965138D01*
X832100Y965574D01*
X832318Y966048D01*
X832828Y967067D01*
X833483Y968086D01*
X833883Y968596D01*
X834284Y969105D01*
X834720Y969542D01*
X835230Y969979D01*
X835266Y970015D01*
X835339Y970088D01*
X835521Y970161D01*
X835703Y970306D01*
X835994Y970488D01*
X836286Y970670D01*
X836686Y970852D01*
X837086Y971034D01*
X837560Y971253D01*
X838069Y971435D01*
X838615Y971617D01*
X839198Y971799D01*
X839816Y971944D01*
X840472Y972017D01*
X841163Y972090D01*
X841891Y972126D01*
X842292D01*
X842583Y972090D01*
D02*
G37*
G36*
X287268D02*
X287595D01*
X287996Y972054D01*
X288433Y971981D01*
X288942Y971908D01*
X289998Y971726D01*
X291090Y971435D01*
X292182Y971034D01*
X292691Y970780D01*
X293201Y970488D01*
X293237Y970452D01*
X293310Y970416D01*
X293456Y970306D01*
X293601Y970161D01*
X293820Y970015D01*
X294075Y969797D01*
X294366Y969542D01*
X294657Y969251D01*
X294948Y968923D01*
X295276Y968596D01*
X295931Y967758D01*
X296550Y966776D01*
X297096Y965684D01*
Y965647D01*
X297169Y965538D01*
X297205Y965356D01*
X297314Y965138D01*
X297387Y964846D01*
X297496Y964482D01*
X297642Y964082D01*
X297751Y963645D01*
X297860Y963172D01*
X298006Y962626D01*
X298188Y961498D01*
X298333Y960224D01*
X298406Y958913D01*
Y958877D01*
Y958731D01*
Y958513D01*
X298370Y958258D01*
Y957894D01*
X298333Y957530D01*
X298297Y957057D01*
X298224Y956584D01*
X298042Y955528D01*
X297787Y954363D01*
X297423Y953198D01*
X296914Y952070D01*
X296877Y952034D01*
X296841Y951924D01*
X296768Y951779D01*
X296623Y951597D01*
X296477Y951342D01*
X296295Y951051D01*
X295822Y950396D01*
X295203Y949668D01*
X294475Y948940D01*
X293638Y948212D01*
X292655Y947593D01*
X292619Y947556D01*
X292509Y947520D01*
X292364Y947447D01*
X292182Y947338D01*
X291891Y947229D01*
X291599Y947120D01*
X291235Y946974D01*
X290835Y946828D01*
X290398Y946683D01*
X289925Y946537D01*
X288906Y946319D01*
X287741Y946137D01*
X286540Y946064D01*
X286176D01*
X285921Y946100D01*
X285593Y946137D01*
X285193Y946173D01*
X284793Y946210D01*
X284319Y946319D01*
X283337Y946537D01*
X282245Y946865D01*
X281699Y947083D01*
X281189Y947338D01*
X280679Y947666D01*
X280170Y947993D01*
X280133Y948030D01*
X280061Y948066D01*
X279915Y948175D01*
X279733Y948357D01*
X279551Y948539D01*
X279296Y948794D01*
X279041Y949085D01*
X278750Y949376D01*
X278459Y949740D01*
X278168Y950177D01*
X277840Y950614D01*
X277549Y951087D01*
X277294Y951633D01*
X277003Y952179D01*
X276785Y952762D01*
X276566Y953417D01*
X279842Y954181D01*
Y954145D01*
X279879Y954072D01*
X279951Y953926D01*
X280024Y953744D01*
X280097Y953526D01*
X280206Y953235D01*
X280497Y952652D01*
X280861Y951997D01*
X281298Y951342D01*
X281844Y950723D01*
X282427Y950177D01*
X282499Y950104D01*
X282718Y949959D01*
X283082Y949777D01*
X283555Y949522D01*
X284174Y949304D01*
X284865Y949085D01*
X285703Y948940D01*
X286613Y948903D01*
X286904D01*
X287086Y948940D01*
X287341D01*
X287632Y948976D01*
X288323Y949085D01*
X289088Y949231D01*
X289889Y949486D01*
X290726Y949850D01*
X291490Y950323D01*
X291527D01*
X291563Y950396D01*
X291818Y950578D01*
X292145Y950869D01*
X292546Y951306D01*
X293019Y951852D01*
X293456Y952470D01*
X293856Y953235D01*
X294220Y954072D01*
Y954108D01*
X294257Y954181D01*
X294293Y954290D01*
X294329Y954472D01*
X294402Y954691D01*
X294475Y954946D01*
X294584Y955564D01*
X294730Y956292D01*
X294875Y957093D01*
X294948Y957967D01*
X294985Y958913D01*
Y958950D01*
Y959059D01*
Y959241D01*
Y959459D01*
X294948Y959714D01*
Y960042D01*
X294912Y960406D01*
X294875Y960806D01*
X294766Y961680D01*
X294584Y962626D01*
X294366Y963572D01*
X294075Y964519D01*
Y964555D01*
X294038Y964628D01*
X293965Y964737D01*
X293893Y964919D01*
X293674Y965356D01*
X293347Y965866D01*
X292946Y966448D01*
X292437Y967067D01*
X291854Y967613D01*
X291163Y968122D01*
X291126D01*
X291053Y968159D01*
X290944Y968232D01*
X290799Y968304D01*
X290617Y968377D01*
X290398Y968486D01*
X289889Y968705D01*
X289233Y968923D01*
X288505Y969105D01*
X287705Y969251D01*
X286867Y969287D01*
X286613D01*
X286394Y969251D01*
X286139D01*
X285885Y969214D01*
X285229Y969069D01*
X284465Y968887D01*
X283701Y968596D01*
X282900Y968195D01*
X282499Y967977D01*
X282135Y967686D01*
X282099Y967649D01*
X282063Y967613D01*
X281953Y967504D01*
X281808Y967394D01*
X281662Y967212D01*
X281480Y966994D01*
X281262Y966776D01*
X281080Y966484D01*
X280861Y966157D01*
X280607Y965793D01*
X280388Y965429D01*
X280170Y964992D01*
X279988Y964519D01*
X279806Y964009D01*
X279624Y963463D01*
X279478Y962881D01*
X276129Y963718D01*
Y963754D01*
X276166Y963900D01*
X276239Y964118D01*
X276348Y964410D01*
X276457Y964737D01*
X276603Y965138D01*
X276785Y965574D01*
X277003Y966048D01*
X277513Y967067D01*
X278168Y968086D01*
X278568Y968596D01*
X278969Y969105D01*
X279405Y969542D01*
X279915Y969979D01*
X279951Y970015D01*
X280024Y970088D01*
X280206Y970161D01*
X280388Y970306D01*
X280679Y970488D01*
X280971Y970670D01*
X281371Y970852D01*
X281771Y971034D01*
X282245Y971253D01*
X282754Y971435D01*
X283300Y971617D01*
X283883Y971799D01*
X284501Y971944D01*
X285157Y972017D01*
X285848Y972090D01*
X286576Y972126D01*
X286977D01*
X287268Y972090D01*
D02*
G37*
G36*
X-268047D02*
X-267720D01*
X-267319Y972054D01*
X-266882Y971981D01*
X-266373Y971908D01*
X-265317Y971726D01*
X-264225Y971435D01*
X-263133Y971034D01*
X-262624Y970780D01*
X-262114Y970488D01*
X-262078Y970452D01*
X-262005Y970416D01*
X-261859Y970306D01*
X-261714Y970161D01*
X-261495Y970015D01*
X-261240Y969797D01*
X-260949Y969542D01*
X-260658Y969251D01*
X-260367Y968923D01*
X-260039Y968596D01*
X-259384Y967758D01*
X-258765Y966776D01*
X-258219Y965684D01*
Y965647D01*
X-258146Y965538D01*
X-258110Y965356D01*
X-258001Y965138D01*
X-257928Y964846D01*
X-257819Y964482D01*
X-257673Y964082D01*
X-257564Y963645D01*
X-257455Y963172D01*
X-257309Y962626D01*
X-257127Y961498D01*
X-256982Y960224D01*
X-256909Y958913D01*
Y958877D01*
Y958731D01*
Y958513D01*
X-256945Y958258D01*
Y957894D01*
X-256982Y957530D01*
X-257018Y957057D01*
X-257091Y956584D01*
X-257273Y955528D01*
X-257528Y954363D01*
X-257892Y953198D01*
X-258401Y952070D01*
X-258438Y952034D01*
X-258474Y951924D01*
X-258547Y951779D01*
X-258692Y951597D01*
X-258838Y951342D01*
X-259020Y951051D01*
X-259493Y950396D01*
X-260112Y949668D01*
X-260840Y948940D01*
X-261677Y948212D01*
X-262660Y947593D01*
X-262696Y947556D01*
X-262806Y947520D01*
X-262951Y947447D01*
X-263133Y947338D01*
X-263424Y947229D01*
X-263716Y947120D01*
X-264080Y946974D01*
X-264480Y946828D01*
X-264917Y946683D01*
X-265390Y946537D01*
X-266409Y946319D01*
X-267574Y946137D01*
X-268775Y946064D01*
X-269139D01*
X-269394Y946100D01*
X-269722Y946137D01*
X-270122Y946173D01*
X-270522Y946210D01*
X-270996Y946319D01*
X-271978Y946537D01*
X-273070Y946865D01*
X-273616Y947083D01*
X-274126Y947338D01*
X-274636Y947666D01*
X-275145Y947993D01*
X-275182Y948030D01*
X-275254Y948066D01*
X-275400Y948175D01*
X-275582Y948357D01*
X-275764Y948539D01*
X-276019Y948794D01*
X-276274Y949085D01*
X-276565Y949376D01*
X-276856Y949740D01*
X-277147Y950177D01*
X-277475Y950614D01*
X-277766Y951087D01*
X-278021Y951633D01*
X-278312Y952179D01*
X-278530Y952762D01*
X-278749Y953417D01*
X-275473Y954181D01*
Y954145D01*
X-275436Y954072D01*
X-275364Y953926D01*
X-275291Y953744D01*
X-275218Y953526D01*
X-275109Y953235D01*
X-274818Y952652D01*
X-274454Y951997D01*
X-274017Y951342D01*
X-273471Y950723D01*
X-272888Y950177D01*
X-272816Y950104D01*
X-272597Y949959D01*
X-272233Y949777D01*
X-271760Y949522D01*
X-271141Y949304D01*
X-270450Y949085D01*
X-269612Y948940D01*
X-268702Y948903D01*
X-268411D01*
X-268229Y948940D01*
X-267974D01*
X-267683Y948976D01*
X-266992Y949085D01*
X-266227Y949231D01*
X-265426Y949486D01*
X-264589Y949850D01*
X-263825Y950323D01*
X-263788D01*
X-263752Y950396D01*
X-263497Y950578D01*
X-263170Y950869D01*
X-262769Y951306D01*
X-262296Y951852D01*
X-261859Y952470D01*
X-261459Y953235D01*
X-261095Y954072D01*
Y954108D01*
X-261058Y954181D01*
X-261022Y954290D01*
X-260986Y954472D01*
X-260913Y954691D01*
X-260840Y954946D01*
X-260731Y955564D01*
X-260585Y956292D01*
X-260440Y957093D01*
X-260367Y957967D01*
X-260330Y958913D01*
Y958950D01*
Y959059D01*
Y959241D01*
Y959459D01*
X-260367Y959714D01*
Y960042D01*
X-260403Y960406D01*
X-260440Y960806D01*
X-260549Y961680D01*
X-260731Y962626D01*
X-260949Y963572D01*
X-261240Y964519D01*
Y964555D01*
X-261277Y964628D01*
X-261350Y964737D01*
X-261422Y964919D01*
X-261641Y965356D01*
X-261968Y965866D01*
X-262369Y966448D01*
X-262878Y967067D01*
X-263461Y967613D01*
X-264152Y968122D01*
X-264189D01*
X-264262Y968159D01*
X-264371Y968232D01*
X-264516Y968304D01*
X-264698Y968377D01*
X-264917Y968486D01*
X-265426Y968705D01*
X-266082Y968923D01*
X-266810Y969105D01*
X-267610Y969251D01*
X-268448Y969287D01*
X-268702D01*
X-268921Y969251D01*
X-269176D01*
X-269430Y969214D01*
X-270086Y969069D01*
X-270850Y968887D01*
X-271614Y968596D01*
X-272415Y968195D01*
X-272816Y967977D01*
X-273180Y967686D01*
X-273216Y967649D01*
X-273252Y967613D01*
X-273362Y967504D01*
X-273507Y967394D01*
X-273653Y967212D01*
X-273835Y966994D01*
X-274053Y966776D01*
X-274235Y966484D01*
X-274454Y966157D01*
X-274708Y965793D01*
X-274927Y965429D01*
X-275145Y964992D01*
X-275327Y964519D01*
X-275509Y964009D01*
X-275691Y963463D01*
X-275837Y962881D01*
X-279186Y963718D01*
Y963754D01*
X-279149Y963900D01*
X-279076Y964118D01*
X-278967Y964410D01*
X-278858Y964737D01*
X-278712Y965138D01*
X-278530Y965574D01*
X-278312Y966048D01*
X-277802Y967067D01*
X-277147Y968086D01*
X-276747Y968596D01*
X-276346Y969105D01*
X-275910Y969542D01*
X-275400Y969979D01*
X-275364Y970015D01*
X-275291Y970088D01*
X-275109Y970161D01*
X-274927Y970306D01*
X-274636Y970488D01*
X-274344Y970670D01*
X-273944Y970852D01*
X-273544Y971034D01*
X-273070Y971253D01*
X-272561Y971435D01*
X-272015Y971617D01*
X-271432Y971799D01*
X-270814Y971944D01*
X-270158Y972017D01*
X-269467Y972090D01*
X-268739Y972126D01*
X-268338D01*
X-268047Y972090D01*
D02*
G37*
G36*
X-823362D02*
X-823035D01*
X-822634Y972054D01*
X-822197Y971981D01*
X-821688Y971908D01*
X-820632Y971726D01*
X-819540Y971435D01*
X-818448Y971034D01*
X-817939Y970780D01*
X-817429Y970488D01*
X-817393Y970452D01*
X-817320Y970416D01*
X-817174Y970306D01*
X-817029Y970161D01*
X-816810Y970015D01*
X-816555Y969797D01*
X-816264Y969542D01*
X-815973Y969251D01*
X-815682Y968923D01*
X-815354Y968596D01*
X-814699Y967758D01*
X-814080Y966776D01*
X-813534Y965684D01*
Y965647D01*
X-813461Y965538D01*
X-813425Y965356D01*
X-813316Y965138D01*
X-813243Y964846D01*
X-813134Y964482D01*
X-812988Y964082D01*
X-812879Y963645D01*
X-812770Y963172D01*
X-812624Y962626D01*
X-812442Y961498D01*
X-812297Y960224D01*
X-812224Y958913D01*
Y958877D01*
Y958731D01*
Y958513D01*
X-812260Y958258D01*
Y957894D01*
X-812297Y957530D01*
X-812333Y957057D01*
X-812406Y956584D01*
X-812588Y955528D01*
X-812843Y954363D01*
X-813207Y953198D01*
X-813716Y952070D01*
X-813753Y952034D01*
X-813789Y951924D01*
X-813862Y951779D01*
X-814007Y951597D01*
X-814153Y951342D01*
X-814335Y951051D01*
X-814808Y950396D01*
X-815427Y949668D01*
X-816155Y948940D01*
X-816992Y948212D01*
X-817975Y947593D01*
X-818011Y947556D01*
X-818121Y947520D01*
X-818266Y947447D01*
X-818448Y947338D01*
X-818739Y947229D01*
X-819031Y947120D01*
X-819395Y946974D01*
X-819795Y946828D01*
X-820232Y946683D01*
X-820705Y946537D01*
X-821724Y946319D01*
X-822889Y946137D01*
X-824090Y946064D01*
X-824454D01*
X-824709Y946100D01*
X-825037Y946137D01*
X-825437Y946173D01*
X-825837Y946210D01*
X-826311Y946319D01*
X-827293Y946537D01*
X-828385Y946865D01*
X-828931Y947083D01*
X-829441Y947338D01*
X-829951Y947666D01*
X-830460Y947993D01*
X-830497Y948030D01*
X-830569Y948066D01*
X-830715Y948175D01*
X-830897Y948357D01*
X-831079Y948539D01*
X-831334Y948794D01*
X-831589Y949085D01*
X-831880Y949376D01*
X-832171Y949740D01*
X-832462Y950177D01*
X-832790Y950614D01*
X-833081Y951087D01*
X-833336Y951633D01*
X-833627Y952179D01*
X-833845Y952762D01*
X-834064Y953417D01*
X-830788Y954181D01*
Y954145D01*
X-830751Y954072D01*
X-830679Y953926D01*
X-830606Y953744D01*
X-830533Y953526D01*
X-830424Y953235D01*
X-830133Y952652D01*
X-829769Y951997D01*
X-829332Y951342D01*
X-828786Y950723D01*
X-828203Y950177D01*
X-828131Y950104D01*
X-827912Y949959D01*
X-827548Y949777D01*
X-827075Y949522D01*
X-826456Y949304D01*
X-825765Y949085D01*
X-824927Y948940D01*
X-824017Y948903D01*
X-823726D01*
X-823544Y948940D01*
X-823289D01*
X-822998Y948976D01*
X-822307Y949085D01*
X-821542Y949231D01*
X-820741Y949486D01*
X-819904Y949850D01*
X-819140Y950323D01*
X-819103D01*
X-819067Y950396D01*
X-818812Y950578D01*
X-818485Y950869D01*
X-818084Y951306D01*
X-817611Y951852D01*
X-817174Y952470D01*
X-816774Y953235D01*
X-816410Y954072D01*
Y954108D01*
X-816373Y954181D01*
X-816337Y954290D01*
X-816301Y954472D01*
X-816228Y954691D01*
X-816155Y954946D01*
X-816046Y955564D01*
X-815900Y956292D01*
X-815755Y957093D01*
X-815682Y957967D01*
X-815645Y958913D01*
Y958950D01*
Y959059D01*
Y959241D01*
Y959459D01*
X-815682Y959714D01*
Y960042D01*
X-815718Y960406D01*
X-815755Y960806D01*
X-815864Y961680D01*
X-816046Y962626D01*
X-816264Y963572D01*
X-816555Y964519D01*
Y964555D01*
X-816592Y964628D01*
X-816665Y964737D01*
X-816737Y964919D01*
X-816956Y965356D01*
X-817283Y965866D01*
X-817684Y966448D01*
X-818193Y967067D01*
X-818776Y967613D01*
X-819467Y968122D01*
X-819504D01*
X-819577Y968159D01*
X-819686Y968232D01*
X-819831Y968304D01*
X-820013Y968377D01*
X-820232Y968486D01*
X-820741Y968705D01*
X-821397Y968923D01*
X-822125Y969105D01*
X-822925Y969251D01*
X-823763Y969287D01*
X-824017D01*
X-824236Y969251D01*
X-824491D01*
X-824745Y969214D01*
X-825401Y969069D01*
X-826165Y968887D01*
X-826929Y968596D01*
X-827730Y968195D01*
X-828131Y967977D01*
X-828495Y967686D01*
X-828531Y967649D01*
X-828567Y967613D01*
X-828677Y967504D01*
X-828822Y967394D01*
X-828968Y967212D01*
X-829150Y966994D01*
X-829368Y966776D01*
X-829550Y966484D01*
X-829769Y966157D01*
X-830023Y965793D01*
X-830242Y965429D01*
X-830460Y964992D01*
X-830642Y964519D01*
X-830824Y964009D01*
X-831006Y963463D01*
X-831152Y962881D01*
X-834501Y963718D01*
Y963754D01*
X-834464Y963900D01*
X-834391Y964118D01*
X-834282Y964410D01*
X-834173Y964737D01*
X-834027Y965138D01*
X-833845Y965574D01*
X-833627Y966048D01*
X-833117Y967067D01*
X-832462Y968086D01*
X-832062Y968596D01*
X-831661Y969105D01*
X-831225Y969542D01*
X-830715Y969979D01*
X-830679Y970015D01*
X-830606Y970088D01*
X-830424Y970161D01*
X-830242Y970306D01*
X-829951Y970488D01*
X-829659Y970670D01*
X-829259Y970852D01*
X-828859Y971034D01*
X-828385Y971253D01*
X-827876Y971435D01*
X-827330Y971617D01*
X-826747Y971799D01*
X-826129Y971944D01*
X-825473Y972017D01*
X-824782Y972090D01*
X-824054Y972126D01*
X-823653D01*
X-823362Y972090D01*
D02*
G37*
G36*
X820051Y951997D02*
X820088Y952034D01*
X820270Y952179D01*
X820488Y952398D01*
X820852Y952652D01*
X821252Y952980D01*
X821762Y953344D01*
X822344Y953744D01*
X823000Y954145D01*
X823036D01*
X823072Y954181D01*
X823291Y954327D01*
X823655Y954509D01*
X824092Y954727D01*
X824601Y954982D01*
X825147Y955237D01*
X825693Y955492D01*
X826239Y955710D01*
Y952725D01*
X826203D01*
X826130Y952652D01*
X825984Y952616D01*
X825802Y952507D01*
X825584Y952398D01*
X825329Y952252D01*
X824710Y951888D01*
X823982Y951488D01*
X823254Y950978D01*
X822490Y950396D01*
X821726Y949777D01*
X821689Y949740D01*
X821653Y949704D01*
X821544Y949595D01*
X821398Y949486D01*
X821070Y949122D01*
X820634Y948685D01*
X820197Y948175D01*
X819724Y947593D01*
X819323Y947010D01*
X818959Y946392D01*
X816957D01*
Y971690D01*
X820051D01*
Y951997D01*
D02*
G37*
G36*
X264736D02*
X264773Y952034D01*
X264955Y952179D01*
X265173Y952398D01*
X265537Y952652D01*
X265937Y952980D01*
X266447Y953344D01*
X267029Y953744D01*
X267685Y954145D01*
X267721D01*
X267757Y954181D01*
X267976Y954327D01*
X268340Y954509D01*
X268777Y954727D01*
X269286Y954982D01*
X269832Y955237D01*
X270378Y955492D01*
X270924Y955710D01*
Y952725D01*
X270888D01*
X270815Y952652D01*
X270669Y952616D01*
X270487Y952507D01*
X270269Y952398D01*
X270014Y952252D01*
X269395Y951888D01*
X268667Y951488D01*
X267939Y950978D01*
X267175Y950396D01*
X266411Y949777D01*
X266374Y949740D01*
X266338Y949704D01*
X266229Y949595D01*
X266083Y949486D01*
X265755Y949122D01*
X265319Y948685D01*
X264882Y948175D01*
X264409Y947593D01*
X264008Y947010D01*
X263644Y946392D01*
X261642D01*
Y971690D01*
X264736D01*
Y951997D01*
D02*
G37*
G36*
X-290579D02*
X-290542Y952034D01*
X-290360Y952179D01*
X-290142Y952398D01*
X-289778Y952652D01*
X-289378Y952980D01*
X-288868Y953344D01*
X-288286Y953744D01*
X-287630Y954145D01*
X-287594D01*
X-287558Y954181D01*
X-287339Y954327D01*
X-286975Y954509D01*
X-286538Y954727D01*
X-286029Y954982D01*
X-285483Y955237D01*
X-284937Y955492D01*
X-284391Y955710D01*
Y952725D01*
X-284427D01*
X-284500Y952652D01*
X-284646Y952616D01*
X-284828Y952507D01*
X-285046Y952398D01*
X-285301Y952252D01*
X-285920Y951888D01*
X-286648Y951488D01*
X-287376Y950978D01*
X-288140Y950396D01*
X-288904Y949777D01*
X-288941Y949740D01*
X-288977Y949704D01*
X-289086Y949595D01*
X-289232Y949486D01*
X-289560Y949122D01*
X-289996Y948685D01*
X-290433Y948175D01*
X-290906Y947593D01*
X-291307Y947010D01*
X-291671Y946392D01*
X-293673D01*
Y971690D01*
X-290579D01*
Y951997D01*
D02*
G37*
G36*
X-845894D02*
X-845857Y952034D01*
X-845675Y952179D01*
X-845457Y952398D01*
X-845093Y952652D01*
X-844693Y952980D01*
X-844183Y953344D01*
X-843601Y953744D01*
X-842945Y954145D01*
X-842909D01*
X-842873Y954181D01*
X-842654Y954327D01*
X-842290Y954509D01*
X-841853Y954727D01*
X-841344Y954982D01*
X-840798Y955237D01*
X-840252Y955492D01*
X-839706Y955710D01*
Y952725D01*
X-839742D01*
X-839815Y952652D01*
X-839961Y952616D01*
X-840143Y952507D01*
X-840361Y952398D01*
X-840616Y952252D01*
X-841235Y951888D01*
X-841963Y951488D01*
X-842691Y950978D01*
X-843455Y950396D01*
X-844219Y949777D01*
X-844256Y949740D01*
X-844292Y949704D01*
X-844401Y949595D01*
X-844547Y949486D01*
X-844875Y949122D01*
X-845311Y948685D01*
X-845748Y948175D01*
X-846221Y947593D01*
X-846622Y947010D01*
X-846986Y946392D01*
X-848988D01*
Y971690D01*
X-845894D01*
Y951997D01*
D02*
G37*
G36*
X784879Y2710D02*
X784842D01*
X784697D01*
X784478D01*
X784187Y2747D01*
X783860Y2783D01*
X783496Y2856D01*
X783132Y2929D01*
X782731Y3074D01*
X782695D01*
X782658Y3111D01*
X782440Y3184D01*
X782112Y3329D01*
X781676Y3547D01*
X781166Y3839D01*
X780584Y4203D01*
X780001Y4603D01*
X779382Y5113D01*
X779346D01*
X779310Y5186D01*
X779091Y5367D01*
X778764Y5695D01*
X778290Y6168D01*
X777744Y6714D01*
X777089Y7406D01*
X776361Y8243D01*
X775597Y9153D01*
X775560Y9190D01*
X775451Y9335D01*
X775269Y9553D01*
X775051Y9808D01*
X774760Y10136D01*
X774432Y10536D01*
X774068Y10937D01*
X773668Y11410D01*
X772794Y12320D01*
X771920Y13230D01*
X771484Y13667D01*
X771047Y14067D01*
X770646Y14431D01*
X770246Y14722D01*
X770210D01*
X770173Y14795D01*
X770064Y14868D01*
X769918Y14941D01*
X769518Y15195D01*
X769045Y15487D01*
X768462Y15742D01*
X767844Y15996D01*
X767152Y16142D01*
X766497Y16215D01*
X766460D01*
X766424D01*
X766206Y16178D01*
X765842Y16142D01*
X765441Y16033D01*
X764932Y15887D01*
X764422Y15632D01*
X763912Y15305D01*
X763403Y14868D01*
X763330Y14795D01*
X763184Y14613D01*
X763002Y14358D01*
X762748Y13958D01*
X762529Y13448D01*
X762311Y12866D01*
X762165Y12174D01*
X762129Y11410D01*
Y11191D01*
X762165Y11046D01*
X762202Y10609D01*
X762311Y10100D01*
X762456Y9553D01*
X762711Y8935D01*
X763039Y8352D01*
X763476Y7806D01*
X763548Y7734D01*
X763730Y7588D01*
X764022Y7370D01*
X764458Y7151D01*
X764968Y6896D01*
X765623Y6678D01*
X766351Y6532D01*
X767188Y6460D01*
X766861Y3293D01*
X766824D01*
X766715Y3329D01*
X766533D01*
X766278Y3365D01*
X765987Y3438D01*
X765660Y3511D01*
X765259Y3620D01*
X764859Y3729D01*
X763985Y4021D01*
X763112Y4457D01*
X762675Y4712D01*
X762238Y5040D01*
X761838Y5367D01*
X761474Y5731D01*
X761437Y5768D01*
X761401Y5841D01*
X761292Y5950D01*
X761182Y6132D01*
X761037Y6350D01*
X760891Y6605D01*
X760709Y6896D01*
X760527Y7260D01*
X760345Y7661D01*
X760163Y8098D01*
X760018Y8571D01*
X759872Y9080D01*
X759763Y9626D01*
X759654Y10209D01*
X759617Y10828D01*
X759581Y11483D01*
Y11847D01*
X759617Y12101D01*
X759654Y12393D01*
X759690Y12757D01*
X759763Y13157D01*
X759836Y13557D01*
X760090Y14504D01*
X760454Y15450D01*
X760673Y15924D01*
X760928Y16397D01*
X761255Y16834D01*
X761619Y17234D01*
X761656Y17270D01*
X761692Y17343D01*
X761838Y17416D01*
X761983Y17561D01*
X762165Y17744D01*
X762420Y17925D01*
X762675Y18108D01*
X763002Y18326D01*
X763694Y18690D01*
X764568Y19054D01*
X765004Y19200D01*
X765514Y19272D01*
X766024Y19345D01*
X766570Y19381D01*
X766642D01*
X766824D01*
X767116Y19345D01*
X767516Y19309D01*
X767953Y19236D01*
X768462Y19090D01*
X769008Y18945D01*
X769554Y18726D01*
X769627Y18690D01*
X769809Y18617D01*
X770100Y18471D01*
X770501Y18253D01*
X770938Y17962D01*
X771484Y17598D01*
X772030Y17161D01*
X772648Y16651D01*
X772721Y16579D01*
X772940Y16397D01*
X773122Y16215D01*
X773304Y16033D01*
X773522Y15814D01*
X773813Y15523D01*
X774104Y15232D01*
X774432Y14868D01*
X774796Y14504D01*
X775196Y14067D01*
X775597Y13594D01*
X776070Y13084D01*
X776543Y12502D01*
X777053Y11919D01*
X777089Y11883D01*
X777162Y11810D01*
X777271Y11665D01*
X777417Y11483D01*
X777635Y11264D01*
X777854Y11009D01*
X778327Y10427D01*
X778873Y9808D01*
X779419Y9226D01*
X779892Y8716D01*
X780074Y8498D01*
X780256Y8316D01*
X780292Y8280D01*
X780402Y8170D01*
X780547Y8025D01*
X780766Y7843D01*
X781020Y7661D01*
X781275Y7442D01*
X781894Y7005D01*
Y19418D01*
X784879D01*
Y2710D01*
D02*
G37*
G36*
X229564D02*
X229527D01*
X229382D01*
X229163D01*
X228872Y2747D01*
X228545Y2783D01*
X228181Y2856D01*
X227817Y2929D01*
X227416Y3074D01*
X227380D01*
X227343Y3111D01*
X227125Y3184D01*
X226797Y3329D01*
X226361Y3547D01*
X225851Y3839D01*
X225269Y4203D01*
X224686Y4603D01*
X224067Y5113D01*
X224031D01*
X223995Y5186D01*
X223776Y5367D01*
X223449Y5695D01*
X222975Y6168D01*
X222429Y6714D01*
X221774Y7406D01*
X221046Y8243D01*
X220282Y9153D01*
X220245Y9190D01*
X220136Y9335D01*
X219954Y9553D01*
X219736Y9808D01*
X219445Y10136D01*
X219117Y10536D01*
X218753Y10937D01*
X218353Y11410D01*
X217479Y12320D01*
X216605Y13230D01*
X216169Y13667D01*
X215732Y14067D01*
X215331Y14431D01*
X214931Y14722D01*
X214895D01*
X214858Y14795D01*
X214749Y14868D01*
X214603Y14941D01*
X214203Y15195D01*
X213730Y15487D01*
X213147Y15742D01*
X212529Y15996D01*
X211837Y16142D01*
X211182Y16215D01*
X211145D01*
X211109D01*
X210891Y16178D01*
X210527Y16142D01*
X210126Y16033D01*
X209617Y15887D01*
X209107Y15632D01*
X208597Y15305D01*
X208088Y14868D01*
X208015Y14795D01*
X207869Y14613D01*
X207687Y14358D01*
X207433Y13958D01*
X207214Y13448D01*
X206996Y12866D01*
X206850Y12174D01*
X206814Y11410D01*
Y11191D01*
X206850Y11046D01*
X206887Y10609D01*
X206996Y10100D01*
X207141Y9553D01*
X207396Y8935D01*
X207724Y8352D01*
X208161Y7806D01*
X208233Y7734D01*
X208415Y7588D01*
X208707Y7370D01*
X209143Y7151D01*
X209653Y6896D01*
X210308Y6678D01*
X211036Y6532D01*
X211873Y6460D01*
X211546Y3293D01*
X211509D01*
X211400Y3329D01*
X211218D01*
X210963Y3365D01*
X210672Y3438D01*
X210345Y3511D01*
X209944Y3620D01*
X209544Y3729D01*
X208670Y4021D01*
X207797Y4457D01*
X207360Y4712D01*
X206923Y5040D01*
X206523Y5367D01*
X206159Y5731D01*
X206122Y5768D01*
X206086Y5841D01*
X205977Y5950D01*
X205867Y6132D01*
X205722Y6350D01*
X205576Y6605D01*
X205394Y6896D01*
X205212Y7260D01*
X205030Y7661D01*
X204848Y8098D01*
X204703Y8571D01*
X204557Y9080D01*
X204448Y9626D01*
X204339Y10209D01*
X204302Y10828D01*
X204266Y11483D01*
Y11847D01*
X204302Y12101D01*
X204339Y12393D01*
X204375Y12757D01*
X204448Y13157D01*
X204521Y13557D01*
X204775Y14504D01*
X205139Y15450D01*
X205358Y15924D01*
X205613Y16397D01*
X205940Y16834D01*
X206304Y17234D01*
X206341Y17270D01*
X206377Y17343D01*
X206523Y17416D01*
X206668Y17561D01*
X206850Y17744D01*
X207105Y17925D01*
X207360Y18108D01*
X207687Y18326D01*
X208379Y18690D01*
X209253Y19054D01*
X209689Y19200D01*
X210199Y19272D01*
X210709Y19345D01*
X211255Y19381D01*
X211327D01*
X211509D01*
X211801Y19345D01*
X212201Y19309D01*
X212638Y19236D01*
X213147Y19090D01*
X213693Y18945D01*
X214239Y18726D01*
X214312Y18690D01*
X214494Y18617D01*
X214785Y18471D01*
X215186Y18253D01*
X215623Y17962D01*
X216169Y17598D01*
X216715Y17161D01*
X217333Y16651D01*
X217406Y16579D01*
X217625Y16397D01*
X217807Y16215D01*
X217989Y16033D01*
X218207Y15814D01*
X218498Y15523D01*
X218789Y15232D01*
X219117Y14868D01*
X219481Y14504D01*
X219881Y14067D01*
X220282Y13594D01*
X220755Y13084D01*
X221228Y12502D01*
X221738Y11919D01*
X221774Y11883D01*
X221847Y11810D01*
X221956Y11665D01*
X222102Y11483D01*
X222320Y11264D01*
X222539Y11009D01*
X223012Y10427D01*
X223558Y9808D01*
X224104Y9226D01*
X224577Y8716D01*
X224759Y8498D01*
X224941Y8316D01*
X224977Y8280D01*
X225087Y8170D01*
X225232Y8025D01*
X225451Y7843D01*
X225705Y7661D01*
X225960Y7442D01*
X226579Y7005D01*
Y19418D01*
X229564D01*
Y2710D01*
D02*
G37*
G36*
X-325751D02*
X-325788D01*
X-325933D01*
X-326152D01*
X-326443Y2747D01*
X-326770Y2783D01*
X-327134Y2856D01*
X-327498Y2929D01*
X-327899Y3074D01*
X-327935D01*
X-327972Y3111D01*
X-328190Y3184D01*
X-328518Y3329D01*
X-328954Y3547D01*
X-329464Y3839D01*
X-330046Y4203D01*
X-330629Y4603D01*
X-331248Y5113D01*
X-331284D01*
X-331320Y5186D01*
X-331539Y5367D01*
X-331866Y5695D01*
X-332340Y6168D01*
X-332886Y6714D01*
X-333541Y7406D01*
X-334269Y8243D01*
X-335033Y9153D01*
X-335070Y9190D01*
X-335179Y9335D01*
X-335361Y9553D01*
X-335579Y9808D01*
X-335870Y10136D01*
X-336198Y10536D01*
X-336562Y10937D01*
X-336962Y11410D01*
X-337836Y12320D01*
X-338710Y13230D01*
X-339146Y13667D01*
X-339583Y14067D01*
X-339984Y14431D01*
X-340384Y14722D01*
X-340420D01*
X-340457Y14795D01*
X-340566Y14868D01*
X-340712Y14941D01*
X-341112Y15195D01*
X-341585Y15487D01*
X-342168Y15742D01*
X-342786Y15996D01*
X-343478Y16142D01*
X-344133Y16215D01*
X-344170D01*
X-344206D01*
X-344424Y16178D01*
X-344788Y16142D01*
X-345189Y16033D01*
X-345698Y15887D01*
X-346208Y15632D01*
X-346718Y15305D01*
X-347227Y14868D01*
X-347300Y14795D01*
X-347446Y14613D01*
X-347628Y14358D01*
X-347882Y13958D01*
X-348101Y13448D01*
X-348319Y12866D01*
X-348465Y12174D01*
X-348501Y11410D01*
Y11191D01*
X-348465Y11046D01*
X-348428Y10609D01*
X-348319Y10100D01*
X-348174Y9553D01*
X-347919Y8935D01*
X-347591Y8352D01*
X-347154Y7806D01*
X-347082Y7734D01*
X-346900Y7588D01*
X-346608Y7370D01*
X-346172Y7151D01*
X-345662Y6896D01*
X-345007Y6678D01*
X-344279Y6532D01*
X-343442Y6460D01*
X-343769Y3293D01*
X-343806D01*
X-343915Y3329D01*
X-344097D01*
X-344352Y3365D01*
X-344643Y3438D01*
X-344970Y3511D01*
X-345371Y3620D01*
X-345771Y3729D01*
X-346645Y4021D01*
X-347518Y4457D01*
X-347955Y4712D01*
X-348392Y5040D01*
X-348792Y5367D01*
X-349156Y5731D01*
X-349193Y5768D01*
X-349229Y5841D01*
X-349338Y5950D01*
X-349448Y6132D01*
X-349593Y6350D01*
X-349739Y6605D01*
X-349921Y6896D01*
X-350103Y7260D01*
X-350285Y7661D01*
X-350467Y8098D01*
X-350612Y8571D01*
X-350758Y9080D01*
X-350867Y9626D01*
X-350976Y10209D01*
X-351013Y10828D01*
X-351049Y11483D01*
Y11847D01*
X-351013Y12101D01*
X-350976Y12393D01*
X-350940Y12757D01*
X-350867Y13157D01*
X-350794Y13557D01*
X-350540Y14504D01*
X-350176Y15450D01*
X-349957Y15924D01*
X-349702Y16397D01*
X-349375Y16834D01*
X-349011Y17234D01*
X-348974Y17270D01*
X-348938Y17343D01*
X-348792Y17416D01*
X-348647Y17561D01*
X-348465Y17744D01*
X-348210Y17925D01*
X-347955Y18108D01*
X-347628Y18326D01*
X-346936Y18690D01*
X-346062Y19054D01*
X-345626Y19200D01*
X-345116Y19272D01*
X-344606Y19345D01*
X-344060Y19381D01*
X-343988D01*
X-343806D01*
X-343514Y19345D01*
X-343114Y19309D01*
X-342677Y19236D01*
X-342168Y19090D01*
X-341622Y18945D01*
X-341076Y18726D01*
X-341003Y18690D01*
X-340821Y18617D01*
X-340530Y18471D01*
X-340129Y18253D01*
X-339692Y17962D01*
X-339146Y17598D01*
X-338600Y17161D01*
X-337982Y16651D01*
X-337909Y16579D01*
X-337690Y16397D01*
X-337508Y16215D01*
X-337326Y16033D01*
X-337108Y15814D01*
X-336817Y15523D01*
X-336526Y15232D01*
X-336198Y14868D01*
X-335834Y14504D01*
X-335434Y14067D01*
X-335033Y13594D01*
X-334560Y13084D01*
X-334087Y12502D01*
X-333577Y11919D01*
X-333541Y11883D01*
X-333468Y11810D01*
X-333359Y11665D01*
X-333213Y11483D01*
X-332995Y11264D01*
X-332776Y11009D01*
X-332303Y10427D01*
X-331757Y9808D01*
X-331211Y9226D01*
X-330738Y8716D01*
X-330556Y8498D01*
X-330374Y8316D01*
X-330338Y8280D01*
X-330228Y8170D01*
X-330083Y8025D01*
X-329864Y7843D01*
X-329610Y7661D01*
X-329355Y7442D01*
X-328736Y7005D01*
Y19418D01*
X-325751D01*
Y2710D01*
D02*
G37*
G36*
X-881066D02*
X-881103D01*
X-881248D01*
X-881467D01*
X-881758Y2747D01*
X-882085Y2783D01*
X-882449Y2856D01*
X-882813Y2929D01*
X-883214Y3074D01*
X-883250D01*
X-883287Y3111D01*
X-883505Y3184D01*
X-883833Y3329D01*
X-884269Y3547D01*
X-884779Y3839D01*
X-885361Y4203D01*
X-885944Y4603D01*
X-886563Y5113D01*
X-886599D01*
X-886635Y5186D01*
X-886854Y5367D01*
X-887181Y5695D01*
X-887655Y6168D01*
X-888201Y6714D01*
X-888856Y7406D01*
X-889584Y8243D01*
X-890348Y9153D01*
X-890385Y9190D01*
X-890494Y9335D01*
X-890676Y9553D01*
X-890894Y9808D01*
X-891185Y10136D01*
X-891513Y10536D01*
X-891877Y10937D01*
X-892277Y11410D01*
X-893151Y12320D01*
X-894025Y13230D01*
X-894461Y13667D01*
X-894898Y14067D01*
X-895299Y14431D01*
X-895699Y14722D01*
X-895735D01*
X-895772Y14795D01*
X-895881Y14868D01*
X-896027Y14941D01*
X-896427Y15195D01*
X-896900Y15487D01*
X-897483Y15742D01*
X-898101Y15996D01*
X-898793Y16142D01*
X-899448Y16215D01*
X-899485D01*
X-899521D01*
X-899739Y16178D01*
X-900103Y16142D01*
X-900504Y16033D01*
X-901013Y15887D01*
X-901523Y15632D01*
X-902033Y15305D01*
X-902542Y14868D01*
X-902615Y14795D01*
X-902761Y14613D01*
X-902943Y14358D01*
X-903197Y13958D01*
X-903416Y13448D01*
X-903634Y12866D01*
X-903780Y12174D01*
X-903816Y11410D01*
Y11191D01*
X-903780Y11046D01*
X-903743Y10609D01*
X-903634Y10100D01*
X-903489Y9553D01*
X-903234Y8935D01*
X-902906Y8352D01*
X-902469Y7806D01*
X-902397Y7734D01*
X-902215Y7588D01*
X-901923Y7370D01*
X-901487Y7151D01*
X-900977Y6896D01*
X-900322Y6678D01*
X-899594Y6532D01*
X-898757Y6460D01*
X-899084Y3293D01*
X-899121D01*
X-899230Y3329D01*
X-899412D01*
X-899667Y3365D01*
X-899958Y3438D01*
X-900285Y3511D01*
X-900686Y3620D01*
X-901086Y3729D01*
X-901960Y4021D01*
X-902833Y4457D01*
X-903270Y4712D01*
X-903707Y5040D01*
X-904107Y5367D01*
X-904471Y5731D01*
X-904508Y5768D01*
X-904544Y5841D01*
X-904653Y5950D01*
X-904763Y6132D01*
X-904908Y6350D01*
X-905054Y6605D01*
X-905236Y6896D01*
X-905418Y7260D01*
X-905600Y7661D01*
X-905782Y8098D01*
X-905927Y8571D01*
X-906073Y9080D01*
X-906182Y9626D01*
X-906291Y10209D01*
X-906328Y10828D01*
X-906364Y11483D01*
Y11847D01*
X-906328Y12101D01*
X-906291Y12393D01*
X-906255Y12757D01*
X-906182Y13157D01*
X-906109Y13557D01*
X-905855Y14504D01*
X-905491Y15450D01*
X-905272Y15924D01*
X-905017Y16397D01*
X-904690Y16834D01*
X-904326Y17234D01*
X-904289Y17270D01*
X-904253Y17343D01*
X-904107Y17416D01*
X-903962Y17561D01*
X-903780Y17744D01*
X-903525Y17925D01*
X-903270Y18108D01*
X-902943Y18326D01*
X-902251Y18690D01*
X-901377Y19054D01*
X-900941Y19200D01*
X-900431Y19272D01*
X-899921Y19345D01*
X-899375Y19381D01*
X-899303D01*
X-899121D01*
X-898829Y19345D01*
X-898429Y19309D01*
X-897992Y19236D01*
X-897483Y19090D01*
X-896937Y18945D01*
X-896391Y18726D01*
X-896318Y18690D01*
X-896136Y18617D01*
X-895845Y18471D01*
X-895444Y18253D01*
X-895007Y17962D01*
X-894461Y17598D01*
X-893915Y17161D01*
X-893297Y16651D01*
X-893224Y16579D01*
X-893005Y16397D01*
X-892823Y16215D01*
X-892641Y16033D01*
X-892423Y15814D01*
X-892132Y15523D01*
X-891841Y15232D01*
X-891513Y14868D01*
X-891149Y14504D01*
X-890749Y14067D01*
X-890348Y13594D01*
X-889875Y13084D01*
X-889402Y12502D01*
X-888892Y11919D01*
X-888856Y11883D01*
X-888783Y11810D01*
X-888674Y11665D01*
X-888528Y11483D01*
X-888310Y11264D01*
X-888091Y11009D01*
X-887618Y10427D01*
X-887072Y9808D01*
X-886526Y9226D01*
X-886053Y8716D01*
X-885871Y8498D01*
X-885689Y8316D01*
X-885653Y8280D01*
X-885543Y8170D01*
X-885398Y8025D01*
X-885179Y7843D01*
X-884925Y7661D01*
X-884670Y7442D01*
X-884051Y7005D01*
Y19418D01*
X-881066D01*
Y2710D01*
D02*
G37*
G36*
X777089Y272D02*
X777308Y199D01*
X777599Y90D01*
X777926Y-20D01*
X778327Y-165D01*
X778764Y-347D01*
X779237Y-566D01*
X780256Y-1075D01*
X781275Y-1730D01*
X781785Y-2131D01*
X782294Y-2531D01*
X782731Y-2968D01*
X783168Y-3478D01*
X783204Y-3514D01*
X783277Y-3587D01*
X783350Y-3769D01*
X783496Y-3951D01*
X783678Y-4242D01*
X783860Y-4533D01*
X784042Y-4934D01*
X784224Y-5334D01*
X784442Y-5807D01*
X784624Y-6317D01*
X784806Y-6863D01*
X784988Y-7445D01*
X785134Y-8064D01*
X785206Y-8719D01*
X785279Y-9411D01*
X785316Y-10139D01*
Y-10539D01*
X785279Y-10831D01*
Y-11158D01*
X785243Y-11559D01*
X785170Y-11995D01*
X785097Y-12505D01*
X784915Y-13560D01*
X784624Y-14652D01*
X784224Y-15745D01*
X783969Y-16254D01*
X783678Y-16764D01*
X783641Y-16800D01*
X783605Y-16873D01*
X783496Y-17018D01*
X783350Y-17164D01*
X783204Y-17383D01*
X782986Y-17637D01*
X782731Y-17928D01*
X782440Y-18220D01*
X782112Y-18511D01*
X781785Y-18838D01*
X780948Y-19494D01*
X779965Y-20113D01*
X778873Y-20659D01*
X778836D01*
X778727Y-20731D01*
X778545Y-20768D01*
X778327Y-20877D01*
X778036Y-20950D01*
X777672Y-21059D01*
X777271Y-21204D01*
X776834Y-21314D01*
X776361Y-21423D01*
X775815Y-21569D01*
X774687Y-21750D01*
X773413Y-21896D01*
X772102Y-21969D01*
X772066D01*
X771920D01*
X771702D01*
X771447Y-21933D01*
X771083D01*
X770719Y-21896D01*
X770246Y-21860D01*
X769773Y-21787D01*
X768717Y-21605D01*
X767552Y-21350D01*
X766388Y-20986D01*
X765259Y-20477D01*
X765223Y-20440D01*
X765114Y-20404D01*
X764968Y-20331D01*
X764786Y-20185D01*
X764531Y-20040D01*
X764240Y-19858D01*
X763585Y-19384D01*
X762857Y-18766D01*
X762129Y-18038D01*
X761401Y-17201D01*
X760782Y-16218D01*
X760746Y-16181D01*
X760709Y-16072D01*
X760636Y-15927D01*
X760527Y-15745D01*
X760418Y-15453D01*
X760309Y-15162D01*
X760163Y-14798D01*
X760018Y-14398D01*
X759872Y-13961D01*
X759726Y-13488D01*
X759508Y-12469D01*
X759326Y-11304D01*
X759253Y-10102D01*
Y-9739D01*
X759290Y-9484D01*
X759326Y-9156D01*
X759362Y-8756D01*
X759399Y-8355D01*
X759508Y-7882D01*
X759726Y-6899D01*
X760054Y-5807D01*
X760272Y-5261D01*
X760527Y-4752D01*
X760855Y-4242D01*
X761182Y-3732D01*
X761219Y-3696D01*
X761255Y-3623D01*
X761364Y-3478D01*
X761546Y-3296D01*
X761728Y-3114D01*
X761983Y-2859D01*
X762274Y-2604D01*
X762566Y-2313D01*
X762930Y-2022D01*
X763366Y-1730D01*
X763803Y-1403D01*
X764276Y-1112D01*
X764822Y-857D01*
X765368Y-566D01*
X765951Y-347D01*
X766606Y-129D01*
X767370Y-3405D01*
X767334D01*
X767261Y-3441D01*
X767116Y-3514D01*
X766934Y-3587D01*
X766715Y-3660D01*
X766424Y-3769D01*
X765842Y-4060D01*
X765186Y-4424D01*
X764531Y-4861D01*
X763912Y-5407D01*
X763366Y-5989D01*
X763294Y-6062D01*
X763148Y-6280D01*
X762966Y-6644D01*
X762711Y-7118D01*
X762493Y-7737D01*
X762274Y-8428D01*
X762129Y-9265D01*
X762092Y-10175D01*
Y-10466D01*
X762129Y-10649D01*
Y-10903D01*
X762165Y-11194D01*
X762274Y-11886D01*
X762420Y-12650D01*
X762675Y-13451D01*
X763039Y-14289D01*
X763512Y-15053D01*
Y-15089D01*
X763585Y-15126D01*
X763767Y-15380D01*
X764058Y-15708D01*
X764495Y-16108D01*
X765041Y-16582D01*
X765660Y-17018D01*
X766424Y-17419D01*
X767261Y-17783D01*
X767298D01*
X767370Y-17819D01*
X767480Y-17856D01*
X767662Y-17892D01*
X767880Y-17965D01*
X768135Y-18038D01*
X768754Y-18147D01*
X769482Y-18293D01*
X770282Y-18438D01*
X771156Y-18511D01*
X772102Y-18547D01*
X772139D01*
X772248D01*
X772430D01*
X772648D01*
X772903Y-18511D01*
X773231D01*
X773595Y-18474D01*
X773995Y-18438D01*
X774869Y-18329D01*
X775815Y-18147D01*
X776762Y-17928D01*
X777708Y-17637D01*
X777744D01*
X777817Y-17601D01*
X777926Y-17528D01*
X778108Y-17455D01*
X778545Y-17237D01*
X779055Y-16909D01*
X779637Y-16509D01*
X780256Y-15999D01*
X780802Y-15417D01*
X781312Y-14725D01*
Y-14689D01*
X781348Y-14616D01*
X781421Y-14507D01*
X781494Y-14361D01*
X781566Y-14179D01*
X781676Y-13961D01*
X781894Y-13451D01*
X782112Y-12796D01*
X782294Y-12068D01*
X782440Y-11267D01*
X782476Y-10430D01*
Y-10175D01*
X782440Y-9957D01*
Y-9702D01*
X782404Y-9447D01*
X782258Y-8792D01*
X782076Y-8028D01*
X781785Y-7263D01*
X781384Y-6463D01*
X781166Y-6062D01*
X780875Y-5698D01*
X780838Y-5662D01*
X780802Y-5625D01*
X780693Y-5516D01*
X780584Y-5370D01*
X780402Y-5225D01*
X780183Y-5043D01*
X779965Y-4824D01*
X779674Y-4643D01*
X779346Y-4424D01*
X778982Y-4169D01*
X778618Y-3951D01*
X778181Y-3732D01*
X777708Y-3550D01*
X777198Y-3369D01*
X776652Y-3187D01*
X776070Y-3041D01*
X776907Y308D01*
X776944D01*
X777089Y272D01*
D02*
G37*
G36*
X221774D02*
X221993Y199D01*
X222284Y90D01*
X222611Y-20D01*
X223012Y-165D01*
X223449Y-347D01*
X223922Y-566D01*
X224941Y-1075D01*
X225960Y-1730D01*
X226470Y-2131D01*
X226979Y-2531D01*
X227416Y-2968D01*
X227853Y-3478D01*
X227889Y-3514D01*
X227962Y-3587D01*
X228035Y-3769D01*
X228181Y-3951D01*
X228363Y-4242D01*
X228545Y-4533D01*
X228727Y-4934D01*
X228909Y-5334D01*
X229127Y-5807D01*
X229309Y-6317D01*
X229491Y-6863D01*
X229673Y-7445D01*
X229819Y-8064D01*
X229891Y-8719D01*
X229964Y-9411D01*
X230001Y-10139D01*
Y-10539D01*
X229964Y-10831D01*
Y-11158D01*
X229928Y-11559D01*
X229855Y-11995D01*
X229782Y-12505D01*
X229600Y-13560D01*
X229309Y-14652D01*
X228909Y-15745D01*
X228654Y-16254D01*
X228363Y-16764D01*
X228326Y-16800D01*
X228290Y-16873D01*
X228181Y-17018D01*
X228035Y-17164D01*
X227889Y-17383D01*
X227671Y-17637D01*
X227416Y-17928D01*
X227125Y-18220D01*
X226797Y-18511D01*
X226470Y-18838D01*
X225633Y-19494D01*
X224650Y-20113D01*
X223558Y-20659D01*
X223521D01*
X223412Y-20731D01*
X223230Y-20768D01*
X223012Y-20877D01*
X222721Y-20950D01*
X222357Y-21059D01*
X221956Y-21204D01*
X221519Y-21314D01*
X221046Y-21423D01*
X220500Y-21569D01*
X219372Y-21750D01*
X218098Y-21896D01*
X216787Y-21969D01*
X216751D01*
X216605D01*
X216387D01*
X216132Y-21933D01*
X215768D01*
X215404Y-21896D01*
X214931Y-21860D01*
X214458Y-21787D01*
X213402Y-21605D01*
X212237Y-21350D01*
X211073Y-20986D01*
X209944Y-20477D01*
X209908Y-20440D01*
X209799Y-20404D01*
X209653Y-20331D01*
X209471Y-20185D01*
X209216Y-20040D01*
X208925Y-19858D01*
X208270Y-19384D01*
X207542Y-18766D01*
X206814Y-18038D01*
X206086Y-17201D01*
X205467Y-16218D01*
X205431Y-16181D01*
X205394Y-16072D01*
X205321Y-15927D01*
X205212Y-15745D01*
X205103Y-15453D01*
X204994Y-15162D01*
X204848Y-14798D01*
X204703Y-14398D01*
X204557Y-13961D01*
X204411Y-13488D01*
X204193Y-12469D01*
X204011Y-11304D01*
X203938Y-10102D01*
Y-9739D01*
X203975Y-9484D01*
X204011Y-9156D01*
X204047Y-8756D01*
X204084Y-8355D01*
X204193Y-7882D01*
X204411Y-6899D01*
X204739Y-5807D01*
X204957Y-5261D01*
X205212Y-4752D01*
X205540Y-4242D01*
X205867Y-3732D01*
X205904Y-3696D01*
X205940Y-3623D01*
X206049Y-3478D01*
X206231Y-3296D01*
X206413Y-3114D01*
X206668Y-2859D01*
X206959Y-2604D01*
X207251Y-2313D01*
X207615Y-2022D01*
X208051Y-1730D01*
X208488Y-1403D01*
X208961Y-1112D01*
X209507Y-857D01*
X210053Y-566D01*
X210636Y-347D01*
X211291Y-129D01*
X212055Y-3405D01*
X212019D01*
X211946Y-3441D01*
X211801Y-3514D01*
X211619Y-3587D01*
X211400Y-3660D01*
X211109Y-3769D01*
X210527Y-4060D01*
X209871Y-4424D01*
X209216Y-4861D01*
X208597Y-5407D01*
X208051Y-5989D01*
X207979Y-6062D01*
X207833Y-6280D01*
X207651Y-6644D01*
X207396Y-7118D01*
X207178Y-7737D01*
X206959Y-8428D01*
X206814Y-9265D01*
X206777Y-10175D01*
Y-10466D01*
X206814Y-10649D01*
Y-10903D01*
X206850Y-11194D01*
X206959Y-11886D01*
X207105Y-12650D01*
X207360Y-13451D01*
X207724Y-14289D01*
X208197Y-15053D01*
Y-15089D01*
X208270Y-15126D01*
X208452Y-15380D01*
X208743Y-15708D01*
X209180Y-16108D01*
X209726Y-16582D01*
X210345Y-17018D01*
X211109Y-17419D01*
X211946Y-17783D01*
X211983D01*
X212055Y-17819D01*
X212165Y-17856D01*
X212347Y-17892D01*
X212565Y-17965D01*
X212820Y-18038D01*
X213439Y-18147D01*
X214167Y-18293D01*
X214967Y-18438D01*
X215841Y-18511D01*
X216787Y-18547D01*
X216824D01*
X216933D01*
X217115D01*
X217333D01*
X217588Y-18511D01*
X217916D01*
X218280Y-18474D01*
X218680Y-18438D01*
X219554Y-18329D01*
X220500Y-18147D01*
X221447Y-17928D01*
X222393Y-17637D01*
X222429D01*
X222502Y-17601D01*
X222611Y-17528D01*
X222793Y-17455D01*
X223230Y-17237D01*
X223740Y-16909D01*
X224322Y-16509D01*
X224941Y-15999D01*
X225487Y-15417D01*
X225997Y-14725D01*
Y-14689D01*
X226033Y-14616D01*
X226106Y-14507D01*
X226179Y-14361D01*
X226251Y-14179D01*
X226361Y-13961D01*
X226579Y-13451D01*
X226797Y-12796D01*
X226979Y-12068D01*
X227125Y-11267D01*
X227161Y-10430D01*
Y-10175D01*
X227125Y-9957D01*
Y-9702D01*
X227089Y-9447D01*
X226943Y-8792D01*
X226761Y-8028D01*
X226470Y-7263D01*
X226069Y-6463D01*
X225851Y-6062D01*
X225560Y-5698D01*
X225523Y-5662D01*
X225487Y-5625D01*
X225378Y-5516D01*
X225269Y-5370D01*
X225087Y-5225D01*
X224868Y-5043D01*
X224650Y-4824D01*
X224359Y-4643D01*
X224031Y-4424D01*
X223667Y-4169D01*
X223303Y-3951D01*
X222866Y-3732D01*
X222393Y-3550D01*
X221883Y-3369D01*
X221337Y-3187D01*
X220755Y-3041D01*
X221592Y308D01*
X221629D01*
X221774Y272D01*
D02*
G37*
G36*
X-333541D02*
X-333322Y199D01*
X-333031Y90D01*
X-332704Y-20D01*
X-332303Y-165D01*
X-331866Y-347D01*
X-331393Y-566D01*
X-330374Y-1075D01*
X-329355Y-1730D01*
X-328845Y-2131D01*
X-328336Y-2531D01*
X-327899Y-2968D01*
X-327462Y-3478D01*
X-327426Y-3514D01*
X-327353Y-3587D01*
X-327280Y-3769D01*
X-327134Y-3951D01*
X-326952Y-4242D01*
X-326770Y-4533D01*
X-326588Y-4934D01*
X-326406Y-5334D01*
X-326188Y-5807D01*
X-326006Y-6317D01*
X-325824Y-6863D01*
X-325642Y-7445D01*
X-325496Y-8064D01*
X-325424Y-8719D01*
X-325351Y-9411D01*
X-325314Y-10139D01*
Y-10539D01*
X-325351Y-10831D01*
Y-11158D01*
X-325387Y-11559D01*
X-325460Y-11995D01*
X-325533Y-12505D01*
X-325715Y-13560D01*
X-326006Y-14652D01*
X-326406Y-15745D01*
X-326661Y-16254D01*
X-326952Y-16764D01*
X-326989Y-16800D01*
X-327025Y-16873D01*
X-327134Y-17018D01*
X-327280Y-17164D01*
X-327426Y-17383D01*
X-327644Y-17637D01*
X-327899Y-17928D01*
X-328190Y-18220D01*
X-328518Y-18511D01*
X-328845Y-18838D01*
X-329682Y-19494D01*
X-330665Y-20113D01*
X-331757Y-20659D01*
X-331794D01*
X-331903Y-20731D01*
X-332085Y-20768D01*
X-332303Y-20877D01*
X-332594Y-20950D01*
X-332958Y-21059D01*
X-333359Y-21204D01*
X-333796Y-21314D01*
X-334269Y-21423D01*
X-334815Y-21569D01*
X-335943Y-21750D01*
X-337217Y-21896D01*
X-338528Y-21969D01*
X-338564D01*
X-338710D01*
X-338928D01*
X-339183Y-21933D01*
X-339547D01*
X-339911Y-21896D01*
X-340384Y-21860D01*
X-340857Y-21787D01*
X-341913Y-21605D01*
X-343078Y-21350D01*
X-344242Y-20986D01*
X-345371Y-20477D01*
X-345407Y-20440D01*
X-345516Y-20404D01*
X-345662Y-20331D01*
X-345844Y-20185D01*
X-346099Y-20040D01*
X-346390Y-19858D01*
X-347045Y-19384D01*
X-347773Y-18766D01*
X-348501Y-18038D01*
X-349229Y-17201D01*
X-349848Y-16218D01*
X-349884Y-16181D01*
X-349921Y-16072D01*
X-349994Y-15927D01*
X-350103Y-15745D01*
X-350212Y-15453D01*
X-350321Y-15162D01*
X-350467Y-14798D01*
X-350612Y-14398D01*
X-350758Y-13961D01*
X-350904Y-13488D01*
X-351122Y-12469D01*
X-351304Y-11304D01*
X-351377Y-10102D01*
Y-9739D01*
X-351340Y-9484D01*
X-351304Y-9156D01*
X-351268Y-8756D01*
X-351231Y-8355D01*
X-351122Y-7882D01*
X-350904Y-6899D01*
X-350576Y-5807D01*
X-350358Y-5261D01*
X-350103Y-4752D01*
X-349775Y-4242D01*
X-349448Y-3732D01*
X-349411Y-3696D01*
X-349375Y-3623D01*
X-349266Y-3478D01*
X-349084Y-3296D01*
X-348902Y-3114D01*
X-348647Y-2859D01*
X-348356Y-2604D01*
X-348064Y-2313D01*
X-347700Y-2022D01*
X-347264Y-1730D01*
X-346827Y-1403D01*
X-346354Y-1112D01*
X-345808Y-857D01*
X-345262Y-566D01*
X-344679Y-347D01*
X-344024Y-129D01*
X-343260Y-3405D01*
X-343296D01*
X-343369Y-3441D01*
X-343514Y-3514D01*
X-343696Y-3587D01*
X-343915Y-3660D01*
X-344206Y-3769D01*
X-344788Y-4060D01*
X-345444Y-4424D01*
X-346099Y-4861D01*
X-346718Y-5407D01*
X-347264Y-5989D01*
X-347336Y-6062D01*
X-347482Y-6280D01*
X-347664Y-6644D01*
X-347919Y-7118D01*
X-348137Y-7737D01*
X-348356Y-8428D01*
X-348501Y-9265D01*
X-348538Y-10175D01*
Y-10466D01*
X-348501Y-10649D01*
Y-10903D01*
X-348465Y-11194D01*
X-348356Y-11886D01*
X-348210Y-12650D01*
X-347955Y-13451D01*
X-347591Y-14289D01*
X-347118Y-15053D01*
Y-15089D01*
X-347045Y-15126D01*
X-346863Y-15380D01*
X-346572Y-15708D01*
X-346135Y-16108D01*
X-345589Y-16582D01*
X-344970Y-17018D01*
X-344206Y-17419D01*
X-343369Y-17783D01*
X-343332D01*
X-343260Y-17819D01*
X-343150Y-17856D01*
X-342968Y-17892D01*
X-342750Y-17965D01*
X-342495Y-18038D01*
X-341876Y-18147D01*
X-341148Y-18293D01*
X-340348Y-18438D01*
X-339474Y-18511D01*
X-338528Y-18547D01*
X-338491D01*
X-338382D01*
X-338200D01*
X-337982D01*
X-337727Y-18511D01*
X-337399D01*
X-337035Y-18474D01*
X-336635Y-18438D01*
X-335761Y-18329D01*
X-334815Y-18147D01*
X-333868Y-17928D01*
X-332922Y-17637D01*
X-332886D01*
X-332813Y-17601D01*
X-332704Y-17528D01*
X-332522Y-17455D01*
X-332085Y-17237D01*
X-331575Y-16909D01*
X-330993Y-16509D01*
X-330374Y-15999D01*
X-329828Y-15417D01*
X-329318Y-14725D01*
Y-14689D01*
X-329282Y-14616D01*
X-329209Y-14507D01*
X-329136Y-14361D01*
X-329064Y-14179D01*
X-328954Y-13961D01*
X-328736Y-13451D01*
X-328518Y-12796D01*
X-328336Y-12068D01*
X-328190Y-11267D01*
X-328154Y-10430D01*
Y-10175D01*
X-328190Y-9957D01*
Y-9702D01*
X-328226Y-9447D01*
X-328372Y-8792D01*
X-328554Y-8028D01*
X-328845Y-7263D01*
X-329246Y-6463D01*
X-329464Y-6062D01*
X-329755Y-5698D01*
X-329792Y-5662D01*
X-329828Y-5625D01*
X-329937Y-5516D01*
X-330046Y-5370D01*
X-330228Y-5225D01*
X-330447Y-5043D01*
X-330665Y-4824D01*
X-330956Y-4643D01*
X-331284Y-4424D01*
X-331648Y-4169D01*
X-332012Y-3951D01*
X-332449Y-3732D01*
X-332922Y-3550D01*
X-333432Y-3369D01*
X-333978Y-3187D01*
X-334560Y-3041D01*
X-333723Y308D01*
X-333686D01*
X-333541Y272D01*
D02*
G37*
G36*
X-888856D02*
X-888637Y199D01*
X-888346Y90D01*
X-888019Y-20D01*
X-887618Y-165D01*
X-887181Y-347D01*
X-886708Y-566D01*
X-885689Y-1075D01*
X-884670Y-1730D01*
X-884160Y-2131D01*
X-883651Y-2531D01*
X-883214Y-2968D01*
X-882777Y-3478D01*
X-882741Y-3514D01*
X-882668Y-3587D01*
X-882595Y-3769D01*
X-882449Y-3951D01*
X-882267Y-4242D01*
X-882085Y-4533D01*
X-881903Y-4934D01*
X-881721Y-5334D01*
X-881503Y-5807D01*
X-881321Y-6317D01*
X-881139Y-6863D01*
X-880957Y-7445D01*
X-880811Y-8064D01*
X-880739Y-8719D01*
X-880666Y-9411D01*
X-880629Y-10139D01*
Y-10539D01*
X-880666Y-10831D01*
Y-11158D01*
X-880702Y-11559D01*
X-880775Y-11995D01*
X-880848Y-12505D01*
X-881030Y-13560D01*
X-881321Y-14652D01*
X-881721Y-15745D01*
X-881976Y-16254D01*
X-882267Y-16764D01*
X-882304Y-16800D01*
X-882340Y-16873D01*
X-882449Y-17018D01*
X-882595Y-17164D01*
X-882741Y-17383D01*
X-882959Y-17637D01*
X-883214Y-17928D01*
X-883505Y-18220D01*
X-883833Y-18511D01*
X-884160Y-18838D01*
X-884997Y-19494D01*
X-885980Y-20113D01*
X-887072Y-20659D01*
X-887109D01*
X-887218Y-20731D01*
X-887400Y-20768D01*
X-887618Y-20877D01*
X-887909Y-20950D01*
X-888273Y-21059D01*
X-888674Y-21204D01*
X-889111Y-21314D01*
X-889584Y-21423D01*
X-890130Y-21569D01*
X-891258Y-21750D01*
X-892532Y-21896D01*
X-893843Y-21969D01*
X-893879D01*
X-894025D01*
X-894243D01*
X-894498Y-21933D01*
X-894862D01*
X-895226Y-21896D01*
X-895699Y-21860D01*
X-896172Y-21787D01*
X-897228Y-21605D01*
X-898393Y-21350D01*
X-899557Y-20986D01*
X-900686Y-20477D01*
X-900722Y-20440D01*
X-900831Y-20404D01*
X-900977Y-20331D01*
X-901159Y-20185D01*
X-901414Y-20040D01*
X-901705Y-19858D01*
X-902360Y-19384D01*
X-903088Y-18766D01*
X-903816Y-18038D01*
X-904544Y-17201D01*
X-905163Y-16218D01*
X-905199Y-16181D01*
X-905236Y-16072D01*
X-905309Y-15927D01*
X-905418Y-15745D01*
X-905527Y-15453D01*
X-905636Y-15162D01*
X-905782Y-14798D01*
X-905927Y-14398D01*
X-906073Y-13961D01*
X-906219Y-13488D01*
X-906437Y-12469D01*
X-906619Y-11304D01*
X-906692Y-10102D01*
Y-9739D01*
X-906655Y-9484D01*
X-906619Y-9156D01*
X-906583Y-8756D01*
X-906546Y-8355D01*
X-906437Y-7882D01*
X-906219Y-6899D01*
X-905891Y-5807D01*
X-905673Y-5261D01*
X-905418Y-4752D01*
X-905090Y-4242D01*
X-904763Y-3732D01*
X-904726Y-3696D01*
X-904690Y-3623D01*
X-904581Y-3478D01*
X-904399Y-3296D01*
X-904217Y-3114D01*
X-903962Y-2859D01*
X-903671Y-2604D01*
X-903379Y-2313D01*
X-903015Y-2022D01*
X-902579Y-1730D01*
X-902142Y-1403D01*
X-901669Y-1112D01*
X-901123Y-857D01*
X-900577Y-566D01*
X-899994Y-347D01*
X-899339Y-129D01*
X-898575Y-3405D01*
X-898611D01*
X-898684Y-3441D01*
X-898829Y-3514D01*
X-899011Y-3587D01*
X-899230Y-3660D01*
X-899521Y-3769D01*
X-900103Y-4060D01*
X-900759Y-4424D01*
X-901414Y-4861D01*
X-902033Y-5407D01*
X-902579Y-5989D01*
X-902651Y-6062D01*
X-902797Y-6280D01*
X-902979Y-6644D01*
X-903234Y-7118D01*
X-903452Y-7737D01*
X-903671Y-8428D01*
X-903816Y-9265D01*
X-903853Y-10175D01*
Y-10466D01*
X-903816Y-10649D01*
Y-10903D01*
X-903780Y-11194D01*
X-903671Y-11886D01*
X-903525Y-12650D01*
X-903270Y-13451D01*
X-902906Y-14289D01*
X-902433Y-15053D01*
Y-15089D01*
X-902360Y-15126D01*
X-902178Y-15380D01*
X-901887Y-15708D01*
X-901450Y-16108D01*
X-900904Y-16582D01*
X-900285Y-17018D01*
X-899521Y-17419D01*
X-898684Y-17783D01*
X-898647D01*
X-898575Y-17819D01*
X-898465Y-17856D01*
X-898283Y-17892D01*
X-898065Y-17965D01*
X-897810Y-18038D01*
X-897191Y-18147D01*
X-896463Y-18293D01*
X-895663Y-18438D01*
X-894789Y-18511D01*
X-893843Y-18547D01*
X-893806D01*
X-893697D01*
X-893515D01*
X-893297D01*
X-893042Y-18511D01*
X-892714D01*
X-892350Y-18474D01*
X-891950Y-18438D01*
X-891076Y-18329D01*
X-890130Y-18147D01*
X-889183Y-17928D01*
X-888237Y-17637D01*
X-888201D01*
X-888128Y-17601D01*
X-888019Y-17528D01*
X-887837Y-17455D01*
X-887400Y-17237D01*
X-886890Y-16909D01*
X-886308Y-16509D01*
X-885689Y-15999D01*
X-885143Y-15417D01*
X-884633Y-14725D01*
Y-14689D01*
X-884597Y-14616D01*
X-884524Y-14507D01*
X-884451Y-14361D01*
X-884379Y-14179D01*
X-884269Y-13961D01*
X-884051Y-13451D01*
X-883833Y-12796D01*
X-883651Y-12068D01*
X-883505Y-11267D01*
X-883469Y-10430D01*
Y-10175D01*
X-883505Y-9957D01*
Y-9702D01*
X-883541Y-9447D01*
X-883687Y-8792D01*
X-883869Y-8028D01*
X-884160Y-7263D01*
X-884561Y-6463D01*
X-884779Y-6062D01*
X-885070Y-5698D01*
X-885107Y-5662D01*
X-885143Y-5625D01*
X-885252Y-5516D01*
X-885361Y-5370D01*
X-885543Y-5225D01*
X-885762Y-5043D01*
X-885980Y-4824D01*
X-886271Y-4643D01*
X-886599Y-4424D01*
X-886963Y-4169D01*
X-887327Y-3951D01*
X-887764Y-3732D01*
X-888237Y-3550D01*
X-888747Y-3369D01*
X-889293Y-3187D01*
X-889875Y-3041D01*
X-889038Y308D01*
X-889001D01*
X-888856Y272D01*
D02*
G37*
G36*
X842583Y-12162D02*
X842910D01*
X843311Y-12198D01*
X843748Y-12271D01*
X844257Y-12344D01*
X845313Y-12526D01*
X846405Y-12817D01*
X847497Y-13218D01*
X848006Y-13472D01*
X848516Y-13764D01*
X848552Y-13800D01*
X848625Y-13836D01*
X848771Y-13946D01*
X848916Y-14091D01*
X849135Y-14237D01*
X849390Y-14455D01*
X849681Y-14710D01*
X849972Y-15001D01*
X850263Y-15329D01*
X850591Y-15656D01*
X851246Y-16494D01*
X851865Y-17476D01*
X852411Y-18568D01*
Y-18605D01*
X852484Y-18714D01*
X852520Y-18896D01*
X852629Y-19114D01*
X852702Y-19406D01*
X852811Y-19770D01*
X852957Y-20170D01*
X853066Y-20607D01*
X853175Y-21080D01*
X853321Y-21626D01*
X853503Y-22754D01*
X853648Y-24028D01*
X853721Y-25339D01*
Y-25375D01*
Y-25521D01*
Y-25739D01*
X853685Y-25994D01*
Y-26358D01*
X853648Y-26722D01*
X853612Y-27195D01*
X853539Y-27668D01*
X853357Y-28724D01*
X853102Y-29889D01*
X852738Y-31054D01*
X852229Y-32182D01*
X852192Y-32218D01*
X852156Y-32328D01*
X852083Y-32473D01*
X851938Y-32655D01*
X851792Y-32910D01*
X851610Y-33201D01*
X851137Y-33856D01*
X850518Y-34584D01*
X849790Y-35312D01*
X848953Y-36040D01*
X847970Y-36659D01*
X847934Y-36696D01*
X847824Y-36732D01*
X847679Y-36805D01*
X847497Y-36914D01*
X847206Y-37023D01*
X846914Y-37132D01*
X846550Y-37278D01*
X846150Y-37424D01*
X845713Y-37569D01*
X845240Y-37715D01*
X844221Y-37933D01*
X843056Y-38115D01*
X841855Y-38188D01*
X841491D01*
X841236Y-38152D01*
X840908Y-38115D01*
X840508Y-38079D01*
X840108Y-38042D01*
X839634Y-37933D01*
X838652Y-37715D01*
X837560Y-37387D01*
X837014Y-37169D01*
X836504Y-36914D01*
X835994Y-36586D01*
X835485Y-36259D01*
X835448Y-36222D01*
X835376Y-36186D01*
X835230Y-36077D01*
X835048Y-35895D01*
X834866Y-35713D01*
X834611Y-35458D01*
X834356Y-35167D01*
X834065Y-34876D01*
X833774Y-34512D01*
X833483Y-34075D01*
X833155Y-33638D01*
X832864Y-33165D01*
X832609Y-32619D01*
X832318Y-32073D01*
X832100Y-31490D01*
X831881Y-30835D01*
X835157Y-30071D01*
Y-30107D01*
X835194Y-30180D01*
X835266Y-30326D01*
X835339Y-30508D01*
X835412Y-30726D01*
X835521Y-31017D01*
X835812Y-31600D01*
X836176Y-32255D01*
X836613Y-32910D01*
X837159Y-33529D01*
X837742Y-34075D01*
X837814Y-34148D01*
X838033Y-34293D01*
X838397Y-34475D01*
X838870Y-34730D01*
X839489Y-34948D01*
X840180Y-35167D01*
X841018Y-35312D01*
X841928Y-35349D01*
X842219D01*
X842401Y-35312D01*
X842656D01*
X842947Y-35276D01*
X843638Y-35167D01*
X844403Y-35021D01*
X845204Y-34766D01*
X846041Y-34402D01*
X846805Y-33929D01*
X846842D01*
X846878Y-33856D01*
X847133Y-33674D01*
X847460Y-33383D01*
X847861Y-32946D01*
X848334Y-32400D01*
X848771Y-31782D01*
X849171Y-31017D01*
X849535Y-30180D01*
Y-30144D01*
X849572Y-30071D01*
X849608Y-29962D01*
X849644Y-29780D01*
X849717Y-29561D01*
X849790Y-29306D01*
X849899Y-28688D01*
X850045Y-27960D01*
X850190Y-27159D01*
X850263Y-26285D01*
X850300Y-25339D01*
Y-25302D01*
Y-25193D01*
Y-25011D01*
Y-24793D01*
X850263Y-24538D01*
Y-24210D01*
X850227Y-23846D01*
X850190Y-23446D01*
X850081Y-22572D01*
X849899Y-21626D01*
X849681Y-20680D01*
X849390Y-19733D01*
Y-19697D01*
X849353Y-19624D01*
X849280Y-19515D01*
X849208Y-19333D01*
X848989Y-18896D01*
X848662Y-18386D01*
X848261Y-17804D01*
X847752Y-17185D01*
X847169Y-16639D01*
X846478Y-16130D01*
X846441D01*
X846368Y-16093D01*
X846259Y-16020D01*
X846114Y-15948D01*
X845932Y-15875D01*
X845713Y-15766D01*
X845204Y-15547D01*
X844548Y-15329D01*
X843820Y-15147D01*
X843020Y-15001D01*
X842182Y-14965D01*
X841928D01*
X841709Y-15001D01*
X841454D01*
X841200Y-15038D01*
X840544Y-15183D01*
X839780Y-15365D01*
X839016Y-15656D01*
X838215Y-16057D01*
X837814Y-16275D01*
X837450Y-16566D01*
X837414Y-16603D01*
X837378Y-16639D01*
X837268Y-16748D01*
X837123Y-16858D01*
X836977Y-17040D01*
X836795Y-17258D01*
X836577Y-17476D01*
X836395Y-17768D01*
X836176Y-18095D01*
X835922Y-18459D01*
X835703Y-18823D01*
X835485Y-19260D01*
X835303Y-19733D01*
X835121Y-20243D01*
X834939Y-20789D01*
X834793Y-21371D01*
X831444Y-20534D01*
Y-20498D01*
X831481Y-20352D01*
X831554Y-20134D01*
X831663Y-19842D01*
X831772Y-19515D01*
X831918Y-19114D01*
X832100Y-18678D01*
X832318Y-18204D01*
X832828Y-17185D01*
X833483Y-16166D01*
X833883Y-15656D01*
X834284Y-15147D01*
X834720Y-14710D01*
X835230Y-14273D01*
X835266Y-14237D01*
X835339Y-14164D01*
X835521Y-14091D01*
X835703Y-13946D01*
X835994Y-13764D01*
X836286Y-13582D01*
X836686Y-13400D01*
X837086Y-13218D01*
X837560Y-12999D01*
X838069Y-12817D01*
X838615Y-12635D01*
X839198Y-12453D01*
X839816Y-12308D01*
X840472Y-12235D01*
X841163Y-12162D01*
X841891Y-12126D01*
X842292D01*
X842583Y-12162D01*
D02*
G37*
G36*
X287268D02*
X287595D01*
X287996Y-12198D01*
X288433Y-12271D01*
X288942Y-12344D01*
X289998Y-12526D01*
X291090Y-12817D01*
X292182Y-13218D01*
X292691Y-13472D01*
X293201Y-13764D01*
X293237Y-13800D01*
X293310Y-13836D01*
X293456Y-13946D01*
X293601Y-14091D01*
X293820Y-14237D01*
X294075Y-14455D01*
X294366Y-14710D01*
X294657Y-15001D01*
X294948Y-15329D01*
X295276Y-15656D01*
X295931Y-16494D01*
X296550Y-17476D01*
X297096Y-18568D01*
Y-18605D01*
X297169Y-18714D01*
X297205Y-18896D01*
X297314Y-19114D01*
X297387Y-19406D01*
X297496Y-19770D01*
X297642Y-20170D01*
X297751Y-20607D01*
X297860Y-21080D01*
X298006Y-21626D01*
X298188Y-22754D01*
X298333Y-24028D01*
X298406Y-25339D01*
Y-25375D01*
Y-25521D01*
Y-25739D01*
X298370Y-25994D01*
Y-26358D01*
X298333Y-26722D01*
X298297Y-27195D01*
X298224Y-27668D01*
X298042Y-28724D01*
X297787Y-29889D01*
X297423Y-31054D01*
X296914Y-32182D01*
X296877Y-32218D01*
X296841Y-32328D01*
X296768Y-32473D01*
X296623Y-32655D01*
X296477Y-32910D01*
X296295Y-33201D01*
X295822Y-33856D01*
X295203Y-34584D01*
X294475Y-35312D01*
X293638Y-36040D01*
X292655Y-36659D01*
X292619Y-36696D01*
X292509Y-36732D01*
X292364Y-36805D01*
X292182Y-36914D01*
X291891Y-37023D01*
X291599Y-37132D01*
X291235Y-37278D01*
X290835Y-37424D01*
X290398Y-37569D01*
X289925Y-37715D01*
X288906Y-37933D01*
X287741Y-38115D01*
X286540Y-38188D01*
X286176D01*
X285921Y-38152D01*
X285593Y-38115D01*
X285193Y-38079D01*
X284793Y-38042D01*
X284319Y-37933D01*
X283337Y-37715D01*
X282245Y-37387D01*
X281699Y-37169D01*
X281189Y-36914D01*
X280679Y-36586D01*
X280170Y-36259D01*
X280133Y-36222D01*
X280061Y-36186D01*
X279915Y-36077D01*
X279733Y-35895D01*
X279551Y-35713D01*
X279296Y-35458D01*
X279041Y-35167D01*
X278750Y-34876D01*
X278459Y-34512D01*
X278168Y-34075D01*
X277840Y-33638D01*
X277549Y-33165D01*
X277294Y-32619D01*
X277003Y-32073D01*
X276785Y-31490D01*
X276566Y-30835D01*
X279842Y-30071D01*
Y-30107D01*
X279879Y-30180D01*
X279951Y-30326D01*
X280024Y-30508D01*
X280097Y-30726D01*
X280206Y-31017D01*
X280497Y-31600D01*
X280861Y-32255D01*
X281298Y-32910D01*
X281844Y-33529D01*
X282427Y-34075D01*
X282499Y-34148D01*
X282718Y-34293D01*
X283082Y-34475D01*
X283555Y-34730D01*
X284174Y-34948D01*
X284865Y-35167D01*
X285703Y-35312D01*
X286613Y-35349D01*
X286904D01*
X287086Y-35312D01*
X287341D01*
X287632Y-35276D01*
X288323Y-35167D01*
X289088Y-35021D01*
X289889Y-34766D01*
X290726Y-34402D01*
X291490Y-33929D01*
X291527D01*
X291563Y-33856D01*
X291818Y-33674D01*
X292145Y-33383D01*
X292546Y-32946D01*
X293019Y-32400D01*
X293456Y-31782D01*
X293856Y-31017D01*
X294220Y-30180D01*
Y-30144D01*
X294257Y-30071D01*
X294293Y-29962D01*
X294329Y-29780D01*
X294402Y-29561D01*
X294475Y-29306D01*
X294584Y-28688D01*
X294730Y-27960D01*
X294875Y-27159D01*
X294948Y-26285D01*
X294985Y-25339D01*
Y-25302D01*
Y-25193D01*
Y-25011D01*
Y-24793D01*
X294948Y-24538D01*
Y-24210D01*
X294912Y-23846D01*
X294875Y-23446D01*
X294766Y-22572D01*
X294584Y-21626D01*
X294366Y-20680D01*
X294075Y-19733D01*
Y-19697D01*
X294038Y-19624D01*
X293965Y-19515D01*
X293893Y-19333D01*
X293674Y-18896D01*
X293347Y-18386D01*
X292946Y-17804D01*
X292437Y-17185D01*
X291854Y-16639D01*
X291163Y-16130D01*
X291126D01*
X291053Y-16093D01*
X290944Y-16020D01*
X290799Y-15948D01*
X290617Y-15875D01*
X290398Y-15766D01*
X289889Y-15547D01*
X289233Y-15329D01*
X288505Y-15147D01*
X287705Y-15001D01*
X286867Y-14965D01*
X286613D01*
X286394Y-15001D01*
X286139D01*
X285885Y-15038D01*
X285229Y-15183D01*
X284465Y-15365D01*
X283701Y-15656D01*
X282900Y-16057D01*
X282499Y-16275D01*
X282135Y-16566D01*
X282099Y-16603D01*
X282063Y-16639D01*
X281953Y-16748D01*
X281808Y-16858D01*
X281662Y-17040D01*
X281480Y-17258D01*
X281262Y-17476D01*
X281080Y-17768D01*
X280861Y-18095D01*
X280607Y-18459D01*
X280388Y-18823D01*
X280170Y-19260D01*
X279988Y-19733D01*
X279806Y-20243D01*
X279624Y-20789D01*
X279478Y-21371D01*
X276129Y-20534D01*
Y-20498D01*
X276166Y-20352D01*
X276239Y-20134D01*
X276348Y-19842D01*
X276457Y-19515D01*
X276603Y-19114D01*
X276785Y-18678D01*
X277003Y-18204D01*
X277513Y-17185D01*
X278168Y-16166D01*
X278568Y-15656D01*
X278969Y-15147D01*
X279405Y-14710D01*
X279915Y-14273D01*
X279951Y-14237D01*
X280024Y-14164D01*
X280206Y-14091D01*
X280388Y-13946D01*
X280679Y-13764D01*
X280971Y-13582D01*
X281371Y-13400D01*
X281771Y-13218D01*
X282245Y-12999D01*
X282754Y-12817D01*
X283300Y-12635D01*
X283883Y-12453D01*
X284501Y-12308D01*
X285157Y-12235D01*
X285848Y-12162D01*
X286576Y-12126D01*
X286977D01*
X287268Y-12162D01*
D02*
G37*
G36*
X-268047D02*
X-267720D01*
X-267319Y-12198D01*
X-266882Y-12271D01*
X-266373Y-12344D01*
X-265317Y-12526D01*
X-264225Y-12817D01*
X-263133Y-13218D01*
X-262624Y-13472D01*
X-262114Y-13764D01*
X-262078Y-13800D01*
X-262005Y-13836D01*
X-261859Y-13946D01*
X-261714Y-14091D01*
X-261495Y-14237D01*
X-261240Y-14455D01*
X-260949Y-14710D01*
X-260658Y-15001D01*
X-260367Y-15329D01*
X-260039Y-15656D01*
X-259384Y-16494D01*
X-258765Y-17476D01*
X-258219Y-18568D01*
Y-18605D01*
X-258146Y-18714D01*
X-258110Y-18896D01*
X-258001Y-19114D01*
X-257928Y-19406D01*
X-257819Y-19770D01*
X-257673Y-20170D01*
X-257564Y-20607D01*
X-257455Y-21080D01*
X-257309Y-21626D01*
X-257127Y-22754D01*
X-256982Y-24028D01*
X-256909Y-25339D01*
Y-25375D01*
Y-25521D01*
Y-25739D01*
X-256945Y-25994D01*
Y-26358D01*
X-256982Y-26722D01*
X-257018Y-27195D01*
X-257091Y-27668D01*
X-257273Y-28724D01*
X-257528Y-29889D01*
X-257892Y-31054D01*
X-258401Y-32182D01*
X-258438Y-32218D01*
X-258474Y-32328D01*
X-258547Y-32473D01*
X-258692Y-32655D01*
X-258838Y-32910D01*
X-259020Y-33201D01*
X-259493Y-33856D01*
X-260112Y-34584D01*
X-260840Y-35312D01*
X-261677Y-36040D01*
X-262660Y-36659D01*
X-262696Y-36696D01*
X-262806Y-36732D01*
X-262951Y-36805D01*
X-263133Y-36914D01*
X-263424Y-37023D01*
X-263716Y-37132D01*
X-264080Y-37278D01*
X-264480Y-37424D01*
X-264917Y-37569D01*
X-265390Y-37715D01*
X-266409Y-37933D01*
X-267574Y-38115D01*
X-268775Y-38188D01*
X-269139D01*
X-269394Y-38152D01*
X-269722Y-38115D01*
X-270122Y-38079D01*
X-270522Y-38042D01*
X-270996Y-37933D01*
X-271978Y-37715D01*
X-273070Y-37387D01*
X-273616Y-37169D01*
X-274126Y-36914D01*
X-274636Y-36586D01*
X-275145Y-36259D01*
X-275182Y-36222D01*
X-275254Y-36186D01*
X-275400Y-36077D01*
X-275582Y-35895D01*
X-275764Y-35713D01*
X-276019Y-35458D01*
X-276274Y-35167D01*
X-276565Y-34876D01*
X-276856Y-34512D01*
X-277147Y-34075D01*
X-277475Y-33638D01*
X-277766Y-33165D01*
X-278021Y-32619D01*
X-278312Y-32073D01*
X-278530Y-31490D01*
X-278749Y-30835D01*
X-275473Y-30071D01*
Y-30107D01*
X-275436Y-30180D01*
X-275364Y-30326D01*
X-275291Y-30508D01*
X-275218Y-30726D01*
X-275109Y-31017D01*
X-274818Y-31600D01*
X-274454Y-32255D01*
X-274017Y-32910D01*
X-273471Y-33529D01*
X-272888Y-34075D01*
X-272816Y-34148D01*
X-272597Y-34293D01*
X-272233Y-34475D01*
X-271760Y-34730D01*
X-271141Y-34948D01*
X-270450Y-35167D01*
X-269612Y-35312D01*
X-268702Y-35349D01*
X-268411D01*
X-268229Y-35312D01*
X-267974D01*
X-267683Y-35276D01*
X-266992Y-35167D01*
X-266227Y-35021D01*
X-265426Y-34766D01*
X-264589Y-34402D01*
X-263825Y-33929D01*
X-263788D01*
X-263752Y-33856D01*
X-263497Y-33674D01*
X-263170Y-33383D01*
X-262769Y-32946D01*
X-262296Y-32400D01*
X-261859Y-31782D01*
X-261459Y-31017D01*
X-261095Y-30180D01*
Y-30144D01*
X-261058Y-30071D01*
X-261022Y-29962D01*
X-260986Y-29780D01*
X-260913Y-29561D01*
X-260840Y-29306D01*
X-260731Y-28688D01*
X-260585Y-27960D01*
X-260440Y-27159D01*
X-260367Y-26285D01*
X-260330Y-25339D01*
Y-25302D01*
Y-25193D01*
Y-25011D01*
Y-24793D01*
X-260367Y-24538D01*
Y-24210D01*
X-260403Y-23846D01*
X-260440Y-23446D01*
X-260549Y-22572D01*
X-260731Y-21626D01*
X-260949Y-20680D01*
X-261240Y-19733D01*
Y-19697D01*
X-261277Y-19624D01*
X-261350Y-19515D01*
X-261422Y-19333D01*
X-261641Y-18896D01*
X-261968Y-18386D01*
X-262369Y-17804D01*
X-262878Y-17185D01*
X-263461Y-16639D01*
X-264152Y-16130D01*
X-264189D01*
X-264262Y-16093D01*
X-264371Y-16020D01*
X-264516Y-15948D01*
X-264698Y-15875D01*
X-264917Y-15766D01*
X-265426Y-15547D01*
X-266082Y-15329D01*
X-266810Y-15147D01*
X-267610Y-15001D01*
X-268448Y-14965D01*
X-268702D01*
X-268921Y-15001D01*
X-269176D01*
X-269430Y-15038D01*
X-270086Y-15183D01*
X-270850Y-15365D01*
X-271614Y-15656D01*
X-272415Y-16057D01*
X-272816Y-16275D01*
X-273180Y-16566D01*
X-273216Y-16603D01*
X-273252Y-16639D01*
X-273362Y-16748D01*
X-273507Y-16858D01*
X-273653Y-17040D01*
X-273835Y-17258D01*
X-274053Y-17476D01*
X-274235Y-17768D01*
X-274454Y-18095D01*
X-274708Y-18459D01*
X-274927Y-18823D01*
X-275145Y-19260D01*
X-275327Y-19733D01*
X-275509Y-20243D01*
X-275691Y-20789D01*
X-275837Y-21371D01*
X-279186Y-20534D01*
Y-20498D01*
X-279149Y-20352D01*
X-279076Y-20134D01*
X-278967Y-19842D01*
X-278858Y-19515D01*
X-278712Y-19114D01*
X-278530Y-18678D01*
X-278312Y-18204D01*
X-277802Y-17185D01*
X-277147Y-16166D01*
X-276747Y-15656D01*
X-276346Y-15147D01*
X-275910Y-14710D01*
X-275400Y-14273D01*
X-275364Y-14237D01*
X-275291Y-14164D01*
X-275109Y-14091D01*
X-274927Y-13946D01*
X-274636Y-13764D01*
X-274344Y-13582D01*
X-273944Y-13400D01*
X-273544Y-13218D01*
X-273070Y-12999D01*
X-272561Y-12817D01*
X-272015Y-12635D01*
X-271432Y-12453D01*
X-270814Y-12308D01*
X-270158Y-12235D01*
X-269467Y-12162D01*
X-268739Y-12126D01*
X-268338D01*
X-268047Y-12162D01*
D02*
G37*
G36*
X-823362D02*
X-823035D01*
X-822634Y-12198D01*
X-822197Y-12271D01*
X-821688Y-12344D01*
X-820632Y-12526D01*
X-819540Y-12817D01*
X-818448Y-13218D01*
X-817939Y-13472D01*
X-817429Y-13764D01*
X-817393Y-13800D01*
X-817320Y-13836D01*
X-817174Y-13946D01*
X-817029Y-14091D01*
X-816810Y-14237D01*
X-816555Y-14455D01*
X-816264Y-14710D01*
X-815973Y-15001D01*
X-815682Y-15329D01*
X-815354Y-15656D01*
X-814699Y-16494D01*
X-814080Y-17476D01*
X-813534Y-18568D01*
Y-18605D01*
X-813461Y-18714D01*
X-813425Y-18896D01*
X-813316Y-19114D01*
X-813243Y-19406D01*
X-813134Y-19770D01*
X-812988Y-20170D01*
X-812879Y-20607D01*
X-812770Y-21080D01*
X-812624Y-21626D01*
X-812442Y-22754D01*
X-812297Y-24028D01*
X-812224Y-25339D01*
Y-25375D01*
Y-25521D01*
Y-25739D01*
X-812260Y-25994D01*
Y-26358D01*
X-812297Y-26722D01*
X-812333Y-27195D01*
X-812406Y-27668D01*
X-812588Y-28724D01*
X-812843Y-29889D01*
X-813207Y-31054D01*
X-813716Y-32182D01*
X-813753Y-32218D01*
X-813789Y-32328D01*
X-813862Y-32473D01*
X-814007Y-32655D01*
X-814153Y-32910D01*
X-814335Y-33201D01*
X-814808Y-33856D01*
X-815427Y-34584D01*
X-816155Y-35312D01*
X-816992Y-36040D01*
X-817975Y-36659D01*
X-818011Y-36696D01*
X-818121Y-36732D01*
X-818266Y-36805D01*
X-818448Y-36914D01*
X-818739Y-37023D01*
X-819031Y-37132D01*
X-819395Y-37278D01*
X-819795Y-37424D01*
X-820232Y-37569D01*
X-820705Y-37715D01*
X-821724Y-37933D01*
X-822889Y-38115D01*
X-824090Y-38188D01*
X-824454D01*
X-824709Y-38152D01*
X-825037Y-38115D01*
X-825437Y-38079D01*
X-825837Y-38042D01*
X-826311Y-37933D01*
X-827293Y-37715D01*
X-828385Y-37387D01*
X-828931Y-37169D01*
X-829441Y-36914D01*
X-829951Y-36586D01*
X-830460Y-36259D01*
X-830497Y-36222D01*
X-830569Y-36186D01*
X-830715Y-36077D01*
X-830897Y-35895D01*
X-831079Y-35713D01*
X-831334Y-35458D01*
X-831589Y-35167D01*
X-831880Y-34876D01*
X-832171Y-34512D01*
X-832462Y-34075D01*
X-832790Y-33638D01*
X-833081Y-33165D01*
X-833336Y-32619D01*
X-833627Y-32073D01*
X-833845Y-31490D01*
X-834064Y-30835D01*
X-830788Y-30071D01*
Y-30107D01*
X-830751Y-30180D01*
X-830679Y-30326D01*
X-830606Y-30508D01*
X-830533Y-30726D01*
X-830424Y-31017D01*
X-830133Y-31600D01*
X-829769Y-32255D01*
X-829332Y-32910D01*
X-828786Y-33529D01*
X-828203Y-34075D01*
X-828131Y-34148D01*
X-827912Y-34293D01*
X-827548Y-34475D01*
X-827075Y-34730D01*
X-826456Y-34948D01*
X-825765Y-35167D01*
X-824927Y-35312D01*
X-824017Y-35349D01*
X-823726D01*
X-823544Y-35312D01*
X-823289D01*
X-822998Y-35276D01*
X-822307Y-35167D01*
X-821542Y-35021D01*
X-820741Y-34766D01*
X-819904Y-34402D01*
X-819140Y-33929D01*
X-819103D01*
X-819067Y-33856D01*
X-818812Y-33674D01*
X-818485Y-33383D01*
X-818084Y-32946D01*
X-817611Y-32400D01*
X-817174Y-31782D01*
X-816774Y-31017D01*
X-816410Y-30180D01*
Y-30144D01*
X-816373Y-30071D01*
X-816337Y-29962D01*
X-816301Y-29780D01*
X-816228Y-29561D01*
X-816155Y-29306D01*
X-816046Y-28688D01*
X-815900Y-27960D01*
X-815755Y-27159D01*
X-815682Y-26285D01*
X-815645Y-25339D01*
Y-25302D01*
Y-25193D01*
Y-25011D01*
Y-24793D01*
X-815682Y-24538D01*
Y-24210D01*
X-815718Y-23846D01*
X-815755Y-23446D01*
X-815864Y-22572D01*
X-816046Y-21626D01*
X-816264Y-20680D01*
X-816555Y-19733D01*
Y-19697D01*
X-816592Y-19624D01*
X-816665Y-19515D01*
X-816737Y-19333D01*
X-816956Y-18896D01*
X-817283Y-18386D01*
X-817684Y-17804D01*
X-818193Y-17185D01*
X-818776Y-16639D01*
X-819467Y-16130D01*
X-819504D01*
X-819577Y-16093D01*
X-819686Y-16020D01*
X-819831Y-15948D01*
X-820013Y-15875D01*
X-820232Y-15766D01*
X-820741Y-15547D01*
X-821397Y-15329D01*
X-822125Y-15147D01*
X-822925Y-15001D01*
X-823763Y-14965D01*
X-824017D01*
X-824236Y-15001D01*
X-824491D01*
X-824745Y-15038D01*
X-825401Y-15183D01*
X-826165Y-15365D01*
X-826929Y-15656D01*
X-827730Y-16057D01*
X-828131Y-16275D01*
X-828495Y-16566D01*
X-828531Y-16603D01*
X-828567Y-16639D01*
X-828677Y-16748D01*
X-828822Y-16858D01*
X-828968Y-17040D01*
X-829150Y-17258D01*
X-829368Y-17476D01*
X-829550Y-17768D01*
X-829769Y-18095D01*
X-830023Y-18459D01*
X-830242Y-18823D01*
X-830460Y-19260D01*
X-830642Y-19733D01*
X-830824Y-20243D01*
X-831006Y-20789D01*
X-831152Y-21371D01*
X-834501Y-20534D01*
Y-20498D01*
X-834464Y-20352D01*
X-834391Y-20134D01*
X-834282Y-19842D01*
X-834173Y-19515D01*
X-834027Y-19114D01*
X-833845Y-18678D01*
X-833627Y-18204D01*
X-833117Y-17185D01*
X-832462Y-16166D01*
X-832062Y-15656D01*
X-831661Y-15147D01*
X-831225Y-14710D01*
X-830715Y-14273D01*
X-830679Y-14237D01*
X-830606Y-14164D01*
X-830424Y-14091D01*
X-830242Y-13946D01*
X-829951Y-13764D01*
X-829659Y-13582D01*
X-829259Y-13400D01*
X-828859Y-13218D01*
X-828385Y-12999D01*
X-827876Y-12817D01*
X-827330Y-12635D01*
X-826747Y-12453D01*
X-826129Y-12308D01*
X-825473Y-12235D01*
X-824782Y-12162D01*
X-824054Y-12126D01*
X-823653D01*
X-823362Y-12162D01*
D02*
G37*
G36*
X820051Y-32255D02*
X820088Y-32218D01*
X820270Y-32073D01*
X820488Y-31854D01*
X820852Y-31600D01*
X821252Y-31272D01*
X821762Y-30908D01*
X822344Y-30508D01*
X823000Y-30107D01*
X823036D01*
X823072Y-30071D01*
X823291Y-29925D01*
X823655Y-29743D01*
X824092Y-29525D01*
X824601Y-29270D01*
X825147Y-29015D01*
X825693Y-28760D01*
X826239Y-28542D01*
Y-31527D01*
X826203D01*
X826130Y-31600D01*
X825984Y-31636D01*
X825802Y-31745D01*
X825584Y-31854D01*
X825329Y-32000D01*
X824710Y-32364D01*
X823982Y-32764D01*
X823254Y-33274D01*
X822490Y-33856D01*
X821726Y-34475D01*
X821689Y-34512D01*
X821653Y-34548D01*
X821544Y-34657D01*
X821398Y-34766D01*
X821070Y-35130D01*
X820634Y-35567D01*
X820197Y-36077D01*
X819724Y-36659D01*
X819323Y-37242D01*
X818959Y-37860D01*
X816957D01*
Y-12562D01*
X820051D01*
Y-32255D01*
D02*
G37*
G36*
X264736D02*
X264773Y-32218D01*
X264955Y-32073D01*
X265173Y-31854D01*
X265537Y-31600D01*
X265937Y-31272D01*
X266447Y-30908D01*
X267029Y-30508D01*
X267685Y-30107D01*
X267721D01*
X267757Y-30071D01*
X267976Y-29925D01*
X268340Y-29743D01*
X268777Y-29525D01*
X269286Y-29270D01*
X269832Y-29015D01*
X270378Y-28760D01*
X270924Y-28542D01*
Y-31527D01*
X270888D01*
X270815Y-31600D01*
X270669Y-31636D01*
X270487Y-31745D01*
X270269Y-31854D01*
X270014Y-32000D01*
X269395Y-32364D01*
X268667Y-32764D01*
X267939Y-33274D01*
X267175Y-33856D01*
X266411Y-34475D01*
X266374Y-34512D01*
X266338Y-34548D01*
X266229Y-34657D01*
X266083Y-34766D01*
X265755Y-35130D01*
X265319Y-35567D01*
X264882Y-36077D01*
X264409Y-36659D01*
X264008Y-37242D01*
X263644Y-37860D01*
X261642D01*
Y-12562D01*
X264736D01*
Y-32255D01*
D02*
G37*
G36*
X-290579D02*
X-290542Y-32218D01*
X-290360Y-32073D01*
X-290142Y-31854D01*
X-289778Y-31600D01*
X-289378Y-31272D01*
X-288868Y-30908D01*
X-288286Y-30508D01*
X-287630Y-30107D01*
X-287594D01*
X-287558Y-30071D01*
X-287339Y-29925D01*
X-286975Y-29743D01*
X-286538Y-29525D01*
X-286029Y-29270D01*
X-285483Y-29015D01*
X-284937Y-28760D01*
X-284391Y-28542D01*
Y-31527D01*
X-284427D01*
X-284500Y-31600D01*
X-284646Y-31636D01*
X-284828Y-31745D01*
X-285046Y-31854D01*
X-285301Y-32000D01*
X-285920Y-32364D01*
X-286648Y-32764D01*
X-287376Y-33274D01*
X-288140Y-33856D01*
X-288904Y-34475D01*
X-288941Y-34512D01*
X-288977Y-34548D01*
X-289086Y-34657D01*
X-289232Y-34766D01*
X-289560Y-35130D01*
X-289996Y-35567D01*
X-290433Y-36077D01*
X-290906Y-36659D01*
X-291307Y-37242D01*
X-291671Y-37860D01*
X-293673D01*
Y-12562D01*
X-290579D01*
Y-32255D01*
D02*
G37*
G36*
X-845894D02*
X-845857Y-32218D01*
X-845675Y-32073D01*
X-845457Y-31854D01*
X-845093Y-31600D01*
X-844693Y-31272D01*
X-844183Y-30908D01*
X-843601Y-30508D01*
X-842945Y-30107D01*
X-842909D01*
X-842873Y-30071D01*
X-842654Y-29925D01*
X-842290Y-29743D01*
X-841853Y-29525D01*
X-841344Y-29270D01*
X-840798Y-29015D01*
X-840252Y-28760D01*
X-839706Y-28542D01*
Y-31527D01*
X-839742D01*
X-839815Y-31600D01*
X-839961Y-31636D01*
X-840143Y-31745D01*
X-840361Y-31854D01*
X-840616Y-32000D01*
X-841235Y-32364D01*
X-841963Y-32764D01*
X-842691Y-33274D01*
X-843455Y-33856D01*
X-844219Y-34475D01*
X-844256Y-34512D01*
X-844292Y-34548D01*
X-844401Y-34657D01*
X-844547Y-34766D01*
X-844875Y-35130D01*
X-845311Y-35567D01*
X-845748Y-36077D01*
X-846221Y-36659D01*
X-846622Y-37242D01*
X-846986Y-37860D01*
X-848988D01*
Y-12562D01*
X-845894D01*
Y-32255D01*
D02*
G37*
G36*
X784879Y-981542D02*
X784842D01*
X784697D01*
X784478D01*
X784187Y-981505D01*
X783860Y-981469D01*
X783496Y-981396D01*
X783132Y-981323D01*
X782731Y-981178D01*
X782695D01*
X782658Y-981141D01*
X782440Y-981068D01*
X782112Y-980923D01*
X781676Y-980705D01*
X781166Y-980413D01*
X780584Y-980049D01*
X780001Y-979649D01*
X779382Y-979139D01*
X779346D01*
X779310Y-979067D01*
X779091Y-978885D01*
X778764Y-978557D01*
X778290Y-978084D01*
X777744Y-977538D01*
X777089Y-976846D01*
X776361Y-976009D01*
X775597Y-975099D01*
X775560Y-975062D01*
X775451Y-974917D01*
X775269Y-974698D01*
X775051Y-974444D01*
X774760Y-974116D01*
X774432Y-973716D01*
X774068Y-973315D01*
X773668Y-972842D01*
X772794Y-971932D01*
X771920Y-971022D01*
X771484Y-970585D01*
X771047Y-970185D01*
X770646Y-969821D01*
X770246Y-969530D01*
X770210D01*
X770173Y-969457D01*
X770064Y-969384D01*
X769918Y-969311D01*
X769518Y-969057D01*
X769045Y-968765D01*
X768462Y-968510D01*
X767844Y-968256D01*
X767152Y-968110D01*
X766497Y-968037D01*
X766460D01*
X766424D01*
X766206Y-968074D01*
X765842Y-968110D01*
X765441Y-968219D01*
X764932Y-968365D01*
X764422Y-968620D01*
X763912Y-968947D01*
X763403Y-969384D01*
X763330Y-969457D01*
X763184Y-969639D01*
X763002Y-969894D01*
X762748Y-970294D01*
X762529Y-970804D01*
X762311Y-971386D01*
X762165Y-972078D01*
X762129Y-972842D01*
Y-973061D01*
X762165Y-973206D01*
X762202Y-973643D01*
X762311Y-974153D01*
X762456Y-974698D01*
X762711Y-975317D01*
X763039Y-975900D01*
X763476Y-976446D01*
X763548Y-976519D01*
X763730Y-976664D01*
X764022Y-976883D01*
X764458Y-977101D01*
X764968Y-977356D01*
X765623Y-977574D01*
X766351Y-977720D01*
X767188Y-977793D01*
X766861Y-980959D01*
X766824D01*
X766715Y-980923D01*
X766533D01*
X766278Y-980886D01*
X765987Y-980814D01*
X765660Y-980741D01*
X765259Y-980632D01*
X764859Y-980523D01*
X763985Y-980231D01*
X763112Y-979794D01*
X762675Y-979540D01*
X762238Y-979212D01*
X761838Y-978885D01*
X761474Y-978520D01*
X761437Y-978484D01*
X761401Y-978411D01*
X761292Y-978302D01*
X761182Y-978120D01*
X761037Y-977902D01*
X760891Y-977647D01*
X760709Y-977356D01*
X760527Y-976992D01*
X760345Y-976591D01*
X760163Y-976154D01*
X760018Y-975681D01*
X759872Y-975172D01*
X759763Y-974626D01*
X759654Y-974043D01*
X759617Y-973424D01*
X759581Y-972769D01*
Y-972405D01*
X759617Y-972150D01*
X759654Y-971859D01*
X759690Y-971495D01*
X759763Y-971095D01*
X759836Y-970694D01*
X760090Y-969748D01*
X760454Y-968802D01*
X760673Y-968328D01*
X760928Y-967855D01*
X761255Y-967418D01*
X761619Y-967018D01*
X761656Y-966982D01*
X761692Y-966909D01*
X761838Y-966836D01*
X761983Y-966691D01*
X762165Y-966509D01*
X762420Y-966327D01*
X762675Y-966144D01*
X763002Y-965926D01*
X763694Y-965562D01*
X764568Y-965198D01*
X765004Y-965053D01*
X765514Y-964980D01*
X766024Y-964907D01*
X766570Y-964870D01*
X766642D01*
X766824D01*
X767116Y-964907D01*
X767516Y-964943D01*
X767953Y-965016D01*
X768462Y-965162D01*
X769008Y-965307D01*
X769554Y-965526D01*
X769627Y-965562D01*
X769809Y-965635D01*
X770100Y-965780D01*
X770501Y-965999D01*
X770938Y-966290D01*
X771484Y-966654D01*
X772030Y-967091D01*
X772648Y-967601D01*
X772721Y-967673D01*
X772940Y-967855D01*
X773122Y-968037D01*
X773304Y-968219D01*
X773522Y-968438D01*
X773813Y-968729D01*
X774104Y-969020D01*
X774432Y-969384D01*
X774796Y-969748D01*
X775196Y-970185D01*
X775597Y-970658D01*
X776070Y-971168D01*
X776543Y-971750D01*
X777053Y-972332D01*
X777089Y-972369D01*
X777162Y-972442D01*
X777271Y-972587D01*
X777417Y-972769D01*
X777635Y-972988D01*
X777854Y-973242D01*
X778327Y-973825D01*
X778873Y-974444D01*
X779419Y-975026D01*
X779892Y-975536D01*
X780074Y-975754D01*
X780256Y-975936D01*
X780292Y-975972D01*
X780402Y-976082D01*
X780547Y-976227D01*
X780766Y-976409D01*
X781020Y-976591D01*
X781275Y-976810D01*
X781894Y-977246D01*
Y-964834D01*
X784879D01*
Y-981542D01*
D02*
G37*
G36*
X229564D02*
X229527D01*
X229382D01*
X229163D01*
X228872Y-981505D01*
X228545Y-981469D01*
X228181Y-981396D01*
X227817Y-981323D01*
X227416Y-981178D01*
X227380D01*
X227343Y-981141D01*
X227125Y-981068D01*
X226797Y-980923D01*
X226361Y-980705D01*
X225851Y-980413D01*
X225269Y-980049D01*
X224686Y-979649D01*
X224067Y-979139D01*
X224031D01*
X223995Y-979067D01*
X223776Y-978885D01*
X223449Y-978557D01*
X222975Y-978084D01*
X222429Y-977538D01*
X221774Y-976846D01*
X221046Y-976009D01*
X220282Y-975099D01*
X220245Y-975062D01*
X220136Y-974917D01*
X219954Y-974698D01*
X219736Y-974444D01*
X219445Y-974116D01*
X219117Y-973716D01*
X218753Y-973315D01*
X218353Y-972842D01*
X217479Y-971932D01*
X216605Y-971022D01*
X216169Y-970585D01*
X215732Y-970185D01*
X215331Y-969821D01*
X214931Y-969530D01*
X214895D01*
X214858Y-969457D01*
X214749Y-969384D01*
X214603Y-969311D01*
X214203Y-969057D01*
X213730Y-968765D01*
X213147Y-968510D01*
X212529Y-968256D01*
X211837Y-968110D01*
X211182Y-968037D01*
X211145D01*
X211109D01*
X210891Y-968074D01*
X210527Y-968110D01*
X210126Y-968219D01*
X209617Y-968365D01*
X209107Y-968620D01*
X208597Y-968947D01*
X208088Y-969384D01*
X208015Y-969457D01*
X207869Y-969639D01*
X207687Y-969894D01*
X207433Y-970294D01*
X207214Y-970804D01*
X206996Y-971386D01*
X206850Y-972078D01*
X206814Y-972842D01*
Y-973061D01*
X206850Y-973206D01*
X206887Y-973643D01*
X206996Y-974153D01*
X207141Y-974698D01*
X207396Y-975317D01*
X207724Y-975900D01*
X208161Y-976446D01*
X208233Y-976519D01*
X208415Y-976664D01*
X208707Y-976883D01*
X209143Y-977101D01*
X209653Y-977356D01*
X210308Y-977574D01*
X211036Y-977720D01*
X211873Y-977793D01*
X211546Y-980959D01*
X211509D01*
X211400Y-980923D01*
X211218D01*
X210963Y-980886D01*
X210672Y-980814D01*
X210345Y-980741D01*
X209944Y-980632D01*
X209544Y-980523D01*
X208670Y-980231D01*
X207797Y-979794D01*
X207360Y-979540D01*
X206923Y-979212D01*
X206523Y-978885D01*
X206159Y-978520D01*
X206122Y-978484D01*
X206086Y-978411D01*
X205977Y-978302D01*
X205867Y-978120D01*
X205722Y-977902D01*
X205576Y-977647D01*
X205394Y-977356D01*
X205212Y-976992D01*
X205030Y-976591D01*
X204848Y-976154D01*
X204703Y-975681D01*
X204557Y-975172D01*
X204448Y-974626D01*
X204339Y-974043D01*
X204302Y-973424D01*
X204266Y-972769D01*
Y-972405D01*
X204302Y-972150D01*
X204339Y-971859D01*
X204375Y-971495D01*
X204448Y-971095D01*
X204521Y-970694D01*
X204775Y-969748D01*
X205139Y-968802D01*
X205358Y-968328D01*
X205613Y-967855D01*
X205940Y-967418D01*
X206304Y-967018D01*
X206341Y-966982D01*
X206377Y-966909D01*
X206523Y-966836D01*
X206668Y-966691D01*
X206850Y-966509D01*
X207105Y-966327D01*
X207360Y-966144D01*
X207687Y-965926D01*
X208379Y-965562D01*
X209253Y-965198D01*
X209689Y-965053D01*
X210199Y-964980D01*
X210709Y-964907D01*
X211255Y-964870D01*
X211327D01*
X211509D01*
X211801Y-964907D01*
X212201Y-964943D01*
X212638Y-965016D01*
X213147Y-965162D01*
X213693Y-965307D01*
X214239Y-965526D01*
X214312Y-965562D01*
X214494Y-965635D01*
X214785Y-965780D01*
X215186Y-965999D01*
X215623Y-966290D01*
X216169Y-966654D01*
X216715Y-967091D01*
X217333Y-967601D01*
X217406Y-967673D01*
X217625Y-967855D01*
X217807Y-968037D01*
X217989Y-968219D01*
X218207Y-968438D01*
X218498Y-968729D01*
X218789Y-969020D01*
X219117Y-969384D01*
X219481Y-969748D01*
X219881Y-970185D01*
X220282Y-970658D01*
X220755Y-971168D01*
X221228Y-971750D01*
X221738Y-972332D01*
X221774Y-972369D01*
X221847Y-972442D01*
X221956Y-972587D01*
X222102Y-972769D01*
X222320Y-972988D01*
X222539Y-973242D01*
X223012Y-973825D01*
X223558Y-974444D01*
X224104Y-975026D01*
X224577Y-975536D01*
X224759Y-975754D01*
X224941Y-975936D01*
X224977Y-975972D01*
X225087Y-976082D01*
X225232Y-976227D01*
X225451Y-976409D01*
X225705Y-976591D01*
X225960Y-976810D01*
X226579Y-977246D01*
Y-964834D01*
X229564D01*
Y-981542D01*
D02*
G37*
G36*
X-325751D02*
X-325788D01*
X-325933D01*
X-326152D01*
X-326443Y-981505D01*
X-326770Y-981469D01*
X-327134Y-981396D01*
X-327498Y-981323D01*
X-327899Y-981178D01*
X-327935D01*
X-327972Y-981141D01*
X-328190Y-981068D01*
X-328518Y-980923D01*
X-328954Y-980705D01*
X-329464Y-980413D01*
X-330046Y-980049D01*
X-330629Y-979649D01*
X-331248Y-979139D01*
X-331284D01*
X-331320Y-979067D01*
X-331539Y-978885D01*
X-331866Y-978557D01*
X-332340Y-978084D01*
X-332886Y-977538D01*
X-333541Y-976846D01*
X-334269Y-976009D01*
X-335033Y-975099D01*
X-335070Y-975062D01*
X-335179Y-974917D01*
X-335361Y-974698D01*
X-335579Y-974444D01*
X-335870Y-974116D01*
X-336198Y-973716D01*
X-336562Y-973315D01*
X-336962Y-972842D01*
X-337836Y-971932D01*
X-338710Y-971022D01*
X-339146Y-970585D01*
X-339583Y-970185D01*
X-339984Y-969821D01*
X-340384Y-969530D01*
X-340420D01*
X-340457Y-969457D01*
X-340566Y-969384D01*
X-340712Y-969311D01*
X-341112Y-969057D01*
X-341585Y-968765D01*
X-342168Y-968510D01*
X-342786Y-968256D01*
X-343478Y-968110D01*
X-344133Y-968037D01*
X-344170D01*
X-344206D01*
X-344424Y-968074D01*
X-344788Y-968110D01*
X-345189Y-968219D01*
X-345698Y-968365D01*
X-346208Y-968620D01*
X-346718Y-968947D01*
X-347227Y-969384D01*
X-347300Y-969457D01*
X-347446Y-969639D01*
X-347628Y-969894D01*
X-347882Y-970294D01*
X-348101Y-970804D01*
X-348319Y-971386D01*
X-348465Y-972078D01*
X-348501Y-972842D01*
Y-973061D01*
X-348465Y-973206D01*
X-348428Y-973643D01*
X-348319Y-974153D01*
X-348174Y-974698D01*
X-347919Y-975317D01*
X-347591Y-975900D01*
X-347154Y-976446D01*
X-347082Y-976519D01*
X-346900Y-976664D01*
X-346608Y-976883D01*
X-346172Y-977101D01*
X-345662Y-977356D01*
X-345007Y-977574D01*
X-344279Y-977720D01*
X-343442Y-977793D01*
X-343769Y-980959D01*
X-343806D01*
X-343915Y-980923D01*
X-344097D01*
X-344352Y-980886D01*
X-344643Y-980814D01*
X-344970Y-980741D01*
X-345371Y-980632D01*
X-345771Y-980523D01*
X-346645Y-980231D01*
X-347518Y-979794D01*
X-347955Y-979540D01*
X-348392Y-979212D01*
X-348792Y-978885D01*
X-349156Y-978520D01*
X-349193Y-978484D01*
X-349229Y-978411D01*
X-349338Y-978302D01*
X-349448Y-978120D01*
X-349593Y-977902D01*
X-349739Y-977647D01*
X-349921Y-977356D01*
X-350103Y-976992D01*
X-350285Y-976591D01*
X-350467Y-976154D01*
X-350612Y-975681D01*
X-350758Y-975172D01*
X-350867Y-974626D01*
X-350976Y-974043D01*
X-351013Y-973424D01*
X-351049Y-972769D01*
Y-972405D01*
X-351013Y-972150D01*
X-350976Y-971859D01*
X-350940Y-971495D01*
X-350867Y-971095D01*
X-350794Y-970694D01*
X-350540Y-969748D01*
X-350176Y-968802D01*
X-349957Y-968328D01*
X-349702Y-967855D01*
X-349375Y-967418D01*
X-349011Y-967018D01*
X-348974Y-966982D01*
X-348938Y-966909D01*
X-348792Y-966836D01*
X-348647Y-966691D01*
X-348465Y-966509D01*
X-348210Y-966327D01*
X-347955Y-966144D01*
X-347628Y-965926D01*
X-346936Y-965562D01*
X-346062Y-965198D01*
X-345626Y-965053D01*
X-345116Y-964980D01*
X-344606Y-964907D01*
X-344060Y-964870D01*
X-343988D01*
X-343806D01*
X-343514Y-964907D01*
X-343114Y-964943D01*
X-342677Y-965016D01*
X-342168Y-965162D01*
X-341622Y-965307D01*
X-341076Y-965526D01*
X-341003Y-965562D01*
X-340821Y-965635D01*
X-340530Y-965780D01*
X-340129Y-965999D01*
X-339692Y-966290D01*
X-339146Y-966654D01*
X-338600Y-967091D01*
X-337982Y-967601D01*
X-337909Y-967673D01*
X-337690Y-967855D01*
X-337508Y-968037D01*
X-337326Y-968219D01*
X-337108Y-968438D01*
X-336817Y-968729D01*
X-336526Y-969020D01*
X-336198Y-969384D01*
X-335834Y-969748D01*
X-335434Y-970185D01*
X-335033Y-970658D01*
X-334560Y-971168D01*
X-334087Y-971750D01*
X-333577Y-972332D01*
X-333541Y-972369D01*
X-333468Y-972442D01*
X-333359Y-972587D01*
X-333213Y-972769D01*
X-332995Y-972988D01*
X-332776Y-973242D01*
X-332303Y-973825D01*
X-331757Y-974444D01*
X-331211Y-975026D01*
X-330738Y-975536D01*
X-330556Y-975754D01*
X-330374Y-975936D01*
X-330338Y-975972D01*
X-330228Y-976082D01*
X-330083Y-976227D01*
X-329864Y-976409D01*
X-329610Y-976591D01*
X-329355Y-976810D01*
X-328736Y-977246D01*
Y-964834D01*
X-325751D01*
Y-981542D01*
D02*
G37*
G36*
X-881066D02*
X-881103D01*
X-881248D01*
X-881467D01*
X-881758Y-981505D01*
X-882085Y-981469D01*
X-882449Y-981396D01*
X-882813Y-981323D01*
X-883214Y-981178D01*
X-883250D01*
X-883287Y-981141D01*
X-883505Y-981068D01*
X-883833Y-980923D01*
X-884269Y-980705D01*
X-884779Y-980413D01*
X-885361Y-980049D01*
X-885944Y-979649D01*
X-886563Y-979139D01*
X-886599D01*
X-886635Y-979067D01*
X-886854Y-978885D01*
X-887181Y-978557D01*
X-887655Y-978084D01*
X-888201Y-977538D01*
X-888856Y-976846D01*
X-889584Y-976009D01*
X-890348Y-975099D01*
X-890385Y-975062D01*
X-890494Y-974917D01*
X-890676Y-974698D01*
X-890894Y-974444D01*
X-891185Y-974116D01*
X-891513Y-973716D01*
X-891877Y-973315D01*
X-892277Y-972842D01*
X-893151Y-971932D01*
X-894025Y-971022D01*
X-894461Y-970585D01*
X-894898Y-970185D01*
X-895299Y-969821D01*
X-895699Y-969530D01*
X-895735D01*
X-895772Y-969457D01*
X-895881Y-969384D01*
X-896027Y-969311D01*
X-896427Y-969057D01*
X-896900Y-968765D01*
X-897483Y-968510D01*
X-898101Y-968256D01*
X-898793Y-968110D01*
X-899448Y-968037D01*
X-899485D01*
X-899521D01*
X-899739Y-968074D01*
X-900103Y-968110D01*
X-900504Y-968219D01*
X-901013Y-968365D01*
X-901523Y-968620D01*
X-902033Y-968947D01*
X-902542Y-969384D01*
X-902615Y-969457D01*
X-902761Y-969639D01*
X-902943Y-969894D01*
X-903197Y-970294D01*
X-903416Y-970804D01*
X-903634Y-971386D01*
X-903780Y-972078D01*
X-903816Y-972842D01*
Y-973061D01*
X-903780Y-973206D01*
X-903743Y-973643D01*
X-903634Y-974153D01*
X-903489Y-974698D01*
X-903234Y-975317D01*
X-902906Y-975900D01*
X-902469Y-976446D01*
X-902397Y-976519D01*
X-902215Y-976664D01*
X-901923Y-976883D01*
X-901487Y-977101D01*
X-900977Y-977356D01*
X-900322Y-977574D01*
X-899594Y-977720D01*
X-898757Y-977793D01*
X-899084Y-980959D01*
X-899121D01*
X-899230Y-980923D01*
X-899412D01*
X-899667Y-980886D01*
X-899958Y-980814D01*
X-900285Y-980741D01*
X-900686Y-980632D01*
X-901086Y-980523D01*
X-901960Y-980231D01*
X-902833Y-979794D01*
X-903270Y-979540D01*
X-903707Y-979212D01*
X-904107Y-978885D01*
X-904471Y-978520D01*
X-904508Y-978484D01*
X-904544Y-978411D01*
X-904653Y-978302D01*
X-904763Y-978120D01*
X-904908Y-977902D01*
X-905054Y-977647D01*
X-905236Y-977356D01*
X-905418Y-976992D01*
X-905600Y-976591D01*
X-905782Y-976154D01*
X-905927Y-975681D01*
X-906073Y-975172D01*
X-906182Y-974626D01*
X-906291Y-974043D01*
X-906328Y-973424D01*
X-906364Y-972769D01*
Y-972405D01*
X-906328Y-972150D01*
X-906291Y-971859D01*
X-906255Y-971495D01*
X-906182Y-971095D01*
X-906109Y-970694D01*
X-905855Y-969748D01*
X-905491Y-968802D01*
X-905272Y-968328D01*
X-905017Y-967855D01*
X-904690Y-967418D01*
X-904326Y-967018D01*
X-904289Y-966982D01*
X-904253Y-966909D01*
X-904107Y-966836D01*
X-903962Y-966691D01*
X-903780Y-966509D01*
X-903525Y-966327D01*
X-903270Y-966144D01*
X-902943Y-965926D01*
X-902251Y-965562D01*
X-901377Y-965198D01*
X-900941Y-965053D01*
X-900431Y-964980D01*
X-899921Y-964907D01*
X-899375Y-964870D01*
X-899303D01*
X-899121D01*
X-898829Y-964907D01*
X-898429Y-964943D01*
X-897992Y-965016D01*
X-897483Y-965162D01*
X-896937Y-965307D01*
X-896391Y-965526D01*
X-896318Y-965562D01*
X-896136Y-965635D01*
X-895845Y-965780D01*
X-895444Y-965999D01*
X-895007Y-966290D01*
X-894461Y-966654D01*
X-893915Y-967091D01*
X-893297Y-967601D01*
X-893224Y-967673D01*
X-893005Y-967855D01*
X-892823Y-968037D01*
X-892641Y-968219D01*
X-892423Y-968438D01*
X-892132Y-968729D01*
X-891841Y-969020D01*
X-891513Y-969384D01*
X-891149Y-969748D01*
X-890749Y-970185D01*
X-890348Y-970658D01*
X-889875Y-971168D01*
X-889402Y-971750D01*
X-888892Y-972332D01*
X-888856Y-972369D01*
X-888783Y-972442D01*
X-888674Y-972587D01*
X-888528Y-972769D01*
X-888310Y-972988D01*
X-888091Y-973242D01*
X-887618Y-973825D01*
X-887072Y-974444D01*
X-886526Y-975026D01*
X-886053Y-975536D01*
X-885871Y-975754D01*
X-885689Y-975936D01*
X-885653Y-975972D01*
X-885543Y-976082D01*
X-885398Y-976227D01*
X-885179Y-976409D01*
X-884925Y-976591D01*
X-884670Y-976810D01*
X-884051Y-977246D01*
Y-964834D01*
X-881066D01*
Y-981542D01*
D02*
G37*
G36*
X777089Y-983981D02*
X777308Y-984053D01*
X777599Y-984163D01*
X777926Y-984272D01*
X778327Y-984417D01*
X778764Y-984599D01*
X779237Y-984818D01*
X780256Y-985327D01*
X781275Y-985982D01*
X781785Y-986383D01*
X782294Y-986783D01*
X782731Y-987220D01*
X783168Y-987730D01*
X783204Y-987766D01*
X783277Y-987839D01*
X783350Y-988021D01*
X783496Y-988203D01*
X783678Y-988494D01*
X783860Y-988785D01*
X784042Y-989186D01*
X784224Y-989586D01*
X784442Y-990059D01*
X784624Y-990569D01*
X784806Y-991115D01*
X784988Y-991697D01*
X785134Y-992316D01*
X785206Y-992971D01*
X785279Y-993663D01*
X785316Y-994391D01*
Y-994791D01*
X785279Y-995082D01*
Y-995410D01*
X785243Y-995811D01*
X785170Y-996247D01*
X785097Y-996757D01*
X784915Y-997812D01*
X784624Y-998904D01*
X784224Y-999996D01*
X783969Y-1000506D01*
X783678Y-1001016D01*
X783641Y-1001052D01*
X783605Y-1001125D01*
X783496Y-1001270D01*
X783350Y-1001416D01*
X783204Y-1001635D01*
X782986Y-1001889D01*
X782731Y-1002181D01*
X782440Y-1002472D01*
X782112Y-1002763D01*
X781785Y-1003091D01*
X780948Y-1003746D01*
X779965Y-1004365D01*
X778873Y-1004910D01*
X778836D01*
X778727Y-1004983D01*
X778545Y-1005020D01*
X778327Y-1005129D01*
X778036Y-1005202D01*
X777672Y-1005311D01*
X777271Y-1005457D01*
X776834Y-1005566D01*
X776361Y-1005675D01*
X775815Y-1005821D01*
X774687Y-1006003D01*
X773413Y-1006148D01*
X772102Y-1006221D01*
X772066D01*
X771920D01*
X771702D01*
X771447Y-1006184D01*
X771083D01*
X770719Y-1006148D01*
X770246Y-1006112D01*
X769773Y-1006039D01*
X768717Y-1005857D01*
X767552Y-1005602D01*
X766388Y-1005238D01*
X765259Y-1004729D01*
X765223Y-1004692D01*
X765114Y-1004656D01*
X764968Y-1004583D01*
X764786Y-1004437D01*
X764531Y-1004292D01*
X764240Y-1004110D01*
X763585Y-1003636D01*
X762857Y-1003018D01*
X762129Y-1002290D01*
X761401Y-1001452D01*
X760782Y-1000470D01*
X760746Y-1000433D01*
X760709Y-1000324D01*
X760636Y-1000178D01*
X760527Y-999996D01*
X760418Y-999705D01*
X760309Y-999414D01*
X760163Y-999050D01*
X760018Y-998650D01*
X759872Y-998213D01*
X759726Y-997740D01*
X759508Y-996721D01*
X759326Y-995556D01*
X759253Y-994355D01*
Y-993990D01*
X759290Y-993736D01*
X759326Y-993408D01*
X759362Y-993008D01*
X759399Y-992607D01*
X759508Y-992134D01*
X759726Y-991151D01*
X760054Y-990059D01*
X760272Y-989513D01*
X760527Y-989004D01*
X760855Y-988494D01*
X761182Y-987985D01*
X761219Y-987948D01*
X761255Y-987875D01*
X761364Y-987730D01*
X761546Y-987548D01*
X761728Y-987366D01*
X761983Y-987111D01*
X762274Y-986856D01*
X762566Y-986565D01*
X762930Y-986274D01*
X763366Y-985982D01*
X763803Y-985655D01*
X764276Y-985364D01*
X764822Y-985109D01*
X765368Y-984818D01*
X765951Y-984599D01*
X766606Y-984381D01*
X767370Y-987657D01*
X767334D01*
X767261Y-987693D01*
X767116Y-987766D01*
X766934Y-987839D01*
X766715Y-987912D01*
X766424Y-988021D01*
X765842Y-988312D01*
X765186Y-988676D01*
X764531Y-989113D01*
X763912Y-989659D01*
X763366Y-990241D01*
X763294Y-990314D01*
X763148Y-990533D01*
X762966Y-990896D01*
X762711Y-991370D01*
X762493Y-991989D01*
X762274Y-992680D01*
X762129Y-993517D01*
X762092Y-994427D01*
Y-994718D01*
X762129Y-994900D01*
Y-995155D01*
X762165Y-995447D01*
X762274Y-996138D01*
X762420Y-996903D01*
X762675Y-997703D01*
X763039Y-998540D01*
X763512Y-999305D01*
Y-999341D01*
X763585Y-999378D01*
X763767Y-999633D01*
X764058Y-999960D01*
X764495Y-1000361D01*
X765041Y-1000834D01*
X765660Y-1001270D01*
X766424Y-1001671D01*
X767261Y-1002035D01*
X767298D01*
X767370Y-1002071D01*
X767480Y-1002108D01*
X767662Y-1002144D01*
X767880Y-1002217D01*
X768135Y-1002290D01*
X768754Y-1002399D01*
X769482Y-1002544D01*
X770282Y-1002690D01*
X771156Y-1002763D01*
X772102Y-1002799D01*
X772139D01*
X772248D01*
X772430D01*
X772648D01*
X772903Y-1002763D01*
X773231D01*
X773595Y-1002726D01*
X773995Y-1002690D01*
X774869Y-1002581D01*
X775815Y-1002399D01*
X776762Y-1002181D01*
X777708Y-1001889D01*
X777744D01*
X777817Y-1001853D01*
X777926Y-1001780D01*
X778108Y-1001707D01*
X778545Y-1001489D01*
X779055Y-1001161D01*
X779637Y-1000761D01*
X780256Y-1000251D01*
X780802Y-999669D01*
X781312Y-998977D01*
Y-998941D01*
X781348Y-998868D01*
X781421Y-998759D01*
X781494Y-998613D01*
X781566Y-998431D01*
X781676Y-998213D01*
X781894Y-997703D01*
X782112Y-997048D01*
X782294Y-996320D01*
X782440Y-995519D01*
X782476Y-994682D01*
Y-994427D01*
X782440Y-994209D01*
Y-993954D01*
X782404Y-993699D01*
X782258Y-993044D01*
X782076Y-992280D01*
X781785Y-991515D01*
X781384Y-990715D01*
X781166Y-990314D01*
X780875Y-989950D01*
X780838Y-989914D01*
X780802Y-989877D01*
X780693Y-989768D01*
X780584Y-989622D01*
X780402Y-989477D01*
X780183Y-989295D01*
X779965Y-989077D01*
X779674Y-988894D01*
X779346Y-988676D01*
X778982Y-988421D01*
X778618Y-988203D01*
X778181Y-987985D01*
X777708Y-987803D01*
X777198Y-987620D01*
X776652Y-987438D01*
X776070Y-987293D01*
X776907Y-983944D01*
X776944D01*
X777089Y-983981D01*
D02*
G37*
G36*
X221774D02*
X221993Y-984053D01*
X222284Y-984163D01*
X222611Y-984272D01*
X223012Y-984417D01*
X223449Y-984599D01*
X223922Y-984818D01*
X224941Y-985327D01*
X225960Y-985982D01*
X226470Y-986383D01*
X226979Y-986783D01*
X227416Y-987220D01*
X227853Y-987730D01*
X227889Y-987766D01*
X227962Y-987839D01*
X228035Y-988021D01*
X228181Y-988203D01*
X228363Y-988494D01*
X228545Y-988785D01*
X228727Y-989186D01*
X228909Y-989586D01*
X229127Y-990059D01*
X229309Y-990569D01*
X229491Y-991115D01*
X229673Y-991697D01*
X229819Y-992316D01*
X229891Y-992971D01*
X229964Y-993663D01*
X230001Y-994391D01*
Y-994791D01*
X229964Y-995082D01*
Y-995410D01*
X229928Y-995811D01*
X229855Y-996247D01*
X229782Y-996757D01*
X229600Y-997812D01*
X229309Y-998904D01*
X228909Y-999996D01*
X228654Y-1000506D01*
X228363Y-1001016D01*
X228326Y-1001052D01*
X228290Y-1001125D01*
X228181Y-1001270D01*
X228035Y-1001416D01*
X227889Y-1001635D01*
X227671Y-1001889D01*
X227416Y-1002181D01*
X227125Y-1002472D01*
X226797Y-1002763D01*
X226470Y-1003091D01*
X225633Y-1003746D01*
X224650Y-1004365D01*
X223558Y-1004910D01*
X223521D01*
X223412Y-1004983D01*
X223230Y-1005020D01*
X223012Y-1005129D01*
X222721Y-1005202D01*
X222357Y-1005311D01*
X221956Y-1005457D01*
X221519Y-1005566D01*
X221046Y-1005675D01*
X220500Y-1005821D01*
X219372Y-1006003D01*
X218098Y-1006148D01*
X216787Y-1006221D01*
X216751D01*
X216605D01*
X216387D01*
X216132Y-1006184D01*
X215768D01*
X215404Y-1006148D01*
X214931Y-1006112D01*
X214458Y-1006039D01*
X213402Y-1005857D01*
X212237Y-1005602D01*
X211073Y-1005238D01*
X209944Y-1004729D01*
X209908Y-1004692D01*
X209799Y-1004656D01*
X209653Y-1004583D01*
X209471Y-1004437D01*
X209216Y-1004292D01*
X208925Y-1004110D01*
X208270Y-1003636D01*
X207542Y-1003018D01*
X206814Y-1002290D01*
X206086Y-1001452D01*
X205467Y-1000470D01*
X205431Y-1000433D01*
X205394Y-1000324D01*
X205321Y-1000178D01*
X205212Y-999996D01*
X205103Y-999705D01*
X204994Y-999414D01*
X204848Y-999050D01*
X204703Y-998650D01*
X204557Y-998213D01*
X204411Y-997740D01*
X204193Y-996721D01*
X204011Y-995556D01*
X203938Y-994355D01*
Y-993990D01*
X203975Y-993736D01*
X204011Y-993408D01*
X204047Y-993008D01*
X204084Y-992607D01*
X204193Y-992134D01*
X204411Y-991151D01*
X204739Y-990059D01*
X204957Y-989513D01*
X205212Y-989004D01*
X205540Y-988494D01*
X205867Y-987985D01*
X205904Y-987948D01*
X205940Y-987875D01*
X206049Y-987730D01*
X206231Y-987548D01*
X206413Y-987366D01*
X206668Y-987111D01*
X206959Y-986856D01*
X207251Y-986565D01*
X207615Y-986274D01*
X208051Y-985982D01*
X208488Y-985655D01*
X208961Y-985364D01*
X209507Y-985109D01*
X210053Y-984818D01*
X210636Y-984599D01*
X211291Y-984381D01*
X212055Y-987657D01*
X212019D01*
X211946Y-987693D01*
X211801Y-987766D01*
X211619Y-987839D01*
X211400Y-987912D01*
X211109Y-988021D01*
X210527Y-988312D01*
X209871Y-988676D01*
X209216Y-989113D01*
X208597Y-989659D01*
X208051Y-990241D01*
X207979Y-990314D01*
X207833Y-990533D01*
X207651Y-990896D01*
X207396Y-991370D01*
X207178Y-991989D01*
X206959Y-992680D01*
X206814Y-993517D01*
X206777Y-994427D01*
Y-994718D01*
X206814Y-994900D01*
Y-995155D01*
X206850Y-995447D01*
X206959Y-996138D01*
X207105Y-996903D01*
X207360Y-997703D01*
X207724Y-998540D01*
X208197Y-999305D01*
Y-999341D01*
X208270Y-999378D01*
X208452Y-999633D01*
X208743Y-999960D01*
X209180Y-1000361D01*
X209726Y-1000834D01*
X210345Y-1001270D01*
X211109Y-1001671D01*
X211946Y-1002035D01*
X211983D01*
X212055Y-1002071D01*
X212165Y-1002108D01*
X212347Y-1002144D01*
X212565Y-1002217D01*
X212820Y-1002290D01*
X213439Y-1002399D01*
X214167Y-1002544D01*
X214967Y-1002690D01*
X215841Y-1002763D01*
X216787Y-1002799D01*
X216824D01*
X216933D01*
X217115D01*
X217333D01*
X217588Y-1002763D01*
X217916D01*
X218280Y-1002726D01*
X218680Y-1002690D01*
X219554Y-1002581D01*
X220500Y-1002399D01*
X221447Y-1002181D01*
X222393Y-1001889D01*
X222429D01*
X222502Y-1001853D01*
X222611Y-1001780D01*
X222793Y-1001707D01*
X223230Y-1001489D01*
X223740Y-1001161D01*
X224322Y-1000761D01*
X224941Y-1000251D01*
X225487Y-999669D01*
X225997Y-998977D01*
Y-998941D01*
X226033Y-998868D01*
X226106Y-998759D01*
X226179Y-998613D01*
X226251Y-998431D01*
X226361Y-998213D01*
X226579Y-997703D01*
X226797Y-997048D01*
X226979Y-996320D01*
X227125Y-995519D01*
X227161Y-994682D01*
Y-994427D01*
X227125Y-994209D01*
Y-993954D01*
X227089Y-993699D01*
X226943Y-993044D01*
X226761Y-992280D01*
X226470Y-991515D01*
X226069Y-990715D01*
X225851Y-990314D01*
X225560Y-989950D01*
X225523Y-989914D01*
X225487Y-989877D01*
X225378Y-989768D01*
X225269Y-989622D01*
X225087Y-989477D01*
X224868Y-989295D01*
X224650Y-989077D01*
X224359Y-988894D01*
X224031Y-988676D01*
X223667Y-988421D01*
X223303Y-988203D01*
X222866Y-987985D01*
X222393Y-987803D01*
X221883Y-987620D01*
X221337Y-987438D01*
X220755Y-987293D01*
X221592Y-983944D01*
X221629D01*
X221774Y-983981D01*
D02*
G37*
G36*
X-333541D02*
X-333322Y-984053D01*
X-333031Y-984163D01*
X-332704Y-984272D01*
X-332303Y-984417D01*
X-331866Y-984599D01*
X-331393Y-984818D01*
X-330374Y-985327D01*
X-329355Y-985982D01*
X-328845Y-986383D01*
X-328336Y-986783D01*
X-327899Y-987220D01*
X-327462Y-987730D01*
X-327426Y-987766D01*
X-327353Y-987839D01*
X-327280Y-988021D01*
X-327134Y-988203D01*
X-326952Y-988494D01*
X-326770Y-988785D01*
X-326588Y-989186D01*
X-326406Y-989586D01*
X-326188Y-990059D01*
X-326006Y-990569D01*
X-325824Y-991115D01*
X-325642Y-991697D01*
X-325496Y-992316D01*
X-325424Y-992971D01*
X-325351Y-993663D01*
X-325314Y-994391D01*
Y-994791D01*
X-325351Y-995082D01*
Y-995410D01*
X-325387Y-995811D01*
X-325460Y-996247D01*
X-325533Y-996757D01*
X-325715Y-997812D01*
X-326006Y-998904D01*
X-326406Y-999996D01*
X-326661Y-1000506D01*
X-326952Y-1001016D01*
X-326989Y-1001052D01*
X-327025Y-1001125D01*
X-327134Y-1001270D01*
X-327280Y-1001416D01*
X-327426Y-1001635D01*
X-327644Y-1001889D01*
X-327899Y-1002181D01*
X-328190Y-1002472D01*
X-328518Y-1002763D01*
X-328845Y-1003091D01*
X-329682Y-1003746D01*
X-330665Y-1004365D01*
X-331757Y-1004910D01*
X-331794D01*
X-331903Y-1004983D01*
X-332085Y-1005020D01*
X-332303Y-1005129D01*
X-332594Y-1005202D01*
X-332958Y-1005311D01*
X-333359Y-1005457D01*
X-333796Y-1005566D01*
X-334269Y-1005675D01*
X-334815Y-1005821D01*
X-335943Y-1006003D01*
X-337217Y-1006148D01*
X-338528Y-1006221D01*
X-338564D01*
X-338710D01*
X-338928D01*
X-339183Y-1006184D01*
X-339547D01*
X-339911Y-1006148D01*
X-340384Y-1006112D01*
X-340857Y-1006039D01*
X-341913Y-1005857D01*
X-343078Y-1005602D01*
X-344242Y-1005238D01*
X-345371Y-1004729D01*
X-345407Y-1004692D01*
X-345516Y-1004656D01*
X-345662Y-1004583D01*
X-345844Y-1004437D01*
X-346099Y-1004292D01*
X-346390Y-1004110D01*
X-347045Y-1003636D01*
X-347773Y-1003018D01*
X-348501Y-1002290D01*
X-349229Y-1001452D01*
X-349848Y-1000470D01*
X-349884Y-1000433D01*
X-349921Y-1000324D01*
X-349994Y-1000178D01*
X-350103Y-999996D01*
X-350212Y-999705D01*
X-350321Y-999414D01*
X-350467Y-999050D01*
X-350612Y-998650D01*
X-350758Y-998213D01*
X-350904Y-997740D01*
X-351122Y-996721D01*
X-351304Y-995556D01*
X-351377Y-994355D01*
Y-993990D01*
X-351340Y-993736D01*
X-351304Y-993408D01*
X-351268Y-993008D01*
X-351231Y-992607D01*
X-351122Y-992134D01*
X-350904Y-991151D01*
X-350576Y-990059D01*
X-350358Y-989513D01*
X-350103Y-989004D01*
X-349775Y-988494D01*
X-349448Y-987985D01*
X-349411Y-987948D01*
X-349375Y-987875D01*
X-349266Y-987730D01*
X-349084Y-987548D01*
X-348902Y-987366D01*
X-348647Y-987111D01*
X-348356Y-986856D01*
X-348064Y-986565D01*
X-347700Y-986274D01*
X-347264Y-985982D01*
X-346827Y-985655D01*
X-346354Y-985364D01*
X-345808Y-985109D01*
X-345262Y-984818D01*
X-344679Y-984599D01*
X-344024Y-984381D01*
X-343260Y-987657D01*
X-343296D01*
X-343369Y-987693D01*
X-343514Y-987766D01*
X-343696Y-987839D01*
X-343915Y-987912D01*
X-344206Y-988021D01*
X-344788Y-988312D01*
X-345444Y-988676D01*
X-346099Y-989113D01*
X-346718Y-989659D01*
X-347264Y-990241D01*
X-347336Y-990314D01*
X-347482Y-990533D01*
X-347664Y-990896D01*
X-347919Y-991370D01*
X-348137Y-991989D01*
X-348356Y-992680D01*
X-348501Y-993517D01*
X-348538Y-994427D01*
Y-994718D01*
X-348501Y-994900D01*
Y-995155D01*
X-348465Y-995447D01*
X-348356Y-996138D01*
X-348210Y-996903D01*
X-347955Y-997703D01*
X-347591Y-998540D01*
X-347118Y-999305D01*
Y-999341D01*
X-347045Y-999378D01*
X-346863Y-999633D01*
X-346572Y-999960D01*
X-346135Y-1000361D01*
X-345589Y-1000834D01*
X-344970Y-1001270D01*
X-344206Y-1001671D01*
X-343369Y-1002035D01*
X-343332D01*
X-343260Y-1002071D01*
X-343150Y-1002108D01*
X-342968Y-1002144D01*
X-342750Y-1002217D01*
X-342495Y-1002290D01*
X-341876Y-1002399D01*
X-341148Y-1002544D01*
X-340348Y-1002690D01*
X-339474Y-1002763D01*
X-338528Y-1002799D01*
X-338491D01*
X-338382D01*
X-338200D01*
X-337982D01*
X-337727Y-1002763D01*
X-337399D01*
X-337035Y-1002726D01*
X-336635Y-1002690D01*
X-335761Y-1002581D01*
X-334815Y-1002399D01*
X-333868Y-1002181D01*
X-332922Y-1001889D01*
X-332886D01*
X-332813Y-1001853D01*
X-332704Y-1001780D01*
X-332522Y-1001707D01*
X-332085Y-1001489D01*
X-331575Y-1001161D01*
X-330993Y-1000761D01*
X-330374Y-1000251D01*
X-329828Y-999669D01*
X-329318Y-998977D01*
Y-998941D01*
X-329282Y-998868D01*
X-329209Y-998759D01*
X-329136Y-998613D01*
X-329064Y-998431D01*
X-328954Y-998213D01*
X-328736Y-997703D01*
X-328518Y-997048D01*
X-328336Y-996320D01*
X-328190Y-995519D01*
X-328154Y-994682D01*
Y-994427D01*
X-328190Y-994209D01*
Y-993954D01*
X-328226Y-993699D01*
X-328372Y-993044D01*
X-328554Y-992280D01*
X-328845Y-991515D01*
X-329246Y-990715D01*
X-329464Y-990314D01*
X-329755Y-989950D01*
X-329792Y-989914D01*
X-329828Y-989877D01*
X-329937Y-989768D01*
X-330046Y-989622D01*
X-330228Y-989477D01*
X-330447Y-989295D01*
X-330665Y-989077D01*
X-330956Y-988894D01*
X-331284Y-988676D01*
X-331648Y-988421D01*
X-332012Y-988203D01*
X-332449Y-987985D01*
X-332922Y-987803D01*
X-333432Y-987620D01*
X-333978Y-987438D01*
X-334560Y-987293D01*
X-333723Y-983944D01*
X-333686D01*
X-333541Y-983981D01*
D02*
G37*
G36*
X-888856D02*
X-888637Y-984053D01*
X-888346Y-984163D01*
X-888019Y-984272D01*
X-887618Y-984417D01*
X-887181Y-984599D01*
X-886708Y-984818D01*
X-885689Y-985327D01*
X-884670Y-985982D01*
X-884160Y-986383D01*
X-883651Y-986783D01*
X-883214Y-987220D01*
X-882777Y-987730D01*
X-882741Y-987766D01*
X-882668Y-987839D01*
X-882595Y-988021D01*
X-882449Y-988203D01*
X-882267Y-988494D01*
X-882085Y-988785D01*
X-881903Y-989186D01*
X-881721Y-989586D01*
X-881503Y-990059D01*
X-881321Y-990569D01*
X-881139Y-991115D01*
X-880957Y-991697D01*
X-880811Y-992316D01*
X-880739Y-992971D01*
X-880666Y-993663D01*
X-880629Y-994391D01*
Y-994791D01*
X-880666Y-995082D01*
Y-995410D01*
X-880702Y-995811D01*
X-880775Y-996247D01*
X-880848Y-996757D01*
X-881030Y-997812D01*
X-881321Y-998904D01*
X-881721Y-999996D01*
X-881976Y-1000506D01*
X-882267Y-1001016D01*
X-882304Y-1001052D01*
X-882340Y-1001125D01*
X-882449Y-1001270D01*
X-882595Y-1001416D01*
X-882741Y-1001635D01*
X-882959Y-1001889D01*
X-883214Y-1002181D01*
X-883505Y-1002472D01*
X-883833Y-1002763D01*
X-884160Y-1003091D01*
X-884997Y-1003746D01*
X-885980Y-1004365D01*
X-887072Y-1004910D01*
X-887109D01*
X-887218Y-1004983D01*
X-887400Y-1005020D01*
X-887618Y-1005129D01*
X-887909Y-1005202D01*
X-888273Y-1005311D01*
X-888674Y-1005457D01*
X-889111Y-1005566D01*
X-889584Y-1005675D01*
X-890130Y-1005821D01*
X-891258Y-1006003D01*
X-892532Y-1006148D01*
X-893843Y-1006221D01*
X-893879D01*
X-894025D01*
X-894243D01*
X-894498Y-1006184D01*
X-894862D01*
X-895226Y-1006148D01*
X-895699Y-1006112D01*
X-896172Y-1006039D01*
X-897228Y-1005857D01*
X-898393Y-1005602D01*
X-899557Y-1005238D01*
X-900686Y-1004729D01*
X-900722Y-1004692D01*
X-900831Y-1004656D01*
X-900977Y-1004583D01*
X-901159Y-1004437D01*
X-901414Y-1004292D01*
X-901705Y-1004110D01*
X-902360Y-1003636D01*
X-903088Y-1003018D01*
X-903816Y-1002290D01*
X-904544Y-1001452D01*
X-905163Y-1000470D01*
X-905199Y-1000433D01*
X-905236Y-1000324D01*
X-905309Y-1000178D01*
X-905418Y-999996D01*
X-905527Y-999705D01*
X-905636Y-999414D01*
X-905782Y-999050D01*
X-905927Y-998650D01*
X-906073Y-998213D01*
X-906219Y-997740D01*
X-906437Y-996721D01*
X-906619Y-995556D01*
X-906692Y-994355D01*
Y-993990D01*
X-906655Y-993736D01*
X-906619Y-993408D01*
X-906583Y-993008D01*
X-906546Y-992607D01*
X-906437Y-992134D01*
X-906219Y-991151D01*
X-905891Y-990059D01*
X-905673Y-989513D01*
X-905418Y-989004D01*
X-905090Y-988494D01*
X-904763Y-987985D01*
X-904726Y-987948D01*
X-904690Y-987875D01*
X-904581Y-987730D01*
X-904399Y-987548D01*
X-904217Y-987366D01*
X-903962Y-987111D01*
X-903671Y-986856D01*
X-903379Y-986565D01*
X-903015Y-986274D01*
X-902579Y-985982D01*
X-902142Y-985655D01*
X-901669Y-985364D01*
X-901123Y-985109D01*
X-900577Y-984818D01*
X-899994Y-984599D01*
X-899339Y-984381D01*
X-898575Y-987657D01*
X-898611D01*
X-898684Y-987693D01*
X-898829Y-987766D01*
X-899011Y-987839D01*
X-899230Y-987912D01*
X-899521Y-988021D01*
X-900103Y-988312D01*
X-900759Y-988676D01*
X-901414Y-989113D01*
X-902033Y-989659D01*
X-902579Y-990241D01*
X-902651Y-990314D01*
X-902797Y-990533D01*
X-902979Y-990896D01*
X-903234Y-991370D01*
X-903452Y-991989D01*
X-903671Y-992680D01*
X-903816Y-993517D01*
X-903853Y-994427D01*
Y-994718D01*
X-903816Y-994900D01*
Y-995155D01*
X-903780Y-995447D01*
X-903671Y-996138D01*
X-903525Y-996903D01*
X-903270Y-997703D01*
X-902906Y-998540D01*
X-902433Y-999305D01*
Y-999341D01*
X-902360Y-999378D01*
X-902178Y-999633D01*
X-901887Y-999960D01*
X-901450Y-1000361D01*
X-900904Y-1000834D01*
X-900285Y-1001270D01*
X-899521Y-1001671D01*
X-898684Y-1002035D01*
X-898647D01*
X-898575Y-1002071D01*
X-898465Y-1002108D01*
X-898283Y-1002144D01*
X-898065Y-1002217D01*
X-897810Y-1002290D01*
X-897191Y-1002399D01*
X-896463Y-1002544D01*
X-895663Y-1002690D01*
X-894789Y-1002763D01*
X-893843Y-1002799D01*
X-893806D01*
X-893697D01*
X-893515D01*
X-893297D01*
X-893042Y-1002763D01*
X-892714D01*
X-892350Y-1002726D01*
X-891950Y-1002690D01*
X-891076Y-1002581D01*
X-890130Y-1002399D01*
X-889183Y-1002181D01*
X-888237Y-1001889D01*
X-888201D01*
X-888128Y-1001853D01*
X-888019Y-1001780D01*
X-887837Y-1001707D01*
X-887400Y-1001489D01*
X-886890Y-1001161D01*
X-886308Y-1000761D01*
X-885689Y-1000251D01*
X-885143Y-999669D01*
X-884633Y-998977D01*
Y-998941D01*
X-884597Y-998868D01*
X-884524Y-998759D01*
X-884451Y-998613D01*
X-884379Y-998431D01*
X-884269Y-998213D01*
X-884051Y-997703D01*
X-883833Y-997048D01*
X-883651Y-996320D01*
X-883505Y-995519D01*
X-883469Y-994682D01*
Y-994427D01*
X-883505Y-994209D01*
Y-993954D01*
X-883541Y-993699D01*
X-883687Y-993044D01*
X-883869Y-992280D01*
X-884160Y-991515D01*
X-884561Y-990715D01*
X-884779Y-990314D01*
X-885070Y-989950D01*
X-885107Y-989914D01*
X-885143Y-989877D01*
X-885252Y-989768D01*
X-885361Y-989622D01*
X-885543Y-989477D01*
X-885762Y-989295D01*
X-885980Y-989077D01*
X-886271Y-988894D01*
X-886599Y-988676D01*
X-886963Y-988421D01*
X-887327Y-988203D01*
X-887764Y-987985D01*
X-888237Y-987803D01*
X-888747Y-987620D01*
X-889293Y-987438D01*
X-889875Y-987293D01*
X-889038Y-983944D01*
X-889001D01*
X-888856Y-983981D01*
D02*
G37*
G36*
X842583Y-996414D02*
X842910D01*
X843311Y-996450D01*
X843748Y-996523D01*
X844257Y-996596D01*
X845313Y-996778D01*
X846405Y-997069D01*
X847497Y-997470D01*
X848006Y-997724D01*
X848516Y-998016D01*
X848552Y-998052D01*
X848625Y-998088D01*
X848771Y-998198D01*
X848916Y-998343D01*
X849135Y-998489D01*
X849390Y-998707D01*
X849681Y-998962D01*
X849972Y-999253D01*
X850263Y-999581D01*
X850591Y-999908D01*
X851246Y-1000746D01*
X851865Y-1001728D01*
X852411Y-1002820D01*
Y-1002857D01*
X852484Y-1002966D01*
X852520Y-1003148D01*
X852629Y-1003366D01*
X852702Y-1003658D01*
X852811Y-1004022D01*
X852957Y-1004422D01*
X853066Y-1004859D01*
X853175Y-1005332D01*
X853321Y-1005878D01*
X853503Y-1007006D01*
X853648Y-1008280D01*
X853721Y-1009591D01*
Y-1009627D01*
Y-1009773D01*
Y-1009991D01*
X853685Y-1010246D01*
Y-1010610D01*
X853648Y-1010974D01*
X853612Y-1011447D01*
X853539Y-1011920D01*
X853357Y-1012976D01*
X853102Y-1014141D01*
X852738Y-1015306D01*
X852229Y-1016434D01*
X852192Y-1016470D01*
X852156Y-1016580D01*
X852083Y-1016725D01*
X851938Y-1016907D01*
X851792Y-1017162D01*
X851610Y-1017453D01*
X851137Y-1018108D01*
X850518Y-1018836D01*
X849790Y-1019564D01*
X848953Y-1020292D01*
X847970Y-1020911D01*
X847934Y-1020948D01*
X847824Y-1020984D01*
X847679Y-1021057D01*
X847497Y-1021166D01*
X847206Y-1021275D01*
X846914Y-1021384D01*
X846550Y-1021530D01*
X846150Y-1021676D01*
X845713Y-1021821D01*
X845240Y-1021967D01*
X844221Y-1022185D01*
X843056Y-1022367D01*
X841855Y-1022440D01*
X841491D01*
X841236Y-1022404D01*
X840908Y-1022367D01*
X840508Y-1022331D01*
X840108Y-1022294D01*
X839634Y-1022185D01*
X838652Y-1021967D01*
X837560Y-1021639D01*
X837014Y-1021421D01*
X836504Y-1021166D01*
X835994Y-1020838D01*
X835485Y-1020511D01*
X835448Y-1020474D01*
X835376Y-1020438D01*
X835230Y-1020329D01*
X835048Y-1020147D01*
X834866Y-1019965D01*
X834611Y-1019710D01*
X834356Y-1019419D01*
X834065Y-1019128D01*
X833774Y-1018764D01*
X833483Y-1018327D01*
X833155Y-1017890D01*
X832864Y-1017417D01*
X832609Y-1016871D01*
X832318Y-1016325D01*
X832100Y-1015742D01*
X831881Y-1015087D01*
X835157Y-1014323D01*
Y-1014359D01*
X835194Y-1014432D01*
X835266Y-1014578D01*
X835339Y-1014760D01*
X835412Y-1014978D01*
X835521Y-1015269D01*
X835812Y-1015852D01*
X836176Y-1016507D01*
X836613Y-1017162D01*
X837159Y-1017781D01*
X837742Y-1018327D01*
X837814Y-1018400D01*
X838033Y-1018545D01*
X838397Y-1018727D01*
X838870Y-1018982D01*
X839489Y-1019200D01*
X840180Y-1019419D01*
X841018Y-1019564D01*
X841928Y-1019601D01*
X842219D01*
X842401Y-1019564D01*
X842656D01*
X842947Y-1019528D01*
X843638Y-1019419D01*
X844403Y-1019273D01*
X845204Y-1019018D01*
X846041Y-1018654D01*
X846805Y-1018181D01*
X846842D01*
X846878Y-1018108D01*
X847133Y-1017926D01*
X847460Y-1017635D01*
X847861Y-1017198D01*
X848334Y-1016652D01*
X848771Y-1016034D01*
X849171Y-1015269D01*
X849535Y-1014432D01*
Y-1014396D01*
X849572Y-1014323D01*
X849608Y-1014214D01*
X849644Y-1014032D01*
X849717Y-1013813D01*
X849790Y-1013558D01*
X849899Y-1012940D01*
X850045Y-1012212D01*
X850190Y-1011411D01*
X850263Y-1010537D01*
X850300Y-1009591D01*
Y-1009554D01*
Y-1009445D01*
Y-1009263D01*
Y-1009045D01*
X850263Y-1008790D01*
Y-1008462D01*
X850227Y-1008098D01*
X850190Y-1007698D01*
X850081Y-1006824D01*
X849899Y-1005878D01*
X849681Y-1004932D01*
X849390Y-1003985D01*
Y-1003949D01*
X849353Y-1003876D01*
X849280Y-1003767D01*
X849208Y-1003585D01*
X848989Y-1003148D01*
X848662Y-1002638D01*
X848261Y-1002056D01*
X847752Y-1001437D01*
X847169Y-1000891D01*
X846478Y-1000382D01*
X846441D01*
X846368Y-1000345D01*
X846259Y-1000272D01*
X846114Y-1000200D01*
X845932Y-1000127D01*
X845713Y-1000018D01*
X845204Y-999799D01*
X844548Y-999581D01*
X843820Y-999399D01*
X843020Y-999253D01*
X842182Y-999217D01*
X841928D01*
X841709Y-999253D01*
X841454D01*
X841200Y-999290D01*
X840544Y-999435D01*
X839780Y-999617D01*
X839016Y-999908D01*
X838215Y-1000309D01*
X837814Y-1000527D01*
X837450Y-1000818D01*
X837414Y-1000855D01*
X837378Y-1000891D01*
X837268Y-1001000D01*
X837123Y-1001110D01*
X836977Y-1001292D01*
X836795Y-1001510D01*
X836577Y-1001728D01*
X836395Y-1002020D01*
X836176Y-1002347D01*
X835922Y-1002711D01*
X835703Y-1003075D01*
X835485Y-1003512D01*
X835303Y-1003985D01*
X835121Y-1004495D01*
X834939Y-1005041D01*
X834793Y-1005623D01*
X831444Y-1004786D01*
Y-1004750D01*
X831481Y-1004604D01*
X831554Y-1004386D01*
X831663Y-1004094D01*
X831772Y-1003767D01*
X831918Y-1003366D01*
X832100Y-1002930D01*
X832318Y-1002456D01*
X832828Y-1001437D01*
X833483Y-1000418D01*
X833883Y-999908D01*
X834284Y-999399D01*
X834720Y-998962D01*
X835230Y-998525D01*
X835266Y-998489D01*
X835339Y-998416D01*
X835521Y-998343D01*
X835703Y-998198D01*
X835994Y-998016D01*
X836286Y-997834D01*
X836686Y-997652D01*
X837086Y-997470D01*
X837560Y-997251D01*
X838069Y-997069D01*
X838615Y-996887D01*
X839198Y-996705D01*
X839816Y-996560D01*
X840472Y-996487D01*
X841163Y-996414D01*
X841891Y-996378D01*
X842292D01*
X842583Y-996414D01*
D02*
G37*
G36*
X287268D02*
X287595D01*
X287996Y-996450D01*
X288433Y-996523D01*
X288942Y-996596D01*
X289998Y-996778D01*
X291090Y-997069D01*
X292182Y-997470D01*
X292691Y-997724D01*
X293201Y-998016D01*
X293237Y-998052D01*
X293310Y-998088D01*
X293456Y-998198D01*
X293601Y-998343D01*
X293820Y-998489D01*
X294075Y-998707D01*
X294366Y-998962D01*
X294657Y-999253D01*
X294948Y-999581D01*
X295276Y-999908D01*
X295931Y-1000746D01*
X296550Y-1001728D01*
X297096Y-1002820D01*
Y-1002857D01*
X297169Y-1002966D01*
X297205Y-1003148D01*
X297314Y-1003366D01*
X297387Y-1003658D01*
X297496Y-1004022D01*
X297642Y-1004422D01*
X297751Y-1004859D01*
X297860Y-1005332D01*
X298006Y-1005878D01*
X298188Y-1007006D01*
X298333Y-1008280D01*
X298406Y-1009591D01*
Y-1009627D01*
Y-1009773D01*
Y-1009991D01*
X298370Y-1010246D01*
Y-1010610D01*
X298333Y-1010974D01*
X298297Y-1011447D01*
X298224Y-1011920D01*
X298042Y-1012976D01*
X297787Y-1014141D01*
X297423Y-1015306D01*
X296914Y-1016434D01*
X296877Y-1016470D01*
X296841Y-1016580D01*
X296768Y-1016725D01*
X296623Y-1016907D01*
X296477Y-1017162D01*
X296295Y-1017453D01*
X295822Y-1018108D01*
X295203Y-1018836D01*
X294475Y-1019564D01*
X293638Y-1020292D01*
X292655Y-1020911D01*
X292619Y-1020948D01*
X292509Y-1020984D01*
X292364Y-1021057D01*
X292182Y-1021166D01*
X291891Y-1021275D01*
X291599Y-1021384D01*
X291235Y-1021530D01*
X290835Y-1021676D01*
X290398Y-1021821D01*
X289925Y-1021967D01*
X288906Y-1022185D01*
X287741Y-1022367D01*
X286540Y-1022440D01*
X286176D01*
X285921Y-1022404D01*
X285593Y-1022367D01*
X285193Y-1022331D01*
X284793Y-1022294D01*
X284319Y-1022185D01*
X283337Y-1021967D01*
X282245Y-1021639D01*
X281699Y-1021421D01*
X281189Y-1021166D01*
X280679Y-1020838D01*
X280170Y-1020511D01*
X280133Y-1020474D01*
X280061Y-1020438D01*
X279915Y-1020329D01*
X279733Y-1020147D01*
X279551Y-1019965D01*
X279296Y-1019710D01*
X279041Y-1019419D01*
X278750Y-1019128D01*
X278459Y-1018764D01*
X278168Y-1018327D01*
X277840Y-1017890D01*
X277549Y-1017417D01*
X277294Y-1016871D01*
X277003Y-1016325D01*
X276785Y-1015742D01*
X276566Y-1015087D01*
X279842Y-1014323D01*
Y-1014359D01*
X279879Y-1014432D01*
X279951Y-1014578D01*
X280024Y-1014760D01*
X280097Y-1014978D01*
X280206Y-1015269D01*
X280497Y-1015852D01*
X280861Y-1016507D01*
X281298Y-1017162D01*
X281844Y-1017781D01*
X282427Y-1018327D01*
X282499Y-1018400D01*
X282718Y-1018545D01*
X283082Y-1018727D01*
X283555Y-1018982D01*
X284174Y-1019200D01*
X284865Y-1019419D01*
X285703Y-1019564D01*
X286613Y-1019601D01*
X286904D01*
X287086Y-1019564D01*
X287341D01*
X287632Y-1019528D01*
X288323Y-1019419D01*
X289088Y-1019273D01*
X289889Y-1019018D01*
X290726Y-1018654D01*
X291490Y-1018181D01*
X291527D01*
X291563Y-1018108D01*
X291818Y-1017926D01*
X292145Y-1017635D01*
X292546Y-1017198D01*
X293019Y-1016652D01*
X293456Y-1016034D01*
X293856Y-1015269D01*
X294220Y-1014432D01*
Y-1014396D01*
X294257Y-1014323D01*
X294293Y-1014214D01*
X294329Y-1014032D01*
X294402Y-1013813D01*
X294475Y-1013558D01*
X294584Y-1012940D01*
X294730Y-1012212D01*
X294875Y-1011411D01*
X294948Y-1010537D01*
X294985Y-1009591D01*
Y-1009554D01*
Y-1009445D01*
Y-1009263D01*
Y-1009045D01*
X294948Y-1008790D01*
Y-1008462D01*
X294912Y-1008098D01*
X294875Y-1007698D01*
X294766Y-1006824D01*
X294584Y-1005878D01*
X294366Y-1004932D01*
X294075Y-1003985D01*
Y-1003949D01*
X294038Y-1003876D01*
X293965Y-1003767D01*
X293893Y-1003585D01*
X293674Y-1003148D01*
X293347Y-1002638D01*
X292946Y-1002056D01*
X292437Y-1001437D01*
X291854Y-1000891D01*
X291163Y-1000382D01*
X291126D01*
X291053Y-1000345D01*
X290944Y-1000272D01*
X290799Y-1000200D01*
X290617Y-1000127D01*
X290398Y-1000018D01*
X289889Y-999799D01*
X289233Y-999581D01*
X288505Y-999399D01*
X287705Y-999253D01*
X286867Y-999217D01*
X286613D01*
X286394Y-999253D01*
X286139D01*
X285885Y-999290D01*
X285229Y-999435D01*
X284465Y-999617D01*
X283701Y-999908D01*
X282900Y-1000309D01*
X282499Y-1000527D01*
X282135Y-1000818D01*
X282099Y-1000855D01*
X282063Y-1000891D01*
X281953Y-1001000D01*
X281808Y-1001110D01*
X281662Y-1001292D01*
X281480Y-1001510D01*
X281262Y-1001728D01*
X281080Y-1002020D01*
X280861Y-1002347D01*
X280607Y-1002711D01*
X280388Y-1003075D01*
X280170Y-1003512D01*
X279988Y-1003985D01*
X279806Y-1004495D01*
X279624Y-1005041D01*
X279478Y-1005623D01*
X276129Y-1004786D01*
Y-1004750D01*
X276166Y-1004604D01*
X276239Y-1004386D01*
X276348Y-1004094D01*
X276457Y-1003767D01*
X276603Y-1003366D01*
X276785Y-1002930D01*
X277003Y-1002456D01*
X277513Y-1001437D01*
X278168Y-1000418D01*
X278568Y-999908D01*
X278969Y-999399D01*
X279405Y-998962D01*
X279915Y-998525D01*
X279951Y-998489D01*
X280024Y-998416D01*
X280206Y-998343D01*
X280388Y-998198D01*
X280679Y-998016D01*
X280971Y-997834D01*
X281371Y-997652D01*
X281771Y-997470D01*
X282245Y-997251D01*
X282754Y-997069D01*
X283300Y-996887D01*
X283883Y-996705D01*
X284501Y-996560D01*
X285157Y-996487D01*
X285848Y-996414D01*
X286576Y-996378D01*
X286977D01*
X287268Y-996414D01*
D02*
G37*
G36*
X-268047D02*
X-267720D01*
X-267319Y-996450D01*
X-266882Y-996523D01*
X-266373Y-996596D01*
X-265317Y-996778D01*
X-264225Y-997069D01*
X-263133Y-997470D01*
X-262624Y-997724D01*
X-262114Y-998016D01*
X-262078Y-998052D01*
X-262005Y-998088D01*
X-261859Y-998198D01*
X-261714Y-998343D01*
X-261495Y-998489D01*
X-261240Y-998707D01*
X-260949Y-998962D01*
X-260658Y-999253D01*
X-260367Y-999581D01*
X-260039Y-999908D01*
X-259384Y-1000746D01*
X-258765Y-1001728D01*
X-258219Y-1002820D01*
Y-1002857D01*
X-258146Y-1002966D01*
X-258110Y-1003148D01*
X-258001Y-1003366D01*
X-257928Y-1003658D01*
X-257819Y-1004022D01*
X-257673Y-1004422D01*
X-257564Y-1004859D01*
X-257455Y-1005332D01*
X-257309Y-1005878D01*
X-257127Y-1007006D01*
X-256982Y-1008280D01*
X-256909Y-1009591D01*
Y-1009627D01*
Y-1009773D01*
Y-1009991D01*
X-256945Y-1010246D01*
Y-1010610D01*
X-256982Y-1010974D01*
X-257018Y-1011447D01*
X-257091Y-1011920D01*
X-257273Y-1012976D01*
X-257528Y-1014141D01*
X-257892Y-1015306D01*
X-258401Y-1016434D01*
X-258438Y-1016470D01*
X-258474Y-1016580D01*
X-258547Y-1016725D01*
X-258692Y-1016907D01*
X-258838Y-1017162D01*
X-259020Y-1017453D01*
X-259493Y-1018108D01*
X-260112Y-1018836D01*
X-260840Y-1019564D01*
X-261677Y-1020292D01*
X-262660Y-1020911D01*
X-262696Y-1020948D01*
X-262806Y-1020984D01*
X-262951Y-1021057D01*
X-263133Y-1021166D01*
X-263424Y-1021275D01*
X-263716Y-1021384D01*
X-264080Y-1021530D01*
X-264480Y-1021676D01*
X-264917Y-1021821D01*
X-265390Y-1021967D01*
X-266409Y-1022185D01*
X-267574Y-1022367D01*
X-268775Y-1022440D01*
X-269139D01*
X-269394Y-1022404D01*
X-269722Y-1022367D01*
X-270122Y-1022331D01*
X-270522Y-1022294D01*
X-270996Y-1022185D01*
X-271978Y-1021967D01*
X-273070Y-1021639D01*
X-273616Y-1021421D01*
X-274126Y-1021166D01*
X-274636Y-1020838D01*
X-275145Y-1020511D01*
X-275182Y-1020474D01*
X-275254Y-1020438D01*
X-275400Y-1020329D01*
X-275582Y-1020147D01*
X-275764Y-1019965D01*
X-276019Y-1019710D01*
X-276274Y-1019419D01*
X-276565Y-1019128D01*
X-276856Y-1018764D01*
X-277147Y-1018327D01*
X-277475Y-1017890D01*
X-277766Y-1017417D01*
X-278021Y-1016871D01*
X-278312Y-1016325D01*
X-278530Y-1015742D01*
X-278749Y-1015087D01*
X-275473Y-1014323D01*
Y-1014359D01*
X-275436Y-1014432D01*
X-275364Y-1014578D01*
X-275291Y-1014760D01*
X-275218Y-1014978D01*
X-275109Y-1015269D01*
X-274818Y-1015852D01*
X-274454Y-1016507D01*
X-274017Y-1017162D01*
X-273471Y-1017781D01*
X-272888Y-1018327D01*
X-272816Y-1018400D01*
X-272597Y-1018545D01*
X-272233Y-1018727D01*
X-271760Y-1018982D01*
X-271141Y-1019200D01*
X-270450Y-1019419D01*
X-269612Y-1019564D01*
X-268702Y-1019601D01*
X-268411D01*
X-268229Y-1019564D01*
X-267974D01*
X-267683Y-1019528D01*
X-266992Y-1019419D01*
X-266227Y-1019273D01*
X-265426Y-1019018D01*
X-264589Y-1018654D01*
X-263825Y-1018181D01*
X-263788D01*
X-263752Y-1018108D01*
X-263497Y-1017926D01*
X-263170Y-1017635D01*
X-262769Y-1017198D01*
X-262296Y-1016652D01*
X-261859Y-1016034D01*
X-261459Y-1015269D01*
X-261095Y-1014432D01*
Y-1014396D01*
X-261058Y-1014323D01*
X-261022Y-1014214D01*
X-260986Y-1014032D01*
X-260913Y-1013813D01*
X-260840Y-1013558D01*
X-260731Y-1012940D01*
X-260585Y-1012212D01*
X-260440Y-1011411D01*
X-260367Y-1010537D01*
X-260330Y-1009591D01*
Y-1009554D01*
Y-1009445D01*
Y-1009263D01*
Y-1009045D01*
X-260367Y-1008790D01*
Y-1008462D01*
X-260403Y-1008098D01*
X-260440Y-1007698D01*
X-260549Y-1006824D01*
X-260731Y-1005878D01*
X-260949Y-1004932D01*
X-261240Y-1003985D01*
Y-1003949D01*
X-261277Y-1003876D01*
X-261350Y-1003767D01*
X-261422Y-1003585D01*
X-261641Y-1003148D01*
X-261968Y-1002638D01*
X-262369Y-1002056D01*
X-262878Y-1001437D01*
X-263461Y-1000891D01*
X-264152Y-1000382D01*
X-264189D01*
X-264262Y-1000345D01*
X-264371Y-1000272D01*
X-264516Y-1000200D01*
X-264698Y-1000127D01*
X-264917Y-1000018D01*
X-265426Y-999799D01*
X-266082Y-999581D01*
X-266810Y-999399D01*
X-267610Y-999253D01*
X-268448Y-999217D01*
X-268702D01*
X-268921Y-999253D01*
X-269176D01*
X-269430Y-999290D01*
X-270086Y-999435D01*
X-270850Y-999617D01*
X-271614Y-999908D01*
X-272415Y-1000309D01*
X-272816Y-1000527D01*
X-273180Y-1000818D01*
X-273216Y-1000855D01*
X-273252Y-1000891D01*
X-273362Y-1001000D01*
X-273507Y-1001110D01*
X-273653Y-1001292D01*
X-273835Y-1001510D01*
X-274053Y-1001728D01*
X-274235Y-1002020D01*
X-274454Y-1002347D01*
X-274708Y-1002711D01*
X-274927Y-1003075D01*
X-275145Y-1003512D01*
X-275327Y-1003985D01*
X-275509Y-1004495D01*
X-275691Y-1005041D01*
X-275837Y-1005623D01*
X-279186Y-1004786D01*
Y-1004750D01*
X-279149Y-1004604D01*
X-279076Y-1004386D01*
X-278967Y-1004094D01*
X-278858Y-1003767D01*
X-278712Y-1003366D01*
X-278530Y-1002930D01*
X-278312Y-1002456D01*
X-277802Y-1001437D01*
X-277147Y-1000418D01*
X-276747Y-999908D01*
X-276346Y-999399D01*
X-275910Y-998962D01*
X-275400Y-998525D01*
X-275364Y-998489D01*
X-275291Y-998416D01*
X-275109Y-998343D01*
X-274927Y-998198D01*
X-274636Y-998016D01*
X-274344Y-997834D01*
X-273944Y-997652D01*
X-273544Y-997470D01*
X-273070Y-997251D01*
X-272561Y-997069D01*
X-272015Y-996887D01*
X-271432Y-996705D01*
X-270814Y-996560D01*
X-270158Y-996487D01*
X-269467Y-996414D01*
X-268739Y-996378D01*
X-268338D01*
X-268047Y-996414D01*
D02*
G37*
G36*
X-823362D02*
X-823035D01*
X-822634Y-996450D01*
X-822197Y-996523D01*
X-821688Y-996596D01*
X-820632Y-996778D01*
X-819540Y-997069D01*
X-818448Y-997470D01*
X-817939Y-997724D01*
X-817429Y-998016D01*
X-817393Y-998052D01*
X-817320Y-998088D01*
X-817174Y-998198D01*
X-817029Y-998343D01*
X-816810Y-998489D01*
X-816555Y-998707D01*
X-816264Y-998962D01*
X-815973Y-999253D01*
X-815682Y-999581D01*
X-815354Y-999908D01*
X-814699Y-1000746D01*
X-814080Y-1001728D01*
X-813534Y-1002820D01*
Y-1002857D01*
X-813461Y-1002966D01*
X-813425Y-1003148D01*
X-813316Y-1003366D01*
X-813243Y-1003658D01*
X-813134Y-1004022D01*
X-812988Y-1004422D01*
X-812879Y-1004859D01*
X-812770Y-1005332D01*
X-812624Y-1005878D01*
X-812442Y-1007006D01*
X-812297Y-1008280D01*
X-812224Y-1009591D01*
Y-1009627D01*
Y-1009773D01*
Y-1009991D01*
X-812260Y-1010246D01*
Y-1010610D01*
X-812297Y-1010974D01*
X-812333Y-1011447D01*
X-812406Y-1011920D01*
X-812588Y-1012976D01*
X-812843Y-1014141D01*
X-813207Y-1015306D01*
X-813716Y-1016434D01*
X-813753Y-1016470D01*
X-813789Y-1016580D01*
X-813862Y-1016725D01*
X-814007Y-1016907D01*
X-814153Y-1017162D01*
X-814335Y-1017453D01*
X-814808Y-1018108D01*
X-815427Y-1018836D01*
X-816155Y-1019564D01*
X-816992Y-1020292D01*
X-817975Y-1020911D01*
X-818011Y-1020948D01*
X-818121Y-1020984D01*
X-818266Y-1021057D01*
X-818448Y-1021166D01*
X-818739Y-1021275D01*
X-819031Y-1021384D01*
X-819395Y-1021530D01*
X-819795Y-1021676D01*
X-820232Y-1021821D01*
X-820705Y-1021967D01*
X-821724Y-1022185D01*
X-822889Y-1022367D01*
X-824090Y-1022440D01*
X-824454D01*
X-824709Y-1022404D01*
X-825037Y-1022367D01*
X-825437Y-1022331D01*
X-825837Y-1022294D01*
X-826311Y-1022185D01*
X-827293Y-1021967D01*
X-828385Y-1021639D01*
X-828931Y-1021421D01*
X-829441Y-1021166D01*
X-829951Y-1020838D01*
X-830460Y-1020511D01*
X-830497Y-1020474D01*
X-830569Y-1020438D01*
X-830715Y-1020329D01*
X-830897Y-1020147D01*
X-831079Y-1019965D01*
X-831334Y-1019710D01*
X-831589Y-1019419D01*
X-831880Y-1019128D01*
X-832171Y-1018764D01*
X-832462Y-1018327D01*
X-832790Y-1017890D01*
X-833081Y-1017417D01*
X-833336Y-1016871D01*
X-833627Y-1016325D01*
X-833845Y-1015742D01*
X-834064Y-1015087D01*
X-830788Y-1014323D01*
Y-1014359D01*
X-830751Y-1014432D01*
X-830679Y-1014578D01*
X-830606Y-1014760D01*
X-830533Y-1014978D01*
X-830424Y-1015269D01*
X-830133Y-1015852D01*
X-829769Y-1016507D01*
X-829332Y-1017162D01*
X-828786Y-1017781D01*
X-828203Y-1018327D01*
X-828131Y-1018400D01*
X-827912Y-1018545D01*
X-827548Y-1018727D01*
X-827075Y-1018982D01*
X-826456Y-1019200D01*
X-825765Y-1019419D01*
X-824927Y-1019564D01*
X-824017Y-1019601D01*
X-823726D01*
X-823544Y-1019564D01*
X-823289D01*
X-822998Y-1019528D01*
X-822307Y-1019419D01*
X-821542Y-1019273D01*
X-820741Y-1019018D01*
X-819904Y-1018654D01*
X-819140Y-1018181D01*
X-819103D01*
X-819067Y-1018108D01*
X-818812Y-1017926D01*
X-818485Y-1017635D01*
X-818084Y-1017198D01*
X-817611Y-1016652D01*
X-817174Y-1016034D01*
X-816774Y-1015269D01*
X-816410Y-1014432D01*
Y-1014396D01*
X-816373Y-1014323D01*
X-816337Y-1014214D01*
X-816301Y-1014032D01*
X-816228Y-1013813D01*
X-816155Y-1013558D01*
X-816046Y-1012940D01*
X-815900Y-1012212D01*
X-815755Y-1011411D01*
X-815682Y-1010537D01*
X-815645Y-1009591D01*
Y-1009554D01*
Y-1009445D01*
Y-1009263D01*
Y-1009045D01*
X-815682Y-1008790D01*
Y-1008462D01*
X-815718Y-1008098D01*
X-815755Y-1007698D01*
X-815864Y-1006824D01*
X-816046Y-1005878D01*
X-816264Y-1004932D01*
X-816555Y-1003985D01*
Y-1003949D01*
X-816592Y-1003876D01*
X-816665Y-1003767D01*
X-816737Y-1003585D01*
X-816956Y-1003148D01*
X-817283Y-1002638D01*
X-817684Y-1002056D01*
X-818193Y-1001437D01*
X-818776Y-1000891D01*
X-819467Y-1000382D01*
X-819504D01*
X-819577Y-1000345D01*
X-819686Y-1000272D01*
X-819831Y-1000200D01*
X-820013Y-1000127D01*
X-820232Y-1000018D01*
X-820741Y-999799D01*
X-821397Y-999581D01*
X-822125Y-999399D01*
X-822925Y-999253D01*
X-823763Y-999217D01*
X-824017D01*
X-824236Y-999253D01*
X-824491D01*
X-824745Y-999290D01*
X-825401Y-999435D01*
X-826165Y-999617D01*
X-826929Y-999908D01*
X-827730Y-1000309D01*
X-828131Y-1000527D01*
X-828495Y-1000818D01*
X-828531Y-1000855D01*
X-828567Y-1000891D01*
X-828677Y-1001000D01*
X-828822Y-1001110D01*
X-828968Y-1001292D01*
X-829150Y-1001510D01*
X-829368Y-1001728D01*
X-829550Y-1002020D01*
X-829769Y-1002347D01*
X-830023Y-1002711D01*
X-830242Y-1003075D01*
X-830460Y-1003512D01*
X-830642Y-1003985D01*
X-830824Y-1004495D01*
X-831006Y-1005041D01*
X-831152Y-1005623D01*
X-834501Y-1004786D01*
Y-1004750D01*
X-834464Y-1004604D01*
X-834391Y-1004386D01*
X-834282Y-1004094D01*
X-834173Y-1003767D01*
X-834027Y-1003366D01*
X-833845Y-1002930D01*
X-833627Y-1002456D01*
X-833117Y-1001437D01*
X-832462Y-1000418D01*
X-832062Y-999908D01*
X-831661Y-999399D01*
X-831225Y-998962D01*
X-830715Y-998525D01*
X-830679Y-998489D01*
X-830606Y-998416D01*
X-830424Y-998343D01*
X-830242Y-998198D01*
X-829951Y-998016D01*
X-829659Y-997834D01*
X-829259Y-997652D01*
X-828859Y-997470D01*
X-828385Y-997251D01*
X-827876Y-997069D01*
X-827330Y-996887D01*
X-826747Y-996705D01*
X-826129Y-996560D01*
X-825473Y-996487D01*
X-824782Y-996414D01*
X-824054Y-996378D01*
X-823653D01*
X-823362Y-996414D01*
D02*
G37*
G36*
X820051Y-1016507D02*
X820088Y-1016470D01*
X820270Y-1016325D01*
X820488Y-1016106D01*
X820852Y-1015852D01*
X821252Y-1015524D01*
X821762Y-1015160D01*
X822344Y-1014760D01*
X823000Y-1014359D01*
X823036D01*
X823072Y-1014323D01*
X823291Y-1014177D01*
X823655Y-1013995D01*
X824092Y-1013777D01*
X824601Y-1013522D01*
X825147Y-1013267D01*
X825693Y-1013012D01*
X826239Y-1012794D01*
Y-1015779D01*
X826203D01*
X826130Y-1015852D01*
X825984Y-1015888D01*
X825802Y-1015997D01*
X825584Y-1016106D01*
X825329Y-1016252D01*
X824710Y-1016616D01*
X823982Y-1017016D01*
X823254Y-1017526D01*
X822490Y-1018108D01*
X821726Y-1018727D01*
X821689Y-1018764D01*
X821653Y-1018800D01*
X821544Y-1018909D01*
X821398Y-1019018D01*
X821070Y-1019382D01*
X820634Y-1019819D01*
X820197Y-1020329D01*
X819724Y-1020911D01*
X819323Y-1021494D01*
X818959Y-1022112D01*
X816957D01*
Y-996814D01*
X820051D01*
Y-1016507D01*
D02*
G37*
G36*
X264736D02*
X264773Y-1016470D01*
X264955Y-1016325D01*
X265173Y-1016106D01*
X265537Y-1015852D01*
X265937Y-1015524D01*
X266447Y-1015160D01*
X267029Y-1014760D01*
X267685Y-1014359D01*
X267721D01*
X267757Y-1014323D01*
X267976Y-1014177D01*
X268340Y-1013995D01*
X268777Y-1013777D01*
X269286Y-1013522D01*
X269832Y-1013267D01*
X270378Y-1013012D01*
X270924Y-1012794D01*
Y-1015779D01*
X270888D01*
X270815Y-1015852D01*
X270669Y-1015888D01*
X270487Y-1015997D01*
X270269Y-1016106D01*
X270014Y-1016252D01*
X269395Y-1016616D01*
X268667Y-1017016D01*
X267939Y-1017526D01*
X267175Y-1018108D01*
X266411Y-1018727D01*
X266374Y-1018764D01*
X266338Y-1018800D01*
X266229Y-1018909D01*
X266083Y-1019018D01*
X265755Y-1019382D01*
X265319Y-1019819D01*
X264882Y-1020329D01*
X264409Y-1020911D01*
X264008Y-1021494D01*
X263644Y-1022112D01*
X261642D01*
Y-996814D01*
X264736D01*
Y-1016507D01*
D02*
G37*
G36*
X-290579D02*
X-290542Y-1016470D01*
X-290360Y-1016325D01*
X-290142Y-1016106D01*
X-289778Y-1015852D01*
X-289378Y-1015524D01*
X-288868Y-1015160D01*
X-288286Y-1014760D01*
X-287630Y-1014359D01*
X-287594D01*
X-287558Y-1014323D01*
X-287339Y-1014177D01*
X-286975Y-1013995D01*
X-286538Y-1013777D01*
X-286029Y-1013522D01*
X-285483Y-1013267D01*
X-284937Y-1013012D01*
X-284391Y-1012794D01*
Y-1015779D01*
X-284427D01*
X-284500Y-1015852D01*
X-284646Y-1015888D01*
X-284828Y-1015997D01*
X-285046Y-1016106D01*
X-285301Y-1016252D01*
X-285920Y-1016616D01*
X-286648Y-1017016D01*
X-287376Y-1017526D01*
X-288140Y-1018108D01*
X-288904Y-1018727D01*
X-288941Y-1018764D01*
X-288977Y-1018800D01*
X-289086Y-1018909D01*
X-289232Y-1019018D01*
X-289560Y-1019382D01*
X-289996Y-1019819D01*
X-290433Y-1020329D01*
X-290906Y-1020911D01*
X-291307Y-1021494D01*
X-291671Y-1022112D01*
X-293673D01*
Y-996814D01*
X-290579D01*
Y-1016507D01*
D02*
G37*
G36*
X-845894D02*
X-845857Y-1016470D01*
X-845675Y-1016325D01*
X-845457Y-1016106D01*
X-845093Y-1015852D01*
X-844693Y-1015524D01*
X-844183Y-1015160D01*
X-843601Y-1014760D01*
X-842945Y-1014359D01*
X-842909D01*
X-842873Y-1014323D01*
X-842654Y-1014177D01*
X-842290Y-1013995D01*
X-841853Y-1013777D01*
X-841344Y-1013522D01*
X-840798Y-1013267D01*
X-840252Y-1013012D01*
X-839706Y-1012794D01*
Y-1015779D01*
X-839742D01*
X-839815Y-1015852D01*
X-839961Y-1015888D01*
X-840143Y-1015997D01*
X-840361Y-1016106D01*
X-840616Y-1016252D01*
X-841235Y-1016616D01*
X-841963Y-1017016D01*
X-842691Y-1017526D01*
X-843455Y-1018108D01*
X-844219Y-1018727D01*
X-844256Y-1018764D01*
X-844292Y-1018800D01*
X-844401Y-1018909D01*
X-844547Y-1019018D01*
X-844875Y-1019382D01*
X-845311Y-1019819D01*
X-845748Y-1020329D01*
X-846221Y-1020911D01*
X-846622Y-1021494D01*
X-846986Y-1022112D01*
X-848988D01*
Y-996814D01*
X-845894D01*
Y-1016507D01*
D02*
G37*
D22*
X-898346Y-1037224D02*
Y-975216D01*
X-862913D01*
Y-1037224D02*
Y-975216D01*
X-898346Y-1037224D02*
X-862913D01*
X-843228Y-1014094D02*
X-781220D01*
X-843228D02*
Y-978661D01*
X-781220D01*
Y-1014094D02*
Y-978661D01*
X-343031Y-1037224D02*
Y-975216D01*
X-307598D01*
Y-1037224D02*
Y-975216D01*
X-343031Y-1037224D02*
X-307598D01*
X-287913Y-1014094D02*
X-225905D01*
X-287913D02*
Y-978661D01*
X-225905D01*
Y-1014094D02*
Y-978661D01*
X212284Y-1037224D02*
Y-975216D01*
X247717D01*
Y-1037224D02*
Y-975216D01*
X212284Y-1037224D02*
X247717D01*
X267402Y-1014094D02*
X329410D01*
X267402D02*
Y-978661D01*
X329410D01*
Y-1014094D02*
Y-978661D01*
X767599Y-1037224D02*
Y-975216D01*
X803032D01*
Y-1037224D02*
Y-975216D01*
X767599Y-1037224D02*
X803032D01*
X822717Y-1014094D02*
X884725D01*
X822717D02*
Y-978661D01*
X884725D01*
Y-1014094D02*
Y-978661D01*
X-898346Y-52972D02*
Y9036D01*
X-862913D01*
Y-52972D02*
Y9036D01*
X-898346Y-52972D02*
X-862913D01*
X-843228Y-29842D02*
X-781220D01*
X-843228D02*
Y5591D01*
X-781220D01*
Y-29842D02*
Y5591D01*
X-343031Y-52972D02*
Y9036D01*
X-307598D01*
Y-52972D02*
Y9036D01*
X-343031Y-52972D02*
X-307598D01*
X-287913Y-29842D02*
X-225905D01*
X-287913D02*
Y5591D01*
X-225905D01*
Y-29842D02*
Y5591D01*
X212284Y-52972D02*
Y9036D01*
X247717D01*
Y-52972D02*
Y9036D01*
X212284Y-52972D02*
X247717D01*
X267402Y-29842D02*
X329410D01*
X267402D02*
Y5591D01*
X329410D01*
Y-29842D02*
Y5591D01*
X767599Y-52972D02*
Y9036D01*
X803032D01*
Y-52972D02*
Y9036D01*
X767599Y-52972D02*
X803032D01*
X822717Y-29842D02*
X884725D01*
X822717D02*
Y5591D01*
X884725D01*
Y-29842D02*
Y5591D01*
X-898346Y931280D02*
Y993288D01*
X-862913D01*
Y931280D02*
Y993288D01*
X-898346Y931280D02*
X-862913D01*
X-843228Y954410D02*
X-781220D01*
X-843228D02*
Y989843D01*
X-781220D01*
Y954410D02*
Y989843D01*
X-343031Y931280D02*
Y993288D01*
X-307598D01*
Y931280D02*
Y993288D01*
X-343031Y931280D02*
X-307598D01*
X-287913Y954410D02*
X-225905D01*
X-287913D02*
Y989843D01*
X-225905D01*
Y954410D02*
Y989843D01*
X212284Y931280D02*
Y993288D01*
X247717D01*
Y931280D02*
Y993288D01*
X212284Y931280D02*
X247717D01*
X267402Y954410D02*
X329410D01*
X267402D02*
Y989843D01*
X329410D01*
Y954410D02*
Y989843D01*
X767599Y931280D02*
Y993288D01*
X803032D01*
Y931280D02*
Y993288D01*
X767599Y931280D02*
X803032D01*
X822717Y954410D02*
X884725D01*
X822717D02*
Y989843D01*
X884725D01*
Y954410D02*
Y989843D01*
%TF.MD5,be34952443c008bf07bf23800be81d03*%
M02*
