%TF.GenerationSoftware,Altium Limited,Altium Designer,22.0.2 (36)*%
G04 Layer_Color=32768*
%FSLAX26Y26*%
%MOIN*%
%TF.SameCoordinates,7C2B3453-B62B-4687-BB94-77A5B7653B1A*%
%TF.FilePolarity,Positive*%
%TF.FileFunction,Other,Mechanical_15*%
%TF.Part,CustomerPanel*%
G01*
G75*
%TA.AperFunction,NonConductor*%
%ADD22C,0.007874*%
D22*
X-898346Y-1037224D02*
Y-975216D01*
X-862913D01*
Y-1037224D02*
Y-975216D01*
X-898346Y-1037224D02*
X-862913D01*
X-843228Y-1014094D02*
X-781220D01*
X-843228D02*
Y-978661D01*
X-781220D01*
Y-1014094D02*
Y-978661D01*
X-343031Y-1037224D02*
Y-975216D01*
X-307598D01*
Y-1037224D02*
Y-975216D01*
X-343031Y-1037224D02*
X-307598D01*
X-287913Y-1014094D02*
X-225905D01*
X-287913D02*
Y-978661D01*
X-225905D01*
Y-1014094D02*
Y-978661D01*
X212284Y-1037224D02*
Y-975216D01*
X247717D01*
Y-1037224D02*
Y-975216D01*
X212284Y-1037224D02*
X247717D01*
X267402Y-1014094D02*
X329410D01*
X267402D02*
Y-978661D01*
X329410D01*
Y-1014094D02*
Y-978661D01*
X767599Y-1037224D02*
Y-975216D01*
X803032D01*
Y-1037224D02*
Y-975216D01*
X767599Y-1037224D02*
X803032D01*
X822717Y-1014094D02*
X884725D01*
X822717D02*
Y-978661D01*
X884725D01*
Y-1014094D02*
Y-978661D01*
X-898346Y-52972D02*
Y9036D01*
X-862913D01*
Y-52972D02*
Y9036D01*
X-898346Y-52972D02*
X-862913D01*
X-843228Y-29842D02*
X-781220D01*
X-843228D02*
Y5591D01*
X-781220D01*
Y-29842D02*
Y5591D01*
X-343031Y-52972D02*
Y9036D01*
X-307598D01*
Y-52972D02*
Y9036D01*
X-343031Y-52972D02*
X-307598D01*
X-287913Y-29842D02*
X-225905D01*
X-287913D02*
Y5591D01*
X-225905D01*
Y-29842D02*
Y5591D01*
X212284Y-52972D02*
Y9036D01*
X247717D01*
Y-52972D02*
Y9036D01*
X212284Y-52972D02*
X247717D01*
X267402Y-29842D02*
X329410D01*
X267402D02*
Y5591D01*
X329410D01*
Y-29842D02*
Y5591D01*
X767599Y-52972D02*
Y9036D01*
X803032D01*
Y-52972D02*
Y9036D01*
X767599Y-52972D02*
X803032D01*
X822717Y-29842D02*
X884725D01*
X822717D02*
Y5591D01*
X884725D01*
Y-29842D02*
Y5591D01*
X-898346Y931280D02*
Y993288D01*
X-862913D01*
Y931280D02*
Y993288D01*
X-898346Y931280D02*
X-862913D01*
X-843228Y954410D02*
X-781220D01*
X-843228D02*
Y989843D01*
X-781220D01*
Y954410D02*
Y989843D01*
X-343031Y931280D02*
Y993288D01*
X-307598D01*
Y931280D02*
Y993288D01*
X-343031Y931280D02*
X-307598D01*
X-287913Y954410D02*
X-225905D01*
X-287913D02*
Y989843D01*
X-225905D01*
Y954410D02*
Y989843D01*
X212284Y931280D02*
Y993288D01*
X247717D01*
Y931280D02*
Y993288D01*
X212284Y931280D02*
X247717D01*
X267402Y954410D02*
X329410D01*
X267402D02*
Y989843D01*
X329410D01*
Y954410D02*
Y989843D01*
X767599Y931280D02*
Y993288D01*
X803032D01*
Y931280D02*
Y993288D01*
X767599Y931280D02*
X803032D01*
X822717Y954410D02*
X884725D01*
X822717D02*
Y989843D01*
X884725D01*
Y954410D02*
Y989843D01*
%TF.MD5,f03b9432cbe781e82e35ecbc01a2313c*%
M02*
