%TF.GenerationSoftware,Altium Limited,Altium Designer,22.0.2 (36)*%
G04 Layer_Color=65535*
%FSLAX26Y26*%
%MOIN*%
%TF.SameCoordinates,7C2B3453-B62B-4687-BB94-77A5B7653B1A*%
%TF.FilePolarity,Positive*%
%TF.FileFunction,Legend,Top*%
%TF.Part,CustomerPanel*%
G01*
G75*
%TA.AperFunction,NonConductor*%
%ADD22C,0.007874*%
%ADD24C,0.010000*%
%ADD25C,0.009842*%
D22*
X-856024Y-1029842D02*
Y-982598D01*
X-905236Y-1029842D02*
Y-982598D01*
X-835846Y-971772D02*
X-788602D01*
X-835846Y-1020984D02*
X-788602D01*
X-300709Y-1029842D02*
Y-982598D01*
X-349921Y-1029842D02*
Y-982598D01*
X-280531Y-971772D02*
X-233287D01*
X-280531Y-1020984D02*
X-233287D01*
X254606Y-1029842D02*
Y-982598D01*
X205394Y-1029842D02*
Y-982598D01*
X274784Y-971772D02*
X322028D01*
X274784Y-1020984D02*
X322028D01*
X809921Y-1029842D02*
Y-982598D01*
X760709Y-1029842D02*
Y-982598D01*
X830099Y-971772D02*
X877343D01*
X830099Y-1020984D02*
X877343D01*
X-856024Y-45590D02*
Y1654D01*
X-905236Y-45590D02*
Y1654D01*
X-835846Y12480D02*
X-788602D01*
X-835846Y-36732D02*
X-788602D01*
X-300709Y-45590D02*
Y1654D01*
X-349921Y-45590D02*
Y1654D01*
X-280531Y12480D02*
X-233287D01*
X-280531Y-36732D02*
X-233287D01*
X254606Y-45590D02*
Y1654D01*
X205394Y-45590D02*
Y1654D01*
X274784Y12480D02*
X322028D01*
X274784Y-36732D02*
X322028D01*
X809921Y-45590D02*
Y1654D01*
X760709Y-45590D02*
Y1654D01*
X830099Y12480D02*
X877343D01*
X830099Y-36732D02*
X877343D01*
X-856024Y938662D02*
Y985906D01*
X-905236Y938662D02*
Y985906D01*
X-835846Y996732D02*
X-788602D01*
X-835846Y947520D02*
X-788602D01*
X-300709Y938662D02*
Y985906D01*
X-349921Y938662D02*
Y985906D01*
X-280531Y996732D02*
X-233287D01*
X-280531Y947520D02*
X-233287D01*
X254606Y938662D02*
Y985906D01*
X205394Y938662D02*
Y985906D01*
X274784Y996732D02*
X322028D01*
X274784Y947520D02*
X322028D01*
X809921Y938662D02*
Y985906D01*
X760709Y938662D02*
Y985906D01*
X830099Y996732D02*
X877343D01*
X830099Y947520D02*
X877343D01*
D24*
X-785157Y-1128268D02*
Y-1088898D01*
X-844213Y-1128268D02*
X-785157D01*
X-844213D02*
Y-1088898D01*
X-785157D01*
X-229842Y-1128268D02*
Y-1088898D01*
X-288898Y-1128268D02*
X-229842D01*
X-288898D02*
Y-1088898D01*
X-229842D01*
X325473Y-1128268D02*
Y-1088898D01*
X266417Y-1128268D02*
X325473D01*
X266417D02*
Y-1088898D01*
X325473D01*
X880788Y-1128268D02*
Y-1088898D01*
X821732Y-1128268D02*
X880788D01*
X821732D02*
Y-1088898D01*
X880788D01*
X-785157Y-144016D02*
Y-104646D01*
X-844213Y-144016D02*
X-785157D01*
X-844213D02*
Y-104646D01*
X-785157D01*
X-229842Y-144016D02*
Y-104646D01*
X-288898Y-144016D02*
X-229842D01*
X-288898D02*
Y-104646D01*
X-229842D01*
X325473Y-144016D02*
Y-104646D01*
X266417Y-144016D02*
X325473D01*
X266417D02*
Y-104646D01*
X325473D01*
X880788Y-144016D02*
Y-104646D01*
X821732Y-144016D02*
X880788D01*
X821732D02*
Y-104646D01*
X880788D01*
X-785157Y840236D02*
Y879606D01*
X-844213Y840236D02*
X-785157D01*
X-844213D02*
Y879606D01*
X-785157D01*
X-229842Y840236D02*
Y879606D01*
X-288898Y840236D02*
X-229842D01*
X-288898D02*
Y879606D01*
X-229842D01*
X325473Y840236D02*
Y879606D01*
X266417Y840236D02*
X325473D01*
X266417D02*
Y879606D01*
X325473D01*
X880788Y840236D02*
Y879606D01*
X821732Y840236D02*
X880788D01*
X821732D02*
Y879606D01*
X880788D01*
D25*
X-902323Y-804173D02*
X-775945D01*
X-902323Y-962047D02*
Y-804173D01*
Y-962047D02*
X-775945D01*
Y-804173D01*
X-347008D02*
X-220630D01*
X-347008Y-962047D02*
Y-804173D01*
Y-962047D02*
X-220630D01*
Y-804173D01*
X208307D02*
X334685D01*
X208307Y-962047D02*
Y-804173D01*
Y-962047D02*
X334685D01*
Y-804173D01*
X763622D02*
X890000D01*
X763622Y-962047D02*
Y-804173D01*
Y-962047D02*
X890000D01*
Y-804173D01*
X-902323Y180079D02*
X-775945D01*
X-902323Y22205D02*
Y180079D01*
Y22205D02*
X-775945D01*
Y180079D01*
X-347008D02*
X-220630D01*
X-347008Y22205D02*
Y180079D01*
Y22205D02*
X-220630D01*
Y180079D01*
X208307D02*
X334685D01*
X208307Y22205D02*
Y180079D01*
Y22205D02*
X334685D01*
Y180079D01*
X763622D02*
X890000D01*
X763622Y22205D02*
Y180079D01*
Y22205D02*
X890000D01*
Y180079D01*
X-902323Y1164331D02*
X-775945D01*
X-902323Y1006457D02*
Y1164331D01*
Y1006457D02*
X-775945D01*
Y1164331D01*
X-347008D02*
X-220630D01*
X-347008Y1006457D02*
Y1164331D01*
Y1006457D02*
X-220630D01*
Y1164331D01*
X208307D02*
X334685D01*
X208307Y1006457D02*
Y1164331D01*
Y1006457D02*
X334685D01*
Y1164331D01*
X763622D02*
X890000D01*
X763622Y1006457D02*
Y1164331D01*
Y1006457D02*
X890000D01*
Y1164331D01*
%TF.MD5,de5c81ee20d332a43b9b0a976c43622d*%
M02*
