%TF.GenerationSoftware,Altium Limited,Altium Designer,22.0.2 (36)*%
G04 Layer_Color=16711935*
%FSLAX26Y26*%
%MOIN*%
%TF.SameCoordinates,7C2B3453-B62B-4687-BB94-77A5B7653B1A*%
%TF.FilePolarity,Positive*%
%TF.FileFunction,Other,Mechanical_1*%
%TF.Part,CustomerPanel*%
G01*
G75*
%TA.AperFunction,NonConductor*%
%ADD24C,0.010000*%
D24*
X-2140000Y-2119035D02*
X2216361Y-2146753D01*
X-2140000Y2033606D02*
X2226357Y2038217D01*
X2216361Y-2146753D02*
X2226357Y2038217D01*
X-2140000Y2033606D02*
X-2140000Y-2119035D01*
X-758386Y-1145000D02*
Y-790591D01*
X-920000Y-1145000D02*
X-758386D01*
X-920000Y-790591D02*
X-758386D01*
X-920000Y-1145000D02*
Y-790591D01*
X-203071Y-1145000D02*
Y-790591D01*
X-364685Y-1145000D02*
X-203071D01*
X-364685Y-790591D02*
X-203071D01*
X-364685Y-1145000D02*
Y-790591D01*
X352244Y-1145000D02*
Y-790591D01*
X190630Y-1145000D02*
X352244D01*
X190630Y-790591D02*
X352244D01*
X190630Y-1145000D02*
Y-790591D01*
X907559Y-1145000D02*
Y-790591D01*
X745945Y-1145000D02*
X907559D01*
X745945Y-790591D02*
X907559D01*
X745945Y-1145000D02*
Y-790591D01*
X-758386Y-160748D02*
Y193661D01*
X-920000Y-160748D02*
X-758386D01*
X-920000Y193661D02*
X-758386D01*
X-920000Y-160748D02*
Y193661D01*
X-203071Y-160748D02*
Y193661D01*
X-364685Y-160748D02*
X-203071D01*
X-364685Y193661D02*
X-203071D01*
X-364685Y-160748D02*
Y193661D01*
X352244Y-160748D02*
Y193661D01*
X190630Y-160748D02*
X352244D01*
X190630Y193661D02*
X352244D01*
X190630Y-160748D02*
Y193661D01*
X907559Y-160748D02*
Y193661D01*
X745945Y-160748D02*
X907559D01*
X745945Y193661D02*
X907559D01*
X745945Y-160748D02*
Y193661D01*
X-758386Y823504D02*
Y1177914D01*
X-920000Y823504D02*
X-758386D01*
X-920000Y1177914D02*
X-758386D01*
X-920000Y823504D02*
Y1177914D01*
X-203071Y823504D02*
Y1177914D01*
X-364685Y823504D02*
X-203071D01*
X-364685Y1177914D02*
X-203071D01*
X-364685Y823504D02*
Y1177914D01*
X352244Y823504D02*
Y1177914D01*
X190630Y823504D02*
X352244D01*
X190630Y1177914D02*
X352244D01*
X190630Y823504D02*
Y1177914D01*
X907559Y823504D02*
Y1177914D01*
X745945Y823504D02*
X907559D01*
X745945Y1177914D02*
X907559D01*
X745945Y823504D02*
Y1177914D01*
%TF.MD5,86c193261c1662184bb1be9562b82e6d*%
M02*
