%TF.GenerationSoftware,Altium Limited,Altium Designer,22.0.2 (36)*%
G04 Layer_Color=8388736*
%FSLAX26Y26*%
%MOIN*%
%TF.SameCoordinates,7C2B3453-B62B-4687-BB94-77A5B7653B1A*%
%TF.FilePolarity,Positive*%
%TF.FileFunction,Other,Route_Tool_Path*%
%TF.Part,CustomerPanel*%
G01*
G75*
%TA.AperFunction,NonConductor*%
%ADD35C,0.118110*%
D35*
X966615Y1177914D02*
G03*
X907559Y1236970I-59056J0D01*
G01*
X966615Y1177914D02*
G03*
X907559Y1236970I-59056J0D01*
G01*
X745945D02*
G03*
X686889Y1177914I0J-59056D01*
G01*
X745945Y1236970D02*
G03*
X686889Y1177914I0J-59056D01*
G01*
Y823504D02*
G03*
X745945Y764448I59056J0D01*
G01*
X907559D02*
G03*
X966615Y823504I0J59056D01*
G01*
X907559Y764448D02*
G03*
X966615Y823504I0J59056D01*
G01*
Y193661D02*
G03*
X907559Y252718I-59056J0D01*
G01*
X966615Y193661D02*
G03*
X907559Y252718I-59056J0D01*
G01*
X745945D02*
G03*
X686889Y193661I0J-59056D01*
G01*
Y823504D02*
G03*
X745945Y764448I59056J0D01*
G01*
Y252718D02*
G03*
X686889Y193661I0J-59056D01*
G01*
X411300Y1177914D02*
G03*
X352244Y1236970I-59056J0D01*
G01*
X411300Y1177914D02*
G03*
X352244Y1236970I-59056J0D01*
G01*
X190630D02*
G03*
X131574Y1177914I0J-59056D01*
G01*
X190630Y1236970D02*
G03*
X131574Y1177914I0J-59056D01*
G01*
Y823504D02*
G03*
X190630Y764448I59056J0D01*
G01*
X352244D02*
G03*
X411300Y823504I0J59056D01*
G01*
X352244Y764448D02*
G03*
X411300Y823504I0J59056D01*
G01*
Y193661D02*
G03*
X352244Y252718I-59056J0D01*
G01*
X411300Y193661D02*
G03*
X352244Y252718I-59056J0D01*
G01*
X131574Y823504D02*
G03*
X190630Y764448I59056J0D01*
G01*
Y252718D02*
G03*
X131574Y193661I0J-59056D01*
G01*
X190630Y252718D02*
G03*
X131574Y193661I0J-59056D01*
G01*
X907559Y-219804D02*
G03*
X966615Y-160748I0J59056D01*
G01*
Y-790591D02*
G03*
X907559Y-731534I-59056J0D01*
G01*
X966615Y-790591D02*
G03*
X907559Y-731534I-59056J0D01*
G01*
Y-219804D02*
G03*
X966615Y-160748I0J59056D01*
G01*
X686889D02*
G03*
X745945Y-219804I59056J0D01*
G01*
X686889Y-160748D02*
G03*
X745945Y-219804I59056J0D01*
G01*
Y-731534D02*
G03*
X686889Y-790591I0J-59056D01*
G01*
X745945Y-731534D02*
G03*
X686889Y-790591I0J-59056D01*
G01*
X907559Y-1204056D02*
G03*
X966615Y-1145000I0J59056D01*
G01*
X907559Y-1204056D02*
G03*
X966615Y-1145000I0J59056D01*
G01*
X686889D02*
G03*
X745945Y-1204056I59056J0D01*
G01*
X686889Y-1145000D02*
G03*
X745945Y-1204056I59056J0D01*
G01*
X352244Y-219804D02*
G03*
X411300Y-160748I0J59056D01*
G01*
Y-790591D02*
G03*
X352244Y-731534I-59056J0D01*
G01*
X411300Y-790591D02*
G03*
X352244Y-731534I-59056J0D01*
G01*
Y-219804D02*
G03*
X411300Y-160748I0J59056D01*
G01*
X131574D02*
G03*
X190630Y-219804I59056J0D01*
G01*
X131574Y-160748D02*
G03*
X190630Y-219804I59056J0D01*
G01*
Y-731534D02*
G03*
X131574Y-790591I0J-59056D01*
G01*
X190630Y-731534D02*
G03*
X131574Y-790591I0J-59056D01*
G01*
X352244Y-1204056D02*
G03*
X411300Y-1145000I0J59056D01*
G01*
X352244Y-1204056D02*
G03*
X411300Y-1145000I0J59056D01*
G01*
X131574D02*
G03*
X190630Y-1204056I59056J0D01*
G01*
X131574Y-1145000D02*
G03*
X190630Y-1204056I59056J0D01*
G01*
X-144015Y1177914D02*
G03*
X-203071Y1236970I-59056J0D01*
G01*
X-144015Y1177914D02*
G03*
X-203071Y1236970I-59056J0D01*
G01*
X-364685D02*
G03*
X-423741Y1177914I0J-59056D01*
G01*
X-364685Y1236970D02*
G03*
X-423741Y1177914I0J-59056D01*
G01*
Y823504D02*
G03*
X-364685Y764448I59056J0D01*
G01*
X-423741Y823504D02*
G03*
X-364685Y764448I59056J0D01*
G01*
X-144015Y193661D02*
G03*
X-203071Y252718I-59056J0D01*
G01*
X-144015Y193661D02*
G03*
X-203071Y252718I-59056J0D01*
G01*
Y764448D02*
G03*
X-144015Y823504I0J59056D01*
G01*
X-203071Y764448D02*
G03*
X-144015Y823504I0J59056D01*
G01*
X-364685Y252718D02*
G03*
X-423741Y193661I0J-59056D01*
G01*
X-364685Y252718D02*
G03*
X-423741Y193661I0J-59056D01*
G01*
X-699330Y1177914D02*
G03*
X-758386Y1236970I-59056J0D01*
G01*
X-699330Y1177914D02*
G03*
X-758386Y1236970I-59056J0D01*
G01*
X-920000D02*
G03*
X-979056Y1177914I0J-59056D01*
G01*
X-920000Y1236970D02*
G03*
X-979056Y1177914I0J-59056D01*
G01*
Y823504D02*
G03*
X-920000Y764448I59056J0D01*
G01*
X-758386D02*
G03*
X-699330Y823504I0J59056D01*
G01*
X-758386Y764448D02*
G03*
X-699330Y823504I0J59056D01*
G01*
Y193661D02*
G03*
X-758386Y252718I-59056J0D01*
G01*
X-699330Y193661D02*
G03*
X-758386Y252718I-59056J0D01*
G01*
X-979056Y823504D02*
G03*
X-920000Y764448I59056J0D01*
G01*
Y252718D02*
G03*
X-979056Y193661I0J-59056D01*
G01*
X-920000Y252718D02*
G03*
X-979056Y193661I0J-59056D01*
G01*
X-203071Y-219804D02*
G03*
X-144015Y-160748I0J59056D01*
G01*
X-203071Y-219804D02*
G03*
X-144015Y-160748I0J59056D01*
G01*
Y-790591D02*
G03*
X-203071Y-731534I-59056J0D01*
G01*
X-144015Y-790591D02*
G03*
X-203071Y-731534I-59056J0D01*
G01*
X-423741Y-160748D02*
G03*
X-364685Y-219804I59056J0D01*
G01*
X-758386D02*
G03*
X-699330Y-160748I0J59056D01*
G01*
X-423741D02*
G03*
X-364685Y-219804I59056J0D01*
G01*
Y-731534D02*
G03*
X-423741Y-790591I0J-59056D01*
G01*
X-364685Y-731534D02*
G03*
X-423741Y-790591I0J-59056D01*
G01*
X-203071Y-1204056D02*
G03*
X-144015Y-1145000I0J59056D01*
G01*
X-203071Y-1204056D02*
G03*
X-144015Y-1145000I0J59056D01*
G01*
X-423741D02*
G03*
X-364685Y-1204056I59056J0D01*
G01*
X-423741Y-1145000D02*
G03*
X-364685Y-1204056I59056J0D01*
G01*
X-699330Y-790591D02*
G03*
X-758386Y-731534I-59056J0D01*
G01*
X-699330Y-790591D02*
G03*
X-758386Y-731534I-59056J0D01*
G01*
Y-219804D02*
G03*
X-699330Y-160748I0J59056D01*
G01*
X-979056D02*
G03*
X-920000Y-219804I59056J0D01*
G01*
X-979056Y-160748D02*
G03*
X-920000Y-219804I59056J0D01*
G01*
Y-731534D02*
G03*
X-979056Y-790591I0J-59056D01*
G01*
X-920000Y-731534D02*
G03*
X-979056Y-790591I0J-59056D01*
G01*
X-758386Y-1204056D02*
G03*
X-699330Y-1145000I0J59056D01*
G01*
X-758386Y-1204056D02*
G03*
X-699330Y-1145000I0J59056D01*
G01*
X-979056D02*
G03*
X-920000Y-1204056I59056J0D01*
G01*
X-979056Y-1145000D02*
G03*
X-920000Y-1204056I59056J0D01*
G01*
X966615Y823504D02*
Y1177914D01*
Y-160748D02*
Y193661D01*
Y-1145000D02*
Y-790591D01*
X686889Y823504D02*
Y1177914D01*
Y-160748D02*
Y193661D01*
Y-1145000D02*
Y-790591D01*
X411300Y823504D02*
Y1177914D01*
Y-160748D02*
Y193661D01*
Y-1145000D02*
Y-790591D01*
X131574Y-160748D02*
Y193661D01*
Y823504D02*
Y1177914D01*
Y-1145000D02*
Y-790591D01*
X-144015Y823504D02*
Y1177914D01*
Y-160748D02*
Y193661D01*
Y-1145000D02*
Y-790591D01*
X-423741Y-160748D02*
Y193661D01*
Y823504D02*
Y1177914D01*
Y-1145000D02*
Y-790591D01*
X-699330Y823504D02*
Y1177914D01*
Y-160748D02*
Y193661D01*
Y-1145000D02*
Y-790591D01*
X-979056Y-160748D02*
Y193661D01*
Y823504D02*
Y1177914D01*
Y-1145000D02*
Y-790591D01*
%TF.MD5,3a4dab46fe297dbf4ce917a94e7c4178*%
M02*
