%TF.GenerationSoftware,Altium Limited,Altium Designer,22.0.2 (36)*%
G04 Layer_Color=16711935*
%FSLAX26Y26*%
%MOIN*%
%TF.SameCoordinates,7C2B3453-B62B-4687-BB94-77A5B7653B1A*%
%TF.FilePolarity,Positive*%
%TF.FileFunction,Other,Mechanical_13*%
%TF.Part,CustomerPanel*%
G01*
G75*
%TA.AperFunction,NonConductor*%
%ADD22C,0.007874*%
D22*
X-894409Y-1029842D02*
Y-982598D01*
X-866850D01*
Y-1029842D02*
Y-982598D01*
X-894409Y-1029842D02*
X-866850D01*
X-835846Y-1010157D02*
X-788602D01*
X-835846D02*
Y-982598D01*
X-788602D01*
Y-1010157D02*
Y-982598D01*
X-339094Y-1029842D02*
Y-982598D01*
X-311535D01*
Y-1029842D02*
Y-982598D01*
X-339094Y-1029842D02*
X-311535D01*
X-280531Y-1010157D02*
X-233287D01*
X-280531D02*
Y-982598D01*
X-233287D01*
Y-1010157D02*
Y-982598D01*
X216221Y-1029842D02*
Y-982598D01*
X243780D01*
Y-1029842D02*
Y-982598D01*
X216221Y-1029842D02*
X243780D01*
X274784Y-1010157D02*
X322028D01*
X274784D02*
Y-982598D01*
X322028D01*
Y-1010157D02*
Y-982598D01*
X771536Y-1029842D02*
Y-982598D01*
X799095D01*
Y-1029842D02*
Y-982598D01*
X771536Y-1029842D02*
X799095D01*
X830099Y-1010157D02*
X877343D01*
X830099D02*
Y-982598D01*
X877343D01*
Y-1010157D02*
Y-982598D01*
X-894409Y-45590D02*
Y1654D01*
X-866850D01*
Y-45590D02*
Y1654D01*
X-894409Y-45590D02*
X-866850D01*
X-835846Y-25905D02*
X-788602D01*
X-835846D02*
Y1654D01*
X-788602D01*
Y-25905D02*
Y1654D01*
X-339094Y-45590D02*
Y1654D01*
X-311535D01*
Y-45590D02*
Y1654D01*
X-339094Y-45590D02*
X-311535D01*
X-280531Y-25905D02*
X-233287D01*
X-280531D02*
Y1654D01*
X-233287D01*
Y-25905D02*
Y1654D01*
X216221Y-45590D02*
Y1654D01*
X243780D01*
Y-45590D02*
Y1654D01*
X216221Y-45590D02*
X243780D01*
X274784Y-25905D02*
X322028D01*
X274784D02*
Y1654D01*
X322028D01*
Y-25905D02*
Y1654D01*
X771536Y-45590D02*
Y1654D01*
X799095D01*
Y-45590D02*
Y1654D01*
X771536Y-45590D02*
X799095D01*
X830099Y-25905D02*
X877343D01*
X830099D02*
Y1654D01*
X877343D01*
Y-25905D02*
Y1654D01*
X-894409Y938662D02*
Y985906D01*
X-866850D01*
Y938662D02*
Y985906D01*
X-894409Y938662D02*
X-866850D01*
X-835846Y958347D02*
X-788602D01*
X-835846D02*
Y985906D01*
X-788602D01*
Y958347D02*
Y985906D01*
X-339094Y938662D02*
Y985906D01*
X-311535D01*
Y938662D02*
Y985906D01*
X-339094Y938662D02*
X-311535D01*
X-280531Y958347D02*
X-233287D01*
X-280531D02*
Y985906D01*
X-233287D01*
Y958347D02*
Y985906D01*
X216221Y938662D02*
Y985906D01*
X243780D01*
Y938662D02*
Y985906D01*
X216221Y938662D02*
X243780D01*
X274784Y958347D02*
X322028D01*
X274784D02*
Y985906D01*
X322028D01*
Y958347D02*
Y985906D01*
X771536Y938662D02*
Y985906D01*
X799095D01*
Y938662D02*
Y985906D01*
X771536Y938662D02*
X799095D01*
X830099Y958347D02*
X877343D01*
X830099D02*
Y985906D01*
X877343D01*
Y958347D02*
Y985906D01*
%TF.MD5,48c06448ef1b223fd0f4a1ce1569e910*%
M02*
