%TF.GenerationSoftware,Altium Limited,Altium Designer,22.0.2 (36)*%
G04 Layer_Color=255*
%FSLAX26Y26*%
%MOIN*%
%TF.SameCoordinates,7C2B3453-B62B-4687-BB94-77A5B7653B1A*%
%TF.FilePolarity,Positive*%
%TF.FileFunction,Pads,Top*%
%TF.Part,CustomerPanel*%
G01*
G75*
%TA.AperFunction,SMDPad,CuDef*%
%ADD11R,0.015748X0.019685*%
%ADD12R,0.026575X0.017716*%
%ADD13R,0.017716X0.026575*%
%ADD14C,0.022047*%
%ADD15C,0.007874*%
%ADD16C,0.028346*%
%ADD17C,0.024016*%
%ADD18O,0.059055X0.039370*%
%ADD19O,0.039370X0.059055*%
%TA.AperFunction,WasherPad*%
%ADD21C,0.003937*%
D11*
X-826496Y-1108583D02*
D03*
X-802874D02*
D03*
X-271181D02*
D03*
X-247559D02*
D03*
X284134D02*
D03*
X307756D02*
D03*
X839449D02*
D03*
X863071D02*
D03*
X-826496Y-124331D02*
D03*
X-802874D02*
D03*
X-271181D02*
D03*
X-247559D02*
D03*
X284134D02*
D03*
X307756D02*
D03*
X839449D02*
D03*
X863071D02*
D03*
X-826496Y859921D02*
D03*
X-802874D02*
D03*
X-271181D02*
D03*
X-247559D02*
D03*
X284134D02*
D03*
X307756D02*
D03*
X839449D02*
D03*
X863071D02*
D03*
D12*
X-880630Y-1024429D02*
D03*
Y-988012D02*
D03*
X-325315Y-1024429D02*
D03*
Y-988012D02*
D03*
X230000Y-1024429D02*
D03*
Y-988012D02*
D03*
X785315Y-1024429D02*
D03*
Y-988012D02*
D03*
X-880630Y-40177D02*
D03*
Y-3760D02*
D03*
X-325315Y-40177D02*
D03*
Y-3760D02*
D03*
X230000Y-40177D02*
D03*
Y-3760D02*
D03*
X785315Y-40177D02*
D03*
Y-3760D02*
D03*
X-880630Y944075D02*
D03*
Y980492D02*
D03*
X-325315Y944075D02*
D03*
Y980492D02*
D03*
X230000Y944075D02*
D03*
Y980492D02*
D03*
X785315Y944075D02*
D03*
Y980492D02*
D03*
D13*
X-794016Y-996378D02*
D03*
X-830433D02*
D03*
X-238701D02*
D03*
X-275118D02*
D03*
X316614D02*
D03*
X280197D02*
D03*
X871929D02*
D03*
X835512D02*
D03*
X-794016Y-12126D02*
D03*
X-830433D02*
D03*
X-238701D02*
D03*
X-275118D02*
D03*
X316614D02*
D03*
X280197D02*
D03*
X871929D02*
D03*
X835512D02*
D03*
X-794016Y972126D02*
D03*
X-830433D02*
D03*
X-238701D02*
D03*
X-275118D02*
D03*
X316614D02*
D03*
X280197D02*
D03*
X871929D02*
D03*
X835512D02*
D03*
D14*
X-879094Y-828779D02*
D03*
X-799173D02*
D03*
X-323779D02*
D03*
X-243858D02*
D03*
X231536D02*
D03*
X311457D02*
D03*
X786851D02*
D03*
X866772D02*
D03*
X-879094Y155472D02*
D03*
X-799173D02*
D03*
X-323779D02*
D03*
X-243858D02*
D03*
X231536D02*
D03*
X311457D02*
D03*
X786851D02*
D03*
X866772D02*
D03*
X-879094Y1139725D02*
D03*
X-799173D02*
D03*
X-323779D02*
D03*
X-243858D02*
D03*
X231536D02*
D03*
X311457D02*
D03*
X786851D02*
D03*
X866772D02*
D03*
D15*
X-839134Y-833583D02*
D03*
X-283819D02*
D03*
X271496D02*
D03*
X826811D02*
D03*
X-839134Y150669D02*
D03*
X-283819D02*
D03*
X271496D02*
D03*
X826811D02*
D03*
X-839134Y1134921D02*
D03*
X-283819D02*
D03*
X271496D02*
D03*
X826811D02*
D03*
D16*
X-877323Y-936654D02*
D03*
X-801338D02*
D03*
X-322008D02*
D03*
X-246024D02*
D03*
X233307D02*
D03*
X309291D02*
D03*
X788622D02*
D03*
X864606D02*
D03*
X-877323Y47599D02*
D03*
X-801338D02*
D03*
X-322008D02*
D03*
X-246024D02*
D03*
X233307D02*
D03*
X309291D02*
D03*
X788622D02*
D03*
X864606D02*
D03*
X-877323Y1031851D02*
D03*
X-801338D02*
D03*
X-322008D02*
D03*
X-246024D02*
D03*
X233307D02*
D03*
X309291D02*
D03*
X788622D02*
D03*
X864606D02*
D03*
D17*
X-839134Y-936654D02*
D03*
X-283819D02*
D03*
X271496D02*
D03*
X826811D02*
D03*
X-839134Y47599D02*
D03*
X-283819D02*
D03*
X271496D02*
D03*
X826811D02*
D03*
X-839134Y1031851D02*
D03*
X-283819D02*
D03*
X271496D02*
D03*
X826811D02*
D03*
D18*
X-814685Y-1054449D02*
D03*
X-259370D02*
D03*
X295945D02*
D03*
X851260D02*
D03*
X-814685Y-70197D02*
D03*
X-259370D02*
D03*
X295945D02*
D03*
X851260D02*
D03*
X-814685Y914055D02*
D03*
X-259370D02*
D03*
X295945D02*
D03*
X851260D02*
D03*
D19*
X-883583Y-1077086D02*
D03*
X-328268D02*
D03*
X227047D02*
D03*
X782362D02*
D03*
X-883583Y-92835D02*
D03*
X-328268D02*
D03*
X227047D02*
D03*
X782362D02*
D03*
X-883583Y891418D02*
D03*
X-328268D02*
D03*
X227047D02*
D03*
X782362D02*
D03*
D21*
X-839291Y-853661D02*
D03*
X-283976D02*
D03*
X271339D02*
D03*
X826654D02*
D03*
X-839291Y130591D02*
D03*
X-283976D02*
D03*
X271339D02*
D03*
X826654D02*
D03*
X-839291Y1114843D02*
D03*
X-283976D02*
D03*
X271339D02*
D03*
X826654D02*
D03*
%TF.MD5,7026757fbff21076f2f7935d8b70dca6*%
M02*
