%TF.GenerationSoftware,Altium Limited,Altium Designer,22.0.2 (36)*%
G04 Layer_Color=2752767*
%FSLAX26Y26*%
%MOIN*%
%TF.SameCoordinates,7C2B3453-B62B-4687-BB94-77A5B7653B1A*%
%TF.FilePolarity,Positive*%
%TF.FileFunction,Drawing*%
%TF.Part,CustomerPanel*%
G01*
G75*
%TA.AperFunction,NonConductor*%
%ADD50C,0.005000*%
D50*
X-859291Y-873661D02*
Y-833661D01*
X-819291D01*
Y-873661D01*
X-859291D01*
X-303976D02*
Y-833661D01*
X-263976D01*
Y-873661D01*
X-303976D01*
X251339D02*
Y-833661D01*
X291339D01*
Y-873661D01*
X251339D01*
X806654D02*
Y-833661D01*
X846654D01*
Y-873661D01*
X806654D01*
X-859291Y110591D02*
Y150591D01*
X-819291D01*
Y110591D01*
X-859291D01*
X-303976D02*
Y150591D01*
X-263976D01*
Y110591D01*
X-303976D01*
X251339D02*
Y150591D01*
X291339D01*
Y110591D01*
X251339D01*
X806654D02*
Y150591D01*
X846654D01*
Y110591D01*
X806654D01*
X-859291Y1094843D02*
Y1134843D01*
X-819291D01*
Y1094843D01*
X-859291D01*
X-303976D02*
Y1134843D01*
X-263976D01*
Y1094843D01*
X-303976D01*
X251339D02*
Y1134843D01*
X291339D01*
Y1094843D01*
X251339D01*
X806654D02*
Y1134843D01*
X846654D01*
Y1094843D01*
X806654D01*
%TF.MD5,978a85f901dd38f053c00dd88623597c*%
M02*
