%TF.GenerationSoftware,Altium Limited,Altium Designer,22.0.2 (36)*%
G04 Layer_Physical_Order=1*
G04 Layer_Color=255*
%FSLAX26Y26*%
%MOIN*%
%TF.SameCoordinates,7C2B3453-B62B-4687-BB94-77A5B7653B1A*%
%TF.FilePolarity,Positive*%
%TF.FileFunction,Copper,L1,Top,Signal*%
%TF.Part,CustomerPanel*%
G01*
G75*
%TA.AperFunction,Conductor*%
%ADD10C,0.012402*%
%TA.AperFunction,SMDPad,CuDef*%
%ADD11R,0.015748X0.019685*%
%ADD12R,0.026575X0.017716*%
%ADD13R,0.017716X0.026575*%
%ADD14C,0.022047*%
%ADD15C,0.007874*%
%ADD16C,0.028346*%
%ADD17C,0.024016*%
%ADD18O,0.059055X0.039370*%
%ADD19O,0.039370X0.059055*%
%TA.AperFunction,Conductor*%
%ADD20C,0.010000*%
%TA.AperFunction,WasherPad*%
%ADD21C,0.003937*%
D10*
X-820925Y-853583D02*
G03*
X-820925Y-853583I-18209J0D01*
G01*
X-265610D02*
G03*
X-265610Y-853583I-18209J0D01*
G01*
X289705D02*
G03*
X289705Y-853583I-18209J0D01*
G01*
X845020D02*
G03*
X845020Y-853583I-18209J0D01*
G01*
X-820925Y130669D02*
G03*
X-820925Y130669I-18209J0D01*
G01*
X-265610D02*
G03*
X-265610Y130669I-18209J0D01*
G01*
X289705D02*
G03*
X289705Y130669I-18209J0D01*
G01*
X845020D02*
G03*
X845020Y130669I-18209J0D01*
G01*
X-820925Y1114921D02*
G03*
X-820925Y1114921I-18209J0D01*
G01*
X-265610D02*
G03*
X-265610Y1114921I-18209J0D01*
G01*
X289705D02*
G03*
X289705Y1114921I-18209J0D01*
G01*
X845020D02*
G03*
X845020Y1114921I-18209J0D01*
G01*
D11*
X-826496Y-1108583D02*
D03*
X-802874D02*
D03*
X-271181D02*
D03*
X-247559D02*
D03*
X284134D02*
D03*
X307756D02*
D03*
X839449D02*
D03*
X863071D02*
D03*
X-826496Y-124331D02*
D03*
X-802874D02*
D03*
X-271181D02*
D03*
X-247559D02*
D03*
X284134D02*
D03*
X307756D02*
D03*
X839449D02*
D03*
X863071D02*
D03*
X-826496Y859921D02*
D03*
X-802874D02*
D03*
X-271181D02*
D03*
X-247559D02*
D03*
X284134D02*
D03*
X307756D02*
D03*
X839449D02*
D03*
X863071D02*
D03*
D12*
X-880630Y-1024429D02*
D03*
Y-988012D02*
D03*
X-325315Y-1024429D02*
D03*
Y-988012D02*
D03*
X230000Y-1024429D02*
D03*
Y-988012D02*
D03*
X785315Y-1024429D02*
D03*
Y-988012D02*
D03*
X-880630Y-40177D02*
D03*
Y-3760D02*
D03*
X-325315Y-40177D02*
D03*
Y-3760D02*
D03*
X230000Y-40177D02*
D03*
Y-3760D02*
D03*
X785315Y-40177D02*
D03*
Y-3760D02*
D03*
X-880630Y944075D02*
D03*
Y980492D02*
D03*
X-325315Y944075D02*
D03*
Y980492D02*
D03*
X230000Y944075D02*
D03*
Y980492D02*
D03*
X785315Y944075D02*
D03*
Y980492D02*
D03*
D13*
X-794016Y-996378D02*
D03*
X-830433D02*
D03*
X-238701D02*
D03*
X-275118D02*
D03*
X316614D02*
D03*
X280197D02*
D03*
X871929D02*
D03*
X835512D02*
D03*
X-794016Y-12126D02*
D03*
X-830433D02*
D03*
X-238701D02*
D03*
X-275118D02*
D03*
X316614D02*
D03*
X280197D02*
D03*
X871929D02*
D03*
X835512D02*
D03*
X-794016Y972126D02*
D03*
X-830433D02*
D03*
X-238701D02*
D03*
X-275118D02*
D03*
X316614D02*
D03*
X280197D02*
D03*
X871929D02*
D03*
X835512D02*
D03*
D14*
X-879094Y-828779D02*
D03*
X-799173D02*
D03*
X-323779D02*
D03*
X-243858D02*
D03*
X231536D02*
D03*
X311457D02*
D03*
X786851D02*
D03*
X866772D02*
D03*
X-879094Y155472D02*
D03*
X-799173D02*
D03*
X-323779D02*
D03*
X-243858D02*
D03*
X231536D02*
D03*
X311457D02*
D03*
X786851D02*
D03*
X866772D02*
D03*
X-879094Y1139725D02*
D03*
X-799173D02*
D03*
X-323779D02*
D03*
X-243858D02*
D03*
X231536D02*
D03*
X311457D02*
D03*
X786851D02*
D03*
X866772D02*
D03*
D15*
X-839134Y-833583D02*
D03*
X-283819D02*
D03*
X271496D02*
D03*
X826811D02*
D03*
X-839134Y150669D02*
D03*
X-283819D02*
D03*
X271496D02*
D03*
X826811D02*
D03*
X-839134Y1134921D02*
D03*
X-283819D02*
D03*
X271496D02*
D03*
X826811D02*
D03*
D16*
X-877323Y-936654D02*
D03*
X-801338D02*
D03*
X-322008D02*
D03*
X-246024D02*
D03*
X233307D02*
D03*
X309291D02*
D03*
X788622D02*
D03*
X864606D02*
D03*
X-877323Y47599D02*
D03*
X-801338D02*
D03*
X-322008D02*
D03*
X-246024D02*
D03*
X233307D02*
D03*
X309291D02*
D03*
X788622D02*
D03*
X864606D02*
D03*
X-877323Y1031851D02*
D03*
X-801338D02*
D03*
X-322008D02*
D03*
X-246024D02*
D03*
X233307D02*
D03*
X309291D02*
D03*
X788622D02*
D03*
X864606D02*
D03*
D17*
X-839134Y-936654D02*
D03*
X-283819D02*
D03*
X271496D02*
D03*
X826811D02*
D03*
X-839134Y47599D02*
D03*
X-283819D02*
D03*
X271496D02*
D03*
X826811D02*
D03*
X-839134Y1031851D02*
D03*
X-283819D02*
D03*
X271496D02*
D03*
X826811D02*
D03*
D18*
X-814685Y-1054449D02*
D03*
X-259370D02*
D03*
X295945D02*
D03*
X851260D02*
D03*
X-814685Y-70197D02*
D03*
X-259370D02*
D03*
X295945D02*
D03*
X851260D02*
D03*
X-814685Y914055D02*
D03*
X-259370D02*
D03*
X295945D02*
D03*
X851260D02*
D03*
D19*
X-883583Y-1077086D02*
D03*
X-328268D02*
D03*
X227047D02*
D03*
X782362D02*
D03*
X-883583Y-92835D02*
D03*
X-328268D02*
D03*
X227047D02*
D03*
X782362D02*
D03*
X-883583Y891418D02*
D03*
X-328268D02*
D03*
X227047D02*
D03*
X782362D02*
D03*
D20*
X-802874Y-1106614D02*
X-772283Y-1076024D01*
X-802874Y-1108583D02*
Y-1106614D01*
X-772283Y-1076024D02*
Y-1040962D01*
X-794016Y-1019230D02*
X-772283Y-1040962D01*
X-794016Y-1019230D02*
Y-996378D01*
X-844961Y-1088150D02*
X-826496Y-1106614D01*
Y-1108583D02*
Y-1106614D01*
X-879646Y-1078071D02*
X-869567Y-1088150D01*
X-844961D01*
X-816580Y-1054449D02*
X-814685D01*
X-830433Y-1040596D02*
Y-996378D01*
Y-1040596D02*
X-816580Y-1054449D01*
X-839134Y-936654D02*
Y-871791D01*
Y-983248D02*
X-830433Y-991949D01*
Y-996378D02*
Y-991949D01*
X-839134Y-983248D02*
Y-936654D01*
X-797828Y-964278D02*
X-794016Y-968091D01*
X-801338Y-936654D02*
X-797828Y-940164D01*
Y-964278D02*
Y-940164D01*
X-794016Y-996378D02*
Y-968091D01*
X-884075Y-1076594D02*
Y-1023937D01*
X-880138Y-1077579D02*
X-879646Y-1078071D01*
X-880630Y-1024429D02*
X-880138Y-1024921D01*
X-878976Y-986358D02*
Y-938307D01*
X-877323Y-936654D01*
X-880630Y-988012D02*
X-878976Y-986358D01*
X-839134Y-835374D02*
X-832539Y-828779D01*
X-845728D02*
X-839134Y-835374D01*
Y-833583D01*
X-832539Y-828779D02*
X-799173D01*
X-879094D02*
X-845728D01*
X-247559Y-1106614D02*
X-216968Y-1076024D01*
X-247559Y-1108583D02*
Y-1106614D01*
X-216968Y-1076024D02*
Y-1040962D01*
X-238701Y-1019230D02*
X-216968Y-1040962D01*
X-238701Y-1019230D02*
Y-996378D01*
X-289646Y-1088150D02*
X-271181Y-1106614D01*
Y-1108583D02*
Y-1106614D01*
X-324331Y-1078071D02*
X-314252Y-1088150D01*
X-289646D01*
X-261265Y-1054449D02*
X-259370D01*
X-275118Y-1040596D02*
Y-996378D01*
Y-1040596D02*
X-261265Y-1054449D01*
X-283819Y-936654D02*
Y-871791D01*
Y-983248D02*
X-275118Y-991949D01*
Y-996378D02*
Y-991949D01*
X-283819Y-983248D02*
Y-936654D01*
X-242513Y-964278D02*
X-238701Y-968091D01*
X-246024Y-936654D02*
X-242513Y-940164D01*
Y-964278D02*
Y-940164D01*
X-238701Y-996378D02*
Y-968091D01*
X-328760Y-1076594D02*
Y-1023937D01*
X-324823Y-1077579D02*
X-324331Y-1078071D01*
X-325315Y-1024429D02*
X-324823Y-1024921D01*
X-323661Y-986358D02*
Y-938307D01*
X-322008Y-936654D01*
X-325315Y-988012D02*
X-323661Y-986358D01*
X-283819Y-835374D02*
X-277224Y-828779D01*
X-290413D02*
X-283819Y-835374D01*
Y-833583D01*
X-277224Y-828779D02*
X-243858D01*
X-323779D02*
X-290413D01*
X307756Y-1106614D02*
X338347Y-1076024D01*
X307756Y-1108583D02*
Y-1106614D01*
X338347Y-1076024D02*
Y-1040962D01*
X316614Y-1019230D02*
X338347Y-1040962D01*
X316614Y-1019230D02*
Y-996378D01*
X265670Y-1088150D02*
X284134Y-1106614D01*
Y-1108583D02*
Y-1106614D01*
X230984Y-1078071D02*
X241063Y-1088150D01*
X265670D01*
X294050Y-1054449D02*
X295945D01*
X280197Y-1040596D02*
Y-996378D01*
Y-1040596D02*
X294050Y-1054449D01*
X271496Y-936654D02*
Y-871791D01*
Y-983248D02*
X280197Y-991949D01*
Y-996378D02*
Y-991949D01*
X271496Y-983248D02*
Y-936654D01*
X312802Y-964278D02*
X316614Y-968091D01*
X309291Y-936654D02*
X312802Y-940164D01*
Y-964278D02*
Y-940164D01*
X316614Y-996378D02*
Y-968091D01*
X226555Y-1076594D02*
Y-1023937D01*
X230492Y-1077579D02*
X230984Y-1078071D01*
X230000Y-1024429D02*
X230492Y-1024921D01*
X231654Y-986358D02*
Y-938307D01*
X233307Y-936654D01*
X230000Y-988012D02*
X231654Y-986358D01*
X271496Y-835374D02*
X278091Y-828779D01*
X264902D02*
X271496Y-835374D01*
Y-833583D01*
X278091Y-828779D02*
X311457D01*
X231536D02*
X264902D01*
X863071Y-1106614D02*
X893662Y-1076024D01*
X863071Y-1108583D02*
Y-1106614D01*
X893662Y-1076024D02*
Y-1040962D01*
X871929Y-1019230D02*
X893662Y-1040962D01*
X871929Y-1019230D02*
Y-996378D01*
X820985Y-1088150D02*
X839449Y-1106614D01*
Y-1108583D02*
Y-1106614D01*
X786299Y-1078071D02*
X796378Y-1088150D01*
X820985D01*
X849365Y-1054449D02*
X851260D01*
X835512Y-1040596D02*
Y-996378D01*
Y-1040596D02*
X849365Y-1054449D01*
X826811Y-936654D02*
Y-871791D01*
Y-983248D02*
X835512Y-991949D01*
Y-996378D02*
Y-991949D01*
X826811Y-983248D02*
Y-936654D01*
X868117Y-964278D02*
X871929Y-968091D01*
X864606Y-936654D02*
X868117Y-940164D01*
Y-964278D02*
Y-940164D01*
X871929Y-996378D02*
Y-968091D01*
X781870Y-1076594D02*
Y-1023937D01*
X785807Y-1077579D02*
X786299Y-1078071D01*
X785315Y-1024429D02*
X785807Y-1024921D01*
X786969Y-986358D02*
Y-938307D01*
X788622Y-936654D01*
X785315Y-988012D02*
X786969Y-986358D01*
X826811Y-835374D02*
X833406Y-828779D01*
X820217D02*
X826811Y-835374D01*
Y-833583D01*
X833406Y-828779D02*
X866772D01*
X786851D02*
X820217D01*
X-802874Y-122362D02*
X-772283Y-91772D01*
X-802874Y-124331D02*
Y-122362D01*
X-772283Y-91772D02*
Y-56710D01*
X-794016Y-34978D02*
X-772283Y-56710D01*
X-794016Y-34978D02*
Y-12126D01*
X-844961Y-103898D02*
X-826496Y-122362D01*
Y-124331D02*
Y-122362D01*
X-879646Y-93819D02*
X-869567Y-103898D01*
X-844961D01*
X-816580Y-70197D02*
X-814685D01*
X-830433Y-56344D02*
Y-12126D01*
Y-56344D02*
X-816580Y-70197D01*
X-839134Y47599D02*
Y112461D01*
Y1004D02*
X-830433Y-7697D01*
Y-12126D02*
Y-7697D01*
X-839134Y1004D02*
Y47599D01*
X-797828Y19974D02*
X-794016Y16162D01*
X-801338Y47599D02*
X-797828Y44088D01*
Y19974D02*
Y44088D01*
X-794016Y-12126D02*
Y16162D01*
X-884075Y-92342D02*
Y-39685D01*
X-880138Y-93327D02*
X-879646Y-93819D01*
X-880630Y-40177D02*
X-880138Y-40669D01*
X-878976Y-2106D02*
Y45945D01*
X-877323Y47599D01*
X-880630Y-3760D02*
X-878976Y-2106D01*
X-839134Y148878D02*
X-832539Y155472D01*
X-845728D02*
X-839134Y148878D01*
Y150669D01*
X-832539Y155472D02*
X-799173D01*
X-879094D02*
X-845728D01*
X-247559Y-122362D02*
X-216968Y-91772D01*
X-247559Y-124331D02*
Y-122362D01*
X-216968Y-91772D02*
Y-56710D01*
X-238701Y-34978D02*
X-216968Y-56710D01*
X-238701Y-34978D02*
Y-12126D01*
X-289646Y-103898D02*
X-271181Y-122362D01*
Y-124331D02*
Y-122362D01*
X-324331Y-93819D02*
X-314252Y-103898D01*
X-289646D01*
X-261265Y-70197D02*
X-259370D01*
X-275118Y-56344D02*
Y-12126D01*
Y-56344D02*
X-261265Y-70197D01*
X-283819Y47599D02*
Y112461D01*
Y1004D02*
X-275118Y-7697D01*
Y-12126D02*
Y-7697D01*
X-283819Y1004D02*
Y47599D01*
X-242513Y19974D02*
X-238701Y16162D01*
X-246024Y47599D02*
X-242513Y44088D01*
Y19974D02*
Y44088D01*
X-238701Y-12126D02*
Y16162D01*
X-328760Y-92342D02*
Y-39685D01*
X-324823Y-93327D02*
X-324331Y-93819D01*
X-325315Y-40177D02*
X-324823Y-40669D01*
X-323661Y-2106D02*
Y45945D01*
X-322008Y47599D01*
X-325315Y-3760D02*
X-323661Y-2106D01*
X-283819Y148878D02*
X-277224Y155472D01*
X-290413D02*
X-283819Y148878D01*
Y150669D01*
X-277224Y155472D02*
X-243858D01*
X-323779D02*
X-290413D01*
X307756Y-122362D02*
X338347Y-91772D01*
X307756Y-124331D02*
Y-122362D01*
X338347Y-91772D02*
Y-56710D01*
X316614Y-34978D02*
X338347Y-56710D01*
X316614Y-34978D02*
Y-12126D01*
X265670Y-103898D02*
X284134Y-122362D01*
Y-124331D02*
Y-122362D01*
X230984Y-93819D02*
X241063Y-103898D01*
X265670D01*
X294050Y-70197D02*
X295945D01*
X280197Y-56344D02*
Y-12126D01*
Y-56344D02*
X294050Y-70197D01*
X271496Y47599D02*
Y112461D01*
Y1004D02*
X280197Y-7697D01*
Y-12126D02*
Y-7697D01*
X271496Y1004D02*
Y47599D01*
X312802Y19974D02*
X316614Y16162D01*
X309291Y47599D02*
X312802Y44088D01*
Y19974D02*
Y44088D01*
X316614Y-12126D02*
Y16162D01*
X226555Y-92342D02*
Y-39685D01*
X230492Y-93327D02*
X230984Y-93819D01*
X230000Y-40177D02*
X230492Y-40669D01*
X231654Y-2106D02*
Y45945D01*
X233307Y47599D01*
X230000Y-3760D02*
X231654Y-2106D01*
X271496Y148878D02*
X278091Y155472D01*
X264902D02*
X271496Y148878D01*
Y150669D01*
X278091Y155472D02*
X311457D01*
X231536D02*
X264902D01*
X863071Y-122362D02*
X893662Y-91772D01*
X863071Y-124331D02*
Y-122362D01*
X893662Y-91772D02*
Y-56710D01*
X871929Y-34978D02*
X893662Y-56710D01*
X871929Y-34978D02*
Y-12126D01*
X820985Y-103898D02*
X839449Y-122362D01*
Y-124331D02*
Y-122362D01*
X786299Y-93819D02*
X796378Y-103898D01*
X820985D01*
X849365Y-70197D02*
X851260D01*
X835512Y-56344D02*
Y-12126D01*
Y-56344D02*
X849365Y-70197D01*
X826811Y47599D02*
Y112461D01*
Y1004D02*
X835512Y-7697D01*
Y-12126D02*
Y-7697D01*
X826811Y1004D02*
Y47599D01*
X868117Y19974D02*
X871929Y16162D01*
X864606Y47599D02*
X868117Y44088D01*
Y19974D02*
Y44088D01*
X871929Y-12126D02*
Y16162D01*
X781870Y-92342D02*
Y-39685D01*
X785807Y-93327D02*
X786299Y-93819D01*
X785315Y-40177D02*
X785807Y-40669D01*
X786969Y-2106D02*
Y45945D01*
X788622Y47599D01*
X785315Y-3760D02*
X786969Y-2106D01*
X826811Y148878D02*
X833406Y155472D01*
X820217D02*
X826811Y148878D01*
Y150669D01*
X833406Y155472D02*
X866772D01*
X786851D02*
X820217D01*
X-802874Y861890D02*
X-772283Y892481D01*
X-802874Y859921D02*
Y861890D01*
X-772283Y892481D02*
Y927542D01*
X-794016Y949274D02*
X-772283Y927542D01*
X-794016Y949274D02*
Y972126D01*
X-844961Y880354D02*
X-826496Y861890D01*
Y859921D02*
Y861890D01*
X-879646Y890433D02*
X-869567Y880354D01*
X-844961D01*
X-816580Y914055D02*
X-814685D01*
X-830433Y927908D02*
Y972126D01*
Y927908D02*
X-816580Y914055D01*
X-839134Y1031851D02*
Y1096713D01*
Y985256D02*
X-830433Y976555D01*
Y972126D02*
Y976555D01*
X-839134Y985256D02*
Y1031851D01*
X-797828Y1004226D02*
X-794016Y1000413D01*
X-801338Y1031851D02*
X-797828Y1028340D01*
Y1004226D02*
Y1028340D01*
X-794016Y972126D02*
Y1000413D01*
X-884075Y891910D02*
Y944567D01*
X-880138Y890925D02*
X-879646Y890433D01*
X-880630Y944075D02*
X-880138Y943583D01*
X-878976Y982146D02*
Y1030197D01*
X-877323Y1031851D01*
X-880630Y980492D02*
X-878976Y982146D01*
X-839134Y1133130D02*
X-832539Y1139725D01*
X-845728D02*
X-839134Y1133130D01*
Y1134921D01*
X-832539Y1139725D02*
X-799173D01*
X-879094D02*
X-845728D01*
X-247559Y861890D02*
X-216968Y892481D01*
X-247559Y859921D02*
Y861890D01*
X-216968Y892481D02*
Y927542D01*
X-238701Y949274D02*
X-216968Y927542D01*
X-238701Y949274D02*
Y972126D01*
X-289646Y880354D02*
X-271181Y861890D01*
Y859921D02*
Y861890D01*
X-324331Y890433D02*
X-314252Y880354D01*
X-289646D01*
X-261265Y914055D02*
X-259370D01*
X-275118Y927908D02*
Y972126D01*
Y927908D02*
X-261265Y914055D01*
X-283819Y1031851D02*
Y1096713D01*
Y985256D02*
X-275118Y976555D01*
Y972126D02*
Y976555D01*
X-283819Y985256D02*
Y1031851D01*
X-242513Y1004226D02*
X-238701Y1000413D01*
X-246024Y1031851D02*
X-242513Y1028340D01*
Y1004226D02*
Y1028340D01*
X-238701Y972126D02*
Y1000413D01*
X-328760Y891910D02*
Y944567D01*
X-324823Y890925D02*
X-324331Y890433D01*
X-325315Y944075D02*
X-324823Y943583D01*
X-323661Y982146D02*
Y1030197D01*
X-322008Y1031851D01*
X-325315Y980492D02*
X-323661Y982146D01*
X-283819Y1133130D02*
X-277224Y1139725D01*
X-290413D02*
X-283819Y1133130D01*
Y1134921D01*
X-277224Y1139725D02*
X-243858D01*
X-323779D02*
X-290413D01*
X307756Y861890D02*
X338347Y892481D01*
X307756Y859921D02*
Y861890D01*
X338347Y892481D02*
Y927542D01*
X316614Y949274D02*
X338347Y927542D01*
X316614Y949274D02*
Y972126D01*
X265670Y880354D02*
X284134Y861890D01*
Y859921D02*
Y861890D01*
X230984Y890433D02*
X241063Y880354D01*
X265670D01*
X294050Y914055D02*
X295945D01*
X280197Y927908D02*
Y972126D01*
Y927908D02*
X294050Y914055D01*
X271496Y1031851D02*
Y1096713D01*
Y985256D02*
X280197Y976555D01*
Y972126D02*
Y976555D01*
X271496Y985256D02*
Y1031851D01*
X312802Y1004226D02*
X316614Y1000413D01*
X309291Y1031851D02*
X312802Y1028340D01*
Y1004226D02*
Y1028340D01*
X316614Y972126D02*
Y1000413D01*
X226555Y891910D02*
Y944567D01*
X230492Y890925D02*
X230984Y890433D01*
X230000Y944075D02*
X230492Y943583D01*
X231654Y982146D02*
Y1030197D01*
X233307Y1031851D01*
X230000Y980492D02*
X231654Y982146D01*
X271496Y1133130D02*
X278091Y1139725D01*
X264902D02*
X271496Y1133130D01*
Y1134921D01*
X278091Y1139725D02*
X311457D01*
X231536D02*
X264902D01*
X863071Y861890D02*
X893662Y892481D01*
X863071Y859921D02*
Y861890D01*
X893662Y892481D02*
Y927542D01*
X871929Y949274D02*
X893662Y927542D01*
X871929Y949274D02*
Y972126D01*
X820985Y880354D02*
X839449Y861890D01*
Y859921D02*
Y861890D01*
X786299Y890433D02*
X796378Y880354D01*
X820985D01*
X849365Y914055D02*
X851260D01*
X835512Y927908D02*
Y972126D01*
Y927908D02*
X849365Y914055D01*
X826811Y1031851D02*
Y1096713D01*
Y985256D02*
X835512Y976555D01*
Y972126D02*
Y976555D01*
X826811Y985256D02*
Y1031851D01*
X868117Y1004226D02*
X871929Y1000413D01*
X864606Y1031851D02*
X868117Y1028340D01*
Y1004226D02*
Y1028340D01*
X871929Y972126D02*
Y1000413D01*
X781870Y891910D02*
Y944567D01*
X785807Y890925D02*
X786299Y890433D01*
X785315Y944075D02*
X785807Y943583D01*
X786969Y982146D02*
Y1030197D01*
X788622Y1031851D01*
X785315Y980492D02*
X786969Y982146D01*
X826811Y1133130D02*
X833406Y1139725D01*
X820217D02*
X826811Y1133130D01*
Y1134921D01*
X833406Y1139725D02*
X866772D01*
X786851D02*
X820217D01*
D21*
X-839291Y-853661D02*
D03*
X-283976D02*
D03*
X271339D02*
D03*
X826654D02*
D03*
X-839291Y130591D02*
D03*
X-283976D02*
D03*
X271339D02*
D03*
X826654D02*
D03*
X-839291Y1114843D02*
D03*
X-283976D02*
D03*
X271339D02*
D03*
X826654D02*
D03*
%TF.MD5,215be880a218a0a08c65f4e5b0bbc04e*%
M02*
