%TF.GenerationSoftware,Altium Limited,Altium Designer,22.0.2 (36)*%
G04 Layer_Color=0*
%FSLAX26Y26*%
%MOIN*%
%TF.SameCoordinates,7C2B3453-B62B-4687-BB94-77A5B7653B1A*%
%TF.FilePolarity,Positive*%
%TF.FileFunction,Other,Mechanical_16*%
%TF.Part,CustomerPanel*%
G01*
G75*
%TA.AperFunction,NonConductor*%
%ADD34C,0.003937*%
D34*
X-880630Y-1025905D02*
Y-986535D01*
X-900315Y-1006220D02*
X-860945D01*
X-831909Y-996378D02*
X-792539D01*
X-812224Y-1016063D02*
Y-976693D01*
X-325315Y-1025905D02*
Y-986535D01*
X-345000Y-1006220D02*
X-305630D01*
X-276594Y-996378D02*
X-237224D01*
X-256909Y-1016063D02*
Y-976693D01*
X230000Y-1025905D02*
Y-986535D01*
X210315Y-1006220D02*
X249685D01*
X278721Y-996378D02*
X318091D01*
X298406Y-1016063D02*
Y-976693D01*
X785315Y-1025905D02*
Y-986535D01*
X765630Y-1006220D02*
X805000D01*
X834036Y-996378D02*
X873406D01*
X853721Y-1016063D02*
Y-976693D01*
X-880630Y-41653D02*
Y-2283D01*
X-900315Y-21968D02*
X-860945D01*
X-831909Y-12126D02*
X-792539D01*
X-812224Y-31811D02*
Y7559D01*
X-325315Y-41653D02*
Y-2283D01*
X-345000Y-21968D02*
X-305630D01*
X-276594Y-12126D02*
X-237224D01*
X-256909Y-31811D02*
Y7559D01*
X230000Y-41653D02*
Y-2283D01*
X210315Y-21968D02*
X249685D01*
X278721Y-12126D02*
X318091D01*
X298406Y-31811D02*
Y7559D01*
X785315Y-41653D02*
Y-2283D01*
X765630Y-21968D02*
X805000D01*
X834036Y-12126D02*
X873406D01*
X853721Y-31811D02*
Y7559D01*
X-880630Y942599D02*
Y981969D01*
X-900315Y962284D02*
X-860945D01*
X-831909Y972126D02*
X-792539D01*
X-812224Y952441D02*
Y991811D01*
X-325315Y942599D02*
Y981969D01*
X-345000Y962284D02*
X-305630D01*
X-276594Y972126D02*
X-237224D01*
X-256909Y952441D02*
Y991811D01*
X230000Y942599D02*
Y981969D01*
X210315Y962284D02*
X249685D01*
X278721Y972126D02*
X318091D01*
X298406Y952441D02*
Y991811D01*
X785315Y942599D02*
Y981969D01*
X765630Y962284D02*
X805000D01*
X834036Y972126D02*
X873406D01*
X853721Y952441D02*
Y991811D01*
%TF.MD5,a2236bee44d66cc7c13f708fb6faa9e4*%
M02*
