G04*
G04 #@! TF.GenerationSoftware,Altium Limited,Altium Designer,22.0.2 (36)*
G04*
G04 Layer_Color=255*
%FSLAX25Y25*%
%MOIN*%
G70*
G04*
G04 #@! TF.SameCoordinates,2161BBB5-3730-4A37-975F-558EB53CE70B*
G04*
G04*
G04 #@! TF.FilePolarity,Positive*
G04*
G01*
G75*
%ADD27R,0.02362X0.02520*%
%ADD28R,0.02953X0.02362*%
%ADD29R,0.02520X0.02362*%
%ADD33R,0.02362X0.02953*%
%ADD53R,0.02559X0.03740*%
%ADD64R,0.05118X0.05512*%
%ADD135C,0.05709*%
%ADD136C,0.03543*%
%ADD137C,0.02559*%
%ADD138O,0.04528X0.02559*%
%ADD139C,0.02362*%
%ADD140O,0.03937X0.06299*%
%ADD141O,0.03937X0.10079*%
%ADD142O,0.03543X0.06299*%
%ADD143C,0.11400*%
%ADD145R,0.03740X0.02362*%
%ADD146R,0.03150X0.03150*%
%ADD147R,0.04528X0.06693*%
%ADD148R,0.07087X0.05118*%
%ADD149R,0.07874X0.23622*%
%ADD150R,0.02362X0.05709*%
%ADD151R,0.09843X0.06693*%
%ADD152R,0.05118X0.07087*%
%ADD153R,0.03543X0.02362*%
%ADD154R,0.02362X0.02165*%
%ADD155R,0.03740X0.02559*%
%ADD156R,0.01968X0.01181*%
%ADD157R,0.01378X0.02362*%
%ADD158R,0.04528X0.05315*%
%ADD159R,0.00787X0.04488*%
D27*
X-67559Y-14173D02*
D03*
X-71024D02*
D03*
X-62835Y764D02*
D03*
X-66299D02*
D03*
X-62835Y-3937D02*
D03*
X-66299D02*
D03*
X-58898Y20472D02*
D03*
X-62362D02*
D03*
X-71890Y64567D02*
D03*
X-75354D02*
D03*
X-84016D02*
D03*
X-80551D02*
D03*
X-4567Y-27953D02*
D03*
X-8032D02*
D03*
X1732Y-21654D02*
D03*
X-1732D02*
D03*
X7717Y-46850D02*
D03*
X11181D02*
D03*
X14016Y-35827D02*
D03*
X17480D02*
D03*
X-4567Y-32677D02*
D03*
X-8032D02*
D03*
X17480Y-40551D02*
D03*
X14016D02*
D03*
X158Y-37402D02*
D03*
X-3307D02*
D03*
X12756Y-31102D02*
D03*
X9291D02*
D03*
X-86772Y-48031D02*
D03*
X-83307D02*
D03*
X-65512D02*
D03*
X-62047D02*
D03*
D28*
X80610Y-5874D02*
D03*
X76083D02*
D03*
X70374D02*
D03*
X65847D02*
D03*
X60232D02*
D03*
X55705D02*
D03*
X60038Y-23622D02*
D03*
X55510D02*
D03*
X70177D02*
D03*
X65650D02*
D03*
X80495D02*
D03*
X75967D02*
D03*
X51181Y-43543D02*
D03*
X55709D02*
D03*
X55807Y-57381D02*
D03*
X51279D02*
D03*
X55807Y-48268D02*
D03*
X51279D02*
D03*
Y-52756D02*
D03*
X55807D02*
D03*
D29*
X103986Y-51732D02*
D03*
Y-48268D02*
D03*
X-86502Y-24191D02*
D03*
Y-27656D02*
D03*
X-64455Y-24191D02*
D03*
Y-27656D02*
D03*
X-61417Y-13330D02*
D03*
Y-9865D02*
D03*
X-39370Y-13330D02*
D03*
Y-9865D02*
D03*
X-60236Y30079D02*
D03*
Y26614D02*
D03*
X-7874Y-37244D02*
D03*
Y-40709D02*
D03*
X11024Y-24961D02*
D03*
Y-21496D02*
D03*
X-1575Y-43543D02*
D03*
Y-47008D02*
D03*
X84252Y-44252D02*
D03*
Y-40787D02*
D03*
Y-52913D02*
D03*
Y-49449D02*
D03*
X35039Y-57638D02*
D03*
Y-54173D02*
D03*
X17323Y-27795D02*
D03*
Y-31260D02*
D03*
X3150Y-43543D02*
D03*
Y-47008D02*
D03*
X6299Y-24961D02*
D03*
Y-21496D02*
D03*
X7874Y-38819D02*
D03*
Y-42283D02*
D03*
X1575Y-29685D02*
D03*
Y-26221D02*
D03*
D33*
X-87008Y59350D02*
D03*
Y54823D02*
D03*
X40157Y-54429D02*
D03*
Y-58957D02*
D03*
X-83465Y-57776D02*
D03*
Y-53248D02*
D03*
X-78347Y-47539D02*
D03*
Y-43012D02*
D03*
Y-53248D02*
D03*
Y-57776D02*
D03*
X-65354D02*
D03*
Y-53248D02*
D03*
X-70472Y-47539D02*
D03*
Y-43012D02*
D03*
Y-57776D02*
D03*
Y-53248D02*
D03*
D53*
X-66339Y15157D02*
D03*
X-58858D02*
D03*
X-62598Y6102D02*
D03*
D64*
X-96063Y-54331D02*
D03*
X-89764D02*
D03*
X-49213Y-48031D02*
D03*
X-55512D02*
D03*
D135*
X106329Y-69213D02*
D03*
X-118110Y-69291D02*
D03*
D136*
X-117323Y62992D02*
D03*
Y74803D02*
D03*
D137*
X-95276Y-81260D02*
D03*
X-98425D02*
D03*
X-91929D02*
D03*
X-90158Y-77716D02*
D03*
X-93701D02*
D03*
X-83465D02*
D03*
X-87008D02*
D03*
X-85236Y-81260D02*
D03*
X-78740D02*
D03*
X-81890D02*
D03*
X787D02*
D03*
X3937D02*
D03*
X-2559D02*
D03*
X-4331Y-77716D02*
D03*
X-787D02*
D03*
X-11024D02*
D03*
X-7480D02*
D03*
X-9252Y-81260D02*
D03*
X-15748D02*
D03*
X-12598D02*
D03*
X83464D02*
D03*
X86614D02*
D03*
X80118D02*
D03*
X78346Y-77716D02*
D03*
X81890D02*
D03*
X71653D02*
D03*
X75197D02*
D03*
X73425Y-81260D02*
D03*
X66929D02*
D03*
X70079D02*
D03*
D138*
X-75984Y-77716D02*
D03*
X-101181D02*
D03*
X-18504D02*
D03*
X6693D02*
D03*
X64173D02*
D03*
X89370D02*
D03*
D139*
X-102165Y-73228D02*
D03*
X-75000D02*
D03*
X7677D02*
D03*
X-19488D02*
D03*
X90354D02*
D03*
X63189D02*
D03*
D140*
X-106201Y-71654D02*
D03*
X-70965D02*
D03*
X11713D02*
D03*
X-23524D02*
D03*
X94390D02*
D03*
X59153D02*
D03*
D141*
X-64665Y-80866D02*
D03*
X-112500D02*
D03*
X-64665Y-96063D02*
D03*
X-112500Y-95669D02*
D03*
X-29823D02*
D03*
X18012Y-96063D02*
D03*
X-29823Y-80866D02*
D03*
X18012D02*
D03*
X52854Y-95669D02*
D03*
X100689Y-96063D02*
D03*
X52854Y-80866D02*
D03*
X100689D02*
D03*
D142*
X-103150Y91634D02*
D03*
X-77165D02*
D03*
X-33858Y91536D02*
D03*
X-59842D02*
D03*
D143*
X-48386Y5236D02*
D03*
X105236Y89331D02*
D03*
D145*
X-80892Y-27538D02*
D03*
Y-23797D02*
D03*
Y-20057D02*
D03*
X-70065D02*
D03*
Y-27538D02*
D03*
X-55809Y-13368D02*
D03*
Y-9628D02*
D03*
Y-5888D02*
D03*
X-44982D02*
D03*
Y-13368D02*
D03*
D146*
X107677Y-23228D02*
D03*
X101772D02*
D03*
X107520Y-5512D02*
D03*
X101614D02*
D03*
X101614Y-11406D02*
D03*
X107520D02*
D03*
X101614Y-17312D02*
D03*
X107520D02*
D03*
X107520Y-35039D02*
D03*
X101614D02*
D03*
Y-29134D02*
D03*
X107520D02*
D03*
D147*
X-79036Y27953D02*
D03*
X-66634D02*
D03*
D148*
X-83943Y7677D02*
D03*
Y19094D02*
D03*
X-74101Y7677D02*
D03*
Y19094D02*
D03*
D149*
X-93701Y25197D02*
D03*
X-110236D02*
D03*
D150*
X-80472Y58071D02*
D03*
X-75472D02*
D03*
X-70473D02*
D03*
X-65473D02*
D03*
X-80472Y36614D02*
D03*
X-75472D02*
D03*
X-70473D02*
D03*
X-65473D02*
D03*
D151*
X-91339Y44488D02*
D03*
X-107087D02*
D03*
X-99606Y82284D02*
D03*
X-115354D02*
D03*
D152*
X-99252Y70079D02*
D03*
X-110669D02*
D03*
D153*
X-110039Y54921D02*
D03*
Y62402D02*
D03*
X-100984Y58661D02*
D03*
D154*
X39370Y-49705D02*
D03*
X41929Y-42421D02*
D03*
X36811D02*
D03*
X66737Y-28316D02*
D03*
X64178Y-35600D02*
D03*
X69296D02*
D03*
X78231Y-28316D02*
D03*
X75672Y-35600D02*
D03*
X80790D02*
D03*
X55242Y-28331D02*
D03*
X52683Y-35615D02*
D03*
X57801D02*
D03*
X55358Y-11219D02*
D03*
X52799Y-18503D02*
D03*
X57917D02*
D03*
X78347Y-11219D02*
D03*
X75787Y-18503D02*
D03*
X80905D02*
D03*
X66852Y-11219D02*
D03*
X64293Y-18503D02*
D03*
X69411D02*
D03*
D155*
X98622Y-46063D02*
D03*
X89567Y-42323D02*
D03*
Y-49803D02*
D03*
D156*
X-92520Y-70512D02*
D03*
X-101181D02*
D03*
X-75984D02*
D03*
X-84646D02*
D03*
X-1969D02*
D03*
X6693D02*
D03*
X-18504D02*
D03*
X-9843D02*
D03*
X80709D02*
D03*
X89370D02*
D03*
X64173D02*
D03*
X72835D02*
D03*
D157*
X-77756Y-73228D02*
D03*
X-79724D02*
D03*
X-81693D02*
D03*
X-83661D02*
D03*
X-85630D02*
D03*
X-99409D02*
D03*
X-97441D02*
D03*
X-95472D02*
D03*
X-93504D02*
D03*
X-91535D02*
D03*
X-89567D02*
D03*
X-87598D02*
D03*
X-4921D02*
D03*
X-6890D02*
D03*
X-8858D02*
D03*
X-10827D02*
D03*
X-12795D02*
D03*
X-14764D02*
D03*
X-16732D02*
D03*
X-2953D02*
D03*
X-984D02*
D03*
X984D02*
D03*
X2953D02*
D03*
X4921D02*
D03*
X77756D02*
D03*
X75787D02*
D03*
X73819D02*
D03*
X71850D02*
D03*
X69882D02*
D03*
X67913D02*
D03*
X65945D02*
D03*
X79724D02*
D03*
X81693D02*
D03*
X83661D02*
D03*
X85630D02*
D03*
X87598D02*
D03*
D158*
X-55807Y-55905D02*
D03*
X-48917D02*
D03*
D159*
X-25197Y91102D02*
D03*
Y80709D02*
D03*
X-23622Y91102D02*
D03*
Y80709D02*
D03*
X-22047Y91102D02*
D03*
Y80709D02*
D03*
X-20472Y91102D02*
D03*
Y80709D02*
D03*
X-18898Y91102D02*
D03*
Y80709D02*
D03*
X-17323Y91102D02*
D03*
Y80709D02*
D03*
X-15748Y91102D02*
D03*
Y80709D02*
D03*
X-14173Y91102D02*
D03*
Y80709D02*
D03*
X-12598Y91102D02*
D03*
Y80709D02*
D03*
X-11024Y91102D02*
D03*
Y80709D02*
D03*
X-9449Y91102D02*
D03*
Y80709D02*
D03*
X-7874Y91102D02*
D03*
Y80709D02*
D03*
X-6299Y91102D02*
D03*
Y80709D02*
D03*
X-4724Y91102D02*
D03*
Y80709D02*
D03*
X-3150Y91102D02*
D03*
Y80709D02*
D03*
X-1575Y91102D02*
D03*
Y80709D02*
D03*
X0Y91102D02*
D03*
Y80709D02*
D03*
X1575Y91102D02*
D03*
Y80709D02*
D03*
X3150Y91102D02*
D03*
Y80709D02*
D03*
X4724Y91102D02*
D03*
Y80709D02*
D03*
X6299Y91102D02*
D03*
Y80709D02*
D03*
X7874Y91102D02*
D03*
Y80709D02*
D03*
X9449Y91102D02*
D03*
Y80709D02*
D03*
X11024Y91102D02*
D03*
Y80709D02*
D03*
X12598Y91102D02*
D03*
Y80709D02*
D03*
X14173Y91102D02*
D03*
Y80709D02*
D03*
X15748Y91102D02*
D03*
Y80709D02*
D03*
X17323Y91102D02*
D03*
Y80709D02*
D03*
X18898Y91102D02*
D03*
Y80709D02*
D03*
X20472Y91102D02*
D03*
Y80709D02*
D03*
X22047Y91102D02*
D03*
Y80709D02*
D03*
X23622Y91102D02*
D03*
Y80709D02*
D03*
X25197Y91102D02*
D03*
Y80709D02*
D03*
X26772Y91102D02*
D03*
Y80709D02*
D03*
X28346Y91102D02*
D03*
Y80709D02*
D03*
X29921Y91102D02*
D03*
Y80709D02*
D03*
X31496Y91102D02*
D03*
Y80709D02*
D03*
X33071Y91102D02*
D03*
Y80709D02*
D03*
X34646Y91102D02*
D03*
Y80709D02*
D03*
X36220Y91102D02*
D03*
Y80709D02*
D03*
X37795Y91102D02*
D03*
Y80709D02*
D03*
X39370Y91102D02*
D03*
Y80709D02*
D03*
X40945Y91102D02*
D03*
Y80709D02*
D03*
X42520Y91102D02*
D03*
Y80709D02*
D03*
X44094Y91102D02*
D03*
Y80709D02*
D03*
Y3543D02*
D03*
Y13937D02*
D03*
X42520Y3543D02*
D03*
Y13937D02*
D03*
X40945Y3543D02*
D03*
Y13937D02*
D03*
X39370Y3543D02*
D03*
Y13937D02*
D03*
X37795Y3543D02*
D03*
Y13937D02*
D03*
X36220Y3543D02*
D03*
Y13937D02*
D03*
X34646Y3543D02*
D03*
Y13937D02*
D03*
X33071Y3543D02*
D03*
Y13937D02*
D03*
X31496Y3543D02*
D03*
Y13937D02*
D03*
X29921Y3543D02*
D03*
Y13937D02*
D03*
X28346Y3543D02*
D03*
Y13937D02*
D03*
X26772Y3543D02*
D03*
Y13937D02*
D03*
X25197Y3543D02*
D03*
Y13937D02*
D03*
X23622Y3543D02*
D03*
Y13937D02*
D03*
X22047Y3543D02*
D03*
Y13937D02*
D03*
X20472Y3543D02*
D03*
Y13937D02*
D03*
X18898Y3543D02*
D03*
Y13937D02*
D03*
X17323Y3543D02*
D03*
Y13937D02*
D03*
X15748Y3543D02*
D03*
Y13937D02*
D03*
X14173Y3543D02*
D03*
Y13937D02*
D03*
X12598Y3543D02*
D03*
Y13937D02*
D03*
X11024Y3543D02*
D03*
Y13937D02*
D03*
X9449Y3543D02*
D03*
Y13937D02*
D03*
X7874Y3543D02*
D03*
Y13937D02*
D03*
X6299Y3543D02*
D03*
Y13937D02*
D03*
X4724Y3543D02*
D03*
Y13937D02*
D03*
X3150Y3543D02*
D03*
Y13937D02*
D03*
X1575Y3543D02*
D03*
Y13937D02*
D03*
X0Y3543D02*
D03*
Y13937D02*
D03*
X-1575Y3543D02*
D03*
Y13937D02*
D03*
X-3150Y3543D02*
D03*
Y13937D02*
D03*
X-4724Y3543D02*
D03*
Y13937D02*
D03*
X-6299Y3543D02*
D03*
Y13937D02*
D03*
X-7874Y3543D02*
D03*
Y13937D02*
D03*
X-9449Y3543D02*
D03*
Y13937D02*
D03*
X-11024Y3543D02*
D03*
Y13937D02*
D03*
X-12598Y3543D02*
D03*
Y13937D02*
D03*
X-14173Y3543D02*
D03*
Y13937D02*
D03*
X-15748Y3543D02*
D03*
Y13937D02*
D03*
X-17323Y3543D02*
D03*
Y13937D02*
D03*
X-18898Y3543D02*
D03*
Y13937D02*
D03*
X-20472Y3543D02*
D03*
Y13937D02*
D03*
X-22047Y3543D02*
D03*
Y13937D02*
D03*
X-23622Y3543D02*
D03*
Y13937D02*
D03*
X-25197Y3543D02*
D03*
Y13937D02*
D03*
M02*
