G04*
G04 #@! TF.GenerationSoftware,Altium Limited,Altium Designer,22.0.2 (36)*
G04*
G04 Layer_Color=65535*
%FSLAX25Y25*%
%MOIN*%
G70*
G04*
G04 #@! TF.SameCoordinates,2161BBB5-3730-4A37-975F-558EB53CE70B*
G04*
G04*
G04 #@! TF.FilePolarity,Positive*
G04*
G01*
G75*
%ADD10C,0.01000*%
%ADD11C,0.00984*%
%ADD12C,0.00787*%
%ADD13C,0.01968*%
%ADD14C,0.00394*%
%ADD15C,0.00800*%
%ADD16C,0.01500*%
%ADD17C,0.00500*%
%ADD18C,0.00600*%
%ADD19C,0.00591*%
%ADD20C,0.00709*%
G36*
X28346Y-61811D02*
X32283Y-57874D01*
Y-61811D01*
X28346D01*
D02*
G37*
D10*
X13465Y68110D02*
G03*
X13465Y68110I-79J0D01*
G01*
X3347Y42126D02*
G03*
X3347Y42126I-394J0D01*
G01*
X51575Y-63386D02*
Y-58268D01*
Y-63386D02*
X73228D01*
Y-29528D01*
X51575D02*
X73228D01*
X51575Y-34646D02*
Y-29528D01*
X-123622Y-52559D02*
Y-48622D01*
X-125591D02*
X-123622D01*
X-125591D02*
Y-42717D01*
X-123622D01*
Y-38780D01*
X-111811Y-52559D02*
Y-38780D01*
X-123622Y-12402D02*
Y-8465D01*
X-125591D02*
X-123622D01*
X-125591D02*
Y-2559D01*
X-123622D01*
Y1378D01*
X-111811Y-12402D02*
Y1378D01*
X-103450Y3937D02*
X-109449Y1652D01*
X-103450Y-634D02*
X-109449Y1652D01*
X-103450Y-3119D02*
X-103736Y-2547D01*
X-104307Y-1976D01*
X-104878Y-1690D01*
X-105735Y-1405D01*
X-107164D01*
X-108021Y-1690D01*
X-108592Y-1976D01*
X-109163Y-2547D01*
X-109449Y-3119D01*
Y-4261D01*
X-109163Y-4832D01*
X-108592Y-5404D01*
X-108021Y-5689D01*
X-107164Y-5975D01*
X-105735D01*
X-104878Y-5689D01*
X-104307Y-5404D01*
X-103736Y-4832D01*
X-103450Y-4261D01*
Y-3119D01*
Y-7375D02*
X-109449D01*
Y-10803D01*
X-106878Y-11460D02*
Y-16601D01*
X-28046Y81921D02*
X-22047D01*
X-28046Y79921D02*
Y83920D01*
Y86634D02*
X-22047D01*
X-28046Y84635D02*
Y88634D01*
Y89348D02*
X-25189Y91633D01*
X-22047D01*
X-28046Y93918D02*
X-25189Y91633D01*
X-103450Y-35433D02*
X-109449Y-37718D01*
X-103450Y-40003D02*
X-109449Y-37718D01*
X-103450Y-42489D02*
X-103736Y-41917D01*
X-104307Y-41346D01*
X-104878Y-41060D01*
X-105735Y-40775D01*
X-107164D01*
X-108021Y-41060D01*
X-108592Y-41346D01*
X-109163Y-41917D01*
X-109449Y-42489D01*
Y-43631D01*
X-109163Y-44203D01*
X-108592Y-44774D01*
X-108021Y-45060D01*
X-107164Y-45345D01*
X-105735D01*
X-104878Y-45060D01*
X-104307Y-44774D01*
X-103736Y-44203D01*
X-103450Y-43631D01*
Y-42489D01*
Y-46745D02*
X-109449D01*
Y-50173D01*
X-104307Y-53401D02*
X-109449D01*
X-106878Y-50830D02*
Y-55971D01*
X-104192Y63479D02*
X-104763Y63193D01*
X-105334Y62622D01*
X-105620Y62051D01*
X-105905Y61194D01*
Y59765D01*
X-105620Y58909D01*
X-105334Y58337D01*
X-104763Y57766D01*
X-104192Y57480D01*
X-103049D01*
X-102478Y57766D01*
X-101906Y58337D01*
X-101621Y58909D01*
X-101335Y59765D01*
Y61194D01*
X-101621Y62051D01*
X-101906Y62622D01*
X-102478Y63193D01*
X-103049Y63479D01*
X-104192D01*
X-99935D02*
Y57480D01*
Y63479D02*
X-95936Y57480D01*
Y63479D02*
Y57480D01*
X-117477Y88189D02*
X-119762Y94188D01*
X-122047Y88189D01*
X-121190Y90188D02*
X-118334D01*
X-116077Y94188D02*
Y88189D01*
Y94188D02*
X-114077D01*
X-113221Y93902D01*
X-112649Y93331D01*
X-112364Y92759D01*
X-112078Y91903D01*
Y90474D01*
X-112364Y89617D01*
X-112649Y89046D01*
X-113221Y88475D01*
X-114077Y88189D01*
X-116077D01*
X-110735Y94188D02*
Y88189D01*
Y94188D02*
X-108165D01*
X-107308Y93902D01*
X-107022Y93616D01*
X-106736Y93045D01*
Y92474D01*
X-107022Y91903D01*
X-107308Y91617D01*
X-108165Y91331D01*
X-110735D02*
X-108165D01*
X-107308Y91045D01*
X-107022Y90760D01*
X-106736Y90188D01*
Y89332D01*
X-107022Y88760D01*
X-107308Y88475D01*
X-108165Y88189D01*
X-110735D01*
D11*
X-107087Y81496D02*
G03*
X-107087Y81496I-394J0D01*
G01*
X87894Y24311D02*
G03*
X87894Y24311I-492J0D01*
G01*
X52461Y18209D02*
G03*
X52461Y18209I-492J0D01*
G01*
X-64567Y44685D02*
G03*
X-64567Y44685I-492J0D01*
G01*
D12*
X44882Y-51378D02*
G03*
X44882Y-51378I-394J0D01*
G01*
X-85827Y74409D02*
G03*
X-85827Y74409I-394J0D01*
G01*
X-42126Y73622D02*
G03*
X-42126Y73622I-394J0D01*
G01*
X-43701Y-77165D02*
G03*
X-43701Y-77165I-394J0D01*
G01*
X79331Y20866D02*
X86024D01*
X79331Y21654D02*
X86024D01*
X79331Y20866D02*
Y21654D01*
X86024Y20866D02*
Y21654D01*
X53347D02*
X60039D01*
X53347Y20866D02*
X60039D01*
Y21654D01*
X53347Y20866D02*
Y21654D01*
X28346Y-61811D02*
X32283Y-57874D01*
Y-61811D02*
Y-6693D01*
X-22835Y-61811D02*
Y-6693D01*
Y-61811D02*
X32283D01*
X-22835Y-6693D02*
X32283D01*
X-104724Y95374D02*
Y98130D01*
Y85925D02*
Y87894D01*
X-98425Y80413D02*
X-97244D01*
X-83071D02*
X-81890D01*
X-75591Y85925D02*
Y87894D01*
Y95374D02*
Y98130D01*
X-104724D02*
X-75591D01*
Y102461D01*
X-104724D02*
X-75591D01*
X-104724Y98130D02*
Y102461D01*
X44882Y94488D02*
X89764D01*
X39370Y31102D02*
Y85433D01*
Y31102D02*
X46457D01*
X92520D02*
X93701D01*
Y44488D01*
Y52362D02*
Y69685D01*
Y75984D02*
Y81890D01*
X-61417Y98032D02*
Y102362D01*
X-32283D01*
Y98032D02*
Y102362D01*
X-61417Y98032D02*
X-32283D01*
Y95276D02*
Y98032D01*
Y85827D02*
Y87795D01*
X-39764Y80315D02*
X-38583D01*
X-55118D02*
X-53937D01*
X-61417Y85827D02*
Y87795D01*
Y95276D02*
Y98032D01*
X-55020Y51968D02*
X-51968D01*
Y48031D02*
Y51968D01*
X-63779D02*
X-60728D01*
X-63779Y48031D02*
Y51968D01*
X-38583Y64370D02*
X-36968D01*
X-28386D02*
X-26772D01*
X-38583Y51378D02*
X-36968D01*
X-28386D02*
X-26772D01*
X-133858Y47244D02*
Y48031D01*
X-122441D01*
Y47244D02*
Y48031D01*
X-133858Y8268D02*
Y9055D01*
Y8268D02*
X-122441D01*
Y9055D01*
X-122047Y11024D02*
X-117717D01*
Y15354D01*
X-122047D02*
X-117717D01*
X-122047Y25197D02*
X-117717D01*
Y20866D02*
Y25197D01*
X-122047Y20866D02*
X-117717D01*
X-122047Y35039D02*
X-117717D01*
Y30709D02*
Y35039D01*
X-122047Y30709D02*
X-117717D01*
X-122047Y44882D02*
X-117717D01*
Y40551D02*
Y44882D01*
X-122047Y40551D02*
X-117717D01*
X-133858Y37402D02*
Y38583D01*
Y27559D02*
Y28740D01*
Y17717D02*
Y18898D01*
X-122441Y37402D02*
Y38583D01*
Y27559D02*
Y28740D01*
Y17717D02*
Y18898D01*
X-55512Y-67716D02*
Y-63779D01*
X-42913Y-67716D02*
Y-63779D01*
X-55512Y-75591D02*
Y-73622D01*
Y-75591D02*
X-42913D01*
Y-73622D01*
X-55512Y-57874D02*
Y-55905D01*
X-42913D01*
Y-57874D02*
Y-55905D01*
X-44882Y-75591D02*
X-42913Y-73622D01*
X-45276Y-67323D02*
X-42913D01*
X-48031Y-75591D02*
Y-73622D01*
D13*
X35335Y-61221D02*
G03*
X35335Y-61221I-492J0D01*
G01*
D14*
X-39961Y64370D02*
G03*
X-39961Y64370I-197J0D01*
G01*
X-68504Y89665D02*
X-67520Y88287D01*
X-68504D02*
X-67520D01*
X-68504Y89665D02*
X-67618D01*
X-69390D02*
X-68504D01*
X-69488Y88287D02*
X-68504D01*
X-69488D02*
X-68504Y89665D01*
X-55905Y69390D02*
X-54921Y68012D01*
X-55905D02*
X-54921D01*
X-55905Y69390D02*
X-55020D01*
X-56791D02*
X-55905D01*
X-56890Y68012D02*
X-55905D01*
X-56890D02*
X-55905Y69390D01*
D15*
X-33858Y64567D02*
G03*
X-31496Y64567I1181J0D01*
G01*
X-39438Y64370D02*
G03*
X-39438Y64370I-722J0D01*
G01*
X-31496Y64567D02*
X-26772D01*
X-38583D02*
X-33858D01*
X-38583Y51181D02*
X-26772D01*
X-21684Y44488D02*
X-17685D01*
X-21684D02*
Y46202D01*
X-21494Y46773D01*
X-21303Y46964D01*
X-20922Y47154D01*
X-20542D01*
X-20161Y46964D01*
X-19970Y46773D01*
X-19780Y46202D01*
Y44488D02*
Y46202D01*
X-19589Y46773D01*
X-19399Y46964D01*
X-19018Y47154D01*
X-18447D01*
X-18066Y46964D01*
X-17876Y46773D01*
X-17685Y46202D01*
Y44488D01*
X-21684Y49192D02*
X-21494Y48811D01*
X-21113Y48430D01*
X-20732Y48240D01*
X-20161Y48049D01*
X-19208D01*
X-18637Y48240D01*
X-18256Y48430D01*
X-17876Y48811D01*
X-17685Y49192D01*
Y49954D01*
X-17876Y50335D01*
X-18256Y50715D01*
X-18637Y50906D01*
X-19208Y51096D01*
X-20161D01*
X-20732Y50906D01*
X-21113Y50715D01*
X-21494Y50335D01*
X-21684Y49954D01*
Y49192D01*
Y53172D02*
X-21494Y52791D01*
X-21113Y52410D01*
X-20732Y52220D01*
X-20161Y52029D01*
X-19208D01*
X-18637Y52220D01*
X-18256Y52410D01*
X-17876Y52791D01*
X-17685Y53172D01*
Y53934D01*
X-17876Y54315D01*
X-18256Y54695D01*
X-18637Y54886D01*
X-19208Y55076D01*
X-20161D01*
X-20732Y54886D01*
X-21113Y54695D01*
X-21494Y54315D01*
X-21684Y53934D01*
Y53172D01*
Y57343D02*
X-17685D01*
X-21684Y56010D02*
Y58676D01*
Y59152D02*
X-18828D01*
X-18256Y59342D01*
X-17876Y59723D01*
X-17685Y60294D01*
Y60675D01*
X-17876Y61247D01*
X-18256Y61627D01*
X-18828Y61818D01*
X-21684D01*
X-21113Y65588D02*
X-21494Y65208D01*
X-21684Y64636D01*
Y63875D01*
X-21494Y63303D01*
X-21113Y62922D01*
X-20732D01*
X-20351Y63113D01*
X-20161Y63303D01*
X-19970Y63684D01*
X-19589Y64827D01*
X-19399Y65208D01*
X-19208Y65398D01*
X-18828Y65588D01*
X-18256D01*
X-17876Y65208D01*
X-17685Y64636D01*
Y63875D01*
X-17876Y63303D01*
X-18256Y62922D01*
X-21684Y66483D02*
X-17685D01*
X-21684D02*
Y68197D01*
X-21494Y68769D01*
X-21303Y68959D01*
X-20922Y69150D01*
X-20542D01*
X-20161Y68959D01*
X-19970Y68769D01*
X-19780Y68197D01*
Y66483D02*
Y68197D01*
X-19589Y68769D01*
X-19399Y68959D01*
X-19018Y69150D01*
X-18447D01*
X-18066Y68959D01*
X-17876Y68769D01*
X-17685Y68197D01*
Y66483D01*
X8965Y5396D02*
X8584Y5777D01*
X8013Y5968D01*
X7251D01*
X6680Y5777D01*
X6299Y5396D01*
Y5015D01*
X6490Y4635D01*
X6680Y4444D01*
X7061Y4254D01*
X8204Y3873D01*
X8584Y3682D01*
X8775Y3492D01*
X8965Y3111D01*
Y2540D01*
X8584Y2159D01*
X8013Y1969D01*
X7251D01*
X6680Y2159D01*
X6299Y2540D01*
X9860Y5968D02*
X10813Y1969D01*
X11765Y5968D02*
X10813Y1969D01*
X11765Y5968D02*
X12717Y1969D01*
X13669Y5968D02*
X12717Y1969D01*
X14469Y635D02*
X17516D01*
X18030Y3873D02*
X19744D01*
X20315Y4063D01*
X20506Y4254D01*
X20696Y4635D01*
Y5206D01*
X20506Y5587D01*
X20315Y5777D01*
X19744Y5968D01*
X18030D01*
Y1969D01*
X21591Y5968D02*
X22543Y1969D01*
X23495Y5968D02*
X22543Y1969D01*
X23495Y5968D02*
X24448Y1969D01*
X25400Y5968D02*
X24448Y1969D01*
X26200Y5968D02*
Y1969D01*
Y5968D02*
X27914D01*
X28485Y5777D01*
X28675Y5587D01*
X28866Y5206D01*
Y4825D01*
X28675Y4444D01*
X28485Y4254D01*
X27914Y4063D01*
X26200D01*
X27533D02*
X28866Y1969D01*
X31890Y16598D02*
Y12598D01*
Y16598D02*
X33604D01*
X34175Y16407D01*
X34365Y16217D01*
X34556Y15836D01*
Y15455D01*
X34365Y15074D01*
X34175Y14884D01*
X33604Y14693D01*
X31890D02*
X33604D01*
X34175Y14503D01*
X34365Y14312D01*
X34556Y13931D01*
Y13360D01*
X34365Y12979D01*
X34175Y12789D01*
X33604Y12598D01*
X31890D01*
X36593Y16598D02*
X36213Y16407D01*
X35832Y16026D01*
X35641Y15645D01*
X35451Y15074D01*
Y14122D01*
X35641Y13551D01*
X35832Y13170D01*
X36213Y12789D01*
X36593Y12598D01*
X37355D01*
X37736Y12789D01*
X38117Y13170D01*
X38307Y13551D01*
X38498Y14122D01*
Y15074D01*
X38307Y15645D01*
X38117Y16026D01*
X37736Y16407D01*
X37355Y16598D01*
X36593D01*
X40574D02*
X40193Y16407D01*
X39812Y16026D01*
X39621Y15645D01*
X39431Y15074D01*
Y14122D01*
X39621Y13551D01*
X39812Y13170D01*
X40193Y12789D01*
X40574Y12598D01*
X41335D01*
X41716Y12789D01*
X42097Y13170D01*
X42287Y13551D01*
X42478Y14122D01*
Y15074D01*
X42287Y15645D01*
X42097Y16026D01*
X41716Y16407D01*
X41335Y16598D01*
X40574D01*
X44744D02*
Y12598D01*
X43411Y16598D02*
X46077D01*
X46553Y15836D02*
X46934Y16026D01*
X47506Y16598D01*
Y12598D01*
X75743Y-35863D02*
Y-39862D01*
X74409Y-35863D02*
X77075D01*
X80408Y-36815D02*
X80218Y-36434D01*
X79837Y-36053D01*
X79456Y-35863D01*
X78694D01*
X78313Y-36053D01*
X77933Y-36434D01*
X77742Y-36815D01*
X77552Y-37387D01*
Y-38339D01*
X77742Y-38910D01*
X77933Y-39291D01*
X78313Y-39672D01*
X78694Y-39862D01*
X79456D01*
X79837Y-39672D01*
X80218Y-39291D01*
X80408Y-38910D01*
X81532Y-35863D02*
Y-39862D01*
X84198Y-35863D02*
X81532Y-38529D01*
X82484Y-37577D02*
X84198Y-39862D01*
X75743Y-41375D02*
Y-45374D01*
X74409Y-41375D02*
X77075D01*
X77552D02*
Y-45374D01*
Y-41375D02*
X79075Y-45374D01*
X80599Y-41375D02*
X79075Y-45374D01*
X80599Y-41375D02*
Y-45374D01*
X84407Y-41946D02*
X84026Y-41565D01*
X83455Y-41375D01*
X82693D01*
X82122Y-41565D01*
X81741Y-41946D01*
Y-42327D01*
X81932Y-42708D01*
X82122Y-42898D01*
X82503Y-43089D01*
X83646Y-43470D01*
X84026Y-43660D01*
X84217Y-43850D01*
X84407Y-44231D01*
Y-44803D01*
X84026Y-45184D01*
X83455Y-45374D01*
X82693D01*
X82122Y-45184D01*
X81741Y-44803D01*
X75743Y-46887D02*
Y-50886D01*
X74409Y-46887D02*
X77075D01*
X77552D02*
Y-50886D01*
Y-46887D02*
X78885D01*
X79456Y-47077D01*
X79837Y-47458D01*
X80027Y-47839D01*
X80218Y-48410D01*
Y-49362D01*
X80027Y-49934D01*
X79837Y-50314D01*
X79456Y-50695D01*
X78885Y-50886D01*
X77552D01*
X81113Y-46887D02*
Y-50886D01*
X75743Y-52399D02*
Y-56398D01*
X74409Y-52399D02*
X77075D01*
X77552D02*
Y-56398D01*
Y-52399D02*
X78885D01*
X79456Y-52589D01*
X79837Y-52970D01*
X80027Y-53351D01*
X80218Y-53922D01*
Y-54874D01*
X80027Y-55445D01*
X79837Y-55826D01*
X79456Y-56207D01*
X78885Y-56398D01*
X77552D01*
X82255Y-52399D02*
X81875Y-52589D01*
X81494Y-52970D01*
X81303Y-53351D01*
X81113Y-53922D01*
Y-54874D01*
X81303Y-55445D01*
X81494Y-55826D01*
X81875Y-56207D01*
X82255Y-56398D01*
X83017D01*
X83398Y-56207D01*
X83779Y-55826D01*
X83969Y-55445D01*
X84160Y-54874D01*
Y-53922D01*
X83969Y-53351D01*
X83779Y-52970D01*
X83398Y-52589D01*
X83017Y-52399D01*
X82255D01*
X74790Y-57910D02*
X76885D01*
X75743Y-59434D01*
X76314D01*
X76695Y-59624D01*
X76885Y-59815D01*
X77075Y-60386D01*
Y-60767D01*
X76885Y-61338D01*
X76504Y-61719D01*
X75933Y-61910D01*
X75362D01*
X74790Y-61719D01*
X74600Y-61529D01*
X74409Y-61148D01*
X77971Y-57910D02*
X79494Y-61910D01*
X81018Y-57910D02*
X79494Y-61910D01*
X81913Y-57910D02*
X84007D01*
X82865Y-59434D01*
X83436D01*
X83817Y-59624D01*
X84007Y-59815D01*
X84198Y-60386D01*
Y-60767D01*
X84007Y-61338D01*
X83627Y-61719D01*
X83055Y-61910D01*
X82484D01*
X81913Y-61719D01*
X81722Y-61529D01*
X81532Y-61148D01*
X75552Y-30351D02*
X74981Y-30542D01*
X74600Y-31113D01*
X74409Y-32065D01*
Y-32636D01*
X74600Y-33589D01*
X74981Y-34160D01*
X75552Y-34350D01*
X75933D01*
X76504Y-34160D01*
X76885Y-33589D01*
X77075Y-32636D01*
Y-32065D01*
X76885Y-31113D01*
X76504Y-30542D01*
X75933Y-30351D01*
X75552D01*
X-85318Y46202D02*
X-81890D01*
X-83604Y44488D02*
Y47916D01*
X-97700Y44449D02*
X-93701D01*
X-97700D02*
X-93701Y47115D01*
X-97700D02*
X-93701D01*
X-97700Y49553D02*
X-93701D01*
X-97700Y48219D02*
Y50886D01*
X-96748Y54218D02*
X-97129Y54028D01*
X-97509Y53647D01*
X-97700Y53266D01*
Y52504D01*
X-97509Y52123D01*
X-97129Y51743D01*
X-96748Y51552D01*
X-96176Y51362D01*
X-95224D01*
X-94653Y51552D01*
X-94272Y51743D01*
X-93891Y52123D01*
X-93701Y52504D01*
Y53266D01*
X-93891Y53647D01*
X-94272Y54028D01*
X-94653Y54218D01*
X-101320Y44488D02*
Y47916D01*
X-91401Y44488D02*
X-87402D01*
X-87783Y45517D02*
X-87592Y45326D01*
X-87402Y45517D01*
X-87592Y45707D01*
X-87783Y45517D01*
X-91401Y46583D02*
X-87402D01*
X-91401D02*
Y47916D01*
X-91210Y48487D01*
X-90829Y48868D01*
X-90449Y49059D01*
X-89877Y49249D01*
X-88925D01*
X-88354Y49059D01*
X-87973Y48868D01*
X-87592Y48487D01*
X-87402Y47916D01*
Y46583D01*
X-69582Y63880D02*
X-69963Y63690D01*
X-70344Y63309D01*
X-70535Y62928D01*
Y62166D01*
X-70344Y61785D01*
X-69963Y61405D01*
X-69582Y61214D01*
X-69011Y61024D01*
X-68059D01*
X-67488Y61214D01*
X-67107Y61405D01*
X-66726Y61785D01*
X-66535Y62166D01*
Y62928D01*
X-66726Y63309D01*
X-67107Y63690D01*
X-67488Y63880D01*
X-70535Y65004D02*
X-66535D01*
X-70535Y67670D02*
X-66535D01*
X-68630Y65004D02*
Y67670D01*
X-69582Y71631D02*
X-69963Y71440D01*
X-70344Y71060D01*
X-70535Y70679D01*
Y69917D01*
X-70344Y69536D01*
X-69963Y69155D01*
X-69582Y68965D01*
X-69011Y68774D01*
X-68059D01*
X-67488Y68965D01*
X-67107Y69155D01*
X-66726Y69536D01*
X-66535Y69917D01*
Y70679D01*
X-66726Y71060D01*
X-67107Y71440D01*
X-67488Y71631D01*
X-68059D01*
Y70679D02*
Y71631D01*
X39039Y-25984D02*
X35039D01*
X39039D02*
X35039Y-27508D01*
X39039Y-29031D02*
X35039Y-27508D01*
X39039Y-29031D02*
X35039D01*
X38277Y-30174D02*
X38467Y-30555D01*
X39039Y-31126D01*
X35039D01*
X46519Y-25984D02*
X42520D01*
X46519D02*
X42520Y-27508D01*
X46519Y-29031D02*
X42520Y-27508D01*
X46519Y-29031D02*
X42520D01*
X45567Y-30364D02*
X45757D01*
X46138Y-30555D01*
X46328Y-30745D01*
X46519Y-31126D01*
Y-31888D01*
X46328Y-32269D01*
X46138Y-32459D01*
X45757Y-32649D01*
X45376D01*
X44995Y-32459D01*
X44424Y-32078D01*
X42520Y-30174D01*
Y-32840D01*
X50000Y-13717D02*
Y-17717D01*
X52285D01*
X52723Y-14479D02*
X53104Y-14289D01*
X53675Y-13717D01*
Y-17717D01*
X57087Y-13717D02*
Y-17717D01*
X59372D01*
X60000Y-14670D02*
Y-14479D01*
X60191Y-14098D01*
X60381Y-13908D01*
X60762Y-13717D01*
X61524D01*
X61905Y-13908D01*
X62095Y-14098D01*
X62286Y-14479D01*
Y-14860D01*
X62095Y-15241D01*
X61714Y-15812D01*
X59810Y-17717D01*
X62476D01*
X-113640Y44373D02*
Y40945D01*
X-115354Y42659D02*
X-111926D01*
X-116535Y35102D02*
Y31102D01*
Y35102D02*
X-113869Y31102D01*
Y35102D02*
Y31102D01*
X-111432Y35102D02*
Y31102D01*
X-112765Y35102D02*
X-110099D01*
X-106766Y34149D02*
X-106957Y34530D01*
X-107337Y34911D01*
X-107718Y35102D01*
X-108480D01*
X-108861Y34911D01*
X-109242Y34530D01*
X-109432Y34149D01*
X-109623Y33578D01*
Y32626D01*
X-109432Y32054D01*
X-109242Y31674D01*
X-108861Y31293D01*
X-108480Y31102D01*
X-107718D01*
X-107337Y31293D01*
X-106957Y31674D01*
X-106766Y32054D01*
X-115354Y22974D02*
X-111926D01*
X-114961Y15416D02*
Y11417D01*
X-113932Y11798D02*
X-114123Y11608D01*
X-113932Y11417D01*
X-113742Y11608D01*
X-113932Y11798D01*
X-112866Y15416D02*
Y11417D01*
Y15416D02*
X-111533D01*
X-110961Y15226D01*
X-110581Y14845D01*
X-110390Y14464D01*
X-110200Y13893D01*
Y12941D01*
X-110390Y12370D01*
X-110581Y11989D01*
X-110961Y11608D01*
X-111533Y11417D01*
X-112866D01*
D16*
X-58793Y-51370D02*
G03*
X-58793Y-51370I-707J0D01*
G01*
D17*
X-81890Y39370D02*
Y42520D01*
X-103937D02*
X-81890D01*
X-103937Y39370D02*
Y42520D01*
X-106299Y22441D02*
X-101969D01*
X-106299D02*
Y32283D01*
X-83858Y22441D02*
X-79528D01*
Y32283D01*
X-103150Y38189D02*
X-82677D01*
X109990Y-72638D02*
Y-61811D01*
X102628D02*
X109990D01*
X102628Y-72638D02*
X109990D01*
X102628D02*
Y-61811D01*
X-121811Y-72716D02*
Y-61890D01*
Y-72716D02*
X-114449D01*
X-121811Y-61890D02*
X-114449D01*
Y-72716D02*
Y-61890D01*
X-118504Y55709D02*
X-116142D01*
X-118504Y82087D02*
X-116142D01*
X-122441Y57480D02*
Y80315D01*
X-112205Y68504D02*
Y75197D01*
X984Y44094D02*
X1969D01*
X984D02*
Y45079D01*
Y54921D02*
Y55905D01*
X1969D01*
X9843Y44094D02*
X10827D01*
Y45079D01*
X9843Y55905D02*
X10827D01*
Y54921D02*
Y55905D01*
X42618Y-48130D02*
Y-45768D01*
X34744Y-48130D02*
Y-45768D01*
X37894Y-41831D02*
X39469D01*
X37894Y-52067D02*
X39469D01*
D18*
X5906Y64961D02*
X7087Y66142D01*
X5906Y64961D02*
X7087Y63779D01*
X5906Y64961D02*
X9055D01*
X4724Y65748D02*
Y66142D01*
Y64173D02*
Y64567D01*
Y67323D02*
Y67716D01*
Y62598D02*
Y62992D01*
Y61024D02*
Y61417D01*
Y68898D02*
Y69291D01*
Y70472D02*
Y70866D01*
X3543Y71260D02*
X3937D01*
X2362D02*
X2756D01*
X4724Y59449D02*
Y59842D01*
X3543Y58661D02*
X3937D01*
X2362D02*
X2756D01*
X1575Y68110D02*
Y72047D01*
X11811D01*
Y70866D02*
Y72047D01*
X1575Y57874D02*
Y61811D01*
Y57874D02*
X11811D01*
Y59055D01*
X-394Y58661D02*
X1575D01*
X-394D02*
X-394Y61811D01*
X-394Y68110D02*
Y71260D01*
X1575D01*
X-59850Y-29520D02*
X-58800D01*
X-40150Y-30570D02*
Y-29520D01*
X-59850Y-49220D02*
Y-48170D01*
X-40150Y-49220D02*
Y-48170D01*
X-41200Y-29520D02*
X-40150D01*
X-59850Y-30570D02*
Y-29520D01*
Y-49220D02*
X-58800D01*
X-41200D02*
X-40150D01*
D19*
X19291Y71260D02*
Y76772D01*
X13780Y75590D02*
Y76772D01*
X24803D01*
Y75590D02*
Y76772D01*
Y71260D02*
Y72441D01*
X13780Y71260D02*
X24803D01*
X13780D02*
Y72441D01*
X12992Y85433D02*
Y86221D01*
X20866D01*
Y85433D02*
Y86221D01*
Y82284D02*
Y83071D01*
X12992Y82284D02*
X20866D01*
X12992D02*
Y83071D01*
X17323Y77528D02*
Y81528D01*
X21823Y77528D02*
Y78028D01*
X12823Y77528D02*
X21823D01*
X12823D02*
Y78028D01*
Y81028D02*
Y81528D01*
X21823D01*
Y81028D02*
Y81528D01*
X25197Y71260D02*
Y72441D01*
Y71260D02*
X36220D01*
Y72441D01*
Y75590D02*
Y76772D01*
X25197D02*
X36220D01*
X25197Y75590D02*
Y76772D01*
X30709Y71260D02*
Y76772D01*
X-41732Y-75197D02*
X-40945D01*
X-41732D02*
Y-67323D01*
X-40945D01*
X-38583D02*
X-37795D01*
Y-75197D02*
Y-67323D01*
X-38583Y-75197D02*
X-37795D01*
X-62598Y-58661D02*
X-57087D01*
X-57842Y-53661D02*
X-57087D01*
Y-63661D02*
Y-53661D01*
X-57842Y-63661D02*
X-57087D01*
X-62598D02*
X-61843D01*
X-62598D02*
Y-53661D01*
X-61843D01*
X-110630Y-59055D02*
X-109843D01*
X-110630Y-66929D02*
Y-59055D01*
Y-66929D02*
X-109843D01*
X-107480D02*
X-106693D01*
Y-59055D01*
X-107480D02*
X-106693D01*
X102362Y-59449D02*
Y-58661D01*
Y-59449D02*
X110236D01*
Y-58661D01*
Y-56299D02*
Y-55512D01*
X102362D02*
X110236D01*
X102362Y-56299D02*
Y-55512D01*
X7874Y77528D02*
Y81528D01*
X3374Y81028D02*
Y81528D01*
X12374D01*
Y81028D02*
Y81528D01*
Y77528D02*
Y78028D01*
X3374Y77528D02*
X12374D01*
X3374D02*
Y78028D01*
X12205Y82284D02*
Y83071D01*
X4331Y82284D02*
X12205D01*
X4331D02*
Y83071D01*
Y85433D02*
Y86221D01*
X12205D01*
Y85433D02*
Y86221D01*
X-32283Y-20472D02*
Y-19685D01*
Y-20472D02*
X-24409D01*
Y-19685D01*
Y-17323D02*
Y-16535D01*
X-32283D02*
X-24409D01*
X-32283Y-17323D02*
Y-16535D01*
X-33203Y-14173D02*
Y-13386D01*
X-41077Y-14173D02*
X-33203D01*
X-41077D02*
Y-13386D01*
Y-11024D02*
Y-10236D01*
X-33203D01*
Y-11024D02*
Y-10236D01*
X-41077Y-17323D02*
Y-16535D01*
X-33203D01*
Y-17323D02*
Y-16535D01*
Y-20472D02*
Y-19685D01*
X-41077Y-20472D02*
X-33203D01*
X-41077D02*
Y-19685D01*
Y-9449D02*
Y-8661D01*
Y-9449D02*
X-33203D01*
Y-8661D01*
Y-6299D02*
Y-5512D01*
X-41077D02*
X-33203D01*
X-41077Y-6299D02*
Y-5512D01*
X35039Y1543D02*
Y5543D01*
X30539Y5043D02*
Y5543D01*
X39539D01*
Y5043D02*
Y5543D01*
Y1543D02*
Y2043D01*
X30539Y1543D02*
X39539D01*
X30539D02*
Y2043D01*
X-64173Y-36614D02*
Y-35827D01*
X-72047D02*
X-64173D01*
X-72047Y-36614D02*
Y-35827D01*
Y-39764D02*
Y-38976D01*
Y-39764D02*
X-64173D01*
Y-38976D01*
X-21685Y74803D02*
X-17685D01*
X-18185Y79303D02*
X-17685D01*
Y70303D02*
Y79303D01*
X-18185Y70303D02*
X-17685D01*
X-21685D02*
X-21185D01*
X-21685D02*
Y79303D01*
X-21185D01*
X81665Y12917D02*
Y13417D01*
X72665D02*
X81665D01*
X72665Y12917D02*
Y13417D01*
Y9417D02*
Y9917D01*
Y9417D02*
X81665D01*
Y9917D01*
X77165Y9417D02*
Y13417D01*
X74410Y25197D02*
Y25984D01*
X66535D02*
X74410D01*
X66535Y25197D02*
Y25984D01*
Y22047D02*
Y22835D01*
Y22047D02*
X74410D01*
Y22835D01*
X95276Y19291D02*
Y20079D01*
X87402D02*
X95276D01*
X87402Y19291D02*
Y20079D01*
Y16142D02*
Y16929D01*
Y16142D02*
X95276D01*
Y16929D01*
X77559Y20079D02*
Y21260D01*
X66535D02*
X77559D01*
X66535Y20079D02*
Y21260D01*
Y15748D02*
Y16929D01*
Y15748D02*
X77559D01*
Y16929D01*
X72047Y15748D02*
Y21260D01*
X54555Y11779D02*
Y12280D01*
Y11779D02*
X63555D01*
Y12280D01*
Y15280D02*
Y15779D01*
X54555D02*
X63555D01*
X54555Y15280D02*
Y15779D01*
X59055Y11779D02*
Y15779D01*
X44094Y22047D02*
Y22835D01*
Y22047D02*
X51968D01*
Y22835D01*
Y25197D02*
Y25984D01*
X44094D02*
X51968D01*
X44094Y25197D02*
Y25984D01*
X15748Y48425D02*
X16535D01*
Y40551D02*
Y48425D01*
X15748Y40551D02*
X16535D01*
X12598D02*
X13386D01*
X12598D02*
Y48425D01*
X13386D01*
X-41957Y22760D02*
Y23260D01*
X-50957D02*
X-41957D01*
X-50957Y22760D02*
Y23260D01*
Y19260D02*
Y19760D01*
Y19260D02*
X-41957D01*
Y19760D01*
X-46457Y19260D02*
Y23260D01*
X-92913Y65323D02*
Y69323D01*
X-97413Y68823D02*
Y69323D01*
X-88413D01*
Y68823D02*
Y69323D01*
Y65323D02*
Y65823D01*
X-97413Y65323D02*
X-88413D01*
X-97413D02*
Y65823D01*
X42882Y-66535D02*
X46882D01*
X46382Y-62035D02*
X46882D01*
Y-71035D02*
Y-62035D01*
X46382Y-71035D02*
X46882D01*
X42882D02*
X43382D01*
X42882D02*
Y-62035D01*
X43382D01*
X42882Y-76378D02*
X46882D01*
X46382Y-71878D02*
X46882D01*
Y-80878D02*
Y-71878D01*
X46382Y-80878D02*
X46882D01*
X42882D02*
X43382D01*
X42882D02*
Y-71878D01*
X43382D01*
X37402Y-80740D02*
Y-76740D01*
X32902Y-77240D02*
Y-76740D01*
X41902D01*
Y-77240D02*
Y-76740D01*
Y-80740D02*
Y-80240D01*
X32902Y-80740D02*
X41902D01*
X32902D02*
Y-80240D01*
X42520Y-85858D02*
Y-81858D01*
X47020Y-85858D02*
Y-85358D01*
X38020Y-85858D02*
X47020D01*
X38020D02*
Y-85358D01*
Y-82358D02*
Y-81858D01*
X47020D01*
Y-82358D02*
Y-81858D01*
X-24803Y-5906D02*
X-24016D01*
Y-13780D02*
Y-5906D01*
X-24803Y-13780D02*
X-24016D01*
X-27953D02*
X-27165D01*
X-27953D02*
Y-5906D01*
X-27165D01*
X24409Y-67323D02*
Y-66535D01*
Y-67323D02*
X32283D01*
Y-66535D01*
Y-64173D02*
Y-63386D01*
X24409D02*
X32283D01*
X24409Y-64173D02*
Y-63386D01*
X44882Y-41339D02*
X45669D01*
X44882Y-49213D02*
Y-41339D01*
Y-49213D02*
X45669D01*
X48031D02*
X48819D01*
Y-41339D01*
X48031D02*
X48819D01*
X15748Y57087D02*
X16535D01*
Y49213D02*
Y57087D01*
X15748Y49213D02*
X16535D01*
X12598D02*
X13386D01*
X12598D02*
Y57087D01*
X13386D01*
X-29528Y49213D02*
Y50394D01*
X-40551D02*
X-29528D01*
X-40551Y49213D02*
Y50394D01*
Y44882D02*
Y46063D01*
Y44882D02*
X-29528D01*
Y46063D01*
X-35039Y44882D02*
Y50394D01*
X-47244Y48425D02*
X-46457D01*
Y56299D01*
X-47244D02*
X-46457D01*
X-50394D02*
X-49606D01*
X-50394Y48425D02*
Y56299D01*
Y48425D02*
X-49606D01*
X-42126D02*
X-41339D01*
Y56299D01*
X-42126D02*
X-41339D01*
X-45276D02*
X-44488D01*
X-45276Y48425D02*
Y56299D01*
Y48425D02*
X-44488D01*
X-45276Y64961D02*
X-44488D01*
X-45276Y57087D02*
Y64961D01*
Y57087D02*
X-44488D01*
X-42126D02*
X-41339D01*
Y64961D01*
X-42126D02*
X-41339D01*
X-40945Y70866D02*
Y71654D01*
Y70866D02*
X-33071D01*
Y71654D01*
Y74016D02*
Y74803D01*
X-40945D02*
X-33071D01*
X-40945Y74016D02*
Y74803D01*
X-24409Y74016D02*
Y74803D01*
X-32283D02*
X-24409D01*
X-32283Y74016D02*
Y74803D01*
Y70866D02*
Y71654D01*
Y70866D02*
X-24409D01*
Y71654D01*
X-47638Y57087D02*
X-46457D01*
Y68110D01*
X-47638D02*
X-46457D01*
X-51968D02*
X-50787D01*
X-51968Y57087D02*
Y68110D01*
Y57087D02*
X-50787D01*
X-51968Y62599D02*
X-46457D01*
X-71260Y88976D02*
X-69882D01*
X-67126D02*
X-65748D01*
X-66504Y82976D02*
X-65748D01*
Y94882D01*
X-67504Y94476D02*
X-65748D01*
X-71260D02*
X-69504D01*
X-71260Y82976D02*
Y94882D01*
Y82976D02*
X-70504D01*
X-65748Y94476D02*
Y94976D01*
X-67504D02*
X-65748D01*
X-67504Y94476D02*
Y94976D01*
X-71260Y94476D02*
Y94976D01*
X-69504D01*
Y94476D02*
Y94976D01*
X-58661Y68701D02*
X-57284D01*
X-54528D02*
X-53150D01*
X-56906Y74201D02*
Y74701D01*
X-58661D02*
X-56906D01*
X-58661Y74201D02*
Y74701D01*
X-54905Y74201D02*
Y74701D01*
X-53150D01*
Y74201D02*
Y74701D01*
X-58661Y62701D02*
X-57906D01*
X-58661D02*
Y74606D01*
Y74201D02*
X-56906D01*
X-54905D02*
X-53150D01*
Y62701D02*
Y74606D01*
X-53905Y62701D02*
X-53150D01*
X-70504Y82059D02*
X-70004D01*
X-70504Y73059D02*
Y82059D01*
Y73059D02*
X-70004D01*
X-67004D02*
X-66504D01*
Y82059D01*
X-67004D02*
X-66504D01*
X-70504Y77559D02*
X-66504D01*
X32902Y-76016D02*
Y-75516D01*
Y-76016D02*
X41902D01*
Y-75516D01*
Y-72516D02*
Y-72016D01*
X32902D02*
X41902D01*
X32902Y-72516D02*
Y-72016D01*
X37402Y-76016D02*
Y-72016D01*
X-53374Y60949D02*
Y61449D01*
X-62374D02*
X-53374D01*
X-62374Y60949D02*
Y61449D01*
Y57449D02*
Y57949D01*
Y57449D02*
X-53374D01*
Y57949D01*
X-57874Y57449D02*
Y61449D01*
X-42295Y65717D02*
Y66217D01*
Y65717D02*
X-33295D01*
Y66217D01*
Y69217D02*
Y69717D01*
X-42295D02*
X-33295D01*
X-42295Y69217D02*
Y69717D01*
X-37795Y65717D02*
Y69717D01*
X-23059Y69217D02*
Y69717D01*
X-32059D02*
X-23059D01*
X-32059Y69217D02*
Y69717D01*
Y65717D02*
Y66217D01*
Y65717D02*
X-23059D01*
Y66217D01*
X-27559Y65717D02*
Y69717D01*
X-102394Y74579D02*
X-101894D01*
X-102394Y65579D02*
Y74579D01*
Y65579D02*
X-101894D01*
X-98894D02*
X-98394D01*
Y74579D01*
X-98894D02*
X-98394D01*
X-102394Y70079D02*
X-98394D01*
X33858Y-9449D02*
X34646D01*
X33858Y-17323D02*
Y-9449D01*
Y-17323D02*
X34646D01*
X37008D02*
X37795D01*
Y-9449D01*
X37008D02*
X37795D01*
X30484Y16067D02*
Y16567D01*
X21484D02*
X30484D01*
X21484Y16067D02*
Y16567D01*
Y12567D02*
Y13067D01*
Y12567D02*
X30484D01*
Y13067D01*
X25984Y12567D02*
Y16567D01*
X33890Y77677D02*
X34646D01*
Y87677D01*
X33890D02*
X34646D01*
X29134D02*
X29890D01*
X29134Y77677D02*
Y87677D01*
Y77677D02*
X29890D01*
X29134Y82677D02*
X34646D01*
X-35433Y-28740D02*
X-34646D01*
X-35433Y-36614D02*
Y-28740D01*
Y-36614D02*
X-34646D01*
X-32283D02*
X-31496D01*
Y-28740D01*
X-32283D02*
X-31496D01*
X-71653Y-50000D02*
X-64567D01*
X-66142Y-56693D02*
X-64567D01*
Y-43307D01*
X-66142D02*
X-64567D01*
X-71653D02*
X-70079D01*
X-71653Y-56693D02*
Y-43307D01*
Y-56693D02*
X-70079D01*
X-83465Y-45669D02*
Y-44882D01*
Y-45669D02*
X-75590D01*
Y-44882D01*
Y-42520D02*
Y-41732D01*
X-83465D02*
X-75590D01*
X-83465Y-42520D02*
Y-41732D01*
X-72835Y-27165D02*
X-72047D01*
X-72835Y-35039D02*
Y-27165D01*
Y-35039D02*
X-72047D01*
X-69685D02*
X-68898D01*
Y-27165D01*
X-69685D02*
X-68898D01*
X-68110Y-25984D02*
X-67323D01*
X-68110Y-33858D02*
Y-25984D01*
Y-33858D02*
X-67323D01*
X-64961D02*
X-64173D01*
Y-25984D01*
X-64961D02*
X-64173D01*
X-80709Y-29528D02*
X-73622D01*
X-80709Y-22835D02*
X-79134D01*
X-80709Y-36220D02*
Y-22835D01*
Y-36220D02*
X-79134D01*
X-75197D02*
X-73622D01*
Y-22835D01*
X-75197D02*
X-73622D01*
X-69685Y-26378D02*
X-68898D01*
Y-18504D01*
X-69685D02*
X-68898D01*
X-72835D02*
X-72047D01*
X-72835Y-26378D02*
Y-18504D01*
Y-26378D02*
X-72047D01*
X-58661Y-24803D02*
Y-24016D01*
Y-24803D02*
X-50787D01*
Y-24016D01*
Y-21654D02*
Y-20866D01*
X-58661D02*
X-50787D01*
X-58661Y-21654D02*
Y-20866D01*
X-54724Y-20079D02*
Y-12992D01*
X-61417Y-20079D02*
Y-18504D01*
Y-20079D02*
X-48031D01*
Y-18504D01*
Y-14567D02*
Y-12992D01*
X-61417D02*
X-48031D01*
X-61417Y-14567D02*
Y-12992D01*
X-83465Y-40945D02*
Y-40157D01*
Y-40945D02*
X-75590D01*
Y-40157D01*
Y-37795D02*
Y-37008D01*
X-83465D02*
X-75590D01*
X-83465Y-37795D02*
Y-37008D01*
X-50000Y-96095D02*
Y-92094D01*
X-45500Y-96095D02*
Y-95595D01*
X-54500Y-96095D02*
X-45500D01*
X-54500D02*
Y-95595D01*
Y-92594D02*
Y-92094D01*
X-45500D01*
Y-92594D02*
Y-92094D01*
X-40382Y-87476D02*
Y-86976D01*
X-49382D02*
X-40382D01*
X-49382Y-87476D02*
Y-86976D01*
Y-90976D02*
Y-90476D01*
Y-90976D02*
X-40382D01*
Y-90476D01*
X-44882Y-90976D02*
Y-86976D01*
X-54362Y-86614D02*
X-50362D01*
X-54362Y-91114D02*
X-53862D01*
X-54362D02*
Y-82114D01*
X-53862D01*
X-50862D02*
X-50362D01*
Y-91114D02*
Y-82114D01*
X-50862Y-91114D02*
X-50362D01*
X-44882Y-86252D02*
Y-82252D01*
X-40382Y-86252D02*
Y-85752D01*
X-49382Y-86252D02*
X-40382D01*
X-49382D02*
Y-85752D01*
Y-82752D02*
Y-82252D01*
X-40382D01*
Y-82752D02*
Y-82252D01*
X-50000Y-81134D02*
Y-77134D01*
X-54500Y-77634D02*
Y-77134D01*
X-45500D01*
Y-77634D02*
Y-77134D01*
Y-81134D02*
Y-80634D01*
X-54500Y-81134D02*
X-45500D01*
X-54500D02*
Y-80634D01*
X-28346Y-60236D02*
X-27559D01*
X-28346D02*
Y-52362D01*
X-27559D01*
X-25197D02*
X-24409D01*
Y-60236D02*
Y-52362D01*
X-25197Y-60236D02*
X-24409D01*
D20*
X34252Y-24409D02*
Y-18898D01*
X39764D01*
Y-24409D02*
Y-18898D01*
X34252Y-24409D02*
X39764D01*
X56693D02*
Y-18898D01*
X62205D01*
Y-24409D02*
Y-18898D01*
X56693Y-24409D02*
X62205D01*
X41732D02*
Y-18898D01*
X47244D01*
Y-24409D02*
Y-18898D01*
X41732Y-24409D02*
X47244D01*
X49213Y-18898D02*
X54724D01*
Y-24409D02*
Y-18898D01*
X49213Y-24409D02*
X54724D01*
X49213D02*
Y-18898D01*
X-30315Y-61024D02*
Y-54724D01*
X-41339D02*
X-30315D01*
X-41339Y-61024D02*
Y-54724D01*
Y-61024D02*
X-30315D01*
M02*
