G04*
G04 #@! TF.GenerationSoftware,Altium Limited,Altium Designer,22.0.2 (36)*
G04*
G04 Layer_Color=32896*
%FSLAX25Y25*%
%MOIN*%
G70*
G04*
G04 #@! TF.SameCoordinates,2161BBB5-3730-4A37-975F-558EB53CE70B*
G04*
G04*
G04 #@! TF.FilePolarity,Positive*
G04*
G01*
G75*
%ADD10C,0.01000*%
%ADD11C,0.00984*%
%ADD12C,0.00787*%
%ADD13C,0.01968*%
%ADD14C,0.00394*%
%ADD15C,0.00800*%
%ADD17C,0.00500*%
%ADD19C,0.00591*%
%ADD181C,0.02362*%
%ADD182C,0.01575*%
%ADD183R,1.14173X0.23622*%
D10*
X68167Y48201D02*
G03*
X68167Y51012I1125J1406D01*
G01*
X72791Y49606D02*
G03*
X72791Y49606I-3500J0D01*
G01*
X105896Y61207D02*
X106372Y60969D01*
X106849Y60492D01*
X107087Y59778D01*
Y59302D01*
X106849Y58588D01*
X106372Y58112D01*
X105896Y57874D01*
X105182D01*
X104706Y58112D01*
X104230Y58588D01*
X103992Y59302D01*
Y59778D01*
X104230Y60492D01*
X104706Y60969D01*
X105182Y61207D01*
X105896D01*
X102897D02*
Y56208D01*
Y60492D02*
X102421Y60969D01*
X101945Y61207D01*
X101231D01*
X100755Y60969D01*
X100278Y60492D01*
X100040Y59778D01*
Y59302D01*
X100278Y58588D01*
X100755Y58112D01*
X101231Y57874D01*
X101945D01*
X102421Y58112D01*
X102897Y58588D01*
X98969Y59778D02*
X96113D01*
Y60254D01*
X96351Y60730D01*
X96589Y60969D01*
X97065Y61207D01*
X97779D01*
X98255Y60969D01*
X98731Y60492D01*
X98969Y59778D01*
Y59302D01*
X98731Y58588D01*
X98255Y58112D01*
X97779Y57874D01*
X97065D01*
X96589Y58112D01*
X96113Y58588D01*
X95042Y61207D02*
Y57874D01*
Y60254D02*
X94327Y60969D01*
X93851Y61207D01*
X93137D01*
X92661Y60969D01*
X92423Y60254D01*
Y57874D01*
X88495Y60492D02*
X88733Y60969D01*
X89447Y61207D01*
X90162D01*
X90876Y60969D01*
X91114Y60492D01*
X90876Y60016D01*
X90400Y59778D01*
X89210Y59540D01*
X88733Y59302D01*
X88495Y58826D01*
Y58588D01*
X88733Y58112D01*
X89447Y57874D01*
X90162D01*
X90876Y58112D01*
X91114Y58588D01*
X87448Y61207D02*
Y56208D01*
Y60492D02*
X86972Y60969D01*
X86496Y61207D01*
X85782D01*
X85306Y60969D01*
X84829Y60492D01*
X84591Y59778D01*
Y59302D01*
X84829Y58588D01*
X85306Y58112D01*
X85782Y57874D01*
X86496D01*
X86972Y58112D01*
X87448Y58588D01*
X83520Y59778D02*
X80664D01*
Y60254D01*
X80902Y60730D01*
X81140Y60969D01*
X81616Y61207D01*
X82330D01*
X82806Y60969D01*
X83282Y60492D01*
X83520Y59778D01*
Y59302D01*
X83282Y58588D01*
X82806Y58112D01*
X82330Y57874D01*
X81616D01*
X81140Y58112D01*
X80664Y58588D01*
X79593Y59778D02*
X76736D01*
Y60254D01*
X76974Y60730D01*
X77212Y60969D01*
X77688Y61207D01*
X78402D01*
X78878Y60969D01*
X79355Y60492D01*
X79593Y59778D01*
Y59302D01*
X79355Y58588D01*
X78878Y58112D01*
X78402Y57874D01*
X77688D01*
X77212Y58112D01*
X76736Y58588D01*
X72808Y60492D02*
X73284Y60969D01*
X73760Y61207D01*
X74475D01*
X74951Y60969D01*
X75427Y60492D01*
X75665Y59778D01*
Y59302D01*
X75427Y58588D01*
X74951Y58112D01*
X74475Y57874D01*
X73760D01*
X73284Y58112D01*
X72808Y58588D01*
X71737Y62873D02*
Y57874D01*
Y60254D02*
X71023Y60969D01*
X70547Y61207D01*
X69833D01*
X69357Y60969D01*
X69119Y60254D01*
Y57874D01*
X67809Y61207D02*
Y56208D01*
Y60492D02*
X67333Y60969D01*
X66857Y61207D01*
X66143D01*
X65667Y60969D01*
X65191Y60492D01*
X64953Y59778D01*
Y59302D01*
X65191Y58588D01*
X65667Y58112D01*
X66143Y57874D01*
X66857D01*
X67333Y58112D01*
X67809Y58588D01*
X63882Y62873D02*
Y57874D01*
X59978Y61207D02*
Y57874D01*
Y60492D02*
X60454Y60969D01*
X60930Y61207D01*
X61644D01*
X62120Y60969D01*
X62596Y60492D01*
X62834Y59778D01*
Y59302D01*
X62596Y58588D01*
X62120Y58112D01*
X61644Y57874D01*
X60930D01*
X60454Y58112D01*
X59978Y58588D01*
X57930Y62873D02*
Y58826D01*
X57692Y58112D01*
X57216Y57874D01*
X56740D01*
X58645Y61207D02*
X56978D01*
X54122Y62873D02*
X54598D01*
X55074Y62635D01*
X55312Y61921D01*
Y57874D01*
X56026Y61207D02*
X54360D01*
X52217D02*
X52693Y60969D01*
X53170Y60492D01*
X53408Y59778D01*
Y59302D01*
X53170Y58588D01*
X52693Y58112D01*
X52217Y57874D01*
X51503D01*
X51027Y58112D01*
X50551Y58588D01*
X50313Y59302D01*
Y59778D01*
X50551Y60492D01*
X51027Y60969D01*
X51503Y61207D01*
X52217D01*
X49218D02*
Y57874D01*
Y59778D02*
X48980Y60492D01*
X48504Y60969D01*
X48028Y61207D01*
X47314D01*
X46861D02*
Y57874D01*
Y60254D02*
X46147Y60969D01*
X45671Y61207D01*
X44957D01*
X44481Y60969D01*
X44243Y60254D01*
Y57874D01*
Y60254D02*
X43529Y60969D01*
X43053Y61207D01*
X42339D01*
X41862Y60969D01*
X41624Y60254D01*
Y57874D01*
X39815Y58350D02*
X40053Y58112D01*
X39815Y57874D01*
X39577Y58112D01*
X39815Y58350D01*
X38482Y61207D02*
Y58826D01*
X38244Y58112D01*
X37768Y57874D01*
X37054D01*
X36578Y58112D01*
X35864Y58826D01*
Y61207D02*
Y57874D01*
X31698Y60492D02*
X32174Y60969D01*
X32650Y61207D01*
X33364D01*
X33840Y60969D01*
X34317Y60492D01*
X34554Y59778D01*
Y59302D01*
X34317Y58588D01*
X33840Y58112D01*
X33364Y57874D01*
X32650D01*
X32174Y58112D01*
X31698Y58588D01*
X28008Y60492D02*
X28246Y60969D01*
X28960Y61207D01*
X29675D01*
X30389Y60969D01*
X30627Y60492D01*
X30389Y60016D01*
X29913Y59778D01*
X28722Y59540D01*
X28246Y59302D01*
X28008Y58826D01*
Y58588D01*
X28246Y58112D01*
X28960Y57874D01*
X29675D01*
X30389Y58112D01*
X30627Y58588D01*
X24104Y62873D02*
Y57874D01*
Y60492D02*
X24580Y60969D01*
X25057Y61207D01*
X25771D01*
X26247Y60969D01*
X26723Y60492D01*
X26961Y59778D01*
Y59302D01*
X26723Y58588D01*
X26247Y58112D01*
X25771Y57874D01*
X25057D01*
X24580Y58112D01*
X24104Y58588D01*
X22533Y58350D02*
X22771Y58112D01*
X22533Y57874D01*
X22295Y58112D01*
X22533Y58350D01*
X21200Y59778D02*
X18344D01*
Y60254D01*
X18582Y60730D01*
X18820Y60969D01*
X19296Y61207D01*
X20010D01*
X20486Y60969D01*
X20962Y60492D01*
X21200Y59778D01*
Y59302D01*
X20962Y58588D01*
X20486Y58112D01*
X20010Y57874D01*
X19296D01*
X18820Y58112D01*
X18344Y58588D01*
X14416Y62873D02*
Y57874D01*
Y60492D02*
X14892Y60969D01*
X15368Y61207D01*
X16082D01*
X16558Y60969D01*
X17034Y60492D01*
X17273Y59778D01*
Y59302D01*
X17034Y58588D01*
X16558Y58112D01*
X16082Y57874D01*
X15368D01*
X14892Y58112D01*
X14416Y58588D01*
X13083Y61207D02*
Y58826D01*
X12845Y58112D01*
X12369Y57874D01*
X11655D01*
X11179Y58112D01*
X10464Y58826D01*
Y61207D02*
Y57874D01*
X105658Y72322D02*
X106134Y72084D01*
X106611Y71608D01*
X106849Y71131D01*
X107087Y70417D01*
Y69227D01*
X106849Y68513D01*
X106611Y68037D01*
X106134Y67561D01*
X105658Y67323D01*
X104706D01*
X104230Y67561D01*
X103754Y68037D01*
X103516Y68513D01*
X103278Y69227D01*
Y70417D01*
X103516Y71131D01*
X103754Y71608D01*
X104230Y72084D01*
X104706Y72322D01*
X105658D01*
X98779Y71608D02*
X99255Y72084D01*
X99969Y72322D01*
X100921D01*
X101635Y72084D01*
X102111Y71608D01*
Y71131D01*
X101874Y70655D01*
X101635Y70417D01*
X101159Y70179D01*
X99731Y69703D01*
X99255Y69465D01*
X99017Y69227D01*
X98779Y68751D01*
Y68037D01*
X99255Y67561D01*
X99969Y67323D01*
X100921D01*
X101635Y67561D01*
X102111Y68037D01*
X97660Y69703D02*
X95518D01*
X94804Y69941D01*
X94565Y70179D01*
X94327Y70655D01*
Y71370D01*
X94565Y71846D01*
X94804Y72084D01*
X95518Y72322D01*
X97660D01*
Y67323D01*
X93209Y65657D02*
X89400D01*
X85186Y71131D02*
X85425Y71608D01*
X85901Y72084D01*
X86377Y72322D01*
X87329D01*
X87805Y72084D01*
X88281Y71608D01*
X88519Y71131D01*
X88757Y70417D01*
Y69227D01*
X88519Y68513D01*
X88281Y68037D01*
X87805Y67561D01*
X87329Y67323D01*
X86377D01*
X85901Y67561D01*
X85425Y68037D01*
X85186Y68513D01*
X80926Y70655D02*
Y67323D01*
Y69941D02*
X81402Y70417D01*
X81878Y70655D01*
X82592D01*
X83068Y70417D01*
X83544Y69941D01*
X83782Y69227D01*
Y68751D01*
X83544Y68037D01*
X83068Y67561D01*
X82592Y67323D01*
X81878D01*
X81402Y67561D01*
X80926Y68037D01*
X79593Y70655D02*
Y67323D01*
Y69227D02*
X79355Y69941D01*
X78878Y70417D01*
X78402Y70655D01*
X77688D01*
X77236D02*
Y67323D01*
Y69227D02*
X76998Y69941D01*
X76522Y70417D01*
X76046Y70655D01*
X75331D01*
X74403Y72322D02*
X74165Y72084D01*
X73927Y72322D01*
X74165Y72560D01*
X74403Y72322D01*
X74165Y70655D02*
Y67323D01*
X73046Y69227D02*
X70190D01*
Y69703D01*
X70428Y70179D01*
X70666Y70417D01*
X71142Y70655D01*
X71856D01*
X72332Y70417D01*
X72808Y69941D01*
X73046Y69227D01*
Y68751D01*
X72808Y68037D01*
X72332Y67561D01*
X71856Y67323D01*
X71142D01*
X70666Y67561D01*
X70190Y68037D01*
X69119Y70655D02*
Y67323D01*
Y69227D02*
X68880Y69941D01*
X68404Y70417D01*
X67928Y70655D01*
X67214D01*
X62834Y72322D02*
X60930Y67323D01*
X59026Y72322D02*
X60930Y67323D01*
X57192Y72322D02*
X57907Y72084D01*
X58145Y71608D01*
Y71131D01*
X57907Y70655D01*
X57431Y70417D01*
X56478Y70179D01*
X55764Y69941D01*
X55288Y69465D01*
X55050Y68989D01*
Y68275D01*
X55288Y67799D01*
X55526Y67561D01*
X56240Y67323D01*
X57192D01*
X57907Y67561D01*
X58145Y67799D01*
X58383Y68275D01*
Y68989D01*
X58145Y69465D01*
X57669Y69941D01*
X56954Y70179D01*
X56002Y70417D01*
X55526Y70655D01*
X55288Y71131D01*
Y71608D01*
X55526Y72084D01*
X56240Y72322D01*
X57192D01*
X53693Y67799D02*
X53931Y67561D01*
X53693Y67323D01*
X53455Y67561D01*
X53693Y67799D01*
X50932Y72322D02*
X51646Y72084D01*
X52122Y71370D01*
X52360Y70179D01*
Y69465D01*
X52122Y68275D01*
X51646Y67561D01*
X50932Y67323D01*
X50456D01*
X49742Y67561D01*
X49266Y68275D01*
X49028Y69465D01*
Y70179D01*
X49266Y71370D01*
X49742Y72084D01*
X50456Y72322D01*
X50932D01*
X103516Y51053D02*
X103754Y51529D01*
X104230Y52005D01*
X104706Y52243D01*
X105658D01*
X106134Y52005D01*
X106611Y51529D01*
X106849Y51053D01*
X107087Y50339D01*
Y49148D01*
X106849Y48434D01*
X106611Y47958D01*
X106134Y47482D01*
X105658Y47244D01*
X104706D01*
X104230Y47482D01*
X103754Y47958D01*
X103516Y48434D01*
X100921Y50577D02*
X101397Y50339D01*
X101874Y49863D01*
X102111Y49148D01*
Y48672D01*
X101874Y47958D01*
X101397Y47482D01*
X100921Y47244D01*
X100207D01*
X99731Y47482D01*
X99255Y47958D01*
X99017Y48672D01*
Y49148D01*
X99255Y49863D01*
X99731Y50339D01*
X100207Y50577D01*
X100921D01*
X97922D02*
Y45578D01*
Y49863D02*
X97446Y50339D01*
X96970Y50577D01*
X96256D01*
X95780Y50339D01*
X95303Y49863D01*
X95065Y49148D01*
Y48672D01*
X95303Y47958D01*
X95780Y47482D01*
X96256Y47244D01*
X96970D01*
X97446Y47482D01*
X97922Y47958D01*
X93756Y50577D02*
X92328Y47244D01*
X90900Y50577D02*
X92328Y47244D01*
X92804Y46292D01*
X93280Y45816D01*
X93756Y45578D01*
X93994D01*
X90066Y50577D02*
Y47244D01*
Y49148D02*
X89828Y49863D01*
X89352Y50339D01*
X88876Y50577D01*
X88162D01*
X87234Y52243D02*
X86996Y52005D01*
X86758Y52243D01*
X86996Y52481D01*
X87234Y52243D01*
X86996Y50577D02*
Y47244D01*
X83020Y50577D02*
Y46768D01*
X83258Y46054D01*
X83496Y45816D01*
X83973Y45578D01*
X84687D01*
X85163Y45816D01*
X83020Y49863D02*
X83496Y50339D01*
X83973Y50577D01*
X84687D01*
X85163Y50339D01*
X85639Y49863D01*
X85877Y49148D01*
Y48672D01*
X85639Y47958D01*
X85163Y47482D01*
X84687Y47244D01*
X83973D01*
X83496Y47482D01*
X83020Y47958D01*
X81687Y52243D02*
Y47244D01*
Y49624D02*
X80973Y50339D01*
X80497Y50577D01*
X79783D01*
X79307Y50339D01*
X79069Y49624D01*
Y47244D01*
X77045Y52243D02*
Y48196D01*
X76807Y47482D01*
X76331Y47244D01*
X75855D01*
X77760Y50577D02*
X76093D01*
X63120Y51053D02*
Y51291D01*
X62882Y51767D01*
X62644Y52005D01*
X62168Y52243D01*
X61216D01*
X60739Y52005D01*
X60501Y51767D01*
X60263Y51291D01*
Y50815D01*
X60501Y50339D01*
X60977Y49624D01*
X63358Y47244D01*
X60025D01*
X57478Y52243D02*
X58192Y52005D01*
X58668Y51291D01*
X58907Y50101D01*
Y49387D01*
X58668Y48196D01*
X58192Y47482D01*
X57478Y47244D01*
X57002D01*
X56288Y47482D01*
X55812Y48196D01*
X55574Y49387D01*
Y50101D01*
X55812Y51291D01*
X56288Y52005D01*
X57002Y52243D01*
X57478D01*
X54455Y51291D02*
X53979Y51529D01*
X53265Y52243D01*
Y47244D01*
X47695Y50577D02*
X47933Y49863D01*
X48409Y49387D01*
X49123Y49148D01*
X49361D01*
X50075Y49387D01*
X50551Y49863D01*
X50789Y50577D01*
Y50815D01*
X50551Y51529D01*
X50075Y52005D01*
X49361Y52243D01*
X49123D01*
X48409Y52005D01*
X47933Y51529D01*
X47695Y50577D01*
Y49387D01*
X47933Y48196D01*
X48409Y47482D01*
X49123Y47244D01*
X49599D01*
X50313Y47482D01*
X50551Y47958D01*
X42410Y52243D02*
Y48672D01*
X42172Y47958D01*
X41696Y47482D01*
X40982Y47244D01*
X40506D01*
X39792Y47482D01*
X39315Y47958D01*
X39077Y48672D01*
Y52243D01*
X34126Y51053D02*
X34364Y51529D01*
X34840Y52005D01*
X35316Y52243D01*
X36268D01*
X36744Y52005D01*
X37221Y51529D01*
X37459Y51053D01*
X37697Y50339D01*
Y49148D01*
X37459Y48434D01*
X37221Y47958D01*
X36744Y47482D01*
X36268Y47244D01*
X35316D01*
X34840Y47482D01*
X34364Y47958D01*
X34126Y48434D01*
X29389Y51529D02*
X29865Y52005D01*
X30579Y52243D01*
X31531D01*
X32245Y52005D01*
X32722Y51529D01*
Y51053D01*
X32484Y50577D01*
X32245Y50339D01*
X31769Y50101D01*
X30341Y49624D01*
X29865Y49387D01*
X29627Y49148D01*
X29389Y48672D01*
Y47958D01*
X29865Y47482D01*
X30579Y47244D01*
X31531D01*
X32245Y47482D01*
X32722Y47958D01*
X28270Y52243D02*
Y47244D01*
Y52243D02*
X26604D01*
X25890Y52005D01*
X25414Y51529D01*
X25176Y51053D01*
X24938Y50339D01*
Y49148D01*
X25176Y48434D01*
X25414Y47958D01*
X25890Y47482D01*
X26604Y47244D01*
X28270D01*
X19891Y46530D02*
X16558Y52243D01*
X10631D02*
Y47244D01*
X12297Y52243D02*
X8965D01*
X8370D02*
Y47244D01*
X5037Y52243D02*
Y47244D01*
X8370Y49863D02*
X5037D01*
X562Y52243D02*
X3656D01*
Y47244D01*
X562D01*
X3656Y49863D02*
X1752D01*
X-271Y45578D02*
X-4080D01*
X-4723Y52243D02*
Y47244D01*
X-7579D01*
X-10983Y50577D02*
Y47244D01*
Y49863D02*
X-10507Y50339D01*
X-10031Y50577D01*
X-9317D01*
X-8841Y50339D01*
X-8365Y49863D01*
X-8127Y49148D01*
Y48672D01*
X-8365Y47958D01*
X-8841Y47482D01*
X-9317Y47244D01*
X-10031D01*
X-10507Y47482D01*
X-10983Y47958D01*
X-12316Y52243D02*
Y47244D01*
Y49863D02*
X-12792Y50339D01*
X-13269Y50577D01*
X-13983D01*
X-14459Y50339D01*
X-14935Y49863D01*
X-15173Y49148D01*
Y48672D01*
X-14935Y47958D01*
X-14459Y47482D01*
X-13983Y47244D01*
X-13269D01*
X-12792Y47482D01*
X-12316Y47958D01*
D11*
X-80400Y-30884D02*
G03*
X-80400Y-30884I-492J0D01*
G01*
X-55317Y-16714D02*
G03*
X-55317Y-16714I-492J0D01*
G01*
X-69291Y15157D02*
G03*
X-69291Y15157I-492J0D01*
G01*
X-83327Y58071D02*
G03*
X-83327Y58071I-492J0D01*
G01*
X-109547Y51575D02*
G03*
X-109547Y51575I-492J0D01*
G01*
X33760Y-42323D02*
G03*
X33760Y-42323I-492J0D01*
G01*
X90059Y-53248D02*
G03*
X90059Y-53248I-492J0D01*
G01*
X73331Y-35698D02*
G03*
X73331Y-35698I-492J0D01*
G01*
X84825D02*
G03*
X84825Y-35698I-492J0D01*
G01*
X61837Y-35713D02*
G03*
X61837Y-35713I-492J0D01*
G01*
X61952Y-18601D02*
G03*
X61952Y-18601I-492J0D01*
G01*
X84941D02*
G03*
X84941Y-18601I-492J0D01*
G01*
X73447D02*
G03*
X73447Y-18601I-492J0D01*
G01*
D12*
X-77447Y-29900D02*
X-73510D01*
X-77447Y-17695D02*
X-73510D01*
X-77447Y-29900D02*
Y-17695D01*
X-73510Y-29900D02*
Y-17695D01*
X-52364Y-15730D02*
X-48427D01*
X-52364Y-3525D02*
X-48427D01*
X-52364Y-15730D02*
Y-3525D01*
X-48427Y-15730D02*
Y-3525D01*
X-68504Y7874D02*
Y11811D01*
Y7874D02*
X-65453D01*
X-56693D02*
Y11811D01*
X-59744Y7874D02*
X-56693D01*
X-82815Y53642D02*
X-63130D01*
X-82815Y41043D02*
X-63130D01*
X-82815D02*
Y53642D01*
X-63130Y41043D02*
Y53642D01*
X-113976Y50988D02*
X-84713D01*
Y49114D02*
Y50988D01*
X-113976Y45488D02*
Y50988D01*
X-84713Y37988D02*
Y39862D01*
X-113976Y45488D02*
X-113213D01*
Y50988D01*
Y37988D02*
Y43488D01*
X-113976D02*
X-113213D01*
X-113976Y37988D02*
X-84713D01*
X-113976D02*
Y43488D01*
X-100787Y42520D02*
Y46457D01*
Y44488D02*
X-98032Y46063D01*
X-100787Y44488D02*
X-98032Y42520D01*
Y46063D01*
X-101181Y44488D02*
X-100787D01*
X-98032D02*
X-97244D01*
X-106693Y52756D02*
X-102756D01*
Y55905D01*
X-106693Y64567D02*
X-102756D01*
Y61417D02*
Y64567D01*
X-122244Y88784D02*
X-92980D01*
Y86909D02*
Y88784D01*
X-122244Y83284D02*
Y88784D01*
X-92980Y75783D02*
Y77658D01*
X-122244Y83284D02*
X-121480D01*
Y88784D01*
Y75783D02*
Y81283D01*
X-122244D02*
X-121480D01*
X-122244Y75783D02*
X-92980D01*
X-122244D02*
Y81283D01*
X-109055Y80315D02*
Y84252D01*
Y82284D02*
X-106299Y83858D01*
X-109055Y82284D02*
X-106299Y80315D01*
Y83858D01*
X-109449Y82284D02*
X-109055D01*
X-106299D02*
X-105512D01*
X42323Y-48720D02*
X43701D01*
Y-44783D01*
X35039Y-48720D02*
X36417D01*
X35039D02*
Y-44783D01*
X96850Y-43209D02*
Y-40157D01*
X92913D02*
X96850D01*
Y-51968D02*
Y-48917D01*
X92913Y-51968D02*
X96850D01*
X-69291Y-98425D02*
X-67323D01*
X-69291Y-93701D02*
X-67323D01*
X-70079Y-78740D02*
X-67323D01*
X-67716Y-85039D02*
X-67323Y-85039D01*
X-70079Y-82284D02*
Y-75591D01*
X-88583Y-68898D02*
X-73622D01*
X-103543D02*
X-88583D01*
X-107087Y-82284D02*
Y-75591D01*
X-109843Y-85039D02*
X-109449Y-85039D01*
X-109843Y-78740D02*
X-107087D01*
X-109843Y-93701D02*
X-107874D01*
X-109843Y-98425D02*
X-107874D01*
X-27165D02*
X-25197D01*
X-27165Y-93701D02*
X-25197D01*
X-27165Y-78740D02*
X-24409D01*
X-27165Y-85039D02*
X-26772Y-85039D01*
X-24409Y-82284D02*
Y-75591D01*
X-20866Y-68898D02*
X-5906D01*
X9055D01*
X12598Y-82284D02*
Y-75591D01*
X14961Y-85039D02*
X15354Y-85039D01*
X12598Y-78740D02*
X15354D01*
X13386Y-93701D02*
X15354D01*
X13386Y-98425D02*
X15354D01*
X55512D02*
X57480D01*
X55512Y-93701D02*
X57480D01*
X55512Y-78740D02*
X58268D01*
X55512Y-85039D02*
X55905Y-85039D01*
X58268Y-82284D02*
Y-75591D01*
X61811Y-68898D02*
X76772D01*
X91732D01*
X95275Y-82284D02*
Y-75591D01*
X97638Y-85039D02*
X98031Y-85039D01*
X95275Y-78740D02*
X98031D01*
X96063Y-93701D02*
X98031D01*
X96063Y-98425D02*
X98031D01*
X62406Y-29300D02*
X63784D01*
X62406Y-33237D02*
Y-29300D01*
X69689D02*
X71067D01*
Y-33237D02*
Y-29300D01*
X73900D02*
X75278D01*
X73900Y-33237D02*
Y-29300D01*
X81184D02*
X82562D01*
Y-33237D02*
Y-29300D01*
X50911Y-29316D02*
X52289D01*
X50911Y-33253D02*
Y-29316D01*
X58195D02*
X59573D01*
Y-33253D02*
Y-29316D01*
X51027Y-12203D02*
X52405D01*
X51027Y-16140D02*
Y-12203D01*
X58310D02*
X59688D01*
Y-16140D02*
Y-12203D01*
X74016D02*
X75394D01*
X74016Y-16140D02*
Y-12203D01*
X81299D02*
X82677D01*
Y-16140D02*
Y-12203D01*
X62521D02*
X63899D01*
X62521Y-16140D02*
Y-12203D01*
X69805D02*
X71183D01*
Y-16140D02*
Y-12203D01*
D13*
X46850Y78031D02*
G03*
X46850Y78031I-394J0D01*
G01*
Y866D02*
G03*
X46850Y866I-394J0D01*
G01*
Y78031D02*
G03*
X46850Y78031I-394J0D01*
G01*
Y866D02*
G03*
X46850Y866I-394J0D01*
G01*
D14*
X104035Y-23228D02*
X105413Y-22244D01*
Y-23228D02*
Y-22244D01*
X104035Y-23228D02*
Y-22343D01*
Y-24114D02*
Y-23228D01*
X105413Y-24213D02*
Y-23228D01*
X104035D02*
X105413Y-24213D01*
X103878Y-5512D02*
X105256Y-4528D01*
Y-5512D02*
Y-4528D01*
X103878Y-5512D02*
Y-4626D01*
Y-6398D02*
Y-5512D01*
X105256Y-6496D02*
Y-5512D01*
X103878D02*
X105256Y-6496D01*
X103878Y-11406D02*
X105256Y-10422D01*
Y-11406D02*
Y-10422D01*
X103878Y-11406D02*
Y-10520D01*
Y-12292D02*
Y-11406D01*
X105256Y-12390D02*
Y-11406D01*
X103878D02*
X105256Y-12390D01*
X103878Y-17312D02*
X105256Y-16327D01*
Y-17312D02*
Y-16327D01*
X103878Y-17312D02*
Y-16426D01*
Y-18198D02*
Y-17312D01*
X105256Y-18296D02*
Y-17312D01*
X103878D02*
X105256Y-18296D01*
X103878Y-35039D02*
X105256Y-34055D01*
Y-35039D02*
Y-34055D01*
X103878Y-35039D02*
Y-34154D01*
Y-35925D02*
Y-35039D01*
X105256Y-36024D02*
Y-35039D01*
X103878D02*
X105256Y-36024D01*
X103878Y-29134D02*
X105256Y-30118D01*
Y-29134D01*
X103878Y-30020D02*
Y-29134D01*
Y-28248D01*
X105256Y-29134D02*
Y-28150D01*
X103878Y-29134D02*
X105256Y-28150D01*
X-31102Y80000D02*
Y91811D01*
X-25984D01*
X-31102Y80000D02*
X-25984D01*
X44882Y91811D02*
X50000D01*
Y80000D02*
Y91811D01*
X44882Y80000D02*
X50000D01*
X-31102Y2835D02*
Y14646D01*
X-25984D01*
X-31102Y2835D02*
X-25984D01*
X44882Y14646D02*
X50000D01*
Y2835D02*
Y14646D01*
X44882Y2835D02*
X50000D01*
X-55512Y-1890D02*
Y96535D01*
Y-1890D02*
X112205D01*
Y96535D01*
X-55512D02*
X112205D01*
X-31102Y80000D02*
Y91811D01*
X-25984D01*
X-31102Y80000D02*
X-25984D01*
X44882Y91811D02*
X50000D01*
Y80000D02*
Y91811D01*
X44882Y80000D02*
X50000D01*
X44882Y2835D02*
X50000D01*
Y14646D01*
X44882D02*
X50000D01*
X-31102Y2835D02*
X-25984D01*
X-31102Y14646D02*
X-25984D01*
X-31102Y2835D02*
Y14646D01*
D15*
X97638Y-26956D02*
X96686Y-30955D01*
X95733Y-26956D02*
X96686Y-30955D01*
X95733Y-26956D02*
X94781Y-30955D01*
X93829Y-26956D02*
X94781Y-30955D01*
X93029Y-26956D02*
Y-30955D01*
X92191Y-26956D02*
Y-30955D01*
Y-26956D02*
X89716D01*
X92191Y-28861D02*
X90668D01*
X89259Y-26956D02*
Y-30955D01*
X97638Y-33009D02*
Y-37008D01*
Y-33009D02*
X95924D01*
X95353Y-33199D01*
X95162Y-33390D01*
X94972Y-33770D01*
Y-34151D01*
X95162Y-34532D01*
X95353Y-34723D01*
X95924Y-34913D01*
X97638D02*
X95924D01*
X95353Y-35103D01*
X95162Y-35294D01*
X94972Y-35675D01*
Y-36246D01*
X95162Y-36627D01*
X95353Y-36817D01*
X95924Y-37008D01*
X97638D01*
X92744Y-33009D02*
Y-37008D01*
X94077Y-33009D02*
X91411D01*
X97638Y-21198D02*
Y-25197D01*
Y-21198D02*
X96114Y-25197D01*
X94591Y-21198D02*
X96114Y-25197D01*
X94591Y-21198D02*
Y-25197D01*
X93448Y-21198D02*
Y-24054D01*
X93258Y-24625D01*
X92877Y-25006D01*
X92306Y-25197D01*
X91925D01*
X91353Y-25006D01*
X90973Y-24625D01*
X90782Y-24054D01*
Y-21198D01*
X88345D02*
Y-25197D01*
X89678Y-21198D02*
X87011D01*
X84060D02*
X86535D01*
Y-25197D01*
X84060D01*
X86535Y-23102D02*
X85012D01*
X97638Y-15292D02*
Y-18149D01*
X97447Y-18720D01*
X97066Y-19101D01*
X96495Y-19291D01*
X96114D01*
X95543Y-19101D01*
X95162Y-18720D01*
X94972Y-18149D01*
Y-15292D01*
X91201Y-15864D02*
X91582Y-15483D01*
X92153Y-15292D01*
X92915D01*
X93486Y-15483D01*
X93867Y-15864D01*
Y-16244D01*
X93677Y-16625D01*
X93486Y-16816D01*
X93105Y-17006D01*
X91963Y-17387D01*
X91582Y-17577D01*
X91391Y-17768D01*
X91201Y-18149D01*
Y-18720D01*
X91582Y-19101D01*
X92153Y-19291D01*
X92915D01*
X93486Y-19101D01*
X93867Y-18720D01*
X90306Y-15292D02*
Y-19291D01*
Y-15292D02*
X88592D01*
X88021Y-15483D01*
X87830Y-15673D01*
X87640Y-16054D01*
Y-16435D01*
X87830Y-16816D01*
X88021Y-17006D01*
X88592Y-17197D01*
X90306D01*
X88973D02*
X87640Y-19291D01*
X86364Y-15292D02*
X84269D01*
X85412Y-16816D01*
X84841D01*
X84460Y-17006D01*
X84269Y-17197D01*
X84079Y-17768D01*
Y-18149D01*
X84269Y-18720D01*
X84650Y-19101D01*
X85221Y-19291D01*
X85793D01*
X86364Y-19101D01*
X86554Y-18911D01*
X86745Y-18530D01*
X94781Y-10239D02*
X94972Y-9858D01*
X95353Y-9477D01*
X95733Y-9287D01*
X96495D01*
X96876Y-9477D01*
X97257Y-9858D01*
X97447Y-10239D01*
X97638Y-10810D01*
Y-11763D01*
X97447Y-12334D01*
X97257Y-12715D01*
X96876Y-13096D01*
X96495Y-13286D01*
X95733D01*
X95353Y-13096D01*
X94972Y-12715D01*
X94781Y-12334D01*
Y-11763D01*
X95733D02*
X94781D01*
X92725Y-9287D02*
X93105Y-9477D01*
X93486Y-9858D01*
X93677Y-10239D01*
X93867Y-10810D01*
Y-11763D01*
X93677Y-12334D01*
X93486Y-12715D01*
X93105Y-13096D01*
X92725Y-13286D01*
X91963D01*
X91582Y-13096D01*
X91201Y-12715D01*
X91011Y-12334D01*
X90820Y-11763D01*
Y-10810D01*
X91011Y-10239D01*
X91201Y-9858D01*
X91582Y-9477D01*
X91963Y-9287D01*
X92725D01*
X88744D02*
X89125Y-9477D01*
X89506Y-9858D01*
X89697Y-10239D01*
X89887Y-10810D01*
Y-11763D01*
X89697Y-12334D01*
X89506Y-12715D01*
X89125Y-13096D01*
X88744Y-13286D01*
X87983D01*
X87602Y-13096D01*
X87221Y-12715D01*
X87031Y-12334D01*
X86840Y-11763D01*
Y-10810D01*
X87031Y-10239D01*
X87221Y-9858D01*
X87602Y-9477D01*
X87983Y-9287D01*
X88744D01*
X85907D02*
Y-13286D01*
Y-9287D02*
X84574D01*
X84003Y-9477D01*
X83622Y-9858D01*
X83431Y-10239D01*
X83241Y-10810D01*
Y-11763D01*
X83431Y-12334D01*
X83622Y-12715D01*
X84003Y-13096D01*
X84574Y-13286D01*
X85907D01*
X97244Y-3481D02*
Y-7480D01*
X94959D01*
X93378Y-3481D02*
X93759Y-3672D01*
X94140Y-4053D01*
X94330Y-4433D01*
X94521Y-5005D01*
Y-5957D01*
X94330Y-6528D01*
X94140Y-6909D01*
X93759Y-7290D01*
X93378Y-7480D01*
X92616D01*
X92236Y-7290D01*
X91855Y-6909D01*
X91664Y-6528D01*
X91474Y-5957D01*
Y-5005D01*
X91664Y-4433D01*
X91855Y-4053D01*
X92236Y-3672D01*
X92616Y-3481D01*
X93378D01*
X90541D02*
X89589Y-7480D01*
X88636Y-3481D02*
X89589Y-7480D01*
X88636Y-3481D02*
X87684Y-7480D01*
X86732Y-3481D02*
X87684Y-7480D01*
X-121322Y-74410D02*
X-117323D01*
X-121322D02*
X-117323Y-75933D01*
X-121322Y-77456D02*
X-117323Y-75933D01*
X-121322Y-77456D02*
X-117323D01*
X-121322Y-78599D02*
X-117323D01*
X-120370Y-82293D02*
X-120751Y-82103D01*
X-121132Y-81722D01*
X-121322Y-81341D01*
Y-80580D01*
X-121132Y-80199D01*
X-120751Y-79818D01*
X-120370Y-79627D01*
X-119799Y-79437D01*
X-118846D01*
X-118275Y-79627D01*
X-117894Y-79818D01*
X-117513Y-80199D01*
X-117323Y-80580D01*
Y-81341D01*
X-117513Y-81722D01*
X-117894Y-82103D01*
X-118275Y-82293D01*
X-121322Y-86559D02*
X-117323D01*
X-121322D02*
Y-88273D01*
X-121132Y-88844D01*
X-120941Y-89035D01*
X-120560Y-89225D01*
X-120179D01*
X-119799Y-89035D01*
X-119608Y-88844D01*
X-119418Y-88273D01*
Y-86559D01*
Y-87892D02*
X-117323Y-89225D01*
X105450Y-74410D02*
X109449D01*
X105450D02*
X109449Y-75933D01*
X105450Y-77456D02*
X109449Y-75933D01*
X105450Y-77456D02*
X109449D01*
X105450Y-78599D02*
X109449D01*
X106402Y-82293D02*
X106021Y-82103D01*
X105640Y-81722D01*
X105450Y-81341D01*
Y-80580D01*
X105640Y-80199D01*
X106021Y-79818D01*
X106402Y-79627D01*
X106973Y-79437D01*
X107925D01*
X108497Y-79627D01*
X108878Y-79818D01*
X109258Y-80199D01*
X109449Y-80580D01*
Y-81341D01*
X109258Y-81722D01*
X108878Y-82103D01*
X108497Y-82293D01*
X105450Y-86559D02*
X109449D01*
Y-88844D01*
D17*
X109978Y-69213D02*
G03*
X109978Y-69213I-3650J0D01*
G01*
X-114461Y-69291D02*
G03*
X-114461Y-69291I-3650J0D01*
G01*
X45669Y81137D02*
X45860Y81042D01*
X46145Y80756D01*
Y82756D01*
X45764Y89500D02*
Y89405D01*
X45860Y89214D01*
X45955Y89119D01*
X46145Y89024D01*
X46526D01*
X46717Y89119D01*
X46812Y89214D01*
X46907Y89405D01*
Y89595D01*
X46812Y89786D01*
X46622Y90071D01*
X45669Y91024D01*
X47002D01*
X-29052Y80756D02*
X-29337Y80852D01*
X-29432Y81042D01*
Y81232D01*
X-29337Y81423D01*
X-29147Y81518D01*
X-28766Y81613D01*
X-28480Y81709D01*
X-28290Y81899D01*
X-28194Y82089D01*
Y82375D01*
X-28290Y82565D01*
X-28385Y82661D01*
X-28671Y82756D01*
X-29052D01*
X-29337Y82661D01*
X-29432Y82565D01*
X-29528Y82375D01*
Y82089D01*
X-29432Y81899D01*
X-29242Y81709D01*
X-28956Y81613D01*
X-28575Y81518D01*
X-28385Y81423D01*
X-28290Y81232D01*
Y81042D01*
X-28385Y80852D01*
X-28671Y80756D01*
X-29052D01*
X-26509Y81423D02*
X-26604Y81709D01*
X-26795Y81899D01*
X-27081Y81994D01*
X-27176D01*
X-27461Y81899D01*
X-27652Y81709D01*
X-27747Y81423D01*
Y81328D01*
X-27652Y81042D01*
X-27461Y80852D01*
X-27176Y80756D01*
X-27081D01*
X-26795Y80852D01*
X-26604Y81042D01*
X-26509Y81423D01*
Y81899D01*
X-26604Y82375D01*
X-26795Y82661D01*
X-27081Y82756D01*
X-27271D01*
X-27556Y82661D01*
X-27652Y82470D01*
X-28290Y89691D02*
X-28385Y89976D01*
X-28575Y90167D01*
X-28861Y90262D01*
X-28956D01*
X-29242Y90167D01*
X-29432Y89976D01*
X-29528Y89691D01*
Y89595D01*
X-29432Y89310D01*
X-29242Y89119D01*
X-28956Y89024D01*
X-28861D01*
X-28575Y89119D01*
X-28385Y89310D01*
X-28290Y89691D01*
Y90167D01*
X-28385Y90643D01*
X-28575Y90928D01*
X-28861Y91024D01*
X-29052D01*
X-29337Y90928D01*
X-29432Y90738D01*
X-27176Y89024D02*
X-27461Y89119D01*
X-27652Y89405D01*
X-27747Y89881D01*
Y90167D01*
X-27652Y90643D01*
X-27461Y90928D01*
X-27176Y91024D01*
X-26985D01*
X-26700Y90928D01*
X-26509Y90643D01*
X-26414Y90167D01*
Y89881D01*
X-26509Y89405D01*
X-26700Y89119D01*
X-26985Y89024D01*
X-27176D01*
X45669Y3972D02*
X45860Y3877D01*
X46145Y3591D01*
Y5590D01*
X45764Y12335D02*
Y12240D01*
X45860Y12049D01*
X45955Y11954D01*
X46145Y11859D01*
X46526D01*
X46717Y11954D01*
X46812Y12049D01*
X46907Y12240D01*
Y12430D01*
X46812Y12620D01*
X46622Y12906D01*
X45669Y13858D01*
X47002D01*
X-29052Y3591D02*
X-29337Y3686D01*
X-29432Y3877D01*
Y4067D01*
X-29337Y4258D01*
X-29147Y4353D01*
X-28766Y4448D01*
X-28480Y4543D01*
X-28290Y4734D01*
X-28194Y4924D01*
Y5210D01*
X-28290Y5400D01*
X-28385Y5495D01*
X-28671Y5590D01*
X-29052D01*
X-29337Y5495D01*
X-29432Y5400D01*
X-29528Y5210D01*
Y4924D01*
X-29432Y4734D01*
X-29242Y4543D01*
X-28956Y4448D01*
X-28575Y4353D01*
X-28385Y4258D01*
X-28290Y4067D01*
Y3877D01*
X-28385Y3686D01*
X-28671Y3591D01*
X-29052D01*
X-26509Y4258D02*
X-26604Y4543D01*
X-26795Y4734D01*
X-27081Y4829D01*
X-27176D01*
X-27461Y4734D01*
X-27652Y4543D01*
X-27747Y4258D01*
Y4162D01*
X-27652Y3877D01*
X-27461Y3686D01*
X-27176Y3591D01*
X-27081D01*
X-26795Y3686D01*
X-26604Y3877D01*
X-26509Y4258D01*
Y4734D01*
X-26604Y5210D01*
X-26795Y5495D01*
X-27081Y5590D01*
X-27271D01*
X-27556Y5495D01*
X-27652Y5305D01*
X-28290Y12525D02*
X-28385Y12811D01*
X-28575Y13001D01*
X-28861Y13096D01*
X-28956D01*
X-29242Y13001D01*
X-29432Y12811D01*
X-29528Y12525D01*
Y12430D01*
X-29432Y12144D01*
X-29242Y11954D01*
X-28956Y11859D01*
X-28861D01*
X-28575Y11954D01*
X-28385Y12144D01*
X-28290Y12525D01*
Y13001D01*
X-28385Y13477D01*
X-28575Y13763D01*
X-28861Y13858D01*
X-29052D01*
X-29337Y13763D01*
X-29432Y13573D01*
X-27176Y11859D02*
X-27461Y11954D01*
X-27652Y12240D01*
X-27747Y12716D01*
Y13001D01*
X-27652Y13477D01*
X-27461Y13763D01*
X-27176Y13858D01*
X-26985D01*
X-26700Y13763D01*
X-26509Y13477D01*
X-26414Y13001D01*
Y12716D01*
X-26509Y12240D01*
X-26700Y11954D01*
X-26985Y11859D01*
X-27176D01*
X9220Y85087D02*
Y86611D01*
X9125Y86896D01*
X9030Y86991D01*
X8839Y87087D01*
X8649D01*
X8458Y86991D01*
X8363Y86896D01*
X8268Y86611D01*
Y86420D01*
X9734Y85468D02*
X9924Y85373D01*
X10210Y85087D01*
Y87087D01*
X45669Y81137D02*
X45860Y81042D01*
X46145Y80756D01*
Y82756D01*
X45764Y89500D02*
Y89405D01*
X45860Y89214D01*
X45955Y89119D01*
X46145Y89024D01*
X46526D01*
X46717Y89119D01*
X46812Y89214D01*
X46907Y89405D01*
Y89595D01*
X46812Y89786D01*
X46622Y90071D01*
X45669Y91024D01*
X47002D01*
X-29052Y80756D02*
X-29337Y80852D01*
X-29432Y81042D01*
Y81232D01*
X-29337Y81423D01*
X-29147Y81518D01*
X-28766Y81613D01*
X-28480Y81709D01*
X-28290Y81899D01*
X-28194Y82089D01*
Y82375D01*
X-28290Y82565D01*
X-28385Y82661D01*
X-28671Y82756D01*
X-29052D01*
X-29337Y82661D01*
X-29432Y82565D01*
X-29528Y82375D01*
Y82089D01*
X-29432Y81899D01*
X-29242Y81709D01*
X-28956Y81613D01*
X-28575Y81518D01*
X-28385Y81423D01*
X-28290Y81232D01*
Y81042D01*
X-28385Y80852D01*
X-28671Y80756D01*
X-29052D01*
X-26509Y81423D02*
X-26604Y81709D01*
X-26795Y81899D01*
X-27081Y81994D01*
X-27176D01*
X-27461Y81899D01*
X-27652Y81709D01*
X-27747Y81423D01*
Y81328D01*
X-27652Y81042D01*
X-27461Y80852D01*
X-27176Y80756D01*
X-27081D01*
X-26795Y80852D01*
X-26604Y81042D01*
X-26509Y81423D01*
Y81899D01*
X-26604Y82375D01*
X-26795Y82661D01*
X-27081Y82756D01*
X-27271D01*
X-27556Y82661D01*
X-27652Y82470D01*
X-28290Y89691D02*
X-28385Y89976D01*
X-28575Y90167D01*
X-28861Y90262D01*
X-28956D01*
X-29242Y90167D01*
X-29432Y89976D01*
X-29528Y89691D01*
Y89595D01*
X-29432Y89310D01*
X-29242Y89119D01*
X-28956Y89024D01*
X-28861D01*
X-28575Y89119D01*
X-28385Y89310D01*
X-28290Y89691D01*
Y90167D01*
X-28385Y90643D01*
X-28575Y90928D01*
X-28861Y91024D01*
X-29052D01*
X-29337Y90928D01*
X-29432Y90738D01*
X-27176Y89024D02*
X-27461Y89119D01*
X-27652Y89405D01*
X-27747Y89881D01*
Y90167D01*
X-27652Y90643D01*
X-27461Y90928D01*
X-27176Y91024D01*
X-26985D01*
X-26700Y90928D01*
X-26509Y90643D01*
X-26414Y90167D01*
Y89881D01*
X-26509Y89405D01*
X-26700Y89119D01*
X-26985Y89024D01*
X-27176D01*
X-28290Y12525D02*
X-28385Y12811D01*
X-28575Y13001D01*
X-28861Y13096D01*
X-28956D01*
X-29242Y13001D01*
X-29432Y12811D01*
X-29528Y12525D01*
Y12430D01*
X-29432Y12144D01*
X-29242Y11954D01*
X-28956Y11859D01*
X-28861D01*
X-28575Y11954D01*
X-28385Y12144D01*
X-28290Y12525D01*
Y13001D01*
X-28385Y13477D01*
X-28575Y13763D01*
X-28861Y13858D01*
X-29052D01*
X-29337Y13763D01*
X-29432Y13573D01*
X-27176Y11859D02*
X-27461Y11954D01*
X-27652Y12240D01*
X-27747Y12716D01*
Y13001D01*
X-27652Y13477D01*
X-27461Y13763D01*
X-27176Y13858D01*
X-26985D01*
X-26700Y13763D01*
X-26509Y13477D01*
X-26414Y13001D01*
Y12716D01*
X-26509Y12240D01*
X-26700Y11954D01*
X-26985Y11859D01*
X-27176D01*
X-29052Y3591D02*
X-29337Y3686D01*
X-29432Y3877D01*
Y4067D01*
X-29337Y4258D01*
X-29147Y4353D01*
X-28766Y4448D01*
X-28480Y4543D01*
X-28290Y4734D01*
X-28194Y4924D01*
Y5210D01*
X-28290Y5400D01*
X-28385Y5495D01*
X-28671Y5590D01*
X-29052D01*
X-29337Y5495D01*
X-29432Y5400D01*
X-29528Y5210D01*
Y4924D01*
X-29432Y4734D01*
X-29242Y4543D01*
X-28956Y4448D01*
X-28575Y4353D01*
X-28385Y4258D01*
X-28290Y4067D01*
Y3877D01*
X-28385Y3686D01*
X-28671Y3591D01*
X-29052D01*
X-26509Y4258D02*
X-26604Y4543D01*
X-26795Y4734D01*
X-27081Y4829D01*
X-27176D01*
X-27461Y4734D01*
X-27652Y4543D01*
X-27747Y4258D01*
Y4162D01*
X-27652Y3877D01*
X-27461Y3686D01*
X-27176Y3591D01*
X-27081D01*
X-26795Y3686D01*
X-26604Y3877D01*
X-26509Y4258D01*
Y4734D01*
X-26604Y5210D01*
X-26795Y5495D01*
X-27081Y5590D01*
X-27271D01*
X-27556Y5495D01*
X-27652Y5305D01*
X45764Y12335D02*
Y12240D01*
X45860Y12049D01*
X45955Y11954D01*
X46145Y11859D01*
X46526D01*
X46717Y11954D01*
X46812Y12049D01*
X46907Y12240D01*
Y12430D01*
X46812Y12620D01*
X46622Y12906D01*
X45669Y13858D01*
X47002D01*
X45669Y3972D02*
X45860Y3877D01*
X46145Y3591D01*
Y5590D01*
X8826Y7922D02*
Y9445D01*
X8731Y9731D01*
X8636Y9826D01*
X8445Y9921D01*
X8255D01*
X8065Y9826D01*
X7969Y9731D01*
X7874Y9445D01*
Y9255D01*
X9436Y8398D02*
Y8303D01*
X9531Y8112D01*
X9626Y8017D01*
X9816Y7922D01*
X10197D01*
X10388Y8017D01*
X10483Y8112D01*
X10578Y8303D01*
Y8493D01*
X10483Y8683D01*
X10293Y8969D01*
X9340Y9921D01*
X10673D01*
D19*
X104724Y-25984D02*
Y-24606D01*
X98724Y-22228D02*
X99224D01*
X98724D02*
Y-20472D01*
X99224D01*
X98724Y-24228D02*
X99224D01*
X98724Y-25984D02*
Y-24228D01*
Y-25984D02*
X99224D01*
X104724Y-21850D02*
Y-20472D01*
X110724Y-21228D02*
Y-20472D01*
X98819D02*
X110724D01*
X99224Y-22228D02*
Y-20472D01*
Y-25984D02*
Y-24228D01*
X99213Y-25984D02*
X110724D01*
Y-25228D01*
X105167Y-53937D02*
X105955D01*
Y-46063D01*
X105167D02*
X105955D01*
X102018D02*
X102805D01*
X102018Y-53937D02*
Y-46063D01*
Y-53937D02*
X102805D01*
X78347Y-7874D02*
Y-3874D01*
X73847Y-7874D02*
Y-7374D01*
Y-7874D02*
X82846D01*
Y-7374D01*
Y-4374D02*
Y-3874D01*
X73847D02*
X82846D01*
X73847Y-4374D02*
Y-3874D01*
X68110Y-7874D02*
Y-3874D01*
X63610Y-7874D02*
Y-7374D01*
Y-7874D02*
X72610D01*
Y-7374D01*
Y-4374D02*
Y-3874D01*
X63610D02*
X72610D01*
X63610Y-4374D02*
Y-3874D01*
X57968Y-7874D02*
Y-3874D01*
X53469Y-7874D02*
Y-7374D01*
Y-7874D02*
X62468D01*
Y-7374D01*
Y-4374D02*
Y-3874D01*
X53469D02*
X62468D01*
X53469Y-4374D02*
Y-3874D01*
X57774Y-25622D02*
Y-21622D01*
X53274Y-25622D02*
Y-25122D01*
Y-25622D02*
X62274D01*
Y-25122D01*
Y-22122D02*
Y-21622D01*
X53274D02*
X62274D01*
X53274Y-22122D02*
Y-21622D01*
X67913Y-25622D02*
Y-21622D01*
X63413Y-25622D02*
Y-25122D01*
Y-25622D02*
X72413D01*
Y-25122D01*
Y-22122D02*
Y-21622D01*
X63413D02*
X72413D01*
X63413Y-22122D02*
Y-21622D01*
X78231Y-25622D02*
Y-21622D01*
X73731Y-25622D02*
Y-25122D01*
Y-25622D02*
X82731D01*
Y-25122D01*
Y-22122D02*
Y-21622D01*
X73731D02*
X82731D01*
X73731Y-22122D02*
Y-21622D01*
X98567Y-4512D02*
X99067D01*
X98567D02*
Y-2756D01*
X99067D01*
X98567Y-6512D02*
X99067D01*
X98567Y-8268D02*
Y-6512D01*
Y-8268D02*
X99067D01*
X110567Y-3512D02*
Y-2756D01*
X98661D02*
X110567D01*
X99067Y-4512D02*
Y-2756D01*
Y-8268D02*
Y-6512D01*
X98661Y-8268D02*
X110567D01*
Y-7512D01*
X104567Y-8268D02*
Y-6890D01*
Y-4134D02*
Y-2756D01*
X-73228Y-12992D02*
Y-12205D01*
X-65354D01*
Y-12992D02*
Y-12205D01*
Y-16142D02*
Y-15354D01*
X-73228Y-16142D02*
X-65354D01*
X-73228D02*
Y-15354D01*
X-88471Y-29860D02*
X-87683D01*
X-88471D02*
Y-21986D01*
X-87683D01*
X-85321D02*
X-84534D01*
Y-29860D02*
Y-21986D01*
X-85321Y-29860D02*
X-84534D01*
X-66423D02*
X-65636D01*
X-66423D02*
Y-21986D01*
X-65636D01*
X-63274D02*
X-62486D01*
Y-29860D02*
Y-21986D01*
X-63274Y-29860D02*
X-62486D01*
X110567Y-14162D02*
Y-13406D01*
X98661Y-14162D02*
X110567D01*
X99067D02*
Y-12406D01*
Y-10406D02*
Y-8650D01*
X98661D02*
X110567D01*
Y-9406D02*
Y-8650D01*
X98567Y-14162D02*
X99067D01*
X98567D02*
Y-12406D01*
X99067D01*
X98567Y-8650D02*
X99067D01*
X98567Y-10406D02*
Y-8650D01*
Y-10406D02*
X99067D01*
X104567Y-14162D02*
Y-12784D01*
Y-10028D02*
Y-8650D01*
X110567Y-20068D02*
Y-19312D01*
X98661Y-20068D02*
X110567D01*
X99067D02*
Y-18312D01*
Y-16312D02*
Y-14556D01*
X98661D02*
X110567D01*
Y-15312D02*
Y-14556D01*
X98567Y-20068D02*
X99067D01*
X98567D02*
Y-18312D01*
X99067D01*
X98567Y-14556D02*
X99067D01*
X98567Y-16312D02*
Y-14556D01*
Y-16312D02*
X99067D01*
X104567Y-20068D02*
Y-18690D01*
Y-15934D02*
Y-14556D01*
X98567Y-34039D02*
X99067D01*
X98567D02*
Y-32283D01*
X99067D01*
X98567Y-36039D02*
X99067D01*
X98567Y-37795D02*
Y-36039D01*
Y-37795D02*
X99067D01*
X110567Y-33039D02*
Y-32283D01*
X98661D02*
X110567D01*
X99067Y-34039D02*
Y-32283D01*
Y-37795D02*
Y-36039D01*
X98661Y-37795D02*
X110567D01*
Y-37039D01*
X104567Y-37795D02*
Y-36417D01*
Y-33661D02*
Y-32283D01*
X110567Y-31890D02*
Y-31134D01*
X99055Y-31890D02*
X110567D01*
X99067D02*
Y-30134D01*
Y-28134D02*
Y-26378D01*
X98661D02*
X110567D01*
Y-27134D02*
Y-26378D01*
X104567Y-27756D02*
Y-26378D01*
X98567Y-31890D02*
X99067D01*
X98567D02*
Y-30134D01*
X99067D01*
X98567Y-26378D02*
X99067D01*
X98567Y-28134D02*
Y-26378D01*
Y-28134D02*
X99067D01*
X104567Y-31890D02*
Y-30512D01*
X-60236Y-15535D02*
X-59449D01*
Y-7661D01*
X-60236D02*
X-59449D01*
X-63386D02*
X-62598D01*
X-63386Y-15535D02*
Y-7661D01*
Y-15535D02*
X-62598D01*
X-38189D02*
X-37402D01*
Y-7661D01*
X-38189D02*
X-37402D01*
X-41339D02*
X-40551D01*
X-41339Y-15535D02*
Y-7661D01*
Y-15535D02*
X-40551D01*
X-60630Y1945D02*
Y2732D01*
X-68504D02*
X-60630D01*
X-68504Y1945D02*
Y2732D01*
Y-1205D02*
Y-418D01*
Y-1205D02*
X-60630D01*
Y-418D01*
Y-2756D02*
Y-1969D01*
X-68504D02*
X-60630D01*
X-68504Y-2756D02*
Y-1969D01*
Y-5906D02*
Y-5118D01*
Y-5906D02*
X-60630D01*
Y-5118D01*
X-56693Y21654D02*
Y22441D01*
X-64567D02*
X-56693D01*
X-64567Y21654D02*
Y22441D01*
Y18504D02*
Y19291D01*
Y18504D02*
X-56693D01*
Y19291D01*
X-72835Y23622D02*
Y32283D01*
X-63386Y23622D02*
Y24803D01*
X-82284Y23622D02*
X-63386D01*
X-82284D02*
Y24803D01*
Y31102D02*
Y32283D01*
X-63386D01*
Y31102D02*
Y32283D01*
X-88372Y13386D02*
X-79514D01*
X-88372Y22736D02*
X-87388D01*
X-88372Y4035D02*
Y22736D01*
Y4035D02*
X-87388D01*
X-80498D02*
X-79514D01*
Y22736D01*
X-80498D02*
X-79514D01*
X-78530Y13386D02*
X-69671D01*
X-78530Y22736D02*
X-77545D01*
X-78530Y4035D02*
Y22736D01*
Y4035D02*
X-77545D01*
X-70656D02*
X-69671D01*
Y22736D01*
X-70656D02*
X-69671D01*
X-62205Y24409D02*
X-61417D01*
X-62205D02*
Y32283D01*
X-61417D01*
X-59055D02*
X-58268D01*
Y24409D02*
Y32283D01*
X-59055Y24409D02*
X-58268D01*
X-77559Y65748D02*
Y66535D01*
X-69685D01*
Y65748D02*
Y66535D01*
Y62598D02*
Y63386D01*
X-77559Y62598D02*
X-69685D01*
X-77559D02*
Y63386D01*
X-78347Y62598D02*
Y63386D01*
X-86221Y62598D02*
X-78347D01*
X-86221D02*
Y63386D01*
Y65748D02*
Y66535D01*
X-78347D01*
Y65748D02*
Y66535D01*
X-85508Y61587D02*
X-85008D01*
Y52587D02*
Y61587D01*
X-85508Y52587D02*
X-85008D01*
X-89008D02*
X-88508D01*
X-89008D02*
Y61587D01*
X-88508D01*
X-89008Y57087D02*
X-85008D01*
X-104961Y65650D02*
Y74508D01*
X-114311Y65650D02*
Y66634D01*
Y65650D02*
X-95610D01*
Y66634D01*
Y73524D02*
Y74508D01*
X-114311D02*
X-95610D01*
X-114311Y73524D02*
Y74508D01*
X-9843Y-42913D02*
X-9055D01*
X-9843D02*
Y-35039D01*
X-9055D01*
X-6693D02*
X-5906D01*
Y-42913D02*
Y-35039D01*
X-6693Y-42913D02*
X-5906D01*
X-10236Y-26772D02*
Y-25984D01*
X-2362D01*
Y-26772D02*
Y-25984D01*
Y-29921D02*
Y-29134D01*
X-10236Y-29921D02*
X-2362D01*
X-10236D02*
Y-29134D01*
X-3937Y-20472D02*
Y-19685D01*
X3937D01*
Y-20472D02*
Y-19685D01*
Y-23622D02*
Y-22835D01*
X-3937Y-23622D02*
X3937D01*
X-3937D02*
Y-22835D01*
X12205Y-19291D02*
X12992D01*
Y-27165D02*
Y-19291D01*
X12205Y-27165D02*
X12992D01*
X9055D02*
X9843D01*
X9055D02*
Y-19291D01*
X9843D01*
X13386Y-48819D02*
Y-48031D01*
X5512Y-48819D02*
X13386D01*
X5512D02*
Y-48031D01*
Y-45669D02*
Y-44882D01*
X13386D01*
Y-45669D02*
Y-44882D01*
X-3543Y-49213D02*
X-2756D01*
X-3543D02*
Y-41339D01*
X-2756D01*
X-394D02*
X394D01*
Y-49213D02*
Y-41339D01*
X-394Y-49213D02*
X394D01*
X85433Y-38583D02*
X86220D01*
Y-46457D02*
Y-38583D01*
X85433Y-46457D02*
X86220D01*
X82283D02*
X83071D01*
X82283D02*
Y-38583D01*
X83071D01*
X85433Y-47244D02*
X86220D01*
Y-55118D02*
Y-47244D01*
X85433Y-55118D02*
X86220D01*
X82283D02*
X83071D01*
X82283D02*
Y-47244D01*
X83071D01*
X48945Y-42043D02*
Y-41543D01*
X57945D01*
Y-42043D02*
Y-41543D01*
Y-45543D02*
Y-45043D01*
X48945Y-45543D02*
X57945D01*
X48945D02*
Y-45043D01*
X53445Y-45543D02*
Y-41543D01*
X58043Y-59381D02*
Y-58881D01*
X49043Y-59381D02*
X58043D01*
X49043D02*
Y-58881D01*
Y-55881D02*
Y-55381D01*
X58043D01*
Y-55881D02*
Y-55381D01*
X53543Y-59381D02*
Y-55381D01*
X58043Y-50268D02*
Y-49768D01*
X49043Y-50268D02*
X58043D01*
X49043D02*
Y-49768D01*
Y-46768D02*
Y-46268D01*
X58043D01*
Y-46768D02*
Y-46268D01*
X53543Y-50268D02*
Y-46268D01*
Y-54756D02*
Y-50756D01*
X58043Y-51256D02*
Y-50756D01*
X49043D02*
X58043D01*
X49043Y-51256D02*
Y-50756D01*
Y-54756D02*
Y-54256D01*
Y-54756D02*
X58043D01*
Y-54256D01*
X41658Y-52193D02*
X42158D01*
Y-61193D02*
Y-52193D01*
X41658Y-61193D02*
X42158D01*
X38157D02*
X38658D01*
X38157D02*
Y-52193D01*
X38658D01*
X38157Y-56693D02*
X42158D01*
X36220Y-51968D02*
X37008D01*
Y-59842D02*
Y-51968D01*
X36220Y-59842D02*
X37008D01*
X33071D02*
X33858D01*
X33071D02*
Y-51968D01*
X33858D01*
X19685Y-37795D02*
Y-37008D01*
X11811Y-37795D02*
X19685D01*
X11811D02*
Y-37008D01*
Y-34646D02*
Y-33858D01*
X19685D01*
Y-34646D02*
Y-33858D01*
X15354Y-33465D02*
X16142D01*
X15354D02*
Y-25591D01*
X16142D01*
X18504D02*
X19291D01*
Y-33465D02*
Y-25591D01*
X18504Y-33465D02*
X19291D01*
X-10236Y-31496D02*
Y-30709D01*
X-2362D01*
Y-31496D02*
Y-30709D01*
Y-34646D02*
Y-33858D01*
X-10236Y-34646D02*
X-2362D01*
X-10236D02*
Y-33858D01*
X11811Y-39370D02*
Y-38583D01*
X19685D01*
Y-39370D02*
Y-38583D01*
Y-42520D02*
Y-41732D01*
X11811Y-42520D02*
X19685D01*
X11811D02*
Y-41732D01*
X1181Y-49213D02*
X1969D01*
X1181D02*
Y-41339D01*
X1969D01*
X4331D02*
X5118D01*
Y-49213D02*
Y-41339D01*
X4331Y-49213D02*
X5118D01*
X7480Y-19291D02*
X8268D01*
Y-27165D02*
Y-19291D01*
X7480Y-27165D02*
X8268D01*
X4331D02*
X5118D01*
X4331D02*
Y-19291D01*
X5118D01*
X5906Y-44488D02*
X6693D01*
X5906D02*
Y-36614D01*
X6693D01*
X9055D02*
X9843D01*
Y-44488D02*
Y-36614D01*
X9055Y-44488D02*
X9843D01*
X2756Y-24016D02*
X3543D01*
Y-31890D02*
Y-24016D01*
X2756Y-31890D02*
X3543D01*
X-394D02*
X394D01*
X-394D02*
Y-24016D01*
X394D01*
X-5512Y-36220D02*
Y-35433D01*
X2362D01*
Y-36220D02*
Y-35433D01*
Y-39370D02*
Y-38583D01*
X-5512Y-39370D02*
X2362D01*
X-5512D02*
Y-38583D01*
X14961Y-29921D02*
Y-29134D01*
X7087D02*
X14961D01*
X7087Y-29921D02*
Y-29134D01*
Y-33071D02*
Y-32283D01*
Y-33071D02*
X14961D01*
Y-32283D01*
X-85465Y-60012D02*
X-84965D01*
X-85465D02*
Y-51012D01*
X-84965D01*
X-81965D02*
X-81465D01*
Y-60012D02*
Y-51012D01*
X-81965Y-60012D02*
X-81465D01*
X-85465Y-55512D02*
X-81465D01*
X-80347Y-49776D02*
X-79847D01*
X-80347D02*
Y-40776D01*
X-79847D01*
X-76846D02*
X-76346D01*
Y-49776D02*
Y-40776D01*
X-76846Y-49776D02*
X-76346D01*
X-80347Y-45276D02*
X-76346D01*
X-76846Y-51012D02*
X-76346D01*
Y-60012D02*
Y-51012D01*
X-76846Y-60012D02*
X-76346D01*
X-80347D02*
X-79847D01*
X-80347D02*
Y-51012D01*
X-79847D01*
X-80347Y-55512D02*
X-76346D01*
X-67354Y-60012D02*
X-66854D01*
X-67354D02*
Y-51012D01*
X-66854D01*
X-63854D02*
X-63354D01*
Y-60012D02*
Y-51012D01*
X-63854Y-60012D02*
X-63354D01*
X-67354Y-55512D02*
X-63354D01*
X-72472Y-49776D02*
X-71972D01*
X-72472D02*
Y-40776D01*
X-71972D01*
X-68972D02*
X-68472D01*
Y-49776D02*
Y-40776D01*
X-68972Y-49776D02*
X-68472D01*
X-72472Y-45276D02*
X-68472D01*
X-81102Y-50000D02*
Y-49213D01*
X-88976Y-50000D02*
X-81102D01*
X-88976D02*
Y-49213D01*
Y-46850D02*
Y-46063D01*
X-81102D01*
Y-46850D02*
Y-46063D01*
X-92913Y-57874D02*
Y-50787D01*
X-86221Y-57874D02*
Y-56299D01*
X-99606Y-57874D02*
X-86221D01*
X-99606D02*
Y-56299D01*
Y-52362D02*
Y-50787D01*
X-86221D01*
Y-52362D02*
Y-50787D01*
X-59842Y-50000D02*
Y-49213D01*
X-67716Y-50000D02*
X-59842D01*
X-67716D02*
Y-49213D01*
Y-46850D02*
Y-46063D01*
X-59842D01*
Y-46850D02*
Y-46063D01*
X-52362Y-59449D02*
Y-52362D01*
X-59055Y-59449D02*
Y-58661D01*
Y-59449D02*
X-45669D01*
Y-58661D01*
X-59055Y-53150D02*
Y-52362D01*
X-45669D01*
Y-53150D02*
Y-52362D01*
X-52362Y-51575D02*
Y-44488D01*
X-59055Y-46063D02*
Y-44488D01*
X-45669D01*
Y-46063D02*
Y-44488D01*
Y-51575D02*
Y-50000D01*
X-59055Y-51575D02*
X-45669D01*
X-59055D02*
Y-50000D01*
X-72472Y-55512D02*
X-68472D01*
X-72472Y-51012D02*
X-71972D01*
X-72472Y-60012D02*
Y-51012D01*
Y-60012D02*
X-71972D01*
X-68972D02*
X-68472D01*
Y-51012D01*
X-68972D02*
X-68472D01*
D181*
X-77697Y49705D02*
G03*
X-77697Y49705I-1181J0D01*
G01*
D182*
X-105118Y14173D02*
X-98819D01*
X-105118Y36220D02*
X-98819D01*
D183*
X50787Y31890D02*
D03*
M02*
