M48
;Layer_Color=9474304
;FILE_FORMAT=2:5
INCH,LZ
;TYPE=PLATED
T3F00S00C0.01575
T4F00S00C0.01968
;TYPE=NON_PLATED
%
G90
G05
T03
G00X-0100197Y-0077716
M15
G01X-0102165
M16
G00X-0076968Y-0077716
M15
G01X-0075
M16
G00X-001752Y-0077716
M15
G01X-0019488
M16
G00X0005709Y-0077716
M15
G01X0007677
M16
G00X0065157Y-0077716
M15
G01X0063189
M16
G00X0088386Y-0077716
M15
G01X0090354
M16
T04
G00X-01125Y-0097638
M15
G01Y-0093701
M16
G00X-01125Y-0082835
M15
G01Y-0078898
M16
G00X-0106201Y-0072835
M15
G01Y-0070473
M16
G00X-0070965Y-0072835
M15
G01Y-0070473
M16
G00X-0064665Y-0082835
M15
G01Y-0078898
M16
G00X-0064665Y-0098032
M15
G01Y-0094095
M16
G00X-0029823Y-0097638
M15
G01Y-0093701
M16
G00X-0029823Y-0082835
M15
G01Y-0078898
M16
G00X-0023524Y-0072835
M15
G01Y-0070473
M16
G00X0011713Y-0072835
M15
G01Y-0070473
M16
G00X0018012Y-0082835
M15
G01Y-0078898
M16
G00X0018012Y-0098032
M15
G01Y-0094095
M16
G00X0052854Y-0097638
M15
G01Y-0093701
M16
G00X0052854Y-0082835
M15
G01Y-0078898
M16
G00X0059153Y-0072835
M15
G01Y-0070473
M16
G00X009439Y-0072835
M15
G01Y-0070473
M16
G00X0100689Y-0082835
M15
G01Y-0078898
M16
G00X0100689Y-0098032
M15
G01Y-0094095
M16
G00X-0033858Y0092913
M15
G01Y0090158
M16
G00X-0059842Y0092913
M15
G01Y0090158
M16
G00X-0077165Y0093012
M15
G01Y0090256
M16
G00X-010315Y0093012
M15
G01Y0090256
M16
M17
M30
