G04*
G04 #@! TF.GenerationSoftware,Altium Limited,Altium Designer,22.0.2 (36)*
G04*
G04 Layer_Color=16711935*
%FSLAX25Y25*%
%MOIN*%
G70*
G04*
G04 #@! TF.SameCoordinates,2161BBB5-3730-4A37-975F-558EB53CE70B*
G04*
G04*
G04 #@! TF.FilePolarity,Positive*
G04*
G01*
G75*
%ADD12C,0.00787*%
%ADD14C,0.00394*%
%ADD189C,0.00100*%
D12*
X39272Y94488D02*
X93799D01*
X39272Y30906D02*
Y94488D01*
Y30906D02*
X93799D01*
Y94488D01*
X89764D02*
Y99803D01*
X46457D02*
X89764D01*
X46457Y94488D02*
Y99803D01*
Y110039D01*
X89764D01*
Y99803D02*
Y110039D01*
X46457Y96653D02*
X89764D01*
D14*
X15846Y72146D02*
X22736D01*
X15846Y75886D02*
X22736D01*
Y72146D02*
Y75886D01*
X15846Y72146D02*
Y75886D01*
X14902Y83228D02*
Y85276D01*
X18957Y83228D02*
Y85276D01*
X14902D02*
X18957D01*
X14902Y83228D02*
X18957D01*
X15256Y80610D02*
X19390D01*
X15256Y78445D02*
X19390D01*
X15256D02*
Y80610D01*
X19390Y78445D02*
Y80610D01*
X27264Y72146D02*
Y75886D01*
X34154Y72146D02*
Y75886D01*
X27264D02*
X34154D01*
X27264Y72146D02*
X34154D01*
X-40787Y-73287D02*
X-38740D01*
X-40787Y-69232D02*
X-38740D01*
X-40787Y-73287D02*
Y-69232D01*
X-38740Y-73287D02*
Y-69232D01*
X-61713Y-55216D02*
X-57972D01*
X-61713Y-62106D02*
X-57972D01*
Y-55216D01*
X-61713Y-62106D02*
Y-55216D01*
X-109685Y-65020D02*
Y-60965D01*
X-107638Y-65020D02*
Y-60965D01*
X-109685Y-65020D02*
X-107638D01*
X-109685Y-60965D02*
X-107638D01*
X104272Y-58504D02*
X108327D01*
X104272Y-56457D02*
X108327D01*
Y-58504D02*
Y-56457D01*
X104272Y-58504D02*
Y-56457D01*
X5807Y78445D02*
X9941D01*
X5807Y80610D02*
X9941D01*
Y78445D02*
Y80610D01*
X5807Y78445D02*
Y80610D01*
X10295Y83228D02*
Y85276D01*
X6240Y83228D02*
Y85276D01*
Y83228D02*
X10295D01*
X6240Y85276D02*
X10295D01*
X-30374Y-19528D02*
X-26319D01*
X-30374Y-17480D02*
X-26319D01*
Y-19528D02*
Y-17480D01*
X-30374Y-19528D02*
Y-17480D01*
X-35113Y-13228D02*
Y-11181D01*
X-39168Y-13228D02*
Y-11181D01*
Y-13228D02*
X-35113D01*
X-39168Y-11181D02*
X-35113D01*
X-39168Y-19528D02*
Y-17480D01*
X-35113Y-19528D02*
Y-17480D01*
X-39168D02*
X-35113D01*
X-39168Y-19528D02*
X-35113D01*
X-39168Y-8504D02*
X-35113D01*
X-39168Y-6457D02*
X-35113D01*
Y-8504D02*
Y-6457D01*
X-39168Y-8504D02*
Y-6457D01*
X32972Y2461D02*
X37106D01*
X32972Y4626D02*
X37106D01*
Y2461D02*
Y4626D01*
X32972Y2461D02*
Y4626D01*
X-70138Y-36772D02*
X-66083D01*
X-70138Y-38819D02*
X-66083D01*
X-70138D02*
Y-36772D01*
X-66083Y-38819D02*
Y-36772D01*
X-20768Y72736D02*
Y76870D01*
X-18602Y72736D02*
Y76870D01*
X-20768Y72736D02*
X-18602D01*
X-20768Y76870D02*
X-18602D01*
X79232Y10335D02*
Y12500D01*
X75098Y10335D02*
Y12500D01*
Y10335D02*
X79232D01*
X75098Y12500D02*
X79232D01*
X68445Y25039D02*
X72500D01*
X68445Y22992D02*
X72500D01*
X68445D02*
Y25039D01*
X72500Y22992D02*
Y25039D01*
X89311Y19134D02*
X93366D01*
X89311Y17087D02*
X93366D01*
X89311D02*
Y19134D01*
X93366Y17087D02*
Y19134D01*
X75492Y16634D02*
Y20374D01*
X68602Y16634D02*
Y20374D01*
Y16634D02*
X75492D01*
X68602Y20374D02*
X75492D01*
X56988Y12697D02*
Y14862D01*
X61122Y12697D02*
Y14862D01*
X56988D02*
X61122D01*
X56988Y12697D02*
X61122D01*
X46004Y22992D02*
X50059D01*
X46004Y25039D02*
X50059D01*
Y22992D02*
Y25039D01*
X46004Y22992D02*
Y25039D01*
X13543Y46516D02*
X15590D01*
X13543Y42461D02*
X15590D01*
Y46516D01*
X13543Y42461D02*
Y46516D01*
X-44390Y20177D02*
Y22343D01*
X-48524Y20177D02*
Y22343D01*
Y20177D02*
X-44390D01*
X-48524Y22343D02*
X-44390D01*
X-94980Y66240D02*
X-90847D01*
X-94980Y68405D02*
X-90847D01*
Y66240D02*
Y68405D01*
X-94980Y66240D02*
Y68405D01*
X43799Y-68602D02*
Y-64468D01*
X45965Y-68602D02*
Y-64468D01*
X43799Y-68602D02*
X45965D01*
X43799Y-64468D02*
X45965D01*
X43799Y-78445D02*
Y-74311D01*
X45965Y-78445D02*
Y-74311D01*
X43799Y-78445D02*
X45965D01*
X43799Y-74311D02*
X45965D01*
X35335Y-79823D02*
X39469D01*
X35335Y-77658D02*
X39469D01*
Y-79823D02*
Y-77658D01*
X35335Y-79823D02*
Y-77658D01*
X40453Y-82776D02*
X44587D01*
X40453Y-84941D02*
X44587D01*
X40453D02*
Y-82776D01*
X44587Y-84941D02*
Y-82776D01*
X-27008Y-7815D02*
X-24961D01*
X-27008Y-11870D02*
X-24961D01*
Y-7815D01*
X-27008Y-11870D02*
Y-7815D01*
X26319Y-66378D02*
X30374D01*
X26319Y-64331D02*
X30374D01*
Y-66378D02*
Y-64331D01*
X26319Y-66378D02*
Y-64331D01*
X45827Y-47303D02*
Y-43248D01*
X47874Y-47303D02*
Y-43248D01*
X45827Y-47303D02*
X47874D01*
X45827Y-43248D02*
X47874D01*
X13543Y55177D02*
X15590D01*
X13543Y51122D02*
X15590D01*
Y55177D01*
X13543Y51122D02*
Y55177D01*
X-31594Y45768D02*
Y49508D01*
X-38484Y45768D02*
Y49508D01*
Y45768D02*
X-31594D01*
X-38484Y49508D02*
X-31594D01*
X-47402Y50335D02*
Y54390D01*
X-49449Y50335D02*
Y54390D01*
X-47402D01*
X-49449Y50335D02*
X-47402D01*
X-42283D02*
Y54390D01*
X-44331Y50335D02*
Y54390D01*
X-42283D01*
X-44331Y50335D02*
X-42283D01*
X-44331Y58996D02*
Y63051D01*
X-42283Y58996D02*
Y63051D01*
X-44331Y58996D02*
X-42283D01*
X-44331Y63051D02*
X-42283D01*
X-39035Y71811D02*
X-34980D01*
X-39035Y73858D02*
X-34980D01*
Y71811D02*
Y73858D01*
X-39035Y71811D02*
Y73858D01*
X-30374D02*
X-26319D01*
X-30374Y71811D02*
X-26319D01*
X-30374D02*
Y73858D01*
X-26319Y71811D02*
Y73858D01*
X-51083Y59154D02*
X-47343D01*
X-51083Y66043D02*
X-47343D01*
X-51083Y59154D02*
Y66043D01*
X-47343Y59154D02*
Y66043D01*
X-66634Y85532D02*
Y92421D01*
X-70374Y85532D02*
Y92421D01*
X-66634D01*
X-70374Y85532D02*
X-66634D01*
X-57776Y65256D02*
X-54035D01*
X-57776Y72146D02*
X-54035D01*
X-57776Y65256D02*
Y72146D01*
X-54035Y65256D02*
Y72146D01*
X-69587Y79626D02*
X-67421D01*
X-69587Y75492D02*
X-67421D01*
Y79626D01*
X-69587Y75492D02*
Y79626D01*
X35335Y-75098D02*
Y-72933D01*
X39469Y-75098D02*
Y-72933D01*
X35335D02*
X39469D01*
X35335Y-75098D02*
X39469D01*
X-55807Y58366D02*
Y60532D01*
X-59941Y58366D02*
Y60532D01*
Y58366D02*
X-55807D01*
X-59941Y60532D02*
X-55807D01*
X-39862Y66634D02*
Y68799D01*
X-35728Y66634D02*
Y68799D01*
X-39862D02*
X-35728D01*
X-39862Y66634D02*
X-35728D01*
X-25492Y66634D02*
Y68799D01*
X-29626Y66634D02*
Y68799D01*
Y66634D02*
X-25492D01*
X-29626Y68799D02*
X-25492D01*
X-51968Y46457D02*
Y51968D01*
X-63779Y46457D02*
Y51968D01*
X-51968D01*
X-63779Y46457D02*
X-51968D01*
X-101476Y72146D02*
X-99311D01*
X-101476Y68012D02*
X-99311D01*
Y72146D01*
X-101476Y68012D02*
Y72146D01*
X34803Y-15413D02*
Y-11358D01*
X36850Y-15413D02*
Y-11358D01*
X34803Y-15413D02*
X36850D01*
X34803Y-11358D02*
X36850D01*
X28051Y13484D02*
Y15650D01*
X23917Y13484D02*
Y15650D01*
Y13484D02*
X28051D01*
X23917Y15650D02*
X28051D01*
X33760Y79232D02*
Y86122D01*
X30020Y79232D02*
Y86122D01*
X33760D01*
X30020Y79232D02*
X33760D01*
X-34488Y-34705D02*
Y-30650D01*
X-32441Y-34705D02*
Y-30650D01*
X-34488Y-34705D02*
X-32441D01*
X-34488Y-30650D02*
X-32441D01*
X-70866Y-45669D02*
X-65354D01*
X-70866Y-54331D02*
X-65354D01*
Y-45669D01*
X-70866Y-54331D02*
Y-45669D01*
X-81555Y-44724D02*
X-77500D01*
X-81555Y-42677D02*
X-77500D01*
Y-44724D02*
Y-42677D01*
X-81555Y-44724D02*
Y-42677D01*
X-71890Y-33130D02*
Y-29075D01*
X-69842Y-33130D02*
Y-29075D01*
X-71890Y-33130D02*
X-69842D01*
X-71890Y-29075D02*
X-69842D01*
X-67165Y-31949D02*
Y-27894D01*
X-65118Y-31949D02*
Y-27894D01*
X-67165Y-31949D02*
X-65118D01*
X-67165Y-27894D02*
X-65118D01*
X-79921Y-33858D02*
X-74410D01*
X-79921Y-25197D02*
X-74410D01*
X-79921Y-33858D02*
Y-25197D01*
X-74410Y-33858D02*
Y-25197D01*
X-69842Y-24468D02*
Y-20413D01*
X-71890Y-24468D02*
Y-20413D01*
X-69842D01*
X-71890Y-24468D02*
X-69842D01*
X-56752Y-23858D02*
X-52697D01*
X-56752Y-21811D02*
X-52697D01*
Y-23858D02*
Y-21811D01*
X-56752Y-23858D02*
Y-21811D01*
X-50394Y-19291D02*
Y-13780D01*
X-59055Y-19291D02*
Y-13780D01*
Y-19291D02*
X-50394D01*
X-59055Y-13780D02*
X-50394D01*
X-81555Y-40000D02*
X-77500D01*
X-81555Y-37953D02*
X-77500D01*
Y-40000D02*
Y-37953D01*
X-81555Y-40000D02*
Y-37953D01*
X-52067Y-93012D02*
X-47933D01*
X-52067Y-95177D02*
X-47933D01*
X-52067D02*
Y-93012D01*
X-47933Y-95177D02*
Y-93012D01*
X-42815Y-90059D02*
Y-87894D01*
X-46949Y-90059D02*
Y-87894D01*
Y-90059D02*
X-42815D01*
X-46949Y-87894D02*
X-42815D01*
X-51279Y-88681D02*
Y-84547D01*
X-53445Y-88681D02*
Y-84547D01*
X-51279D01*
X-53445Y-88681D02*
X-51279D01*
X-46949Y-83169D02*
X-42815D01*
X-46949Y-85335D02*
X-42815D01*
X-46949D02*
Y-83169D01*
X-42815Y-85335D02*
Y-83169D01*
X-52067Y-80216D02*
X-47933D01*
X-52067Y-78051D02*
X-47933D01*
Y-80216D02*
Y-78051D01*
X-52067Y-80216D02*
Y-78051D01*
X-27402Y-58327D02*
X-25354D01*
X-27402Y-54272D02*
X-25354D01*
X-27402Y-58327D02*
Y-54272D01*
X-25354Y-58327D02*
Y-54272D01*
D189*
X-59850Y-44220D02*
X-54850Y-49220D01*
X-59850Y-33080D02*
Y-31880D01*
Y-33080D02*
Y-31880D01*
Y-35049D02*
Y-33849D01*
Y-35049D02*
Y-33849D01*
Y-37017D02*
Y-35817D01*
Y-37017D02*
Y-35817D01*
Y-38986D02*
Y-37786D01*
Y-38986D02*
Y-37786D01*
Y-40954D02*
Y-39754D01*
Y-40954D02*
Y-39754D01*
Y-42923D02*
Y-41723D01*
Y-42923D02*
Y-41723D01*
Y-44891D02*
Y-43691D01*
Y-44891D02*
Y-43691D01*
Y-46860D02*
Y-45660D01*
Y-46860D02*
Y-45660D01*
X-57490Y-49220D02*
X-56290D01*
X-57490D02*
X-56290D01*
X-55521D02*
X-54321D01*
X-55521D02*
X-54321D01*
X-53553D02*
X-52353D01*
X-53553D02*
X-52353D01*
X-51584D02*
X-50384D01*
X-51584D02*
X-50384D01*
X-49616D02*
X-48416D01*
X-49616D02*
X-48416D01*
X-47647D02*
X-46447D01*
X-47647D02*
X-46447D01*
X-45679D02*
X-44479D01*
X-45679D02*
X-44479D01*
X-43710D02*
X-42510D01*
X-43710D02*
X-42510D01*
X-40150Y-46860D02*
Y-45660D01*
Y-46860D02*
Y-45660D01*
Y-44891D02*
Y-43691D01*
Y-44891D02*
Y-43691D01*
Y-42923D02*
Y-41723D01*
Y-42923D02*
Y-41723D01*
Y-40954D02*
Y-39754D01*
Y-40954D02*
Y-39754D01*
Y-38986D02*
Y-37786D01*
Y-38986D02*
Y-37786D01*
Y-37017D02*
Y-35817D01*
Y-37017D02*
Y-35817D01*
Y-35049D02*
Y-33849D01*
Y-35049D02*
Y-33849D01*
Y-33080D02*
Y-31880D01*
Y-33080D02*
Y-31880D01*
X-43710Y-29520D02*
X-42510D01*
X-43710D02*
X-42510D01*
X-45679D02*
X-44479D01*
X-45679D02*
X-44479D01*
X-47647D02*
X-46447D01*
X-47647D02*
X-46447D01*
X-49616D02*
X-48416D01*
X-49616D02*
X-48416D01*
X-51584D02*
X-50384D01*
X-51584D02*
X-50384D01*
X-53553D02*
X-52353D01*
X-53553D02*
X-52353D01*
X-55521D02*
X-54321D01*
X-55521D02*
X-54321D01*
X-57490D02*
X-56290D01*
X-57490D02*
X-56290D01*
X-40150Y-49220D02*
Y-29520D01*
X-59850D02*
X-40150D01*
X-59850Y-49220D02*
Y-29520D01*
Y-49220D02*
X-40150D01*
M02*
