G04*
G04 #@! TF.GenerationSoftware,Altium Limited,Altium Designer,22.0.2 (36)*
G04*
G04 Layer_Physical_Order=2*
G04 Layer_Color=36540*
%FSLAX25Y25*%
%MOIN*%
G70*
G04*
G04 #@! TF.SameCoordinates,2161BBB5-3730-4A37-975F-558EB53CE70B*
G04*
G04*
G04 #@! TF.FilePolarity,Positive*
G04*
G01*
G75*
%ADD138O,0.04528X0.02559*%
%ADD140O,0.03937X0.06299*%
%ADD141O,0.03937X0.10079*%
%ADD142O,0.03543X0.06299*%
%ADD144C,0.01800*%
G36*
X101573Y94901D02*
X101573Y94733D01*
X100618Y93949D01*
X99805Y92959D01*
X99202Y91830D01*
X98830Y90605D01*
X98705Y89331D01*
X98830Y88056D01*
X99202Y86831D01*
X99805Y85702D01*
X100618Y84712D01*
X101608Y83900D01*
X102737Y83296D01*
X103962Y82925D01*
X105236Y82799D01*
X106510Y82925D01*
X107736Y83296D01*
X108865Y83900D01*
X109855Y84712D01*
X110481Y85476D01*
X110981Y85297D01*
Y-103501D01*
X97680D01*
Y-100868D01*
X97694Y-100861D01*
X98180Y-100741D01*
X98572Y-101251D01*
X99192Y-101727D01*
X99914Y-102026D01*
X100189Y-102062D01*
Y-96063D01*
Y-90064D01*
X99914Y-90100D01*
X99192Y-90399D01*
X98572Y-90875D01*
X98180Y-91385D01*
X97694Y-91265D01*
X97680Y-91258D01*
Y-85672D01*
X97694Y-85664D01*
X98180Y-85544D01*
X98572Y-86054D01*
X99192Y-86530D01*
X99914Y-86829D01*
X100189Y-86865D01*
Y-81366D01*
X97695D01*
Y-82687D01*
X97620Y-82748D01*
X97195Y-82908D01*
X96925Y-82728D01*
X96457Y-82635D01*
X88727D01*
X88491Y-82194D01*
X88573Y-82071D01*
X88734Y-81260D01*
X88591Y-80541D01*
X88769Y-80206D01*
X88870Y-80080D01*
Y-78216D01*
X86161D01*
X86238Y-78606D01*
X86347Y-78769D01*
X86156Y-79231D01*
X85803Y-79301D01*
X85426Y-79553D01*
X85039Y-79727D01*
X84653Y-79553D01*
X84276Y-79301D01*
X83974Y-79241D01*
X83744Y-78685D01*
X83849Y-78528D01*
X84010Y-77716D01*
X83849Y-76905D01*
X83389Y-76217D01*
X82701Y-75758D01*
X81890Y-75596D01*
X81078Y-75758D01*
X80391Y-76217D01*
X80368Y-76251D01*
X79868D01*
X79846Y-76217D01*
X79158Y-75758D01*
X78346Y-75596D01*
X77535Y-75758D01*
X76847Y-76217D01*
X76696D01*
X76008Y-75758D01*
X75197Y-75596D01*
X74385Y-75758D01*
X73698Y-76217D01*
X73675Y-76251D01*
X73175D01*
X73153Y-76217D01*
X72465Y-75758D01*
X71653Y-75596D01*
X70842Y-75758D01*
X70154Y-76217D01*
X69695Y-76905D01*
X69533Y-77716D01*
X69695Y-78528D01*
X69800Y-78685D01*
X69570Y-79241D01*
X69267Y-79301D01*
X68891Y-79553D01*
X68504Y-79727D01*
X68117Y-79553D01*
X67740Y-79301D01*
X67387Y-79231D01*
X67196Y-78769D01*
X67305Y-78606D01*
X67382Y-78217D01*
X64673D01*
Y-80080D01*
X64775Y-80206D01*
X64952Y-80541D01*
X64809Y-81260D01*
X64970Y-82071D01*
X65052Y-82194D01*
X64816Y-82635D01*
X57087D01*
X56618Y-82728D01*
X56348Y-82908D01*
X55923Y-82748D01*
X55848Y-82687D01*
Y-81366D01*
X53354D01*
Y-86865D01*
X53629Y-86829D01*
X54351Y-86530D01*
X54971Y-86054D01*
X55363Y-85544D01*
X55849Y-85663D01*
X55863Y-85672D01*
Y-90864D01*
X55849Y-90872D01*
X55363Y-90992D01*
X54971Y-90481D01*
X54351Y-90005D01*
X53629Y-89706D01*
X53354Y-89670D01*
Y-95669D01*
Y-101669D01*
X53629Y-101632D01*
X54351Y-101333D01*
X54971Y-100857D01*
X55363Y-100347D01*
X55849Y-100466D01*
X55863Y-100475D01*
Y-103501D01*
X15003D01*
Y-100868D01*
X15017Y-100861D01*
X15503Y-100741D01*
X15895Y-101251D01*
X16515Y-101727D01*
X17237Y-102026D01*
X17512Y-102062D01*
Y-96063D01*
Y-90064D01*
X17237Y-90100D01*
X16515Y-90399D01*
X15895Y-90875D01*
X15503Y-91385D01*
X15017Y-91265D01*
X15003Y-91258D01*
Y-85672D01*
X15017Y-85664D01*
X15503Y-85544D01*
X15895Y-86054D01*
X16515Y-86530D01*
X17237Y-86829D01*
X17512Y-86865D01*
Y-81366D01*
X15018D01*
Y-82687D01*
X14943Y-82748D01*
X14518Y-82908D01*
X14248Y-82728D01*
X13780Y-82635D01*
X6050D01*
X5814Y-82194D01*
X5896Y-82071D01*
X6057Y-81260D01*
X5896Y-80449D01*
X5821Y-80337D01*
X6089Y-79837D01*
X7677D01*
X8489Y-79675D01*
X9176Y-79216D01*
X9636Y-78528D01*
X9797Y-77716D01*
X9636Y-76905D01*
X9176Y-76217D01*
X8489Y-75758D01*
X8084Y-75677D01*
Y-75167D01*
X8450Y-75094D01*
X9105Y-74657D01*
X9362Y-74648D01*
X9595Y-74952D01*
X10215Y-75428D01*
X10938Y-75727D01*
X11213Y-75763D01*
Y-71653D01*
Y-67544D01*
X10938Y-67580D01*
X10215Y-67879D01*
X9595Y-68355D01*
X9120Y-68975D01*
X8821Y-69697D01*
X8718Y-70473D01*
Y-70986D01*
X8218Y-71316D01*
X7677Y-71209D01*
X6904Y-71362D01*
X6249Y-71800D01*
X5811Y-72455D01*
X5657Y-73228D01*
X5811Y-74001D01*
X6249Y-74657D01*
X6904Y-75094D01*
X6913Y-75096D01*
X6864Y-75596D01*
X5709D01*
X4897Y-75758D01*
X4209Y-76217D01*
X3750Y-76905D01*
X3588Y-77716D01*
X3750Y-78528D01*
X3832Y-78651D01*
X3602Y-79206D01*
X3126Y-79301D01*
X2749Y-79553D01*
X2362Y-79727D01*
X1975Y-79553D01*
X1599Y-79301D01*
X1296Y-79241D01*
X1066Y-78685D01*
X1171Y-78528D01*
X1333Y-77716D01*
X1171Y-76905D01*
X712Y-76217D01*
X24Y-75758D01*
X-787Y-75596D01*
X-1599Y-75758D01*
X-2287Y-76217D01*
X-2309Y-76251D01*
X-2809D01*
X-2832Y-76217D01*
X-3519Y-75758D01*
X-4331Y-75596D01*
X-5142Y-75758D01*
X-5830Y-76217D01*
X-5981D01*
X-6669Y-75758D01*
X-7480Y-75596D01*
X-8292Y-75758D01*
X-8980Y-76217D01*
X-9002Y-76251D01*
X-9502D01*
X-9524Y-76217D01*
X-10212Y-75758D01*
X-11024Y-75596D01*
X-11835Y-75758D01*
X-12523Y-76217D01*
X-12982Y-76905D01*
X-13144Y-77716D01*
X-12982Y-78528D01*
X-12877Y-78685D01*
X-13107Y-79241D01*
X-13410Y-79301D01*
X-13786Y-79553D01*
X-14173Y-79727D01*
X-14560Y-79553D01*
X-14937Y-79301D01*
X-15413Y-79206D01*
X-15643Y-78651D01*
X-15561Y-78528D01*
X-15400Y-77716D01*
X-15561Y-76905D01*
X-16021Y-76217D01*
X-16708Y-75758D01*
X-17520Y-75596D01*
X-18675D01*
X-18724Y-75096D01*
X-18715Y-75094D01*
X-18060Y-74657D01*
X-17622Y-74001D01*
X-17468Y-73228D01*
X-17622Y-72455D01*
X-18060Y-71800D01*
X-18715Y-71362D01*
X-19488Y-71209D01*
X-20030Y-71316D01*
X-20529Y-70986D01*
Y-70473D01*
X-20632Y-69697D01*
X-20931Y-68975D01*
X-21407Y-68355D01*
X-22027Y-67879D01*
X-22749Y-67580D01*
X-23024Y-67544D01*
Y-71653D01*
Y-75763D01*
X-22749Y-75727D01*
X-22027Y-75428D01*
X-21407Y-74952D01*
X-21174Y-74648D01*
X-20917Y-74657D01*
X-20261Y-75094D01*
X-19895Y-75167D01*
Y-75677D01*
X-20300Y-75758D01*
X-20988Y-76217D01*
X-21447Y-76905D01*
X-21609Y-77716D01*
X-21447Y-78528D01*
X-20988Y-79216D01*
X-20300Y-79675D01*
X-19488Y-79837D01*
X-17900D01*
X-17632Y-80337D01*
X-17707Y-80449D01*
X-17868Y-81260D01*
X-17707Y-82071D01*
X-17625Y-82194D01*
X-17861Y-82635D01*
X-25591D01*
X-26059Y-82728D01*
X-26329Y-82908D01*
X-26754Y-82748D01*
X-26829Y-82687D01*
Y-81366D01*
X-29323D01*
Y-86865D01*
X-29048Y-86829D01*
X-28326Y-86530D01*
X-27706Y-86054D01*
X-27314Y-85544D01*
X-26829Y-85663D01*
X-26814Y-85672D01*
Y-90864D01*
X-26829Y-90872D01*
X-27314Y-90992D01*
X-27706Y-90481D01*
X-28326Y-90005D01*
X-29048Y-89706D01*
X-29323Y-89670D01*
Y-95669D01*
Y-101669D01*
X-29048Y-101632D01*
X-28326Y-101333D01*
X-27706Y-100857D01*
X-27314Y-100347D01*
X-26829Y-100466D01*
X-26814Y-100475D01*
Y-103501D01*
X-67674D01*
Y-100868D01*
X-67660Y-100860D01*
X-67174Y-100741D01*
X-66782Y-101251D01*
X-66162Y-101727D01*
X-65440Y-102026D01*
X-65165Y-102062D01*
Y-96063D01*
Y-90064D01*
X-65440Y-90100D01*
X-66162Y-90399D01*
X-66782Y-90875D01*
X-67174Y-91385D01*
X-67660Y-91266D01*
X-67674Y-91258D01*
Y-85672D01*
X-67660Y-85663D01*
X-67174Y-85544D01*
X-66782Y-86054D01*
X-66162Y-86530D01*
X-65440Y-86829D01*
X-65165Y-86865D01*
Y-81366D01*
X-67659D01*
Y-82687D01*
X-67734Y-82748D01*
X-68160Y-82908D01*
X-68429Y-82728D01*
X-68898Y-82635D01*
X-76627D01*
X-76863Y-82194D01*
X-76781Y-82071D01*
X-76620Y-81260D01*
X-76763Y-80541D01*
X-76586Y-80206D01*
X-76484Y-80080D01*
Y-78216D01*
X-79193D01*
X-79116Y-78606D01*
X-79007Y-78769D01*
X-79198Y-79231D01*
X-79552Y-79301D01*
X-80239Y-79761D01*
X-80391D01*
X-81078Y-79301D01*
X-81381Y-79241D01*
X-81611Y-78685D01*
X-81506Y-78528D01*
X-81344Y-77716D01*
X-81506Y-76905D01*
X-81965Y-76217D01*
X-82653Y-75758D01*
X-83465Y-75596D01*
X-84276Y-75758D01*
X-84964Y-76217D01*
X-84986Y-76251D01*
X-85486D01*
X-85509Y-76217D01*
X-86197Y-75758D01*
X-87008Y-75596D01*
X-87819Y-75758D01*
X-88507Y-76217D01*
X-88658D01*
X-89346Y-75758D01*
X-90158Y-75596D01*
X-90969Y-75758D01*
X-91657Y-76217D01*
X-91679Y-76251D01*
X-92179D01*
X-92202Y-76217D01*
X-92889Y-75758D01*
X-93701Y-75596D01*
X-94512Y-75758D01*
X-95200Y-76217D01*
X-95660Y-76905D01*
X-95821Y-77716D01*
X-95660Y-78528D01*
X-95555Y-78685D01*
X-95785Y-79241D01*
X-96087Y-79301D01*
X-96464Y-79553D01*
X-96850Y-79727D01*
X-97237Y-79553D01*
X-97614Y-79301D01*
X-97967Y-79231D01*
X-98158Y-78769D01*
X-98050Y-78606D01*
X-97972Y-78217D01*
X-100681D01*
Y-80080D01*
X-100580Y-80206D01*
X-100402Y-80541D01*
X-100546Y-81260D01*
X-100384Y-82071D01*
X-100302Y-82194D01*
X-100538Y-82635D01*
X-108268D01*
X-108736Y-82728D01*
X-109006Y-82908D01*
X-109431Y-82748D01*
X-109506Y-82687D01*
Y-81366D01*
X-112000D01*
Y-86865D01*
X-111725Y-86829D01*
X-111003Y-86530D01*
X-110383Y-86054D01*
X-109991Y-85544D01*
X-109505Y-85663D01*
X-109491Y-85672D01*
Y-90864D01*
X-109505Y-90872D01*
X-109991Y-90992D01*
X-110383Y-90481D01*
X-111003Y-90005D01*
X-111725Y-89706D01*
X-112000Y-89670D01*
Y-95669D01*
Y-101669D01*
X-111725Y-101632D01*
X-111003Y-101333D01*
X-110383Y-100857D01*
X-109991Y-100347D01*
X-109505Y-100467D01*
X-109491Y-100475D01*
Y-103501D01*
X-122792D01*
Y7480D01*
X-122885Y7948D01*
X-123151Y8345D01*
X-123548Y8611D01*
X-124016Y8704D01*
X-138934D01*
Y9426D01*
X-138434Y9669D01*
X-138065Y9422D01*
X-137402Y9290D01*
X-136738Y9422D01*
X-136221Y9768D01*
X-135703Y9422D01*
X-135039Y9290D01*
X-134376Y9422D01*
X-133858Y9768D01*
X-133341Y9422D01*
X-132677Y9290D01*
X-132014Y9422D01*
X-131496Y9768D01*
X-130978Y9422D01*
X-130315Y9290D01*
X-129652Y9422D01*
X-129134Y9768D01*
X-128616Y9422D01*
X-127953Y9290D01*
X-127289Y9422D01*
X-126772Y9768D01*
X-126254Y9422D01*
X-125591Y9290D01*
X-124927Y9422D01*
X-124409Y9768D01*
X-123892Y9422D01*
X-123228Y9290D01*
X-122565Y9422D01*
X-122003Y9798D01*
X-121627Y10360D01*
X-121495Y11024D01*
X-121627Y11687D01*
X-121973Y12205D01*
X-121627Y12722D01*
X-121495Y13386D01*
X-121627Y14049D01*
X-121973Y14567D01*
X-121627Y15085D01*
X-121495Y15748D01*
X-121627Y16411D01*
X-122003Y16974D01*
X-122565Y17349D01*
X-123228Y17481D01*
X-123892Y17349D01*
X-124409Y17003D01*
X-124927Y17349D01*
X-125591Y17481D01*
X-126254Y17349D01*
X-126772Y17003D01*
X-127289Y17349D01*
X-127953Y17481D01*
X-128616Y17349D01*
X-129134Y17003D01*
X-129652Y17349D01*
X-130315Y17481D01*
X-130978Y17349D01*
X-131496Y17003D01*
X-132014Y17349D01*
X-132677Y17481D01*
X-133341Y17349D01*
X-133858Y17003D01*
X-134376Y17349D01*
X-135039Y17481D01*
X-135703Y17349D01*
X-136221Y17003D01*
X-136738Y17349D01*
X-137402Y17481D01*
X-138065Y17349D01*
X-138434Y17103D01*
X-138934Y17346D01*
Y29111D01*
X-138434Y29354D01*
X-138065Y29107D01*
X-137402Y28975D01*
X-136738Y29107D01*
X-136221Y29453D01*
X-135703Y29107D01*
X-135039Y28975D01*
X-134376Y29107D01*
X-133858Y29453D01*
X-133341Y29107D01*
X-132677Y28975D01*
X-132014Y29107D01*
X-131496Y29453D01*
X-130978Y29107D01*
X-130315Y28975D01*
X-129652Y29107D01*
X-129134Y29453D01*
X-128616Y29107D01*
X-127953Y28975D01*
X-127289Y29107D01*
X-126772Y29453D01*
X-126254Y29107D01*
X-125591Y28975D01*
X-124927Y29107D01*
X-124409Y29453D01*
X-123892Y29107D01*
X-123228Y28975D01*
X-122565Y29107D01*
X-122003Y29483D01*
X-121627Y30045D01*
X-121495Y30709D01*
X-121627Y31372D01*
X-121973Y31890D01*
X-121627Y32408D01*
X-121495Y33071D01*
X-121627Y33734D01*
X-121973Y34252D01*
X-121627Y34770D01*
X-121495Y35433D01*
X-121627Y36096D01*
X-122003Y36659D01*
X-122565Y37034D01*
X-123228Y37166D01*
X-123892Y37034D01*
X-124409Y36689D01*
X-124927Y37034D01*
X-125591Y37166D01*
X-126254Y37034D01*
X-126772Y36689D01*
X-127289Y37034D01*
X-127953Y37166D01*
X-128616Y37034D01*
X-129134Y36689D01*
X-129652Y37034D01*
X-130315Y37166D01*
X-130978Y37034D01*
X-131496Y36689D01*
X-132014Y37034D01*
X-132677Y37166D01*
X-133341Y37034D01*
X-133858Y36689D01*
X-134376Y37034D01*
X-135039Y37166D01*
X-135703Y37034D01*
X-136221Y36689D01*
X-136738Y37034D01*
X-137402Y37166D01*
X-138065Y37034D01*
X-138434Y36788D01*
X-138934Y37031D01*
Y38953D01*
X-138434Y39197D01*
X-138065Y38950D01*
X-137402Y38818D01*
X-136738Y38950D01*
X-136221Y39296D01*
X-135703Y38950D01*
X-135039Y38818D01*
X-134376Y38950D01*
X-133858Y39296D01*
X-133341Y38950D01*
X-132677Y38818D01*
X-132014Y38950D01*
X-131496Y39296D01*
X-130978Y38950D01*
X-130315Y38818D01*
X-129652Y38950D01*
X-129134Y39296D01*
X-128616Y38950D01*
X-127953Y38818D01*
X-127289Y38950D01*
X-126772Y39296D01*
X-126254Y38950D01*
X-125591Y38818D01*
X-124927Y38950D01*
X-124409Y39296D01*
X-123892Y38950D01*
X-123228Y38818D01*
X-122565Y38950D01*
X-122003Y39325D01*
X-121627Y39888D01*
X-121495Y40551D01*
X-121627Y41214D01*
X-121973Y41732D01*
X-121627Y42250D01*
X-121495Y42913D01*
X-121627Y43577D01*
X-121973Y44094D01*
X-121627Y44612D01*
X-121495Y45276D01*
X-121627Y45939D01*
X-122003Y46501D01*
X-122565Y46877D01*
X-123228Y47009D01*
X-123892Y46877D01*
X-124409Y46531D01*
X-124927Y46877D01*
X-125591Y47009D01*
X-126254Y46877D01*
X-126772Y46531D01*
X-127289Y46877D01*
X-127953Y47009D01*
X-128616Y46877D01*
X-129134Y46531D01*
X-129652Y46877D01*
X-130315Y47009D01*
X-130978Y46877D01*
X-131496Y46531D01*
X-132014Y46877D01*
X-132677Y47009D01*
X-133341Y46877D01*
X-133858Y46531D01*
X-134376Y46877D01*
X-135039Y47009D01*
X-135703Y46877D01*
X-136221Y46531D01*
X-136738Y46877D01*
X-137402Y47009D01*
X-138065Y46877D01*
X-138434Y46630D01*
X-138934Y46874D01*
Y47595D01*
X-124016D01*
X-123548Y47689D01*
X-123151Y47954D01*
X-122885Y48351D01*
X-122792Y48819D01*
Y95233D01*
X-105569D01*
X-105322Y94733D01*
X-105571Y94410D01*
X-105850Y93735D01*
X-105945Y93012D01*
Y92134D01*
X-103150D01*
X-100354D01*
Y93012D01*
X-100449Y93735D01*
X-100729Y94410D01*
X-100977Y94733D01*
X-100730Y95233D01*
X-79585D01*
X-79338Y94733D01*
X-79586Y94410D01*
X-79866Y93735D01*
X-79961Y93012D01*
Y92134D01*
X-77165D01*
X-74370D01*
Y93012D01*
X-74465Y93735D01*
X-74744Y94410D01*
X-74993Y94733D01*
X-74746Y95233D01*
X-62149D01*
X-61940Y94733D01*
X-62264Y94311D01*
X-62543Y93637D01*
X-62638Y92913D01*
Y92035D01*
X-59842D01*
X-57047D01*
Y92913D01*
X-57142Y93637D01*
X-57421Y94311D01*
X-57745Y94733D01*
X-57536Y95233D01*
X-36165D01*
X-35956Y94733D01*
X-36279Y94311D01*
X-36559Y93637D01*
X-36654Y92913D01*
Y92035D01*
X-33858D01*
X-31063D01*
Y92913D01*
X-31158Y93637D01*
X-31437Y94311D01*
X-31761Y94733D01*
X-31552Y95233D01*
X-29817D01*
X-29666Y94733D01*
X-29966Y94533D01*
X-30342Y93970D01*
X-30474Y93307D01*
X-30342Y92644D01*
X-29966Y92081D01*
X-29403Y91706D01*
X-28740Y91574D01*
X-28077Y91706D01*
X-27514Y92081D01*
X-27139Y92644D01*
X-27007Y93307D01*
X-27139Y93970D01*
X-27514Y94533D01*
X-27815Y94733D01*
X-27663Y95233D01*
X101489D01*
X101573Y94901D01*
D02*
G37*
%LPC*%
G36*
X-74370Y91134D02*
X-76665D01*
Y87526D01*
X-76442Y87556D01*
X-75768Y87835D01*
X-75189Y88279D01*
X-74744Y88858D01*
X-74465Y89532D01*
X-74370Y90256D01*
Y91134D01*
D02*
G37*
G36*
X-100354Y91134D02*
X-102650D01*
Y87526D01*
X-102426Y87556D01*
X-101752Y87835D01*
X-101173Y88279D01*
X-100729Y88858D01*
X-100449Y89532D01*
X-100354Y90256D01*
Y91134D01*
D02*
G37*
G36*
X-103650D02*
X-105945D01*
Y90256D01*
X-105850Y89532D01*
X-105571Y88858D01*
X-105126Y88279D01*
X-104547Y87835D01*
X-103873Y87556D01*
X-103650Y87526D01*
Y91134D01*
D02*
G37*
G36*
X-77665Y91134D02*
X-79961D01*
Y90256D01*
X-79866Y89532D01*
X-79586Y88858D01*
X-79142Y88279D01*
X-78563Y87835D01*
X-77889Y87556D01*
X-77665Y87526D01*
Y91134D01*
D02*
G37*
G36*
X-31063Y91035D02*
X-33358D01*
Y87428D01*
X-33135Y87457D01*
X-32460Y87736D01*
X-31881Y88181D01*
X-31437Y88760D01*
X-31158Y89434D01*
X-31063Y90158D01*
Y91035D01*
D02*
G37*
G36*
X-57047Y91035D02*
X-59342D01*
Y87428D01*
X-59119Y87457D01*
X-58445Y87736D01*
X-57866Y88181D01*
X-57421Y88760D01*
X-57142Y89434D01*
X-57047Y90158D01*
Y91035D01*
D02*
G37*
G36*
X-60343D02*
X-62638D01*
Y90158D01*
X-62543Y89434D01*
X-62264Y88760D01*
X-61819Y88181D01*
X-61240Y87736D01*
X-60566Y87457D01*
X-60343Y87428D01*
Y91035D01*
D02*
G37*
G36*
X-34358Y91035D02*
X-36654D01*
Y90158D01*
X-36559Y89434D01*
X-36279Y88760D01*
X-35835Y88181D01*
X-35256Y87736D01*
X-34582Y87457D01*
X-34358Y87428D01*
Y91035D01*
D02*
G37*
G36*
X43307Y87166D02*
X42644Y87034D01*
X42081Y86659D01*
X41982Y86510D01*
X41482D01*
X41383Y86659D01*
X40821Y87034D01*
X40157Y87166D01*
X39494Y87034D01*
X38932Y86659D01*
X38556Y86096D01*
X38424Y85433D01*
X38556Y84770D01*
X38932Y84207D01*
X39494Y83832D01*
X40157Y83700D01*
X40821Y83832D01*
X41383Y84207D01*
X41482Y84356D01*
X41982D01*
X42081Y84207D01*
X42644Y83832D01*
X43307Y83700D01*
X43970Y83832D01*
X44533Y84207D01*
X44908Y84770D01*
X45040Y85433D01*
X44908Y86096D01*
X44533Y86659D01*
X43970Y87034D01*
X43307Y87166D01*
D02*
G37*
G36*
X-8661Y87954D02*
X-9325Y87822D01*
X-9887Y87446D01*
X-10263Y86884D01*
X-10373Y86328D01*
X-10630Y86379D01*
X-11293Y86247D01*
X-11811Y85901D01*
X-12329Y86247D01*
X-12992Y86379D01*
X-13249Y86328D01*
X-13359Y86884D01*
X-13735Y87446D01*
X-14297Y87822D01*
X-14961Y87954D01*
X-15624Y87822D01*
X-16186Y87446D01*
X-16562Y86884D01*
X-16694Y86221D01*
X-16562Y85557D01*
X-16186Y84995D01*
X-15624Y84619D01*
X-14961Y84487D01*
X-14704Y84538D01*
X-14593Y83982D01*
X-14218Y83420D01*
X-13655Y83044D01*
X-12992Y82912D01*
X-12329Y83044D01*
X-11811Y83390D01*
X-11293Y83044D01*
X-10630Y82912D01*
X-9967Y83044D01*
X-9404Y83420D01*
X-9029Y83982D01*
X-8918Y84538D01*
X-8661Y84487D01*
X-7998Y84619D01*
X-7436Y84995D01*
X-7060Y85557D01*
X-6928Y86221D01*
X-7060Y86884D01*
X-7436Y87446D01*
X-7998Y87822D01*
X-8661Y87954D01*
D02*
G37*
G36*
X27559Y86379D02*
X26896Y86247D01*
X26333Y85871D01*
X25958Y85309D01*
X25845Y84745D01*
X25336D01*
X25223Y85309D01*
X24848Y85871D01*
X24285Y86247D01*
X23622Y86379D01*
X22959Y86247D01*
X22396Y85871D01*
X22021Y85309D01*
X21889Y84646D01*
X22021Y83982D01*
X22396Y83420D01*
X22959Y83044D01*
X23622Y82912D01*
X24285Y83044D01*
X24848Y83420D01*
X25223Y83982D01*
X25336Y84547D01*
X25845D01*
X25958Y83982D01*
X26333Y83420D01*
X26896Y83044D01*
X27559Y82912D01*
X28222Y83044D01*
X28785Y83420D01*
X29160Y83982D01*
X29292Y84646D01*
X29160Y85309D01*
X28785Y85871D01*
X28222Y86247D01*
X27559Y86379D01*
D02*
G37*
G36*
X-85039Y86773D02*
X-85703Y86641D01*
X-86265Y86265D01*
X-86641Y85703D01*
X-86773Y85039D01*
X-86641Y84376D01*
X-86265Y83814D01*
X-85703Y83438D01*
X-85039Y83306D01*
X-84376Y83438D01*
X-83814Y83814D01*
X-83438Y84376D01*
X-83306Y85039D01*
X-83438Y85703D01*
X-83814Y86265D01*
X-84376Y86641D01*
X-85039Y86773D01*
D02*
G37*
G36*
X12598Y86379D02*
X11935Y86247D01*
X11373Y85871D01*
X10997Y85309D01*
X10865Y84646D01*
X10997Y83982D01*
X11373Y83420D01*
X11935Y83044D01*
X12598Y82912D01*
X13262Y83044D01*
X13824Y83420D01*
X14200Y83982D01*
X14332Y84646D01*
X14200Y85309D01*
X13824Y85871D01*
X13262Y86247D01*
X12598Y86379D01*
D02*
G37*
G36*
X-82677Y83623D02*
X-83341Y83491D01*
X-83903Y83115D01*
X-84279Y82553D01*
X-84411Y81890D01*
X-84279Y81226D01*
X-83903Y80664D01*
X-83341Y80288D01*
X-82677Y80156D01*
X-82014Y80288D01*
X-81451Y80664D01*
X-81076Y81226D01*
X-80944Y81890D01*
X-81076Y82553D01*
X-81451Y83115D01*
X-82014Y83491D01*
X-82677Y83623D01*
D02*
G37*
G36*
X-90158Y78899D02*
X-90821Y78767D01*
X-91383Y78391D01*
X-91507Y78205D01*
X-92053Y78570D01*
X-92717Y78702D01*
X-93380Y78570D01*
X-93942Y78194D01*
X-94318Y77632D01*
X-94450Y76968D01*
X-94318Y76305D01*
X-93942Y75743D01*
X-93380Y75367D01*
X-92717Y75235D01*
X-92053Y75367D01*
X-91491Y75743D01*
X-91367Y75929D01*
X-90821Y75564D01*
X-90158Y75432D01*
X-89494Y75564D01*
X-88948Y75929D01*
X-88824Y75743D01*
X-88262Y75367D01*
X-87599Y75235D01*
X-86935Y75367D01*
X-86373Y75743D01*
X-85997Y76305D01*
X-85865Y76968D01*
X-85997Y77632D01*
X-86373Y78194D01*
X-86935Y78570D01*
X-87599Y78702D01*
X-88262Y78570D01*
X-88808Y78205D01*
X-88932Y78391D01*
X-89494Y78767D01*
X-90158Y78899D01*
D02*
G37*
G36*
X43307Y78505D02*
X42644Y78373D01*
X42081Y77997D01*
X41982Y77849D01*
X41482D01*
X41383Y77997D01*
X40821Y78373D01*
X40157Y78505D01*
X39494Y78373D01*
X38932Y77997D01*
X38833Y77849D01*
X38333D01*
X38234Y77997D01*
X37671Y78373D01*
X37008Y78505D01*
X36345Y78373D01*
X35782Y77997D01*
X35407Y77435D01*
X35275Y76772D01*
X35407Y76108D01*
X35782Y75546D01*
X36345Y75170D01*
X37008Y75038D01*
X37671Y75170D01*
X38234Y75546D01*
X38333Y75694D01*
X38833D01*
X38932Y75546D01*
X39494Y75170D01*
X40157Y75038D01*
X40821Y75170D01*
X41383Y75546D01*
X41482Y75694D01*
X41982D01*
X42081Y75546D01*
X42644Y75170D01*
X43307Y75038D01*
X43970Y75170D01*
X44533Y75546D01*
X44908Y76108D01*
X45040Y76772D01*
X44908Y77435D01*
X44533Y77997D01*
X43970Y78373D01*
X43307Y78505D01*
D02*
G37*
G36*
X-72047Y80867D02*
X-72711Y80735D01*
X-73273Y80360D01*
X-73649Y79797D01*
X-73781Y79134D01*
X-73649Y78471D01*
X-73273Y77908D01*
X-72711Y77533D01*
X-72047Y77401D01*
X-71384Y77533D01*
X-70822Y77908D01*
X-70446Y78471D01*
X-70314Y79134D01*
X-70446Y79797D01*
X-70822Y80360D01*
X-71384Y80735D01*
X-72047Y80867D01*
D02*
G37*
G36*
X-82284Y79292D02*
X-82947Y79160D01*
X-83509Y78785D01*
X-83885Y78222D01*
X-84017Y77559D01*
X-83885Y76896D01*
X-83509Y76333D01*
X-82947Y75958D01*
X-82284Y75826D01*
X-81620Y75958D01*
X-81058Y76333D01*
X-80682Y76896D01*
X-80550Y77559D01*
X-80682Y78222D01*
X-81058Y78785D01*
X-81620Y79160D01*
X-82284Y79292D01*
D02*
G37*
G36*
X-78347Y78899D02*
X-79010Y78767D01*
X-79572Y78391D01*
X-79948Y77829D01*
X-80080Y77165D01*
X-79948Y76502D01*
X-79572Y75940D01*
X-79010Y75564D01*
X-78347Y75432D01*
X-77683Y75564D01*
X-77121Y75940D01*
X-76745Y76502D01*
X-76613Y77165D01*
X-76745Y77829D01*
X-77121Y78391D01*
X-77683Y78767D01*
X-78347Y78899D01*
D02*
G37*
G36*
X-24409Y78505D02*
X-25073Y78373D01*
X-25635Y77997D01*
X-26011Y77435D01*
X-26143Y76772D01*
X-26011Y76108D01*
X-25635Y75546D01*
X-25073Y75170D01*
X-24409Y75038D01*
X-23746Y75170D01*
X-23184Y75546D01*
X-22808Y76108D01*
X-22676Y76772D01*
X-22808Y77435D01*
X-23184Y77997D01*
X-23746Y78373D01*
X-24409Y78505D01*
D02*
G37*
G36*
X10236Y78111D02*
X9573Y77979D01*
X9011Y77604D01*
X8635Y77041D01*
X8503Y76378D01*
X8635Y75715D01*
X9011Y75152D01*
X9573Y74777D01*
X10236Y74645D01*
X10899Y74777D01*
X11462Y75152D01*
X11838Y75715D01*
X11970Y76378D01*
X11838Y77041D01*
X11462Y77604D01*
X10899Y77979D01*
X10236Y78111D01*
D02*
G37*
G36*
X13780Y74568D02*
X13116Y74436D01*
X12554Y74060D01*
X12192Y73519D01*
X12095Y73406D01*
X11813Y73289D01*
X11623Y73268D01*
X11024Y73387D01*
X10360Y73255D01*
X9798Y72879D01*
X9422Y72317D01*
X9290Y71654D01*
X9422Y70990D01*
X9798Y70428D01*
X10360Y70052D01*
X11024Y69920D01*
X11687Y70052D01*
X12249Y70428D01*
X12611Y70969D01*
X12708Y71082D01*
X12991Y71199D01*
X13181Y71220D01*
X13780Y71101D01*
X14443Y71233D01*
X15005Y71609D01*
X15381Y72171D01*
X15513Y72835D01*
X15381Y73498D01*
X15005Y74060D01*
X14443Y74436D01*
X13780Y74568D01*
D02*
G37*
G36*
X-117323Y77496D02*
X-118020Y77404D01*
X-118669Y77135D01*
X-119227Y76708D01*
X-119655Y76150D01*
X-119924Y75500D01*
X-120016Y74803D01*
X-119924Y74106D01*
X-119655Y73457D01*
X-119227Y72899D01*
X-118669Y72471D01*
X-118020Y72202D01*
X-117323Y72110D01*
X-116626Y72202D01*
X-115976Y72471D01*
X-115419Y72899D01*
X-114990Y73457D01*
X-114722Y74106D01*
X-114630Y74803D01*
X-114722Y75500D01*
X-114990Y76150D01*
X-115419Y76708D01*
X-115976Y77135D01*
X-116626Y77404D01*
X-117323Y77496D01*
D02*
G37*
G36*
X26772Y72206D02*
X26108Y72074D01*
X25546Y71698D01*
X25170Y71136D01*
X25038Y70472D01*
X25170Y69809D01*
X25546Y69247D01*
X26108Y68871D01*
X26772Y68739D01*
X27435Y68871D01*
X27997Y69247D01*
X28091Y69388D01*
X28432Y69321D01*
X28592Y69238D01*
X28714Y68628D01*
X29089Y68066D01*
X29652Y67690D01*
X30315Y67558D01*
X30978Y67690D01*
X31541Y68066D01*
X31916Y68628D01*
X32048Y69291D01*
X31916Y69955D01*
X31541Y70517D01*
X30978Y70893D01*
X30315Y71025D01*
X29652Y70893D01*
X29089Y70517D01*
X28995Y70376D01*
X28654Y70443D01*
X28494Y70526D01*
X28373Y71136D01*
X27997Y71698D01*
X27435Y72074D01*
X26772Y72206D01*
D02*
G37*
G36*
X-7087Y74568D02*
X-7750Y74436D01*
X-8312Y74060D01*
X-8688Y73498D01*
X-8820Y72835D01*
X-8688Y72171D01*
X-8312Y71609D01*
X-7750Y71233D01*
X-7087Y71101D01*
X-6914Y71136D01*
X-6458Y70866D01*
X-6326Y70203D01*
X-6296Y70158D01*
X-6468Y69516D01*
X-6737Y69336D01*
X-7113Y68774D01*
X-7245Y68110D01*
X-7113Y67447D01*
X-6737Y66885D01*
X-6175Y66509D01*
X-5512Y66377D01*
X-4848Y66509D01*
X-4286Y66885D01*
X-3911Y67447D01*
X-3779Y68110D01*
X-3911Y68774D01*
X-3940Y68818D01*
X-3768Y69460D01*
X-3499Y69640D01*
X-3123Y70203D01*
X-2991Y70866D01*
X-3123Y71529D01*
X-3499Y72092D01*
X-4061Y72467D01*
X-4724Y72599D01*
X-4897Y72565D01*
X-5353Y72835D01*
X-5485Y73498D01*
X-5861Y74060D01*
X-6423Y74436D01*
X-7087Y74568D01*
D02*
G37*
G36*
X-115354Y69450D02*
X-116018Y69318D01*
X-116580Y68942D01*
X-116956Y68380D01*
X-117088Y67716D01*
X-116956Y67053D01*
X-116580Y66491D01*
X-116018Y66115D01*
X-115354Y65983D01*
X-114691Y66115D01*
X-114129Y66491D01*
X-113753Y67053D01*
X-113621Y67716D01*
X-113753Y68380D01*
X-114129Y68942D01*
X-114691Y69318D01*
X-115354Y69450D01*
D02*
G37*
G36*
X15276Y68662D02*
X14612Y68530D01*
X14050Y68155D01*
X13674Y67592D01*
X13542Y66929D01*
X13674Y66266D01*
X14050Y65703D01*
X14612Y65328D01*
X15276Y65196D01*
X15939Y65328D01*
X16501Y65703D01*
X16877Y66266D01*
X17009Y66929D01*
X16877Y67592D01*
X16501Y68155D01*
X15939Y68530D01*
X15276Y68662D01*
D02*
G37*
G36*
X-104724Y67875D02*
X-105388Y67743D01*
X-105950Y67367D01*
X-106326Y66805D01*
X-106458Y66142D01*
X-106326Y65478D01*
X-105950Y64916D01*
X-105388Y64540D01*
X-104724Y64408D01*
X-104061Y64540D01*
X-103499Y64916D01*
X-103123Y65478D01*
X-102991Y66142D01*
X-103123Y66805D01*
X-103499Y67367D01*
X-104061Y67743D01*
X-104724Y67875D01*
D02*
G37*
G36*
X-17717Y67481D02*
X-18380Y67349D01*
X-18942Y66974D01*
X-19318Y66411D01*
X-19450Y65748D01*
X-19318Y65085D01*
X-18942Y64522D01*
X-18380Y64147D01*
X-17717Y64015D01*
X-17053Y64147D01*
X-16491Y64522D01*
X-16115Y65085D01*
X-15983Y65748D01*
X-16115Y66411D01*
X-16491Y66974D01*
X-17053Y67349D01*
X-17717Y67481D01*
D02*
G37*
G36*
X-117323Y65685D02*
X-118020Y65593D01*
X-118669Y65324D01*
X-119227Y64897D01*
X-119655Y64339D01*
X-119924Y63689D01*
X-120016Y62992D01*
X-119924Y62295D01*
X-119655Y61646D01*
X-119227Y61088D01*
X-118669Y60660D01*
X-118020Y60391D01*
X-117323Y60299D01*
X-116626Y60391D01*
X-115976Y60660D01*
X-115419Y61088D01*
X-114990Y61646D01*
X-114722Y62295D01*
X-114630Y62992D01*
X-114722Y63689D01*
X-114990Y64339D01*
X-115419Y64897D01*
X-115976Y65324D01*
X-116626Y65593D01*
X-117323Y65685D01*
D02*
G37*
G36*
X-23622Y62757D02*
X-24285Y62625D01*
X-24848Y62249D01*
X-25223Y61687D01*
X-25355Y61024D01*
X-25223Y60360D01*
X-24848Y59798D01*
X-24285Y59422D01*
X-23622Y59290D01*
X-22959Y59422D01*
X-22396Y59798D01*
X-22021Y60360D01*
X-21889Y61024D01*
X-22021Y61687D01*
X-22396Y62249D01*
X-22959Y62625D01*
X-23622Y62757D01*
D02*
G37*
G36*
X-90551Y59214D02*
X-91215Y59082D01*
X-91732Y58736D01*
X-92250Y59082D01*
X-92913Y59214D01*
X-93577Y59082D01*
X-94095Y58736D01*
X-94612Y59082D01*
X-95276Y59214D01*
X-95939Y59082D01*
X-96501Y58706D01*
X-96877Y58144D01*
X-97009Y57480D01*
X-96877Y56817D01*
X-96501Y56255D01*
X-95939Y55879D01*
X-95276Y55747D01*
X-94612Y55879D01*
X-94095Y56225D01*
X-93577Y55879D01*
X-92913Y55747D01*
X-92250Y55879D01*
X-91732Y56225D01*
X-91215Y55879D01*
X-90551Y55747D01*
X-89888Y55879D01*
X-89325Y56255D01*
X-88950Y56817D01*
X-88818Y57480D01*
X-88950Y58144D01*
X-89325Y58706D01*
X-89888Y59082D01*
X-90551Y59214D01*
D02*
G37*
G36*
X17717Y56458D02*
X17053Y56326D01*
X16491Y55950D01*
X16115Y55388D01*
X15983Y54724D01*
X16115Y54061D01*
X16491Y53499D01*
X17053Y53123D01*
X17717Y52991D01*
X18380Y53123D01*
X18942Y53499D01*
X19318Y54061D01*
X19450Y54724D01*
X19318Y55388D01*
X18942Y55950D01*
X18380Y56326D01*
X17717Y56458D01*
D02*
G37*
G36*
X-24016Y55277D02*
X-24679Y55145D01*
X-25241Y54769D01*
X-25617Y54207D01*
X-25749Y53543D01*
X-25617Y52880D01*
X-25241Y52318D01*
X-24679Y51942D01*
X-24016Y51810D01*
X-23352Y51942D01*
X-22790Y52318D01*
X-22414Y52880D01*
X-22283Y53543D01*
X-22414Y54207D01*
X-22790Y54769D01*
X-23352Y55145D01*
X-24016Y55277D01*
D02*
G37*
G36*
X-70472D02*
X-71136Y55145D01*
X-71698Y54769D01*
X-72074Y54207D01*
X-72206Y53543D01*
X-72074Y52880D01*
X-71698Y52318D01*
X-71136Y51942D01*
X-70472Y51810D01*
X-69809Y51942D01*
X-69247Y52318D01*
X-68871Y52880D01*
X-68739Y53543D01*
X-68871Y54207D01*
X-69247Y54769D01*
X-69809Y55145D01*
X-70472Y55277D01*
D02*
G37*
G36*
X-104961Y54489D02*
X-105624Y54357D01*
X-106186Y53982D01*
X-106562Y53419D01*
X-106694Y52756D01*
X-106562Y52093D01*
X-106186Y51530D01*
X-105624Y51155D01*
X-104961Y51023D01*
X-104297Y51155D01*
X-103735Y51530D01*
X-103359Y52093D01*
X-103227Y52756D01*
X-103359Y53419D01*
X-103735Y53982D01*
X-104297Y54357D01*
X-104961Y54489D01*
D02*
G37*
G36*
X-13386Y51733D02*
X-14049Y51601D01*
X-14612Y51226D01*
X-14987Y50663D01*
X-15119Y50000D01*
X-14987Y49337D01*
X-14612Y48774D01*
X-14049Y48399D01*
X-13386Y48267D01*
X-12722Y48399D01*
X-12160Y48774D01*
X-11784Y49337D01*
X-11653Y50000D01*
X-11784Y50663D01*
X-12160Y51226D01*
X-12722Y51601D01*
X-13386Y51733D01*
D02*
G37*
G36*
X-16535Y48977D02*
X-17199Y48845D01*
X-17761Y48470D01*
X-18137Y47907D01*
X-18269Y47244D01*
X-18137Y46581D01*
X-17761Y46018D01*
X-17199Y45643D01*
X-16535Y45511D01*
X-15872Y45643D01*
X-15310Y46018D01*
X-14934Y46581D01*
X-14802Y47244D01*
X-14934Y47907D01*
X-15310Y48470D01*
X-15872Y48845D01*
X-16535Y48977D01*
D02*
G37*
G36*
X-787Y51733D02*
X-1451Y51601D01*
X-2013Y51226D01*
X-2389Y50663D01*
X-2521Y50000D01*
X-2389Y49337D01*
X-2013Y48774D01*
Y48470D01*
X-2389Y47907D01*
X-2521Y47244D01*
X-2389Y46581D01*
X-2013Y46018D01*
X-1451Y45643D01*
X-1196Y45592D01*
X-797Y45038D01*
X-798Y45030D01*
X-666Y44366D01*
X-291Y43804D01*
X272Y43428D01*
X935Y43296D01*
X1598Y43428D01*
X2161Y43804D01*
X2536Y44366D01*
X2668Y45030D01*
X2536Y45693D01*
X2161Y46255D01*
X1598Y46631D01*
X1344Y46681D01*
X944Y47236D01*
X946Y47244D01*
X814Y47907D01*
X438Y48470D01*
Y48774D01*
X814Y49337D01*
X946Y50000D01*
X814Y50663D01*
X438Y51226D01*
X-124Y51601D01*
X-787Y51733D01*
D02*
G37*
G36*
X-11811Y46615D02*
X-12474Y46483D01*
X-13037Y46108D01*
X-13412Y45545D01*
X-13544Y44882D01*
X-13412Y44219D01*
X-13037Y43656D01*
X-12474Y43281D01*
X-11811Y43149D01*
X-11148Y43281D01*
X-10585Y43656D01*
X-10210Y44219D01*
X-10078Y44882D01*
X-10210Y45545D01*
X-10585Y46108D01*
X-11148Y46483D01*
X-11811Y46615D01*
D02*
G37*
G36*
X-65473Y42560D02*
X-66136Y42428D01*
X-66698Y42052D01*
X-67074Y41490D01*
X-67206Y40827D01*
X-67074Y40163D01*
X-66698Y39601D01*
X-66136Y39225D01*
X-65473Y39094D01*
X-64809Y39225D01*
X-64247Y39601D01*
X-63871Y40163D01*
X-63739Y40827D01*
X-63871Y41490D01*
X-64247Y42052D01*
X-64809Y42428D01*
X-65473Y42560D01*
D02*
G37*
G36*
X-80472Y42442D02*
X-81136Y42310D01*
X-81698Y41934D01*
X-82074Y41372D01*
X-82206Y40709D01*
X-82074Y40045D01*
X-81698Y39483D01*
X-81136Y39107D01*
X-80472Y38975D01*
X-79809Y39107D01*
X-79247Y39483D01*
X-78871Y40045D01*
X-78739Y40709D01*
X-78871Y41372D01*
X-79247Y41934D01*
X-79809Y42310D01*
X-80472Y42442D01*
D02*
G37*
G36*
X27559Y39922D02*
X26896Y39790D01*
X26333Y39415D01*
X25958Y38852D01*
X25826Y38189D01*
X25958Y37526D01*
X26333Y36963D01*
X26640Y36758D01*
X26445Y36287D01*
X25984Y36379D01*
X25385Y36260D01*
X25195Y36281D01*
X24842Y36427D01*
X24830Y36490D01*
X24454Y37052D01*
X23892Y37428D01*
X23228Y37560D01*
X22565Y37428D01*
X22003Y37052D01*
X21627Y36490D01*
X21495Y35827D01*
X21627Y35164D01*
X22003Y34601D01*
X22565Y34225D01*
X23228Y34093D01*
X23827Y34213D01*
X24017Y34192D01*
X24370Y34045D01*
X24383Y33982D01*
X24759Y33420D01*
X25321Y33044D01*
X25984Y32912D01*
X26648Y33044D01*
X27210Y33420D01*
X27586Y33982D01*
X27718Y34646D01*
X27586Y35309D01*
X27210Y35871D01*
X26903Y36076D01*
X27098Y36547D01*
X27559Y36456D01*
X28222Y36588D01*
X28785Y36963D01*
X29160Y37526D01*
X29292Y38189D01*
X29160Y38852D01*
X28785Y39415D01*
X28222Y39790D01*
X27559Y39922D01*
D02*
G37*
G36*
X-16535D02*
X-17199Y39790D01*
X-17761Y39415D01*
X-18137Y38852D01*
X-18269Y38189D01*
X-18234Y38016D01*
X-18504Y37560D01*
X-19167Y37428D01*
X-19730Y37052D01*
X-20105Y36490D01*
X-20237Y35827D01*
X-20105Y35164D01*
X-19730Y34601D01*
X-19167Y34225D01*
X-18573Y34107D01*
X-18490Y34074D01*
X-18194Y33645D01*
X-18269Y33268D01*
X-18137Y32604D01*
X-17761Y32042D01*
X-17199Y31666D01*
X-16535Y31534D01*
X-15872Y31666D01*
X-15310Y32042D01*
X-14934Y32604D01*
X-14802Y33268D01*
X-14934Y33931D01*
X-15310Y34493D01*
X-15872Y34869D01*
X-16467Y34987D01*
X-16549Y35021D01*
X-16846Y35449D01*
X-16771Y35827D01*
X-16805Y36000D01*
X-16535Y36456D01*
X-15872Y36588D01*
X-15310Y36963D01*
X-14934Y37526D01*
X-14802Y38189D01*
X-14934Y38852D01*
X-15310Y39415D01*
X-15872Y39790D01*
X-16535Y39922D01*
D02*
G37*
G36*
X-85827Y33229D02*
X-86490Y33097D01*
X-87052Y32722D01*
X-87428Y32159D01*
X-87560Y31496D01*
X-87428Y30833D01*
X-87052Y30270D01*
X-86490Y29895D01*
X-85827Y29763D01*
X-85163Y29895D01*
X-84601Y30270D01*
X-84225Y30833D01*
X-84093Y31496D01*
X-84225Y32159D01*
X-84601Y32722D01*
X-85163Y33097D01*
X-85827Y33229D01*
D02*
G37*
G36*
X-787Y32442D02*
X-1451Y32310D01*
X-2013Y31934D01*
X-2389Y31372D01*
X-2521Y30709D01*
X-2389Y30045D01*
X-2013Y29483D01*
X-1451Y29107D01*
X-787Y28975D01*
X-124Y29107D01*
X438Y29483D01*
X814Y30045D01*
X946Y30709D01*
X814Y31372D01*
X438Y31934D01*
X-124Y32310D01*
X-787Y32442D01*
D02*
G37*
G36*
X-20472Y30867D02*
X-21136Y30735D01*
X-21698Y30360D01*
X-22074Y29797D01*
X-22206Y29134D01*
X-22074Y28471D01*
X-21698Y27908D01*
X-21136Y27533D01*
X-20472Y27401D01*
X-19809Y27533D01*
X-19247Y27908D01*
X-18871Y28471D01*
X-18739Y29134D01*
X-18871Y29797D01*
X-19247Y30360D01*
X-19809Y30735D01*
X-20472Y30867D01*
D02*
G37*
G36*
X-33465D02*
X-34128Y30735D01*
X-34690Y30360D01*
X-35066Y29797D01*
X-35198Y29134D01*
X-35066Y28471D01*
X-34690Y27908D01*
X-34128Y27533D01*
X-33465Y27401D01*
X-32801Y27533D01*
X-32239Y27908D01*
X-31863Y28471D01*
X-31731Y29134D01*
X-31863Y29797D01*
X-32239Y30360D01*
X-32801Y30735D01*
X-33465Y30867D01*
D02*
G37*
G36*
X50394Y28505D02*
X49730Y28373D01*
X49168Y27997D01*
X48792Y27435D01*
X48660Y26772D01*
X48792Y26108D01*
X49168Y25546D01*
X49730Y25170D01*
X50394Y25038D01*
X51057Y25170D01*
X51619Y25546D01*
X51995Y26108D01*
X52127Y26772D01*
X51995Y27435D01*
X51619Y27997D01*
X51057Y28373D01*
X50394Y28505D01*
D02*
G37*
G36*
X23622Y26930D02*
X22959Y26798D01*
X22396Y26423D01*
X22021Y25860D01*
X21889Y25197D01*
X22021Y24533D01*
X22396Y23971D01*
X22959Y23595D01*
X23622Y23464D01*
X24285Y23595D01*
X24848Y23971D01*
X25223Y24533D01*
X25355Y25197D01*
X25223Y25860D01*
X24848Y26423D01*
X24285Y26798D01*
X23622Y26930D01*
D02*
G37*
G36*
X62205D02*
X61541Y26798D01*
X60979Y26423D01*
X60603Y25860D01*
X60471Y25197D01*
X60603Y24533D01*
X60979Y23971D01*
X61541Y23595D01*
X62205Y23464D01*
X62461Y23515D01*
X62572Y22959D01*
X62948Y22396D01*
X63510Y22021D01*
X64173Y21889D01*
X64837Y22021D01*
X65399Y22396D01*
X65775Y22959D01*
X65907Y23622D01*
X65775Y24285D01*
X65399Y24848D01*
X64837Y25223D01*
X64173Y25355D01*
X63917Y25304D01*
X63806Y25860D01*
X63430Y26423D01*
X62868Y26798D01*
X62205Y26930D01*
D02*
G37*
G36*
X-51968Y23393D02*
X-52632Y23261D01*
X-53194Y22885D01*
X-53570Y22323D01*
X-53702Y21660D01*
X-53570Y20997D01*
X-53194Y20434D01*
X-52632Y20058D01*
X-51968Y19927D01*
X-51305Y20058D01*
X-50743Y20434D01*
X-50367Y20997D01*
X-50235Y21660D01*
X-50367Y22323D01*
X-50743Y22885D01*
X-51305Y23261D01*
X-51968Y23393D01*
D02*
G37*
G36*
X26378Y22206D02*
X25715Y22074D01*
X25152Y21698D01*
X24777Y21136D01*
X24645Y20472D01*
X24736Y20012D01*
X24287Y19711D01*
X24285Y19712D01*
X23622Y19843D01*
X22959Y19712D01*
X22396Y19336D01*
X22021Y18774D01*
X21889Y18110D01*
X22021Y17447D01*
X22396Y16885D01*
X22959Y16509D01*
X23622Y16377D01*
X24285Y16509D01*
X24848Y16885D01*
X25223Y17447D01*
X25355Y18110D01*
X25264Y18571D01*
X25713Y18872D01*
X25715Y18871D01*
X26378Y18739D01*
X26647Y18283D01*
X26613Y18110D01*
X26745Y17447D01*
X27121Y16885D01*
X27683Y16509D01*
X28346Y16377D01*
X29010Y16509D01*
X29572Y16885D01*
X29948Y17447D01*
X30080Y18110D01*
X29948Y18774D01*
X29572Y19336D01*
X29010Y19712D01*
X28346Y19843D01*
X28077Y20300D01*
X28111Y20472D01*
X27979Y21136D01*
X27604Y21698D01*
X27041Y22074D01*
X26378Y22206D01*
D02*
G37*
G36*
X87402Y26044D02*
X86738Y25912D01*
X86176Y25537D01*
X85800Y24974D01*
X85668Y24311D01*
X85800Y23648D01*
X86176Y23085D01*
X86251Y23035D01*
Y22535D01*
X86176Y22486D01*
X85800Y21923D01*
X85668Y21260D01*
X85800Y20596D01*
X86176Y20034D01*
X86738Y19658D01*
X87402Y19526D01*
X88065Y19658D01*
X88627Y20034D01*
X89003Y20596D01*
X89135Y21260D01*
X89003Y21923D01*
X88627Y22486D01*
X88552Y22535D01*
Y23035D01*
X88627Y23085D01*
X89003Y23648D01*
X89135Y24311D01*
X89003Y24974D01*
X88627Y25537D01*
X88065Y25912D01*
X87402Y26044D01*
D02*
G37*
G36*
X-27165Y22993D02*
X-27829Y22861D01*
X-28391Y22486D01*
X-28767Y21923D01*
X-28899Y21260D01*
X-28767Y20596D01*
X-28391Y20034D01*
X-27829Y19658D01*
X-27165Y19526D01*
X-26502Y19658D01*
X-25940Y20034D01*
X-25564Y20596D01*
X-25432Y21260D01*
X-25564Y21923D01*
X-25940Y22486D01*
X-26502Y22861D01*
X-27165Y22993D01*
D02*
G37*
G36*
X-40945D02*
X-41608Y22861D01*
X-42171Y22486D01*
X-42546Y21923D01*
X-42678Y21260D01*
X-42546Y20596D01*
X-42171Y20034D01*
X-41608Y19658D01*
X-40945Y19526D01*
X-40282Y19658D01*
X-39719Y20034D01*
X-39344Y20596D01*
X-39212Y21260D01*
X-39344Y21923D01*
X-39719Y22486D01*
X-40282Y22861D01*
X-40945Y22993D01*
D02*
G37*
G36*
X-20472Y19843D02*
X-21136Y19712D01*
X-21698Y19336D01*
X-22074Y18774D01*
X-22206Y18110D01*
X-22074Y17447D01*
X-21698Y16885D01*
X-21136Y16509D01*
X-20472Y16377D01*
X-19809Y16509D01*
X-19247Y16885D01*
X-18871Y17447D01*
X-18739Y18110D01*
X-18871Y18774D01*
X-19247Y19336D01*
X-19809Y19712D01*
X-20472Y19843D01*
D02*
G37*
G36*
X83071Y16300D02*
X82408Y16168D01*
X81845Y15793D01*
X81746Y15644D01*
X81246D01*
X81147Y15793D01*
X80585Y16168D01*
X79921Y16300D01*
X79258Y16168D01*
X78696Y15793D01*
X78320Y15230D01*
X78188Y14567D01*
X78320Y13904D01*
X78696Y13341D01*
X79258Y12966D01*
X79921Y12834D01*
X80585Y12966D01*
X81147Y13341D01*
X81246Y13490D01*
X81746D01*
X81845Y13341D01*
X82408Y12966D01*
X83071Y12834D01*
X83734Y12966D01*
X84297Y13341D01*
X84672Y13904D01*
X84804Y14567D01*
X84672Y15230D01*
X84297Y15793D01*
X83734Y16168D01*
X83071Y16300D01*
D02*
G37*
G36*
X-72132Y17088D02*
X-72795Y16956D01*
X-73358Y16580D01*
X-73733Y16018D01*
X-73846Y15453D01*
X-74355D01*
X-74468Y16018D01*
X-74843Y16580D01*
X-75406Y16956D01*
X-76069Y17088D01*
X-76732Y16956D01*
X-77295Y16580D01*
X-77670Y16018D01*
X-77802Y15354D01*
X-77670Y14691D01*
X-77295Y14129D01*
X-76732Y13753D01*
X-76069Y13621D01*
X-75406Y13753D01*
X-74843Y14129D01*
X-74468Y14691D01*
X-74355Y15255D01*
X-73846D01*
X-73733Y14691D01*
X-73358Y14129D01*
X-72795Y13753D01*
X-72132Y13621D01*
X-71469Y13753D01*
X-70906Y14129D01*
X-70531Y14691D01*
X-70399Y15354D01*
X-70531Y16018D01*
X-70906Y16580D01*
X-71469Y16956D01*
X-72132Y17088D01*
D02*
G37*
G36*
X-81975D02*
X-82638Y16956D01*
X-83200Y16580D01*
X-83576Y16018D01*
X-83688Y15453D01*
X-84198D01*
X-84310Y16018D01*
X-84686Y16580D01*
X-85248Y16956D01*
X-85912Y17088D01*
X-86575Y16956D01*
X-87137Y16580D01*
X-87513Y16018D01*
X-87645Y15354D01*
X-87513Y14691D01*
X-87137Y14129D01*
X-86575Y13753D01*
X-85912Y13621D01*
X-85248Y13753D01*
X-84686Y14129D01*
X-84310Y14691D01*
X-84198Y15255D01*
X-83688D01*
X-83576Y14691D01*
X-83200Y14129D01*
X-82638Y13753D01*
X-81975Y13621D01*
X-81311Y13753D01*
X-80749Y14129D01*
X-80373Y14691D01*
X-80241Y15354D01*
X-80373Y16018D01*
X-80749Y16580D01*
X-81311Y16956D01*
X-81975Y17088D01*
D02*
G37*
G36*
X69390Y17186D02*
X68726Y17054D01*
X68164Y16678D01*
X67788Y16116D01*
X67656Y15453D01*
X67788Y14789D01*
X68164Y14227D01*
X68726Y13851D01*
X69390Y13720D01*
X70053Y13851D01*
X70615Y14227D01*
X70991Y14789D01*
X71123Y15453D01*
X70991Y16116D01*
X70615Y16678D01*
X70053Y17054D01*
X69390Y17186D01*
D02*
G37*
G36*
X89606Y16851D02*
X88943Y16720D01*
X88381Y16344D01*
X88005Y15781D01*
X87873Y15118D01*
X88005Y14455D01*
X88381Y13893D01*
X88943Y13517D01*
X89606Y13385D01*
X90270Y13517D01*
X90832Y13893D01*
X91208Y14455D01*
X91340Y15118D01*
X91208Y15781D01*
X90832Y16344D01*
X90270Y16720D01*
X89606Y16851D01*
D02*
G37*
G36*
X4724Y11970D02*
X4061Y11838D01*
X3499Y11462D01*
X3123Y10899D01*
X2991Y10236D01*
X3123Y9573D01*
X3499Y9011D01*
X4061Y8635D01*
X4724Y8503D01*
X5388Y8635D01*
X5950Y9011D01*
X6326Y9573D01*
X6458Y10236D01*
X6326Y10899D01*
X5950Y11462D01*
X5388Y11838D01*
X4724Y11970D01*
D02*
G37*
G36*
X-1575D02*
X-2238Y11838D01*
X-2800Y11462D01*
X-3176Y10899D01*
X-3308Y10236D01*
X-3176Y9573D01*
X-2800Y9011D01*
X-2238Y8635D01*
X-1575Y8503D01*
X-912Y8635D01*
X-349Y9011D01*
X27Y9573D01*
X158Y10236D01*
X27Y10899D01*
X-349Y11462D01*
X-912Y11838D01*
X-1575Y11970D01*
D02*
G37*
G36*
X61417Y11182D02*
X60754Y11050D01*
X60192Y10674D01*
X59816Y10112D01*
X59684Y9449D01*
X59816Y8785D01*
X60192Y8223D01*
X60754Y7847D01*
X61417Y7716D01*
X62081Y7847D01*
X62643Y8223D01*
X63019Y8785D01*
X63151Y9449D01*
X63019Y10112D01*
X62643Y10674D01*
X62081Y11050D01*
X61417Y11182D01*
D02*
G37*
G36*
X74803Y10001D02*
X74140Y9869D01*
X73577Y9493D01*
X73202Y8931D01*
X73070Y8268D01*
X73202Y7604D01*
X73577Y7042D01*
X74140Y6666D01*
X74803Y6534D01*
X75467Y6666D01*
X76029Y7042D01*
X76405Y7604D01*
X76537Y8268D01*
X76405Y8931D01*
X76029Y9493D01*
X75467Y9869D01*
X74803Y10001D01*
D02*
G37*
G36*
X43307Y1340D02*
X42644Y1208D01*
X42081Y832D01*
X41982Y684D01*
X41482D01*
X41383Y832D01*
X40821Y1208D01*
X40157Y1340D01*
X39494Y1208D01*
X38932Y832D01*
X38833Y684D01*
X38333D01*
X38234Y832D01*
X37671Y1208D01*
X37008Y1340D01*
X36345Y1208D01*
X35782Y832D01*
X35478D01*
X34915Y1208D01*
X34252Y1340D01*
X33589Y1208D01*
X33026Y832D01*
X32651Y270D01*
X32519Y-394D01*
X32651Y-1057D01*
X33026Y-1619D01*
X33589Y-1995D01*
X34252Y-2127D01*
X34915Y-1995D01*
X35478Y-1619D01*
X35782D01*
X36345Y-1995D01*
X37008Y-2127D01*
X37671Y-1995D01*
X38234Y-1619D01*
X38333Y-1471D01*
X38833D01*
X38932Y-1619D01*
X39494Y-1995D01*
X40157Y-2127D01*
X40821Y-1995D01*
X41383Y-1619D01*
X41482Y-1471D01*
X41982D01*
X42081Y-1619D01*
X42644Y-1995D01*
X43307Y-2127D01*
X43970Y-1995D01*
X44533Y-1619D01*
X44908Y-1057D01*
X45040Y-394D01*
X44908Y270D01*
X44533Y832D01*
X43970Y1208D01*
X43307Y1340D01*
D02*
G37*
G36*
X-48386Y11768D02*
X-49660Y11642D01*
X-50885Y11270D01*
X-52014Y10667D01*
X-53004Y9855D01*
X-53816Y8865D01*
X-54420Y7736D01*
X-54792Y6510D01*
X-54917Y5236D01*
X-54792Y3962D01*
X-54420Y2737D01*
X-53816Y1608D01*
X-53004Y618D01*
X-52014Y-195D01*
X-50885Y-798D01*
X-49660Y-1170D01*
X-48386Y-1295D01*
X-47112Y-1170D01*
X-45886Y-798D01*
X-44757Y-195D01*
X-43767Y618D01*
X-42955Y1608D01*
X-42352Y2737D01*
X-41980Y3962D01*
X-41854Y5236D01*
X-41980Y6510D01*
X-42352Y7736D01*
X-42955Y8865D01*
X-43767Y9855D01*
X-44757Y10667D01*
X-45886Y11270D01*
X-47112Y11642D01*
X-48386Y11768D01*
D02*
G37*
G36*
X38189Y-6141D02*
X37526Y-6273D01*
X36963Y-6648D01*
X36659D01*
X36096Y-6273D01*
X35433Y-6141D01*
X34770Y-6273D01*
X34207Y-6648D01*
X33832Y-7211D01*
X33700Y-7874D01*
X33832Y-8537D01*
X34207Y-9100D01*
X34770Y-9475D01*
X35433Y-9607D01*
X36096Y-9475D01*
X36659Y-9100D01*
X36963D01*
X37526Y-9475D01*
X38189Y-9607D01*
X38362Y-9573D01*
X38818Y-9843D01*
X38950Y-10506D01*
X39325Y-11068D01*
X39888Y-11444D01*
X40551Y-11576D01*
X41214Y-11444D01*
X41777Y-11068D01*
X42153Y-10506D01*
X42285Y-9843D01*
X42153Y-9179D01*
X41777Y-8617D01*
X41214Y-8241D01*
X40551Y-8109D01*
X40378Y-8144D01*
X39922Y-7874D01*
X39790Y-7211D01*
X39415Y-6648D01*
X38852Y-6273D01*
X38189Y-6141D01*
D02*
G37*
G36*
X-35408Y-3385D02*
X-36071Y-3517D01*
X-36633Y-3892D01*
X-37009Y-4455D01*
X-37141Y-5118D01*
X-37009Y-5781D01*
X-36633Y-6344D01*
X-36071Y-6719D01*
X-35408Y-6851D01*
X-34745Y-6719D01*
X-34182Y-6344D01*
X-33806Y-5781D01*
X-33674Y-5118D01*
X-33806Y-4455D01*
X-34182Y-3892D01*
X-34745Y-3517D01*
X-35408Y-3385D01*
D02*
G37*
G36*
X-58860Y-4154D02*
X-59523Y-4286D01*
X-60085Y-4662D01*
X-60461Y-5224D01*
X-60593Y-5888D01*
X-60461Y-6551D01*
X-60085Y-7113D01*
X-59523Y-7489D01*
X-58860Y-7621D01*
X-58197Y-7489D01*
X-57634Y-7113D01*
X-57258Y-6551D01*
X-57126Y-5888D01*
X-57258Y-5224D01*
X-57634Y-4662D01*
X-58197Y-4286D01*
X-58860Y-4154D01*
D02*
G37*
G36*
X7087Y158D02*
X6423Y27D01*
X5861Y-349D01*
X5485Y-912D01*
X5353Y-1575D01*
X5485Y-2238D01*
X5861Y-2800D01*
X6423Y-3176D01*
X7055Y-3302D01*
X6928Y-3937D01*
X7060Y-4600D01*
X7436Y-5163D01*
X7998Y-5538D01*
X8629Y-5664D01*
X8503Y-6299D01*
X8635Y-6962D01*
X9011Y-7525D01*
X9573Y-7901D01*
X10236Y-8032D01*
X10899Y-7901D01*
X11462Y-7525D01*
X11838Y-6962D01*
X11970Y-6299D01*
X11838Y-5636D01*
X11462Y-5074D01*
X10899Y-4698D01*
X10268Y-4572D01*
X10395Y-3937D01*
X10263Y-3274D01*
X9887Y-2711D01*
X9325Y-2336D01*
X8693Y-2210D01*
X8820Y-1575D01*
X8688Y-912D01*
X8312Y-349D01*
X7750Y27D01*
X7087Y158D01*
D02*
G37*
G36*
X-66142Y-4566D02*
X-66805Y-4698D01*
X-67367Y-5074D01*
X-67743Y-5636D01*
X-67875Y-6299D01*
X-67743Y-6962D01*
X-67367Y-7525D01*
X-66805Y-7901D01*
X-66142Y-8032D01*
X-65478Y-7901D01*
X-64916Y-7525D01*
X-64540Y-6962D01*
X-64408Y-6299D01*
X-64540Y-5636D01*
X-64916Y-5074D01*
X-65478Y-4698D01*
X-66142Y-4566D01*
D02*
G37*
G36*
X28346Y-5747D02*
X27683Y-5879D01*
X27121Y-6255D01*
X26745Y-6817D01*
X26613Y-7480D01*
X26745Y-8144D01*
X27121Y-8706D01*
X27683Y-9082D01*
X28346Y-9214D01*
X29010Y-9082D01*
X29572Y-8706D01*
X29948Y-8144D01*
X30080Y-7480D01*
X29948Y-6817D01*
X29572Y-6255D01*
X29010Y-5879D01*
X28346Y-5747D01*
D02*
G37*
G36*
X-18898D02*
X-19561Y-5879D01*
X-20123Y-6255D01*
X-20499Y-6817D01*
X-20631Y-7480D01*
X-20499Y-8144D01*
X-20123Y-8706D01*
X-19561Y-9082D01*
X-18898Y-9214D01*
X-18234Y-9082D01*
X-17672Y-8706D01*
X-17296Y-8144D01*
X-17164Y-7480D01*
X-17296Y-6817D01*
X-17672Y-6255D01*
X-18234Y-5879D01*
X-18898Y-5747D01*
D02*
G37*
G36*
X19685Y946D02*
X19022Y814D01*
X18459Y438D01*
X18084Y-124D01*
X17952Y-787D01*
X18084Y-1451D01*
X18459Y-2013D01*
X19022Y-2389D01*
X19653Y-2514D01*
X19526Y-3150D01*
X19658Y-3813D01*
X20034Y-4375D01*
X20596Y-4751D01*
X21228Y-4876D01*
X21101Y-5512D01*
X21233Y-6175D01*
X21609Y-6737D01*
X22171Y-7113D01*
X22803Y-7239D01*
X22676Y-7874D01*
X22808Y-8537D01*
X23184Y-9100D01*
X23746Y-9475D01*
X24409Y-9607D01*
X25073Y-9475D01*
X25635Y-9100D01*
X26011Y-8537D01*
X26143Y-7874D01*
X26011Y-7211D01*
X25635Y-6648D01*
X25073Y-6273D01*
X24442Y-6147D01*
X24568Y-5512D01*
X24436Y-4848D01*
X24060Y-4286D01*
X23498Y-3911D01*
X22867Y-3785D01*
X22993Y-3150D01*
X22861Y-2486D01*
X22486Y-1924D01*
X21923Y-1548D01*
X21292Y-1423D01*
X21418Y-787D01*
X21286Y-124D01*
X20911Y438D01*
X20348Y814D01*
X19685Y946D01*
D02*
G37*
G36*
X-10236D02*
X-10899Y814D01*
X-11462Y438D01*
X-11838Y-124D01*
X-11970Y-787D01*
X-11843Y-1423D01*
X-12474Y-1548D01*
X-13037Y-1924D01*
X-13412Y-2486D01*
X-13544Y-3150D01*
X-13418Y-3785D01*
X-14049Y-3911D01*
X-14612Y-4286D01*
X-14987Y-4848D01*
X-15119Y-5512D01*
X-14993Y-6147D01*
X-15624Y-6273D01*
X-16186Y-6648D01*
X-16562Y-7211D01*
X-16694Y-7874D01*
X-16562Y-8537D01*
X-16186Y-9100D01*
X-15624Y-9475D01*
X-14961Y-9607D01*
X-14297Y-9475D01*
X-13735Y-9100D01*
X-13359Y-8537D01*
X-13227Y-7874D01*
X-13354Y-7239D01*
X-12722Y-7113D01*
X-12160Y-6737D01*
X-11784Y-6175D01*
X-11653Y-5512D01*
X-11779Y-4876D01*
X-11148Y-4751D01*
X-10585Y-4375D01*
X-10210Y-3813D01*
X-10078Y-3150D01*
X-10204Y-2514D01*
X-9573Y-2389D01*
X-9285Y-2196D01*
X-8729Y-2424D01*
X-8688Y-2632D01*
X-8312Y-3194D01*
X-7750Y-3570D01*
X-7194Y-3680D01*
X-7245Y-3937D01*
X-7113Y-4600D01*
X-6737Y-5163D01*
X-6175Y-5538D01*
X-5544Y-5664D01*
X-5670Y-6299D01*
X-5538Y-6962D01*
X-5163Y-7525D01*
X-4600Y-7901D01*
X-3969Y-8026D01*
X-4095Y-8661D01*
X-3964Y-9325D01*
X-3588Y-9887D01*
X-3025Y-10263D01*
X-2362Y-10395D01*
X-1699Y-10263D01*
X-1137Y-9887D01*
X-761Y-9325D01*
X-629Y-8661D01*
X-761Y-7998D01*
X-1137Y-7436D01*
X-1699Y-7060D01*
X-2330Y-6934D01*
X-2204Y-6299D01*
X-2336Y-5636D01*
X-2711Y-5074D01*
X-3274Y-4698D01*
X-3905Y-4572D01*
X-3779Y-3937D01*
X-3911Y-3274D01*
X-4286Y-2711D01*
X-4848Y-2336D01*
X-5404Y-2225D01*
X-5353Y-1969D01*
X-5485Y-1305D01*
X-5861Y-743D01*
X-6423Y-367D01*
X-7087Y-235D01*
X-7750Y-367D01*
X-8038Y-560D01*
X-8593Y-332D01*
X-8635Y-124D01*
X-9011Y438D01*
X-9573Y814D01*
X-10236Y946D01*
D02*
G37*
G36*
X44882Y-7790D02*
X44219Y-7922D01*
X43656Y-8298D01*
X43281Y-8860D01*
X43149Y-9523D01*
X43281Y-10187D01*
X43656Y-10749D01*
X44219Y-11125D01*
X44882Y-11257D01*
X45545Y-11125D01*
X46108Y-10749D01*
X46483Y-10187D01*
X46615Y-9523D01*
X46483Y-8860D01*
X46108Y-8298D01*
X45545Y-7922D01*
X44882Y-7790D01*
D02*
G37*
G36*
X-29134Y-9920D02*
X-29797Y-10052D01*
X-30360Y-10428D01*
X-30735Y-10990D01*
X-30867Y-11654D01*
X-30735Y-12317D01*
X-30360Y-12879D01*
X-29797Y-13255D01*
X-29134Y-13387D01*
X-28471Y-13255D01*
X-27908Y-12879D01*
X-27533Y-12317D01*
X-27401Y-11654D01*
X-27533Y-10990D01*
X-27908Y-10428D01*
X-28471Y-10052D01*
X-29134Y-9920D01*
D02*
G37*
G36*
X-63937Y-11597D02*
X-64600Y-11729D01*
X-65163Y-12104D01*
X-65538Y-12667D01*
X-65670Y-13330D01*
X-65538Y-13993D01*
X-65163Y-14556D01*
X-64600Y-14931D01*
X-63937Y-15063D01*
X-63274Y-14931D01*
X-62711Y-14556D01*
X-62336Y-13993D01*
X-62204Y-13330D01*
X-62336Y-12667D01*
X-62711Y-12104D01*
X-63274Y-11729D01*
X-63937Y-11597D01*
D02*
G37*
G36*
X-39370Y-13621D02*
X-40033Y-13753D01*
X-40596Y-14129D01*
X-40971Y-14691D01*
X-41103Y-15354D01*
X-40971Y-16018D01*
X-40596Y-16580D01*
X-40033Y-16956D01*
X-39370Y-17088D01*
X-38707Y-16956D01*
X-38144Y-16580D01*
X-37769Y-16018D01*
X-37637Y-15354D01*
X-37769Y-14691D01*
X-38144Y-14129D01*
X-38707Y-13753D01*
X-39370Y-13621D01*
D02*
G37*
G36*
X39370Y-14802D02*
X38707Y-14934D01*
X38144Y-15310D01*
X37769Y-15872D01*
X37637Y-16535D01*
X37769Y-17199D01*
X38144Y-17761D01*
X38707Y-18137D01*
X39370Y-18269D01*
X40033Y-18137D01*
X40596Y-17761D01*
X40971Y-17199D01*
X41103Y-16535D01*
X40971Y-15872D01*
X40596Y-15310D01*
X40033Y-14934D01*
X39370Y-14802D01*
D02*
G37*
G36*
X30709Y-16771D02*
X30045Y-16903D01*
X29483Y-17278D01*
X29107Y-17841D01*
X28975Y-18504D01*
X29107Y-19167D01*
X29483Y-19730D01*
X30045Y-20105D01*
X30709Y-20237D01*
X31372Y-20105D01*
X31934Y-19730D01*
X32310Y-19167D01*
X32442Y-18504D01*
X32310Y-17841D01*
X31934Y-17278D01*
X31372Y-16903D01*
X30709Y-16771D01*
D02*
G37*
G36*
X11024D02*
X10360Y-16903D01*
X9798Y-17278D01*
X9422Y-17841D01*
X9290Y-18504D01*
X9422Y-19167D01*
X9798Y-19730D01*
X10360Y-20105D01*
X11024Y-20237D01*
X11687Y-20105D01*
X12249Y-19730D01*
X12625Y-19167D01*
X12757Y-18504D01*
X12625Y-17841D01*
X12249Y-17278D01*
X11687Y-16903D01*
X11024Y-16771D01*
D02*
G37*
G36*
X-1575D02*
X-2238Y-16903D01*
X-2800Y-17278D01*
X-3176Y-17841D01*
X-3308Y-18504D01*
X-3176Y-19167D01*
X-2800Y-19730D01*
X-2238Y-20105D01*
X-1575Y-20237D01*
X-912Y-20105D01*
X-349Y-19730D01*
X27Y-19167D01*
X158Y-18504D01*
X27Y-17841D01*
X-349Y-17278D01*
X-912Y-16903D01*
X-1575Y-16771D01*
D02*
G37*
G36*
X-24409D02*
X-25073Y-16903D01*
X-25635Y-17278D01*
X-26011Y-17841D01*
X-26143Y-18504D01*
X-26011Y-19167D01*
X-25635Y-19730D01*
X-25073Y-20105D01*
X-24409Y-20237D01*
X-23746Y-20105D01*
X-23184Y-19730D01*
X-22808Y-19167D01*
X-22676Y-18504D01*
X-22808Y-17841D01*
X-23184Y-17278D01*
X-23746Y-16903D01*
X-24409Y-16771D01*
D02*
G37*
G36*
X-77756Y-18345D02*
X-78419Y-18477D01*
X-78982Y-18853D01*
X-79357Y-19415D01*
X-79489Y-20079D01*
X-79357Y-20742D01*
X-78982Y-21304D01*
X-78419Y-21680D01*
X-77756Y-21812D01*
X-77093Y-21680D01*
X-76530Y-21304D01*
X-76155Y-20742D01*
X-76023Y-20079D01*
X-76155Y-19415D01*
X-76530Y-18853D01*
X-77093Y-18477D01*
X-77756Y-18345D01*
D02*
G37*
G36*
X14173Y-19920D02*
X13510Y-20052D01*
X12948Y-20428D01*
X12572Y-20990D01*
X12440Y-21654D01*
X12572Y-22317D01*
X12948Y-22879D01*
X13510Y-23255D01*
X14173Y-23387D01*
X14837Y-23255D01*
X15399Y-22879D01*
X15775Y-22317D01*
X15906Y-21654D01*
X15775Y-20990D01*
X15399Y-20428D01*
X14837Y-20052D01*
X14173Y-19920D01*
D02*
G37*
G36*
X-4724D02*
X-5388Y-20052D01*
X-5950Y-20428D01*
X-6326Y-20990D01*
X-6458Y-21654D01*
X-6326Y-22317D01*
X-5950Y-22879D01*
X-5388Y-23255D01*
X-4724Y-23387D01*
X-4061Y-23255D01*
X-3499Y-22879D01*
X-3123Y-22317D01*
X-2991Y-21654D01*
X-3123Y-20990D01*
X-3499Y-20428D01*
X-4061Y-20052D01*
X-4724Y-19920D01*
D02*
G37*
G36*
X17323Y-23070D02*
X16659Y-23202D01*
X16097Y-23577D01*
X15721Y-24140D01*
X15589Y-24803D01*
X15721Y-25466D01*
X16097Y-26029D01*
X16659Y-26405D01*
X17323Y-26537D01*
X17986Y-26405D01*
X18549Y-26029D01*
X18924Y-25466D01*
X19056Y-24803D01*
X18924Y-24140D01*
X18549Y-23577D01*
X17986Y-23202D01*
X17323Y-23070D01*
D02*
G37*
G36*
X-7874D02*
X-8537Y-23202D01*
X-9100Y-23577D01*
X-9475Y-24140D01*
X-9607Y-24803D01*
X-9475Y-25466D01*
X-9100Y-26029D01*
X-8537Y-26405D01*
X-7874Y-26537D01*
X-7211Y-26405D01*
X-6648Y-26029D01*
X-6273Y-25466D01*
X-6141Y-24803D01*
X-6273Y-24140D01*
X-6648Y-23577D01*
X-7211Y-23202D01*
X-7874Y-23070D01*
D02*
G37*
G36*
X11024Y-26219D02*
X10360Y-26351D01*
X9798Y-26727D01*
X9422Y-27289D01*
X9290Y-27953D01*
X9422Y-28616D01*
X9798Y-29178D01*
X10360Y-29554D01*
X11024Y-29686D01*
X11687Y-29554D01*
X12249Y-29178D01*
X12625Y-28616D01*
X12757Y-27953D01*
X12625Y-27289D01*
X12249Y-26727D01*
X11687Y-26351D01*
X11024Y-26219D01*
D02*
G37*
G36*
X4724D02*
X4061Y-26351D01*
X3499Y-26727D01*
X3123Y-27289D01*
X2991Y-27953D01*
X3123Y-28616D01*
X3499Y-29178D01*
X4061Y-29554D01*
X4724Y-29686D01*
X5388Y-29554D01*
X5950Y-29178D01*
X6326Y-28616D01*
X6458Y-27953D01*
X6326Y-27289D01*
X5950Y-26727D01*
X5388Y-26351D01*
X4724Y-26219D01*
D02*
G37*
G36*
X-1575D02*
X-2238Y-26351D01*
X-2800Y-26727D01*
X-3176Y-27289D01*
X-3308Y-27953D01*
X-3176Y-28616D01*
X-2800Y-29178D01*
X-2238Y-29554D01*
X-1575Y-29686D01*
X-912Y-29554D01*
X-349Y-29178D01*
X27Y-28616D01*
X158Y-27953D01*
X27Y-27289D01*
X-349Y-26727D01*
X-912Y-26351D01*
X-1575Y-26219D01*
D02*
G37*
G36*
X-86502Y-28345D02*
X-87165Y-28477D01*
X-87728Y-28853D01*
X-88103Y-29415D01*
X-88235Y-30079D01*
X-88103Y-30742D01*
X-87728Y-31304D01*
X-87165Y-31680D01*
X-86502Y-31812D01*
X-85839Y-31680D01*
X-85277Y-31304D01*
X-84901Y-30742D01*
X-84769Y-30079D01*
X-84901Y-29415D01*
X-85277Y-28853D01*
X-85839Y-28477D01*
X-86502Y-28345D01*
D02*
G37*
G36*
X47638Y-28975D02*
X46975Y-29107D01*
X46412Y-29483D01*
X46036Y-30045D01*
X45904Y-30709D01*
X46036Y-31372D01*
X46412Y-31934D01*
X46975Y-32310D01*
X47638Y-32442D01*
X48301Y-32310D01*
X48863Y-31934D01*
X49239Y-31372D01*
X49371Y-30709D01*
X49239Y-30045D01*
X48863Y-29483D01*
X48301Y-29107D01*
X47638Y-28975D01*
D02*
G37*
G36*
X-30866Y-29212D02*
X-31530Y-29344D01*
X-32092Y-29719D01*
X-32467Y-30282D01*
X-32599Y-30945D01*
X-32467Y-31608D01*
X-32092Y-32171D01*
X-31530Y-32546D01*
X-30866Y-32678D01*
X-30203Y-32546D01*
X-29640Y-32171D01*
X-29265Y-31608D01*
X-29133Y-30945D01*
X-29265Y-30282D01*
X-29640Y-29719D01*
X-30203Y-29344D01*
X-30866Y-29212D01*
D02*
G37*
G36*
X11024Y-32519D02*
X10360Y-32651D01*
X9798Y-33026D01*
X9422Y-33589D01*
X9290Y-34252D01*
X9422Y-34915D01*
X9798Y-35478D01*
X10360Y-35853D01*
X11024Y-35985D01*
X11687Y-35853D01*
X12249Y-35478D01*
X12625Y-34915D01*
X12757Y-34252D01*
X12625Y-33589D01*
X12249Y-33026D01*
X11687Y-32651D01*
X11024Y-32519D01*
D02*
G37*
G36*
X-1575D02*
X-2238Y-32651D01*
X-2800Y-33026D01*
X-3176Y-33589D01*
X-3308Y-34252D01*
X-3176Y-34915D01*
X-2800Y-35478D01*
X-2238Y-35853D01*
X-1575Y-35985D01*
X-912Y-35853D01*
X-349Y-35478D01*
X27Y-34915D01*
X158Y-34252D01*
X27Y-33589D01*
X-349Y-33026D01*
X-912Y-32651D01*
X-1575Y-32519D01*
D02*
G37*
G36*
X108031Y-37479D02*
X107368Y-37611D01*
X106806Y-37987D01*
X106430Y-38549D01*
X106298Y-39213D01*
X106430Y-39876D01*
X106806Y-40438D01*
X107368Y-40814D01*
X108031Y-40946D01*
X108695Y-40814D01*
X109257Y-40438D01*
X109633Y-39876D01*
X109765Y-39213D01*
X109633Y-38549D01*
X109257Y-37987D01*
X108695Y-37611D01*
X108031Y-37479D01*
D02*
G37*
G36*
X11024Y-38818D02*
X10360Y-38950D01*
X9798Y-39326D01*
X9422Y-39888D01*
X9290Y-40551D01*
X9422Y-41214D01*
X9798Y-41777D01*
X10360Y-42153D01*
X11024Y-42285D01*
X11687Y-42153D01*
X12249Y-41777D01*
X12625Y-41214D01*
X12757Y-40551D01*
X12625Y-39888D01*
X12249Y-39326D01*
X11687Y-38950D01*
X11024Y-38818D01*
D02*
G37*
G36*
X4724D02*
X4061Y-38950D01*
X3499Y-39326D01*
X3123Y-39888D01*
X2991Y-40551D01*
X3123Y-41214D01*
X3499Y-41777D01*
X4061Y-42153D01*
X4724Y-42285D01*
X5388Y-42153D01*
X5950Y-41777D01*
X6326Y-41214D01*
X6458Y-40551D01*
X6326Y-39888D01*
X5950Y-39326D01*
X5388Y-38950D01*
X4724Y-38818D01*
D02*
G37*
G36*
X-1575D02*
X-2238Y-38950D01*
X-2800Y-39326D01*
X-3176Y-39888D01*
X-3308Y-40551D01*
X-3176Y-41214D01*
X-2800Y-41777D01*
X-2238Y-42153D01*
X-1575Y-42285D01*
X-912Y-42153D01*
X-349Y-41777D01*
X27Y-41214D01*
X158Y-40551D01*
X27Y-39888D01*
X-349Y-39326D01*
X-912Y-38950D01*
X-1575Y-38818D01*
D02*
G37*
G36*
X61024Y-41810D02*
X60360Y-41942D01*
X59798Y-42318D01*
X59422Y-42880D01*
X59290Y-43543D01*
X59422Y-44207D01*
X59798Y-44769D01*
X60360Y-45145D01*
X61024Y-45277D01*
X61687Y-45145D01*
X62249Y-44769D01*
X62625Y-44207D01*
X62757Y-43543D01*
X62625Y-42880D01*
X62249Y-42318D01*
X61687Y-41942D01*
X61024Y-41810D01*
D02*
G37*
G36*
X17323Y-41967D02*
X16659Y-42099D01*
X16097Y-42475D01*
X15721Y-43038D01*
X15589Y-43701D01*
X15721Y-44364D01*
X16097Y-44926D01*
X16659Y-45302D01*
X17323Y-45434D01*
X17986Y-45302D01*
X18549Y-44926D01*
X18924Y-44364D01*
X19056Y-43701D01*
X18924Y-43038D01*
X18549Y-42475D01*
X17986Y-42099D01*
X17323Y-41967D01*
D02*
G37*
G36*
X-7874D02*
X-8537Y-42099D01*
X-9100Y-42475D01*
X-9475Y-43038D01*
X-9607Y-43701D01*
X-9475Y-44364D01*
X-9100Y-44926D01*
X-8537Y-45302D01*
X-7874Y-45434D01*
X-7211Y-45302D01*
X-6648Y-44926D01*
X-6273Y-44364D01*
X-6141Y-43701D01*
X-6273Y-43038D01*
X-6648Y-42475D01*
X-7211Y-42099D01*
X-7874Y-41967D01*
D02*
G37*
G36*
X14173Y-45117D02*
X13510Y-45249D01*
X12948Y-45625D01*
X12572Y-46187D01*
X12440Y-46850D01*
X12572Y-47514D01*
X12948Y-48076D01*
X13510Y-48452D01*
X14173Y-48584D01*
X14837Y-48452D01*
X15399Y-48076D01*
X15775Y-47514D01*
X15906Y-46850D01*
X15775Y-46187D01*
X15399Y-45625D01*
X14837Y-45249D01*
X14173Y-45117D01*
D02*
G37*
G36*
X-4724D02*
X-5388Y-45249D01*
X-5950Y-45625D01*
X-6326Y-46187D01*
X-6458Y-46850D01*
X-6326Y-47514D01*
X-5950Y-48076D01*
X-5388Y-48452D01*
X-4724Y-48584D01*
X-4061Y-48452D01*
X-3499Y-48076D01*
X-3123Y-47514D01*
X-2991Y-46850D01*
X-3123Y-46187D01*
X-3499Y-45625D01*
X-4061Y-45249D01*
X-4724Y-45117D01*
D02*
G37*
G36*
X59055Y-46298D02*
X58392Y-46430D01*
X57829Y-46806D01*
X57454Y-47368D01*
X57322Y-48031D01*
X57454Y-48695D01*
X57829Y-49257D01*
X58392Y-49633D01*
X59055Y-49765D01*
X59718Y-49633D01*
X60281Y-49257D01*
X60656Y-48695D01*
X60788Y-48031D01*
X60656Y-47368D01*
X60281Y-46806D01*
X59718Y-46430D01*
X59055Y-46298D01*
D02*
G37*
G36*
X81732Y-47715D02*
X81069Y-47848D01*
X80507Y-48223D01*
X80131Y-48785D01*
X79999Y-49449D01*
X80131Y-50112D01*
X80507Y-50674D01*
X81069Y-51050D01*
X81732Y-51182D01*
X82396Y-51050D01*
X82958Y-50674D01*
X83334Y-50112D01*
X83466Y-49449D01*
X83334Y-48785D01*
X82958Y-48223D01*
X82396Y-47848D01*
X81732Y-47715D01*
D02*
G37*
G36*
X46850Y-48267D02*
X46187Y-48399D01*
X45625Y-48774D01*
X45249Y-49337D01*
X45117Y-50000D01*
X45249Y-50663D01*
X45625Y-51226D01*
X46187Y-51601D01*
X46850Y-51733D01*
X47514Y-51601D01*
X48076Y-51226D01*
X48452Y-50663D01*
X48584Y-50000D01*
X48452Y-49337D01*
X48076Y-48774D01*
X47514Y-48399D01*
X46850Y-48267D01*
D02*
G37*
G36*
X65354Y-49054D02*
X64691Y-49186D01*
X64129Y-49562D01*
X63753Y-50124D01*
X63621Y-50787D01*
X63753Y-51451D01*
X64129Y-52013D01*
X64691Y-52389D01*
X65354Y-52521D01*
X66018Y-52389D01*
X66580Y-52013D01*
X66956Y-51451D01*
X67088Y-50787D01*
X66956Y-50124D01*
X66580Y-49562D01*
X66018Y-49186D01*
X65354Y-49054D01*
D02*
G37*
G36*
X59055Y-50620D02*
X58392Y-50751D01*
X57829Y-51127D01*
X57454Y-51689D01*
X57322Y-52353D01*
X57454Y-53016D01*
X57829Y-53578D01*
X58392Y-53954D01*
X59055Y-54086D01*
X59718Y-53954D01*
X60281Y-53578D01*
X60656Y-53016D01*
X60788Y-52353D01*
X60656Y-51689D01*
X60281Y-51127D01*
X59718Y-50751D01*
X59055Y-50620D01*
D02*
G37*
G36*
X107874Y-52597D02*
X107211Y-52729D01*
X106648Y-53105D01*
X106273Y-53667D01*
X106160Y-54232D01*
X105651D01*
X105538Y-53667D01*
X105163Y-53105D01*
X104600Y-52729D01*
X103937Y-52597D01*
X103274Y-52729D01*
X102711Y-53105D01*
X102336Y-53667D01*
X102204Y-54331D01*
X102336Y-54994D01*
X102711Y-55556D01*
X103274Y-55932D01*
X103937Y-56064D01*
X104600Y-55932D01*
X105163Y-55556D01*
X105538Y-54994D01*
X105651Y-54430D01*
X106160D01*
X106273Y-54994D01*
X106648Y-55556D01*
X107211Y-55932D01*
X107874Y-56064D01*
X108537Y-55932D01*
X109100Y-55556D01*
X109475Y-54994D01*
X109607Y-54331D01*
X109475Y-53667D01*
X109100Y-53105D01*
X108537Y-52729D01*
X107874Y-52597D01*
D02*
G37*
G36*
X62598Y-55255D02*
X61935Y-55387D01*
X61373Y-55763D01*
X61173Y-56061D01*
X60579D01*
X60379Y-55763D01*
X59817Y-55387D01*
X59153Y-55255D01*
X58490Y-55387D01*
X57928Y-55763D01*
X57552Y-56325D01*
X57420Y-56988D01*
X57552Y-57652D01*
X57928Y-58214D01*
X58490Y-58590D01*
X59153Y-58722D01*
X59817Y-58590D01*
X60379Y-58214D01*
X60579Y-57915D01*
X61173D01*
X61373Y-58214D01*
X61935Y-58590D01*
X62598Y-58722D01*
X63262Y-58590D01*
X63824Y-58214D01*
X64200Y-57652D01*
X64332Y-56988D01*
X64200Y-56325D01*
X63824Y-55763D01*
X63262Y-55387D01*
X62598Y-55255D01*
D02*
G37*
G36*
X31102Y-52597D02*
X30439Y-52729D01*
X29877Y-53105D01*
X29501Y-53667D01*
X29369Y-54331D01*
X29501Y-54994D01*
X29877Y-55556D01*
X30439Y-55932D01*
X31102Y-56064D01*
X31766Y-55932D01*
X32328Y-55556D01*
X32704Y-54994D01*
X32836Y-54331D01*
X32704Y-53667D01*
X32328Y-53105D01*
X31766Y-52729D01*
X31102Y-52597D01*
D02*
G37*
G36*
X-29291Y-52834D02*
X-29955Y-52966D01*
X-30517Y-53341D01*
X-30893Y-53904D01*
X-31025Y-54567D01*
X-30893Y-55230D01*
X-30517Y-55793D01*
X-29955Y-56168D01*
X-29291Y-56300D01*
X-28628Y-56168D01*
X-28066Y-55793D01*
X-27690Y-55230D01*
X-27558Y-54567D01*
X-27690Y-53904D01*
X-28066Y-53341D01*
X-28628Y-52966D01*
X-29291Y-52834D01*
D02*
G37*
G36*
X100394Y-54566D02*
X99730Y-54698D01*
X99168Y-55074D01*
X98792Y-55636D01*
X98660Y-56299D01*
X98792Y-56963D01*
X99168Y-57525D01*
X99730Y-57901D01*
X100394Y-58033D01*
X101057Y-57901D01*
X101619Y-57525D01*
X101995Y-56963D01*
X102127Y-56299D01*
X101995Y-55636D01*
X101619Y-55074D01*
X101057Y-54698D01*
X100394Y-54566D01*
D02*
G37*
G36*
X48031D02*
X47368Y-54698D01*
X46806Y-55074D01*
X46430Y-55636D01*
X46298Y-56299D01*
X46430Y-56963D01*
X46806Y-57525D01*
X47368Y-57901D01*
X48031Y-58033D01*
X48695Y-57901D01*
X49257Y-57525D01*
X49633Y-56963D01*
X49765Y-56299D01*
X49633Y-55636D01*
X49257Y-55074D01*
X48695Y-54698D01*
X48031Y-54566D01*
D02*
G37*
G36*
X7874Y-58897D02*
X7211Y-59029D01*
X6648Y-59404D01*
X6549Y-59553D01*
X6049D01*
X5950Y-59404D01*
X5388Y-59029D01*
X4724Y-58897D01*
X4061Y-59029D01*
X3499Y-59404D01*
X3123Y-59967D01*
X2991Y-60630D01*
X3123Y-61293D01*
X3499Y-61856D01*
X4061Y-62231D01*
X4724Y-62363D01*
X5388Y-62231D01*
X5950Y-61856D01*
X6049Y-61707D01*
X6549D01*
X6648Y-61856D01*
X7211Y-62231D01*
X7874Y-62363D01*
X8537Y-62231D01*
X8617Y-62386D01*
X8635Y-62474D01*
X9011Y-63037D01*
X9573Y-63412D01*
X10236Y-63544D01*
X10899Y-63412D01*
X11037Y-63321D01*
X11373Y-63824D01*
X11935Y-64200D01*
X12598Y-64332D01*
X13262Y-64200D01*
X13824Y-63824D01*
X14200Y-63262D01*
X14332Y-62598D01*
X14200Y-61935D01*
X13824Y-61373D01*
X13262Y-60997D01*
X12598Y-60865D01*
X11935Y-60997D01*
X11798Y-61089D01*
X11462Y-60585D01*
X10899Y-60210D01*
X10236Y-60078D01*
X9573Y-60210D01*
X9493Y-60055D01*
X9475Y-59967D01*
X9100Y-59404D01*
X8537Y-59029D01*
X7874Y-58897D01*
D02*
G37*
G36*
X32677Y-62046D02*
X32014Y-62178D01*
X31451Y-62554D01*
X31076Y-63116D01*
X30944Y-63779D01*
X31076Y-64443D01*
X31451Y-65005D01*
X32014Y-65381D01*
X32677Y-65513D01*
X33340Y-65381D01*
X33903Y-65005D01*
X34279Y-64443D01*
X34411Y-63779D01*
X34279Y-63116D01*
X33903Y-62554D01*
X33340Y-62178D01*
X32677Y-62046D01*
D02*
G37*
G36*
X-78740Y-65589D02*
X-79404Y-65721D01*
X-79966Y-66097D01*
X-80065Y-66246D01*
X-80565D01*
X-80664Y-66097D01*
X-81226Y-65721D01*
X-81890Y-65589D01*
X-82553Y-65721D01*
X-83115Y-66097D01*
X-83491Y-66659D01*
X-83623Y-67323D01*
X-83491Y-67986D01*
X-83115Y-68549D01*
X-82553Y-68924D01*
X-81890Y-69056D01*
X-81226Y-68924D01*
X-80664Y-68549D01*
X-80565Y-68400D01*
X-80065D01*
X-79966Y-68549D01*
X-79404Y-68924D01*
X-78740Y-69056D01*
X-78077Y-68924D01*
X-77514Y-68549D01*
X-77139Y-67986D01*
X-77007Y-67323D01*
X-77139Y-66659D01*
X-77514Y-66097D01*
X-78077Y-65721D01*
X-78740Y-65589D01*
D02*
G37*
G36*
X-68530Y-16534D02*
X-68843Y-16596D01*
X-69107Y-16773D01*
X-69107Y-16773D01*
X-98608Y-46274D01*
X-98785Y-46538D01*
X-98847Y-46850D01*
X-98847Y-46850D01*
Y-63868D01*
X-98847Y-63868D01*
X-98847Y-63868D01*
X-98816Y-64025D01*
X-98785Y-64180D01*
X-98785Y-64180D01*
X-98785Y-64181D01*
X-98698Y-64311D01*
X-98608Y-64445D01*
X-98608Y-64445D01*
X-98608Y-64445D01*
X-98254Y-64798D01*
X-98254Y-64798D01*
X-98253Y-64799D01*
X-98124Y-64885D01*
X-97989Y-64975D01*
X-97989Y-64975D01*
X-97988Y-64975D01*
X-97840Y-65004D01*
X-97677Y-65037D01*
X-97676Y-65037D01*
X-97676Y-65037D01*
X-64129Y-64977D01*
X-62173Y-66933D01*
X-62167Y-66937D01*
X-62164Y-66943D01*
X-62035Y-67025D01*
X-61908Y-67110D01*
X-61902Y-67111D01*
X-61896Y-67115D01*
X-61746Y-67142D01*
X-61596Y-67172D01*
X-61590Y-67171D01*
X-61583Y-67172D01*
X-61083Y-67164D01*
X-61077Y-67163D01*
X-61070Y-67164D01*
X-60922Y-67129D01*
X-60772Y-67097D01*
X-60767Y-67093D01*
X-60760Y-67092D01*
X-60636Y-67003D01*
X-60510Y-66916D01*
X-60507Y-66911D01*
X-60501Y-66907D01*
X-58323Y-64585D01*
X-44422Y-64598D01*
X-41514Y-67506D01*
X-41514Y-67506D01*
X-41249Y-67683D01*
X-40937Y-67745D01*
X-40937Y-67745D01*
X-33858D01*
X-33546Y-67683D01*
X-33281Y-67506D01*
X-33281Y-67506D01*
X-28557Y-62782D01*
X-28380Y-62517D01*
X-28318Y-62205D01*
X-28318Y-62205D01*
Y-59055D01*
X-28321Y-59041D01*
X-28319Y-59027D01*
X-28352Y-58886D01*
X-28380Y-58743D01*
X-28388Y-58731D01*
X-28391Y-58718D01*
X-28476Y-58600D01*
X-28557Y-58478D01*
X-28569Y-58470D01*
X-28577Y-58459D01*
X-34617Y-52815D01*
X-34617Y-28740D01*
X-34617Y-28740D01*
X-34679Y-28428D01*
X-34856Y-28163D01*
X-34856Y-28163D01*
X-46247Y-16773D01*
X-46247Y-16773D01*
X-46512Y-16596D01*
X-46824Y-16534D01*
X-46824Y-16534D01*
X-68530Y-16534D01*
X-68530Y-16534D01*
D02*
G37*
G36*
X68110Y-62440D02*
X67447Y-62572D01*
X66885Y-62948D01*
X66509Y-63510D01*
X66377Y-64173D01*
X66509Y-64837D01*
X66885Y-65399D01*
X67447Y-65775D01*
X68110Y-65907D01*
X68420Y-65845D01*
X68721Y-66295D01*
X68477Y-66659D01*
X68345Y-67323D01*
X68477Y-67986D01*
X68853Y-68549D01*
X69415Y-68924D01*
X70079Y-69056D01*
X70742Y-68924D01*
X71304Y-68549D01*
X71680Y-67986D01*
X71812Y-67323D01*
X71680Y-66659D01*
X71304Y-66097D01*
X70742Y-65721D01*
X70079Y-65589D01*
X69769Y-65651D01*
X69468Y-65201D01*
X69712Y-64837D01*
X69844Y-64173D01*
X69712Y-63510D01*
X69336Y-62948D01*
X68774Y-62572D01*
X68110Y-62440D01*
D02*
G37*
G36*
X-24024Y-67544D02*
X-24299Y-67580D01*
X-25021Y-67879D01*
X-25641Y-68355D01*
X-26117Y-68975D01*
X-26416Y-69697D01*
X-26518Y-70473D01*
Y-71153D01*
X-24024D01*
Y-67544D01*
D02*
G37*
G36*
X-106701D02*
X-106976Y-67580D01*
X-107698Y-67879D01*
X-108318Y-68355D01*
X-108794Y-68975D01*
X-109093Y-69697D01*
X-109195Y-70473D01*
Y-71153D01*
X-106701D01*
Y-67544D01*
D02*
G37*
G36*
X12213Y-67544D02*
Y-71153D01*
X14707D01*
Y-70473D01*
X14605Y-69697D01*
X14306Y-68975D01*
X13830Y-68355D01*
X13210Y-67879D01*
X12488Y-67580D01*
X12213Y-67544D01*
D02*
G37*
G36*
X-70464D02*
Y-71153D01*
X-67971D01*
Y-70473D01*
X-68072Y-69697D01*
X-68372Y-68975D01*
X-68847Y-68355D01*
X-69468Y-67879D01*
X-70190Y-67580D01*
X-70464Y-67544D01*
D02*
G37*
G36*
X58653Y-67544D02*
X58379Y-67580D01*
X57656Y-67879D01*
X57036Y-68355D01*
X56560Y-68975D01*
X56261Y-69697D01*
X56159Y-70473D01*
Y-71153D01*
X58653D01*
Y-67544D01*
D02*
G37*
G36*
X94890Y-67544D02*
Y-71154D01*
X97384D01*
Y-70473D01*
X97282Y-69697D01*
X96983Y-68975D01*
X96507Y-68355D01*
X95887Y-67879D01*
X95165Y-67580D01*
X94890Y-67544D01*
D02*
G37*
G36*
X93890Y-67544D02*
X93615Y-67580D01*
X92893Y-67879D01*
X92273Y-68355D01*
X91797Y-68975D01*
X91498Y-69697D01*
X91396Y-70473D01*
Y-70986D01*
X90896Y-71316D01*
X90354Y-71209D01*
X89581Y-71362D01*
X88926Y-71800D01*
X88488Y-72455D01*
X88334Y-73228D01*
X88488Y-74001D01*
X88926Y-74657D01*
X89279Y-74892D01*
X89127Y-75392D01*
X88386D01*
X87496Y-75569D01*
X86742Y-76073D01*
X86238Y-76827D01*
X86161Y-77217D01*
X92579D01*
X92502Y-76827D01*
X91998Y-76073D01*
X91246Y-75571D01*
X91184Y-75324D01*
X91194Y-75050D01*
X91783Y-74657D01*
X92040Y-74648D01*
X92273Y-74952D01*
X92893Y-75428D01*
X93615Y-75727D01*
X93890Y-75763D01*
Y-71654D01*
Y-67544D01*
D02*
G37*
G36*
X-71465D02*
X-71740Y-67580D01*
X-72462Y-67879D01*
X-73082Y-68355D01*
X-73558Y-68975D01*
X-73857Y-69697D01*
X-73959Y-70473D01*
Y-70986D01*
X-74459Y-71316D01*
X-75000Y-71209D01*
X-75773Y-71362D01*
X-76428Y-71800D01*
X-76866Y-72455D01*
X-77020Y-73228D01*
X-76866Y-74001D01*
X-76428Y-74657D01*
X-76076Y-74892D01*
X-76227Y-75392D01*
X-76968D01*
X-77858Y-75569D01*
X-78612Y-76073D01*
X-79116Y-76827D01*
X-79193Y-77217D01*
X-72775D01*
X-72853Y-76827D01*
X-73357Y-76073D01*
X-74108Y-75571D01*
X-74170Y-75324D01*
X-74160Y-75050D01*
X-73572Y-74657D01*
X-73315Y-74648D01*
X-73082Y-74952D01*
X-72462Y-75428D01*
X-71740Y-75727D01*
X-71465Y-75763D01*
Y-71653D01*
Y-67544D01*
D02*
G37*
G36*
X-13780Y-68345D02*
X-14443Y-68477D01*
X-15005Y-68853D01*
X-15381Y-69415D01*
X-15513Y-70079D01*
X-15381Y-70742D01*
X-15005Y-71304D01*
X-14443Y-71680D01*
X-13780Y-71812D01*
X-13116Y-71680D01*
X-12554Y-71304D01*
X-12178Y-70742D01*
X-12046Y-70079D01*
X-12178Y-69415D01*
X-12554Y-68853D01*
X-13116Y-68477D01*
X-13780Y-68345D01*
D02*
G37*
G36*
X106329Y-65527D02*
X105375Y-65652D01*
X104486Y-66021D01*
X103722Y-66606D01*
X103137Y-67370D01*
X102768Y-68259D01*
X102643Y-69213D01*
X102768Y-70167D01*
X103137Y-71056D01*
X103722Y-71819D01*
X104486Y-72405D01*
X105375Y-72773D01*
X106329Y-72899D01*
X107283Y-72773D01*
X108172Y-72405D01*
X108935Y-71819D01*
X109521Y-71056D01*
X109889Y-70167D01*
X110014Y-69213D01*
X109889Y-68259D01*
X109521Y-67370D01*
X108935Y-66606D01*
X108172Y-66021D01*
X107283Y-65652D01*
X106329Y-65527D01*
D02*
G37*
G36*
X-118110Y-65605D02*
X-119064Y-65731D01*
X-119953Y-66099D01*
X-120717Y-66685D01*
X-121302Y-67448D01*
X-121670Y-68337D01*
X-121796Y-69291D01*
X-121670Y-70245D01*
X-121302Y-71134D01*
X-120717Y-71898D01*
X-119953Y-72483D01*
X-119064Y-72852D01*
X-118110Y-72977D01*
X-117156Y-72852D01*
X-116267Y-72483D01*
X-115504Y-71898D01*
X-114918Y-71134D01*
X-114550Y-70245D01*
X-114424Y-69291D01*
X-114550Y-68337D01*
X-114918Y-67448D01*
X-115504Y-66685D01*
X-116267Y-66099D01*
X-117156Y-65731D01*
X-118110Y-65605D01*
D02*
G37*
G36*
X97384Y-72154D02*
X94890D01*
Y-75763D01*
X95165Y-75727D01*
X95887Y-75428D01*
X96507Y-74952D01*
X96983Y-74332D01*
X97282Y-73610D01*
X97384Y-72835D01*
Y-72154D01*
D02*
G37*
G36*
X-67971Y-72154D02*
X-70464D01*
Y-75763D01*
X-70190Y-75727D01*
X-69468Y-75428D01*
X-68847Y-74952D01*
X-68372Y-74332D01*
X-68072Y-73610D01*
X-67971Y-72835D01*
Y-72154D01*
D02*
G37*
G36*
X14707Y-72154D02*
X12213D01*
Y-75763D01*
X12488Y-75727D01*
X13210Y-75428D01*
X13830Y-74952D01*
X14306Y-74332D01*
X14605Y-73610D01*
X14707Y-72835D01*
Y-72154D01*
D02*
G37*
G36*
X-24024Y-72154D02*
X-26518D01*
Y-72835D01*
X-26416Y-73610D01*
X-26117Y-74332D01*
X-25641Y-74952D01*
X-25021Y-75428D01*
X-24299Y-75727D01*
X-24024Y-75763D01*
Y-72154D01*
D02*
G37*
G36*
X-106701Y-72154D02*
X-109195D01*
Y-72835D01*
X-109093Y-73610D01*
X-108794Y-74332D01*
X-108318Y-74952D01*
X-107698Y-75428D01*
X-106976Y-75727D01*
X-106701Y-75763D01*
Y-72154D01*
D02*
G37*
G36*
X58653Y-72154D02*
X56159D01*
Y-72835D01*
X56261Y-73610D01*
X56560Y-74332D01*
X57036Y-74952D01*
X57656Y-75428D01*
X58379Y-75727D01*
X58653Y-75763D01*
Y-72154D01*
D02*
G37*
G36*
X-105701Y-67544D02*
Y-71653D01*
Y-75763D01*
X-105426Y-75727D01*
X-104704Y-75428D01*
X-104084Y-74952D01*
X-103851Y-74648D01*
X-103594Y-74657D01*
X-103006Y-75050D01*
X-102996Y-75324D01*
X-103057Y-75571D01*
X-103809Y-76073D01*
X-104313Y-76827D01*
X-104390Y-77217D01*
X-101181D01*
X-97972D01*
X-98050Y-76827D01*
X-98553Y-76073D01*
X-99307Y-75569D01*
X-100197Y-75392D01*
X-100938D01*
X-101090Y-74892D01*
X-100737Y-74657D01*
X-100299Y-74001D01*
X-100145Y-73228D01*
X-100299Y-72455D01*
X-100737Y-71800D01*
X-101392Y-71362D01*
X-102165Y-71209D01*
X-102707Y-71316D01*
X-103207Y-70986D01*
Y-70473D01*
X-103309Y-69697D01*
X-103608Y-68975D01*
X-104084Y-68355D01*
X-104704Y-67879D01*
X-105426Y-67580D01*
X-105701Y-67544D01*
D02*
G37*
G36*
X59654D02*
Y-71653D01*
Y-75763D01*
X59928Y-75727D01*
X60651Y-75428D01*
X61271Y-74952D01*
X61504Y-74648D01*
X61761Y-74657D01*
X62349Y-75050D01*
X62359Y-75324D01*
X62297Y-75571D01*
X61545Y-76073D01*
X61042Y-76827D01*
X60964Y-77217D01*
X64173D01*
X67382D01*
X67305Y-76827D01*
X66801Y-76073D01*
X66047Y-75569D01*
X65157Y-75392D01*
X64416D01*
X64265Y-74892D01*
X64617Y-74657D01*
X65055Y-74001D01*
X65209Y-73228D01*
X65055Y-72455D01*
X64617Y-71800D01*
X63962Y-71362D01*
X63189Y-71209D01*
X62648Y-71316D01*
X62148Y-70986D01*
Y-70473D01*
X62046Y-69697D01*
X61747Y-68975D01*
X61271Y-68355D01*
X60651Y-67879D01*
X59928Y-67580D01*
X59654Y-67544D01*
D02*
G37*
G36*
X92579Y-78216D02*
X89870D01*
Y-80041D01*
X90354D01*
X91244Y-79864D01*
X91998Y-79360D01*
X92502Y-78606D01*
X92579Y-78216D01*
D02*
G37*
G36*
X63673Y-78217D02*
X60964D01*
X61042Y-78606D01*
X61545Y-79360D01*
X62300Y-79864D01*
X63189Y-80041D01*
X63673D01*
Y-78217D01*
D02*
G37*
G36*
X-72775Y-78216D02*
X-75484D01*
Y-80041D01*
X-75000D01*
X-74111Y-79864D01*
X-73357Y-79360D01*
X-72853Y-78606D01*
X-72775Y-78216D01*
D02*
G37*
G36*
X-101681Y-78217D02*
X-104390D01*
X-104313Y-78606D01*
X-103809Y-79360D01*
X-103055Y-79864D01*
X-102165Y-80041D01*
X-101681D01*
Y-78217D01*
D02*
G37*
G36*
X18512Y-74867D02*
Y-80366D01*
X21006D01*
Y-77795D01*
X20904Y-77020D01*
X20605Y-76298D01*
X20129Y-75678D01*
X19509Y-75202D01*
X18787Y-74903D01*
X18512Y-74867D01*
D02*
G37*
G36*
X-29323D02*
Y-80366D01*
X-26829D01*
Y-77795D01*
X-26931Y-77020D01*
X-27230Y-76298D01*
X-27706Y-75678D01*
X-28326Y-75202D01*
X-29048Y-74903D01*
X-29323Y-74867D01*
D02*
G37*
G36*
X17512Y-74867D02*
X17237Y-74903D01*
X16515Y-75202D01*
X15895Y-75678D01*
X15419Y-76298D01*
X15120Y-77020D01*
X15018Y-77795D01*
Y-80366D01*
X17512D01*
Y-74867D01*
D02*
G37*
G36*
X-30323D02*
X-30598Y-74903D01*
X-31320Y-75202D01*
X-31940Y-75678D01*
X-32416Y-76298D01*
X-32715Y-77020D01*
X-32817Y-77795D01*
Y-80366D01*
X-30323D01*
Y-74867D01*
D02*
G37*
G36*
X-64165Y-74867D02*
Y-80366D01*
X-61671D01*
Y-77795D01*
X-61773Y-77020D01*
X-62072Y-76298D01*
X-62548Y-75678D01*
X-63168Y-75202D01*
X-63890Y-74903D01*
X-64165Y-74867D01*
D02*
G37*
G36*
X-112000D02*
Y-80366D01*
X-109506D01*
Y-77795D01*
X-109608Y-77020D01*
X-109907Y-76298D01*
X-110383Y-75678D01*
X-111003Y-75202D01*
X-111725Y-74903D01*
X-112000Y-74867D01*
D02*
G37*
G36*
X-65165Y-74867D02*
X-65440Y-74903D01*
X-66162Y-75202D01*
X-66782Y-75678D01*
X-67258Y-76298D01*
X-67558Y-77020D01*
X-67659Y-77795D01*
Y-80366D01*
X-65165D01*
Y-74867D01*
D02*
G37*
G36*
X-113000D02*
X-113275Y-74903D01*
X-113997Y-75202D01*
X-114617Y-75678D01*
X-115093Y-76298D01*
X-115392Y-77020D01*
X-115494Y-77795D01*
Y-80366D01*
X-113000D01*
Y-74867D01*
D02*
G37*
G36*
X101189D02*
Y-80366D01*
X103683D01*
Y-77795D01*
X103581Y-77020D01*
X103282Y-76298D01*
X102806Y-75678D01*
X102186Y-75202D01*
X101464Y-74903D01*
X101189Y-74867D01*
D02*
G37*
G36*
X53354D02*
Y-80366D01*
X55848D01*
Y-77795D01*
X55746Y-77020D01*
X55447Y-76298D01*
X54971Y-75678D01*
X54351Y-75202D01*
X53629Y-74903D01*
X53354Y-74867D01*
D02*
G37*
G36*
X100189Y-74867D02*
X99914Y-74903D01*
X99192Y-75202D01*
X98572Y-75678D01*
X98096Y-76298D01*
X97797Y-77020D01*
X97695Y-77795D01*
Y-80366D01*
X100189D01*
Y-74867D01*
D02*
G37*
G36*
X52354D02*
X52079Y-74903D01*
X51357Y-75202D01*
X50737Y-75678D01*
X50261Y-76298D01*
X49962Y-77020D01*
X49860Y-77795D01*
Y-80366D01*
X52354D01*
Y-74867D01*
D02*
G37*
G36*
X-44882Y-77401D02*
X-45545Y-77533D01*
X-46108Y-77908D01*
X-46483Y-78471D01*
X-46615Y-79134D01*
X-46483Y-79797D01*
X-46108Y-80360D01*
X-45545Y-80735D01*
X-44882Y-80867D01*
X-44219Y-80735D01*
X-43656Y-80360D01*
X-43281Y-79797D01*
X-43149Y-79134D01*
X-43281Y-78471D01*
X-43656Y-77908D01*
X-44219Y-77533D01*
X-44882Y-77401D01*
D02*
G37*
G36*
X37008Y-82125D02*
X36345Y-82257D01*
X35782Y-82633D01*
X35407Y-83195D01*
X35275Y-83858D01*
X35407Y-84522D01*
X35782Y-85084D01*
X36345Y-85460D01*
X37008Y-85592D01*
X37671Y-85460D01*
X38234Y-85084D01*
X38609Y-84522D01*
X38741Y-83858D01*
X38609Y-83195D01*
X38234Y-82633D01*
X37671Y-82257D01*
X37008Y-82125D01*
D02*
G37*
G36*
X103683Y-81366D02*
X101189D01*
Y-86865D01*
X101464Y-86829D01*
X102186Y-86530D01*
X102806Y-86054D01*
X103282Y-85434D01*
X103581Y-84712D01*
X103683Y-83937D01*
Y-81366D01*
D02*
G37*
G36*
X-30323Y-81366D02*
X-32817D01*
Y-83937D01*
X-32715Y-84712D01*
X-32416Y-85434D01*
X-31940Y-86054D01*
X-31320Y-86530D01*
X-30598Y-86829D01*
X-30323Y-86865D01*
Y-81366D01*
D02*
G37*
G36*
X-113000Y-81366D02*
X-115494D01*
Y-83937D01*
X-115392Y-84712D01*
X-115093Y-85434D01*
X-114617Y-86054D01*
X-113997Y-86530D01*
X-113275Y-86829D01*
X-113000Y-86865D01*
Y-81366D01*
D02*
G37*
G36*
X-61671D02*
X-64165D01*
Y-86865D01*
X-63890Y-86829D01*
X-63168Y-86530D01*
X-62548Y-86054D01*
X-62072Y-85434D01*
X-61773Y-84712D01*
X-61671Y-83937D01*
Y-81366D01*
D02*
G37*
G36*
X21006Y-81366D02*
X18512D01*
Y-86865D01*
X18787Y-86829D01*
X19509Y-86530D01*
X20129Y-86054D01*
X20605Y-85434D01*
X20904Y-84712D01*
X21006Y-83937D01*
Y-81366D01*
D02*
G37*
G36*
X52354Y-81366D02*
X49860D01*
Y-83937D01*
X49962Y-84712D01*
X50261Y-85434D01*
X50737Y-86054D01*
X51357Y-86530D01*
X52079Y-86829D01*
X52354Y-86865D01*
Y-81366D01*
D02*
G37*
G36*
X-30323Y-89670D02*
X-30598Y-89706D01*
X-31320Y-90005D01*
X-31940Y-90481D01*
X-32416Y-91101D01*
X-32715Y-91824D01*
X-32817Y-92598D01*
Y-95169D01*
X-30323D01*
Y-89670D01*
D02*
G37*
G36*
X-113000D02*
X-113275Y-89706D01*
X-113997Y-90005D01*
X-114617Y-90481D01*
X-115093Y-91101D01*
X-115392Y-91824D01*
X-115494Y-92598D01*
Y-95169D01*
X-113000D01*
Y-89670D01*
D02*
G37*
G36*
X52354D02*
X52079Y-89706D01*
X51357Y-90005D01*
X50737Y-90481D01*
X50261Y-91101D01*
X49962Y-91824D01*
X49860Y-92598D01*
Y-95169D01*
X52354D01*
Y-89670D01*
D02*
G37*
G36*
X18512Y-90064D02*
Y-95563D01*
X21006D01*
Y-92992D01*
X20904Y-92217D01*
X20605Y-91495D01*
X20129Y-90875D01*
X19509Y-90399D01*
X18787Y-90100D01*
X18512Y-90064D01*
D02*
G37*
G36*
X-64165D02*
Y-95563D01*
X-61671D01*
Y-92992D01*
X-61773Y-92217D01*
X-62072Y-91495D01*
X-62548Y-90875D01*
X-63168Y-90399D01*
X-63890Y-90100D01*
X-64165Y-90064D01*
D02*
G37*
G36*
X101189D02*
Y-95563D01*
X103683D01*
Y-92992D01*
X103581Y-92217D01*
X103282Y-91495D01*
X102806Y-90875D01*
X102186Y-90399D01*
X101464Y-90100D01*
X101189Y-90064D01*
D02*
G37*
G36*
X-30323Y-96169D02*
X-32817D01*
Y-98740D01*
X-32715Y-99515D01*
X-32416Y-100237D01*
X-31940Y-100857D01*
X-31320Y-101333D01*
X-30598Y-101632D01*
X-30323Y-101669D01*
Y-96169D01*
D02*
G37*
G36*
X-113000Y-96169D02*
X-115494D01*
Y-98740D01*
X-115392Y-99515D01*
X-115093Y-100237D01*
X-114617Y-100857D01*
X-113997Y-101333D01*
X-113275Y-101632D01*
X-113000Y-101669D01*
Y-96169D01*
D02*
G37*
G36*
X52354Y-96169D02*
X49860D01*
Y-98740D01*
X49962Y-99515D01*
X50261Y-100237D01*
X50737Y-100857D01*
X51357Y-101333D01*
X52079Y-101632D01*
X52354Y-101669D01*
Y-96169D01*
D02*
G37*
G36*
X103683Y-96563D02*
X101189D01*
Y-102062D01*
X101464Y-102026D01*
X102186Y-101727D01*
X102806Y-101251D01*
X103282Y-100631D01*
X103581Y-99909D01*
X103683Y-99134D01*
Y-96563D01*
D02*
G37*
G36*
X-61671Y-96563D02*
X-64165D01*
Y-102062D01*
X-63890Y-102026D01*
X-63168Y-101727D01*
X-62548Y-101251D01*
X-62072Y-100631D01*
X-61773Y-99909D01*
X-61671Y-99134D01*
Y-96563D01*
D02*
G37*
G36*
X21006Y-96563D02*
X18512D01*
Y-102062D01*
X18787Y-102026D01*
X19509Y-101727D01*
X20129Y-101251D01*
X20605Y-100631D01*
X20904Y-99909D01*
X21006Y-99134D01*
Y-96563D01*
D02*
G37*
%LPD*%
G36*
X-46824Y-17349D02*
X-35433Y-28740D01*
X-35433Y-53169D01*
X-29134Y-59055D01*
Y-62205D01*
X-33858Y-66929D01*
X-40937D01*
X-44084Y-63782D01*
X-58676Y-63769D01*
X-61096Y-66349D01*
X-61596Y-66357D01*
X-63792Y-64161D01*
X-97678Y-64221D01*
X-98032Y-63868D01*
Y-46850D01*
X-68530Y-17349D01*
X-46824Y-17349D01*
D02*
G37*
%LPC*%
G36*
X-61024Y-25922D02*
X-61687Y-26054D01*
X-62249Y-26430D01*
X-62625Y-26992D01*
X-62757Y-27656D01*
X-62625Y-28319D01*
X-62249Y-28881D01*
X-61687Y-29257D01*
X-61024Y-29389D01*
X-60360Y-29257D01*
X-59798Y-28881D01*
X-59422Y-28319D01*
X-59290Y-27656D01*
X-59422Y-26992D01*
X-59798Y-26430D01*
X-60360Y-26054D01*
X-61024Y-25922D01*
D02*
G37*
G36*
X-66142Y-33700D02*
X-66805Y-33832D01*
X-67367Y-34207D01*
X-67743Y-34770D01*
X-67875Y-35433D01*
X-67743Y-36096D01*
X-67367Y-36659D01*
X-66805Y-37034D01*
X-66142Y-37166D01*
X-65478Y-37034D01*
X-64916Y-36659D01*
X-64540Y-36096D01*
X-64408Y-35433D01*
X-64540Y-34770D01*
X-64916Y-34207D01*
X-65478Y-33832D01*
X-66142Y-33700D01*
D02*
G37*
G36*
X-74410Y-38030D02*
X-75073Y-38162D01*
X-75635Y-38538D01*
X-76011Y-39101D01*
X-76143Y-39764D01*
X-76011Y-40427D01*
X-75635Y-40989D01*
X-75487Y-41089D01*
Y-41589D01*
X-75635Y-41688D01*
X-76011Y-42250D01*
X-76143Y-42913D01*
X-76011Y-43577D01*
X-75635Y-44139D01*
X-75073Y-44515D01*
X-74410Y-44647D01*
X-73746Y-44515D01*
X-73184Y-44139D01*
X-72808Y-43577D01*
X-72676Y-42913D01*
X-72808Y-42250D01*
X-73184Y-41688D01*
X-73332Y-41589D01*
Y-41089D01*
X-73184Y-40989D01*
X-72808Y-40427D01*
X-72676Y-39764D01*
X-72808Y-39101D01*
X-73184Y-38538D01*
X-73746Y-38162D01*
X-74410Y-38030D01*
D02*
G37*
G36*
Y-49841D02*
X-75073Y-49973D01*
X-75635Y-50349D01*
X-76011Y-50911D01*
X-76143Y-51575D01*
X-76011Y-52238D01*
X-75635Y-52800D01*
Y-53105D01*
X-76011Y-53667D01*
X-76143Y-54331D01*
X-76011Y-54994D01*
X-75635Y-55556D01*
X-75073Y-55932D01*
X-74410Y-56064D01*
X-73746Y-55932D01*
X-73184Y-55556D01*
X-72808Y-54994D01*
X-72676Y-54331D01*
X-72808Y-53667D01*
X-73184Y-53105D01*
Y-52800D01*
X-72808Y-52238D01*
X-72676Y-51575D01*
X-72808Y-50911D01*
X-73184Y-50349D01*
X-73746Y-49973D01*
X-74410Y-49841D01*
D02*
G37*
G36*
X-40945Y-60865D02*
X-41608Y-60997D01*
X-42171Y-61373D01*
X-42546Y-61935D01*
X-42678Y-62598D01*
X-42546Y-63262D01*
X-42171Y-63824D01*
X-41608Y-64200D01*
X-40945Y-64332D01*
X-40282Y-64200D01*
X-39719Y-63824D01*
X-39344Y-63262D01*
X-39212Y-62598D01*
X-39344Y-61935D01*
X-39719Y-61373D01*
X-40282Y-60997D01*
X-40945Y-60865D01*
D02*
G37*
%LPD*%
D138*
X-75984Y-77716D02*
D03*
X-101181D02*
D03*
X64173D02*
D03*
X89370D02*
D03*
D140*
X-106201Y-71654D02*
D03*
X-70965D02*
D03*
X11713D02*
D03*
X-23524D02*
D03*
X94390D02*
D03*
X59153D02*
D03*
D141*
X-64665Y-80866D02*
D03*
X-112500D02*
D03*
X-64665Y-96063D02*
D03*
X-112500Y-95669D02*
D03*
X-29823D02*
D03*
X18012Y-96063D02*
D03*
X-29823Y-80866D02*
D03*
X18012D02*
D03*
X52854Y-95669D02*
D03*
X100689Y-96063D02*
D03*
X52854Y-80866D02*
D03*
X100689D02*
D03*
D142*
X-103150Y91634D02*
D03*
X-77165D02*
D03*
X-33858Y91536D02*
D03*
X-59842D02*
D03*
D144*
X-96850Y-62992D02*
D03*
X103986Y-45669D02*
D03*
X73425Y-35635D02*
D03*
X48705Y-34252D02*
D03*
X66337Y-35635D02*
D03*
X66509Y-18504D02*
D03*
X77936D02*
D03*
X-41069Y-18504D02*
D03*
X-38872Y-5118D02*
D03*
X-73622Y-14173D02*
D03*
X-65973Y-19645D02*
D03*
X-61024Y-24191D02*
D03*
X-86502Y-22047D02*
D03*
X-60630Y-1969D02*
D03*
X-85827Y3937D02*
D03*
Y11811D02*
D03*
X-76069D02*
D03*
X-50394Y-21654D02*
D03*
X-62318Y22835D02*
D03*
X-100000Y26772D02*
D03*
X-100000Y18898D02*
D03*
X-72132Y11811D02*
D03*
X-33858Y-64961D02*
D03*
X-44882Y-65907D02*
D03*
X-120079Y-45276D02*
D03*
Y-5512D02*
D03*
X-30709Y-62205D02*
D03*
X-27165Y-68504D02*
D03*
X-31988Y-74410D02*
D03*
X-70866Y-35433D02*
D03*
X41929Y-39955D02*
D03*
X26772Y-12205D02*
D03*
X-137402Y23228D02*
D03*
X-132677D02*
D03*
X-127953D02*
D03*
X-123228D02*
D03*
X-135039Y20866D02*
D03*
X-130315D02*
D03*
X-125591D02*
D03*
X-135039Y25591D02*
D03*
X-130315D02*
D03*
X-125591D02*
D03*
X-41890Y-9865D02*
D03*
X-64016D02*
D03*
X74410Y22441D02*
D03*
X93071Y15118D02*
D03*
X1575Y18110D02*
D03*
X-5512Y9843D02*
D03*
X-16535Y7480D02*
D03*
X89567Y35236D02*
D03*
X49409D02*
D03*
X77165Y35433D02*
D03*
X78839Y24311D02*
D03*
X-11811Y76772D02*
D03*
X-18898Y84646D02*
D03*
X-3150D02*
D03*
X35827Y87402D02*
D03*
X20472D02*
D03*
X9449D02*
D03*
X-22047D02*
D03*
X-17323D02*
D03*
X-6299D02*
D03*
X-123228Y25591D02*
D03*
X-127953Y20866D02*
D03*
Y25591D02*
D03*
X-130315Y23228D02*
D03*
X-123228Y20866D02*
D03*
X-125591Y23228D02*
D03*
X-132677Y20866D02*
D03*
Y25591D02*
D03*
X-135039Y23228D02*
D03*
X-137402Y20866D02*
D03*
Y25591D02*
D03*
X12598Y18110D02*
D03*
X40945Y7480D02*
D03*
X36220D02*
D03*
X33071D02*
D03*
X28346D02*
D03*
X20472D02*
D03*
X22047Y10236D02*
D03*
X17323Y10236D02*
D03*
X15748Y7480D02*
D03*
X6299D02*
D03*
X-25197D02*
D03*
X-18898Y10236D02*
D03*
X-25197D02*
D03*
X81732Y-52913D02*
D03*
X27165Y-61417D02*
D03*
X44882D02*
D03*
X-32677Y77165D02*
D03*
X-39370Y76378D02*
D03*
X-32677Y64173D02*
D03*
X-44094Y65748D02*
D03*
X-51575Y71260D02*
D03*
X-32677Y51181D02*
D03*
X4724Y-31102D02*
D03*
X7874Y-34252D02*
D03*
X4724Y-37402D02*
D03*
X1575Y-34252D02*
D03*
X14173Y-24803D02*
D03*
Y-43701D02*
D03*
X20472Y-50000D02*
D03*
Y-18504D02*
D03*
X26772Y-56299D02*
D03*
X-4724Y-40551D02*
D03*
X-1575Y-24803D02*
D03*
X14173Y-27953D02*
D03*
X11024Y-43701D02*
D03*
X4724Y-50000D02*
D03*
X20472Y-34252D02*
D03*
X4724Y-18504D02*
D03*
X-94410Y71339D02*
D03*
X64173Y-68504D02*
D03*
X72835Y-68504D02*
D03*
X80709D02*
D03*
X89370D02*
D03*
X-101181Y-68504D02*
D03*
X-92520Y-68504D02*
D03*
X-75984D02*
D03*
X6693Y-68504D02*
D03*
X32913Y-11654D02*
D03*
X-45669Y51181D02*
D03*
X-55905D02*
D03*
X-29291Y-8110D02*
D03*
X-27165Y75197D02*
D03*
X-93701Y49606D02*
D03*
X-88583D02*
D03*
X-69291Y67716D02*
D03*
X-62992Y67323D02*
D03*
X-66535Y63779D02*
D03*
X-62205Y50394D02*
D03*
X-69685D02*
D03*
X-57874Y44094D02*
D03*
X-69685D02*
D03*
X-80709D02*
D03*
Y50394D02*
D03*
X-60236Y32677D02*
D03*
X-96063Y76772D02*
D03*
X-99213D02*
D03*
X-102362D02*
D03*
X-46063Y-43307D02*
D03*
X-89370Y-48031D02*
D03*
X-84252Y-43701D02*
D03*
X-1969Y-68504D02*
D03*
X-96063Y-50000D02*
D03*
X-49213Y-60630D02*
D03*
X-61417Y-64961D02*
D03*
X-74410Y-48425D02*
D03*
X-11024Y-18504D02*
D03*
X-11024Y-34252D02*
D03*
X-46063Y-35433D02*
D03*
X-53937Y-43307D02*
D03*
Y-39370D02*
D03*
X-50000Y-43307D02*
D03*
Y-35433D02*
D03*
X-53937Y-35433D02*
D03*
X-6693Y-61417D02*
D03*
X-30866Y-34409D02*
D03*
X-23386Y-58031D02*
D03*
X-83465Y-60630D02*
D03*
X-65354D02*
D03*
X-84252Y-38976D02*
D03*
X-9843Y-68504D02*
D03*
X-18504D02*
D03*
X-84646D02*
D03*
X-17323Y-12205D02*
D03*
Y-56299D02*
D03*
X-11024Y-50000D02*
D03*
X-4724Y-43701D02*
D03*
Y-24803D02*
D03*
X-50000Y-39370D02*
D03*
X-44488Y-94095D02*
D03*
X-39764Y-75984D02*
D03*
X-74410Y-62598D02*
D03*
Y-45669D02*
D03*
X-46063Y-39370D02*
D03*
X46850Y26772D02*
D03*
X60630Y18110D02*
D03*
X47244Y90945D02*
D03*
X89764Y88976D02*
D03*
X93307Y52362D02*
D03*
X7087Y50000D02*
D03*
X17165Y51417D02*
D03*
X17165Y42756D02*
D03*
M02*
