M48
;Layer_Color=9474304
;FILE_FORMAT=2:5
INCH,LZ
;TYPE=PLATED
T1F00S00C0.00900
T2F00S00C0.01575
T5F00S00C0.03543
T6F00S00C0.05900
;TYPE=NON_PLATED
T7F00S00C0.02362
T8F00S00C0.03740
%
T01
X-0101181Y-0068504
X-009252Y-0068504
X-0084646
X-008189Y-0067323
X-007874
X-0075984Y-0068504
X-007441Y-0062598
Y-0054331
Y-0051575
X-0083465Y-006063
X-009685Y-0062992
X-0096063Y-005
X-0065354Y-006063
X-0061417Y-0064961
X-0049213Y-006063
X-0044882Y-0065907
Y-0079134
X-0044488Y-0094095
X-0039764Y-0075984
X-0031988Y-007441
X-0027165Y-0068504
X-0018504
X-001378Y-0070079
X-0009843Y-0068504
X-0001969Y-0068504
X0006693
X0007874Y-006063
X0004724
X0010236Y-0061811
X0012598Y-0062598
X0027165Y-0061417
X0026772Y-0056299
X0031102Y-0054331
X0032677Y-0063779
X0044882Y-0061417
X0048031Y-0056299
X004685Y-005
X0059055Y-0052353
X0059153Y-0056988
X0062598
X0065354Y-0050787
X006811Y-0064173
X0070079Y-0067323
X0072835Y-0068504
X0080709
X008937
X0100394Y-0056299
X0103937Y-0054331
X0107874
X0081732Y-0052913
X0081732Y-0049449
X0064173Y-0068504
X0037008Y-0083858
X0020472Y-005
X0004724Y-005
X-0011024Y-005
X-0017323Y-0056299
X-0023386Y-0058031
X-0029291Y-0054567
X-0030709Y-0062205
X-0033858Y-0064961
X-0040945Y-0062598
X-0006693Y-0061417
X-0004724Y-004685
Y-0043701
X-0004724Y-0040551
X-0001575
Y-0034252
X0001575
X0007874
X0011024
Y-0040551
X0011024Y-0043701
X0014173
X0017323
X0014173Y-004685
X0004724Y-0040551
Y-0037402
Y-0031102
Y-0027953
X-0001575
X-0001575Y-0024803
X-0004724Y-0024803
X-0007874
X-0004724Y-0021654
X-0001575Y-0018504
X0004724
X0011024
X0014173Y-0021654
Y-0024803
X0017323
X0014173Y-0027953
X0011024
X0020472Y-0034252
X0020472Y-0018504
X0030709
X0032913Y-0011654
X0035433Y-0007874
X0038189
X0040551Y-0009843
X0044882Y-0009523
X0043307Y-0000394
X0040157
X0037008
X0034252
X0033071Y000748
X003622
X0040945
X0028346
X0020472
X0022047Y0010236
X0017323Y0010236
X0015748Y000748
X0006299
X0004724Y0010236
X-0001575
X-0005512Y0009843
X-0016535Y000748
X-0018898Y0010236
X-0025197
Y000748
X-0020472Y001811
X-0027165Y002126
X-0040945
X-0033465Y0029134
X-0020472
X-0016535Y0033268
X-0018504Y0035827
X-0016535Y0038189
Y0047244
X-0013386Y005
X-0011811Y0044882
X0000935Y004503
X-0000787Y0047244
Y005
X0007087Y005
X0017165Y0051417
X0017717Y0054724
X0017165Y0042756
X0023228Y0035827
X0025984Y0034646
X0027559Y0038189
X0023622Y0025197
Y001811
X0028346
X0026378Y0020472
X0012598Y001811
X0001575
X-0000787Y0030709
X-0007087Y-0001969
X-0005512Y-0003937
X-0003937Y-0006299
X-0002362Y-0008661
X-0014961Y-0007874
X-0013386Y-0005512
X-0011811Y-000315
X-0010236Y-0000787
X-0018898Y-000748
X-0017323Y-0012205
X-0029134Y-0011654
X-0029291Y-000811
X-0035408Y-0005118
X-0038872
X-004189Y-0009865
X-003937Y-0015354
X-0041069Y-0018504
X-0024409Y-0018504
X-0011024
X-0011024Y-0034252
X-0007874Y-0043701
X-0030866Y-0034409
Y-0030945
X0010236Y-0006299
X0008661Y-0003937
X0007087Y-0001575
X0019685Y-0000787
X002126Y-000315
X0022835Y-0005512
X0024409Y-0007874
X0028346Y-000748
X0026772Y-0012205
X003937Y-0016535
X0047638Y-0030709
X0048705Y-0034252
X0041929Y-0039955
X0061024Y-0043543
X0059055Y-0048031
X0066337Y-0035635
X0073425
X0077936Y-0018504
X0066509
X0061417Y0009449
X006063Y001811
X0062205Y0025197
X0064173Y0023622
X007441Y0022441
X0078839Y0024311
X0087402
Y002126
X0089606Y0015118
X0093071Y0015118
X0083071Y0014567
X0079921
X006939Y0015453
X0074803Y0008268
X0077165Y0035433
X0089567Y0035236
X0093307Y0052362
X0089764Y0088976
X0047244Y0090945
X0043307Y0085433
X0040157
X0035827Y0087402
X0027559Y0084646
X0023622
X0020472Y0087402
X0012598Y0084646
X0009449Y0087402
X0010236Y0076378
X0011024Y0071654
X001378Y0072835
X0015276Y0066929
X0026772Y0070472
X0030315Y0069291
X0037008Y0076772
X0040157
X0043307
X0049409Y0035236
X0050394Y0026772
X004685
X-0005512Y006811
X-0004724Y0070866
X-0007087Y0072835
X-0011811Y0076772
X-0012992Y0084646
X-001063
X-0008661Y0086221
X-0006299Y0087402
X-000315Y0084646
X-0014961Y0086221
X-0017323Y0087402
X-0018898Y0084646
X-0022047Y0087402
X-002874Y0093307
X-0027165Y0075197
X-0024409Y0076772
X-0032677Y0077165
X-003937Y0076378
X-0032677Y0064173
X-0023622Y0061024
X-0024016Y0053543
X-0032677Y0051181
X-0017717Y0065748
X0108031Y-0039213
X0103986Y-0045669
X-0046063Y-0043307
X-005
X-0053937
Y-003937
Y-0035433
X-005Y-0035433
Y-003937
X-0046063
Y-0035433
X-0050394Y-0021654
X-0061024Y-0024191
Y-0027656
X-0066142Y-0035433
X-0070866
X-007441Y-0039764
Y-0042913
Y-0045669
Y-0048425
X-0084252Y-0043701
Y-0038976
X-0086502Y-0030079
Y-0022047
X-0077756Y-0020079
X-0073622Y-0014173
X-0063937Y-001333
X-0064016Y-0009865
X-0066142Y-0006299
X-005886Y-0005888
X-006063Y-0001969
X-0065973Y-0019645
X-0072132Y0011811
Y0015354
X-0076069
Y0011811
X-0081975Y0015354
X-0085912
X-0085827Y0011811
Y0003937
X-0085827Y0031496
X-0080472Y0040709
X-0080709Y0044094
Y0050394
X-0088583Y0049606
X-0093701
X-0092913Y005748
X-0095276
X-0090551
X-009441Y0071339
X-0096063Y0076772
X-0099213
X-0102362
X-0092717Y0076968
X-0090158Y0077165
X-0087599Y0076968
X-0082284Y0077559
X-0078347Y0077165
X-0072047Y0079134
X-0082677Y008189
X-0085039Y0085039
X-0069291Y0067716
X-0062992Y0067323
X-0066535Y0063779
X-0070472Y0053543
X-0069685Y0050394
Y0044094
X-0065473Y0040827
X-0057874Y0044094
X-0055905Y0051181
X-0062205Y0050394
X-0045669Y0051181
X-0044094Y0065748
X-0051575Y007126
X-0060236Y0032677
X-0062318Y0022835
X-0051968Y002166
X-01Y0018898
X-01Y0026772
X-0123228Y0025591
X-0125591
X-0127953
X-0130315
Y0023228
X-0127953
Y0020866
X-0130315
X-0132677
Y0023228
X-0135039
Y0020866
X-0137402
Y0023228
Y0025591
X-0135039
X-0132677
Y0030709
Y0033071
X-0135039
Y0030709
X-0137402
Y0033071
Y0035433
X-0135039
X-0132677
X-0130315
X-0127953
Y0033071
X-0130315
Y0030709
X-0127953
X-0125591
Y0033071
X-0123228
Y0030709
Y0035433
X-0125591
Y0040551
X-0123228
Y0042913
X-0125591
Y0045276
X-0123228
X-0127953
X-0130315
Y0042913
Y0040551
X-0127953
Y0042913
X-0132677
Y0040551
X-0135039
Y0042913
Y0045276
X-0132677
X-0137402
Y0042913
Y0040551
Y0015748
Y0013386
Y0011024
X-0135039
Y0013386
X-0132677
Y0011024
X-0130315
Y0013386
X-0127953
Y0011024
X-0125591
Y0013386
X-0123228
Y0011024
Y0015748
X-0125591
X-0127953
X-0130315
X-0132677
X-0135039
X-0125591Y0020866
X-0123228
Y0023228
X-0125591
X-0120079Y-0005512
Y-0045276
X-008937Y-0048031
X-0104961Y0052756
X-0104724Y0066142
X-0115354Y0067716
T02
X-0098425Y-008126
X-0095276
X-0091929
X-0093701Y-0077716
X-0090158
X-0087008
X-0083465
X-008189Y-008126
X-007874
X-0085236
X-0015748
X-0012598
X-0009252
X-0011024Y-0077716
X-000748
X-0004331
X-0000787
X0000787Y-008126
X0003937
X-0002559
X0066929
X0070079
X0073425
X0071653Y-0077716
X0075197
X0078346
X008189
X0083464Y-008126
X0086614
X0080118
T05
X-011811Y-0069291
X0106329Y-0069213
T06
X0105236Y0089331
X-0048386Y0005236
T07
X-0102165Y-0073228
X-0075
X-0019488
X0007677
X0063189
X0090354
T08
X-0117323Y0062992
Y0074803
M30
