G04*
G04 #@! TF.GenerationSoftware,Altium Limited,Altium Designer,22.0.2 (36)*
G04*
G04 Layer_Color=32768*
%FSLAX25Y25*%
%MOIN*%
G70*
G04*
G04 #@! TF.SameCoordinates,2161BBB5-3730-4A37-975F-558EB53CE70B*
G04*
G04*
G04 #@! TF.FilePolarity,Positive*
G04*
G01*
G75*
%ADD12C,0.00787*%
%ADD14C,0.00394*%
%ADD17C,0.00500*%
%ADD18C,0.00600*%
%ADD187C,0.00197*%
D12*
X-107874Y104035D02*
X-72441D01*
X-107874Y76476D02*
Y104035D01*
Y76476D02*
X-72441D01*
Y104035D01*
X-92658Y91437D02*
X-87657D01*
X-90158Y88937D02*
Y93937D01*
X66142Y62303D02*
X70079D01*
X68110Y60335D02*
Y64272D01*
X97638Y95768D02*
Y97736D01*
X93701D02*
X97638D01*
X93701D02*
Y115453D01*
X42520D02*
X93701D01*
X42520Y97736D02*
Y115453D01*
X35827Y97736D02*
X42520D01*
X35827Y93799D02*
Y97736D01*
Y26870D02*
Y93799D01*
Y26870D02*
X97638D01*
Y95768D01*
X-46850Y88839D02*
Y93839D01*
X-49350Y91339D02*
X-44350D01*
X-29134Y76378D02*
Y103937D01*
X-64567Y76378D02*
X-29134D01*
X-64567D02*
Y103937D01*
X-29134D01*
D14*
X-106299Y22441D02*
X-79528D01*
X-106299D02*
Y38189D01*
X-79528D01*
Y22441D02*
Y38189D01*
X-92913Y29134D02*
Y31496D01*
X-94095Y30315D02*
X-91732D01*
X105118Y-67323D02*
X107480D01*
X106299Y-68504D02*
Y-66142D01*
X102362Y-72835D02*
Y-61417D01*
Y-72835D02*
X110236D01*
Y-61417D01*
X102362D02*
X110236D01*
X-122077Y-61496D02*
X-114203D01*
Y-72913D02*
Y-61496D01*
X-122077Y-72913D02*
X-114203D01*
X-122077D02*
Y-61496D01*
X-118140Y-68583D02*
Y-66220D01*
X-119321Y-67402D02*
X-116958D01*
X1575Y57874D02*
Y72047D01*
X11811D01*
Y57874D02*
Y72047D01*
X1575Y57874D02*
X11811D01*
X7480Y64961D02*
X9055D01*
X8268Y64173D02*
Y65748D01*
X19291Y72146D02*
Y75886D01*
X17421Y74016D02*
X21161D01*
X15905Y84252D02*
X17953D01*
X16929Y83228D02*
Y85276D01*
X17323Y78445D02*
Y80610D01*
X16240Y79528D02*
X18406D01*
X12500Y81693D02*
X22146D01*
X12500Y77362D02*
X22146D01*
X12500D02*
Y81693D01*
X22146Y77362D02*
Y81693D01*
X28839Y74016D02*
X32579D01*
X30709Y72146D02*
Y75886D01*
X-39764Y-72284D02*
Y-70236D01*
X-40787Y-71260D02*
X-38740D01*
X-59842Y-60532D02*
Y-56791D01*
X-61713Y-58661D02*
X-57972D01*
X-106496Y57677D02*
Y80118D01*
X-129331Y62008D02*
Y75787D01*
X-110965Y51575D02*
Y57677D01*
X-123681Y51575D02*
Y62008D01*
X-110965Y80118D02*
Y86221D01*
X-123681Y75787D02*
Y86221D01*
Y51575D02*
X-110965D01*
X-123681Y86221D02*
X-110965D01*
Y57677D02*
X-106496D01*
X-129331Y62008D02*
X-123681D01*
X-129331Y75787D02*
X-123681D01*
X-110965Y80118D02*
X-106496D01*
X-109685Y-62992D02*
X-107638D01*
X-108661Y-64016D02*
Y-61968D01*
X106299Y-58504D02*
Y-56457D01*
X105276Y-57480D02*
X107323D01*
X7874Y78445D02*
Y80610D01*
X6791Y79528D02*
X8957D01*
X3051Y77362D02*
X12697D01*
X3051Y81693D02*
X12697D01*
Y77362D02*
Y81693D01*
X3051Y77362D02*
Y81693D01*
X7244Y84252D02*
X9291D01*
X8268Y83228D02*
Y85276D01*
X-28346Y-19528D02*
Y-17480D01*
X-29370Y-18504D02*
X-27323D01*
X-38164Y-12205D02*
X-36116D01*
X-37140Y-13228D02*
Y-11181D01*
X-38164Y-18504D02*
X-36116D01*
X-37140Y-19528D02*
Y-17480D01*
Y-8504D02*
Y-6457D01*
X-38164Y-7480D02*
X-36116D01*
X35039Y2461D02*
Y4626D01*
X33957Y3543D02*
X36122D01*
X30217Y1378D02*
X39862D01*
X30217Y5709D02*
X39862D01*
Y1378D02*
Y5709D01*
X30217Y1378D02*
Y5709D01*
X-68110Y-38819D02*
Y-36772D01*
X-69134Y-37795D02*
X-67087D01*
X-20768Y74803D02*
X-18602D01*
X-19685Y73721D02*
Y75886D01*
X-21850Y69980D02*
Y79626D01*
X-17520Y69980D02*
Y79626D01*
X-21850Y69980D02*
X-17520D01*
X-21850Y79626D02*
X-17520D01*
X81988Y9252D02*
Y13583D01*
X72342Y9252D02*
Y13583D01*
Y9252D02*
X81988D01*
X72342Y13583D02*
X81988D01*
X76083Y11417D02*
X78248D01*
X77165Y10335D02*
Y12500D01*
X70472Y22992D02*
Y25039D01*
X69449Y24016D02*
X71496D01*
X80709Y21260D02*
X84646D01*
X82677Y19291D02*
Y23228D01*
X91339Y17087D02*
Y19134D01*
X90315Y18110D02*
X92362D01*
X70177Y18504D02*
X73917D01*
X72047Y16634D02*
Y20374D01*
X54724Y21260D02*
X58661D01*
X56693Y19291D02*
Y23228D01*
X54232Y11614D02*
Y15945D01*
X63878Y11614D02*
Y15945D01*
X54232D02*
X63878D01*
X54232Y11614D02*
X63878D01*
X57972Y13780D02*
X60138D01*
X59055Y12697D02*
Y14862D01*
X48031Y22992D02*
Y25039D01*
X47008Y24016D02*
X49055D01*
X4724Y50000D02*
X7087D01*
X5906Y48819D02*
Y51181D01*
X14567Y43465D02*
Y45512D01*
X13543Y44488D02*
X15590D01*
X-41634Y19094D02*
Y23425D01*
X-51279Y19094D02*
Y23425D01*
Y19094D02*
X-41634D01*
X-51279Y23425D02*
X-41634D01*
X-47539Y21260D02*
X-45374D01*
X-46457Y20177D02*
Y22343D01*
X51575Y-63386D02*
Y-29528D01*
X73228D01*
Y-63386D02*
Y-29528D01*
X51575Y-63386D02*
X73228D01*
X59449Y-46457D02*
X63386D01*
X61417Y-48425D02*
Y-44488D01*
X-93307Y70472D02*
X-87008D01*
X-93307D02*
Y75197D01*
X-87008D01*
Y70472D02*
Y75197D01*
X-90158Y71653D02*
Y74016D01*
X-91339Y72835D02*
X-88976D01*
X-92913Y66240D02*
Y68405D01*
X-93996Y67323D02*
X-91831D01*
X-97736Y65158D02*
X-88091D01*
X-97736Y69488D02*
X-88091D01*
Y65158D02*
Y69488D01*
X-97736Y65158D02*
Y69488D01*
X43799Y-66535D02*
X45965D01*
X44882Y-67618D02*
Y-65453D01*
X42717Y-71358D02*
Y-61713D01*
X47047Y-71358D02*
Y-61713D01*
X42717Y-71358D02*
X47047D01*
X42717Y-61713D02*
X47047D01*
X43799Y-76378D02*
X45965D01*
X44882Y-77461D02*
Y-75295D01*
X42717Y-81201D02*
Y-71555D01*
X47047Y-81201D02*
Y-71555D01*
X42717Y-81201D02*
X47047D01*
X42717Y-71555D02*
X47047D01*
X37402Y-79823D02*
Y-77658D01*
X36319Y-78740D02*
X38484D01*
X32579Y-80905D02*
X42224D01*
X32579Y-76575D02*
X42224D01*
Y-80905D02*
Y-76575D01*
X32579Y-80905D02*
Y-76575D01*
X42520Y-84941D02*
Y-82776D01*
X41437Y-83858D02*
X43602D01*
X37697Y-81693D02*
X47343D01*
X37697Y-86024D02*
X47343D01*
X37697D02*
Y-81693D01*
X47343Y-86024D02*
Y-81693D01*
X2756Y-34252D02*
X6693D01*
X4724Y-36220D02*
Y-32283D01*
X-25984Y-10866D02*
Y-8819D01*
X-27008Y-9843D02*
X-24961D01*
X-117717Y-47638D02*
Y-43701D01*
X-119685Y-45669D02*
X-115748D01*
X-125591Y-36811D02*
X-111811D01*
X-125591Y-54528D02*
Y-36811D01*
Y-54528D02*
X-111811D01*
Y-36811D01*
X-117717Y-7480D02*
Y-3543D01*
X-119685Y-5512D02*
X-115748D01*
X-125591Y3347D02*
X-111811D01*
X-125591Y-14370D02*
Y3347D01*
Y-14370D02*
X-111811D01*
Y3347D01*
X28346Y-66378D02*
Y-64331D01*
X27323Y-65354D02*
X29370D01*
X45827Y-45276D02*
X47874D01*
X46850Y-46299D02*
Y-44252D01*
X14567Y52126D02*
Y54173D01*
X13543Y53150D02*
X15590D01*
X-36909Y47638D02*
X-33169D01*
X-35039Y45768D02*
Y49508D01*
X-49449Y52362D02*
X-47402D01*
X-48425Y51339D02*
Y53386D01*
X-44331Y52362D02*
X-42283D01*
X-43307Y51339D02*
Y53386D01*
X-44331Y61024D02*
X-42283D01*
X-43307Y60000D02*
Y62047D01*
X-37008Y71811D02*
Y73858D01*
X-38032Y72835D02*
X-35984D01*
X-28346Y71811D02*
Y73858D01*
X-29370Y72835D02*
X-27323D01*
X-49606Y69685D02*
X-43307D01*
X-49606D02*
Y74410D01*
X-43307D01*
Y69685D02*
Y74410D01*
X-46457Y70866D02*
Y73228D01*
X-47638Y72047D02*
X-45276D01*
X-49213Y60728D02*
Y64468D01*
X-51083Y62599D02*
X-47343D01*
X-70374Y88976D02*
X-66634D01*
X-68504Y87106D02*
Y90847D01*
X-55905Y66831D02*
Y70571D01*
X-57776Y68701D02*
X-54035D01*
X-70669Y82382D02*
X-66339D01*
X-70669Y72736D02*
X-66339D01*
Y82382D01*
X-70669Y72736D02*
Y82382D01*
X-68504Y76476D02*
Y78642D01*
X-69587Y77559D02*
X-67421D01*
X32579Y-76181D02*
Y-71850D01*
X42224Y-76181D02*
Y-71850D01*
X32579D02*
X42224D01*
X32579Y-76181D02*
X42224D01*
X36319Y-74016D02*
X38484D01*
X37402Y-75098D02*
Y-72933D01*
X-53051Y57284D02*
Y61614D01*
X-62697Y57284D02*
Y61614D01*
Y57284D02*
X-53051D01*
X-62697Y61614D02*
X-53051D01*
X-58957Y59449D02*
X-56791D01*
X-57874Y58366D02*
Y60532D01*
X-42618Y65551D02*
Y69882D01*
X-32972Y65551D02*
Y69882D01*
X-42618D02*
X-32972D01*
X-42618Y65551D02*
X-32972D01*
X-38878Y67717D02*
X-36713D01*
X-37795Y66634D02*
Y68799D01*
X-22736Y65551D02*
Y69882D01*
X-32382Y65551D02*
Y69882D01*
Y65551D02*
X-22736D01*
X-32382Y69882D02*
X-22736D01*
X-28642Y67717D02*
X-26476D01*
X-27559Y66634D02*
Y68799D01*
X-59842Y49213D02*
X-55905D01*
X-57874Y47244D02*
Y51181D01*
X-38583Y51968D02*
Y63780D01*
X-26772Y51968D02*
Y63780D01*
X-38583D02*
X-26772D01*
X-38583Y51968D02*
X-26772D01*
X-32677Y55906D02*
Y59843D01*
X-34646Y57874D02*
X-30709D01*
X-102559Y74902D02*
X-98228D01*
X-102559Y65256D02*
X-98228D01*
Y74902D01*
X-102559Y65256D02*
Y74902D01*
X-100394Y68996D02*
Y71161D01*
X-101476Y70079D02*
X-99311D01*
X34803Y-13386D02*
X36850D01*
X35827Y-14410D02*
Y-12362D01*
X30807Y12402D02*
Y16732D01*
X21161Y12402D02*
Y16732D01*
Y12402D02*
X30807D01*
X21161Y16732D02*
X30807D01*
X24902Y14567D02*
X27067D01*
X25984Y13484D02*
Y15650D01*
X30020Y82677D02*
X33760D01*
X31890Y80807D02*
Y84547D01*
X-133858Y48031D02*
X-117126D01*
Y8268D02*
Y48031D01*
X-133858Y8268D02*
X-117126D01*
X-133858D02*
Y48031D01*
X-125984Y26181D02*
Y30118D01*
X-127953Y28150D02*
X-124016D01*
X-49213Y-67323D02*
Y-64173D01*
X-50787Y-65748D02*
X-47638D01*
X-55512Y-75591D02*
X-42913D01*
Y-55905D01*
X-55512D02*
X-42913D01*
X-55512Y-75591D02*
Y-55905D01*
X-50000Y-40870D02*
Y-37870D01*
X-51500Y-39370D02*
X-48500D01*
X-34488Y-32677D02*
X-32441D01*
X-33465Y-33701D02*
Y-31654D01*
X-68110Y-51968D02*
Y-48031D01*
X-70079Y-50000D02*
X-66142D01*
X-79528Y-44724D02*
Y-42677D01*
X-80551Y-43701D02*
X-78504D01*
X-71890Y-31102D02*
X-69842D01*
X-70866Y-32126D02*
Y-30079D01*
X-67165Y-29921D02*
X-65118D01*
X-66142Y-30945D02*
Y-28898D01*
X-77165Y-31496D02*
Y-27559D01*
X-79134Y-29528D02*
X-75197D01*
X-71890Y-22441D02*
X-69842D01*
X-70866Y-23465D02*
Y-21417D01*
X-54724Y-23858D02*
Y-21811D01*
X-55748Y-22835D02*
X-53701D01*
X-56693Y-16535D02*
X-52756D01*
X-54724Y-18504D02*
Y-14567D01*
X-79528Y-40000D02*
Y-37953D01*
X-80551Y-38976D02*
X-78504D01*
X-50000Y-95177D02*
Y-93012D01*
X-51083Y-94095D02*
X-48917D01*
X-54823Y-91929D02*
X-45177D01*
X-54823Y-96260D02*
X-45177D01*
X-54823D02*
Y-91929D01*
X-45177Y-96260D02*
Y-91929D01*
X-40059Y-91142D02*
Y-86811D01*
X-49705Y-91142D02*
Y-86811D01*
Y-91142D02*
X-40059D01*
X-49705Y-86811D02*
X-40059D01*
X-45965Y-88976D02*
X-43799D01*
X-44882Y-90059D02*
Y-87894D01*
X-53445Y-86614D02*
X-51279D01*
X-52362Y-87697D02*
Y-85532D01*
X-50197Y-91437D02*
Y-81791D01*
X-54528Y-91437D02*
Y-81791D01*
X-50197D01*
X-54528Y-91437D02*
X-50197D01*
X-44882Y-85335D02*
Y-83169D01*
X-45965Y-84252D02*
X-43799D01*
X-49705Y-82087D02*
X-40059D01*
X-49705Y-86417D02*
X-40059D01*
X-49705D02*
Y-82087D01*
X-40059Y-86417D02*
Y-82087D01*
X-50000Y-80216D02*
Y-78051D01*
X-51083Y-79134D02*
X-48917D01*
X-54823Y-81299D02*
X-45177D01*
X-54823Y-76968D02*
X-45177D01*
Y-81299D02*
Y-76968D01*
X-54823Y-81299D02*
Y-76968D01*
X-26378Y-57323D02*
Y-55276D01*
X-27402Y-56299D02*
X-25354D01*
D17*
X0Y43307D02*
Y56693D01*
X11811Y43307D02*
Y56693D01*
X0Y43307D02*
X11811D01*
X0Y56693D02*
X11811D01*
X38681Y-48130D02*
Y-45768D01*
X37500Y-46949D02*
X39862D01*
X34744Y-52067D02*
X42618D01*
Y-41831D01*
X34744D02*
X42618D01*
X34744Y-52067D02*
Y-41831D01*
D18*
X-63450Y-52820D02*
X-36550D01*
X-63450D02*
Y-25920D01*
X-36550D01*
Y-52820D02*
Y-25920D01*
X-94635Y36070D02*
Y33785D01*
X-94778Y33356D01*
X-94920Y33214D01*
X-95206Y33071D01*
X-95492D01*
X-95777Y33214D01*
X-95920Y33356D01*
X-96063Y33785D01*
Y34071D01*
X-93721Y35356D02*
Y35499D01*
X-93578Y35785D01*
X-93435Y35927D01*
X-93149Y36070D01*
X-92578D01*
X-92292Y35927D01*
X-92150Y35785D01*
X-92007Y35499D01*
Y35213D01*
X-92150Y34928D01*
X-92435Y34499D01*
X-93863Y33071D01*
X-91864D01*
X-89479Y35642D02*
X-89622Y35927D01*
X-90050Y36070D01*
X-90336D01*
X-90764Y35927D01*
X-91050Y35499D01*
X-91193Y34785D01*
Y34071D01*
X-91050Y33499D01*
X-90764Y33214D01*
X-90336Y33071D01*
X-90193D01*
X-89764Y33214D01*
X-89479Y33499D01*
X-89336Y33928D01*
Y34071D01*
X-89479Y34499D01*
X-89764Y34785D01*
X-90193Y34928D01*
X-90336D01*
X-90764Y34785D01*
X-91050Y34499D01*
X-91193Y34071D01*
X3791Y66385D02*
Y64100D01*
X3648Y63671D01*
X3505Y63529D01*
X3219Y63386D01*
X2933D01*
X2648Y63529D01*
X2505Y63671D01*
X2362Y64100D01*
Y64386D01*
X6276Y66385D02*
X4847D01*
X4705Y65100D01*
X4847Y65243D01*
X5276Y65385D01*
X5704D01*
X6133Y65243D01*
X6419Y64957D01*
X6561Y64528D01*
Y64243D01*
X6419Y63814D01*
X6133Y63529D01*
X5704Y63386D01*
X5276D01*
X4847Y63529D01*
X4705Y63671D01*
X4562Y63957D01*
X-109372Y-72661D02*
X-109658Y-72804D01*
X-109943Y-73089D01*
X-110086Y-73375D01*
Y-73946D01*
X-109943Y-74232D01*
X-109658Y-74518D01*
X-109372Y-74660D01*
X-108943Y-74803D01*
X-108229D01*
X-107801Y-74660D01*
X-107515Y-74518D01*
X-107229Y-74232D01*
X-107087Y-73946D01*
Y-73375D01*
X-107229Y-73089D01*
X-107515Y-72804D01*
X-107801Y-72661D01*
X-109658Y-70104D02*
X-109943Y-70247D01*
X-110086Y-70675D01*
Y-70961D01*
X-109943Y-71390D01*
X-109515Y-71675D01*
X-108800Y-71818D01*
X-108086D01*
X-107515Y-71675D01*
X-107229Y-71390D01*
X-107087Y-70961D01*
Y-70818D01*
X-107229Y-70390D01*
X-107515Y-70104D01*
X-107944Y-69961D01*
X-108086D01*
X-108515Y-70104D01*
X-108800Y-70390D01*
X-108943Y-70818D01*
Y-70961D01*
X-108800Y-71390D01*
X-108515Y-71675D01*
X-108086Y-71818D01*
X-110086Y-67590D02*
Y-69019D01*
X-108800Y-69161D01*
X-108943Y-69019D01*
X-109086Y-68590D01*
Y-68162D01*
X-108943Y-67733D01*
X-108658Y-67448D01*
X-108229Y-67305D01*
X-107944D01*
X-107515Y-67448D01*
X-107229Y-67733D01*
X-107087Y-68162D01*
Y-68590D01*
X-107229Y-69019D01*
X-107372Y-69161D01*
X-107658Y-69304D01*
X104505Y-52439D02*
X104362Y-52153D01*
X104076Y-51868D01*
X103790Y-51725D01*
X103219D01*
X102934Y-51868D01*
X102648Y-52153D01*
X102505Y-52439D01*
X102362Y-52868D01*
Y-53582D01*
X102505Y-54010D01*
X102648Y-54296D01*
X102934Y-54582D01*
X103219Y-54724D01*
X103790D01*
X104076Y-54582D01*
X104362Y-54296D01*
X104505Y-54010D01*
X107061Y-52153D02*
X106918Y-51868D01*
X106490Y-51725D01*
X106204D01*
X105776Y-51868D01*
X105490Y-52296D01*
X105347Y-53010D01*
Y-53725D01*
X105490Y-54296D01*
X105776Y-54582D01*
X106204Y-54724D01*
X106347D01*
X106775Y-54582D01*
X107061Y-54296D01*
X107204Y-53867D01*
Y-53725D01*
X107061Y-53296D01*
X106775Y-53010D01*
X106347Y-52868D01*
X106204D01*
X105776Y-53010D01*
X105490Y-53296D01*
X105347Y-53725D01*
X109289Y-51725D02*
X107861Y-53725D01*
X110003D01*
X109289Y-51725D02*
Y-54724D01*
X31496Y9692D02*
Y6693D01*
Y9692D02*
X32781D01*
X33210Y9549D01*
X33353Y9407D01*
X33496Y9121D01*
Y8835D01*
X33353Y8550D01*
X33210Y8407D01*
X32781Y8264D01*
X31496D01*
X32496D02*
X33496Y6693D01*
X34453Y9692D02*
X36024D01*
X35167Y8550D01*
X35595D01*
X35881Y8407D01*
X36024Y8264D01*
X36167Y7835D01*
Y7550D01*
X36024Y7121D01*
X35738Y6836D01*
X35309Y6693D01*
X34881D01*
X34453Y6836D01*
X34310Y6979D01*
X34167Y7264D01*
X38266Y9692D02*
X36838Y7693D01*
X38980D01*
X38266Y9692D02*
Y6693D01*
X-69905Y-40235D02*
X-70048Y-39949D01*
X-70333Y-39663D01*
X-70619Y-39520D01*
X-71190D01*
X-71476Y-39663D01*
X-71762Y-39949D01*
X-71904Y-40235D01*
X-72047Y-40663D01*
Y-41377D01*
X-71904Y-41806D01*
X-71762Y-42091D01*
X-71476Y-42377D01*
X-71190Y-42520D01*
X-70619D01*
X-70333Y-42377D01*
X-70048Y-42091D01*
X-69905Y-41806D01*
X-67348Y-39949D02*
X-67491Y-39663D01*
X-67920Y-39520D01*
X-68205D01*
X-68634Y-39663D01*
X-68919Y-40092D01*
X-69062Y-40806D01*
Y-41520D01*
X-68919Y-42091D01*
X-68634Y-42377D01*
X-68205Y-42520D01*
X-68062D01*
X-67634Y-42377D01*
X-67348Y-42091D01*
X-67205Y-41663D01*
Y-41520D01*
X-67348Y-41091D01*
X-67634Y-40806D01*
X-68062Y-40663D01*
X-68205D01*
X-68634Y-40806D01*
X-68919Y-41091D01*
X-69062Y-41520D01*
X-66263Y-39520D02*
X-64692D01*
X-65549Y-40663D01*
X-65120D01*
X-64834Y-40806D01*
X-64692Y-40949D01*
X-64549Y-41377D01*
Y-41663D01*
X-64692Y-42091D01*
X-64977Y-42377D01*
X-65406Y-42520D01*
X-65834D01*
X-66263Y-42377D01*
X-66406Y-42234D01*
X-66548Y-41948D01*
X-119654Y70287D02*
X-119940Y70573D01*
X-120368Y70716D01*
X-120939D01*
X-121368Y70573D01*
X-121653Y70287D01*
Y70002D01*
X-121511Y69716D01*
X-121368Y69573D01*
X-121082Y69430D01*
X-120225Y69145D01*
X-119940Y69002D01*
X-119797Y68859D01*
X-119654Y68573D01*
Y68145D01*
X-119940Y67859D01*
X-120368Y67716D01*
X-120939D01*
X-121368Y67859D01*
X-121653Y68145D01*
X-118983Y70716D02*
X-118269Y67716D01*
X-117554Y70716D02*
X-118269Y67716D01*
X-117554Y70716D02*
X-116840Y67716D01*
X-116126Y70716D02*
X-116840Y67716D01*
X-115241Y70716D02*
X-113670D01*
X-114526Y69573D01*
X-114098D01*
X-113812Y69430D01*
X-113670Y69288D01*
X-113527Y68859D01*
Y68573D01*
X-113670Y68145D01*
X-113955Y67859D01*
X-114384Y67716D01*
X-114812D01*
X-115241Y67859D01*
X-115384Y68002D01*
X-115526Y68288D01*
X-16779Y70866D02*
X-13780D01*
X-16779D02*
Y72152D01*
X-16636Y72580D01*
X-16493Y72723D01*
X-16208Y72866D01*
X-15922D01*
X-15636Y72723D01*
X-15494Y72580D01*
X-15351Y72152D01*
Y70866D01*
Y71866D02*
X-13780Y72866D01*
X-16065Y73680D02*
X-16208D01*
X-16493Y73823D01*
X-16636Y73966D01*
X-16779Y74251D01*
Y74822D01*
X-16636Y75108D01*
X-16493Y75251D01*
X-16208Y75394D01*
X-15922D01*
X-15636Y75251D01*
X-15208Y74965D01*
X-13780Y73537D01*
Y75537D01*
X-16779Y76922D02*
X-16636Y76494D01*
X-16350Y76351D01*
X-16065D01*
X-15779Y76494D01*
X-15636Y76779D01*
X-15494Y77350D01*
X-15351Y77779D01*
X-15065Y78065D01*
X-14779Y78207D01*
X-14351D01*
X-14065Y78065D01*
X-13922Y77922D01*
X-13780Y77493D01*
Y76922D01*
X-13922Y76494D01*
X-14065Y76351D01*
X-14351Y76208D01*
X-14779D01*
X-15065Y76351D01*
X-15351Y76636D01*
X-15494Y77065D01*
X-15636Y77636D01*
X-15779Y77922D01*
X-16065Y78065D01*
X-16350D01*
X-16636Y77922D01*
X-16779Y77493D01*
Y76922D01*
X-128740Y34495D02*
Y31496D01*
Y34495D02*
X-127455D01*
X-127026Y34353D01*
X-126883Y34210D01*
X-126741Y33924D01*
Y33639D01*
X-126883Y33353D01*
X-127026Y33210D01*
X-127455Y33067D01*
X-128740D02*
X-127455D01*
X-127026Y32924D01*
X-126883Y32781D01*
X-126741Y32496D01*
Y32067D01*
X-126883Y31782D01*
X-127026Y31639D01*
X-127455Y31496D01*
X-128740D01*
X-125069Y34495D02*
Y31496D01*
X-126069Y34495D02*
X-124070D01*
X-123713Y33924D02*
X-123427Y34067D01*
X-122998Y34495D01*
Y31496D01*
X3543Y55362D02*
Y53219D01*
X3686Y52791D01*
X3972Y52505D01*
X4400Y52362D01*
X4686D01*
X5114Y52505D01*
X5400Y52791D01*
X5543Y53219D01*
Y55362D01*
X7800D02*
X6371Y53362D01*
X8514D01*
X7800Y55362D02*
Y52362D01*
X18187Y42694D02*
X17902Y42551D01*
X17616Y42265D01*
X17473Y41980D01*
Y41408D01*
X17616Y41122D01*
X17902Y40837D01*
X18187Y40694D01*
X18616Y40551D01*
X19330D01*
X19758Y40694D01*
X20044Y40837D01*
X20330Y41122D01*
X20472Y41408D01*
Y41980D01*
X20330Y42265D01*
X20044Y42551D01*
X19758Y42694D01*
X17473Y43822D02*
Y45393D01*
X18616Y44536D01*
Y44965D01*
X18758Y45250D01*
X18901Y45393D01*
X19330Y45536D01*
X19615D01*
X20044Y45393D01*
X20330Y45107D01*
X20472Y44679D01*
Y44250D01*
X20330Y43822D01*
X20187Y43679D01*
X19901Y43536D01*
X18473Y48064D02*
X18901Y47921D01*
X19187Y47635D01*
X19330Y47207D01*
Y47064D01*
X19187Y46636D01*
X18901Y46350D01*
X18473Y46207D01*
X18330D01*
X17902Y46350D01*
X17616Y46636D01*
X17473Y47064D01*
Y47207D01*
X17616Y47635D01*
X17902Y47921D01*
X18473Y48064D01*
X19187D01*
X19901Y47921D01*
X20330Y47635D01*
X20472Y47207D01*
Y46921D01*
X20330Y46493D01*
X20044Y46350D01*
X-122047Y-73772D02*
Y-76772D01*
Y-73772D02*
X-120905Y-76772D01*
X-119762Y-73772D02*
X-120905Y-76772D01*
X-119762Y-73772D02*
Y-76772D01*
X-118905Y-73772D02*
Y-76772D01*
X-116905Y-73772D02*
X-118905Y-75772D01*
X-118191Y-75058D02*
X-116905Y-76772D01*
X-116091Y-74486D02*
Y-74344D01*
X-115949Y-74058D01*
X-115806Y-73915D01*
X-115520Y-73772D01*
X-114949D01*
X-114663Y-73915D01*
X-114520Y-74058D01*
X-114377Y-74344D01*
Y-74629D01*
X-114520Y-74915D01*
X-114806Y-75343D01*
X-116234Y-76772D01*
X-114235D01*
X103150Y-73772D02*
Y-76772D01*
Y-73772D02*
X104292Y-76772D01*
X105435Y-73772D02*
X104292Y-76772D01*
X105435Y-73772D02*
Y-76772D01*
X106292Y-73772D02*
Y-76772D01*
X108291Y-73772D02*
X106292Y-75772D01*
X107006Y-75058D02*
X108291Y-76772D01*
X108963Y-74344D02*
X109248Y-74201D01*
X109677Y-73772D01*
Y-76772D01*
X-23819Y-17079D02*
Y-20079D01*
Y-17079D02*
X-21962D01*
X-23819Y-18508D02*
X-22676D01*
X-21619Y-17079D02*
Y-20079D01*
Y-17079D02*
X-20334D01*
X-19905Y-17222D01*
X-19763Y-17365D01*
X-19620Y-17651D01*
Y-17936D01*
X-19763Y-18222D01*
X-19905Y-18365D01*
X-20334Y-18508D01*
X-21619D02*
X-20334D01*
X-19905Y-18651D01*
X-19763Y-18793D01*
X-19620Y-19079D01*
Y-19507D01*
X-19763Y-19793D01*
X-19905Y-19936D01*
X-20334Y-20079D01*
X-21619D01*
X-18948Y-17651D02*
X-18663Y-17508D01*
X-18234Y-17079D01*
Y-20079D01*
X37008Y-53300D02*
X38151Y-54728D01*
Y-56299D01*
X39293Y-53300D02*
X38151Y-54728D01*
X39679Y-53871D02*
X39964Y-53728D01*
X40393Y-53300D01*
Y-56299D01*
X-43232Y-6770D02*
X-43374Y-6484D01*
X-43660Y-6199D01*
X-43946Y-6056D01*
X-44517D01*
X-44803Y-6199D01*
X-45088Y-6484D01*
X-45231Y-6770D01*
X-45374Y-7198D01*
Y-7913D01*
X-45231Y-8341D01*
X-45088Y-8627D01*
X-44803Y-8912D01*
X-44517Y-9055D01*
X-43946D01*
X-43660Y-8912D01*
X-43374Y-8627D01*
X-43232Y-8341D01*
X-42389Y-6627D02*
X-42103Y-6484D01*
X-41675Y-6056D01*
Y-9055D01*
X-44314Y-11494D02*
X-44457Y-11209D01*
X-44743Y-10923D01*
X-45028Y-10780D01*
X-45600D01*
X-45885Y-10923D01*
X-46171Y-11209D01*
X-46314Y-11494D01*
X-46457Y-11923D01*
Y-12637D01*
X-46314Y-13065D01*
X-46171Y-13351D01*
X-45885Y-13637D01*
X-45600Y-13780D01*
X-45028D01*
X-44743Y-13637D01*
X-44457Y-13351D01*
X-44314Y-13065D01*
X-43329Y-11494D02*
Y-11351D01*
X-43186Y-11066D01*
X-43043Y-10923D01*
X-42757Y-10780D01*
X-42186D01*
X-41901Y-10923D01*
X-41758Y-11066D01*
X-41615Y-11351D01*
Y-11637D01*
X-41758Y-11923D01*
X-42043Y-12351D01*
X-43472Y-13780D01*
X-41472D01*
X-44314Y-17794D02*
X-44457Y-17508D01*
X-44743Y-17222D01*
X-45028Y-17079D01*
X-45600D01*
X-45885Y-17222D01*
X-46171Y-17508D01*
X-46314Y-17794D01*
X-46457Y-18222D01*
Y-18936D01*
X-46314Y-19365D01*
X-46171Y-19650D01*
X-45885Y-19936D01*
X-45600Y-20079D01*
X-45028D01*
X-44743Y-19936D01*
X-44457Y-19650D01*
X-44314Y-19365D01*
X-43186Y-17079D02*
X-41615D01*
X-42472Y-18222D01*
X-42043D01*
X-41758Y-18365D01*
X-41615Y-18508D01*
X-41472Y-18936D01*
Y-19222D01*
X-41615Y-19650D01*
X-41901Y-19936D01*
X-42329Y-20079D01*
X-42757D01*
X-43186Y-19936D01*
X-43329Y-19793D01*
X-43472Y-19507D01*
X-26891Y-2976D02*
X-27177Y-3118D01*
X-27463Y-3404D01*
X-27606Y-3690D01*
Y-4261D01*
X-27463Y-4547D01*
X-27177Y-4832D01*
X-26891Y-4975D01*
X-26463Y-5118D01*
X-25749D01*
X-25320Y-4975D01*
X-25035Y-4832D01*
X-24749Y-4547D01*
X-24606Y-4261D01*
Y-3690D01*
X-24749Y-3404D01*
X-25035Y-3118D01*
X-25320Y-2976D01*
X-27606Y-705D02*
X-25606Y-2133D01*
Y9D01*
X-27606Y-705D02*
X-24606D01*
X21040Y-64644D02*
X20897Y-64358D01*
X20612Y-64073D01*
X20326Y-63930D01*
X19755D01*
X19469Y-64073D01*
X19183Y-64358D01*
X19040Y-64644D01*
X18898Y-65072D01*
Y-65786D01*
X19040Y-66215D01*
X19183Y-66501D01*
X19469Y-66786D01*
X19755Y-66929D01*
X20326D01*
X20612Y-66786D01*
X20897Y-66501D01*
X21040Y-66215D01*
X23597Y-63930D02*
X22168D01*
X22026Y-65215D01*
X22168Y-65072D01*
X22597Y-64930D01*
X23025D01*
X23454Y-65072D01*
X23739Y-65358D01*
X23882Y-65786D01*
Y-66072D01*
X23739Y-66501D01*
X23454Y-66786D01*
X23025Y-66929D01*
X22597D01*
X22168Y-66786D01*
X22026Y-66644D01*
X21883Y-66358D01*
X35215Y-6677D02*
X34929Y-6819D01*
X34644Y-7105D01*
X34501Y-7391D01*
Y-7962D01*
X34644Y-8248D01*
X34929Y-8533D01*
X35215Y-8676D01*
X35643Y-8819D01*
X36357D01*
X36786Y-8676D01*
X37071Y-8533D01*
X37357Y-8248D01*
X37500Y-7962D01*
Y-7391D01*
X37357Y-7105D01*
X37071Y-6819D01*
X36786Y-6677D01*
X34501Y-5120D02*
X34644Y-5548D01*
X34929Y-5691D01*
X35215D01*
X35500Y-5548D01*
X35643Y-5263D01*
X35786Y-4691D01*
X35929Y-4263D01*
X36215Y-3977D01*
X36500Y-3834D01*
X36929D01*
X37214Y-3977D01*
X37357Y-4120D01*
X37500Y-4548D01*
Y-5120D01*
X37357Y-5548D01*
X37214Y-5691D01*
X36929Y-5834D01*
X36500D01*
X36215Y-5691D01*
X35929Y-5405D01*
X35786Y-4977D01*
X35643Y-4406D01*
X35500Y-4120D01*
X35215Y-3977D01*
X34929D01*
X34644Y-4120D01*
X34501Y-4548D01*
Y-5120D01*
X46140Y-38409D02*
X45854Y-38552D01*
X45569Y-38837D01*
X45426Y-39123D01*
Y-39694D01*
X45569Y-39980D01*
X45854Y-40266D01*
X46140Y-40408D01*
X46569Y-40551D01*
X47283D01*
X47711Y-40408D01*
X47997Y-40266D01*
X48282Y-39980D01*
X48425Y-39694D01*
Y-39123D01*
X48282Y-38837D01*
X47997Y-38552D01*
X47711Y-38409D01*
X45997Y-37566D02*
X45854Y-37280D01*
X45426Y-36852D01*
X48425D01*
X45426Y-33367D02*
X48425Y-34795D01*
X45426Y-35367D02*
Y-33367D01*
X18187Y51749D02*
X17902Y51606D01*
X17616Y51320D01*
X17473Y51035D01*
Y50463D01*
X17616Y50178D01*
X17902Y49892D01*
X18187Y49749D01*
X18616Y49606D01*
X19330D01*
X19758Y49749D01*
X20044Y49892D01*
X20330Y50178D01*
X20472Y50463D01*
Y51035D01*
X20330Y51320D01*
X20044Y51606D01*
X19758Y51749D01*
X18044Y52591D02*
X17902Y52877D01*
X17473Y53306D01*
X20472D01*
X17473Y55505D02*
X17616Y55077D01*
X17902Y54934D01*
X18187D01*
X18473Y55077D01*
X18616Y55362D01*
X18758Y55933D01*
X18901Y56362D01*
X19187Y56648D01*
X19473Y56791D01*
X19901D01*
X20187Y56648D01*
X20330Y56505D01*
X20472Y56076D01*
Y55505D01*
X20330Y55077D01*
X20187Y54934D01*
X19901Y54791D01*
X19473D01*
X19187Y54934D01*
X18901Y55219D01*
X18758Y55648D01*
X18616Y56219D01*
X18473Y56505D01*
X18187Y56648D01*
X17902D01*
X17616Y56505D01*
X17473Y56076D01*
Y55505D01*
X-1795Y84962D02*
X-1937Y85248D01*
X-2223Y85534D01*
X-2509Y85676D01*
X-3080D01*
X-3366Y85534D01*
X-3651Y85248D01*
X-3794Y84962D01*
X-3937Y84534D01*
Y83820D01*
X-3794Y83391D01*
X-3651Y83106D01*
X-3366Y82820D01*
X-3080Y82677D01*
X-2509D01*
X-2223Y82820D01*
X-1937Y83106D01*
X-1795Y83391D01*
X476Y85676D02*
X-952Y83677D01*
X1190D01*
X476Y85676D02*
Y82677D01*
X3718Y85676D02*
X2290Y82677D01*
X1719Y85676D02*
X3718D01*
X23402Y84962D02*
X23259Y85248D01*
X22974Y85534D01*
X22688Y85676D01*
X22117D01*
X21831Y85534D01*
X21545Y85248D01*
X21403Y84962D01*
X21260Y84534D01*
Y83820D01*
X21403Y83391D01*
X21545Y83106D01*
X21831Y82820D01*
X22117Y82677D01*
X22688D01*
X22974Y82820D01*
X23259Y83106D01*
X23402Y83391D01*
X25673Y85676D02*
X24245Y83677D01*
X26387D01*
X25673Y85676D02*
Y82677D01*
X27630Y85676D02*
X27201Y85534D01*
X27059Y85248D01*
Y84962D01*
X27201Y84677D01*
X27487Y84534D01*
X28058Y84391D01*
X28487Y84248D01*
X28773Y83963D01*
X28915Y83677D01*
Y83249D01*
X28773Y82963D01*
X28630Y82820D01*
X28201Y82677D01*
X27630D01*
X27201Y82820D01*
X27059Y82963D01*
X26916Y83249D01*
Y83677D01*
X27059Y83963D01*
X27344Y84248D01*
X27773Y84391D01*
X28344Y84534D01*
X28630Y84677D01*
X28773Y84962D01*
Y85248D01*
X28630Y85534D01*
X28201Y85676D01*
X27630D01*
X68678Y29155D02*
X68535Y29441D01*
X68249Y29727D01*
X67964Y29869D01*
X67392D01*
X67107Y29727D01*
X66821Y29441D01*
X66678Y29155D01*
X66535Y28727D01*
Y28013D01*
X66678Y27584D01*
X66821Y27299D01*
X67107Y27013D01*
X67392Y26870D01*
X67964D01*
X68249Y27013D01*
X68535Y27299D01*
X68678Y27584D01*
X71234Y29869D02*
X69806D01*
X69663Y28584D01*
X69806Y28727D01*
X70235Y28870D01*
X70663D01*
X71092Y28727D01*
X71377Y28441D01*
X71520Y28013D01*
Y27727D01*
X71377Y27299D01*
X71092Y27013D01*
X70663Y26870D01*
X70235D01*
X69806Y27013D01*
X69663Y27156D01*
X69520Y27441D01*
X73905Y29441D02*
X73763Y29727D01*
X73334Y29869D01*
X73048D01*
X72620Y29727D01*
X72334Y29298D01*
X72191Y28584D01*
Y27870D01*
X72334Y27299D01*
X72620Y27013D01*
X73048Y26870D01*
X73191D01*
X73620Y27013D01*
X73905Y27299D01*
X74048Y27727D01*
Y27870D01*
X73905Y28298D01*
X73620Y28584D01*
X73191Y28727D01*
X73048D01*
X72620Y28584D01*
X72334Y28298D01*
X72191Y27870D01*
X89938Y23151D02*
X89795Y23437D01*
X89509Y23723D01*
X89223Y23866D01*
X88652D01*
X88367Y23723D01*
X88081Y23437D01*
X87938Y23151D01*
X87795Y22723D01*
Y22009D01*
X87938Y21580D01*
X88081Y21295D01*
X88367Y21009D01*
X88652Y20866D01*
X89223D01*
X89509Y21009D01*
X89795Y21295D01*
X89938Y21580D01*
X92494Y23866D02*
X91066D01*
X90923Y22580D01*
X91066Y22723D01*
X91495Y22866D01*
X91923D01*
X92351Y22723D01*
X92637Y22437D01*
X92780Y22009D01*
Y21723D01*
X92637Y21295D01*
X92351Y21009D01*
X91923Y20866D01*
X91495D01*
X91066Y21009D01*
X90923Y21152D01*
X90780Y21438D01*
X95451Y23866D02*
X94023Y20866D01*
X93451Y23866D02*
X95451D01*
X65135Y19608D02*
X64992Y19894D01*
X64706Y20179D01*
X64420Y20322D01*
X63849D01*
X63563Y20179D01*
X63278Y19894D01*
X63135Y19608D01*
X62992Y19180D01*
Y18465D01*
X63135Y18037D01*
X63278Y17751D01*
X63563Y17466D01*
X63849Y17323D01*
X64420D01*
X64706Y17466D01*
X64992Y17751D01*
X65135Y18037D01*
X67691Y20322D02*
X66263D01*
X66120Y19037D01*
X66263Y19180D01*
X66691Y19322D01*
X67120D01*
X67548Y19180D01*
X67834Y18894D01*
X67977Y18465D01*
Y18180D01*
X67834Y17751D01*
X67548Y17466D01*
X67120Y17323D01*
X66691D01*
X66263Y17466D01*
X66120Y17608D01*
X65977Y17894D01*
X69362Y20322D02*
X68934Y20179D01*
X68791Y19894D01*
Y19608D01*
X68934Y19322D01*
X69219Y19180D01*
X69791Y19037D01*
X70219Y18894D01*
X70505Y18608D01*
X70648Y18323D01*
Y17894D01*
X70505Y17608D01*
X70362Y17466D01*
X69933Y17323D01*
X69362D01*
X68934Y17466D01*
X68791Y17608D01*
X68648Y17894D01*
Y18323D01*
X68791Y18608D01*
X69077Y18894D01*
X69505Y19037D01*
X70076Y19180D01*
X70362Y19322D01*
X70505Y19608D01*
Y19894D01*
X70362Y20179D01*
X69933Y20322D01*
X69362D01*
X46237Y20395D02*
X46094Y20681D01*
X45808Y20967D01*
X45523Y21110D01*
X44951D01*
X44666Y20967D01*
X44380Y20681D01*
X44237Y20395D01*
X44094Y19967D01*
Y19253D01*
X44237Y18824D01*
X44380Y18539D01*
X44666Y18253D01*
X44951Y18110D01*
X45523D01*
X45808Y18253D01*
X46094Y18539D01*
X46237Y18824D01*
X48794Y21110D02*
X47365D01*
X47222Y19824D01*
X47365Y19967D01*
X47794Y20110D01*
X48222D01*
X48651Y19967D01*
X48936Y19681D01*
X49079Y19253D01*
Y18967D01*
X48936Y18539D01*
X48651Y18253D01*
X48222Y18110D01*
X47794D01*
X47365Y18253D01*
X47222Y18396D01*
X47080Y18681D01*
X51607Y20110D02*
X51464Y19681D01*
X51179Y19396D01*
X50750Y19253D01*
X50607D01*
X50179Y19396D01*
X49893Y19681D01*
X49750Y20110D01*
Y20253D01*
X49893Y20681D01*
X50179Y20967D01*
X50607Y21110D01*
X50750D01*
X51179Y20967D01*
X51464Y20681D01*
X51607Y20110D01*
Y19396D01*
X51464Y18681D01*
X51179Y18253D01*
X50750Y18110D01*
X50465D01*
X50036Y18253D01*
X49893Y18539D01*
X-36834Y43230D02*
X-36977Y43516D01*
X-37262Y43801D01*
X-37548Y43944D01*
X-38119D01*
X-38405Y43801D01*
X-38691Y43516D01*
X-38834Y43230D01*
X-38976Y42802D01*
Y42088D01*
X-38834Y41659D01*
X-38691Y41373D01*
X-38405Y41088D01*
X-38119Y40945D01*
X-37548D01*
X-37262Y41088D01*
X-36977Y41373D01*
X-36834Y41659D01*
X-33992Y43944D02*
X-35420Y40945D01*
X-35991Y43944D02*
X-33992D01*
X-32463D02*
X-32892Y43801D01*
X-33178Y43373D01*
X-33320Y42659D01*
Y42230D01*
X-33178Y41516D01*
X-32892Y41088D01*
X-32463Y40945D01*
X-32178D01*
X-31749Y41088D01*
X-31464Y41516D01*
X-31321Y42230D01*
Y42659D01*
X-31464Y43373D01*
X-31749Y43801D01*
X-32178Y43944D01*
X-32463D01*
X-49136Y43481D02*
X-49421Y43338D01*
X-49707Y43053D01*
X-49850Y42767D01*
Y42196D01*
X-49707Y41910D01*
X-49421Y41624D01*
X-49136Y41481D01*
X-48707Y41339D01*
X-47993D01*
X-47565Y41481D01*
X-47279Y41624D01*
X-46993Y41910D01*
X-46850Y42196D01*
Y42767D01*
X-46993Y43053D01*
X-47279Y43338D01*
X-47565Y43481D01*
X-49850Y46323D02*
X-46850Y44895D01*
X-49850Y44324D02*
Y46323D01*
X-49279Y46995D02*
X-49421Y47280D01*
X-49850Y47709D01*
X-46850D01*
X-44017Y42300D02*
X-44303Y42157D01*
X-44589Y41871D01*
X-44732Y41586D01*
Y41015D01*
X-44589Y40729D01*
X-44303Y40443D01*
X-44017Y40300D01*
X-43589Y40157D01*
X-42875D01*
X-42446Y40300D01*
X-42161Y40443D01*
X-41875Y40729D01*
X-41732Y41015D01*
Y41586D01*
X-41875Y41871D01*
X-42161Y42157D01*
X-42446Y42300D01*
X-44732Y45142D02*
X-41732Y43714D01*
X-44732Y43143D02*
Y45142D01*
X-44017Y45956D02*
X-44160D01*
X-44446Y46099D01*
X-44589Y46242D01*
X-44732Y46528D01*
Y47099D01*
X-44589Y47385D01*
X-44446Y47527D01*
X-44160Y47670D01*
X-43875D01*
X-43589Y47527D01*
X-43161Y47242D01*
X-41732Y45813D01*
Y47813D01*
X-40080Y59229D02*
X-40366Y59086D01*
X-40652Y58801D01*
X-40795Y58515D01*
Y57944D01*
X-40652Y57658D01*
X-40366Y57372D01*
X-40080Y57230D01*
X-39652Y57087D01*
X-38938D01*
X-38509Y57230D01*
X-38224Y57372D01*
X-37938Y57658D01*
X-37795Y57944D01*
Y58515D01*
X-37938Y58801D01*
X-38224Y59086D01*
X-38509Y59229D01*
X-40795Y62071D02*
X-37795Y60643D01*
X-40795Y60072D02*
Y62071D01*
Y63028D02*
Y64599D01*
X-39652Y63742D01*
Y64171D01*
X-39509Y64456D01*
X-39366Y64599D01*
X-38938Y64742D01*
X-38652D01*
X-38224Y64599D01*
X-37938Y64314D01*
X-37795Y63885D01*
Y63457D01*
X-37938Y63028D01*
X-38081Y62885D01*
X-38367Y62743D01*
X-38802Y77876D02*
X-38945Y78162D01*
X-39231Y78447D01*
X-39517Y78590D01*
X-40088D01*
X-40374Y78447D01*
X-40659Y78162D01*
X-40802Y77876D01*
X-40945Y77447D01*
Y76733D01*
X-40802Y76305D01*
X-40659Y76019D01*
X-40374Y75733D01*
X-40088Y75591D01*
X-39517D01*
X-39231Y75733D01*
X-38945Y76019D01*
X-38802Y76305D01*
X-35960Y78590D02*
X-37389Y75591D01*
X-37960Y78590D02*
X-35960D01*
X-33861D02*
X-35289Y76590D01*
X-33147D01*
X-33861Y78590D02*
Y75591D01*
X-29747Y77876D02*
X-29890Y78162D01*
X-30176Y78447D01*
X-30461Y78590D01*
X-31033D01*
X-31319Y78447D01*
X-31604Y78162D01*
X-31747Y77876D01*
X-31890Y77447D01*
Y76733D01*
X-31747Y76305D01*
X-31604Y76019D01*
X-31319Y75733D01*
X-31033Y75591D01*
X-30461D01*
X-30176Y75733D01*
X-29890Y76019D01*
X-29747Y76305D01*
X-26905Y78590D02*
X-28333Y75591D01*
X-28905Y78590D02*
X-26905D01*
X-24520D02*
X-25948D01*
X-26091Y77305D01*
X-25948Y77447D01*
X-25520Y77590D01*
X-25091D01*
X-24663Y77447D01*
X-24377Y77162D01*
X-24234Y76733D01*
Y76447D01*
X-24377Y76019D01*
X-24663Y75733D01*
X-25091Y75591D01*
X-25520D01*
X-25948Y75733D01*
X-26091Y75876D01*
X-26234Y76162D01*
X-86221Y74259D02*
Y71260D01*
Y74259D02*
X-85221D01*
X-84792Y74116D01*
X-84507Y73831D01*
X-84364Y73545D01*
X-84221Y73117D01*
Y72402D01*
X-84364Y71974D01*
X-84507Y71688D01*
X-84792Y71403D01*
X-85221Y71260D01*
X-86221D01*
X-83550Y73688D02*
X-83264Y73831D01*
X-82836Y74259D01*
Y71260D01*
X79134Y30952D02*
Y27953D01*
Y30952D02*
X80134D01*
X80562Y30809D01*
X80848Y30524D01*
X80991Y30238D01*
X81133Y29809D01*
Y29095D01*
X80991Y28667D01*
X80848Y28381D01*
X80562Y28096D01*
X80134Y27953D01*
X79134D01*
X81805Y30381D02*
X82090Y30524D01*
X82519Y30952D01*
Y27953D01*
X84718Y30952D02*
X84290Y30809D01*
X84147Y30524D01*
Y30238D01*
X84290Y29952D01*
X84576Y29809D01*
X85147Y29667D01*
X85575Y29524D01*
X85861Y29238D01*
X86004Y28953D01*
Y28524D01*
X85861Y28238D01*
X85718Y28096D01*
X85290Y27953D01*
X84718D01*
X84290Y28096D01*
X84147Y28238D01*
X84004Y28524D01*
Y28953D01*
X84147Y29238D01*
X84433Y29524D01*
X84861Y29667D01*
X85432Y29809D01*
X85718Y29952D01*
X85861Y30238D01*
Y30524D01*
X85718Y30809D01*
X85290Y30952D01*
X84718D01*
X53543D02*
Y27953D01*
Y30952D02*
X54543D01*
X54972Y30809D01*
X55257Y30524D01*
X55400Y30238D01*
X55543Y29809D01*
Y29095D01*
X55400Y28667D01*
X55257Y28381D01*
X54972Y28096D01*
X54543Y27953D01*
X53543D01*
X56214Y30381D02*
X56500Y30524D01*
X56928Y30952D01*
Y27953D01*
X60270Y29952D02*
X60128Y29524D01*
X59842Y29238D01*
X59413Y29095D01*
X59271D01*
X58842Y29238D01*
X58556Y29524D01*
X58414Y29952D01*
Y30095D01*
X58556Y30524D01*
X58842Y30809D01*
X59271Y30952D01*
X59413D01*
X59842Y30809D01*
X60128Y30524D01*
X60270Y29952D01*
Y29238D01*
X60128Y28524D01*
X59842Y28096D01*
X59413Y27953D01*
X59128D01*
X58699Y28096D01*
X58556Y28381D01*
X-50394Y78590D02*
Y75590D01*
Y78590D02*
X-49394D01*
X-48965Y78447D01*
X-48680Y78161D01*
X-48537Y77876D01*
X-48394Y77447D01*
Y76733D01*
X-48537Y76305D01*
X-48680Y76019D01*
X-48965Y75733D01*
X-49394Y75590D01*
X-50394D01*
X-47580Y77876D02*
Y78019D01*
X-47437Y78304D01*
X-47294Y78447D01*
X-47009Y78590D01*
X-46437D01*
X-46152Y78447D01*
X-46009Y78304D01*
X-45866Y78019D01*
Y77733D01*
X-46009Y77447D01*
X-46295Y77019D01*
X-47723Y75590D01*
X-45723D01*
X-44766Y78590D02*
X-43195D01*
X-44052Y77447D01*
X-43624D01*
X-43338Y77305D01*
X-43195Y77162D01*
X-43052Y76733D01*
Y76447D01*
X-43195Y76019D01*
X-43481Y75733D01*
X-43909Y75590D01*
X-44338D01*
X-44766Y75733D01*
X-44909Y75876D01*
X-45052Y76162D01*
X-52165Y67960D02*
Y64961D01*
Y67960D02*
X-50309D01*
X-52165Y66532D02*
X-51023D01*
X-49966Y67960D02*
Y64961D01*
Y67960D02*
X-48680D01*
X-48252Y67817D01*
X-48109Y67674D01*
X-47966Y67389D01*
Y67103D01*
X-48109Y66817D01*
X-48252Y66675D01*
X-48680Y66532D01*
X-49966D02*
X-48680D01*
X-48252Y66389D01*
X-48109Y66246D01*
X-47966Y65960D01*
Y65532D01*
X-48109Y65246D01*
X-48252Y65104D01*
X-48680Y64961D01*
X-49966D01*
X-47009Y67960D02*
X-45438D01*
X-46295Y66817D01*
X-45867D01*
X-45581Y66675D01*
X-45438Y66532D01*
X-45295Y66103D01*
Y65818D01*
X-45438Y65389D01*
X-45724Y65104D01*
X-46152Y64961D01*
X-46581D01*
X-47009Y65104D01*
X-47152Y65246D01*
X-47295Y65532D01*
X59696Y-40701D02*
Y-42987D01*
X59553Y-43415D01*
X59410Y-43558D01*
X59125Y-43701D01*
X58839D01*
X58553Y-43558D01*
X58411Y-43415D01*
X58268Y-42987D01*
Y-42701D01*
X61896Y-40701D02*
X60467Y-42701D01*
X62610D01*
X61896Y-40701D02*
Y-43701D01*
X63995Y-40701D02*
X63567Y-40844D01*
X63281Y-41273D01*
X63138Y-41987D01*
Y-42415D01*
X63281Y-43130D01*
X63567Y-43558D01*
X63995Y-43701D01*
X64281D01*
X64709Y-43558D01*
X64995Y-43130D01*
X65138Y-42415D01*
Y-41987D01*
X64995Y-41273D01*
X64709Y-40844D01*
X64281Y-40701D01*
X63995D01*
X-91091Y87645D02*
Y85360D01*
X-91234Y84931D01*
X-91377Y84789D01*
X-91663Y84646D01*
X-91948D01*
X-92234Y84789D01*
X-92377Y84931D01*
X-92520Y85360D01*
Y85646D01*
X-88892Y87645D02*
X-90320Y85646D01*
X-88178D01*
X-88892Y87645D02*
Y84646D01*
X66389Y69062D02*
Y66777D01*
X66246Y66349D01*
X66103Y66206D01*
X65818Y66063D01*
X65532D01*
X65246Y66206D01*
X65104Y66349D01*
X64961Y66777D01*
Y67063D01*
X67160Y68491D02*
X67446Y68634D01*
X67874Y69062D01*
Y66063D01*
X71216Y68063D02*
X71074Y67634D01*
X70788Y67348D01*
X70359Y67206D01*
X70217D01*
X69788Y67348D01*
X69503Y67634D01*
X69360Y68063D01*
Y68205D01*
X69503Y68634D01*
X69788Y68919D01*
X70217Y69062D01*
X70359D01*
X70788Y68919D01*
X71074Y68634D01*
X71216Y68063D01*
Y67348D01*
X71074Y66634D01*
X70788Y66206D01*
X70359Y66063D01*
X70074D01*
X69645Y66206D01*
X69503Y66492D01*
X-48965Y87251D02*
Y84966D01*
X-49108Y84538D01*
X-49251Y84395D01*
X-49537Y84252D01*
X-49822D01*
X-50108Y84395D01*
X-50251Y84538D01*
X-50394Y84966D01*
Y85252D01*
X-48051Y86537D02*
Y86680D01*
X-47908Y86966D01*
X-47766Y87108D01*
X-47480Y87251D01*
X-46909D01*
X-46623Y87108D01*
X-46480Y86966D01*
X-46337Y86680D01*
Y86394D01*
X-46480Y86109D01*
X-46766Y85680D01*
X-48194Y84252D01*
X-46195D01*
X-45380Y86537D02*
Y86680D01*
X-45238Y86966D01*
X-45095Y87108D01*
X-44809Y87251D01*
X-44238D01*
X-43952Y87108D01*
X-43809Y86966D01*
X-43667Y86680D01*
Y86394D01*
X-43809Y86109D01*
X-44095Y85680D01*
X-45523Y84252D01*
X-43524D01*
X-71260Y98275D02*
Y95276D01*
X-69546D01*
X-69217Y98275D02*
Y95276D01*
Y98275D02*
X-68218D01*
X-67789Y98132D01*
X-67503Y97847D01*
X-67361Y97561D01*
X-67218Y97132D01*
Y96418D01*
X-67361Y95990D01*
X-67503Y95704D01*
X-67789Y95418D01*
X-68218Y95276D01*
X-69217D01*
X-66547Y97704D02*
X-66261Y97847D01*
X-65832Y98275D01*
Y95276D01*
X-62448Y64961D02*
X-59449D01*
Y66675D01*
X-62448Y67003D02*
X-59449D01*
X-62448D02*
Y68003D01*
X-62305Y68431D01*
X-62020Y68717D01*
X-61734Y68860D01*
X-61306Y69003D01*
X-60591D01*
X-60163Y68860D01*
X-59877Y68717D01*
X-59592Y68431D01*
X-59449Y68003D01*
Y67003D01*
X-61877Y69674D02*
X-62020Y69960D01*
X-62448Y70388D01*
X-59449D01*
X-61877Y71873D02*
X-62020Y72159D01*
X-62448Y72588D01*
X-59449D01*
X-70079Y71897D02*
Y68898D01*
Y71897D02*
X-68793D01*
X-68365Y71754D01*
X-68222Y71611D01*
X-68079Y71326D01*
Y71040D01*
X-68222Y70754D01*
X-68365Y70612D01*
X-68793Y70469D01*
X-70079D01*
X-69079D02*
X-68079Y68898D01*
X-67408Y71326D02*
X-67122Y71469D01*
X-66694Y71897D01*
Y68898D01*
X29528Y91582D02*
Y88583D01*
Y91582D02*
X30813D01*
X31242Y91439D01*
X31384Y91296D01*
X31527Y91011D01*
Y90725D01*
X31384Y90439D01*
X31242Y90297D01*
X30813Y90154D01*
X29528D01*
X30527D02*
X31527Y88583D01*
X33912Y91154D02*
X33770Y91439D01*
X33341Y91582D01*
X33055D01*
X32627Y91439D01*
X32341Y91011D01*
X32198Y90297D01*
Y89583D01*
X32341Y89011D01*
X32627Y88726D01*
X33055Y88583D01*
X33198D01*
X33627Y88726D01*
X33912Y89011D01*
X34055Y89440D01*
Y89583D01*
X33912Y90011D01*
X33627Y90297D01*
X33198Y90439D01*
X33055D01*
X32627Y90297D01*
X32341Y90011D01*
X32198Y89583D01*
X48425Y-82434D02*
Y-85433D01*
Y-82434D02*
X49711D01*
X50139Y-82577D01*
X50282Y-82719D01*
X50425Y-83005D01*
Y-83291D01*
X50282Y-83576D01*
X50139Y-83719D01*
X49711Y-83862D01*
X48425D01*
X49425D02*
X50425Y-85433D01*
X51096Y-83005D02*
X51382Y-82862D01*
X51810Y-82434D01*
Y-85433D01*
X53438Y-83148D02*
Y-83005D01*
X53581Y-82719D01*
X53724Y-82577D01*
X54010Y-82434D01*
X54581D01*
X54867Y-82577D01*
X55010Y-82719D01*
X55152Y-83005D01*
Y-83291D01*
X55010Y-83576D01*
X54724Y-84005D01*
X53296Y-85433D01*
X55295D01*
X24902Y-77316D02*
Y-80315D01*
Y-77316D02*
X26187D01*
X26616Y-77458D01*
X26758Y-77601D01*
X26901Y-77887D01*
Y-78173D01*
X26758Y-78458D01*
X26616Y-78601D01*
X26187Y-78744D01*
X24902D01*
X25901D02*
X26901Y-80315D01*
X27572Y-77887D02*
X27858Y-77744D01*
X28287Y-77316D01*
Y-80315D01*
X30058Y-77316D02*
X31629D01*
X30772Y-78458D01*
X31200D01*
X31486Y-78601D01*
X31629Y-78744D01*
X31771Y-79172D01*
Y-79458D01*
X31629Y-79887D01*
X31343Y-80172D01*
X30915Y-80315D01*
X30486D01*
X30058Y-80172D01*
X29915Y-80029D01*
X29772Y-79744D01*
X48182Y-79528D02*
X51181D01*
X48182D02*
Y-78242D01*
X48325Y-77814D01*
X48467Y-77671D01*
X48753Y-77528D01*
X49039D01*
X49324Y-77671D01*
X49467Y-77814D01*
X49610Y-78242D01*
Y-79528D01*
Y-78528D02*
X51181Y-77528D01*
X48753Y-76857D02*
X48610Y-76571D01*
X48182Y-76143D01*
X51181D01*
X48182Y-73229D02*
X50181Y-74657D01*
Y-72515D01*
X48182Y-73229D02*
X51181D01*
X24902Y-72591D02*
Y-75591D01*
Y-72591D02*
X26187D01*
X26616Y-72734D01*
X26758Y-72877D01*
X26901Y-73163D01*
Y-73448D01*
X26758Y-73734D01*
X26616Y-73877D01*
X26187Y-74019D01*
X24902D01*
X25901D02*
X26901Y-75591D01*
X27572Y-73163D02*
X27858Y-73020D01*
X28287Y-72591D01*
Y-75591D01*
X31486Y-73020D02*
X31343Y-72734D01*
X30915Y-72591D01*
X30629D01*
X30200Y-72734D01*
X29915Y-73163D01*
X29772Y-73877D01*
Y-74591D01*
X29915Y-75162D01*
X30200Y-75448D01*
X30629Y-75591D01*
X30772D01*
X31200Y-75448D01*
X31486Y-75162D01*
X31629Y-74734D01*
Y-74591D01*
X31486Y-74162D01*
X31200Y-73877D01*
X30772Y-73734D01*
X30629D01*
X30200Y-73877D01*
X29915Y-74162D01*
X29772Y-74591D01*
X48182Y-70079D02*
X51181D01*
X48182D02*
Y-68793D01*
X48325Y-68365D01*
X48467Y-68222D01*
X48753Y-68079D01*
X49039D01*
X49324Y-68222D01*
X49467Y-68365D01*
X49610Y-68793D01*
Y-70079D01*
Y-69079D02*
X51181Y-68079D01*
X48753Y-67408D02*
X48610Y-67122D01*
X48182Y-66694D01*
X51181D01*
X48182Y-63209D02*
X51181Y-64637D01*
X48182Y-65208D02*
Y-63209D01*
X-96457Y64023D02*
Y61024D01*
Y64023D02*
X-95171D01*
X-94743Y63880D01*
X-94600Y63737D01*
X-94457Y63452D01*
Y63166D01*
X-94600Y62880D01*
X-94743Y62738D01*
X-95171Y62595D01*
X-96457D01*
X-95457D02*
X-94457Y61024D01*
X-93500Y64023D02*
X-91929D01*
X-92786Y62880D01*
X-92358D01*
X-92072Y62738D01*
X-91929Y62595D01*
X-91786Y62166D01*
Y61881D01*
X-91929Y61452D01*
X-92215Y61166D01*
X-92643Y61024D01*
X-93072D01*
X-93500Y61166D01*
X-93643Y61309D01*
X-93786Y61595D01*
X-90258Y64023D02*
X-90687Y63880D01*
X-90972Y63452D01*
X-91115Y62738D01*
Y62309D01*
X-90972Y61595D01*
X-90687Y61166D01*
X-90258Y61024D01*
X-89972D01*
X-89544Y61166D01*
X-89258Y61595D01*
X-89115Y62309D01*
Y62738D01*
X-89258Y63452D01*
X-89544Y63880D01*
X-89972Y64023D01*
X-90258D01*
X22835Y20716D02*
Y17717D01*
Y20716D02*
X24120D01*
X24549Y20573D01*
X24691Y20430D01*
X24834Y20145D01*
Y19859D01*
X24691Y19573D01*
X24549Y19430D01*
X24120Y19288D01*
X22835D01*
X23834D02*
X24834Y17717D01*
X25791Y20716D02*
X27362D01*
X26505Y19573D01*
X26934D01*
X27219Y19430D01*
X27362Y19288D01*
X27505Y18859D01*
Y18574D01*
X27362Y18145D01*
X27077Y17859D01*
X26648Y17717D01*
X26220D01*
X25791Y17859D01*
X25648Y18002D01*
X25506Y18288D01*
X28176Y20145D02*
X28462Y20287D01*
X28890Y20716D01*
Y17717D01*
X73228Y8511D02*
Y5512D01*
Y8511D02*
X74514D01*
X74942Y8368D01*
X75085Y8225D01*
X75228Y7940D01*
Y7654D01*
X75085Y7369D01*
X74942Y7226D01*
X74514Y7083D01*
X73228D01*
X74228D02*
X75228Y5512D01*
X76185Y8511D02*
X77756D01*
X76899Y7369D01*
X77328D01*
X77613Y7226D01*
X77756Y7083D01*
X77899Y6654D01*
Y6369D01*
X77756Y5940D01*
X77470Y5655D01*
X77042Y5512D01*
X76613D01*
X76185Y5655D01*
X76042Y5798D01*
X75899Y6083D01*
X78713Y7797D02*
Y7940D01*
X78856Y8225D01*
X78999Y8368D01*
X79284Y8511D01*
X79856D01*
X80141Y8368D01*
X80284Y8225D01*
X80427Y7940D01*
Y7654D01*
X80284Y7369D01*
X79998Y6940D01*
X78570Y5512D01*
X80570D01*
X-5118Y80952D02*
Y77953D01*
Y80952D02*
X-3833D01*
X-3404Y80809D01*
X-3261Y80666D01*
X-3118Y80381D01*
Y80095D01*
X-3261Y79809D01*
X-3404Y79667D01*
X-3833Y79524D01*
X-5118D01*
X-4118D02*
X-3118Y77953D01*
X-1019Y80952D02*
X-2447Y78952D01*
X-305D01*
X-1019Y80952D02*
Y77953D01*
X1081Y80952D02*
X652Y80809D01*
X366Y80381D01*
X224Y79667D01*
Y79238D01*
X366Y78524D01*
X652Y78096D01*
X1081Y77953D01*
X1366D01*
X1795Y78096D01*
X2080Y78524D01*
X2223Y79238D01*
Y79667D01*
X2080Y80381D01*
X1795Y80809D01*
X1366Y80952D01*
X1081D01*
X22835D02*
Y77953D01*
Y80952D02*
X24120D01*
X24549Y80809D01*
X24691Y80666D01*
X24834Y80381D01*
Y80095D01*
X24691Y79809D01*
X24549Y79667D01*
X24120Y79524D01*
X22835D01*
X23834D02*
X24834Y77953D01*
X26934Y80952D02*
X25506Y78952D01*
X27648D01*
X26934Y80952D02*
Y77953D01*
X28176Y80381D02*
X28462Y80524D01*
X28890Y80952D01*
Y77953D01*
X55118Y10873D02*
Y7874D01*
Y10873D02*
X56403D01*
X56832Y10730D01*
X56975Y10588D01*
X57118Y10302D01*
Y10016D01*
X56975Y9731D01*
X56832Y9588D01*
X56403Y9445D01*
X55118D01*
X56118D02*
X57118Y7874D01*
X59217Y10873D02*
X57789Y8874D01*
X59931D01*
X59217Y10873D02*
Y7874D01*
X62459Y10873D02*
X61031Y7874D01*
X60460Y10873D02*
X62459D01*
X-70866Y60873D02*
Y57874D01*
Y60873D02*
X-69581D01*
X-69152Y60731D01*
X-69009Y60588D01*
X-68867Y60302D01*
Y60016D01*
X-69009Y59731D01*
X-69152Y59588D01*
X-69581Y59445D01*
X-70866D01*
X-69866D02*
X-68867Y57874D01*
X-66767Y60873D02*
X-68195Y58874D01*
X-66053D01*
X-66767Y60873D02*
Y57874D01*
X-63668Y59874D02*
X-63810Y59445D01*
X-64096Y59159D01*
X-64525Y59017D01*
X-64667D01*
X-65096Y59159D01*
X-65382Y59445D01*
X-65524Y59874D01*
Y60016D01*
X-65382Y60445D01*
X-65096Y60731D01*
X-64667Y60873D01*
X-64525D01*
X-64096Y60731D01*
X-63810Y60445D01*
X-63668Y59874D01*
Y59159D01*
X-63810Y58445D01*
X-64096Y58017D01*
X-64525Y57874D01*
X-64810D01*
X-65239Y58017D01*
X-65382Y58302D01*
X-41339Y69141D02*
Y66142D01*
Y69141D02*
X-40053D01*
X-39625Y68998D01*
X-39482Y68855D01*
X-39339Y68570D01*
Y68284D01*
X-39482Y67998D01*
X-39625Y67856D01*
X-40053Y67713D01*
X-41339D01*
X-40339D02*
X-39339Y66142D01*
X-36954Y69141D02*
X-38382D01*
X-38525Y67856D01*
X-38382Y67998D01*
X-37954Y68141D01*
X-37525D01*
X-37097Y67998D01*
X-36811Y67713D01*
X-36668Y67284D01*
Y66999D01*
X-36811Y66570D01*
X-37097Y66285D01*
X-37525Y66142D01*
X-37954D01*
X-38382Y66285D01*
X-38525Y66427D01*
X-38668Y66713D01*
X-34569Y69141D02*
X-35997Y67141D01*
X-33854D01*
X-34569Y69141D02*
Y66142D01*
X-31102Y69141D02*
Y66142D01*
Y69141D02*
X-29817D01*
X-29388Y68998D01*
X-29246Y68855D01*
X-29103Y68570D01*
Y68284D01*
X-29246Y67998D01*
X-29388Y67856D01*
X-29817Y67713D01*
X-31102D01*
X-30103D02*
X-29103Y66142D01*
X-26718Y69141D02*
X-28146D01*
X-28289Y67856D01*
X-28146Y67998D01*
X-27717Y68141D01*
X-27289D01*
X-26860Y67998D01*
X-26575Y67713D01*
X-26432Y67284D01*
Y66999D01*
X-26575Y66570D01*
X-26860Y66285D01*
X-27289Y66142D01*
X-27717D01*
X-28146Y66285D01*
X-28289Y66427D01*
X-28431Y66713D01*
X-24047Y69141D02*
X-25475D01*
X-25618Y67856D01*
X-25475Y67998D01*
X-25047Y68141D01*
X-24618D01*
X-24190Y67998D01*
X-23904Y67713D01*
X-23761Y67284D01*
Y66999D01*
X-23904Y66570D01*
X-24190Y66285D01*
X-24618Y66142D01*
X-25047D01*
X-25475Y66285D01*
X-25618Y66427D01*
X-25761Y66713D01*
X2756Y-26528D02*
Y-28671D01*
X2899Y-29099D01*
X3184Y-29385D01*
X3613Y-29528D01*
X3898D01*
X4327Y-29385D01*
X4613Y-29099D01*
X4755Y-28671D01*
Y-26528D01*
X5584Y-27099D02*
X5869Y-26957D01*
X6298Y-26528D01*
Y-29528D01*
X-61417Y54968D02*
Y52825D01*
X-61274Y52397D01*
X-60989Y52111D01*
X-60560Y51968D01*
X-60275D01*
X-59846Y52111D01*
X-59561Y52397D01*
X-59418Y52825D01*
Y54968D01*
X-58589Y54397D02*
X-58304Y54539D01*
X-57875Y54968D01*
Y51968D01*
X-56104Y54968D02*
X-54533D01*
X-55390Y53825D01*
X-54962D01*
X-54676Y53682D01*
X-54533Y53540D01*
X-54390Y53111D01*
Y52825D01*
X-54533Y52397D01*
X-54819Y52111D01*
X-55247Y51968D01*
X-55676D01*
X-56104Y52111D01*
X-56247Y52254D01*
X-56390Y52540D01*
X-36220Y63236D02*
Y61093D01*
X-36078Y60665D01*
X-35792Y60379D01*
X-35364Y60236D01*
X-35078D01*
X-34649Y60379D01*
X-34364Y60665D01*
X-34221Y61093D01*
Y63236D01*
X-33393Y62664D02*
X-33107Y62807D01*
X-32678Y63236D01*
Y60236D01*
X-29765Y63236D02*
X-31193Y61236D01*
X-29051D01*
X-29765Y63236D02*
Y60236D01*
X17497Y69608D02*
X17354Y69894D01*
X17068Y70179D01*
X16783Y70322D01*
X16211D01*
X15926Y70179D01*
X15640Y69894D01*
X15497Y69608D01*
X15354Y69180D01*
Y68465D01*
X15497Y68037D01*
X15640Y67751D01*
X15926Y67466D01*
X16211Y67323D01*
X16783D01*
X17068Y67466D01*
X17354Y67751D01*
X17497Y68037D01*
X20196Y69322D02*
X20053Y68894D01*
X19768Y68608D01*
X19339Y68465D01*
X19196D01*
X18768Y68608D01*
X18482Y68894D01*
X18339Y69322D01*
Y69465D01*
X18482Y69894D01*
X18768Y70179D01*
X19196Y70322D01*
X19339D01*
X19768Y70179D01*
X20053Y69894D01*
X20196Y69322D01*
Y68608D01*
X20053Y67894D01*
X19768Y67466D01*
X19339Y67323D01*
X19053D01*
X18625Y67466D01*
X18482Y67751D01*
X21724Y70322D02*
X21296Y70179D01*
X21153Y69894D01*
Y69608D01*
X21296Y69322D01*
X21582Y69180D01*
X22153Y69037D01*
X22581Y68894D01*
X22867Y68608D01*
X23010Y68323D01*
Y67894D01*
X22867Y67608D01*
X22724Y67466D01*
X22296Y67323D01*
X21724D01*
X21296Y67466D01*
X21153Y67608D01*
X21010Y67894D01*
Y68323D01*
X21153Y68608D01*
X21439Y68894D01*
X21867Y69037D01*
X22438Y69180D01*
X22724Y69322D01*
X22867Y69608D01*
Y69894D01*
X22724Y70179D01*
X22296Y70322D01*
X21724D01*
X28914Y69608D02*
X28771Y69894D01*
X28486Y70179D01*
X28200Y70322D01*
X27629D01*
X27343Y70179D01*
X27057Y69894D01*
X26915Y69608D01*
X26772Y69180D01*
Y68465D01*
X26915Y68037D01*
X27057Y67751D01*
X27343Y67466D01*
X27629Y67323D01*
X28200D01*
X28486Y67466D01*
X28771Y67751D01*
X28914Y68037D01*
X31613Y69322D02*
X31471Y68894D01*
X31185Y68608D01*
X30757Y68465D01*
X30614D01*
X30185Y68608D01*
X29899Y68894D01*
X29757Y69322D01*
Y69465D01*
X29899Y69894D01*
X30185Y70179D01*
X30614Y70322D01*
X30757D01*
X31185Y70179D01*
X31471Y69894D01*
X31613Y69322D01*
Y68608D01*
X31471Y67894D01*
X31185Y67466D01*
X30757Y67323D01*
X30471D01*
X30042Y67466D01*
X29899Y67751D01*
X34284Y69322D02*
X34141Y68894D01*
X33856Y68608D01*
X33427Y68465D01*
X33285D01*
X32856Y68608D01*
X32570Y68894D01*
X32428Y69322D01*
Y69465D01*
X32570Y69894D01*
X32856Y70179D01*
X33285Y70322D01*
X33427D01*
X33856Y70179D01*
X34141Y69894D01*
X34284Y69322D01*
Y68608D01*
X34141Y67894D01*
X33856Y67466D01*
X33427Y67323D01*
X33142D01*
X32713Y67466D01*
X32570Y67751D01*
X-119654Y-39949D02*
X-119940Y-39663D01*
X-120368Y-39520D01*
X-120939D01*
X-121368Y-39663D01*
X-121653Y-39949D01*
Y-40235D01*
X-121511Y-40520D01*
X-121368Y-40663D01*
X-121082Y-40806D01*
X-120225Y-41091D01*
X-119940Y-41234D01*
X-119797Y-41377D01*
X-119654Y-41663D01*
Y-42091D01*
X-119940Y-42377D01*
X-120368Y-42520D01*
X-120939D01*
X-121368Y-42377D01*
X-121653Y-42091D01*
X-118983Y-39520D02*
X-118269Y-42520D01*
X-117554Y-39520D02*
X-118269Y-42520D01*
X-117554Y-39520D02*
X-116840Y-42520D01*
X-116126Y-39520D02*
X-116840Y-42520D01*
X-115526Y-40092D02*
X-115241Y-39949D01*
X-114812Y-39520D01*
Y-42520D01*
X-120048Y209D02*
X-120333Y494D01*
X-120762Y637D01*
X-121333D01*
X-121762Y494D01*
X-122047Y209D01*
Y-77D01*
X-121904Y-363D01*
X-121762Y-506D01*
X-121476Y-648D01*
X-120619Y-934D01*
X-120333Y-1077D01*
X-120191Y-1220D01*
X-120048Y-1505D01*
Y-1934D01*
X-120333Y-2219D01*
X-120762Y-2362D01*
X-121333D01*
X-121762Y-2219D01*
X-122047Y-1934D01*
X-119376Y637D02*
X-118662Y-2362D01*
X-117948Y637D02*
X-118662Y-2362D01*
X-117948Y637D02*
X-117234Y-2362D01*
X-116520Y637D02*
X-117234Y-2362D01*
X-115777Y-77D02*
Y66D01*
X-115634Y351D01*
X-115491Y494D01*
X-115206Y637D01*
X-114635D01*
X-114349Y494D01*
X-114206Y351D01*
X-114063Y66D01*
Y-220D01*
X-114206Y-506D01*
X-114492Y-934D01*
X-115920Y-2362D01*
X-113920D01*
X-106543Y66535D02*
X-103543D01*
X-106543D02*
Y67821D01*
X-106400Y68249D01*
X-106257Y68392D01*
X-105971Y68535D01*
X-105686D01*
X-105400Y68392D01*
X-105257Y68249D01*
X-105114Y67821D01*
Y66535D01*
Y67535D02*
X-103543Y68535D01*
X-106543Y69492D02*
Y71063D01*
X-105400Y70206D01*
Y70635D01*
X-105257Y70920D01*
X-105114Y71063D01*
X-104686Y71206D01*
X-104400D01*
X-103972Y71063D01*
X-103686Y70777D01*
X-103543Y70349D01*
Y69920D01*
X-103686Y69492D01*
X-103829Y69349D01*
X-104115Y69206D01*
X-106543Y73591D02*
Y72163D01*
X-105257Y72020D01*
X-105400Y72163D01*
X-105543Y72591D01*
Y73020D01*
X-105400Y73448D01*
X-105114Y73734D01*
X-104686Y73877D01*
X-104400D01*
X-103972Y73734D01*
X-103686Y73448D01*
X-103543Y73020D01*
Y72591D01*
X-103686Y72163D01*
X-103829Y72020D01*
X-104115Y71877D01*
X-50000Y27409D02*
Y24409D01*
Y27409D02*
X-48715D01*
X-48286Y27266D01*
X-48143Y27123D01*
X-48000Y26838D01*
Y26552D01*
X-48143Y26266D01*
X-48286Y26123D01*
X-48715Y25980D01*
X-50000D01*
X-49000D02*
X-48000Y24409D01*
X-45901Y27409D02*
X-47329Y25409D01*
X-45187D01*
X-45901Y27409D02*
Y24409D01*
X-43230Y27409D02*
X-44658Y25409D01*
X-42516D01*
X-43230Y27409D02*
Y24409D01*
X-51575Y-59599D02*
X-50432Y-61027D01*
Y-62598D01*
X-49290Y-59599D02*
X-50432Y-61027D01*
X-48761Y-60313D02*
Y-60170D01*
X-48618Y-59885D01*
X-48476Y-59742D01*
X-48190Y-59599D01*
X-47618D01*
X-47333Y-59742D01*
X-47190Y-59885D01*
X-47047Y-60170D01*
Y-60456D01*
X-47190Y-60742D01*
X-47476Y-61170D01*
X-48904Y-62598D01*
X-46904D01*
X-52362Y-33615D02*
Y-35757D01*
X-52219Y-36186D01*
X-51934Y-36471D01*
X-51505Y-36614D01*
X-51220D01*
X-50791Y-36471D01*
X-50506Y-36186D01*
X-50363Y-35757D01*
Y-33615D01*
X-49391Y-34329D02*
Y-34186D01*
X-49249Y-33900D01*
X-49106Y-33758D01*
X-48820Y-33615D01*
X-48249D01*
X-47963Y-33758D01*
X-47820Y-33900D01*
X-47677Y-34186D01*
Y-34472D01*
X-47820Y-34757D01*
X-48106Y-35186D01*
X-49534Y-36614D01*
X-47535D01*
X-30238Y-34669D02*
X-30524Y-34811D01*
X-30809Y-35097D01*
X-30952Y-35383D01*
Y-35954D01*
X-30809Y-36240D01*
X-30524Y-36525D01*
X-30238Y-36668D01*
X-29809Y-36811D01*
X-29095D01*
X-28667Y-36668D01*
X-28381Y-36525D01*
X-28096Y-36240D01*
X-27953Y-35954D01*
Y-35383D01*
X-28096Y-35097D01*
X-28381Y-34811D01*
X-28667Y-34669D01*
X-30952Y-32398D02*
X-28953Y-33826D01*
Y-31684D01*
X-30952Y-32398D02*
X-27953D01*
X-30238Y-31012D02*
X-30381D01*
X-30667Y-30869D01*
X-30809Y-30727D01*
X-30952Y-30441D01*
Y-29870D01*
X-30809Y-29584D01*
X-30667Y-29441D01*
X-30381Y-29298D01*
X-30095D01*
X-29809Y-29441D01*
X-29381Y-29727D01*
X-27953Y-31155D01*
Y-29155D01*
X-74726Y-51007D02*
X-75012Y-51150D01*
X-75297Y-51436D01*
X-75440Y-51721D01*
Y-52293D01*
X-75297Y-52578D01*
X-75012Y-52864D01*
X-74726Y-53007D01*
X-74298Y-53150D01*
X-73584D01*
X-73155Y-53007D01*
X-72869Y-52864D01*
X-72584Y-52578D01*
X-72441Y-52293D01*
Y-51721D01*
X-72584Y-51436D01*
X-72869Y-51150D01*
X-73155Y-51007D01*
X-75440Y-48736D02*
X-73441Y-50165D01*
Y-48022D01*
X-75440Y-48736D02*
X-72441D01*
X-74869Y-47494D02*
X-75012Y-47208D01*
X-75440Y-46780D01*
X-72441D01*
X-89590Y-42990D02*
X-89733Y-42705D01*
X-90018Y-42419D01*
X-90304Y-42276D01*
X-90875D01*
X-91161Y-42419D01*
X-91447Y-42705D01*
X-91589Y-42990D01*
X-91732Y-43419D01*
Y-44133D01*
X-91589Y-44561D01*
X-91447Y-44847D01*
X-91161Y-45133D01*
X-90875Y-45276D01*
X-90304D01*
X-90018Y-45133D01*
X-89733Y-44847D01*
X-89590Y-44561D01*
X-87319Y-42276D02*
X-88747Y-44276D01*
X-86605D01*
X-87319Y-42276D02*
Y-45276D01*
X-85219Y-42276D02*
X-85648Y-42419D01*
X-85934Y-42847D01*
X-86076Y-43562D01*
Y-43990D01*
X-85934Y-44704D01*
X-85648Y-45133D01*
X-85219Y-45276D01*
X-84934D01*
X-84505Y-45133D01*
X-84220Y-44704D01*
X-84077Y-43990D01*
Y-43562D01*
X-84220Y-42847D01*
X-84505Y-42419D01*
X-84934Y-42276D01*
X-85219D01*
X-73939Y-32700D02*
X-74224Y-32843D01*
X-74510Y-33129D01*
X-74653Y-33414D01*
Y-33986D01*
X-74510Y-34271D01*
X-74224Y-34557D01*
X-73939Y-34700D01*
X-73510Y-34843D01*
X-72796D01*
X-72368Y-34700D01*
X-72082Y-34557D01*
X-71796Y-34271D01*
X-71653Y-33986D01*
Y-33414D01*
X-71796Y-33129D01*
X-72082Y-32843D01*
X-72368Y-32700D01*
X-74653Y-31572D02*
Y-30001D01*
X-73510Y-30858D01*
Y-30429D01*
X-73368Y-30143D01*
X-73225Y-30001D01*
X-72796Y-29858D01*
X-72510D01*
X-72082Y-30001D01*
X-71796Y-30286D01*
X-71653Y-30715D01*
Y-31143D01*
X-71796Y-31572D01*
X-71939Y-31715D01*
X-72225Y-31857D01*
X-74224Y-27473D02*
X-74510Y-27615D01*
X-74653Y-28044D01*
Y-28330D01*
X-74510Y-28758D01*
X-74082Y-29044D01*
X-73368Y-29187D01*
X-72653D01*
X-72082Y-29044D01*
X-71796Y-28758D01*
X-71653Y-28330D01*
Y-28187D01*
X-71796Y-27758D01*
X-72082Y-27473D01*
X-72510Y-27330D01*
X-72653D01*
X-73082Y-27473D01*
X-73368Y-27758D01*
X-73510Y-28187D01*
Y-28330D01*
X-73368Y-28758D01*
X-73082Y-29044D01*
X-72653Y-29187D01*
X-66852Y-23448D02*
X-67138Y-23591D01*
X-67423Y-23877D01*
X-67566Y-24162D01*
Y-24734D01*
X-67423Y-25019D01*
X-67138Y-25305D01*
X-66852Y-25448D01*
X-66424Y-25591D01*
X-65710D01*
X-65281Y-25448D01*
X-64995Y-25305D01*
X-64710Y-25019D01*
X-64567Y-24734D01*
Y-24162D01*
X-64710Y-23877D01*
X-64995Y-23591D01*
X-65281Y-23448D01*
X-67566Y-22320D02*
Y-20749D01*
X-66424Y-21606D01*
Y-21177D01*
X-66281Y-20892D01*
X-66138Y-20749D01*
X-65710Y-20606D01*
X-65424D01*
X-64995Y-20749D01*
X-64710Y-21034D01*
X-64567Y-21463D01*
Y-21891D01*
X-64710Y-22320D01*
X-64853Y-22463D01*
X-65138Y-22605D01*
X-67566Y-18221D02*
Y-19649D01*
X-66281Y-19792D01*
X-66424Y-19649D01*
X-66566Y-19220D01*
Y-18792D01*
X-66424Y-18363D01*
X-66138Y-18078D01*
X-65710Y-17935D01*
X-65424D01*
X-64995Y-18078D01*
X-64710Y-18363D01*
X-64567Y-18792D01*
Y-19220D01*
X-64710Y-19649D01*
X-64853Y-19792D01*
X-65138Y-19935D01*
X-83781Y-31322D02*
X-84067Y-31465D01*
X-84353Y-31751D01*
X-84495Y-32036D01*
Y-32608D01*
X-84353Y-32893D01*
X-84067Y-33179D01*
X-83781Y-33322D01*
X-83353Y-33465D01*
X-82639D01*
X-82210Y-33322D01*
X-81924Y-33179D01*
X-81639Y-32893D01*
X-81496Y-32608D01*
Y-32036D01*
X-81639Y-31751D01*
X-81924Y-31465D01*
X-82210Y-31322D01*
X-84495Y-30194D02*
Y-28623D01*
X-83353Y-29480D01*
Y-29051D01*
X-83210Y-28766D01*
X-83067Y-28623D01*
X-82639Y-28480D01*
X-82353D01*
X-81924Y-28623D01*
X-81639Y-28908D01*
X-81496Y-29337D01*
Y-29765D01*
X-81639Y-30194D01*
X-81782Y-30337D01*
X-82067Y-30479D01*
X-84495Y-26380D02*
X-82496Y-27809D01*
Y-25666D01*
X-84495Y-26380D02*
X-81496D01*
X-71576Y-15968D02*
X-71862Y-16111D01*
X-72148Y-16396D01*
X-72291Y-16682D01*
Y-17253D01*
X-72148Y-17539D01*
X-71862Y-17825D01*
X-71576Y-17967D01*
X-71148Y-18110D01*
X-70434D01*
X-70006Y-17967D01*
X-69720Y-17825D01*
X-69434Y-17539D01*
X-69291Y-17253D01*
Y-16682D01*
X-69434Y-16396D01*
X-69720Y-16111D01*
X-70006Y-15968D01*
X-72291Y-14840D02*
Y-13268D01*
X-71148Y-14125D01*
Y-13697D01*
X-71005Y-13411D01*
X-70862Y-13268D01*
X-70434Y-13126D01*
X-70148D01*
X-69720Y-13268D01*
X-69434Y-13554D01*
X-69291Y-13983D01*
Y-14411D01*
X-69434Y-14840D01*
X-69577Y-14982D01*
X-69863Y-15125D01*
X-72291Y-12169D02*
Y-10598D01*
X-71148Y-11455D01*
Y-11026D01*
X-71005Y-10740D01*
X-70862Y-10598D01*
X-70434Y-10455D01*
X-70148D01*
X-69720Y-10598D01*
X-69434Y-10883D01*
X-69291Y-11312D01*
Y-11740D01*
X-69434Y-12169D01*
X-69577Y-12312D01*
X-69863Y-12454D01*
X-48251Y-22124D02*
X-48394Y-21839D01*
X-48680Y-21553D01*
X-48965Y-21410D01*
X-49537D01*
X-49822Y-21553D01*
X-50108Y-21839D01*
X-50251Y-22124D01*
X-50394Y-22553D01*
Y-23267D01*
X-50251Y-23695D01*
X-50108Y-23981D01*
X-49822Y-24267D01*
X-49537Y-24409D01*
X-48965D01*
X-48680Y-24267D01*
X-48394Y-23981D01*
X-48251Y-23695D01*
X-47123Y-21410D02*
X-45552D01*
X-46409Y-22553D01*
X-45980D01*
X-45695Y-22695D01*
X-45552Y-22838D01*
X-45409Y-23267D01*
Y-23552D01*
X-45552Y-23981D01*
X-45838Y-24267D01*
X-46266Y-24409D01*
X-46694D01*
X-47123Y-24267D01*
X-47266Y-24124D01*
X-47409Y-23838D01*
X-44595Y-22124D02*
Y-21981D01*
X-44452Y-21696D01*
X-44309Y-21553D01*
X-44024Y-21410D01*
X-43452D01*
X-43167Y-21553D01*
X-43024Y-21696D01*
X-42881Y-21981D01*
Y-22267D01*
X-43024Y-22553D01*
X-43310Y-22981D01*
X-44738Y-24409D01*
X-42738D01*
X-56125Y-9920D02*
X-56268Y-9634D01*
X-56554Y-9348D01*
X-56839Y-9205D01*
X-57411D01*
X-57696Y-9348D01*
X-57982Y-9634D01*
X-58125Y-9920D01*
X-58268Y-10348D01*
Y-11062D01*
X-58125Y-11491D01*
X-57982Y-11776D01*
X-57696Y-12062D01*
X-57411Y-12205D01*
X-56839D01*
X-56554Y-12062D01*
X-56268Y-11776D01*
X-56125Y-11491D01*
X-54997Y-9205D02*
X-53426D01*
X-54283Y-10348D01*
X-53854D01*
X-53569Y-10491D01*
X-53426Y-10634D01*
X-53283Y-11062D01*
Y-11348D01*
X-53426Y-11776D01*
X-53712Y-12062D01*
X-54140Y-12205D01*
X-54568D01*
X-54997Y-12062D01*
X-55140Y-11919D01*
X-55283Y-11633D01*
X-52612Y-9777D02*
X-52326Y-9634D01*
X-51898Y-9205D01*
Y-12205D01*
X-89590Y-38266D02*
X-89733Y-37980D01*
X-90018Y-37695D01*
X-90304Y-37552D01*
X-90875D01*
X-91161Y-37695D01*
X-91447Y-37980D01*
X-91589Y-38266D01*
X-91732Y-38695D01*
Y-39409D01*
X-91589Y-39837D01*
X-91447Y-40123D01*
X-91161Y-40408D01*
X-90875Y-40551D01*
X-90304D01*
X-90018Y-40408D01*
X-89733Y-40123D01*
X-89590Y-39837D01*
X-88462Y-37552D02*
X-86891D01*
X-87747Y-38695D01*
X-87319D01*
X-87033Y-38837D01*
X-86891Y-38980D01*
X-86748Y-39409D01*
Y-39694D01*
X-86891Y-40123D01*
X-87176Y-40408D01*
X-87605Y-40551D01*
X-88033D01*
X-88462Y-40408D01*
X-88604Y-40266D01*
X-88747Y-39980D01*
X-85219Y-37552D02*
X-85648Y-37695D01*
X-85934Y-38123D01*
X-86076Y-38837D01*
Y-39266D01*
X-85934Y-39980D01*
X-85648Y-40408D01*
X-85219Y-40551D01*
X-84934D01*
X-84505Y-40408D01*
X-84220Y-39980D01*
X-84077Y-39266D01*
Y-38837D01*
X-84220Y-38123D01*
X-84505Y-37695D01*
X-84934Y-37552D01*
X-85219D01*
X-44488Y-92670D02*
Y-95669D01*
Y-92670D02*
X-43203D01*
X-42774Y-92813D01*
X-42632Y-92956D01*
X-42489Y-93241D01*
Y-93527D01*
X-42632Y-93813D01*
X-42774Y-93955D01*
X-43203Y-94098D01*
X-44488D01*
X-43488D02*
X-42489Y-95669D01*
X-41675Y-93384D02*
Y-93241D01*
X-41532Y-92956D01*
X-41389Y-92813D01*
X-41103Y-92670D01*
X-40532D01*
X-40246Y-92813D01*
X-40103Y-92956D01*
X-39961Y-93241D01*
Y-93527D01*
X-40103Y-93813D01*
X-40389Y-94241D01*
X-41817Y-95669D01*
X-39818D01*
X-37290Y-93670D02*
X-37433Y-94098D01*
X-37718Y-94384D01*
X-38147Y-94527D01*
X-38289D01*
X-38718Y-94384D01*
X-39004Y-94098D01*
X-39147Y-93670D01*
Y-93527D01*
X-39004Y-93098D01*
X-38718Y-92813D01*
X-38289Y-92670D01*
X-38147D01*
X-37718Y-92813D01*
X-37433Y-93098D01*
X-37290Y-93670D01*
Y-94384D01*
X-37433Y-95098D01*
X-37718Y-95526D01*
X-38147Y-95669D01*
X-38432D01*
X-38861Y-95526D01*
X-39004Y-95241D01*
X-38976Y-87552D02*
Y-90551D01*
Y-87552D02*
X-37691D01*
X-37262Y-87695D01*
X-37120Y-87837D01*
X-36977Y-88123D01*
Y-88409D01*
X-37120Y-88694D01*
X-37262Y-88837D01*
X-37691Y-88980D01*
X-38976D01*
X-37977D02*
X-36977Y-90551D01*
X-36163Y-88266D02*
Y-88123D01*
X-36020Y-87837D01*
X-35877Y-87695D01*
X-35591Y-87552D01*
X-35020D01*
X-34734Y-87695D01*
X-34592Y-87837D01*
X-34449Y-88123D01*
Y-88409D01*
X-34592Y-88694D01*
X-34877Y-89123D01*
X-36305Y-90551D01*
X-34306D01*
X-33635Y-88123D02*
X-33349Y-87980D01*
X-32921Y-87552D01*
Y-90551D01*
X-58511Y-90158D02*
X-55512D01*
X-58511D02*
Y-88872D01*
X-58368Y-88444D01*
X-58226Y-88301D01*
X-57940Y-88158D01*
X-57654D01*
X-57369Y-88301D01*
X-57226Y-88444D01*
X-57083Y-88872D01*
Y-90158D01*
Y-89158D02*
X-55512Y-88158D01*
X-57797Y-87344D02*
X-57940D01*
X-58226Y-87201D01*
X-58368Y-87058D01*
X-58511Y-86773D01*
Y-86201D01*
X-58368Y-85915D01*
X-58226Y-85773D01*
X-57940Y-85630D01*
X-57654D01*
X-57369Y-85773D01*
X-56940Y-86058D01*
X-55512Y-87487D01*
Y-85487D01*
X-58511Y-83959D02*
X-58368Y-84387D01*
X-57940Y-84673D01*
X-57226Y-84816D01*
X-56797D01*
X-56083Y-84673D01*
X-55655Y-84387D01*
X-55512Y-83959D01*
Y-83673D01*
X-55655Y-83245D01*
X-56083Y-82959D01*
X-56797Y-82816D01*
X-57226D01*
X-57940Y-82959D01*
X-58368Y-83245D01*
X-58511Y-83673D01*
Y-83959D01*
X-38976Y-82827D02*
Y-85827D01*
Y-82827D02*
X-37691D01*
X-37262Y-82970D01*
X-37120Y-83113D01*
X-36977Y-83399D01*
Y-83684D01*
X-37120Y-83970D01*
X-37262Y-84113D01*
X-37691Y-84256D01*
X-38976D01*
X-37977D02*
X-36977Y-85827D01*
X-36305Y-83399D02*
X-36020Y-83256D01*
X-35591Y-82827D01*
Y-85827D01*
X-32249Y-83827D02*
X-32392Y-84256D01*
X-32678Y-84541D01*
X-33106Y-84684D01*
X-33249D01*
X-33678Y-84541D01*
X-33963Y-84256D01*
X-34106Y-83827D01*
Y-83684D01*
X-33963Y-83256D01*
X-33678Y-82970D01*
X-33249Y-82827D01*
X-33106D01*
X-32678Y-82970D01*
X-32392Y-83256D01*
X-32249Y-83827D01*
Y-84541D01*
X-32392Y-85255D01*
X-32678Y-85684D01*
X-33106Y-85827D01*
X-33392D01*
X-33820Y-85684D01*
X-33963Y-85398D01*
X-43701Y-77709D02*
Y-80709D01*
Y-77709D02*
X-42415D01*
X-41987Y-77852D01*
X-41844Y-77995D01*
X-41701Y-78281D01*
Y-78566D01*
X-41844Y-78852D01*
X-41987Y-78995D01*
X-42415Y-79138D01*
X-43701D01*
X-42701D02*
X-41701Y-80709D01*
X-41030Y-78281D02*
X-40744Y-78138D01*
X-40316Y-77709D01*
Y-80709D01*
X-38116Y-77709D02*
X-38545Y-77852D01*
X-38688Y-78138D01*
Y-78424D01*
X-38545Y-78709D01*
X-38259Y-78852D01*
X-37688Y-78995D01*
X-37259Y-79138D01*
X-36974Y-79423D01*
X-36831Y-79709D01*
Y-80137D01*
X-36974Y-80423D01*
X-37117Y-80566D01*
X-37545Y-80709D01*
X-38116D01*
X-38545Y-80566D01*
X-38688Y-80423D01*
X-38830Y-80137D01*
Y-79709D01*
X-38688Y-79423D01*
X-38402Y-79138D01*
X-37973Y-78995D01*
X-37402Y-78852D01*
X-37117Y-78709D01*
X-36974Y-78424D01*
Y-78138D01*
X-37117Y-77852D01*
X-37545Y-77709D01*
X-38116D01*
X-27088Y-49432D02*
X-27374Y-49575D01*
X-27660Y-49861D01*
X-27803Y-50147D01*
Y-50718D01*
X-27660Y-51003D01*
X-27374Y-51289D01*
X-27088Y-51432D01*
X-26660Y-51575D01*
X-25946D01*
X-25517Y-51432D01*
X-25232Y-51289D01*
X-24946Y-51003D01*
X-24803Y-50718D01*
Y-50147D01*
X-24946Y-49861D01*
X-25232Y-49575D01*
X-25517Y-49432D01*
X-26803Y-46733D02*
X-26374Y-46876D01*
X-26089Y-47161D01*
X-25946Y-47590D01*
Y-47733D01*
X-26089Y-48161D01*
X-26374Y-48447D01*
X-26803Y-48590D01*
X-26945D01*
X-27374Y-48447D01*
X-27660Y-48161D01*
X-27803Y-47733D01*
Y-47590D01*
X-27660Y-47161D01*
X-27374Y-46876D01*
X-26803Y-46733D01*
X-26089D01*
X-25374Y-46876D01*
X-24946Y-47161D01*
X-24803Y-47590D01*
Y-47876D01*
X-24946Y-48304D01*
X-25232Y-48447D01*
X-36143Y-72956D02*
X-36429Y-73099D01*
X-36715Y-73384D01*
X-36858Y-73670D01*
Y-74242D01*
X-36715Y-74527D01*
X-36429Y-74813D01*
X-36143Y-74956D01*
X-35715Y-75098D01*
X-35001D01*
X-34572Y-74956D01*
X-34287Y-74813D01*
X-34001Y-74527D01*
X-33858Y-74242D01*
Y-73670D01*
X-34001Y-73384D01*
X-34287Y-73099D01*
X-34572Y-72956D01*
X-36858Y-70685D02*
X-34858Y-72113D01*
Y-69971D01*
X-36858Y-70685D02*
X-33858D01*
X-36858Y-67729D02*
Y-69157D01*
X-35572Y-69300D01*
X-35715Y-69157D01*
X-35858Y-68728D01*
Y-68300D01*
X-35715Y-67871D01*
X-35429Y-67586D01*
X-35001Y-67443D01*
X-34715D01*
X-34287Y-67586D01*
X-34001Y-67871D01*
X-33858Y-68300D01*
Y-68728D01*
X-34001Y-69157D01*
X-34144Y-69300D01*
X-34430Y-69442D01*
X-66449Y-64961D02*
X-63450D01*
X-66449D02*
Y-63675D01*
X-66307Y-63247D01*
X-66164Y-63104D01*
X-65878Y-62961D01*
X-65592D01*
X-65307Y-63104D01*
X-65164Y-63247D01*
X-65021Y-63675D01*
Y-64961D01*
Y-63961D02*
X-63450Y-62961D01*
X-65878Y-62290D02*
X-66021Y-62004D01*
X-66449Y-61576D01*
X-63450D01*
X-66449Y-58376D02*
Y-59805D01*
X-65164Y-59947D01*
X-65307Y-59805D01*
X-65450Y-59376D01*
Y-58948D01*
X-65307Y-58519D01*
X-65021Y-58233D01*
X-64593Y-58091D01*
X-64307D01*
X-63879Y-58233D01*
X-63593Y-58519D01*
X-63450Y-58948D01*
Y-59376D01*
X-63593Y-59805D01*
X-63736Y-59947D01*
X-64021Y-60090D01*
D187*
X13976Y71063D02*
X24606D01*
X13976Y76968D02*
X24606D01*
Y71063D02*
Y76968D01*
X13976Y71063D02*
Y76968D01*
X13189Y82284D02*
Y86221D01*
X20669Y82284D02*
Y86221D01*
X13189D02*
X20669D01*
X13189Y82284D02*
X20669D01*
X25394Y71063D02*
Y76968D01*
X36024Y71063D02*
Y76968D01*
X25394D02*
X36024D01*
X25394Y71063D02*
X36024D01*
X-41732Y-75000D02*
X-37795D01*
X-41732Y-67520D02*
X-37795D01*
X-41732Y-75000D02*
Y-67520D01*
X-37795Y-75000D02*
Y-67520D01*
X-62795Y-53347D02*
X-56890D01*
X-62795Y-63976D02*
X-56890D01*
Y-53347D01*
X-62795Y-63976D02*
Y-53347D01*
X-110630Y-66732D02*
Y-59252D01*
X-106693Y-66732D02*
Y-59252D01*
X-110630Y-66732D02*
X-106693D01*
X-110630Y-59252D02*
X-106693D01*
X102559Y-59449D02*
X110039D01*
X102559Y-55512D02*
X110039D01*
Y-59449D02*
Y-55512D01*
X102559Y-59449D02*
Y-55512D01*
X12008Y82284D02*
Y86221D01*
X4528Y82284D02*
Y86221D01*
Y82284D02*
X12008D01*
X4528Y86221D02*
X12008D01*
X-32087Y-20472D02*
X-24606D01*
X-32087Y-16535D02*
X-24606D01*
Y-20472D02*
Y-16535D01*
X-32087Y-20472D02*
Y-16535D01*
X-33400Y-14173D02*
Y-10236D01*
X-40880Y-14173D02*
Y-10236D01*
Y-14173D02*
X-33400D01*
X-40880Y-10236D02*
X-33400D01*
X-40880Y-20472D02*
Y-16535D01*
X-33400Y-20472D02*
Y-16535D01*
X-40880D02*
X-33400D01*
X-40880Y-20472D02*
X-33400D01*
X-40880Y-9449D02*
X-33400D01*
X-40880Y-5512D02*
X-33400D01*
Y-9449D02*
Y-5512D01*
X-40880Y-9449D02*
Y-5512D01*
X-71850Y-35827D02*
X-64370D01*
X-71850Y-39764D02*
X-64370D01*
X-71850D02*
Y-35827D01*
X-64370Y-39764D02*
Y-35827D01*
X66732Y25984D02*
X74213D01*
X66732Y22047D02*
X74213D01*
X66732D02*
Y25984D01*
X74213Y22047D02*
Y25984D01*
X78740Y16437D02*
Y26083D01*
X86614Y16437D02*
Y26083D01*
X78740Y16437D02*
X86614D01*
X78740Y26083D02*
X86614D01*
X87598Y20079D02*
X95079D01*
X87598Y16142D02*
X95079D01*
X87598D02*
Y20079D01*
X95079Y16142D02*
Y20079D01*
X77362Y15551D02*
Y21457D01*
X66732Y15551D02*
Y21457D01*
Y15551D02*
X77362D01*
X66732Y21457D02*
X77362D01*
X60630Y16437D02*
Y26083D01*
X52756Y16437D02*
Y26083D01*
X60630D01*
X52756Y16437D02*
X60630D01*
X44291Y22047D02*
X51772D01*
X44291Y25984D02*
X51772D01*
Y22047D02*
Y25984D01*
X44291Y22047D02*
Y25984D01*
X12598Y48228D02*
X16535D01*
X12598Y40748D02*
X16535D01*
Y48228D01*
X12598Y40748D02*
Y48228D01*
X33268Y-62795D02*
Y-5709D01*
X-23819Y-62795D02*
Y-5709D01*
Y-62795D02*
X33268D01*
X-23819Y-5709D02*
X33268D01*
X-27953Y-6102D02*
X-24016D01*
X-27953Y-13583D02*
X-24016D01*
Y-6102D01*
X-27953Y-13583D02*
Y-6102D01*
X24606Y-67323D02*
X32087D01*
X24606Y-63386D02*
X32087D01*
Y-67323D02*
Y-63386D01*
X24606Y-67323D02*
Y-63386D01*
X44882Y-49016D02*
Y-41535D01*
X48819Y-49016D02*
Y-41535D01*
X44882Y-49016D02*
X48819D01*
X44882Y-41535D02*
X48819D01*
X12598Y56890D02*
X16535D01*
X12598Y49409D02*
X16535D01*
Y56890D01*
X12598Y49409D02*
Y56890D01*
X-29724Y44685D02*
Y50591D01*
X-40354Y44685D02*
Y50591D01*
Y44685D02*
X-29724D01*
X-40354Y50591D02*
X-29724D01*
X-46457Y48622D02*
Y56102D01*
X-50394Y48622D02*
Y56102D01*
X-46457D01*
X-50394Y48622D02*
X-46457D01*
X-41339D02*
Y56102D01*
X-45276Y48622D02*
Y56102D01*
X-41339D01*
X-45276Y48622D02*
X-41339D01*
X-45276Y57284D02*
Y64764D01*
X-41339Y57284D02*
Y64764D01*
X-45276Y57284D02*
X-41339D01*
X-45276Y64764D02*
X-41339D01*
X-40748Y70866D02*
X-33268D01*
X-40748Y74803D02*
X-33268D01*
Y70866D02*
Y74803D01*
X-40748Y70866D02*
Y74803D01*
X-32087Y74803D02*
X-24606D01*
X-32087Y70866D02*
X-24606D01*
X-32087D02*
Y74803D01*
X-24606Y70866D02*
Y74803D01*
X-52165Y57284D02*
X-46260D01*
X-52165Y67913D02*
X-46260D01*
X-52165Y57284D02*
Y67913D01*
X-46260Y57284D02*
Y67913D01*
X-65551Y83476D02*
Y94476D01*
X-71457Y83476D02*
Y94476D01*
X-65551D01*
X-71457Y83476D02*
X-65551D01*
X-58858Y63201D02*
X-52953D01*
X-58858Y74201D02*
X-52953D01*
X-58858Y63201D02*
Y74201D01*
X-52953Y63201D02*
Y74201D01*
X-50984Y41831D02*
Y56595D01*
X-64764Y41831D02*
Y56595D01*
X-50984D01*
X-64764Y41831D02*
X-50984D01*
X33858Y-17126D02*
Y-9646D01*
X37795Y-17126D02*
Y-9646D01*
X33858Y-17126D02*
X37795D01*
X33858Y-9646D02*
X37795D01*
X34843Y77362D02*
Y87992D01*
X28937Y77362D02*
Y87992D01*
X34843D01*
X28937Y77362D02*
X34843D01*
X-35433Y-36417D02*
Y-28937D01*
X-31496Y-36417D02*
Y-28937D01*
X-35433Y-36417D02*
X-31496D01*
X-35433Y-28937D02*
X-31496D01*
X-71850Y-43307D02*
X-64370D01*
X-71850Y-56693D02*
X-64370D01*
Y-43307D01*
X-71850Y-56693D02*
Y-43307D01*
X-83268Y-45669D02*
X-75787D01*
X-83268Y-41732D02*
X-75787D01*
Y-45669D02*
Y-41732D01*
X-83268Y-45669D02*
Y-41732D01*
X-72835Y-34843D02*
Y-27362D01*
X-68898Y-34843D02*
Y-27362D01*
X-72835Y-34843D02*
X-68898D01*
X-72835Y-27362D02*
X-68898D01*
X-68110Y-33661D02*
Y-26181D01*
X-64173Y-33661D02*
Y-26181D01*
X-68110Y-33661D02*
X-64173D01*
X-68110Y-26181D02*
X-64173D01*
X-80905Y-36220D02*
X-73425D01*
X-80905Y-22835D02*
X-73425D01*
X-80905Y-36220D02*
Y-22835D01*
X-73425Y-36220D02*
Y-22835D01*
X-68898Y-26181D02*
Y-18701D01*
X-72835Y-26181D02*
Y-18701D01*
X-68898D01*
X-72835Y-26181D02*
X-68898D01*
X-58465Y-24803D02*
X-50984D01*
X-58465Y-20866D02*
X-50984D01*
Y-24803D02*
Y-20866D01*
X-58465Y-24803D02*
Y-20866D01*
X-48031Y-20276D02*
Y-12795D01*
X-61417Y-20276D02*
Y-12795D01*
Y-20276D02*
X-48031D01*
X-61417Y-12795D02*
X-48031D01*
X-83268Y-40945D02*
X-75787D01*
X-83268Y-37008D02*
X-75787D01*
Y-40945D02*
Y-37008D01*
X-83268Y-40945D02*
Y-37008D01*
X-28346Y-60039D02*
X-24409D01*
X-28346Y-52559D02*
X-24409D01*
X-28346Y-60039D02*
Y-52559D01*
X-24409Y-60039D02*
Y-52559D01*
M02*
