G04*
G04 #@! TF.GenerationSoftware,Altium Limited,Altium Designer,22.0.2 (36)*
G04*
G04 Layer_Physical_Order=1*
G04 Layer_Color=255*
%FSLAX25Y25*%
%MOIN*%
G70*
G04*
G04 #@! TF.SameCoordinates,2161BBB5-3730-4A37-975F-558EB53CE70B*
G04*
G04*
G04 #@! TF.FilePolarity,Positive*
G04*
G01*
G75*
%ADD10C,0.01000*%
%ADD15C,0.00800*%
%ADD16C,0.01500*%
%ADD18C,0.00600*%
%ADD21R,0.02362X0.05906*%
%ADD22R,0.02362X0.04331*%
%ADD23R,0.01142X0.02087*%
%ADD24R,0.02559X0.01063*%
%ADD25R,0.02559X0.00984*%
%ADD26R,0.03543X0.03937*%
%ADD27R,0.02362X0.02520*%
%ADD28R,0.02953X0.02362*%
%ADD29R,0.02520X0.02362*%
%ADD30R,0.03740X0.03347*%
%ADD31R,0.03150X0.03937*%
%ADD32R,0.05906X0.02756*%
%ADD33R,0.02362X0.02953*%
%ADD34R,0.01181X0.02362*%
%ADD35R,0.00984X0.02657*%
%ADD36R,0.02657X0.00984*%
%ADD37R,0.03347X0.02559*%
%ADD38R,0.07874X0.02362*%
%ADD39R,0.16535X0.02756*%
%ADD40R,0.01181X0.02047*%
%ADD41C,0.01575*%
%ADD42R,0.07480X0.07087*%
G04:AMPARAMS|DCode=43|XSize=62.99mil|YSize=55.12mil|CornerRadius=13.78mil|HoleSize=0mil|Usage=FLASHONLY|Rotation=180.000|XOffset=0mil|YOffset=0mil|HoleType=Round|Shape=RoundedRectangle|*
%AMROUNDEDRECTD43*
21,1,0.06299,0.02756,0,0,180.0*
21,1,0.03543,0.05512,0,0,180.0*
1,1,0.02756,-0.01772,0.01378*
1,1,0.02756,0.01772,0.01378*
1,1,0.02756,0.01772,-0.01378*
1,1,0.02756,-0.01772,-0.01378*
%
%ADD43ROUNDEDRECTD43*%
%ADD44O,0.01575X0.05315*%
%ADD45R,0.04134X0.05512*%
%ADD46R,0.03937X0.03543*%
%ADD47R,0.02756X0.04724*%
%ADD48R,0.03937X0.04724*%
%ADD49R,0.03937X0.03150*%
%ADD50R,0.03937X0.11024*%
%ADD51R,0.05118X0.07480*%
%ADD52R,0.03150X0.03150*%
%ADD53R,0.02559X0.03740*%
%ADD54R,0.03347X0.00984*%
%ADD55R,0.06221X0.09764*%
%ADD56R,0.03937X0.03937*%
%ADD57R,0.03937X0.03937*%
%ADD58R,0.16000X0.07500*%
%ADD59R,0.04331X0.04724*%
%ADD60R,0.01200X0.03600*%
%ADD61R,0.03600X0.01200*%
%ADD62R,0.12800X0.12800*%
%ADD63R,0.05512X0.05118*%
%ADD64R,0.05118X0.05512*%
%ADD65R,0.09843X0.04921*%
%ADD131C,0.01200*%
%ADD132C,0.02000*%
%ADD133C,0.03000*%
%ADD134C,0.02500*%
%ADD135C,0.05709*%
%ADD136C,0.03543*%
%ADD137C,0.02559*%
%ADD138O,0.04528X0.02559*%
%ADD139C,0.02362*%
%ADD140O,0.03937X0.06299*%
%ADD141O,0.03937X0.10079*%
%ADD142O,0.03543X0.06299*%
%ADD143C,0.11400*%
%ADD144C,0.01800*%
G36*
X-48425Y-21654D02*
X-52362Y-25591D01*
X-52362D01*
Y-26772D01*
X-54331D01*
Y-13386D01*
X-48425D01*
Y-21654D01*
D02*
G37*
G36*
X-55118Y-26772D02*
X-56299D01*
Y-30709D01*
X-57480D01*
X-59055Y-29134D01*
X-59055Y-22835D01*
X-60630Y-21260D01*
Y-13386D01*
X-55118D01*
Y-26772D01*
D02*
G37*
G36*
X-68111Y-23228D02*
X-58859Y-32480D01*
X-61256Y-32480D01*
X-66767Y-26969D01*
X-79528Y-26969D01*
Y-23228D01*
X-68111Y-23228D01*
D02*
G37*
G36*
X-29921Y-30315D02*
Y-32283D01*
X-35039D01*
X-35827Y-33071D01*
X-42126D01*
Y-31890D01*
X-39370Y-29134D01*
X-31102D01*
X-29921Y-30315D01*
D02*
G37*
G36*
X-67323Y-30709D02*
X-64961D01*
X-61811Y-33858D01*
Y-35039D01*
X-63386D01*
X-65748Y-32677D01*
X-67323D01*
X-69685Y-30315D01*
Y-29921D01*
X-72047D01*
X-74803Y-32677D01*
Y-31102D01*
X-72047Y-28346D01*
Y-28346D01*
X-69685D01*
X-67323Y-30709D01*
D02*
G37*
G36*
X-68898Y-33465D02*
Y-38976D01*
X-72441D01*
Y-33228D01*
X-71653Y-32283D01*
X-70079D01*
X-68898Y-33465D01*
D02*
G37*
G36*
X-64173Y-35827D02*
X-62205D01*
Y-38976D01*
X-67323Y-38976D01*
Y-34252D01*
X-65748Y-34252D01*
X-64173Y-35827D01*
D02*
G37*
G36*
X-62205Y-44882D02*
X-66535Y-49213D01*
X-75590D01*
Y-44882D01*
X-73622D01*
X-72441Y-43701D01*
X-62205D01*
Y-44882D01*
D02*
G37*
G36*
X-58661Y-53150D02*
X-62992D01*
Y-55118D01*
X-75590D01*
Y-50394D01*
X-64173D01*
Y-48425D01*
X-61417Y-45669D01*
X-58661D01*
Y-53150D01*
D02*
G37*
D10*
X-70866Y-20709D02*
X-70827Y-20669D01*
X-70866Y-35433D02*
Y-32835D01*
Y-36693D02*
Y-35433D01*
Y-36693D02*
X-69842Y-37716D01*
Y-37795D02*
Y-37716D01*
X-53937Y-43307D02*
X-50000Y-39370D01*
X-54921Y-44291D02*
X-53937Y-43307D01*
X-50984Y-38386D02*
X-50000Y-39370D01*
X89606Y15118D02*
Y18110D01*
X89508Y18209D02*
X89606Y18110D01*
X84646Y18209D02*
X89508D01*
X50059Y24311D02*
X54724D01*
X-90158Y74331D02*
X-90158Y74331D01*
X-90158Y74331D02*
Y77165D01*
X-88189Y74331D02*
X-87599Y74921D01*
Y76968D01*
X50394Y24646D02*
Y26772D01*
X49764Y24016D02*
X50059Y24311D01*
X50394Y24646D01*
D15*
X-110630Y-16142D02*
Y-1575D01*
X-114862Y-20374D02*
X-110630Y-16142D01*
X-114862Y-38583D02*
Y-20374D01*
X31995Y72447D02*
X33563Y74016D01*
X27559Y38189D02*
Y39764D01*
X27165Y40157D02*
X27559Y39764D01*
X27165Y40157D02*
Y57087D01*
X23228Y63386D02*
Y74016D01*
Y63386D02*
X28740Y57874D01*
Y40945D02*
Y57874D01*
Y40945D02*
X29921Y39764D01*
Y33071D02*
Y39764D01*
X15354Y63976D02*
X20276D01*
X11024D02*
X15354D01*
X15276Y64055D02*
X15354Y63976D01*
X15276Y64055D02*
Y66929D01*
X20276Y63976D02*
X27165Y57087D01*
X29921Y33071D02*
X50000Y12992D01*
X-28740Y93307D02*
X-27559Y94488D01*
X22835D01*
X27559Y89764D01*
Y84646D02*
Y89764D01*
X31890Y70866D02*
Y72047D01*
X31995Y72152D01*
Y72447D01*
X33563Y74016D02*
X33858D01*
X30315Y69291D02*
X31890Y70866D01*
X19291Y70630D02*
X20577Y71916D01*
Y72644D01*
X21949Y74016D01*
X15276Y70630D02*
X19291D01*
X12651Y68006D02*
X15276Y70630D01*
X11116Y68006D02*
X12651D01*
X11024Y67913D02*
X11116Y68006D01*
X26772Y72736D02*
X28051Y74016D01*
X26772Y70472D02*
Y72736D01*
X50000Y-2756D02*
Y12992D01*
X45924Y-6832D02*
X50000Y-2756D01*
X44349Y-6832D02*
X45924D01*
X0Y23130D02*
X30020D01*
X43307Y9843D01*
Y4134D02*
Y9843D01*
X40157Y984D02*
X43307Y4134D01*
X40157Y-394D02*
Y984D01*
X32776Y3543D02*
X33071Y3839D01*
Y7480D01*
X37008Y3248D02*
X37303Y3543D01*
X37008Y-394D02*
Y3248D01*
X18661Y80309D02*
X19443Y79528D01*
X19140Y79285D02*
X19384Y79528D01*
X18898Y77559D02*
Y79528D01*
X18054Y76716D02*
X18898Y77559D01*
X18054Y75042D02*
Y76716D01*
X17028Y74016D02*
X18054Y75042D01*
X42678Y-8503D02*
X44349Y-6832D01*
X42678Y-15196D02*
Y-8503D01*
X41339Y-16535D02*
X42678Y-15196D01*
X5754Y79528D02*
X5906D01*
X5610D02*
X5754D01*
X8268Y76378D02*
X10236D01*
X6687Y77959D02*
X8268Y76378D01*
X6687Y77959D02*
Y78746D01*
X5906Y79528D02*
X6687Y78746D01*
X-4724Y70866D02*
X-3543Y69685D01*
Y66535D02*
Y69685D01*
X-4724Y65354D02*
X-3543Y66535D01*
X19443Y79528D02*
X19587D01*
X19384D02*
X19443D01*
X5754D02*
X6535Y80309D01*
Y84252D01*
X18661Y80309D02*
Y84252D01*
X-48898Y70630D02*
X-48425Y70157D01*
X-51575Y70630D02*
X-48898D01*
X-57874Y53937D02*
X-57776Y53839D01*
Y52658D02*
Y53839D01*
X-100394Y72342D02*
Y76772D01*
X-14173Y52362D02*
Y73622D01*
Y52362D02*
Y52362D01*
X-11024Y44094D02*
Y45669D01*
Y9843D02*
Y44094D01*
X100394Y-58268D02*
Y-56299D01*
X-109449Y-56850D02*
Y-23228D01*
X-112047Y-59449D02*
X-109449Y-56850D01*
X-118504Y-59449D02*
X-112047D01*
X-120453Y-63721D02*
Y-61398D01*
X-118504Y-59449D01*
X-113195Y4128D02*
X-107480Y9843D01*
X100394Y-58268D02*
X103986Y-61860D01*
Y-63642D02*
Y-61860D01*
X15773Y-60655D02*
X22582Y-67464D01*
X48031Y-56299D02*
X53543D01*
X44882Y-74114D02*
Y-68996D01*
X44783Y-74311D02*
Y-74016D01*
X57506Y-64935D02*
X67348D01*
X45958Y-75191D02*
X45965Y-75197D01*
X45663Y-75191D02*
X45958D01*
X44783Y-74311D02*
X45663Y-75191D01*
X45965Y-75197D02*
X47244D01*
X57506Y-64935D01*
X44783Y-78740D02*
Y-78445D01*
X45958Y-77565D02*
X45965Y-77559D01*
X45663Y-77565D02*
X45958D01*
X44783Y-78445D02*
X45663Y-77565D01*
X45965Y-77559D02*
X47357D01*
X58380Y-66535D01*
X44783Y-68898D02*
X44882Y-68996D01*
X61024Y-43543D02*
X63189Y-45709D01*
Y-56398D02*
Y-45709D01*
X62598Y-56988D02*
X63189Y-56398D01*
X53724Y-40731D02*
X58212D01*
X53543Y-40551D02*
X53724Y-40731D01*
X58212D02*
X61024Y-43543D01*
X53543Y-44488D02*
X58864D01*
X59478Y-56988D02*
X61417Y-55049D01*
Y-47042D01*
X58864Y-44488D02*
X61417Y-47042D01*
X59153Y-56988D02*
X59478D01*
X58864Y-48223D02*
X59055Y-48031D01*
X53746Y-48223D02*
X58864D01*
X53543Y-48425D02*
X53746Y-48223D01*
X53553Y-52353D02*
X59055D01*
X53543Y-52362D02*
X53553Y-52353D01*
X28346Y-42126D02*
X31496D01*
X33071Y-40551D01*
X37795D01*
X47638Y-30709D01*
X32283Y-7874D02*
X35433D01*
X39370Y-16535D02*
X41339D01*
X48744Y-9523D02*
X56693Y-1575D01*
X44882Y-9523D02*
X48744D01*
X47259Y-26364D02*
X51968Y-21654D01*
X28361Y-26364D02*
X47259D01*
X53150Y-27953D02*
X59449Y-21654D01*
X29528Y-27953D02*
X53150D01*
X56693Y-1575D02*
Y18209D01*
X-41004D02*
X-21024Y38189D01*
X-16535D02*
X-16535Y38189D01*
X-21024Y38189D02*
X-16535D01*
X-57495Y18209D02*
X-41004D01*
X-69011Y6693D02*
X-57495Y18209D01*
X-44193Y21260D02*
X-40945D01*
X-45079Y24409D02*
X-44193Y23524D01*
Y21260D02*
Y23524D01*
X-53740Y24409D02*
X-45079D01*
X-69882Y8268D02*
X-53740Y24409D01*
X-31890Y-7087D02*
X-27165Y-2362D01*
Y21260D01*
X-787Y23917D02*
X0Y23130D01*
X-787Y23917D02*
Y30709D01*
X51067Y-36614D02*
X53543D01*
X-29055Y-11575D02*
X-25984D01*
X-29134Y-11654D02*
X-29055Y-11575D01*
X-79528Y6693D02*
X-69011D01*
X-109449Y-23228D02*
X-79528Y6693D01*
X-100787Y8268D02*
X-69882D01*
X-54646Y25984D02*
X-36614D01*
X-70787Y9843D02*
X-54646Y25984D01*
X-107480Y9843D02*
X-70787D01*
X-110630Y-1575D02*
X-100787Y8268D01*
X-113195Y3242D02*
Y4128D01*
X-114862Y1575D02*
X-113195Y3242D01*
X-95177Y22539D02*
Y30709D01*
X-95276Y22441D02*
X-95177Y22539D01*
X-125591Y30709D02*
X-123228D01*
X-127953D02*
X-125591D01*
X-128347D02*
X-127953D01*
X-130709Y33071D02*
X-128347Y30709D01*
X-95177D02*
X-85177Y40709D01*
X-80472D01*
X-123228Y30709D02*
X-95177D01*
X-91339Y17480D02*
Y20207D01*
X-91332Y20213D01*
Y21660D01*
X-90551Y22441D01*
X-95433Y13386D02*
X-91339Y17480D01*
X-123228Y13386D02*
X-95433D01*
X-36614Y25984D02*
X-33465Y29134D01*
X-71260Y52756D02*
X-70472Y53543D01*
X-104961Y52756D02*
X-71260D01*
X-70473Y-47638D02*
X-69685Y-48425D01*
X-26274Y-61786D02*
X-11811D01*
X-36220Y-71732D02*
X-26274Y-61786D01*
X-36220Y-83465D02*
Y-71732D01*
X-25591Y-63386D02*
X-11024D01*
X-34646Y-72441D02*
X-25591Y-63386D01*
X-34646Y-84252D02*
Y-72441D01*
X-37821Y-87427D02*
X-34646Y-84252D01*
X-38583Y-85827D02*
X-36220Y-83465D01*
X-50784Y-50854D02*
X-47701Y-53937D01*
X-50784Y-50854D02*
Y-49220D01*
X-50984Y-49020D02*
X-50784Y-49220D01*
X-47701Y-53937D02*
X-37795D01*
X58380Y-66535D02*
X69291D01*
X25462Y-69064D02*
X35138Y-78740D01*
X21920Y-69064D02*
X25462D01*
X14273Y-61417D02*
X21920Y-69064D01*
X14173Y-61417D02*
X14273D01*
X28586Y-67464D02*
X35138Y-74016D01*
X22582Y-67464D02*
X28586D01*
X66142Y15354D02*
X68504Y12992D01*
X66142Y15354D02*
Y27953D01*
X64961Y29134D02*
X66142Y27953D01*
X74803Y8268D02*
Y11319D01*
X41732Y-40152D02*
X41929Y-39955D01*
X32441Y-18504D02*
X35827Y-15118D01*
X30709Y-18504D02*
X32441D01*
X41732Y-43701D02*
Y-40152D01*
X28346Y-26378D02*
X28361Y-26364D01*
X25197Y-13780D02*
X26772Y-12205D01*
X-125591Y13386D02*
X-123228D01*
X-127953D02*
X-125591D01*
X-130315D02*
X-127953D01*
X-130709D02*
X-130315D01*
X-125591Y33071D02*
X-123228D01*
X-127953D02*
X-125591D01*
X-130315D02*
X-127953D01*
X-130709D02*
X-130315D01*
X-114862Y-52756D02*
Y-38583D01*
X-17717Y65748D02*
Y70571D01*
X61319Y13780D02*
X61417Y13681D01*
Y9449D02*
Y13681D01*
X23622Y14665D02*
X23720Y14567D01*
X23622Y14665D02*
Y18110D01*
X-19685Y72539D02*
X-17717Y70571D01*
X84646Y24311D02*
X87402D01*
X56693Y22441D02*
Y24311D01*
X82677Y14961D02*
X83071Y14567D01*
X82677Y14961D02*
Y18209D01*
X79429Y11417D02*
X79921Y11909D01*
Y14567D01*
X80315D01*
X80709Y14961D01*
X77067Y14567D02*
X78347Y15846D01*
X68504Y12992D02*
X70472D01*
X72047Y14567D02*
X77067D01*
X70472Y12992D02*
X72047Y14567D01*
X79232Y18209D02*
X80709D01*
X78347Y17323D02*
X79232Y18209D01*
X78347Y15846D02*
Y17323D01*
X80709Y14961D02*
Y18209D01*
X64961Y29134D02*
Y30709D01*
X64173Y31496D02*
X64961Y30709D01*
X76772Y23228D02*
Y26378D01*
X73622Y29528D02*
X76772Y26378D01*
X73622Y29528D02*
Y30709D01*
X76772Y23228D02*
X78740Y21260D01*
X81496D01*
X72835Y31496D02*
X73622Y30709D01*
X93071Y15118D02*
Y18110D01*
X10236Y5512D02*
X17323Y-1575D01*
X8661Y4724D02*
X15748Y-2362D01*
X4724Y787D02*
X7874D01*
X-1575Y7087D02*
X4724Y787D01*
X-1575Y7087D02*
Y10236D01*
X5512Y2362D02*
X8661D01*
X3937Y3937D02*
X5512Y2362D01*
X3937Y3937D02*
Y9449D01*
X4724Y10236D01*
X7874Y787D02*
X12598Y-3937D01*
X-9449Y10630D02*
Y73622D01*
Y10630D02*
X4724Y-3543D01*
Y-9055D02*
Y-3543D01*
X3150Y-10630D02*
Y-4331D01*
X-11024Y9843D02*
X3150Y-4331D01*
X1575Y-9055D02*
Y-5118D01*
X-0Y-10630D02*
Y-5906D01*
X-15748Y78347D02*
X-14961Y79134D01*
Y86221D01*
X-9449Y73622D02*
X-7874Y75197D01*
Y78347D01*
X-8661Y79134D02*
X-7874Y78347D01*
X-8661Y79134D02*
Y86221D01*
X-11024Y74410D02*
X-9449Y75984D01*
Y77559D01*
X-10630Y78740D02*
X-9449Y77559D01*
X-10630Y78740D02*
Y84646D01*
X-14173Y77559D02*
X-12992Y78740D01*
Y84646D01*
X83858Y21260D02*
X87402D01*
X82677Y22441D02*
X83858Y21260D01*
X82677Y22441D02*
Y24311D01*
Y18209D02*
Y20079D01*
X81496Y21260D02*
X82677Y20079D01*
X78839Y24311D02*
X80709D01*
X58661D02*
Y30315D01*
X59842Y31496D01*
X56693Y24311D02*
Y30315D01*
X55512Y31496D02*
X56693Y30315D01*
X84646Y24311D02*
Y30315D01*
X85827Y31496D01*
X82677Y24311D02*
Y30315D01*
X81496Y31496D02*
X82677Y30315D01*
X-72047Y76378D02*
Y79134D01*
Y76378D02*
X-70965Y75295D01*
X-68504Y79823D02*
Y86024D01*
Y79724D02*
Y79823D01*
Y75295D02*
X-67716D01*
X-70965D02*
X-68504D01*
X-53543Y44094D02*
X-29921D01*
X-37795Y44685D02*
X-37697Y44783D01*
X-54134Y44685D02*
X-53543Y44094D01*
X-37697Y44783D02*
Y47638D01*
X-32677Y47933D02*
X-32382Y47638D01*
X-32677Y47933D02*
Y51181D01*
X17323Y-9449D02*
Y-1575D01*
X15748Y-10630D02*
Y-2362D01*
X14173Y-9449D02*
Y-3150D01*
X8661Y2362D02*
X14173Y-3150D01*
X12598Y-10630D02*
Y-3937D01*
X25197Y-10630D02*
X28346Y-7480D01*
X23622Y-8661D02*
X24409Y-7874D01*
X23622Y-9449D02*
Y-8661D01*
X22047Y-6299D02*
X22835Y-5512D01*
X20472Y-3937D02*
X21260Y-3150D01*
X20472Y-9449D02*
Y-3937D01*
X18898Y-1575D02*
X19685Y-787D01*
X18898Y-10630D02*
Y-1575D01*
X9449Y-7087D02*
X10236Y-6299D01*
X9449Y-10630D02*
Y-7087D01*
X7874Y-4724D02*
X8661Y-3937D01*
X6299Y-2362D02*
X7087Y-1575D01*
X6299Y-10630D02*
Y-2362D01*
X-18898Y-7480D02*
Y-7480D01*
Y-7480D02*
X-15748Y-10630D01*
X-10236Y-787D02*
X-9449Y-1575D01*
Y-10630D02*
Y-1575D01*
X-11811Y-3150D02*
X-11024Y-3937D01*
Y-9449D02*
Y-3937D01*
X-13386Y-5512D02*
X-12598Y-6299D01*
Y-10630D02*
Y-6299D01*
X-14173Y-9449D02*
Y-8661D01*
X-14961Y-7874D02*
X-14173Y-8661D01*
X-7874Y-2756D02*
X-7087Y-1969D01*
X-7874Y-9449D02*
Y-2756D01*
X-6299Y-4724D02*
X-5512Y-3937D01*
X-6299Y-10630D02*
Y-4724D01*
X-4724Y-7087D02*
X-3937Y-6299D01*
X-4724Y-9449D02*
Y-7087D01*
X-3150Y-9449D02*
X-2362Y-8661D01*
X-3150Y-10630D02*
Y-9449D01*
X46850Y-50000D02*
Y-47008D01*
X44921D02*
X46850D01*
X41732Y-50197D02*
X44921Y-47008D01*
X35630Y-50197D02*
X41732D01*
X46693Y-43701D02*
X46850Y-43543D01*
X41732Y-43701D02*
X46693D01*
X29528D02*
X35630D01*
X17323D02*
X18898Y-45276D01*
X31653Y-63779D02*
X32677D01*
X30079Y-65354D02*
X31653Y-63779D01*
X27165Y-64803D02*
Y-61417D01*
X26614Y-65354D02*
X27165Y-64803D01*
X44882Y-64272D02*
Y-61417D01*
X37008Y-83858D02*
X40256D01*
X15773Y-60655D02*
Y-57899D01*
X15748Y-57874D02*
X15773Y-57899D01*
X14173Y-61417D02*
Y-59055D01*
X-92717Y74921D02*
X-92126Y74331D01*
X-92717Y74921D02*
Y76968D01*
X-34252Y81890D02*
X-32677Y80315D01*
Y77165D02*
Y80315D01*
Y57874D02*
Y64173D01*
X-35335Y55217D02*
X-32677Y57874D01*
X-39370Y73465D02*
Y76378D01*
Y73465D02*
X-38740Y72835D01*
X-44094Y63543D02*
X-43307Y62756D01*
X-51968Y79134D02*
Y81004D01*
X-51575Y70630D02*
Y71260D01*
X-44094Y63543D02*
Y65748D01*
X-38248Y55217D02*
X-35335D01*
X-32677Y51181D02*
Y57874D01*
X-61614Y44685D02*
Y45472D01*
X-58268Y48819D01*
X-54331D01*
X-51417Y54094D02*
X-48425D01*
X-55610Y59449D02*
X-55118Y59941D01*
X-49213D01*
X-40413Y56988D02*
X-38248D01*
X-43307Y54094D02*
X-40413Y56988D01*
X-48425Y54094D02*
X-43307D01*
X-48425D02*
Y59154D01*
X-49213Y59941D02*
X-48425Y59154D01*
X-42776Y58760D02*
X-38248D01*
X-43307Y59291D02*
X-42776Y58760D01*
X-49474Y75458D02*
Y80939D01*
X-49409Y81004D01*
X-49474Y75458D02*
X-48425Y74410D01*
Y73150D02*
Y73543D01*
Y74410D01*
X-41732Y81004D02*
X-41471Y80743D01*
X-41732Y78740D02*
Y81004D01*
X-46063Y67323D02*
X-44488Y68898D01*
X-47146Y67323D02*
X-46063D01*
X-49213Y65256D02*
X-47146Y67323D01*
X-44488Y68898D02*
Y70551D01*
X-42126Y78347D02*
X-41732Y78740D01*
X-42126Y71654D02*
Y78347D01*
X-43228Y70551D02*
X-42126Y71654D01*
X-44488Y70551D02*
X-43228D01*
X-44488Y76772D02*
X-44291Y76968D01*
X-44488Y73150D02*
Y73543D01*
Y76772D01*
X-38976Y79134D02*
Y83858D01*
X-35276Y72835D02*
Y75433D01*
X-44291Y84055D02*
X-43307Y85039D01*
X-40157D02*
X-38976Y83858D01*
X-35276Y67972D02*
Y72835D01*
X-35531Y67717D02*
X-35276Y67972D01*
X-38976Y79134D02*
X-38451Y78608D01*
X-38446D01*
X-37140Y77302D01*
Y77298D02*
Y77302D01*
Y77298D02*
X-35276Y75433D01*
X-43307Y85039D02*
X-40157D01*
X-46850Y76772D02*
X-46457Y76378D01*
Y73150D02*
Y73543D01*
Y76378D01*
X-30079Y72835D02*
Y75433D01*
X-38793Y86221D02*
X-31102D01*
X-29134Y84252D01*
X-30079Y67972D02*
Y72835D01*
Y67972D02*
X-29823Y67717D01*
X-46850Y84042D02*
X-44053Y86839D01*
X-39412D01*
X-38793Y86221D01*
X-30079Y75433D02*
X-29134Y76378D01*
Y84252D01*
X-40059Y65650D02*
Y67717D01*
Y65650D02*
X-38248Y63839D01*
Y62303D02*
Y63839D01*
X-27106Y62303D02*
Y63839D01*
X39665Y-78740D02*
X44783D01*
Y-83858D02*
Y-78740D01*
X39665Y-74016D02*
X44783D01*
X3150Y-29528D02*
X4724Y-27953D01*
X4724D01*
X6299Y-29528D02*
X6299D01*
X4724Y-27953D02*
X6299Y-29528D01*
X-0Y-32677D02*
Y-32677D01*
X-1575Y-34252D02*
X-0Y-32677D01*
Y-35827D02*
Y-35827D01*
X-1575Y-34252D02*
X-0Y-35827D01*
X3150Y-38976D02*
X4724Y-40551D01*
X6299Y-38976D02*
Y-38976D01*
X4724Y-40551D02*
X6299Y-38976D01*
X9449Y-35827D02*
X9449D01*
X11024Y-34252D01*
X9449Y-32677D02*
X11024Y-34252D01*
X3150Y-32677D02*
X4724Y-31102D01*
X4724D01*
X6299Y-32677D02*
Y-32677D01*
Y-32677D02*
X7874Y-34252D01*
X4724Y-37402D02*
X6299Y-35827D01*
X1575Y-34252D02*
X3150Y-35827D01*
X-4724Y-24803D02*
X-3150Y-26378D01*
X12598D02*
X12598D01*
X14173Y-24803D01*
X15748Y-23228D02*
Y-23228D01*
X14173Y-24803D02*
X15748Y-23228D01*
X-4724Y-43701D02*
X-3150Y-42126D01*
X-6299Y-45276D02*
X-4724Y-43701D01*
X12598Y-42126D02*
X14173Y-43701D01*
X14173D01*
X14173D02*
X15748Y-45276D01*
X18898Y-48425D02*
X20472Y-50000D01*
X22047Y-51575D01*
X18898Y-20079D02*
X18898D01*
X20472Y-18504D01*
X22047Y-16929D01*
X-1575Y-27953D02*
X-0Y-29528D01*
X-1575Y-27953D02*
Y-27953D01*
X9449Y-29528D02*
X9449D01*
X11024Y-27953D01*
X9449Y-38976D02*
X11024Y-40551D01*
X-1575Y-40551D02*
X-0Y-38976D01*
X-1575Y-40551D02*
Y-40551D01*
X14173Y-21654D02*
X15748Y-20079D01*
X14173Y-21654D02*
Y-21654D01*
X-6299Y-20079D02*
X-4724Y-21654D01*
X17323Y-24803D02*
X18898Y-23228D01*
X17323Y-24803D02*
Y-24803D01*
X15748Y-48425D02*
Y-48425D01*
X14173Y-46850D02*
X15748Y-48425D01*
X25197Y-54724D02*
X26772Y-56299D01*
X25197Y-13780D02*
X25197D01*
X-17323Y-12205D02*
X-15748Y-13780D01*
X22047Y-10630D02*
Y-6299D01*
X-88189Y68898D02*
Y71339D01*
X-89764Y67323D02*
X-88189Y68898D01*
X-90650Y67323D02*
X-89764D01*
X-99902D02*
X-95177D01*
X-100394Y67815D02*
X-99902Y67323D01*
X-94410Y71339D02*
X-92126D01*
X-27165Y53386D02*
X-27106Y53445D01*
X-23622Y59547D02*
Y61024D01*
X-24409Y58760D02*
X-23622Y59547D01*
X-27106Y58760D02*
X-24409D01*
X7874Y-9055D02*
Y-4724D01*
X83465Y-81260D02*
X84252Y-80472D01*
Y-69291D01*
X81496Y-66535D02*
X84252Y-69291D01*
X70866Y-66535D02*
X81496D01*
X70079Y-67323D02*
X70866Y-66535D01*
X85852Y-80498D02*
X86614Y-81260D01*
X85752Y-68529D02*
X85852D01*
X82159Y-64935D02*
X85752Y-68529D01*
X85852Y-80498D02*
Y-68529D01*
X82258Y-64935D02*
X85852Y-68529D01*
X68872Y-64935D02*
X82159D01*
X68110Y-64173D02*
X68872Y-64935D01*
X69291Y-66535D02*
X70079Y-67323D01*
X67348Y-64935D02*
X68110Y-64173D01*
X44783Y-74016D02*
X44882Y-74114D01*
X-79528Y-80472D02*
X-78740Y-81260D01*
X-81890D02*
X-81128Y-80498D01*
X-78740Y-67323D02*
X-77953Y-66535D01*
X-70079D01*
X-79502Y-64935D02*
X-69317D01*
X12598Y-62598D02*
Y-57874D01*
X11024Y-61024D02*
Y-59055D01*
X10236Y-61811D02*
X11024Y-61024D01*
X9449Y-59055D02*
Y-57874D01*
X7874Y-60630D02*
X9449Y-59055D01*
X4724Y-60630D02*
Y-59055D01*
X28346Y-57874D02*
X30079Y-59606D01*
Y-65354D02*
Y-59606D01*
X32913Y-11654D02*
X35827D01*
X28346Y-10630D02*
X32835Y-15118D01*
X35827D01*
X-43858Y51181D02*
X-43307Y50630D01*
X-45669Y51181D02*
X-43858D01*
X-48425Y50630D02*
X-47874Y51181D01*
X-45669D01*
X25197Y-23228D02*
X26772Y-24803D01*
X28346Y-23228D02*
X35433D01*
X37008Y-21654D01*
X29528Y-24803D02*
X41339D01*
X44488Y-21654D01*
X25197Y-26378D02*
X25197D01*
X26772Y-27953D01*
X-57874Y53740D02*
Y53937D01*
X-54331Y48819D02*
X-52362Y50787D01*
Y53150D01*
X-51417Y54094D01*
X-57776Y52658D02*
X-56299Y51181D01*
X-55905D01*
X2707Y45276D02*
X2953Y45030D01*
X1181Y51968D02*
X1919D01*
X8858Y54971D02*
X9006Y55118D01*
X14331D01*
X14567Y54882D01*
X9892Y50000D02*
Y51968D01*
X14016D01*
X14567Y51417D01*
X-25984Y-11575D02*
X-22598D01*
X-21654Y-10630D01*
X-18898D01*
X-29291Y-8110D02*
X-25984D01*
X-46850Y76772D02*
Y81004D01*
Y84042D01*
X-44291Y76968D02*
Y81004D01*
Y84055D01*
X-92717Y76968D02*
Y81102D01*
X-25295Y65650D02*
Y67717D01*
X-27106Y63839D02*
X-25295Y65650D01*
X-27165Y73386D02*
X-26614Y72835D01*
X-27165Y73386D02*
Y75197D01*
X-60138Y59449D02*
Y61516D01*
X-55905Y65748D01*
Y71653D02*
X-55512Y71260D01*
X-51575D01*
X-65473Y40827D02*
Y60905D01*
X-60630Y65748D01*
Y72835D01*
X-64961Y77165D02*
X-60630Y72835D01*
X-64961Y77165D02*
Y88386D01*
X-68504Y91929D02*
X-64961Y88386D01*
X-95177Y65256D02*
Y67323D01*
Y65256D02*
X-93701Y63779D01*
X-88189D01*
X-78347Y73622D01*
Y77165D01*
X-29134Y-15354D02*
X-20079D01*
X-6299Y-23228D02*
X-4724Y-24803D01*
X-6299Y-45276D02*
X-6299D01*
X-35827Y-55512D02*
Y-54331D01*
Y-57874D02*
Y-55512D01*
Y-54331D02*
X-33071Y-51575D01*
X-66536D02*
X-66142Y-51181D01*
X-68110Y-53150D02*
X-66536Y-51575D01*
X-22441Y-35827D02*
X-18898D01*
X-30315Y-27953D02*
X-22441Y-35827D01*
X-42126Y-27953D02*
X-30315D01*
X-21654Y-34252D02*
X-20079D01*
X-29528Y-26378D02*
X-21654Y-34252D01*
X-44094Y-26378D02*
X-29528D01*
X-20866Y-32677D02*
X-18898D01*
X-28740Y-24803D02*
X-20866Y-32677D01*
X-44882Y-24803D02*
X-28740D01*
X-27953Y-23228D02*
X-20079Y-31102D01*
X-45669Y-23228D02*
X-27953D01*
X-26772Y-21654D02*
X-18898Y-29528D01*
X-46457Y-21654D02*
X-26772D01*
X-13780Y-80079D02*
X-12598Y-81260D01*
X-41069Y-87427D02*
X-37821D01*
X-41043Y-85827D02*
X-38583D01*
X-53839Y-87402D02*
X-52362Y-88878D01*
X-57480Y-87402D02*
X-53839D01*
X-59449Y-85433D02*
X-57480Y-87402D01*
X-53839Y-85827D02*
X-52362Y-84350D01*
X-56693Y-85827D02*
X-53839D01*
X-57874Y-84646D02*
X-56693Y-85827D01*
X-57874Y-84646D02*
Y-76378D01*
X-69317Y-64935D02*
X-57874Y-76378D01*
X-59449Y-85433D02*
Y-77165D01*
X-70079Y-66535D02*
X-59449Y-77165D01*
X-69685Y-48425D02*
X-68110Y-46850D01*
X-69685Y-51575D02*
X-68110Y-53150D01*
X-29291Y-54567D02*
X-26378D01*
X-22205D01*
X-18898Y-57874D01*
X-26378Y-58031D02*
X-23386D01*
X-11049Y-61024D02*
Y-59055D01*
X-11811Y-61786D02*
X-11049Y-61024D01*
X-9449Y-61811D02*
Y-57874D01*
X-11024Y-63386D02*
X-9449Y-61811D01*
X-13780Y-80079D02*
Y-70079D01*
X-81890Y-67323D02*
X-79502Y-64935D01*
X-79528Y-80472D02*
Y-68110D01*
X-78740Y-67323D01*
X-81128Y-80498D02*
Y-68085D01*
X-81890Y-67323D02*
X-81128Y-68085D01*
X-17323Y-56299D02*
Y-56299D01*
X-15748Y-54724D01*
X-7874Y-43701D02*
X-7874D01*
X-9449Y-45276D02*
X-7874Y-43701D01*
X-4724Y-46850D02*
X-4724D01*
X-6299Y-48425D02*
X-4724Y-46850D01*
X-9449Y-23228D02*
X-7874Y-24803D01*
X-12598Y-16929D02*
X-11024Y-18504D01*
Y-18504D01*
Y-18504D02*
X-9449Y-20079D01*
X-12598Y-51575D02*
X-11024Y-50000D01*
X-12598Y-51575D02*
X-12598D01*
X-11024Y-50000D02*
X-9449Y-48425D01*
Y-48425D01*
X-52362Y-84350D02*
X-52264Y-84252D01*
X-47146D01*
X-52362Y-93996D02*
X-52264Y-94095D01*
X-52362Y-93996D02*
Y-88878D01*
X-52264Y-88976D01*
X-47146D01*
X-40350Y-42323D02*
X-40153Y-42126D01*
X-18898D01*
X-40350Y-38386D02*
X-36811D01*
X-36220Y-38976D01*
X-18898D01*
X-40350Y-40354D02*
X-37205D01*
X-37008Y-40551D01*
X-20079D01*
X-40350Y-36417D02*
X-36417D01*
X-35433Y-37402D01*
X-20079D01*
X-33504Y-34449D02*
X-33465Y-34409D01*
X-43110Y-28937D02*
X-42126Y-27953D01*
X-43110Y-29720D02*
Y-28937D01*
X-45079Y-27362D02*
X-44094Y-26378D01*
X-45079Y-29720D02*
Y-27362D01*
X-47047Y-26969D02*
X-44882Y-24803D01*
X-47047Y-29720D02*
Y-26969D01*
X-49016Y-26575D02*
X-45669Y-23228D01*
X-49016Y-29720D02*
Y-26575D01*
X-50984Y-26181D02*
X-46457Y-21654D01*
X-50984Y-29720D02*
Y-26181D01*
X-37008Y-43701D02*
X-20079D01*
X-37598Y-44291D02*
X-37008Y-43701D01*
X-40350Y-44291D02*
X-37598D01*
X-36220Y-45276D02*
X-18898D01*
X-37205Y-46260D02*
X-36220Y-45276D01*
X-40350Y-46260D02*
X-37205D01*
X-35433Y-46850D02*
X-20079D01*
X-39370Y-50787D02*
X-35433Y-46850D01*
X-42126Y-50787D02*
X-39370D01*
X-43110Y-49803D02*
X-42126Y-50787D01*
X-43110Y-49803D02*
Y-49020D01*
X-34646Y-48425D02*
X-18898D01*
X-38583Y-52362D02*
X-34646Y-48425D01*
X-44094Y-52362D02*
X-38583D01*
X-45079Y-51378D02*
X-44094Y-52362D01*
X-45079Y-51378D02*
Y-49020D01*
X-33858Y-50000D02*
X-20079D01*
X-37795Y-53937D02*
X-33858Y-50000D01*
X-33071Y-51575D02*
X-18898D01*
X-52992Y-22835D02*
X-52953Y-22874D01*
X-56890Y-23268D02*
X-56457Y-22835D01*
X-42618Y-84252D02*
X-41043Y-85827D01*
X-42618Y-88976D02*
X-41069Y-87427D01*
X-47736Y-94095D02*
X-44488D01*
X-59842Y-61221D02*
X-54213D01*
X-53740Y-60748D01*
X-59842Y-56102D02*
X-59252Y-55512D01*
X-54921Y-55413D02*
Y-49020D01*
X-55020Y-55512D02*
X-54921Y-55413D01*
X-59252Y-55512D02*
X-55020D01*
X-47736Y-79134D02*
X-44882D01*
X-52362Y-84350D02*
Y-79232D01*
X-52264Y-79134D01*
X-77795Y-43701D02*
X-77008Y-42913D01*
X-74410D01*
X-73819Y-42323D01*
X-59650D01*
X-77795Y-38976D02*
X-77008Y-39764D01*
X-74410D01*
X-73819Y-40354D01*
X-59650D01*
X-55020Y-55512D02*
X-35827D01*
X-29921Y44094D02*
X-22047Y51968D01*
X-27106Y56988D02*
X-23524D01*
X-22047Y55512D01*
Y51968D02*
Y55512D01*
X-27106Y53445D02*
X-27008Y53543D01*
X-24016D01*
X-7874Y72047D02*
X-7087Y72835D01*
X-7874Y14961D02*
Y72047D01*
Y14961D02*
X-5512Y12598D01*
X5512D01*
X8661Y9449D01*
Y4724D02*
Y9449D01*
X-6299Y67323D02*
X-5512Y68110D01*
X-6299Y15748D02*
Y67323D01*
Y15748D02*
X-4724Y14173D01*
X6299D01*
X10236Y10236D01*
Y5512D02*
Y10236D01*
X-4724Y16929D02*
Y65354D01*
Y16929D02*
X-3543Y15748D01*
X7087D01*
X11811Y11024D01*
Y6299D02*
Y11024D01*
Y6299D02*
X16535Y1575D01*
X20472D01*
X27165Y-5118D01*
X46299Y24016D02*
X46850Y24567D01*
Y26772D01*
X74803Y11319D02*
X74902Y11417D01*
X58858Y37795D02*
X93898Y72835D01*
X43307Y22835D02*
X44882Y21260D01*
X55118D01*
X56693Y19685D01*
Y18209D02*
Y19685D01*
X58661Y24311D02*
X59153Y24803D01*
X56693Y22441D02*
X57874Y21260D01*
X59153Y24803D02*
X61417D01*
X61811Y25197D01*
X62205D01*
X57874Y21260D02*
X61811D01*
X64173Y23622D01*
X58661Y18209D02*
X58760Y18110D01*
X60630D01*
X-31890Y-12598D02*
Y-7087D01*
Y-12598D02*
X-29134Y-15354D01*
X-20472Y18110D02*
Y29134D01*
X28346Y14665D02*
Y18110D01*
X28248Y14567D02*
X28346Y14665D01*
X29528Y-5118D02*
X32283Y-7874D01*
X27165Y-5118D02*
X29528D01*
X-3150Y24016D02*
X-787Y21654D01*
X25197D01*
X26378Y20472D01*
X-787Y50000D02*
X1919D01*
X-787Y50000D02*
X-787Y50000D01*
X0Y48031D02*
X1919D01*
X-787Y47244D02*
X0Y48031D01*
X935Y45030D02*
X2953D01*
X-3150Y24016D02*
Y51417D01*
Y51575D02*
X-2362Y52362D01*
X1526D01*
X1919Y51968D01*
X7087Y50000D02*
X9892D01*
X14567Y51417D02*
X17165D01*
X-16535Y47244D02*
X-15748Y48031D01*
X-16535Y47244D02*
X-15748Y46457D01*
X-16535Y47244D02*
X-16535D01*
X-14173Y49213D02*
X-13386Y50000D01*
X-11811Y44882D02*
X-11024Y44094D01*
X-11811Y44882D02*
X-11811D01*
X-11811D02*
X-11024Y45669D01*
Y74410D01*
X-14173Y43701D02*
X-12598Y42126D01*
Y9055D02*
Y42126D01*
X-14173Y43701D02*
Y49213D01*
X-12598Y9055D02*
X1575Y-5118D01*
X-15748Y42913D02*
X-14173Y41339D01*
Y8268D02*
Y41339D01*
X-15748Y42913D02*
Y46457D01*
X-14173Y8268D02*
X-0Y-5906D01*
X-14173Y75984D02*
X-12598Y74410D01*
Y50787D02*
Y74410D01*
X-13386Y50000D02*
X-12598Y50787D01*
X-14173Y75984D02*
Y77559D01*
X-15748Y75197D02*
X-14173Y73622D01*
X-15748Y50787D02*
X-14173Y52362D01*
X-15748Y48031D02*
Y50787D01*
Y75197D02*
Y78347D01*
X-24409Y76772D02*
X-19980D01*
X-19685Y77067D01*
X-114862Y-12598D02*
Y1575D01*
X12756Y48031D02*
X14567Y46220D01*
X9892Y48031D02*
X12756D01*
X14567Y42756D02*
X17165D01*
X14567Y54882D02*
X14724Y54724D01*
X43307Y22835D02*
Y33071D01*
X48031Y37795D01*
X58858D01*
D16*
X19921Y46220D02*
X20079Y46063D01*
X14567Y46220D02*
X19921D01*
X13780Y72835D02*
X13837Y72892D01*
X16199D01*
X16535Y73228D01*
X32283Y79921D02*
Y80315D01*
X36950Y76829D02*
Y78010D01*
X35766Y79195D02*
X36950Y78010D01*
X33010Y79195D02*
X35766D01*
X32480Y84646D02*
X39289D01*
X40076Y85433D01*
X40157D01*
X31890Y85236D02*
X32480Y84646D01*
X36950Y76829D02*
X37008Y76772D01*
X32283Y79921D02*
X33010Y79195D01*
X48705Y-34252D02*
X51067Y-36614D01*
X-90158Y77165D02*
Y81102D01*
X-87599Y76968D02*
Y81102D01*
X-86535Y71339D02*
X-85039Y72835D01*
Y77559D02*
X-82284D01*
X-85039Y72835D02*
Y77559D01*
Y81102D01*
Y85039D01*
X-85039Y85039D01*
X-85039Y81102D02*
X-84252Y81890D01*
X-82677D01*
X-58563Y81004D02*
X-51968D01*
X-59449Y81890D02*
X-58563Y81004D01*
X-59842Y82284D02*
Y91536D01*
Y82284D02*
X-59449Y81890D01*
X-59842Y91536D02*
X-51575D01*
X-42126D01*
X-33858D01*
X-85433Y91634D02*
X-77165D01*
X-94882D02*
X-85433D01*
X-103150D02*
X-94882D01*
X-103150Y82382D02*
Y91634D01*
Y82382D02*
X-102756Y81988D01*
X-77165Y82382D02*
Y91634D01*
X-77559Y81988D02*
X-77165Y82382D01*
X-101870Y81102D02*
X-95276D01*
Y77559D02*
Y81102D01*
X-96063Y76772D02*
X-95276Y77559D01*
X-99213Y76772D02*
X-96063D01*
X-102362D02*
Y81595D01*
X-101870Y81102D01*
X-102756Y81988D02*
X-102362Y81595D01*
Y76772D02*
X-100394D01*
X-99213D01*
X-39764Y-75984D02*
Y-72992D01*
X14724Y54724D02*
X17717D01*
D18*
X34252Y-74410D02*
X35138D01*
X26772Y-27953D02*
X29528D01*
X26772Y-24803D02*
X29528D01*
X23622Y-12205D02*
Y-9449D01*
X20472Y-12205D02*
Y-9449D01*
X-4724Y-12205D02*
Y-9449D01*
Y-12205D02*
X-3150Y-13780D01*
X-14173Y-12205D02*
Y-9449D01*
Y-12205D02*
X-12598Y-13780D01*
X-11024Y-12205D02*
X-9449Y-13780D01*
X-7874Y-12205D02*
X-6299Y-13780D01*
X25197Y-45276D02*
X25197D01*
X26772Y-43701D01*
X29528D01*
X29921Y-53150D02*
X31102Y-54331D01*
X23622Y-53150D02*
X29921D01*
X14173Y-59055D02*
Y-56299D01*
X22047Y-54724D02*
X23622Y-53150D01*
X12598Y-54724D02*
X14173Y-56299D01*
X22047Y-13780D02*
X23622Y-12205D01*
X18898Y-13780D02*
X20472Y-12205D01*
X15748Y-13780D02*
X17323Y-12205D01*
Y-9449D01*
X12598Y-13780D02*
X14173Y-12205D01*
Y-9449D01*
X-11024Y-12205D02*
Y-9449D01*
X-7874Y-12205D02*
Y-9449D01*
X-0Y-13780D02*
X1575Y-12205D01*
Y-9055D01*
X3150Y-13780D02*
X4724Y-12205D01*
Y-9055D01*
X6299Y-13780D02*
X7874Y-12205D01*
Y-9055D01*
X11024Y-53150D02*
X12598Y-51575D01*
X11024Y-59055D02*
Y-53150D01*
X6299Y-54724D02*
Y-54724D01*
X4724Y-56299D02*
X6299Y-54724D01*
X4724Y-59055D02*
Y-56299D01*
X-11024Y-15354D02*
X-9449Y-16929D01*
X-20079Y-15354D02*
X-11024D01*
X-9449Y-16929D02*
Y-16929D01*
X-11049Y-53175D02*
X-9449Y-51575D01*
X-11049Y-59055D02*
Y-53175D01*
X-20079Y-40551D02*
X-17323D01*
X-15748Y-38976D01*
X-20079Y-37402D02*
X-17323D01*
X-15748Y-35827D01*
X-17323Y-34252D02*
X-15748Y-32677D01*
X-20079Y-34252D02*
X-17323D01*
Y-31102D02*
X-15748Y-29528D01*
X-20079Y-31102D02*
X-17323D01*
Y-43701D02*
X-15748Y-42126D01*
X-20079Y-43701D02*
X-17323D01*
X-15748Y-45276D02*
Y-45276D01*
X-17323Y-46850D02*
X-15748Y-45276D01*
X-20079Y-46850D02*
X-17323D01*
Y-50000D02*
X-15748Y-48425D01*
X-20079Y-50000D02*
X-17323D01*
D21*
X-80827Y35827D02*
D03*
X-105000D02*
D03*
D22*
X-85827Y22441D02*
D03*
X-90551D02*
D03*
X-95276D02*
D03*
X-100000D02*
D03*
D23*
X108632Y-63642D02*
D03*
X106309D02*
D03*
X103986D02*
D03*
X-120453Y-63721D02*
D03*
X-118130D02*
D03*
X-115807D02*
D03*
D24*
X11024Y69882D02*
D03*
Y60039D02*
D03*
D25*
Y67913D02*
D03*
X1181Y66929D02*
D03*
X11024Y65945D02*
D03*
X1181Y64961D02*
D03*
X11024Y63976D02*
D03*
X1181Y62992D02*
D03*
X11024Y62008D02*
D03*
D26*
X21949Y74016D02*
D03*
X16634D02*
D03*
X28051D02*
D03*
X33366D02*
D03*
X74705Y18504D02*
D03*
X69390D02*
D03*
X-32382Y47638D02*
D03*
X-37697D02*
D03*
D27*
X15197Y84252D02*
D03*
X18661D02*
D03*
X108031Y-57480D02*
D03*
X104567D02*
D03*
X10000Y84252D02*
D03*
X6535D02*
D03*
X-26614Y-18504D02*
D03*
X-30079D02*
D03*
X-35408Y-12205D02*
D03*
X-38872D02*
D03*
X-38872Y-18504D02*
D03*
X-35408D02*
D03*
Y-7480D02*
D03*
X-38872D02*
D03*
X-69842Y-37795D02*
D03*
X-66378D02*
D03*
X68740Y24016D02*
D03*
X72205D02*
D03*
X89606Y18110D02*
D03*
X93071D02*
D03*
X49764Y24016D02*
D03*
X46299D02*
D03*
X30079Y-65354D02*
D03*
X26614D02*
D03*
X-35276Y72835D02*
D03*
X-38740D02*
D03*
X-30079D02*
D03*
X-26614D02*
D03*
X-77795Y-43701D02*
D03*
X-81260D02*
D03*
X-52992Y-22835D02*
D03*
X-56457D02*
D03*
X-77795Y-38976D02*
D03*
X-81260D02*
D03*
D28*
X15059Y79528D02*
D03*
X19587D02*
D03*
X10138D02*
D03*
X5610D02*
D03*
X37303Y3543D02*
D03*
X32776D02*
D03*
X79429Y11417D02*
D03*
X74902D02*
D03*
X56791Y13780D02*
D03*
X61319D02*
D03*
X-44193Y21260D02*
D03*
X-48720D02*
D03*
X-90650Y67323D02*
D03*
X-95177D02*
D03*
X39665Y-78740D02*
D03*
X35138D02*
D03*
X40256Y-83858D02*
D03*
X44783D02*
D03*
X35138Y-74016D02*
D03*
X39665D02*
D03*
X-55610Y59449D02*
D03*
X-60138D02*
D03*
X-40059Y67717D02*
D03*
X-35531D02*
D03*
X-25295D02*
D03*
X-29823D02*
D03*
X28248Y14567D02*
D03*
X23720D02*
D03*
X-52264Y-94095D02*
D03*
X-47736D02*
D03*
X-42618Y-88976D02*
D03*
X-47146D02*
D03*
Y-84252D02*
D03*
X-42618D02*
D03*
X-47736Y-79134D02*
D03*
X-52264D02*
D03*
D29*
X-39764Y-72992D02*
D03*
Y-69528D02*
D03*
X-108661Y-64724D02*
D03*
Y-61260D02*
D03*
X14567Y46220D02*
D03*
Y42756D02*
D03*
X-25984Y-8110D02*
D03*
Y-11575D02*
D03*
X46850Y-47008D02*
D03*
Y-43543D02*
D03*
X14567Y54882D02*
D03*
Y51417D02*
D03*
X-48425Y54094D02*
D03*
Y50630D02*
D03*
X-43307Y54094D02*
D03*
Y50630D02*
D03*
Y59291D02*
D03*
Y62756D02*
D03*
X35827Y-15118D02*
D03*
Y-11654D02*
D03*
X-33465Y-34409D02*
D03*
Y-30945D02*
D03*
X-70866Y-32835D02*
D03*
Y-29370D02*
D03*
X-66142Y-31654D02*
D03*
Y-28189D02*
D03*
X-70866Y-20709D02*
D03*
Y-24173D02*
D03*
X-26378Y-58031D02*
D03*
Y-54567D02*
D03*
D30*
X-59842Y-56102D02*
D03*
Y-61221D02*
D03*
X31890Y85236D02*
D03*
Y80118D02*
D03*
D31*
X-113524Y54528D02*
D03*
Y83268D02*
D03*
X-121122Y54528D02*
D03*
Y83268D02*
D03*
D32*
X-110433Y60039D02*
D03*
Y77756D02*
D03*
Y65945D02*
D03*
D33*
X-19685Y72539D02*
D03*
Y77067D02*
D03*
X44882Y-68799D02*
D03*
Y-64272D02*
D03*
Y-78642D02*
D03*
Y-74114D02*
D03*
X-68504Y79823D02*
D03*
Y75295D02*
D03*
X-100394Y72342D02*
D03*
Y67815D02*
D03*
X-52362Y-84350D02*
D03*
Y-88878D02*
D03*
D34*
X84646Y18209D02*
D03*
X82677D02*
D03*
X80709D02*
D03*
Y24311D02*
D03*
X82677D02*
D03*
X84646D02*
D03*
X54724D02*
D03*
X56693D02*
D03*
X58661D02*
D03*
Y18209D02*
D03*
X56693D02*
D03*
X54724D02*
D03*
D35*
X2953Y45030D02*
D03*
X4921D02*
D03*
X6890D02*
D03*
X8858D02*
D03*
Y54971D02*
D03*
X6890D02*
D03*
X4921D02*
D03*
X2953D02*
D03*
D36*
X9892Y48031D02*
D03*
Y50000D02*
D03*
Y51968D02*
D03*
X1919D02*
D03*
Y50000D02*
D03*
Y48031D02*
D03*
D37*
X35630Y-50197D02*
D03*
Y-43701D02*
D03*
X41732D02*
D03*
Y-50197D02*
D03*
D38*
X53543Y-56299D02*
D03*
Y-52362D02*
D03*
Y-48425D02*
D03*
Y-44488D02*
D03*
Y-40551D02*
D03*
Y-36614D02*
D03*
D39*
X61811Y-60236D02*
D03*
Y-32677D02*
D03*
D40*
X-88189Y71339D02*
D03*
X-90158D02*
D03*
X-92126D02*
D03*
Y74331D02*
D03*
X-90158D02*
D03*
X-88189D02*
D03*
X-44488Y70551D02*
D03*
X-46457D02*
D03*
X-48425D02*
D03*
Y73543D02*
D03*
X-46457D02*
D03*
X-44488D02*
D03*
D41*
X28346Y-57874D02*
D03*
X25197D02*
D03*
X22047D02*
D03*
X18898D02*
D03*
X15748D02*
D03*
X12598D02*
D03*
X9449D02*
D03*
X6299D02*
D03*
X3150D02*
D03*
X-0D02*
D03*
X-3150D02*
D03*
X-6299D02*
D03*
X-9449D02*
D03*
X-12598D02*
D03*
X-15748D02*
D03*
X-18898D02*
D03*
X28346Y-54724D02*
D03*
X25197D02*
D03*
X22047D02*
D03*
X18898D02*
D03*
X15748D02*
D03*
X12598D02*
D03*
X9449D02*
D03*
X6299D02*
D03*
X3150D02*
D03*
X-0D02*
D03*
X-3150D02*
D03*
X-6299D02*
D03*
X-9449D02*
D03*
X-12598D02*
D03*
X-15748D02*
D03*
X-18898D02*
D03*
X28346Y-51575D02*
D03*
X25197D02*
D03*
X22047D02*
D03*
X18898D02*
D03*
X15748D02*
D03*
X12598D02*
D03*
X9449D02*
D03*
X6299D02*
D03*
X3150D02*
D03*
X-0D02*
D03*
X-3150D02*
D03*
X-6299D02*
D03*
X-9449D02*
D03*
X-12598D02*
D03*
X-15748D02*
D03*
X-18898D02*
D03*
X28346Y-48425D02*
D03*
X25197D02*
D03*
X22047D02*
D03*
X18898D02*
D03*
X15748D02*
D03*
X12598D02*
D03*
X9449D02*
D03*
X6299D02*
D03*
X3150D02*
D03*
X-0D02*
D03*
X-3150D02*
D03*
X-6299D02*
D03*
X-9449D02*
D03*
X-12598D02*
D03*
X-15748D02*
D03*
X-18898D02*
D03*
X28346Y-45276D02*
D03*
X25197D02*
D03*
X22047D02*
D03*
X18898D02*
D03*
X15748D02*
D03*
X12598D02*
D03*
X9449D02*
D03*
X6299D02*
D03*
X3150D02*
D03*
X-0D02*
D03*
X-3150D02*
D03*
X-6299D02*
D03*
X-9449D02*
D03*
X-12598D02*
D03*
X-15748D02*
D03*
X-18898D02*
D03*
X28346Y-42126D02*
D03*
X25197D02*
D03*
X22047D02*
D03*
X18898D02*
D03*
X15748D02*
D03*
X12598D02*
D03*
X9449D02*
D03*
X6299D02*
D03*
X3150D02*
D03*
X-0D02*
D03*
X-3150D02*
D03*
X-6299D02*
D03*
X-9449D02*
D03*
X-12598D02*
D03*
X-15748D02*
D03*
X-18898D02*
D03*
X28346Y-38976D02*
D03*
X25197D02*
D03*
X22047D02*
D03*
X18898D02*
D03*
X15748D02*
D03*
X12598D02*
D03*
X9449D02*
D03*
X6299D02*
D03*
X3150D02*
D03*
X-0D02*
D03*
X-3150D02*
D03*
X-6299D02*
D03*
X-9449D02*
D03*
X-12598D02*
D03*
X-15748D02*
D03*
X-18898D02*
D03*
X28346Y-35827D02*
D03*
X25197D02*
D03*
X22047D02*
D03*
X18898D02*
D03*
X15748D02*
D03*
X12598D02*
D03*
X9449D02*
D03*
X6299D02*
D03*
X3150D02*
D03*
X-0D02*
D03*
X-3150D02*
D03*
X-6299D02*
D03*
X-9449D02*
D03*
X-12598D02*
D03*
X-15748D02*
D03*
X-18898D02*
D03*
X28346Y-32677D02*
D03*
X25197D02*
D03*
X22047D02*
D03*
X18898D02*
D03*
X15748D02*
D03*
X12598D02*
D03*
X9449D02*
D03*
X6299D02*
D03*
X3150D02*
D03*
X-0D02*
D03*
X-3150D02*
D03*
X-6299D02*
D03*
X-9449D02*
D03*
X-12598D02*
D03*
X-15748D02*
D03*
X-18898D02*
D03*
X28346Y-29528D02*
D03*
X25197D02*
D03*
X22047D02*
D03*
X18898D02*
D03*
X15748D02*
D03*
X12598D02*
D03*
X9449D02*
D03*
X6299D02*
D03*
X3150D02*
D03*
X-0D02*
D03*
X-3150D02*
D03*
X-6299D02*
D03*
X-9449D02*
D03*
X-12598D02*
D03*
X-15748D02*
D03*
X-18898D02*
D03*
X28346Y-26378D02*
D03*
X25197D02*
D03*
X22047D02*
D03*
X18898D02*
D03*
X15748D02*
D03*
X12598D02*
D03*
X9449D02*
D03*
X6299D02*
D03*
X3150D02*
D03*
X-0D02*
D03*
X-3150D02*
D03*
X-6299D02*
D03*
X-9449D02*
D03*
X-12598D02*
D03*
X-15748D02*
D03*
X-18898D02*
D03*
X28346Y-23228D02*
D03*
X25197D02*
D03*
X22047D02*
D03*
X18898D02*
D03*
X15748D02*
D03*
X12598D02*
D03*
X9449D02*
D03*
X6299D02*
D03*
X3150D02*
D03*
X-0D02*
D03*
X-3150D02*
D03*
X-6299D02*
D03*
X-9449D02*
D03*
X-12598D02*
D03*
X-15748D02*
D03*
X-18898D02*
D03*
X28346Y-20079D02*
D03*
X25197D02*
D03*
X22047D02*
D03*
X18898D02*
D03*
X15748D02*
D03*
X12598D02*
D03*
X9449D02*
D03*
X6299D02*
D03*
X3150D02*
D03*
X-0D02*
D03*
X-3150D02*
D03*
X-6299D02*
D03*
X-9449D02*
D03*
X-12598D02*
D03*
X-15748D02*
D03*
X-18898D02*
D03*
X28346Y-16929D02*
D03*
X25197D02*
D03*
X22047D02*
D03*
X18898D02*
D03*
X15748D02*
D03*
X12598D02*
D03*
X9449D02*
D03*
X6299D02*
D03*
X3150D02*
D03*
X-0D02*
D03*
X-3150D02*
D03*
X-6299D02*
D03*
X-9449D02*
D03*
X-12598D02*
D03*
X-15748D02*
D03*
X-18898D02*
D03*
X28346Y-13780D02*
D03*
X25197D02*
D03*
X22047D02*
D03*
X18898D02*
D03*
X15748D02*
D03*
X12598D02*
D03*
X9449D02*
D03*
X6299D02*
D03*
X3150D02*
D03*
X-0D02*
D03*
X-3150D02*
D03*
X-6299D02*
D03*
X-9449D02*
D03*
X-12598D02*
D03*
X-15748D02*
D03*
X-18898D02*
D03*
X28346Y-10630D02*
D03*
X25197D02*
D03*
X22047D02*
D03*
X18898D02*
D03*
X15748D02*
D03*
X12598D02*
D03*
X9449D02*
D03*
X6299D02*
D03*
X3150D02*
D03*
X-0D02*
D03*
X-3150D02*
D03*
X-6299D02*
D03*
X-9449D02*
D03*
X-12598D02*
D03*
X-15748D02*
D03*
X-18898D02*
D03*
D42*
X-94882Y91634D02*
D03*
X-85433D02*
D03*
X-42126Y91536D02*
D03*
X-51575D02*
D03*
D43*
X-102756Y81988D02*
D03*
X-77559D02*
D03*
X-34252Y81890D02*
D03*
X-59449D02*
D03*
D44*
X-90158Y81102D02*
D03*
X-87599D02*
D03*
X-85039D02*
D03*
X-95276D02*
D03*
X-92717D02*
D03*
X-49409Y81004D02*
D03*
X-51968D02*
D03*
X-41732D02*
D03*
X-44291D02*
D03*
X-46850D02*
D03*
D45*
X-114862Y-38583D02*
D03*
X-120571D02*
D03*
X-114862Y-52756D02*
D03*
X-120571D02*
D03*
X-114862Y1575D02*
D03*
X-120571D02*
D03*
X-114862Y-12598D02*
D03*
X-120571D02*
D03*
D46*
X-49213Y59941D02*
D03*
Y65256D02*
D03*
D47*
X55512Y31496D02*
D03*
X59842D02*
D03*
X64173D02*
D03*
X68504D02*
D03*
X72835D02*
D03*
X77165D02*
D03*
X81496D02*
D03*
X85827D02*
D03*
X89567D02*
D03*
D48*
X49409D02*
D03*
X93307Y48425D02*
D03*
D49*
X93898Y72835D02*
D03*
D50*
X93307Y88976D02*
D03*
D51*
X40748Y90945D02*
D03*
D52*
X-68504Y91929D02*
D03*
Y86024D02*
D03*
X-55905Y65748D02*
D03*
Y71653D02*
D03*
D53*
X-57874Y53740D02*
D03*
X-54134Y44685D02*
D03*
X-61614D02*
D03*
D54*
X-38248Y62303D02*
D03*
Y60532D02*
D03*
Y58760D02*
D03*
Y56988D02*
D03*
Y55217D02*
D03*
Y53445D02*
D03*
X-27106Y62303D02*
D03*
Y60532D02*
D03*
Y58760D02*
D03*
Y56988D02*
D03*
Y55217D02*
D03*
Y53445D02*
D03*
D55*
X-32677Y57874D02*
D03*
D56*
X37008Y-21654D02*
D03*
X59449D02*
D03*
X44488D02*
D03*
D57*
X51968D02*
D03*
D58*
X-130709Y42913D02*
D03*
Y33071D02*
D03*
Y23228D02*
D03*
Y13386D02*
D03*
D59*
X-53740Y-70748D02*
D03*
Y-60748D02*
D03*
X-44685D02*
D03*
Y-70748D02*
D03*
D60*
X-56890Y-49020D02*
D03*
X-54921D02*
D03*
X-52953D02*
D03*
X-50984D02*
D03*
X-49016D02*
D03*
X-47047D02*
D03*
X-45079D02*
D03*
X-43110D02*
D03*
Y-29720D02*
D03*
X-45079D02*
D03*
X-47047D02*
D03*
X-49016D02*
D03*
X-50984D02*
D03*
X-52953D02*
D03*
X-54921D02*
D03*
X-56890D02*
D03*
D61*
X-40350Y-46260D02*
D03*
Y-44291D02*
D03*
Y-42323D02*
D03*
Y-40354D02*
D03*
Y-38386D02*
D03*
Y-36417D02*
D03*
Y-34449D02*
D03*
Y-32480D02*
D03*
X-59650D02*
D03*
Y-34449D02*
D03*
Y-36417D02*
D03*
Y-38386D02*
D03*
Y-40354D02*
D03*
Y-42323D02*
D03*
Y-44291D02*
D03*
Y-46260D02*
D03*
D62*
X-50000Y-39370D02*
D03*
D63*
X-68110Y-46850D02*
D03*
Y-53150D02*
D03*
X-77165Y-32677D02*
D03*
Y-26378D02*
D03*
D64*
X-51575Y-16535D02*
D03*
X-57874D02*
D03*
D65*
X-35827Y-57874D02*
D03*
D131*
X-117362Y-61073D02*
X-108396D01*
X6693Y89764D02*
X12598D01*
X1181Y84252D02*
X6693Y89764D01*
X1181Y66929D02*
Y84252D01*
X25984Y34646D02*
Y36220D01*
X25197Y37008D02*
X25984Y36220D01*
X25197Y37008D02*
Y56299D01*
X24016Y57480D02*
X25197Y56299D01*
X26284Y33952D02*
Y34183D01*
X25984Y34483D02*
X26284Y34183D01*
X25984Y34483D02*
Y34646D01*
X23228Y34252D02*
X27559Y29921D01*
X23228Y34252D02*
Y35827D01*
Y55512D01*
X18701Y60039D02*
X23228Y55512D01*
X48425Y-1969D02*
Y11811D01*
X45276Y-5118D02*
X48425Y-1969D01*
X43446Y-5118D02*
X45276D01*
X46693Y-945D02*
Y10787D01*
X44488Y-3150D02*
X46693Y-945D01*
X42717Y-3150D02*
X44488D01*
X40551Y-8013D02*
X43446Y-5118D01*
X40551Y-9843D02*
Y-8013D01*
X27756Y29724D02*
X46693Y10787D01*
X26284Y33952D02*
X48425Y11811D01*
X38189Y-7874D02*
Y-7677D01*
X19488Y62008D02*
X23917Y57579D01*
X11024Y62008D02*
X19488D01*
X11024Y60039D02*
X18701D01*
X1181Y62992D02*
Y64961D01*
Y66929D01*
X11024Y69882D02*
Y71654D01*
X1181Y62992D02*
X1753D01*
X1861Y62884D01*
X7972Y62756D02*
Y65945D01*
X4134Y60039D02*
X11024D01*
X8721Y62008D02*
X11024D01*
X7972Y65945D02*
X11024D01*
X7972Y62756D02*
X8721Y62008D01*
X1861Y62313D02*
Y62884D01*
Y62313D02*
X4134Y60039D01*
X11417Y74016D02*
X12598Y75197D01*
X9843Y74016D02*
X11417D01*
X7972Y72146D02*
X9843Y74016D01*
X7972Y65945D02*
Y72146D01*
X12598Y79528D02*
X15059D01*
X10138D02*
X12598D01*
Y75197D02*
Y79528D01*
Y89764D02*
X22047D01*
X12598Y84646D02*
Y89764D01*
X22047D02*
X23622Y88189D01*
Y84646D02*
Y88189D01*
X10394Y84646D02*
X12598D01*
X10000Y84252D02*
X10394Y84646D01*
X12598D02*
X14803D01*
X15197Y84252D01*
X-105306Y-63535D02*
Y-24991D01*
X-106495Y-64724D02*
X-105306Y-63535D01*
X-108661Y-64724D02*
X-106495D01*
X-114803D02*
X-108661D01*
X-107480Y-60098D02*
Y-24094D01*
X-108002Y-60619D02*
X-107480Y-60098D01*
X-108002Y-60679D02*
Y-60619D01*
X-108396Y-61073D02*
X-108002Y-60679D01*
X-115364Y-64164D02*
X-114803Y-64724D01*
X-115778Y-64164D02*
X-115364D01*
X-115807Y-64135D02*
X-115778Y-64164D01*
X-115807Y-64135D02*
Y-63721D01*
X107874Y-57323D02*
Y-54331D01*
Y-57323D02*
X108031Y-57480D01*
X103937Y-56117D02*
Y-54331D01*
Y-56117D02*
X103986Y-56166D01*
Y-56899D02*
Y-56166D01*
Y-56899D02*
X104567Y-57480D01*
X105132Y-59502D02*
X106309Y-60679D01*
X105132Y-59502D02*
Y-58045D01*
X104567Y-57480D02*
X105132Y-58045D01*
X106309Y-63642D02*
Y-60679D01*
X108031Y-57959D02*
Y-57881D01*
Y-57959D02*
X108632Y-58560D01*
Y-63642D02*
Y-58560D01*
X38189Y-7677D02*
X42717Y-3150D01*
X-40551Y16142D02*
X-21654Y35039D01*
X-20866Y35827D02*
X-18504D01*
X-21654Y35039D02*
X-20866Y35827D01*
X-20669Y33268D02*
X-16535D01*
X-40157Y13780D02*
X-20669Y33268D01*
X-56104Y13780D02*
X-40157D01*
X-56890Y16142D02*
X-40551D01*
X-67521Y2362D02*
X-56104Y13780D01*
X-68307Y4724D02*
X-56890Y16142D01*
X-77953Y2362D02*
X-67521D01*
X-105306Y-24991D02*
X-77953Y2362D01*
X-78661Y4724D02*
X-68307D01*
X-107480Y-24094D02*
X-78661Y4724D01*
X-118130Y-61840D02*
X-117362Y-61073D01*
X-118130Y-63721D02*
Y-61840D01*
X-49419Y-18691D02*
X-49058Y-19052D01*
X-49616Y-18691D02*
X-49419D01*
X-51575Y-16732D02*
X-49616Y-18691D01*
X-51575Y-16732D02*
Y-16535D01*
X-52278Y-21654D02*
X-50394D01*
X-52411Y-21521D02*
X-52278Y-21654D01*
X-52362Y-17323D02*
X-51575Y-16535D01*
X-52362Y-21472D02*
Y-17323D01*
X-52411Y-21521D02*
X-52362Y-21472D01*
X-52411Y-22254D02*
Y-21521D01*
X-52992Y-22835D02*
X-52411Y-22254D01*
X-57087Y-21472D02*
Y-17323D01*
X-57874Y-16535D02*
X-57087Y-17323D01*
Y-21472D02*
X-57038Y-21521D01*
Y-22254D02*
Y-21521D01*
Y-22254D02*
X-56457Y-22835D01*
X-59650Y-38386D02*
X-50984D01*
X-59055Y-17717D02*
X-57874Y-16535D01*
X-70866Y-24173D02*
X-70285Y-24754D01*
X-69576D01*
X-66802Y-27529D01*
Y-27608D02*
Y-27529D01*
Y-27608D02*
X-66220Y-28189D01*
X-66142D01*
X-60850Y-32480D02*
Y-32256D01*
X-64336Y-28770D02*
X-60850Y-32256D01*
X-65561Y-28770D02*
X-64336D01*
X-66142Y-28189D02*
X-65561Y-28770D01*
X-60850Y-32480D02*
X-59650D01*
X-75222Y-30734D02*
X-73648D01*
X-77165Y-32677D02*
X-75222Y-30734D01*
X-73648D02*
X-72865Y-29951D01*
X-71447D01*
X-70866Y-29370D01*
X-67983Y-31072D02*
X-66723D01*
X-66142Y-31654D01*
X-69134Y-29921D02*
X-67983Y-31072D01*
X-70315Y-29921D02*
X-69134D01*
X-70866Y-29370D02*
X-70315Y-29921D01*
X-77165Y-26378D02*
X-76968D01*
X-74764Y-24173D01*
X-70866D01*
X-66142Y-31654D02*
X-66063D01*
X-65482Y-32235D01*
Y-32313D02*
Y-32235D01*
Y-32313D02*
X-63346Y-34449D01*
X-59650D01*
X-66256Y-35548D02*
X-66142Y-35433D01*
X-66256Y-37674D02*
Y-35548D01*
X-66378Y-37795D02*
X-66256Y-37674D01*
X-66378Y-37795D02*
X-63386D01*
X-62008Y-36417D01*
X-59650D01*
X-62795Y-44291D02*
X-59650D01*
X-54921D01*
X-52953Y-33622D02*
Y-29720D01*
X-88189Y71339D02*
X-86535D01*
X-61024Y-47244D02*
X-60039Y-46260D01*
X-59650D01*
X-63386Y-44882D02*
X-62795Y-44291D01*
X-37598Y-32480D02*
X-36063Y-30945D01*
X-40350Y-32480D02*
X-37598D01*
X-54921Y-33071D02*
Y-29720D01*
X-40350Y-34449D02*
X-33504D01*
X-52953Y-29720D02*
Y-22874D01*
X-56890Y-29720D02*
Y-23268D01*
D132*
X20079Y46063D02*
Y52362D01*
Y28740D02*
Y46063D01*
Y28740D02*
X23622Y25197D01*
X17717Y54724D02*
X20079Y52362D01*
X-45748Y-61811D02*
X-44882Y-62677D01*
X-48902Y21441D02*
X-48720Y21260D01*
X-51968Y21660D02*
X-50364D01*
X-50145Y21441D01*
X-48902D01*
X-41069Y-18504D02*
X-38872D01*
X-38872Y-18504D01*
X-35408Y-7480D02*
Y-5118D01*
X-38872Y-7480D02*
Y-5118D01*
X-38872Y-7480D02*
X-38872Y-7480D01*
X-38872Y-12205D02*
Y-7480D01*
X-26614Y-18504D02*
X-24409D01*
X-35408D02*
X-30079D01*
X-35408Y-18504D02*
X-35408Y-18504D01*
X-35408Y-18504D02*
Y-12205D01*
X-35408Y-12205D01*
Y-7480D01*
X-70787Y-20709D02*
X-69724Y-19645D01*
X-65973D01*
X-70866Y-20709D02*
X-70787D01*
X-53150Y-18110D02*
X-52362Y-17323D01*
X-27165Y-68504D02*
X-24409Y-65748D01*
X-31988Y-73327D02*
X-27165Y-68504D01*
X-44882Y-65907D02*
Y-62677D01*
X-120079Y-45276D02*
Y-39075D01*
X-120571Y-38583D02*
X-120079Y-39075D01*
Y-52264D02*
Y-45276D01*
X-120571Y-52756D02*
X-120079Y-52264D01*
Y-12106D02*
Y-5512D01*
X-120571Y-12598D02*
X-120079Y-12106D01*
Y-5512D02*
Y1083D01*
X-120571Y1575D02*
X-120079Y1083D01*
X-24409Y-65748D02*
X-9843D01*
X-31988Y-74410D02*
Y-73327D01*
X-70472Y-52362D02*
X-69685Y-51575D01*
X69390Y15453D02*
Y18504D01*
X74410Y18799D02*
Y22441D01*
Y18799D02*
X74705Y18504D01*
X72835Y24016D02*
X74410Y22441D01*
X72205Y24016D02*
X72835D01*
X68740Y19153D02*
X69390Y18504D01*
X68740Y19153D02*
Y24016D01*
X68504Y24252D02*
X68740Y24016D01*
X68504Y24252D02*
Y31496D01*
X-66536Y-51575D02*
X-62992D01*
X-61024Y-49606D01*
Y-47244D01*
X-68110Y-46850D02*
X-66535Y-45276D01*
X-36063Y-30945D02*
X-33465D01*
X-9843Y-65748D02*
X-6693Y-62598D01*
Y-61417D01*
X-33465Y-34409D02*
X-30866D01*
X-84252Y-43701D02*
X-81260D01*
X-84252Y-38976D02*
X-81260D01*
X-33465Y-30945D02*
X-30866D01*
X-53740Y-70748D02*
X-44685D01*
X-45748Y-61811D02*
X-44685Y-60748D01*
Y-70748D02*
X-43465Y-69528D01*
X-40945Y-62598D02*
X-39764Y-63779D01*
X-71260Y-51575D02*
X-70472Y-52362D01*
X-74410Y-51575D02*
X-71260D01*
X-51575Y-16535D02*
X-50000Y-18110D01*
X-43465Y-69528D02*
X-39764D01*
Y-63779D01*
X40748Y90945D02*
X47244D01*
X47244Y90945D01*
X89764Y88976D02*
X93307D01*
Y48425D02*
Y52362D01*
D133*
X-113583Y65945D02*
X-110039D01*
X-109917Y66067D01*
X-115354Y67716D02*
X-113583Y65945D01*
X-92913Y57480D02*
X-90551D01*
X-95276D02*
X-92913D01*
X-104799Y66067D02*
X-104724Y66142D01*
X-110039Y60039D02*
X-97835D01*
X-95276Y57480D01*
X-109917Y66067D02*
X-104799D01*
D134*
X-85827Y22441D02*
Y31496D01*
X-85912Y15354D02*
X-85827Y15439D01*
Y22441D01*
X-100000Y22579D02*
Y26772D01*
Y22441D02*
X-99931Y22510D01*
X-100000Y18898D02*
Y22441D01*
X-100000Y22441D02*
X-100000Y22441D01*
X89567Y31496D02*
Y35236D01*
X49409Y31496D02*
Y35236D01*
X77165Y31496D02*
Y35433D01*
D135*
X106329Y-69213D02*
D03*
X-118110Y-69291D02*
D03*
D136*
X-117323Y62992D02*
D03*
Y74803D02*
D03*
D137*
X-95276Y-81260D02*
D03*
X-98425D02*
D03*
X-91929D02*
D03*
X-90158Y-77716D02*
D03*
X-93701D02*
D03*
X-83465D02*
D03*
X-87008D02*
D03*
X-85236Y-81260D02*
D03*
X-78740D02*
D03*
X-81890D02*
D03*
X787D02*
D03*
X3937D02*
D03*
X-2559D02*
D03*
X-4331Y-77716D02*
D03*
X-787D02*
D03*
X-11024D02*
D03*
X-7480D02*
D03*
X-9252Y-81260D02*
D03*
X-15748D02*
D03*
X-12598D02*
D03*
X83464D02*
D03*
X86614D02*
D03*
X80118D02*
D03*
X78346Y-77716D02*
D03*
X81890D02*
D03*
X71653D02*
D03*
X75197D02*
D03*
X73425Y-81260D02*
D03*
X66929D02*
D03*
X70079D02*
D03*
D138*
X-75984Y-77716D02*
D03*
X-101181D02*
D03*
X-18504D02*
D03*
X6693D02*
D03*
X64173D02*
D03*
X89370D02*
D03*
D139*
X-102165Y-73228D02*
D03*
X-75000D02*
D03*
X7677D02*
D03*
X-19488D02*
D03*
X90354D02*
D03*
X63189D02*
D03*
D140*
X-106201Y-71654D02*
D03*
X-70965D02*
D03*
X11713D02*
D03*
X-23524D02*
D03*
X94390D02*
D03*
X59153D02*
D03*
D141*
X-64665Y-80866D02*
D03*
X-112500D02*
D03*
X-64665Y-96063D02*
D03*
X-112500Y-95669D02*
D03*
X-29823D02*
D03*
X18012Y-96063D02*
D03*
X-29823Y-80866D02*
D03*
X18012D02*
D03*
X52854Y-95669D02*
D03*
X100689Y-96063D02*
D03*
X52854Y-80866D02*
D03*
X100689D02*
D03*
D142*
X-103150Y91634D02*
D03*
X-77165D02*
D03*
X-33858Y91536D02*
D03*
X-59842D02*
D03*
D143*
X-48386Y5236D02*
D03*
X105236Y89331D02*
D03*
D144*
X27559Y38189D02*
D03*
X-28740Y93307D02*
D03*
X27559Y84646D02*
D03*
X25984Y34646D02*
D03*
X23228Y35827D02*
D03*
X30315Y69291D02*
D03*
X15276Y66929D02*
D03*
X26772Y70472D02*
D03*
X13780Y72835D02*
D03*
X37008Y76772D02*
D03*
X40551Y-9843D02*
D03*
X38189Y-7874D02*
D03*
X11024Y71654D02*
D03*
X100394Y-56299D02*
D03*
X-96850Y-62992D02*
D03*
X107874Y-54331D02*
D03*
X103937D02*
D03*
X-104724Y66142D02*
D03*
X-115354Y67716D02*
D03*
X-90551Y57480D02*
D03*
X-92913D02*
D03*
X-95276D02*
D03*
X48031Y-56299D02*
D03*
X65354Y-50787D02*
D03*
X62598Y-56988D02*
D03*
X61024Y-43543D02*
D03*
X59153Y-56988D02*
D03*
X59055Y-52353D02*
D03*
Y-48031D02*
D03*
X103986Y-45669D02*
D03*
X47638Y-30709D02*
D03*
X35433Y-7874D02*
D03*
X44882Y-9523D02*
D03*
X39370Y-16535D02*
D03*
X-16535Y38189D02*
D03*
X-18504Y35827D02*
D03*
X-16535Y33268D02*
D03*
X-51968Y21660D02*
D03*
X-40945Y21260D02*
D03*
X-27165D02*
D03*
X10236Y76378D02*
D03*
X73425Y-35635D02*
D03*
X48705Y-34252D02*
D03*
X66337Y-35635D02*
D03*
X66509Y-18504D02*
D03*
X77936D02*
D03*
X-41069Y-18504D02*
D03*
X-35408Y-5118D02*
D03*
X-38872D02*
D03*
X-24409Y-18504D02*
D03*
X-39370Y-15354D02*
D03*
X-29134Y-11654D02*
D03*
X-73622Y-14173D02*
D03*
X-65973Y-19645D02*
D03*
X-61024Y-24191D02*
D03*
Y-27656D02*
D03*
X-86502Y-22047D02*
D03*
X-60630Y-1969D02*
D03*
X-66142Y-6299D02*
D03*
X-85827Y3937D02*
D03*
Y11811D02*
D03*
X-76069D02*
D03*
X-77756Y-20079D02*
D03*
X-86502Y-30079D02*
D03*
X-63937Y-13330D02*
D03*
X-50394Y-21654D02*
D03*
X-62318Y22835D02*
D03*
X-85827Y31496D02*
D03*
X-100000Y26772D02*
D03*
X-100000Y18898D02*
D03*
X-81975Y15354D02*
D03*
X-72132Y11811D02*
D03*
X-33465Y29134D02*
D03*
X-33858Y-64961D02*
D03*
X-44882Y-65907D02*
D03*
X-120079Y-45276D02*
D03*
Y-5512D02*
D03*
X-30709Y-62205D02*
D03*
X-27165Y-68504D02*
D03*
X-31988Y-74410D02*
D03*
X-70866Y-35433D02*
D03*
X-66142D02*
D03*
X-104961Y52756D02*
D03*
X74803Y8268D02*
D03*
X30709Y-18504D02*
D03*
X43307Y-394D02*
D03*
X40157D02*
D03*
X41929Y-39955D02*
D03*
X26772Y-12205D02*
D03*
X-137402Y15748D02*
D03*
Y11024D02*
D03*
X-135039Y13386D02*
D03*
X-132677Y15748D02*
D03*
Y11024D02*
D03*
X-130315Y13386D02*
D03*
X-127953Y15748D02*
D03*
Y11024D02*
D03*
X-125591Y13386D02*
D03*
X-123228Y11024D02*
D03*
Y15748D02*
D03*
Y13386D02*
D03*
X-127953D02*
D03*
X-132677D02*
D03*
X-137402D02*
D03*
X-125591Y15748D02*
D03*
X-130315D02*
D03*
X-135039D02*
D03*
X-125591Y11024D02*
D03*
X-130315D02*
D03*
X-135039D02*
D03*
X-137402Y35433D02*
D03*
Y30709D02*
D03*
X-135039Y33071D02*
D03*
X-132677Y35433D02*
D03*
Y30709D02*
D03*
X-130315Y33071D02*
D03*
X-127953Y35433D02*
D03*
Y30709D02*
D03*
X-125591Y33071D02*
D03*
X-123228Y30709D02*
D03*
Y35433D02*
D03*
Y33071D02*
D03*
X-127953D02*
D03*
X-132677D02*
D03*
X-137402D02*
D03*
X-125591Y35433D02*
D03*
X-130315D02*
D03*
X-135039D02*
D03*
X-125591Y30709D02*
D03*
X-130315D02*
D03*
X-135039D02*
D03*
X-137402Y23228D02*
D03*
X-132677D02*
D03*
X-127953D02*
D03*
X-123228D02*
D03*
X-135039Y20866D02*
D03*
X-130315D02*
D03*
X-125591D02*
D03*
X-135039Y25591D02*
D03*
X-130315D02*
D03*
X-125591D02*
D03*
X-135039Y40551D02*
D03*
X-130315D02*
D03*
X-125591D02*
D03*
X-135039Y45276D02*
D03*
X-130315D02*
D03*
X-125591D02*
D03*
X-137402Y42913D02*
D03*
X-132677D02*
D03*
X-127953D02*
D03*
X-123228D02*
D03*
X-41890Y-9865D02*
D03*
X-58860Y-5888D02*
D03*
X-64016Y-9865D02*
D03*
X-17717Y65748D02*
D03*
X61417Y9449D02*
D03*
X23622Y18110D02*
D03*
Y25197D02*
D03*
X87402Y24311D02*
D03*
Y21260D02*
D03*
X83071Y14567D02*
D03*
X79921D02*
D03*
X69390Y15453D02*
D03*
X74410Y22441D02*
D03*
X93071Y15118D02*
D03*
X89606Y15118D02*
D03*
X1575Y18110D02*
D03*
X4724Y10236D02*
D03*
X-1575D02*
D03*
X-5512Y9843D02*
D03*
X-16535Y7480D02*
D03*
X89567Y35236D02*
D03*
X49409D02*
D03*
X77165Y35433D02*
D03*
X78839Y24311D02*
D03*
X-11811Y76772D02*
D03*
X-18898Y84646D02*
D03*
X-3150D02*
D03*
X12598D02*
D03*
X23622D02*
D03*
X43307Y76772D02*
D03*
X40157D02*
D03*
X43307Y85433D02*
D03*
X40157D02*
D03*
X35827Y87402D02*
D03*
X20472D02*
D03*
X9449D02*
D03*
X-22047D02*
D03*
X-12992Y84646D02*
D03*
X-10630D02*
D03*
X-14961Y86221D02*
D03*
X-8661D02*
D03*
X-17323Y87402D02*
D03*
X-6299D02*
D03*
X-72047Y79134D02*
D03*
X-72132Y15354D02*
D03*
X-76069D02*
D03*
X-85912D02*
D03*
X-123228Y25591D02*
D03*
X-127953Y20866D02*
D03*
Y25591D02*
D03*
X-130315Y23228D02*
D03*
X-123228Y20866D02*
D03*
X-125591Y23228D02*
D03*
X-132677Y20866D02*
D03*
Y25591D02*
D03*
X-135039Y23228D02*
D03*
X-137402Y20866D02*
D03*
Y25591D02*
D03*
X-123228Y45276D02*
D03*
Y40551D02*
D03*
X-125591Y42913D02*
D03*
X-127953Y40551D02*
D03*
Y45276D02*
D03*
X-130315Y42913D02*
D03*
X-132677Y40551D02*
D03*
Y45276D02*
D03*
X-135039Y42913D02*
D03*
X-137402Y40551D02*
D03*
Y45276D02*
D03*
X12598Y18110D02*
D03*
X40945Y7480D02*
D03*
X36220D02*
D03*
X33071D02*
D03*
X28346D02*
D03*
X20472D02*
D03*
X22047Y10236D02*
D03*
X17323Y10236D02*
D03*
X15748Y7480D02*
D03*
X6299D02*
D03*
X-25197D02*
D03*
X-18898Y10236D02*
D03*
X-25197D02*
D03*
X28346Y-7480D02*
D03*
X24409Y-7874D02*
D03*
X22835Y-5512D02*
D03*
X21260Y-3150D02*
D03*
X19685Y-787D02*
D03*
X10236Y-6299D02*
D03*
X8661Y-3937D02*
D03*
X7087Y-1575D02*
D03*
X-18898Y-7480D02*
D03*
X-10236Y-787D02*
D03*
X-11811Y-3150D02*
D03*
X-13386Y-5512D02*
D03*
X-14961Y-7874D02*
D03*
X-7087Y-1969D02*
D03*
X-5512Y-3937D02*
D03*
X-3937Y-6299D02*
D03*
X-2362Y-8661D02*
D03*
X81732Y-49449D02*
D03*
X81732Y-52913D02*
D03*
X108031Y-39213D02*
D03*
X46850Y-50000D02*
D03*
X17323Y-43701D02*
D03*
X32677Y-63779D02*
D03*
X27165Y-61417D02*
D03*
X44882D02*
D03*
X31102Y-54331D02*
D03*
X37008Y-83858D02*
D03*
X-87599Y76968D02*
D03*
X-90158Y77165D02*
D03*
X-92717Y76968D02*
D03*
X-32677Y77165D02*
D03*
X-39370Y76378D02*
D03*
X-32677Y64173D02*
D03*
X-44094Y65748D02*
D03*
X-51575Y71260D02*
D03*
X-32677Y51181D02*
D03*
X4724Y-27953D02*
D03*
X-1575Y-34252D02*
D03*
X4724Y-40551D02*
D03*
X11024Y-34252D02*
D03*
X4724Y-31102D02*
D03*
X7874Y-34252D02*
D03*
X4724Y-37402D02*
D03*
X1575Y-34252D02*
D03*
X14173Y-24803D02*
D03*
Y-43701D02*
D03*
X20472Y-50000D02*
D03*
Y-18504D02*
D03*
X-1575Y-27953D02*
D03*
X11024D02*
D03*
Y-40551D02*
D03*
X-1575D02*
D03*
X14173Y-21654D02*
D03*
X17323Y-24803D02*
D03*
X14173Y-46850D02*
D03*
X26772Y-56299D02*
D03*
X-4724Y-40551D02*
D03*
X-1575Y-24803D02*
D03*
X14173Y-27953D02*
D03*
X11024Y-43701D02*
D03*
X4724Y-50000D02*
D03*
X20472Y-34252D02*
D03*
X4724Y-18504D02*
D03*
X-94410Y71339D02*
D03*
X-23622Y61024D02*
D03*
X64173Y-68504D02*
D03*
X72835Y-68504D02*
D03*
X80709D02*
D03*
X89370D02*
D03*
X70079Y-67323D02*
D03*
X68110Y-64173D02*
D03*
X-101181Y-68504D02*
D03*
X-92520Y-68504D02*
D03*
X-75984D02*
D03*
X-81890Y-67323D02*
D03*
X-78740D02*
D03*
X6693Y-68504D02*
D03*
X12598Y-62598D02*
D03*
X10236Y-61811D02*
D03*
X7874Y-60630D02*
D03*
X4724D02*
D03*
X32913Y-11654D02*
D03*
X-1575Y-18504D02*
D03*
X11024D02*
D03*
X-45669Y51181D02*
D03*
X-55905D02*
D03*
X-29291Y-8110D02*
D03*
X-27165Y75197D02*
D03*
X-82284Y77559D02*
D03*
X-85039Y85039D02*
D03*
X-82677Y81890D02*
D03*
X-93701Y49606D02*
D03*
X-88583D02*
D03*
X-69291Y67716D02*
D03*
X-62992Y67323D02*
D03*
X-66535Y63779D02*
D03*
X-62205Y50394D02*
D03*
X-69685D02*
D03*
X-57874Y44094D02*
D03*
X-69685D02*
D03*
X-80709D02*
D03*
Y50394D02*
D03*
X-70472Y53543D02*
D03*
X-60236Y32677D02*
D03*
X-65473Y40827D02*
D03*
X-80472Y40709D02*
D03*
X-96063Y76772D02*
D03*
X-99213D02*
D03*
X-102362D02*
D03*
X-78347Y77165D02*
D03*
X-46063Y-43307D02*
D03*
X-89370Y-48031D02*
D03*
X-84252Y-43701D02*
D03*
X-1969Y-68504D02*
D03*
X-96063Y-50000D02*
D03*
X-49213Y-60630D02*
D03*
X-61417Y-64961D02*
D03*
X-40945Y-62598D02*
D03*
X-74410Y-54331D02*
D03*
Y-39764D02*
D03*
Y-48425D02*
D03*
X-11024Y-18504D02*
D03*
X-11024Y-34252D02*
D03*
X-46063Y-35433D02*
D03*
X-53937Y-43307D02*
D03*
Y-39370D02*
D03*
X-50000Y-43307D02*
D03*
Y-35433D02*
D03*
X-53937Y-35433D02*
D03*
X-6693Y-61417D02*
D03*
X-30866Y-34409D02*
D03*
X-29291Y-54567D02*
D03*
X-23386Y-58031D02*
D03*
X-83465Y-60630D02*
D03*
X-65354D02*
D03*
X-84252Y-38976D02*
D03*
X-9843Y-68504D02*
D03*
X-18504D02*
D03*
X-84646D02*
D03*
X-17323Y-12205D02*
D03*
Y-56299D02*
D03*
X-7874Y-43701D02*
D03*
X-4724Y-46850D02*
D03*
X-7874Y-24803D02*
D03*
X-4724Y-21654D02*
D03*
X-11024Y-50000D02*
D03*
X-4724Y-43701D02*
D03*
Y-24803D02*
D03*
X-30866Y-30945D02*
D03*
X-50000Y-39370D02*
D03*
X-44488Y-94095D02*
D03*
X-13780Y-70079D02*
D03*
X-44882Y-79134D02*
D03*
X-39764Y-75984D02*
D03*
X-74410Y-62598D02*
D03*
Y-51575D02*
D03*
Y-42913D02*
D03*
Y-45669D02*
D03*
X-46063Y-39370D02*
D03*
X-24016Y53543D02*
D03*
X-7087Y72835D02*
D03*
X-5512Y68110D02*
D03*
X-4724Y70866D02*
D03*
X46850Y26772D02*
D03*
X50394D02*
D03*
X37008Y-394D02*
D03*
X34252D02*
D03*
X62205Y25197D02*
D03*
X64173Y23622D02*
D03*
X60630Y18110D02*
D03*
X-20472D02*
D03*
Y29134D02*
D03*
X28346Y18110D02*
D03*
X47244Y90945D02*
D03*
X89764Y88976D02*
D03*
X93307Y52362D02*
D03*
X26378Y20472D02*
D03*
X-787Y50000D02*
D03*
Y47244D02*
D03*
X935Y45030D02*
D03*
X7087Y50000D02*
D03*
X17165Y51417D02*
D03*
X-16535Y47244D02*
D03*
X-13386Y50000D02*
D03*
X-11811Y44882D02*
D03*
X-24409Y76772D02*
D03*
X-787Y30709D02*
D03*
X17165Y42756D02*
D03*
X17717Y54724D02*
D03*
M02*
