G04*
G04 #@! TF.GenerationSoftware,Altium Limited,Altium Designer,22.0.2 (36)*
G04*
G04 Layer_Color=8388736*
%FSLAX25Y25*%
%MOIN*%
G70*
G04*
G04 #@! TF.SameCoordinates,2161BBB5-3730-4A37-975F-558EB53CE70B*
G04*
G04*
G04 #@! TF.FilePolarity,Negative*
G04*
G01*
G75*
%ADD66R,0.03445X0.11811*%
%ADD67R,0.03445X0.05709*%
%ADD68R,0.03937X0.05512*%
%ADD69R,0.03937X0.05512*%
%ADD70R,0.07874X0.03937*%
%ADD71R,0.02756X0.03150*%
%ADD72R,0.05118X0.02756*%
%ADD73R,0.08661X0.02756*%
%ADD74R,0.10236X0.05512*%
%ADD75R,0.06102X0.01181*%
%ADD76R,0.00787X0.05709*%
%ADD77R,0.03162X0.06706*%
%ADD78R,0.03162X0.05131*%
%ADD79R,0.01942X0.02887*%
%ADD80R,0.03359X0.01863*%
%ADD81R,0.03359X0.01784*%
%ADD82R,0.04343X0.04737*%
%ADD83R,0.03162X0.03320*%
%ADD84R,0.03753X0.03162*%
%ADD85R,0.03320X0.03162*%
%ADD86R,0.04540X0.04147*%
%ADD87R,0.03950X0.04737*%
%ADD88R,0.06706X0.03556*%
%ADD89R,0.03162X0.03753*%
%ADD90R,0.01981X0.03162*%
%ADD91R,0.01784X0.03458*%
%ADD92R,0.03458X0.01784*%
%ADD93R,0.04147X0.03359*%
%ADD94R,0.08674X0.03162*%
%ADD95R,0.17335X0.03556*%
%ADD96R,0.01981X0.02847*%
%ADD97C,0.02375*%
%ADD98R,0.08280X0.07887*%
G04:AMPARAMS|DCode=99|XSize=70.99mil|YSize=63.12mil|CornerRadius=17.78mil|HoleSize=0mil|Usage=FLASHONLY|Rotation=180.000|XOffset=0mil|YOffset=0mil|HoleType=Round|Shape=RoundedRectangle|*
%AMROUNDEDRECTD99*
21,1,0.07099,0.02756,0,0,180.0*
21,1,0.03543,0.06312,0,0,180.0*
1,1,0.03556,-0.01772,0.01378*
1,1,0.03556,0.01772,0.01378*
1,1,0.03556,0.01772,-0.01378*
1,1,0.03556,-0.01772,-0.01378*
%
%ADD99ROUNDEDRECTD99*%
%ADD100O,0.02375X0.06115*%
%ADD101R,0.04528X0.05906*%
%ADD102R,0.04737X0.04343*%
%ADD103R,0.03556X0.05524*%
%ADD104R,0.04737X0.05524*%
%ADD105R,0.04737X0.03950*%
%ADD106R,0.04737X0.11824*%
%ADD107R,0.05918X0.08280*%
%ADD108R,0.03950X0.03950*%
%ADD109R,0.03359X0.04540*%
%ADD110R,0.04147X0.01784*%
%ADD111R,0.07021X0.10564*%
%ADD112R,0.04737X0.04737*%
%ADD113R,0.04737X0.04737*%
%ADD114R,0.16800X0.08300*%
%ADD115R,0.05131X0.05524*%
%ADD116R,0.02200X0.04600*%
%ADD117R,0.04600X0.02200*%
%ADD118R,0.13600X0.13600*%
%ADD119R,0.06312X0.05918*%
%ADD120R,0.05918X0.06312*%
%ADD121R,0.10642X0.05721*%
%ADD122C,0.06509*%
%ADD123C,0.04343*%
%ADD124C,0.03359*%
%ADD125O,0.05328X0.03359*%
%ADD126C,0.03162*%
%ADD127O,0.04737X0.07099*%
%ADD128O,0.04737X0.10879*%
%ADD129O,0.04343X0.07099*%
%ADD130C,0.12200*%
D66*
X10974Y64961D02*
D03*
D67*
X1132D02*
D03*
D68*
X9843Y50000D02*
D03*
D69*
X1969D02*
D03*
D70*
X5906Y54724D02*
D03*
Y45276D02*
D03*
D71*
X-73426Y-73229D02*
D03*
X-103740D02*
D03*
X-21063D02*
D03*
X9251D02*
D03*
X61615D02*
D03*
X91929D02*
D03*
D72*
X-95078Y-81299D02*
D03*
X-82087D02*
D03*
X590D02*
D03*
X-12401D02*
D03*
X83267D02*
D03*
X70276D02*
D03*
D73*
X-88583Y-77756D02*
D03*
X-5906D02*
D03*
X76772D02*
D03*
D74*
X-90158Y81102D02*
D03*
X-46850Y81102D02*
D03*
D75*
X-90158Y72835D02*
D03*
X-46457Y72047D02*
D03*
D76*
X87795Y31496D02*
D03*
D77*
X-80827Y35827D02*
D03*
X-105000D02*
D03*
D78*
X-85827Y22441D02*
D03*
X-90551D02*
D03*
X-95276D02*
D03*
X-100000D02*
D03*
D79*
X108632Y-63642D02*
D03*
X106309D02*
D03*
X103986D02*
D03*
X-120453Y-63721D02*
D03*
X-118130D02*
D03*
X-115807D02*
D03*
D80*
X11024Y69882D02*
D03*
Y60039D02*
D03*
D81*
Y67913D02*
D03*
X1181Y66929D02*
D03*
X11024Y65945D02*
D03*
X1181Y64961D02*
D03*
X11024Y63976D02*
D03*
X1181Y62992D02*
D03*
X11024Y62008D02*
D03*
D82*
X21949Y74016D02*
D03*
X16634D02*
D03*
X28051D02*
D03*
X33366D02*
D03*
X74705Y18504D02*
D03*
X69390D02*
D03*
X-32382Y47638D02*
D03*
X-37697D02*
D03*
D83*
X15197Y84252D02*
D03*
X18661D02*
D03*
X108031Y-57480D02*
D03*
X104567D02*
D03*
X10000Y84252D02*
D03*
X6535D02*
D03*
X-26614Y-18504D02*
D03*
X-30079D02*
D03*
X-35408Y-12205D02*
D03*
X-38872D02*
D03*
X-38872Y-18504D02*
D03*
X-35408D02*
D03*
Y-7480D02*
D03*
X-38872D02*
D03*
X-69842Y-37795D02*
D03*
X-66378D02*
D03*
X68740Y24016D02*
D03*
X72205D02*
D03*
X89606Y18110D02*
D03*
X93071D02*
D03*
X49764Y24016D02*
D03*
X46299D02*
D03*
X30079Y-65354D02*
D03*
X26614D02*
D03*
X-35276Y72835D02*
D03*
X-38740D02*
D03*
X-30079D02*
D03*
X-26614D02*
D03*
X-77795Y-43701D02*
D03*
X-81260D02*
D03*
X-52992Y-22835D02*
D03*
X-56457D02*
D03*
X-77795Y-38976D02*
D03*
X-81260D02*
D03*
D84*
X15059Y79528D02*
D03*
X19587D02*
D03*
X10138D02*
D03*
X5610D02*
D03*
X37303Y3543D02*
D03*
X32776D02*
D03*
X79429Y11417D02*
D03*
X74902D02*
D03*
X56791Y13780D02*
D03*
X61319D02*
D03*
X-44193Y21260D02*
D03*
X-48720D02*
D03*
X-90650Y67323D02*
D03*
X-95177D02*
D03*
X39665Y-78740D02*
D03*
X35138D02*
D03*
X40256Y-83858D02*
D03*
X44783D02*
D03*
X35138Y-74016D02*
D03*
X39665D02*
D03*
X-55610Y59449D02*
D03*
X-60138D02*
D03*
X-40059Y67717D02*
D03*
X-35531D02*
D03*
X-25295D02*
D03*
X-29823D02*
D03*
X28248Y14567D02*
D03*
X23720D02*
D03*
X-52264Y-94095D02*
D03*
X-47736D02*
D03*
X-42618Y-88976D02*
D03*
X-47146D02*
D03*
Y-84252D02*
D03*
X-42618D02*
D03*
X-47736Y-79134D02*
D03*
X-52264D02*
D03*
D85*
X-39764Y-72992D02*
D03*
Y-69528D02*
D03*
X-108661Y-64724D02*
D03*
Y-61260D02*
D03*
X14567Y46220D02*
D03*
Y42756D02*
D03*
X-25984Y-8110D02*
D03*
Y-11575D02*
D03*
X46850Y-47008D02*
D03*
Y-43543D02*
D03*
X14567Y54882D02*
D03*
Y51417D02*
D03*
X-48425Y54094D02*
D03*
Y50630D02*
D03*
X-43307Y54094D02*
D03*
Y50630D02*
D03*
Y59291D02*
D03*
Y62756D02*
D03*
X35827Y-15118D02*
D03*
Y-11654D02*
D03*
X-33465Y-34409D02*
D03*
Y-30945D02*
D03*
X-70866Y-32835D02*
D03*
Y-29370D02*
D03*
X-66142Y-31654D02*
D03*
Y-28189D02*
D03*
X-70866Y-20709D02*
D03*
Y-24173D02*
D03*
X-26378Y-58031D02*
D03*
Y-54567D02*
D03*
D86*
X-59842Y-56102D02*
D03*
Y-61221D02*
D03*
X31890Y85236D02*
D03*
Y80118D02*
D03*
D87*
X-113524Y54528D02*
D03*
Y83268D02*
D03*
X-121122Y54528D02*
D03*
Y83268D02*
D03*
D88*
X-110433Y60039D02*
D03*
Y77756D02*
D03*
Y65945D02*
D03*
D89*
X-19685Y72539D02*
D03*
Y77067D02*
D03*
X44882Y-68799D02*
D03*
Y-64272D02*
D03*
Y-78642D02*
D03*
Y-74114D02*
D03*
X-68504Y79823D02*
D03*
Y75295D02*
D03*
X-100394Y72342D02*
D03*
Y67815D02*
D03*
X-52362Y-84350D02*
D03*
Y-88878D02*
D03*
D90*
X84646Y18209D02*
D03*
X82677D02*
D03*
X80709D02*
D03*
Y24311D02*
D03*
X82677D02*
D03*
X84646D02*
D03*
X54724D02*
D03*
X56693D02*
D03*
X58661D02*
D03*
Y18209D02*
D03*
X56693D02*
D03*
X54724D02*
D03*
D91*
X2953Y45030D02*
D03*
X4921D02*
D03*
X6890D02*
D03*
X8858D02*
D03*
Y54971D02*
D03*
X6890D02*
D03*
X4921D02*
D03*
X2953D02*
D03*
D92*
X9892Y48031D02*
D03*
Y50000D02*
D03*
Y51968D02*
D03*
X1919D02*
D03*
Y50000D02*
D03*
Y48031D02*
D03*
D93*
X35630Y-50197D02*
D03*
Y-43701D02*
D03*
X41732D02*
D03*
Y-50197D02*
D03*
D94*
X53543Y-56299D02*
D03*
Y-52362D02*
D03*
Y-48425D02*
D03*
Y-44488D02*
D03*
Y-40551D02*
D03*
Y-36614D02*
D03*
D95*
X61811Y-60236D02*
D03*
Y-32677D02*
D03*
D96*
X-88189Y71339D02*
D03*
X-90158D02*
D03*
X-92126D02*
D03*
Y74331D02*
D03*
X-90158D02*
D03*
X-88189D02*
D03*
X-44488Y70551D02*
D03*
X-46457D02*
D03*
X-48425D02*
D03*
Y73543D02*
D03*
X-46457D02*
D03*
X-44488D02*
D03*
D97*
X28346Y-57874D02*
D03*
X25197D02*
D03*
X22047D02*
D03*
X18898D02*
D03*
X15748D02*
D03*
X12598D02*
D03*
X9449D02*
D03*
X6299D02*
D03*
X3150D02*
D03*
X-0D02*
D03*
X-3150D02*
D03*
X-6299D02*
D03*
X-9449D02*
D03*
X-12598D02*
D03*
X-15748D02*
D03*
X-18898D02*
D03*
X28346Y-54724D02*
D03*
X25197D02*
D03*
X22047D02*
D03*
X18898D02*
D03*
X15748D02*
D03*
X12598D02*
D03*
X9449D02*
D03*
X6299D02*
D03*
X3150D02*
D03*
X-0D02*
D03*
X-3150D02*
D03*
X-6299D02*
D03*
X-9449D02*
D03*
X-12598D02*
D03*
X-15748D02*
D03*
X-18898D02*
D03*
X28346Y-51575D02*
D03*
X25197D02*
D03*
X22047D02*
D03*
X18898D02*
D03*
X15748D02*
D03*
X12598D02*
D03*
X9449D02*
D03*
X6299D02*
D03*
X3150D02*
D03*
X-0D02*
D03*
X-3150D02*
D03*
X-6299D02*
D03*
X-9449D02*
D03*
X-12598D02*
D03*
X-15748D02*
D03*
X-18898D02*
D03*
X28346Y-48425D02*
D03*
X25197D02*
D03*
X22047D02*
D03*
X18898D02*
D03*
X15748D02*
D03*
X12598D02*
D03*
X9449D02*
D03*
X6299D02*
D03*
X3150D02*
D03*
X-0D02*
D03*
X-3150D02*
D03*
X-6299D02*
D03*
X-9449D02*
D03*
X-12598D02*
D03*
X-15748D02*
D03*
X-18898D02*
D03*
X28346Y-45276D02*
D03*
X25197D02*
D03*
X22047D02*
D03*
X18898D02*
D03*
X15748D02*
D03*
X12598D02*
D03*
X9449D02*
D03*
X6299D02*
D03*
X3150D02*
D03*
X-0D02*
D03*
X-3150D02*
D03*
X-6299D02*
D03*
X-9449D02*
D03*
X-12598D02*
D03*
X-15748D02*
D03*
X-18898D02*
D03*
X28346Y-42126D02*
D03*
X25197D02*
D03*
X22047D02*
D03*
X18898D02*
D03*
X15748D02*
D03*
X12598D02*
D03*
X9449D02*
D03*
X6299D02*
D03*
X3150D02*
D03*
X-0D02*
D03*
X-3150D02*
D03*
X-6299D02*
D03*
X-9449D02*
D03*
X-12598D02*
D03*
X-15748D02*
D03*
X-18898D02*
D03*
X28346Y-38976D02*
D03*
X25197D02*
D03*
X22047D02*
D03*
X18898D02*
D03*
X15748D02*
D03*
X12598D02*
D03*
X9449D02*
D03*
X6299D02*
D03*
X3150D02*
D03*
X-0D02*
D03*
X-3150D02*
D03*
X-6299D02*
D03*
X-9449D02*
D03*
X-12598D02*
D03*
X-15748D02*
D03*
X-18898D02*
D03*
X28346Y-35827D02*
D03*
X25197D02*
D03*
X22047D02*
D03*
X18898D02*
D03*
X15748D02*
D03*
X12598D02*
D03*
X9449D02*
D03*
X6299D02*
D03*
X3150D02*
D03*
X-0D02*
D03*
X-3150D02*
D03*
X-6299D02*
D03*
X-9449D02*
D03*
X-12598D02*
D03*
X-15748D02*
D03*
X-18898D02*
D03*
X28346Y-32677D02*
D03*
X25197D02*
D03*
X22047D02*
D03*
X18898D02*
D03*
X15748D02*
D03*
X12598D02*
D03*
X9449D02*
D03*
X6299D02*
D03*
X3150D02*
D03*
X-0D02*
D03*
X-3150D02*
D03*
X-6299D02*
D03*
X-9449D02*
D03*
X-12598D02*
D03*
X-15748D02*
D03*
X-18898D02*
D03*
X28346Y-29528D02*
D03*
X25197D02*
D03*
X22047D02*
D03*
X18898D02*
D03*
X15748D02*
D03*
X12598D02*
D03*
X9449D02*
D03*
X6299D02*
D03*
X3150D02*
D03*
X-0D02*
D03*
X-3150D02*
D03*
X-6299D02*
D03*
X-9449D02*
D03*
X-12598D02*
D03*
X-15748D02*
D03*
X-18898D02*
D03*
X28346Y-26378D02*
D03*
X25197D02*
D03*
X22047D02*
D03*
X18898D02*
D03*
X15748D02*
D03*
X12598D02*
D03*
X9449D02*
D03*
X6299D02*
D03*
X3150D02*
D03*
X-0D02*
D03*
X-3150D02*
D03*
X-6299D02*
D03*
X-9449D02*
D03*
X-12598D02*
D03*
X-15748D02*
D03*
X-18898D02*
D03*
X28346Y-23228D02*
D03*
X25197D02*
D03*
X22047D02*
D03*
X18898D02*
D03*
X15748D02*
D03*
X12598D02*
D03*
X9449D02*
D03*
X6299D02*
D03*
X3150D02*
D03*
X-0D02*
D03*
X-3150D02*
D03*
X-6299D02*
D03*
X-9449D02*
D03*
X-12598D02*
D03*
X-15748D02*
D03*
X-18898D02*
D03*
X28346Y-20079D02*
D03*
X25197D02*
D03*
X22047D02*
D03*
X18898D02*
D03*
X15748D02*
D03*
X12598D02*
D03*
X9449D02*
D03*
X6299D02*
D03*
X3150D02*
D03*
X-0D02*
D03*
X-3150D02*
D03*
X-6299D02*
D03*
X-9449D02*
D03*
X-12598D02*
D03*
X-15748D02*
D03*
X-18898D02*
D03*
X28346Y-16929D02*
D03*
X25197D02*
D03*
X22047D02*
D03*
X18898D02*
D03*
X15748D02*
D03*
X12598D02*
D03*
X9449D02*
D03*
X6299D02*
D03*
X3150D02*
D03*
X-0D02*
D03*
X-3150D02*
D03*
X-6299D02*
D03*
X-9449D02*
D03*
X-12598D02*
D03*
X-15748D02*
D03*
X-18898D02*
D03*
X28346Y-13780D02*
D03*
X25197D02*
D03*
X22047D02*
D03*
X18898D02*
D03*
X15748D02*
D03*
X12598D02*
D03*
X9449D02*
D03*
X6299D02*
D03*
X3150D02*
D03*
X-0D02*
D03*
X-3150D02*
D03*
X-6299D02*
D03*
X-9449D02*
D03*
X-12598D02*
D03*
X-15748D02*
D03*
X-18898D02*
D03*
X28346Y-10630D02*
D03*
X25197D02*
D03*
X22047D02*
D03*
X18898D02*
D03*
X15748D02*
D03*
X12598D02*
D03*
X9449D02*
D03*
X6299D02*
D03*
X3150D02*
D03*
X-0D02*
D03*
X-3150D02*
D03*
X-6299D02*
D03*
X-9449D02*
D03*
X-12598D02*
D03*
X-15748D02*
D03*
X-18898D02*
D03*
D98*
X-94882Y91634D02*
D03*
X-85433D02*
D03*
X-42126Y91536D02*
D03*
X-51575D02*
D03*
D99*
X-102756Y81988D02*
D03*
X-77559D02*
D03*
X-34252Y81890D02*
D03*
X-59449D02*
D03*
D100*
X-90158Y81102D02*
D03*
X-87599D02*
D03*
X-85039D02*
D03*
X-95276D02*
D03*
X-92717D02*
D03*
X-49409Y81004D02*
D03*
X-51968D02*
D03*
X-41732D02*
D03*
X-44291D02*
D03*
X-46850D02*
D03*
D101*
X-114862Y-38583D02*
D03*
X-120571D02*
D03*
X-114862Y-52756D02*
D03*
X-120571D02*
D03*
X-114862Y1575D02*
D03*
X-120571D02*
D03*
X-114862Y-12598D02*
D03*
X-120571D02*
D03*
D102*
X-49213Y59941D02*
D03*
Y65256D02*
D03*
D103*
X55512Y31496D02*
D03*
X59842D02*
D03*
X64173D02*
D03*
X68504D02*
D03*
X72835D02*
D03*
X77165D02*
D03*
X81496D02*
D03*
X85827D02*
D03*
X89567D02*
D03*
D104*
X49409D02*
D03*
X93307Y48425D02*
D03*
D105*
X93898Y72835D02*
D03*
D106*
X93307Y88976D02*
D03*
D107*
X40748Y90945D02*
D03*
D108*
X-68504Y91929D02*
D03*
Y86024D02*
D03*
X-55905Y65748D02*
D03*
Y71653D02*
D03*
D109*
X-57874Y53740D02*
D03*
X-54134Y44685D02*
D03*
X-61614D02*
D03*
D110*
X-38248Y62303D02*
D03*
Y60532D02*
D03*
Y58760D02*
D03*
Y56988D02*
D03*
Y55217D02*
D03*
Y53445D02*
D03*
X-27106Y62303D02*
D03*
Y60532D02*
D03*
Y58760D02*
D03*
Y56988D02*
D03*
Y55217D02*
D03*
Y53445D02*
D03*
D111*
X-32677Y57874D02*
D03*
D112*
X37008Y-21654D02*
D03*
X59449D02*
D03*
X44488D02*
D03*
D113*
X51968D02*
D03*
D114*
X-130709Y42913D02*
D03*
Y33071D02*
D03*
Y23228D02*
D03*
Y13386D02*
D03*
D115*
X-53740Y-70748D02*
D03*
Y-60748D02*
D03*
X-44685D02*
D03*
Y-70748D02*
D03*
D116*
X-56890Y-49020D02*
D03*
X-54921D02*
D03*
X-52953D02*
D03*
X-50984D02*
D03*
X-49016D02*
D03*
X-47047D02*
D03*
X-45079D02*
D03*
X-43110D02*
D03*
Y-29720D02*
D03*
X-45079D02*
D03*
X-47047D02*
D03*
X-49016D02*
D03*
X-50984D02*
D03*
X-52953D02*
D03*
X-54921D02*
D03*
X-56890D02*
D03*
D117*
X-40350Y-46260D02*
D03*
Y-44291D02*
D03*
Y-42323D02*
D03*
Y-40354D02*
D03*
Y-38386D02*
D03*
Y-36417D02*
D03*
Y-34449D02*
D03*
Y-32480D02*
D03*
X-59650D02*
D03*
Y-34449D02*
D03*
Y-36417D02*
D03*
Y-38386D02*
D03*
Y-40354D02*
D03*
Y-42323D02*
D03*
Y-44291D02*
D03*
Y-46260D02*
D03*
D118*
X-50000Y-39370D02*
D03*
D119*
X-68110Y-46850D02*
D03*
Y-53150D02*
D03*
X-77165Y-32677D02*
D03*
Y-26378D02*
D03*
D120*
X-51575Y-16535D02*
D03*
X-57874D02*
D03*
D121*
X-35827Y-57874D02*
D03*
D122*
X106329Y-69213D02*
D03*
X-118110Y-69291D02*
D03*
D123*
X-117323Y62992D02*
D03*
Y74803D02*
D03*
D124*
X-95276Y-81260D02*
D03*
X-98425D02*
D03*
X-91929D02*
D03*
X-90158Y-77716D02*
D03*
X-93701D02*
D03*
X-83465D02*
D03*
X-87008D02*
D03*
X-85236Y-81260D02*
D03*
X-78740D02*
D03*
X-81890D02*
D03*
X787D02*
D03*
X3937D02*
D03*
X-2559D02*
D03*
X-4331Y-77716D02*
D03*
X-787D02*
D03*
X-11024D02*
D03*
X-7480D02*
D03*
X-9252Y-81260D02*
D03*
X-15748D02*
D03*
X-12598D02*
D03*
X83464D02*
D03*
X86614D02*
D03*
X80118D02*
D03*
X78346Y-77716D02*
D03*
X81890D02*
D03*
X71653D02*
D03*
X75197D02*
D03*
X73425Y-81260D02*
D03*
X66929D02*
D03*
X70079D02*
D03*
D125*
X-75984Y-77716D02*
D03*
X-101181D02*
D03*
X-18504D02*
D03*
X6693D02*
D03*
X64173D02*
D03*
X89370D02*
D03*
D126*
X-102165Y-73228D02*
D03*
X-75000D02*
D03*
X7677D02*
D03*
X-19488D02*
D03*
X90354D02*
D03*
X63189D02*
D03*
D127*
X-106201Y-71654D02*
D03*
X-70965D02*
D03*
X11713D02*
D03*
X-23524D02*
D03*
X94390D02*
D03*
X59153D02*
D03*
D128*
X-64665Y-80866D02*
D03*
X-112500D02*
D03*
X-64665Y-96063D02*
D03*
X-112500Y-95669D02*
D03*
X-29823D02*
D03*
X18012Y-96063D02*
D03*
X-29823Y-80866D02*
D03*
X18012D02*
D03*
X52854Y-95669D02*
D03*
X100689Y-96063D02*
D03*
X52854Y-80866D02*
D03*
X100689D02*
D03*
D129*
X-103150Y91634D02*
D03*
X-77165D02*
D03*
X-33858Y91536D02*
D03*
X-59842D02*
D03*
D130*
X-48386Y5236D02*
D03*
X105236Y89331D02*
D03*
M02*
