G04*
G04 #@! TF.GenerationSoftware,Altium Limited,Altium Designer,22.0.2 (36)*
G04*
G04 Layer_Physical_Order=4*
G04 Layer_Color=16711680*
%FSLAX25Y25*%
%MOIN*%
G70*
G04*
G04 #@! TF.SameCoordinates,2161BBB5-3730-4A37-975F-558EB53CE70B*
G04*
G04*
G04 #@! TF.FilePolarity,Positive*
G04*
G01*
G75*
%ADD10C,0.01000*%
%ADD15C,0.00800*%
%ADD16C,0.01500*%
%ADD18C,0.00600*%
%ADD27R,0.02362X0.02520*%
%ADD28R,0.02953X0.02362*%
%ADD29R,0.02520X0.02362*%
%ADD33R,0.02362X0.02953*%
%ADD53R,0.02559X0.03740*%
%ADD64R,0.05118X0.05512*%
%ADD131C,0.01200*%
%ADD132C,0.02000*%
%ADD133C,0.03000*%
%ADD134C,0.02500*%
%ADD135C,0.05709*%
%ADD136C,0.03543*%
%ADD137C,0.02559*%
%ADD138O,0.04528X0.02559*%
%ADD139C,0.02362*%
%ADD140O,0.03937X0.06299*%
%ADD141O,0.03937X0.10079*%
%ADD142O,0.03543X0.06299*%
%ADD143C,0.11400*%
%ADD144C,0.01800*%
%ADD145R,0.03740X0.02362*%
%ADD146R,0.03150X0.03150*%
%ADD147R,0.04528X0.06693*%
%ADD148R,0.07087X0.05118*%
%ADD149R,0.07874X0.23622*%
%ADD150R,0.02362X0.05709*%
%ADD151R,0.09843X0.06693*%
%ADD152R,0.05118X0.07087*%
%ADD153R,0.03543X0.02362*%
%ADD154R,0.02362X0.02165*%
%ADD155R,0.03740X0.02559*%
%ADD156R,0.01968X0.01181*%
%ADD157R,0.01378X0.02362*%
%ADD158R,0.04528X0.05315*%
%ADD159R,0.00787X0.04488*%
%ADD160R,0.16142X0.07874*%
%ADD161R,0.16535X0.07874*%
%ADD162R,0.12598X0.11024*%
G36*
X-54767Y61698D02*
Y42126D01*
X-64357D01*
X-64809Y42428D01*
X-65473Y42560D01*
X-66136Y42428D01*
X-66588Y42126D01*
X-79534Y42126D01*
X-79809Y42310D01*
X-80472Y42442D01*
X-81136Y42310D01*
X-81411Y42126D01*
X-82677D01*
Y52362D01*
X-72835D01*
Y53718D01*
X-72450Y54042D01*
X-72184Y53650D01*
X-72206Y53543D01*
X-72074Y52880D01*
X-71698Y52318D01*
X-71136Y51942D01*
X-70472Y51810D01*
X-69809Y51942D01*
X-69247Y52318D01*
X-68871Y52880D01*
X-68739Y53543D01*
X-68813Y53917D01*
X-68491Y54417D01*
X-68491D01*
Y61725D01*
X-72062D01*
X-72409Y62149D01*
X-72422Y62225D01*
X-72395Y62307D01*
X-72390D01*
Y64567D01*
Y66827D01*
X-72835D01*
Y69249D01*
X-62318D01*
X-54767Y61698D01*
D02*
G37*
G36*
X-20176Y-8268D02*
X-19979Y-8562D01*
X-19483Y-8893D01*
X-18898Y-9010D01*
X-18312Y-8893D01*
X-17816Y-8562D01*
X-17620Y-8268D01*
X-16412Y-8268D01*
X-16374Y-8459D01*
X-16042Y-8956D01*
X-15546Y-9287D01*
X-14961Y-9403D01*
X-14375Y-9287D01*
X-13879Y-8956D01*
X-13548Y-8459D01*
X-13510Y-8268D01*
X-11811Y-8268D01*
X-7874Y-12205D01*
X-6259Y-12205D01*
X-5906Y-12558D01*
Y-19291D01*
X-6259Y-19645D01*
X-10236Y-23622D01*
Y-32419D01*
X-10736Y-32780D01*
X-11024Y-32723D01*
X-11609Y-32839D01*
X-12105Y-33171D01*
X-12437Y-33667D01*
X-12553Y-34252D01*
X-12437Y-34837D01*
X-12105Y-35333D01*
X-11609Y-35665D01*
X-11024Y-35781D01*
X-10951Y-35767D01*
X-10236Y-36481D01*
Y-44882D01*
X-5906Y-49213D01*
X2891D01*
X3252Y-49713D01*
X3195Y-50000D01*
X3311Y-50585D01*
X3643Y-51081D01*
X4139Y-51413D01*
X4724Y-51529D01*
X5310Y-51413D01*
X5806Y-51081D01*
X6137Y-50585D01*
X6254Y-50000D01*
X6213Y-49796D01*
X6796Y-49213D01*
X15354D01*
X19685Y-44882D01*
Y-36086D01*
X20185Y-35724D01*
X20472Y-35781D01*
X21058Y-35665D01*
X21554Y-35333D01*
X21885Y-34837D01*
X22002Y-34252D01*
X21885Y-33667D01*
X21554Y-33171D01*
X21058Y-32839D01*
X20472Y-32723D01*
X20400Y-32737D01*
X19685Y-32023D01*
Y-23622D01*
X15354Y-19291D01*
X12857D01*
X12496Y-18791D01*
X12553Y-18504D01*
X12437Y-17919D01*
X12105Y-17423D01*
X11609Y-17091D01*
X11024Y-16974D01*
X10438Y-17091D01*
X9942Y-17423D01*
X9611Y-17919D01*
X9494Y-18504D01*
X9551Y-18791D01*
X9190Y-19291D01*
X6558D01*
X6197Y-18791D01*
X6254Y-18504D01*
X6137Y-17919D01*
X5806Y-17423D01*
X5310Y-17091D01*
X4724Y-16974D01*
X4139Y-17091D01*
X3643Y-17423D01*
X3311Y-17919D01*
X3195Y-18504D01*
X3210Y-18577D01*
X2495Y-19291D01*
X259D01*
X-103Y-18791D01*
X-45Y-18504D01*
X-162Y-17919D01*
X-493Y-17423D01*
X-989Y-17091D01*
X-1575Y-16974D01*
X-2160Y-17091D01*
X-2656Y-17423D01*
X-2988Y-17919D01*
X-3104Y-18504D01*
X-3047Y-18791D01*
X-3408Y-19291D01*
X-5906D01*
X-5906Y-12558D01*
X-5552Y-12205D01*
X25242D01*
X25359Y-12790D01*
X25690Y-13286D01*
X26186Y-13618D01*
X26772Y-13734D01*
X27357Y-13618D01*
X27853Y-13286D01*
X28185Y-12790D01*
X28301Y-12205D01*
X31494D01*
X31500Y-12239D01*
X31832Y-12735D01*
X32328Y-13067D01*
X32913Y-13183D01*
X32938Y-13203D01*
Y-28439D01*
X38744Y-34464D01*
Y-39046D01*
X37052Y-40739D01*
X35030D01*
Y-44104D01*
X38592D01*
Y-42082D01*
X39648Y-41026D01*
X40148Y-41233D01*
Y-44104D01*
X43710D01*
Y-43782D01*
X49105D01*
Y-45324D01*
X53149D01*
Y-46087D01*
X51780D01*
Y-48268D01*
X51279D01*
Y-48768D01*
X48803D01*
Y-50449D01*
X48803D01*
Y-50575D01*
X48803D01*
Y-52256D01*
X51279D01*
Y-53256D01*
X48803D01*
Y-54937D01*
X48803D01*
Y-55200D01*
X48803D01*
Y-56881D01*
X51279D01*
Y-57381D01*
X51780D01*
Y-59562D01*
X53150D01*
X53150Y-61069D01*
X49490Y-64728D01*
X27194D01*
X19225Y-56759D01*
X18894Y-56538D01*
X18504Y-56461D01*
X7874D01*
X7484Y-56538D01*
X7153Y-56759D01*
X4797Y-59115D01*
X4724Y-59101D01*
X4139Y-59217D01*
X3643Y-59548D01*
X3311Y-60045D01*
X3195Y-60630D01*
X3252Y-60917D01*
X2891Y-61417D01*
X-5164D01*
X-5280Y-60832D01*
X-5612Y-60336D01*
X-6108Y-60004D01*
X-6693Y-59888D01*
X-7278Y-60004D01*
X-7774Y-60336D01*
X-8106Y-60832D01*
X-8222Y-61417D01*
X-29431D01*
X-29627Y-61123D01*
X-30123Y-60792D01*
X-30188Y-60779D01*
X-31496Y-59471D01*
X-31496Y-36323D01*
X-30996Y-35913D01*
X-30866Y-35939D01*
X-30281Y-35822D01*
X-29785Y-35491D01*
X-29453Y-34995D01*
X-29337Y-34409D01*
X-29453Y-33824D01*
X-29785Y-33328D01*
X-30281Y-32996D01*
X-30605Y-32932D01*
Y-32422D01*
X-30281Y-32358D01*
X-29785Y-32026D01*
X-29453Y-31530D01*
X-29337Y-30945D01*
X-29453Y-30360D01*
X-29785Y-29864D01*
X-30281Y-29532D01*
X-30866Y-29416D01*
X-30996Y-29441D01*
X-31496Y-29031D01*
X-31496Y-8805D01*
X-31071Y-8440D01*
X-30742Y-8507D01*
X-30704Y-8696D01*
X-30373Y-9192D01*
X-29877Y-9523D01*
X-29291Y-9640D01*
X-28706Y-9523D01*
X-28210Y-9192D01*
X-27878Y-8696D01*
X-27793Y-8268D01*
X-20176Y-8268D01*
D02*
G37*
%LPC*%
G36*
X-69709Y66827D02*
X-71390D01*
Y65067D01*
X-69709D01*
Y66827D01*
D02*
G37*
G36*
Y64067D02*
X-71390D01*
Y62307D01*
X-69709D01*
Y64067D01*
D02*
G37*
G36*
X-63291Y61925D02*
X-64973D01*
Y58571D01*
X-63291D01*
Y61925D01*
D02*
G37*
G36*
X-65973D02*
X-67654D01*
Y58571D01*
X-65973D01*
Y61925D01*
D02*
G37*
G36*
X-63291Y57571D02*
X-64973D01*
Y54216D01*
X-63291D01*
Y57571D01*
D02*
G37*
G36*
X-65973D02*
X-67654D01*
Y54216D01*
X-65973D01*
Y57571D01*
D02*
G37*
G36*
X-17323Y-10675D02*
X-17908Y-10792D01*
X-18404Y-11123D01*
X-18736Y-11620D01*
X-18852Y-12205D01*
X-18736Y-12790D01*
X-18404Y-13286D01*
X-17908Y-13618D01*
X-17323Y-13734D01*
X-16738Y-13618D01*
X-16241Y-13286D01*
X-15910Y-12790D01*
X-15793Y-12205D01*
X-15910Y-11620D01*
X-16241Y-11123D01*
X-16738Y-10792D01*
X-17323Y-10675D01*
D02*
G37*
G36*
X20472Y-16974D02*
X19887Y-17091D01*
X19391Y-17423D01*
X19060Y-17919D01*
X18943Y-18504D01*
X19060Y-19089D01*
X19391Y-19585D01*
X19887Y-19917D01*
X20472Y-20033D01*
X21058Y-19917D01*
X21554Y-19585D01*
X21885Y-19089D01*
X22002Y-18504D01*
X21885Y-17919D01*
X21554Y-17423D01*
X21058Y-17091D01*
X20472Y-16974D01*
D02*
G37*
G36*
X-11024D02*
X-11609Y-17091D01*
X-12105Y-17423D01*
X-12437Y-17919D01*
X-12553Y-18504D01*
X-12437Y-19089D01*
X-12105Y-19585D01*
X-11609Y-19917D01*
X-11024Y-20033D01*
X-10438Y-19917D01*
X-9942Y-19585D01*
X-9611Y-19089D01*
X-9494Y-18504D01*
X-9611Y-17919D01*
X-9942Y-17423D01*
X-10438Y-17091D01*
X-11024Y-16974D01*
D02*
G37*
G36*
X50780Y-46087D02*
X48803D01*
Y-47768D01*
X50780D01*
Y-46087D01*
D02*
G37*
G36*
X20472Y-48471D02*
X19887Y-48587D01*
X19391Y-48919D01*
X19060Y-49415D01*
X18943Y-50000D01*
X19060Y-50585D01*
X19391Y-51082D01*
X19887Y-51413D01*
X20472Y-51529D01*
X21058Y-51413D01*
X21554Y-51082D01*
X21885Y-50585D01*
X22002Y-50000D01*
X21885Y-49415D01*
X21554Y-48919D01*
X21058Y-48587D01*
X20472Y-48471D01*
D02*
G37*
G36*
X-11024D02*
X-11609Y-48587D01*
X-12105Y-48919D01*
X-12437Y-49415D01*
X-12553Y-50000D01*
X-12437Y-50585D01*
X-12105Y-51082D01*
X-11609Y-51413D01*
X-11024Y-51529D01*
X-10438Y-51413D01*
X-9942Y-51082D01*
X-9611Y-50585D01*
X-9494Y-50000D01*
X-9611Y-49415D01*
X-9942Y-48919D01*
X-10438Y-48587D01*
X-11024Y-48471D01*
D02*
G37*
G36*
X41151Y-48022D02*
X37589D01*
Y-51387D01*
X38452D01*
Y-52353D01*
X38376D01*
Y-53256D01*
X36899D01*
Y-52392D01*
X33180D01*
Y-53413D01*
X32293D01*
X32184Y-53249D01*
X31688Y-52918D01*
X31102Y-52801D01*
X30517Y-52918D01*
X30021Y-53249D01*
X29689Y-53745D01*
X29573Y-54331D01*
X29689Y-54916D01*
X30021Y-55412D01*
X30253Y-55567D01*
X30101Y-56067D01*
X28255D01*
X28185Y-55714D01*
X27853Y-55218D01*
X27357Y-54886D01*
X26772Y-54770D01*
X26186Y-54886D01*
X25690Y-55218D01*
X25359Y-55714D01*
X25242Y-56299D01*
X25359Y-56884D01*
X25690Y-57381D01*
X26186Y-57712D01*
X26772Y-57829D01*
X26847Y-57814D01*
X27169Y-58029D01*
X27559Y-58106D01*
X33180D01*
Y-59419D01*
X36899D01*
Y-55091D01*
X38376D01*
Y-56480D01*
X37976D01*
Y-58457D01*
X40157D01*
X42339D01*
Y-56480D01*
X41939D01*
Y-52353D01*
X40288D01*
Y-51387D01*
X41151D01*
Y-48022D01*
D02*
G37*
G36*
X-17323Y-54770D02*
X-17908Y-54886D01*
X-18404Y-55218D01*
X-18736Y-55714D01*
X-18852Y-56299D01*
X-18736Y-56884D01*
X-18404Y-57381D01*
X-17908Y-57712D01*
X-17323Y-57829D01*
X-16738Y-57712D01*
X-16241Y-57381D01*
X-15910Y-56884D01*
X-15793Y-56299D01*
X-15910Y-55714D01*
X-16241Y-55218D01*
X-16738Y-54886D01*
X-17323Y-54770D01*
D02*
G37*
G36*
X-23386Y-56502D02*
X-23971Y-56618D01*
X-24467Y-56950D01*
X-24799Y-57446D01*
X-24915Y-58031D01*
X-24799Y-58617D01*
X-24467Y-59113D01*
X-23971Y-59444D01*
X-23386Y-59561D01*
X-22801Y-59444D01*
X-22304Y-59113D01*
X-21973Y-58617D01*
X-21856Y-58031D01*
X-21973Y-57446D01*
X-22304Y-56950D01*
X-22801Y-56618D01*
X-23386Y-56502D01*
D02*
G37*
G36*
X50779Y-57881D02*
X48803D01*
Y-59562D01*
X50779D01*
Y-57881D01*
D02*
G37*
G36*
X42339Y-59457D02*
X40657D01*
Y-61433D01*
X42339D01*
Y-59457D01*
D02*
G37*
G36*
X39657D02*
X37976D01*
Y-61433D01*
X39657D01*
Y-59457D01*
D02*
G37*
G36*
X44882Y-59888D02*
X44297Y-60004D01*
X43801Y-60336D01*
X43469Y-60832D01*
X43352Y-61417D01*
X43469Y-62003D01*
X43801Y-62499D01*
X44297Y-62830D01*
X44882Y-62947D01*
X45467Y-62830D01*
X45963Y-62499D01*
X46295Y-62003D01*
X46411Y-61417D01*
X46295Y-60832D01*
X45963Y-60336D01*
X45467Y-60004D01*
X44882Y-59888D01*
D02*
G37*
G36*
X27165D02*
X26580Y-60004D01*
X26084Y-60336D01*
X25752Y-60832D01*
X25636Y-61417D01*
X25752Y-62003D01*
X26084Y-62499D01*
X26580Y-62830D01*
X27165Y-62947D01*
X27751Y-62830D01*
X28247Y-62499D01*
X28578Y-62003D01*
X28695Y-61417D01*
X28578Y-60832D01*
X28247Y-60336D01*
X27751Y-60004D01*
X27165Y-59888D01*
D02*
G37*
%LPD*%
D10*
X51279Y-52756D02*
Y-48268D01*
Y-57381D02*
Y-52756D01*
X4724Y-71961D02*
Y-70906D01*
X3937Y-70118D02*
X4724Y-70906D01*
X4921Y-76653D02*
X5985Y-77716D01*
X6693D01*
X4921Y-76653D02*
Y-73228D01*
X4724Y-71961D02*
X4732Y-71969D01*
Y-73039D02*
Y-71969D01*
Y-73039D02*
X4921Y-73228D01*
D15*
X-27771Y22047D02*
X-26984Y21260D01*
X15748Y85827D02*
X17323Y87402D01*
X20472D01*
X15748Y80709D02*
Y85827D01*
X28740Y67716D02*
X30315Y69291D01*
X-77953Y76772D02*
X-42126D01*
X-28740Y90158D01*
Y93307D01*
X27559Y84646D02*
X28346Y83858D01*
Y80709D02*
Y83858D01*
X16244Y67716D02*
X28740D01*
X15457Y66929D02*
X16244Y67716D01*
X15276Y66929D02*
X15457D01*
X8661Y70866D02*
X10039Y69488D01*
X25787D02*
X26772Y70472D01*
X10039Y69488D02*
X25787D01*
X13780Y72835D02*
X14173Y73228D01*
X61024Y26378D02*
Y39370D01*
X35433Y64961D02*
X61024Y39370D01*
X8268Y64961D02*
X35433D01*
X59449Y24803D02*
Y38583D01*
X34646Y63386D02*
X59449Y38583D01*
X7480Y63386D02*
X34646D01*
X57874Y24016D02*
Y37795D01*
X33858Y61811D02*
X57874Y37795D01*
X6693Y61811D02*
X33858D01*
X56299Y23228D02*
Y37008D01*
X33071Y60236D02*
X56299Y37008D01*
X5906Y60236D02*
X33071D01*
X54724Y22441D02*
Y36220D01*
X32283Y58661D02*
X54724Y36220D01*
X5118Y58661D02*
X32283D01*
X53150Y21654D02*
Y35433D01*
X31496Y57087D02*
X53150Y35433D01*
X4331Y57087D02*
X31496D01*
X39764Y-39469D02*
Y-20282D01*
X35433Y-15951D02*
X39764Y-20282D01*
X35433Y-15951D02*
Y-7874D01*
X-16535Y38189D02*
X27559D01*
X8661Y70866D02*
Y74803D01*
X10236Y76378D01*
X12598Y77165D02*
Y80709D01*
X12598Y80709D01*
X-6299Y9843D02*
Y10630D01*
Y9055D02*
Y9843D01*
X20472Y80709D02*
Y87402D01*
X7874Y85827D02*
X9449Y87402D01*
X7874Y80709D02*
Y85827D01*
X-1575Y62992D02*
X4331Y57087D01*
X-1575Y62992D02*
Y80709D01*
X0Y63779D02*
X5118Y58661D01*
X0Y63779D02*
Y80709D01*
X1575Y64567D02*
X5906Y60236D01*
X1575Y64567D02*
Y80709D01*
X3150Y65354D02*
X6693Y61811D01*
X3150Y65354D02*
Y80709D01*
X4724Y66142D02*
X7480Y63386D01*
X4724Y66142D02*
Y80709D01*
X6299Y66929D02*
X8268Y64961D01*
X6299Y66929D02*
Y80709D01*
X100387Y-56306D02*
X100394Y-56299D01*
X79071Y-56306D02*
X100387D01*
X-40945Y-70118D02*
Y-62598D01*
X-44882Y-74055D02*
X-40945Y-70118D01*
X-44882Y-79134D02*
Y-74055D01*
X64028Y-41262D02*
X79071Y-56306D01*
X63513Y-63652D02*
X67913Y-59252D01*
X60679Y-63652D02*
X63513D01*
X40472Y-83858D02*
X60679Y-63652D01*
X62598Y-62205D02*
X66319Y-58484D01*
X59820Y-62205D02*
X62598D01*
X51552Y-70473D02*
X59820Y-62205D01*
X61866Y-60779D02*
X64764Y-57881D01*
X59124Y-60779D02*
X61866D01*
X51006Y-68898D02*
X59124Y-60779D01*
X61221Y-59252D02*
X62598Y-57874D01*
X58530Y-59252D02*
X61221D01*
X50459Y-67323D02*
X58530Y-59252D01*
X67913D02*
Y-54605D01*
X65354Y-52046D02*
X67913Y-54605D01*
X65354Y-52046D02*
Y-50787D01*
X62598Y-57874D02*
Y-56988D01*
X64764Y-57881D02*
Y-55907D01*
X61209Y-52353D02*
X64764Y-55907D01*
X59055Y-52353D02*
X61209D01*
X66319Y-58484D02*
Y-55295D01*
X59055Y-48031D02*
X66319Y-55295D01*
X55709Y-43543D02*
X61024D01*
X55807Y-57381D02*
X56200Y-56988D01*
X59153D01*
X55807Y-52756D02*
X56210Y-52353D01*
X59055D01*
X56043Y-48031D02*
X59055D01*
X55807Y-48268D02*
X56043Y-48031D01*
X49913Y-65748D02*
X55807Y-59854D01*
Y-57381D01*
X37008Y-83858D02*
X40472D01*
X47638Y-30709D02*
X49894D01*
X52513Y-33328D01*
X55330D01*
X56934Y-34932D01*
X57118D01*
X57801Y-35615D01*
X37592Y-41640D02*
X39764Y-39469D01*
X37592Y-41739D02*
Y-41640D01*
X36909Y-42421D02*
X37592Y-41739D01*
X36811Y-42421D02*
X36909D01*
X44882Y-9523D02*
Y-5740D01*
X41344Y-35953D02*
Y-18509D01*
X39370Y-16535D02*
X41344Y-18509D01*
Y-35953D02*
X46653Y-41262D01*
X41897Y-2756D02*
X44882Y-5740D01*
X36220Y-2756D02*
X41897D01*
X29102Y-9874D02*
X36220Y-2756D01*
X-40157Y22047D02*
X-27771D01*
X-42126Y18898D02*
X-25984D01*
X-53543Y30315D02*
X-42126Y18898D01*
X-53543Y30315D02*
Y62205D01*
X-40945Y21260D02*
X-40157Y22047D01*
X-26197D02*
X-7402D01*
X-26984Y21260D02*
X-26197Y22047D01*
X-24409Y20472D02*
X-8268D01*
X-25984Y18898D02*
X-24409Y20472D01*
X-31102Y31496D02*
X-19291D01*
X-18504Y30709D02*
X-787D01*
X-19291Y31496D02*
X-18504Y30709D01*
X11024Y77165D02*
Y80709D01*
X10236Y76378D02*
X11024Y77165D01*
X14173Y73228D02*
Y80709D01*
X10236Y84646D02*
X12598D01*
X9449Y83858D02*
X10236Y84646D01*
X9449Y80709D02*
Y83858D01*
X52799Y-18503D02*
X52897D01*
X52758D02*
X52799D01*
X53580Y-19325D02*
X55121Y-20866D01*
X53580Y-19325D02*
Y-19185D01*
X52897Y-18503D02*
X53580Y-19185D01*
X55121Y-20866D02*
X59644D01*
X62007Y-18503D01*
X64293D01*
X47095Y-25842D02*
X53067Y-31814D01*
X48594Y-25362D02*
X53647Y-30414D01*
X48594Y-25362D02*
Y9191D01*
X86254Y-35039D02*
X101614D01*
X81923Y-30709D02*
X86254Y-35039D01*
X73129Y-30709D02*
X81923D01*
X70177Y-27757D02*
X73129Y-30709D01*
X70177Y-27757D02*
Y-23622D01*
X86007Y-29134D02*
X101614D01*
X81571Y-24698D02*
X86007Y-29134D01*
X81571Y-24698D02*
Y-24403D01*
X80790Y-23622D02*
X81571Y-24403D01*
X80495Y-23622D02*
X80790D01*
X86142Y-23217D02*
X101614D01*
X83791Y-20866D02*
X86142Y-23217D01*
X62793Y-20866D02*
X83791D01*
X61114Y-22546D02*
X62793Y-20866D01*
X61114Y-22841D02*
Y-22546D01*
X60333Y-23622D02*
X61114Y-22841D01*
X60038Y-23622D02*
X60333D01*
X75967Y-26052D02*
X77450Y-27535D01*
Y-27633D02*
Y-27535D01*
Y-27633D02*
X78132Y-28316D01*
X78231D01*
X75967Y-26052D02*
Y-23622D01*
X65650D02*
X65945D01*
X66726Y-24403D01*
Y-24861D02*
Y-24403D01*
Y-24861D02*
X66737Y-24872D01*
Y-28316D02*
Y-24872D01*
X55242Y-23890D02*
X55510Y-23622D01*
X55242Y-28331D02*
Y-23890D01*
X86614Y-5512D02*
X101614D01*
X84252Y-3150D02*
X86614Y-5512D01*
X73098Y-3150D02*
X84252D01*
X71450Y-4798D02*
X73098Y-3150D01*
X71450Y-5093D02*
Y-4798D01*
X70669Y-5874D02*
X71450Y-5093D01*
X70374Y-5874D02*
X70669D01*
X86142Y-11406D02*
X101614D01*
X81687Y-6950D02*
X86142Y-11406D01*
X81687Y-6950D02*
Y-6655D01*
X80905Y-5874D02*
X81687Y-6655D01*
X80610Y-5874D02*
X80905D01*
X85851Y-17312D02*
X101614D01*
X82157Y-13618D02*
X85851Y-17312D01*
X63421Y-13618D02*
X82157D01*
X60232Y-10429D02*
X63421Y-13618D01*
X60232Y-10429D02*
Y-5874D01*
X76083Y-8956D02*
X77565Y-10438D01*
Y-10537D02*
Y-10438D01*
Y-10537D02*
X78248Y-11219D01*
X78347D01*
X76083Y-8956D02*
Y-5874D01*
X65847D02*
X66071D01*
X66852Y-6655D01*
Y-11219D02*
Y-6655D01*
X55358Y-6221D02*
X55705Y-5874D01*
X55358Y-11219D02*
Y-6221D01*
X50000Y-14457D02*
X51963Y-16420D01*
X51400Y-13712D02*
X52708Y-15020D01*
X52800Y-12877D02*
X53543Y-13620D01*
X52800Y-12877D02*
Y11012D01*
X50394Y13419D02*
X52800Y11012D01*
X50394Y13419D02*
Y19291D01*
X51400Y-13712D02*
Y10411D01*
X48819Y12992D02*
X51400Y10411D01*
X48819Y12992D02*
Y18504D01*
X50000Y-14457D02*
Y9843D01*
X47244Y12598D02*
X50000Y9843D01*
X47244Y12598D02*
Y17717D01*
X47095Y-25842D02*
Y8570D01*
X44094Y11570D02*
X47095Y8570D01*
X51963Y-16420D02*
X55214D01*
X52708Y-15020D02*
X55794D01*
X53543Y-13620D02*
X56374D01*
X-33465Y29134D02*
X-31102Y31496D01*
X-104961Y52756D02*
Y53386D01*
X-106496Y54921D02*
X-104961Y53386D01*
X-110039Y54921D02*
X-106496D01*
X55980Y-31814D02*
X57698Y-33532D01*
X53067Y-31814D02*
X55980D01*
X77287Y-32097D02*
X80790Y-35600D01*
X58243Y-32097D02*
X77287D01*
X56560Y-30414D02*
X58243Y-32097D01*
X53647Y-30414D02*
X56560D01*
X67213Y-33517D02*
X69296Y-35600D01*
X62582Y-33517D02*
X67213D01*
X62567Y-33532D02*
X62582Y-33517D01*
X57698Y-33532D02*
X62567D01*
X46653Y-41262D02*
X64028D01*
X63960Y-35817D02*
X64178Y-35600D01*
X78823Y-16420D02*
X80905Y-18503D01*
X69005Y-16420D02*
X78823D01*
X67605Y-15020D02*
X69005Y-16420D01*
X57774Y-15020D02*
X67605D01*
X56374Y-13620D02*
X57774Y-15020D01*
X67025Y-16420D02*
X69108Y-18503D01*
X57194Y-16420D02*
X67025D01*
X55794Y-15020D02*
X57194Y-16420D01*
X55214D02*
X57297Y-18503D01*
X43307Y-394D02*
X44094Y394D01*
X42520Y394D02*
X43307Y-394D01*
X39370Y394D02*
X40157Y-394D01*
X37795Y394D02*
Y3543D01*
X37008Y-394D02*
X37795Y394D01*
X41929Y-42421D02*
Y-39955D01*
X45669Y12117D02*
X48594Y9191D01*
X55709Y-43543D02*
X56197Y-44032D01*
X41929Y-42421D02*
X42270Y-42762D01*
X50400D01*
X51181Y-43543D01*
X26772Y-65748D02*
X49913D01*
X25984Y-67323D02*
X50459D01*
X25197Y-68898D02*
X51006D01*
X24409Y-70473D02*
X51552D01*
X1575Y-3150D02*
X8268Y-9843D01*
X23550D01*
X23581Y-9874D01*
X29102D01*
X44094Y11570D02*
Y13937D01*
X1575D02*
Y18110D01*
X4724Y10236D02*
Y13937D01*
X-1575Y13937D02*
X-1575Y13937D01*
X-1575Y10236D02*
Y13937D01*
X-6299Y3543D02*
Y9055D01*
X-5512Y9843D01*
X-6299Y10630D02*
Y13937D01*
Y10630D02*
X-5512Y9843D01*
X-6299D02*
X-5512D01*
X-16535Y7480D02*
X-15748Y6693D01*
Y3543D02*
Y6693D01*
X-11024Y77559D02*
Y80709D01*
X-11811Y76772D02*
X-11024Y77559D01*
X-18898Y80709D02*
Y84646D01*
X-3150D02*
X-3150Y84646D01*
Y80709D02*
Y84646D01*
X12598Y84646D02*
X12598Y84646D01*
Y80709D02*
Y84646D01*
X23622Y80709D02*
Y84646D01*
X43307Y76772D02*
X44094Y77559D01*
Y80709D01*
X42520Y77559D02*
X43307Y76772D01*
X42520Y77559D02*
Y80709D01*
X40157Y76772D02*
X40945Y77559D01*
Y80709D01*
X39370Y77559D02*
X40157Y76772D01*
X39370Y77559D02*
Y80709D01*
X43307Y85433D02*
X44094Y86221D01*
Y91102D01*
X42520Y86221D02*
X43307Y85433D01*
X42520Y86221D02*
Y91102D01*
X40157Y85433D02*
X40945Y86221D01*
Y91102D01*
X39370Y86221D02*
X40157Y85433D01*
X39370Y86221D02*
Y91102D01*
X35827Y87402D02*
X36614D01*
X37795Y88583D01*
Y91102D01*
X20472Y87402D02*
Y91102D01*
X9449Y87402D02*
Y91102D01*
X-22047Y87402D02*
X-22047Y87402D01*
Y91102D01*
X-12992Y84646D02*
X-12598Y85039D01*
Y91102D01*
X-11024Y85039D02*
X-10630Y84646D01*
X-11024Y85039D02*
Y91102D01*
X-14961Y86221D02*
X-14173Y87008D01*
Y91102D01*
X-9449Y87008D02*
X-8661Y86221D01*
X-9449Y87008D02*
Y91102D01*
X-17323Y87402D02*
X-16535D01*
X-7087D02*
X-6299D01*
X-16535D02*
X-15748Y88189D01*
Y91102D01*
X-7874Y88189D02*
X-7087Y87402D01*
X-7874Y88189D02*
Y91102D01*
X12598Y18110D02*
X12598Y18110D01*
Y13937D02*
Y18110D01*
X40945Y3543D02*
Y7480D01*
X36220Y3543D02*
Y7480D01*
X33071D02*
X33071Y7480D01*
Y3543D02*
Y7480D01*
X28346Y7480D02*
X28346Y7480D01*
Y3543D02*
Y7480D01*
X20472Y3543D02*
Y7480D01*
X22047Y10236D02*
Y13937D01*
X17323Y10236D02*
X17323Y10236D01*
Y13937D01*
X15748Y3543D02*
Y7480D01*
X6299Y3543D02*
Y7480D01*
X-25197Y3543D02*
Y7480D01*
X-18898Y10236D02*
Y13937D01*
X-25197Y10236D02*
Y13937D01*
X31496Y-4331D02*
Y3543D01*
X28346Y-7480D02*
X31496Y-4331D01*
X26772Y-5512D02*
Y3543D01*
X24409Y-7874D02*
X26772Y-5512D01*
X25197Y-3150D02*
Y3543D01*
X22835Y-5512D02*
X25197Y-3150D01*
X23622Y-787D02*
Y3543D01*
X21260Y-3150D02*
X23622Y-787D01*
X22047Y787D02*
Y3543D01*
X20472Y-787D02*
X22047Y787D01*
X19685Y-787D02*
X20472D01*
X11024Y-5512D02*
Y3543D01*
X10236Y-6299D02*
X11024Y-5512D01*
X7874Y787D02*
Y3543D01*
Y787D02*
X9449Y-787D01*
Y-3150D02*
Y-787D01*
X8661Y-3937D02*
X9449Y-3150D01*
X4724Y787D02*
Y3543D01*
Y787D02*
X7087Y-1575D01*
X-22047Y-4331D02*
Y3543D01*
Y-4331D02*
X-18898Y-7480D01*
X-7874Y-1181D02*
Y3543D01*
X-4724Y-3150D02*
Y3543D01*
X-17323Y-5512D02*
Y3543D01*
X-12598Y-2362D02*
Y3543D01*
X-3150Y-5512D02*
Y3543D01*
X-14173Y-4724D02*
Y3543D01*
X-9449Y-0D02*
Y3543D01*
X-1575Y-7874D02*
Y3543D01*
X-7874Y-1181D02*
X-7087Y-1969D01*
X-10236Y-787D02*
X-9449Y-0D01*
X-12598Y-2362D02*
X-11811Y-3150D01*
X-14173Y-4724D02*
X-13386Y-5512D01*
X-17323D02*
X-14961Y-7874D01*
X-5512Y-3937D02*
X-4724Y-3150D01*
X-3937Y-6299D02*
X-3150Y-5512D01*
X-2362Y-8661D02*
X-1575Y-7874D01*
X88031Y-40787D02*
X89567Y-42323D01*
X84252Y-40787D02*
X88031D01*
X81732Y-49449D02*
X84252D01*
X81732Y-52913D02*
X84252D01*
X89213Y-49449D02*
X89567Y-49803D01*
X84252Y-49449D02*
X89213D01*
X17323Y-43701D02*
Y-40709D01*
X17480Y-40551D01*
X14016Y-36457D02*
X17480Y-39921D01*
X14016Y-36457D02*
X14016Y-36457D01*
X14016Y-35827D02*
X14016Y-35827D01*
X13622Y-36220D02*
X14016Y-35827D01*
X14016Y-36457D02*
Y-35827D01*
Y-36457D02*
Y-36457D01*
X14016Y-35827D02*
Y-35827D01*
Y-36457D02*
Y-35827D01*
X17480Y-40551D02*
Y-39921D01*
X16535Y-62598D02*
X24409Y-70473D01*
X16929Y-60630D02*
X25197Y-68898D01*
X17717Y-59055D02*
X25984Y-67323D01*
X18504Y-57480D02*
X26772Y-65748D01*
Y-56299D02*
X27559Y-57087D01*
X34488D01*
X35039Y-57638D01*
X11181Y-21654D02*
X14173D01*
X11024Y-21496D02*
X11181Y-21654D01*
X-4724D02*
X-1732D01*
X-7874Y-27795D02*
Y-24803D01*
X-8032Y-27953D02*
X-7874Y-27795D01*
X17323Y-27795D02*
Y-24803D01*
X11181Y-46850D02*
X14173D01*
X-4724D02*
X-1732D01*
X-1575Y-47008D01*
X-7874Y-43701D02*
Y-40709D01*
X-2992Y-34252D02*
X-1575D01*
X-4567Y-32677D02*
X-2992Y-34252D01*
X4724Y-26535D02*
X6299Y-24961D01*
X4724Y-27953D02*
Y-26535D01*
X11024Y-34252D02*
X12441D01*
X14016Y-35827D01*
X4724Y-41969D02*
Y-40551D01*
X3150Y-43543D02*
X4724Y-41969D01*
X-1575Y-40551D02*
X-787Y-39764D01*
Y-38346D01*
X158Y-37402D01*
X10236Y-39764D02*
X11024Y-40551D01*
X8819Y-39764D02*
X10236D01*
X7874Y-38819D02*
X8819Y-39764D01*
X-1575Y-27953D02*
X-787Y-28740D01*
X630D01*
X11024Y-28740D02*
Y-27953D01*
X10236Y-29528D02*
X11024Y-28740D01*
X10236Y-30158D02*
Y-29528D01*
X9291Y-31102D02*
X10236Y-30158D01*
X-4724Y-27795D02*
Y-24803D01*
Y-27795D02*
X-4567Y-27953D01*
X11181Y-24803D02*
X14173D01*
X11024Y-24961D02*
X11181Y-24803D01*
X14173Y-43701D02*
Y-40709D01*
X14016Y-40551D02*
X14173Y-40709D01*
X-4724Y-43701D02*
X-1732D01*
X-1575Y-43543D01*
X-4724Y-38819D02*
X-3307Y-37402D01*
X-4724Y-40551D02*
Y-38819D01*
X158Y-24803D02*
X1575Y-26221D01*
X-1575Y-24803D02*
X158D01*
X12756Y-31102D02*
X14173Y-29685D01*
Y-27953D01*
X7874Y-42283D02*
X9291Y-43701D01*
X11024D01*
X4724Y-50000D02*
Y-49843D01*
X7717Y-46850D01*
X3150Y-47008D02*
X4724Y-48583D01*
Y-49843D02*
Y-48583D01*
X17323Y-31260D02*
X17480D01*
X20472Y-34252D01*
X17480Y-35827D02*
X19055Y-34252D01*
X20472D01*
X1732Y-21654D02*
Y-21496D01*
X4724Y-18504D01*
Y-19921D02*
X6299Y-21496D01*
X4724Y-19921D02*
Y-18504D01*
X-8032Y-37244D02*
X-7874D01*
X-11024Y-34252D02*
X-8032Y-37244D01*
X-9606Y-34252D02*
X-8032Y-32677D01*
X-11024Y-34252D02*
X-9606D01*
X7874Y-38819D02*
Y-38583D01*
X2756Y-32283D02*
Y-30866D01*
Y-32283D02*
X4724Y-34252D01*
X9055Y-31102D02*
X9291D01*
X7874Y-32283D02*
X9055Y-31102D01*
X6693Y-32283D02*
X7874D01*
X4724Y-34252D02*
X6693Y-32283D01*
X6693Y-37638D02*
X7874Y-38819D01*
X6693Y-37638D02*
Y-36220D01*
X4724Y-34252D02*
X6693Y-36220D01*
X158Y-37402D02*
X394D01*
X1575Y-36220D01*
X2756D01*
X4724Y-34252D01*
X6693Y-36220D02*
X13622D01*
X2756Y-43150D02*
Y-36220D01*
Y-43150D02*
X3150Y-43543D01*
X2520D02*
X3150D01*
X-945Y-47008D02*
X2520Y-43543D01*
X-1575Y-47008D02*
X-945D01*
X6929Y-24961D02*
X10394Y-21496D01*
X6299Y-24961D02*
X6929D01*
X-8032Y-28583D02*
Y-27953D01*
Y-28583D02*
X-4567Y-32047D01*
Y-32677D02*
Y-32047D01*
X64173Y-70512D02*
Y-68504D01*
X72835Y-70512D02*
Y-68504D01*
X80709Y-70512D02*
Y-68504D01*
X89370Y-70512D02*
Y-68504D01*
X87598Y-73228D02*
Y-72284D01*
X89370Y-70512D01*
X65945Y-73228D02*
Y-72284D01*
X64173Y-70512D02*
X65945Y-72284D01*
X69882Y-67520D02*
X70079Y-67323D01*
X69882Y-73228D02*
Y-67520D01*
X67913Y-64370D02*
X68110Y-64173D01*
X67913Y-73228D02*
Y-64370D01*
X81693Y-74997D02*
Y-73228D01*
X81296Y-75394D02*
X81693Y-74997D01*
X73976Y-75394D02*
X81296D01*
X71653Y-77716D02*
X73976Y-75394D01*
X-101181Y-70512D02*
Y-68504D01*
X-92520Y-70512D02*
Y-68504D01*
X-84646Y-70512D02*
Y-68504D01*
X-75984Y-70512D02*
Y-68504D01*
X-99409Y-73228D02*
Y-72284D01*
X-101181Y-70512D02*
X-99409Y-72284D01*
X-77756Y-73228D02*
Y-72284D01*
X-75984Y-70512D01*
X-83661Y-74997D02*
Y-73228D01*
X-84059Y-75394D02*
X-83661Y-74997D01*
X-91378Y-75394D02*
X-84059D01*
X-93701Y-77716D02*
X-91378Y-75394D01*
X-95472Y-73228D02*
Y-68307D01*
X-93701Y-66535D01*
X-82677D01*
X-81890Y-67323D01*
X-97441Y-73228D02*
Y-68013D01*
X-94363Y-64935D01*
X-81128D02*
X-78740Y-67323D01*
X6693Y-70512D02*
Y-68504D01*
X-10827Y-74997D02*
Y-73228D01*
Y-74997D02*
X-10430Y-75394D01*
X-3110D01*
X-787Y-77716D01*
X12598Y-62598D02*
X16535D01*
X10236Y-61811D02*
X11417Y-60630D01*
X16929D01*
X7874D02*
X9449Y-59055D01*
X17717D01*
X4724Y-60630D02*
X7874Y-57480D01*
X18504D01*
X-1732Y-21654D02*
X-1575Y-21496D01*
Y-18504D01*
X11024Y-21496D02*
Y-18504D01*
X11024Y-18504D01*
X10394Y-21496D02*
X11024D01*
X11024D01*
X-20472Y64173D02*
Y80709D01*
X-23622Y61024D02*
X-20472Y64173D01*
X-22047Y65748D02*
Y80709D01*
X20472Y17717D02*
X20866Y18110D01*
X20472Y13937D02*
Y17717D01*
X18504Y18110D02*
X18898Y17717D01*
Y13937D02*
Y17717D01*
X-61811Y70472D02*
X-53543Y62205D01*
X-92717Y75787D02*
Y76968D01*
Y75787D02*
X-87402Y70472D01*
X-61811D01*
X-80472Y58071D02*
Y64488D01*
X-80551Y64567D02*
X-80472Y64488D01*
X-85827Y62756D02*
X-84016Y64567D01*
X-85827Y60532D02*
Y62756D01*
X-87008Y59350D02*
X-85827Y60532D01*
X-70472Y53543D02*
Y58071D01*
X-70473Y58071D02*
X-70472Y58071D01*
X-70473Y32677D02*
Y36614D01*
Y32677D02*
X-66634Y28839D01*
Y27953D02*
Y28839D01*
X-75472Y32008D02*
Y36614D01*
X-79036Y28445D02*
X-75472Y32008D01*
X-79036Y27953D02*
Y28445D01*
X-65473Y36614D02*
Y40827D01*
X-80472Y36614D02*
Y40709D01*
X-78347Y77165D02*
X-77953Y76772D01*
X984Y-73228D02*
Y-67913D01*
X-1969Y-70512D02*
Y-68504D01*
X-9843Y-70512D02*
Y-68504D01*
X-18504Y-70512D02*
Y-68504D01*
X-65512Y-53091D02*
X-65354Y-53248D01*
X-65512Y-53091D02*
Y-48031D01*
X-62047D02*
X-55512D01*
X-89764Y-54331D02*
X-88681Y-53248D01*
X-83465D01*
Y-48189D02*
X-83307Y-48031D01*
X-83465Y-53248D02*
Y-48189D01*
Y-53248D02*
X-78347D01*
Y-47539D01*
X-70472Y-53248D02*
X-65354D01*
X-70472D02*
Y-47539D01*
Y-43012D02*
Y-42913D01*
X-13780Y-70079D02*
Y-66535D01*
X-394D02*
X984Y-67913D01*
X-13780Y-66535D02*
X-394D01*
X-94363Y-64935D02*
X-81128D01*
X-96063Y-54331D02*
X-96063Y-54331D01*
X-55807Y-55905D02*
Y-48327D01*
X-55512Y-48031D01*
X-48917Y-55905D02*
X-40157D01*
X-29528Y-66535D01*
X-13780D01*
X-78347Y-43012D02*
X-78248Y-42913D01*
X-74410D01*
X-73622Y-39764D02*
X-70472Y-42913D01*
X-74410Y-39764D02*
X-73622D01*
X87402Y24311D02*
X89764Y21949D01*
X36220Y77559D02*
Y80709D01*
Y77559D02*
X37008Y76772D01*
X37795Y77559D02*
Y80709D01*
X37008Y76772D02*
X37795Y77559D01*
X-24016Y53543D02*
Y57480D01*
X-25591Y59055D02*
Y62205D01*
X-22047Y65748D01*
X-25591Y59055D02*
X-24016Y57480D01*
X-6299Y73622D02*
Y80709D01*
X-7087Y72835D02*
X-6299Y73622D01*
X-9449Y71653D02*
Y80709D01*
Y71653D02*
X-8268Y70472D01*
X-5118D01*
X-17323Y77165D02*
Y80709D01*
Y77165D02*
X-8268Y68110D01*
X-5512D01*
X-5118Y70472D02*
X-4724Y70866D01*
X1575Y-3150D02*
Y3543D01*
X39370Y13937D02*
Y16929D01*
X40157Y17717D01*
X44882D01*
X45669Y16929D01*
Y12117D02*
Y16929D01*
X37795Y13937D02*
Y17717D01*
X39370Y19291D01*
X45669D01*
X47244Y17717D01*
X36220Y13937D02*
Y18504D01*
X38583Y20866D01*
X46457D01*
X48819Y18504D01*
X42520Y394D02*
Y3543D01*
X44094Y394D02*
Y3543D01*
X39370Y394D02*
Y3543D01*
X34646Y0D02*
Y3543D01*
X34252Y-394D02*
X34646Y0D01*
X86614Y20472D02*
X87402Y21260D01*
X88189Y18898D02*
X89764Y20472D01*
Y21949D01*
X61024Y26378D02*
X62205Y25197D01*
X61024Y23228D02*
X63779D01*
X64173Y23622D01*
X59449Y24803D02*
X61024Y23228D01*
X60236Y21654D02*
X72047D01*
X73228Y20472D01*
X57874Y24016D02*
X60236Y21654D01*
X73228Y20472D02*
X86614D01*
X56299Y23228D02*
X59449Y20079D01*
X71260D01*
X72441Y18898D01*
X88189D01*
X54724Y22441D02*
X58661Y18504D01*
Y17323D02*
Y18504D01*
Y17323D02*
X59842Y16142D01*
X62205D01*
X64567Y18504D01*
X70472D01*
X74409Y14567D01*
X79921D01*
X53150Y21654D02*
X57087Y17717D01*
Y16535D02*
Y17717D01*
Y16535D02*
X61024Y12598D01*
X81102D01*
X83071Y14567D01*
X-20472Y13937D02*
Y18110D01*
X-4724Y13937D02*
Y16929D01*
X-8268Y20472D02*
X-4724Y16929D01*
X-7402Y22047D02*
X-3150Y17795D01*
Y13937D02*
Y17795D01*
X-20472Y29134D02*
X-19685Y28346D01*
X16929D01*
X28346Y13937D02*
Y18110D01*
X28346Y18110D02*
X28346Y18110D01*
X34646Y13937D02*
Y17323D01*
X31496Y20472D02*
X34646Y17323D01*
X26378Y20472D02*
X31496D01*
X16929Y28346D02*
X22441Y22835D01*
X46850D01*
X50394Y19291D01*
X-16535Y47244D02*
X-787D01*
X-13386Y50000D02*
X-787D01*
X-11811Y44882D02*
X787D01*
X935Y45030D01*
X-23622Y77559D02*
Y80709D01*
X-24409Y76772D02*
X-23622Y77559D01*
X630Y-28740D02*
X2756Y-30866D01*
D16*
X-96850Y-62992D02*
X-74803D01*
X73425Y-35635D02*
X73443Y-35617D01*
X75654D01*
X75672Y-35600D01*
X48705Y-34252D02*
X50068Y-35615D01*
X52683D01*
X66319Y-35617D02*
X66337Y-35635D01*
X64195Y-35617D02*
X66319D01*
X64178Y-35600D02*
X64195Y-35617D01*
X66508Y-18503D02*
X66509Y-18504D01*
X64294Y-18503D02*
X66508D01*
X64293Y-18503D02*
X64294Y-18503D01*
X77936D02*
X77936Y-18504D01*
X75788Y-18503D02*
X77936D01*
X75787Y-18503D02*
X75788Y-18503D01*
X-44488Y-52362D02*
Y-42421D01*
X-30709Y-62205D02*
X-28740Y-64173D01*
X-39370Y-53543D02*
X-30709Y-62205D01*
X-40945Y-57874D02*
X-30512Y-68307D01*
Y-71457D02*
Y-68307D01*
Y-71457D02*
X-24252Y-77716D01*
X-18504D01*
X3937Y-70118D02*
Y-67323D01*
X787Y-64173D02*
X3937Y-67323D01*
X-28740Y-64173D02*
X787D01*
X17480Y-40551D02*
X20866D01*
X17323Y-27795D02*
X21024D01*
X-1575Y-51181D02*
Y-47008D01*
X11181Y-50551D02*
Y-46850D01*
X-11417Y-27953D02*
X-8032D01*
X-11575Y-40709D02*
X-7874D01*
X-60236Y74803D02*
X-49213Y63779D01*
X-87599Y76968D02*
X-85433Y74803D01*
X-60236D01*
X-61024Y72441D02*
X-51575Y62992D01*
X-90158Y75984D02*
Y77165D01*
Y75984D02*
X-86614Y72441D01*
X-61024D01*
X-43307Y-57874D02*
X-40945D01*
X-46063Y-60630D02*
X-43307Y-57874D01*
X-49213Y-60630D02*
X-46063D01*
X-43307Y-53543D02*
X-39370D01*
X-74803Y-62992D02*
X-74410Y-62598D01*
X-74016Y-62992D01*
X-63386D01*
X-61417Y-64961D01*
X-57087Y-60630D01*
X-49213D01*
X-44488Y-52362D02*
X-43307Y-53543D01*
X-46063Y-43307D02*
X-45669D01*
X18504Y18110D02*
Y20079D01*
X20866Y18110D02*
Y21260D01*
X14567Y24016D02*
X18504Y20079D01*
X15748Y26378D02*
X20866Y21260D01*
X-51575Y31102D02*
Y62992D01*
Y31102D02*
X-44488Y24016D01*
X14567D01*
X-49213Y32283D02*
Y63779D01*
Y32283D02*
X-43307Y26378D01*
X15748D01*
D18*
X39902Y-54173D02*
X40157Y-54429D01*
X39370Y-53642D02*
X39902Y-54173D01*
X39370Y-53642D02*
Y-49705D01*
X35039Y-54173D02*
X39902D01*
X34882Y-54331D02*
X35039Y-54173D01*
X31102Y-54331D02*
X34882D01*
D27*
X-67559Y-14173D02*
D03*
X-71024D02*
D03*
X-62835Y764D02*
D03*
X-66299D02*
D03*
X-62835Y-3937D02*
D03*
X-66299D02*
D03*
X-58898Y20472D02*
D03*
X-62362D02*
D03*
X-71890Y64567D02*
D03*
X-75354D02*
D03*
X-84016D02*
D03*
X-80551D02*
D03*
X-4567Y-27953D02*
D03*
X-8032D02*
D03*
X1732Y-21654D02*
D03*
X-1732D02*
D03*
X7717Y-46850D02*
D03*
X11181D02*
D03*
X14016Y-35827D02*
D03*
X17480D02*
D03*
X-4567Y-32677D02*
D03*
X-8032D02*
D03*
X17480Y-40551D02*
D03*
X14016D02*
D03*
X158Y-37402D02*
D03*
X-3307D02*
D03*
X12756Y-31102D02*
D03*
X9291D02*
D03*
X-86772Y-48031D02*
D03*
X-83307D02*
D03*
X-65512D02*
D03*
X-62047D02*
D03*
D28*
X80610Y-5874D02*
D03*
X76083D02*
D03*
X70374D02*
D03*
X65847D02*
D03*
X60232D02*
D03*
X55705D02*
D03*
X60038Y-23622D02*
D03*
X55510D02*
D03*
X70177D02*
D03*
X65650D02*
D03*
X80495D02*
D03*
X75967D02*
D03*
X51181Y-43543D02*
D03*
X55709D02*
D03*
X55807Y-57381D02*
D03*
X51279D02*
D03*
X55807Y-48268D02*
D03*
X51279D02*
D03*
Y-52756D02*
D03*
X55807D02*
D03*
D29*
X103986Y-51732D02*
D03*
Y-48268D02*
D03*
X-86502Y-24191D02*
D03*
Y-27656D02*
D03*
X-64455Y-24191D02*
D03*
Y-27656D02*
D03*
X-61417Y-13330D02*
D03*
Y-9865D02*
D03*
X-39370Y-13330D02*
D03*
Y-9865D02*
D03*
X-60236Y30079D02*
D03*
Y26614D02*
D03*
X-7874Y-37244D02*
D03*
Y-40709D02*
D03*
X11024Y-24961D02*
D03*
Y-21496D02*
D03*
X-1575Y-43543D02*
D03*
Y-47008D02*
D03*
X84252Y-44252D02*
D03*
Y-40787D02*
D03*
Y-52913D02*
D03*
Y-49449D02*
D03*
X35039Y-57638D02*
D03*
Y-54173D02*
D03*
X17323Y-27795D02*
D03*
Y-31260D02*
D03*
X3150Y-43543D02*
D03*
Y-47008D02*
D03*
X6299Y-24961D02*
D03*
Y-21496D02*
D03*
X7874Y-38819D02*
D03*
Y-42283D02*
D03*
X1575Y-29685D02*
D03*
Y-26221D02*
D03*
D33*
X-87008Y59350D02*
D03*
Y54823D02*
D03*
X40157Y-54429D02*
D03*
Y-58957D02*
D03*
X-83465Y-57776D02*
D03*
Y-53248D02*
D03*
X-78347Y-47539D02*
D03*
Y-43012D02*
D03*
Y-53248D02*
D03*
Y-57776D02*
D03*
X-65354D02*
D03*
Y-53248D02*
D03*
X-70472Y-47539D02*
D03*
Y-43012D02*
D03*
Y-57776D02*
D03*
Y-53248D02*
D03*
D53*
X-66339Y15157D02*
D03*
X-58858D02*
D03*
X-62598Y6102D02*
D03*
D64*
X-96063Y-54331D02*
D03*
X-89764D02*
D03*
X-49213Y-48031D02*
D03*
X-55512D02*
D03*
D131*
X103986Y-54331D02*
Y-51732D01*
X24606Y33268D02*
X25984Y34646D01*
X-16535Y33268D02*
X24606D01*
X-18504Y35827D02*
X23228D01*
X12598Y75197D02*
Y77165D01*
X11024Y73622D02*
X12598Y75197D01*
X11024Y71654D02*
Y73622D01*
Y71653D02*
Y71654D01*
X38189Y-11992D02*
Y-7874D01*
Y-11992D02*
X43307Y-17110D01*
X40551Y-10433D02*
Y-9843D01*
Y-10433D02*
X45276Y-15157D01*
Y-34704D02*
Y-15157D01*
X43307Y-35294D02*
Y-17110D01*
X107874Y-54331D02*
Y-44963D01*
X105234Y-42323D02*
X107874Y-44963D01*
X89567Y-42323D02*
X105234D01*
X103986Y-48268D02*
Y-45669D01*
X101181Y-51732D02*
X103986D01*
X98622Y-49173D02*
X101181Y-51732D01*
X98622Y-49173D02*
Y-46063D01*
X43307Y-35294D02*
X47580Y-39567D01*
X45276Y-34704D02*
X48412Y-37841D01*
X65730D01*
X68677Y-40787D01*
X84252D01*
X47580Y-39567D02*
X64764D01*
X69449Y-44252D01*
X84252D01*
X84912Y-44912D02*
Y-44833D01*
Y-44912D02*
X86063Y-46063D01*
X98622D01*
X-18504Y35827D02*
X-18504Y35827D01*
X-49213Y-48031D02*
Y-42283D01*
X-16732Y-76561D02*
Y-73228D01*
X-17887Y-77716D02*
X-16732Y-76561D01*
X-18504Y-77716D02*
X-17887D01*
D132*
X-62835Y-1969D02*
X-60630D01*
X-6693Y54724D02*
X17717D01*
X-17717Y65748D02*
X-6693Y54724D01*
X-74410Y-57776D02*
X-70472D01*
X-78347D02*
X-74410D01*
Y-54331D01*
X-39408Y-13368D02*
X-39370Y-13406D01*
X-52750Y21660D02*
X-51968D01*
X-53937Y20472D02*
X-52750Y21660D01*
X-58898Y20472D02*
X-53937D01*
X108031Y-39213D02*
Y-35551D01*
X107520Y-35039D02*
X108031Y-35551D01*
X107520Y-29134D02*
Y-5512D01*
Y-35039D02*
Y-29134D01*
X-39370Y-15354D02*
Y-13406D01*
X-73622Y-14173D02*
X-71024D01*
X-67559Y-14252D02*
X-65973Y-15838D01*
Y-19645D02*
Y-15838D01*
X-67559Y-14252D02*
Y-14173D01*
X-64534Y-24191D02*
X-64455D01*
X-64927Y-23797D02*
X-64534Y-24191D01*
X-80892Y-23797D02*
X-64927D01*
X-64455Y-24191D02*
X-61024D01*
X-64455Y-27656D02*
X-61024D01*
X-86502Y-24191D02*
Y-22047D01*
X-62835Y-3937D02*
Y-1969D01*
Y764D01*
X-66142Y-6299D02*
Y-4095D01*
X-66299Y-3937D02*
X-66142Y-4095D01*
X-80870Y-20079D02*
X-77756D01*
X-80892Y-20057D02*
X-80870Y-20079D01*
X-86502Y-30079D02*
Y-27656D01*
X-86384Y-27538D01*
X-80892D01*
X-64455Y-27656D02*
X-64404Y-27706D01*
X-64573Y-27538D02*
X-64455Y-27656D01*
X-70065Y-27538D02*
X-64573D01*
X-39408Y-13368D02*
X-39370Y-13330D01*
X-62835Y5866D02*
X-62598Y6102D01*
X-62835Y764D02*
Y5866D01*
X-66299Y-3937D02*
Y764D01*
X-66339Y803D02*
X-66299Y764D01*
X-66340Y805D02*
X-66339Y803D01*
Y15157D01*
X-62318Y20517D02*
Y22835D01*
X-62362Y20472D02*
X-62318Y20517D01*
X-58898Y20472D02*
X-58858Y20433D01*
Y15157D02*
Y20433D01*
X-41890Y-9865D02*
X-39370D01*
X-44982Y-13368D02*
X-39408D01*
X-58860Y-5888D02*
X-55809D01*
X-63937Y-13330D02*
X-61417D01*
X-61379Y-13368D01*
X-55809D01*
X-64016Y-9865D02*
X-61417D01*
X-61180Y-9628D02*
X-55809D01*
X-61417Y-9865D02*
X-61180Y-9628D01*
X-88583Y53248D02*
X-87008Y54823D01*
X-88583Y49606D02*
Y53248D01*
X-88189Y67716D02*
X-87795Y68110D01*
X-77559D01*
X-75354Y65905D01*
Y64567D02*
Y65905D01*
X-75472Y64449D02*
X-75354Y64567D01*
X-75472Y58071D02*
Y64449D01*
X-65295Y26614D02*
X-60236D01*
X-66634Y27953D02*
X-65295Y26614D01*
X-60236Y30079D02*
Y32677D01*
X-89370Y-48031D02*
X-86772D01*
X-83465Y-60630D02*
Y-57776D01*
X-65354Y-60630D02*
Y-57776D01*
X-96063Y-54331D02*
Y-50000D01*
D133*
X-82677Y81890D02*
Y82677D01*
X-85039Y85039D02*
X-82677Y82677D01*
X-110236Y25197D02*
Y42642D01*
X-108390Y44488D01*
X-107087D01*
X-93701Y25197D02*
Y25516D01*
X-91264Y27953D01*
X-79036D01*
X-73041Y20154D02*
X-71579D01*
X-74101Y19094D02*
X-73041Y20154D01*
X-71579D02*
X-67398Y24335D01*
Y27189D01*
X-66634Y27953D01*
X-115354Y82284D02*
X-110669Y77598D01*
Y70079D02*
Y77598D01*
X-99252Y70079D02*
X-95669D01*
X-94410Y71339D01*
X-110669Y70079D02*
X-110039Y69449D01*
Y62402D02*
Y69449D01*
Y62402D02*
X-93504D01*
X-100984Y50591D02*
Y58661D01*
X-107087Y44488D02*
X-100984Y50591D01*
X-72132Y15354D02*
Y17126D01*
X-74101Y19094D02*
X-72132Y17126D01*
X-76069Y15354D02*
Y17126D01*
X-74101Y19094D01*
X-81975Y15354D02*
Y17126D01*
X-83943Y19094D02*
X-81975Y17126D01*
X-85912Y15354D02*
Y17126D01*
X-83943Y19094D01*
X-99606Y82284D02*
X-87795D01*
X-85039Y85039D01*
X-83071Y82284D02*
X-82677Y81890D01*
X-87795Y82284D02*
X-87008D01*
X-83071D01*
X-93701Y46850D02*
X-91339Y44488D01*
X-93701Y46850D02*
Y49606D01*
X-91339Y44488D02*
X-88583Y47244D01*
Y49606D01*
X-93504Y62402D02*
X-88189Y67716D01*
X-83943Y19094D02*
X-74101D01*
D134*
X-85827Y3937D02*
Y5793D01*
X-83943Y7677D01*
X-85827Y8986D02*
Y11811D01*
Y8986D02*
X-84518Y7677D01*
X-83943D01*
X-74101D02*
X-73441D01*
X-74760D02*
X-74101D01*
X-72132Y8986D02*
Y11811D01*
X-73441Y7677D02*
X-72132Y8986D01*
X-76069D02*
Y11811D01*
Y8986D02*
X-74760Y7677D01*
X-82677Y77953D02*
X-82284Y77559D01*
X-82677Y77953D02*
Y81890D01*
X-87008Y82284D02*
X-82677Y77953D01*
X-83943Y7677D02*
X-83943Y7677D01*
D135*
X106329Y-69213D02*
D03*
X-118110Y-69291D02*
D03*
D136*
X-117323Y62992D02*
D03*
Y74803D02*
D03*
D137*
X-95276Y-81260D02*
D03*
X-98425D02*
D03*
X-91929D02*
D03*
X-90158Y-77716D02*
D03*
X-93701D02*
D03*
X-83465D02*
D03*
X-87008D02*
D03*
X-85236Y-81260D02*
D03*
X-78740D02*
D03*
X-81890D02*
D03*
X787D02*
D03*
X3937D02*
D03*
X-2559D02*
D03*
X-4331Y-77716D02*
D03*
X-787D02*
D03*
X-11024D02*
D03*
X-7480D02*
D03*
X-9252Y-81260D02*
D03*
X-15748D02*
D03*
X-12598D02*
D03*
X83464D02*
D03*
X86614D02*
D03*
X80118D02*
D03*
X78346Y-77716D02*
D03*
X81890D02*
D03*
X71653D02*
D03*
X75197D02*
D03*
X73425Y-81260D02*
D03*
X66929D02*
D03*
X70079D02*
D03*
D138*
X-75984Y-77716D02*
D03*
X-101181D02*
D03*
X-18504D02*
D03*
X6693D02*
D03*
X64173D02*
D03*
X89370D02*
D03*
D139*
X-102165Y-73228D02*
D03*
X-75000D02*
D03*
X7677D02*
D03*
X-19488D02*
D03*
X90354D02*
D03*
X63189D02*
D03*
D140*
X-106201Y-71654D02*
D03*
X-70965D02*
D03*
X11713D02*
D03*
X-23524D02*
D03*
X94390D02*
D03*
X59153D02*
D03*
D141*
X-64665Y-80866D02*
D03*
X-112500D02*
D03*
X-64665Y-96063D02*
D03*
X-112500Y-95669D02*
D03*
X-29823D02*
D03*
X18012Y-96063D02*
D03*
X-29823Y-80866D02*
D03*
X18012D02*
D03*
X52854Y-95669D02*
D03*
X100689Y-96063D02*
D03*
X52854Y-80866D02*
D03*
X100689D02*
D03*
D142*
X-103150Y91634D02*
D03*
X-77165D02*
D03*
X-33858Y91536D02*
D03*
X-59842D02*
D03*
D143*
X-48386Y5236D02*
D03*
X105236Y89331D02*
D03*
D144*
X27559Y38189D02*
D03*
X-28740Y93307D02*
D03*
X27559Y84646D02*
D03*
X25984Y34646D02*
D03*
X23228Y35827D02*
D03*
X30315Y69291D02*
D03*
X15276Y66929D02*
D03*
X26772Y70472D02*
D03*
X13780Y72835D02*
D03*
X37008Y76772D02*
D03*
X40551Y-9843D02*
D03*
X38189Y-7874D02*
D03*
X11024Y71654D02*
D03*
X100394Y-56299D02*
D03*
X-96850Y-62992D02*
D03*
X107874Y-54331D02*
D03*
X103937D02*
D03*
X-104724Y66142D02*
D03*
X-115354Y67716D02*
D03*
X-90551Y57480D02*
D03*
X-92913D02*
D03*
X-95276D02*
D03*
X48031Y-56299D02*
D03*
X65354Y-50787D02*
D03*
X62598Y-56988D02*
D03*
X61024Y-43543D02*
D03*
X59153Y-56988D02*
D03*
X59055Y-52353D02*
D03*
Y-48031D02*
D03*
X103986Y-45669D02*
D03*
X47638Y-30709D02*
D03*
X35433Y-7874D02*
D03*
X44882Y-9523D02*
D03*
X39370Y-16535D02*
D03*
X-16535Y38189D02*
D03*
X-18504Y35827D02*
D03*
X-16535Y33268D02*
D03*
X-51968Y21660D02*
D03*
X-40945Y21260D02*
D03*
X-27165D02*
D03*
X10236Y76378D02*
D03*
X73425Y-35635D02*
D03*
X48705Y-34252D02*
D03*
X66337Y-35635D02*
D03*
X66509Y-18504D02*
D03*
X77936D02*
D03*
X-41069Y-18504D02*
D03*
X-35408Y-5118D02*
D03*
X-38872D02*
D03*
X-24409Y-18504D02*
D03*
X-39370Y-15354D02*
D03*
X-29134Y-11654D02*
D03*
X-73622Y-14173D02*
D03*
X-65973Y-19645D02*
D03*
X-61024Y-24191D02*
D03*
Y-27656D02*
D03*
X-86502Y-22047D02*
D03*
X-60630Y-1969D02*
D03*
X-66142Y-6299D02*
D03*
X-85827Y3937D02*
D03*
Y11811D02*
D03*
X-76069D02*
D03*
X-77756Y-20079D02*
D03*
X-86502Y-30079D02*
D03*
X-63937Y-13330D02*
D03*
X-50394Y-21654D02*
D03*
X-62318Y22835D02*
D03*
X-85827Y31496D02*
D03*
X-100000Y26772D02*
D03*
X-100000Y18898D02*
D03*
X-81975Y15354D02*
D03*
X-72132Y11811D02*
D03*
X-33465Y29134D02*
D03*
X-33858Y-64961D02*
D03*
X-44882Y-65907D02*
D03*
X-120079Y-45276D02*
D03*
Y-5512D02*
D03*
X-30709Y-62205D02*
D03*
X-27165Y-68504D02*
D03*
X-31988Y-74410D02*
D03*
X-70866Y-35433D02*
D03*
X-66142D02*
D03*
X-104961Y52756D02*
D03*
X74803Y8268D02*
D03*
X30709Y-18504D02*
D03*
X43307Y-394D02*
D03*
X40157D02*
D03*
X41929Y-39955D02*
D03*
X26772Y-12205D02*
D03*
X-137402Y15748D02*
D03*
Y11024D02*
D03*
X-135039Y13386D02*
D03*
X-132677Y15748D02*
D03*
Y11024D02*
D03*
X-130315Y13386D02*
D03*
X-127953Y15748D02*
D03*
Y11024D02*
D03*
X-125591Y13386D02*
D03*
X-123228Y11024D02*
D03*
Y15748D02*
D03*
Y13386D02*
D03*
X-127953D02*
D03*
X-132677D02*
D03*
X-137402D02*
D03*
X-125591Y15748D02*
D03*
X-130315D02*
D03*
X-135039D02*
D03*
X-125591Y11024D02*
D03*
X-130315D02*
D03*
X-135039D02*
D03*
X-137402Y35433D02*
D03*
Y30709D02*
D03*
X-135039Y33071D02*
D03*
X-132677Y35433D02*
D03*
Y30709D02*
D03*
X-130315Y33071D02*
D03*
X-127953Y35433D02*
D03*
Y30709D02*
D03*
X-125591Y33071D02*
D03*
X-123228Y30709D02*
D03*
Y35433D02*
D03*
Y33071D02*
D03*
X-127953D02*
D03*
X-132677D02*
D03*
X-137402D02*
D03*
X-125591Y35433D02*
D03*
X-130315D02*
D03*
X-135039D02*
D03*
X-125591Y30709D02*
D03*
X-130315D02*
D03*
X-135039D02*
D03*
X-137402Y23228D02*
D03*
X-132677D02*
D03*
X-127953D02*
D03*
X-123228D02*
D03*
X-135039Y20866D02*
D03*
X-130315D02*
D03*
X-125591D02*
D03*
X-135039Y25591D02*
D03*
X-130315D02*
D03*
X-125591D02*
D03*
X-135039Y40551D02*
D03*
X-130315D02*
D03*
X-125591D02*
D03*
X-135039Y45276D02*
D03*
X-130315D02*
D03*
X-125591D02*
D03*
X-137402Y42913D02*
D03*
X-132677D02*
D03*
X-127953D02*
D03*
X-123228D02*
D03*
X-41890Y-9865D02*
D03*
X-58860Y-5888D02*
D03*
X-64016Y-9865D02*
D03*
X-17717Y65748D02*
D03*
X61417Y9449D02*
D03*
X23622Y18110D02*
D03*
Y25197D02*
D03*
X87402Y24311D02*
D03*
Y21260D02*
D03*
X83071Y14567D02*
D03*
X79921D02*
D03*
X69390Y15453D02*
D03*
X74410Y22441D02*
D03*
X93071Y15118D02*
D03*
X89606Y15118D02*
D03*
X1575Y18110D02*
D03*
X4724Y10236D02*
D03*
X-1575D02*
D03*
X-5512Y9843D02*
D03*
X-16535Y7480D02*
D03*
X89567Y35236D02*
D03*
X49409D02*
D03*
X77165Y35433D02*
D03*
X78839Y24311D02*
D03*
X-11811Y76772D02*
D03*
X-18898Y84646D02*
D03*
X-3150D02*
D03*
X12598D02*
D03*
X23622D02*
D03*
X43307Y76772D02*
D03*
X40157D02*
D03*
X43307Y85433D02*
D03*
X40157D02*
D03*
X35827Y87402D02*
D03*
X20472D02*
D03*
X9449D02*
D03*
X-22047D02*
D03*
X-12992Y84646D02*
D03*
X-10630D02*
D03*
X-14961Y86221D02*
D03*
X-8661D02*
D03*
X-17323Y87402D02*
D03*
X-6299D02*
D03*
X-72047Y79134D02*
D03*
X-72132Y15354D02*
D03*
X-76069D02*
D03*
X-85912D02*
D03*
X-123228Y25591D02*
D03*
X-127953Y20866D02*
D03*
Y25591D02*
D03*
X-130315Y23228D02*
D03*
X-123228Y20866D02*
D03*
X-125591Y23228D02*
D03*
X-132677Y20866D02*
D03*
Y25591D02*
D03*
X-135039Y23228D02*
D03*
X-137402Y20866D02*
D03*
Y25591D02*
D03*
X-123228Y45276D02*
D03*
Y40551D02*
D03*
X-125591Y42913D02*
D03*
X-127953Y40551D02*
D03*
Y45276D02*
D03*
X-130315Y42913D02*
D03*
X-132677Y40551D02*
D03*
Y45276D02*
D03*
X-135039Y42913D02*
D03*
X-137402Y40551D02*
D03*
Y45276D02*
D03*
X12598Y18110D02*
D03*
X40945Y7480D02*
D03*
X36220D02*
D03*
X33071D02*
D03*
X28346D02*
D03*
X20472D02*
D03*
X22047Y10236D02*
D03*
X17323Y10236D02*
D03*
X15748Y7480D02*
D03*
X6299D02*
D03*
X-25197D02*
D03*
X-18898Y10236D02*
D03*
X-25197D02*
D03*
X28346Y-7480D02*
D03*
X24409Y-7874D02*
D03*
X22835Y-5512D02*
D03*
X21260Y-3150D02*
D03*
X19685Y-787D02*
D03*
X10236Y-6299D02*
D03*
X8661Y-3937D02*
D03*
X7087Y-1575D02*
D03*
X-18898Y-7480D02*
D03*
X-10236Y-787D02*
D03*
X-11811Y-3150D02*
D03*
X-13386Y-5512D02*
D03*
X-14961Y-7874D02*
D03*
X-7087Y-1969D02*
D03*
X-5512Y-3937D02*
D03*
X-3937Y-6299D02*
D03*
X-2362Y-8661D02*
D03*
X81732Y-49449D02*
D03*
X81732Y-52913D02*
D03*
X108031Y-39213D02*
D03*
X46850Y-50000D02*
D03*
X17323Y-43701D02*
D03*
X32677Y-63779D02*
D03*
X27165Y-61417D02*
D03*
X44882D02*
D03*
X31102Y-54331D02*
D03*
X37008Y-83858D02*
D03*
X-87599Y76968D02*
D03*
X-90158Y77165D02*
D03*
X-92717Y76968D02*
D03*
X-32677Y77165D02*
D03*
X-39370Y76378D02*
D03*
X-32677Y64173D02*
D03*
X-44094Y65748D02*
D03*
X-51575Y71260D02*
D03*
X-32677Y51181D02*
D03*
X4724Y-27953D02*
D03*
X-1575Y-34252D02*
D03*
X4724Y-40551D02*
D03*
X11024Y-34252D02*
D03*
X4724Y-31102D02*
D03*
X7874Y-34252D02*
D03*
X4724Y-37402D02*
D03*
X1575Y-34252D02*
D03*
X14173Y-24803D02*
D03*
Y-43701D02*
D03*
X20472Y-50000D02*
D03*
Y-18504D02*
D03*
X-1575Y-27953D02*
D03*
X11024D02*
D03*
Y-40551D02*
D03*
X-1575D02*
D03*
X14173Y-21654D02*
D03*
X17323Y-24803D02*
D03*
X14173Y-46850D02*
D03*
X26772Y-56299D02*
D03*
X-4724Y-40551D02*
D03*
X-1575Y-24803D02*
D03*
X14173Y-27953D02*
D03*
X11024Y-43701D02*
D03*
X4724Y-50000D02*
D03*
X20472Y-34252D02*
D03*
X4724Y-18504D02*
D03*
X-94410Y71339D02*
D03*
X-23622Y61024D02*
D03*
X64173Y-68504D02*
D03*
X72835Y-68504D02*
D03*
X80709D02*
D03*
X89370D02*
D03*
X70079Y-67323D02*
D03*
X68110Y-64173D02*
D03*
X-101181Y-68504D02*
D03*
X-92520Y-68504D02*
D03*
X-75984D02*
D03*
X-81890Y-67323D02*
D03*
X-78740D02*
D03*
X6693Y-68504D02*
D03*
X12598Y-62598D02*
D03*
X10236Y-61811D02*
D03*
X7874Y-60630D02*
D03*
X4724D02*
D03*
X32913Y-11654D02*
D03*
X-1575Y-18504D02*
D03*
X11024D02*
D03*
X-45669Y51181D02*
D03*
X-55905D02*
D03*
X-29291Y-8110D02*
D03*
X-27165Y75197D02*
D03*
X-82284Y77559D02*
D03*
X-85039Y85039D02*
D03*
X-82677Y81890D02*
D03*
X-93701Y49606D02*
D03*
X-88583D02*
D03*
X-69291Y67716D02*
D03*
X-62992Y67323D02*
D03*
X-66535Y63779D02*
D03*
X-62205Y50394D02*
D03*
X-69685D02*
D03*
X-57874Y44094D02*
D03*
X-69685D02*
D03*
X-80709D02*
D03*
Y50394D02*
D03*
X-70472Y53543D02*
D03*
X-60236Y32677D02*
D03*
X-65473Y40827D02*
D03*
X-80472Y40709D02*
D03*
X-96063Y76772D02*
D03*
X-99213D02*
D03*
X-102362D02*
D03*
X-78347Y77165D02*
D03*
X-46063Y-43307D02*
D03*
X-89370Y-48031D02*
D03*
X-84252Y-43701D02*
D03*
X-1969Y-68504D02*
D03*
X-96063Y-50000D02*
D03*
X-49213Y-60630D02*
D03*
X-61417Y-64961D02*
D03*
X-40945Y-62598D02*
D03*
X-74410Y-54331D02*
D03*
Y-39764D02*
D03*
Y-48425D02*
D03*
X-11024Y-18504D02*
D03*
X-11024Y-34252D02*
D03*
X-46063Y-35433D02*
D03*
X-53937Y-43307D02*
D03*
Y-39370D02*
D03*
X-50000Y-43307D02*
D03*
Y-35433D02*
D03*
X-53937Y-35433D02*
D03*
X-6693Y-61417D02*
D03*
X-30866Y-34409D02*
D03*
X-29291Y-54567D02*
D03*
X-23386Y-58031D02*
D03*
X-83465Y-60630D02*
D03*
X-65354D02*
D03*
X-84252Y-38976D02*
D03*
X-9843Y-68504D02*
D03*
X-18504D02*
D03*
X-84646D02*
D03*
X-17323Y-12205D02*
D03*
Y-56299D02*
D03*
X-7874Y-43701D02*
D03*
X-4724Y-46850D02*
D03*
X-7874Y-24803D02*
D03*
X-4724Y-21654D02*
D03*
X-11024Y-50000D02*
D03*
X-4724Y-43701D02*
D03*
Y-24803D02*
D03*
X-30866Y-30945D02*
D03*
X-50000Y-39370D02*
D03*
X-44488Y-94095D02*
D03*
X-13780Y-70079D02*
D03*
X-44882Y-79134D02*
D03*
X-39764Y-75984D02*
D03*
X-74410Y-62598D02*
D03*
Y-51575D02*
D03*
Y-42913D02*
D03*
Y-45669D02*
D03*
X-46063Y-39370D02*
D03*
X-24016Y53543D02*
D03*
X-7087Y72835D02*
D03*
X-5512Y68110D02*
D03*
X-4724Y70866D02*
D03*
X46850Y26772D02*
D03*
X50394D02*
D03*
X37008Y-394D02*
D03*
X34252D02*
D03*
X62205Y25197D02*
D03*
X64173Y23622D02*
D03*
X60630Y18110D02*
D03*
X-20472D02*
D03*
Y29134D02*
D03*
X28346Y18110D02*
D03*
X47244Y90945D02*
D03*
X89764Y88976D02*
D03*
X93307Y52362D02*
D03*
X26378Y20472D02*
D03*
X-787Y50000D02*
D03*
Y47244D02*
D03*
X935Y45030D02*
D03*
X7087Y50000D02*
D03*
X17165Y51417D02*
D03*
X-16535Y47244D02*
D03*
X-13386Y50000D02*
D03*
X-11811Y44882D02*
D03*
X-24409Y76772D02*
D03*
X-787Y30709D02*
D03*
X17165Y42756D02*
D03*
X17717Y54724D02*
D03*
D145*
X-80892Y-27538D02*
D03*
Y-23797D02*
D03*
Y-20057D02*
D03*
X-70065D02*
D03*
Y-27538D02*
D03*
X-55809Y-13368D02*
D03*
Y-9628D02*
D03*
Y-5888D02*
D03*
X-44982D02*
D03*
Y-13368D02*
D03*
D146*
X107677Y-23228D02*
D03*
X101772D02*
D03*
X107520Y-5512D02*
D03*
X101614D02*
D03*
X101614Y-11406D02*
D03*
X107520D02*
D03*
X101614Y-17312D02*
D03*
X107520D02*
D03*
X107520Y-35039D02*
D03*
X101614D02*
D03*
Y-29134D02*
D03*
X107520D02*
D03*
D147*
X-79036Y27953D02*
D03*
X-66634D02*
D03*
D148*
X-83943Y7677D02*
D03*
Y19094D02*
D03*
X-74101Y7677D02*
D03*
Y19094D02*
D03*
D149*
X-93701Y25197D02*
D03*
X-110236D02*
D03*
D150*
X-80472Y58071D02*
D03*
X-75472D02*
D03*
X-70473D02*
D03*
X-65473D02*
D03*
X-80472Y36614D02*
D03*
X-75472D02*
D03*
X-70473D02*
D03*
X-65473D02*
D03*
D151*
X-91339Y44488D02*
D03*
X-107087D02*
D03*
X-99606Y82284D02*
D03*
X-115354D02*
D03*
D152*
X-99252Y70079D02*
D03*
X-110669D02*
D03*
D153*
X-110039Y54921D02*
D03*
Y62402D02*
D03*
X-100984Y58661D02*
D03*
D154*
X39370Y-49705D02*
D03*
X41929Y-42421D02*
D03*
X36811D02*
D03*
X66737Y-28316D02*
D03*
X64178Y-35600D02*
D03*
X69296D02*
D03*
X78231Y-28316D02*
D03*
X75672Y-35600D02*
D03*
X80790D02*
D03*
X55242Y-28331D02*
D03*
X52683Y-35615D02*
D03*
X57801D02*
D03*
X55358Y-11219D02*
D03*
X52799Y-18503D02*
D03*
X57917D02*
D03*
X78347Y-11219D02*
D03*
X75787Y-18503D02*
D03*
X80905D02*
D03*
X66852Y-11219D02*
D03*
X64293Y-18503D02*
D03*
X69411D02*
D03*
D155*
X98622Y-46063D02*
D03*
X89567Y-42323D02*
D03*
Y-49803D02*
D03*
D156*
X-92520Y-70512D02*
D03*
X-101181D02*
D03*
X-75984D02*
D03*
X-84646D02*
D03*
X-1969D02*
D03*
X6693D02*
D03*
X-18504D02*
D03*
X-9843D02*
D03*
X80709D02*
D03*
X89370D02*
D03*
X64173D02*
D03*
X72835D02*
D03*
D157*
X-77756Y-73228D02*
D03*
X-79724D02*
D03*
X-81693D02*
D03*
X-83661D02*
D03*
X-85630D02*
D03*
X-99409D02*
D03*
X-97441D02*
D03*
X-95472D02*
D03*
X-93504D02*
D03*
X-91535D02*
D03*
X-89567D02*
D03*
X-87598D02*
D03*
X-4921D02*
D03*
X-6890D02*
D03*
X-8858D02*
D03*
X-10827D02*
D03*
X-12795D02*
D03*
X-14764D02*
D03*
X-16732D02*
D03*
X-2953D02*
D03*
X-984D02*
D03*
X984D02*
D03*
X2953D02*
D03*
X4921D02*
D03*
X77756D02*
D03*
X75787D02*
D03*
X73819D02*
D03*
X71850D02*
D03*
X69882D02*
D03*
X67913D02*
D03*
X65945D02*
D03*
X79724D02*
D03*
X81693D02*
D03*
X83661D02*
D03*
X85630D02*
D03*
X87598D02*
D03*
D158*
X-55807Y-55905D02*
D03*
X-48917D02*
D03*
D159*
X-25197Y91102D02*
D03*
Y80709D02*
D03*
X-23622Y91102D02*
D03*
Y80709D02*
D03*
X-22047Y91102D02*
D03*
Y80709D02*
D03*
X-20472Y91102D02*
D03*
Y80709D02*
D03*
X-18898Y91102D02*
D03*
Y80709D02*
D03*
X-17323Y91102D02*
D03*
Y80709D02*
D03*
X-15748Y91102D02*
D03*
Y80709D02*
D03*
X-14173Y91102D02*
D03*
Y80709D02*
D03*
X-12598Y91102D02*
D03*
Y80709D02*
D03*
X-11024Y91102D02*
D03*
Y80709D02*
D03*
X-9449Y91102D02*
D03*
Y80709D02*
D03*
X-7874Y91102D02*
D03*
Y80709D02*
D03*
X-6299Y91102D02*
D03*
Y80709D02*
D03*
X-4724Y91102D02*
D03*
Y80709D02*
D03*
X-3150Y91102D02*
D03*
Y80709D02*
D03*
X-1575Y91102D02*
D03*
Y80709D02*
D03*
X0Y91102D02*
D03*
Y80709D02*
D03*
X1575Y91102D02*
D03*
Y80709D02*
D03*
X3150Y91102D02*
D03*
Y80709D02*
D03*
X4724Y91102D02*
D03*
Y80709D02*
D03*
X6299Y91102D02*
D03*
Y80709D02*
D03*
X7874Y91102D02*
D03*
Y80709D02*
D03*
X9449Y91102D02*
D03*
Y80709D02*
D03*
X11024Y91102D02*
D03*
Y80709D02*
D03*
X12598Y91102D02*
D03*
Y80709D02*
D03*
X14173Y91102D02*
D03*
Y80709D02*
D03*
X15748Y91102D02*
D03*
Y80709D02*
D03*
X17323Y91102D02*
D03*
Y80709D02*
D03*
X18898Y91102D02*
D03*
Y80709D02*
D03*
X20472Y91102D02*
D03*
Y80709D02*
D03*
X22047Y91102D02*
D03*
Y80709D02*
D03*
X23622Y91102D02*
D03*
Y80709D02*
D03*
X25197Y91102D02*
D03*
Y80709D02*
D03*
X26772Y91102D02*
D03*
Y80709D02*
D03*
X28346Y91102D02*
D03*
Y80709D02*
D03*
X29921Y91102D02*
D03*
Y80709D02*
D03*
X31496Y91102D02*
D03*
Y80709D02*
D03*
X33071Y91102D02*
D03*
Y80709D02*
D03*
X34646Y91102D02*
D03*
Y80709D02*
D03*
X36220Y91102D02*
D03*
Y80709D02*
D03*
X37795Y91102D02*
D03*
Y80709D02*
D03*
X39370Y91102D02*
D03*
Y80709D02*
D03*
X40945Y91102D02*
D03*
Y80709D02*
D03*
X42520Y91102D02*
D03*
Y80709D02*
D03*
X44094Y91102D02*
D03*
Y80709D02*
D03*
Y3543D02*
D03*
Y13937D02*
D03*
X42520Y3543D02*
D03*
Y13937D02*
D03*
X40945Y3543D02*
D03*
Y13937D02*
D03*
X39370Y3543D02*
D03*
Y13937D02*
D03*
X37795Y3543D02*
D03*
Y13937D02*
D03*
X36220Y3543D02*
D03*
Y13937D02*
D03*
X34646Y3543D02*
D03*
Y13937D02*
D03*
X33071Y3543D02*
D03*
Y13937D02*
D03*
X31496Y3543D02*
D03*
Y13937D02*
D03*
X29921Y3543D02*
D03*
Y13937D02*
D03*
X28346Y3543D02*
D03*
Y13937D02*
D03*
X26772Y3543D02*
D03*
Y13937D02*
D03*
X25197Y3543D02*
D03*
Y13937D02*
D03*
X23622Y3543D02*
D03*
Y13937D02*
D03*
X22047Y3543D02*
D03*
Y13937D02*
D03*
X20472Y3543D02*
D03*
Y13937D02*
D03*
X18898Y3543D02*
D03*
Y13937D02*
D03*
X17323Y3543D02*
D03*
Y13937D02*
D03*
X15748Y3543D02*
D03*
Y13937D02*
D03*
X14173Y3543D02*
D03*
Y13937D02*
D03*
X12598Y3543D02*
D03*
Y13937D02*
D03*
X11024Y3543D02*
D03*
Y13937D02*
D03*
X9449Y3543D02*
D03*
Y13937D02*
D03*
X7874Y3543D02*
D03*
Y13937D02*
D03*
X6299Y3543D02*
D03*
Y13937D02*
D03*
X4724Y3543D02*
D03*
Y13937D02*
D03*
X3150Y3543D02*
D03*
Y13937D02*
D03*
X1575Y3543D02*
D03*
Y13937D02*
D03*
X0Y3543D02*
D03*
Y13937D02*
D03*
X-1575Y3543D02*
D03*
Y13937D02*
D03*
X-3150Y3543D02*
D03*
Y13937D02*
D03*
X-4724Y3543D02*
D03*
Y13937D02*
D03*
X-6299Y3543D02*
D03*
Y13937D02*
D03*
X-7874Y3543D02*
D03*
Y13937D02*
D03*
X-9449Y3543D02*
D03*
Y13937D02*
D03*
X-11024Y3543D02*
D03*
Y13937D02*
D03*
X-12598Y3543D02*
D03*
Y13937D02*
D03*
X-14173Y3543D02*
D03*
Y13937D02*
D03*
X-15748Y3543D02*
D03*
Y13937D02*
D03*
X-17323Y3543D02*
D03*
Y13937D02*
D03*
X-18898Y3543D02*
D03*
Y13937D02*
D03*
X-20472Y3543D02*
D03*
Y13937D02*
D03*
X-22047Y3543D02*
D03*
Y13937D02*
D03*
X-23622Y3543D02*
D03*
Y13937D02*
D03*
X-25197Y3543D02*
D03*
Y13937D02*
D03*
D160*
X-130512Y13386D02*
D03*
Y23228D02*
D03*
Y33071D02*
D03*
D161*
X-130315Y42913D02*
D03*
D162*
X-50000Y-38583D02*
D03*
M02*
