G04*
G04 #@! TF.GenerationSoftware,Altium Limited,Altium Designer,23.2.1 (34)*
G04*
G04 Layer_Color=8388736*
%FSLAX44Y44*%
%MOMM*%
G71*
G04*
G04 #@! TF.SameCoordinates,96D2EB81-E719-42E9-B1B6-D61F4878D9FD*
G04*
G04*
G04 #@! TF.FilePolarity,Positive*
G04*
G01*
G75*
%ADD47C,0.2540*%
%ADD48C,3.0000*%
%ADD71C,0.2000*%
G36*
X82932Y150174D02*
X83015Y150164D01*
X83117Y150155D01*
X83218Y150146D01*
X83338Y150118D01*
X83588Y150063D01*
X83865Y149979D01*
X84004Y149924D01*
X84134Y149859D01*
X84263Y149776D01*
X84392Y149693D01*
X84402Y149684D01*
X84420Y149674D01*
X84457Y149647D01*
X84503Y149600D01*
X84550Y149554D01*
X84614Y149489D01*
X84679Y149416D01*
X84753Y149341D01*
X84827Y149249D01*
X84901Y149138D01*
X84984Y149027D01*
X85058Y148907D01*
X85123Y148768D01*
X85197Y148630D01*
X85252Y148482D01*
X85308Y148315D01*
X84476Y148121D01*
Y148130D01*
X84466Y148149D01*
X84448Y148186D01*
X84429Y148232D01*
X84411Y148287D01*
X84383Y148362D01*
X84309Y148509D01*
X84217Y148676D01*
X84106Y148842D01*
X83967Y148999D01*
X83819Y149138D01*
X83801Y149157D01*
X83745Y149194D01*
X83653Y149240D01*
X83532Y149305D01*
X83375Y149360D01*
X83200Y149416D01*
X82987Y149452D01*
X82756Y149462D01*
X82682D01*
X82636Y149452D01*
X82571D01*
X82497Y149443D01*
X82321Y149416D01*
X82127Y149378D01*
X81924Y149314D01*
X81711Y149221D01*
X81517Y149101D01*
X81508D01*
X81498Y149083D01*
X81434Y149036D01*
X81351Y148962D01*
X81249Y148851D01*
X81129Y148713D01*
X81018Y148556D01*
X80916Y148362D01*
X80824Y148149D01*
Y148140D01*
X80814Y148121D01*
X80805Y148093D01*
X80796Y148047D01*
X80777Y147992D01*
X80759Y147927D01*
X80731Y147770D01*
X80694Y147585D01*
X80657Y147381D01*
X80639Y147160D01*
X80629Y146919D01*
Y146910D01*
Y146882D01*
Y146836D01*
Y146781D01*
X80639Y146716D01*
Y146632D01*
X80648Y146540D01*
X80657Y146438D01*
X80685Y146216D01*
X80731Y145976D01*
X80787Y145736D01*
X80861Y145495D01*
Y145486D01*
X80870Y145468D01*
X80888Y145440D01*
X80907Y145394D01*
X80962Y145283D01*
X81046Y145153D01*
X81147Y145005D01*
X81277Y144848D01*
X81425Y144710D01*
X81600Y144580D01*
X81609D01*
X81628Y144571D01*
X81656Y144552D01*
X81693Y144534D01*
X81739Y144515D01*
X81794Y144488D01*
X81924Y144432D01*
X82090Y144377D01*
X82275Y144330D01*
X82479Y144293D01*
X82691Y144284D01*
X82756D01*
X82811Y144293D01*
X82876D01*
X82941Y144303D01*
X83107Y144340D01*
X83301Y144386D01*
X83496Y144460D01*
X83699Y144562D01*
X83801Y144617D01*
X83893Y144691D01*
X83902Y144700D01*
X83912Y144710D01*
X83939Y144737D01*
X83976Y144765D01*
X84013Y144811D01*
X84059Y144867D01*
X84115Y144922D01*
X84161Y144996D01*
X84217Y145079D01*
X84281Y145172D01*
X84337Y145264D01*
X84392Y145375D01*
X84439Y145495D01*
X84485Y145625D01*
X84531Y145764D01*
X84568Y145911D01*
X85419Y145699D01*
Y145689D01*
X85409Y145653D01*
X85391Y145597D01*
X85363Y145523D01*
X85335Y145440D01*
X85298Y145338D01*
X85252Y145227D01*
X85197Y145107D01*
X85067Y144848D01*
X84901Y144589D01*
X84799Y144460D01*
X84698Y144330D01*
X84586Y144219D01*
X84457Y144108D01*
X84448Y144099D01*
X84429Y144081D01*
X84383Y144062D01*
X84337Y144025D01*
X84263Y143979D01*
X84189Y143933D01*
X84087Y143887D01*
X83986Y143840D01*
X83865Y143785D01*
X83736Y143739D01*
X83597Y143692D01*
X83449Y143646D01*
X83292Y143609D01*
X83126Y143591D01*
X82950Y143572D01*
X82765Y143563D01*
X82663D01*
X82590Y143572D01*
X82506D01*
X82405Y143581D01*
X82294Y143600D01*
X82164Y143618D01*
X81896Y143665D01*
X81619Y143739D01*
X81341Y143840D01*
X81212Y143905D01*
X81082Y143979D01*
X81073Y143988D01*
X81055Y143998D01*
X81018Y144025D01*
X80981Y144062D01*
X80925Y144099D01*
X80861Y144155D01*
X80787Y144219D01*
X80713Y144293D01*
X80639Y144377D01*
X80555Y144460D01*
X80389Y144672D01*
X80232Y144922D01*
X80093Y145199D01*
Y145209D01*
X80075Y145237D01*
X80065Y145283D01*
X80038Y145338D01*
X80019Y145412D01*
X79991Y145505D01*
X79955Y145606D01*
X79927Y145717D01*
X79899Y145837D01*
X79862Y145976D01*
X79816Y146263D01*
X79779Y146586D01*
X79760Y146919D01*
Y146928D01*
Y146965D01*
Y147021D01*
X79770Y147086D01*
Y147178D01*
X79779Y147270D01*
X79788Y147391D01*
X79806Y147511D01*
X79853Y147779D01*
X79917Y148075D01*
X80010Y148371D01*
X80139Y148657D01*
X80149Y148667D01*
X80158Y148694D01*
X80176Y148731D01*
X80213Y148778D01*
X80250Y148842D01*
X80297Y148916D01*
X80417Y149083D01*
X80574Y149268D01*
X80759Y149452D01*
X80971Y149637D01*
X81221Y149795D01*
X81230Y149804D01*
X81258Y149813D01*
X81295Y149831D01*
X81341Y149859D01*
X81415Y149887D01*
X81489Y149915D01*
X81582Y149952D01*
X81683Y149989D01*
X81794Y150026D01*
X81915Y150063D01*
X82173Y150118D01*
X82469Y150164D01*
X82774Y150183D01*
X82867D01*
X82932Y150174D01*
D02*
G37*
G36*
X88414Y150090D02*
X88488Y150081D01*
X88581Y150072D01*
X88682Y150053D01*
X88784Y150035D01*
X89024Y149970D01*
X89265Y149878D01*
X89385Y149822D01*
X89505Y149758D01*
X89616Y149674D01*
X89718Y149582D01*
X89727Y149573D01*
X89746Y149563D01*
X89764Y149526D01*
X89801Y149489D01*
X89847Y149443D01*
X89894Y149378D01*
X89940Y149314D01*
X89995Y149231D01*
X90088Y149055D01*
X90180Y148833D01*
X90217Y148722D01*
X90236Y148593D01*
X90254Y148463D01*
X90263Y148324D01*
Y148306D01*
Y148260D01*
X90254Y148186D01*
X90245Y148084D01*
X90226Y147973D01*
X90189Y147844D01*
X90152Y147705D01*
X90097Y147566D01*
X90088Y147548D01*
X90069Y147502D01*
X90032Y147428D01*
X89977Y147326D01*
X89903Y147215D01*
X89810Y147076D01*
X89699Y146938D01*
X89570Y146781D01*
X89551Y146762D01*
X89505Y146706D01*
X89459Y146660D01*
X89413Y146614D01*
X89357Y146559D01*
X89283Y146485D01*
X89209Y146411D01*
X89117Y146327D01*
X89024Y146235D01*
X88913Y146133D01*
X88793Y146032D01*
X88664Y145911D01*
X88516Y145791D01*
X88368Y145662D01*
X88359Y145653D01*
X88340Y145634D01*
X88303Y145606D01*
X88257Y145569D01*
X88202Y145514D01*
X88137Y145458D01*
X87989Y145338D01*
X87832Y145199D01*
X87684Y145061D01*
X87554Y144941D01*
X87499Y144894D01*
X87453Y144848D01*
X87443Y144839D01*
X87416Y144811D01*
X87379Y144774D01*
X87332Y144719D01*
X87286Y144654D01*
X87231Y144589D01*
X87120Y144432D01*
X90273D01*
Y143674D01*
X86029D01*
Y143683D01*
Y143720D01*
Y143776D01*
X86038Y143850D01*
X86047Y143933D01*
X86066Y144025D01*
X86084Y144118D01*
X86121Y144219D01*
Y144229D01*
X86131Y144238D01*
X86149Y144293D01*
X86186Y144377D01*
X86242Y144488D01*
X86315Y144617D01*
X86408Y144765D01*
X86510Y144913D01*
X86639Y145070D01*
Y145079D01*
X86657Y145089D01*
X86704Y145144D01*
X86787Y145227D01*
X86907Y145347D01*
X87046Y145486D01*
X87221Y145653D01*
X87434Y145837D01*
X87665Y146032D01*
X87675Y146041D01*
X87711Y146069D01*
X87767Y146115D01*
X87832Y146170D01*
X87915Y146244D01*
X88017Y146327D01*
X88118Y146420D01*
X88238Y146522D01*
X88470Y146743D01*
X88701Y146965D01*
X88812Y147076D01*
X88913Y147187D01*
X89006Y147289D01*
X89080Y147391D01*
Y147400D01*
X89098Y147409D01*
X89117Y147437D01*
X89135Y147474D01*
X89200Y147576D01*
X89274Y147696D01*
X89339Y147844D01*
X89403Y148001D01*
X89440Y148177D01*
X89459Y148343D01*
Y148352D01*
Y148362D01*
X89450Y148417D01*
X89440Y148509D01*
X89413Y148611D01*
X89376Y148741D01*
X89311Y148870D01*
X89228Y148999D01*
X89117Y149129D01*
X89098Y149147D01*
X89052Y149184D01*
X88987Y149231D01*
X88886Y149295D01*
X88756Y149351D01*
X88608Y149406D01*
X88433Y149443D01*
X88238Y149452D01*
X88183D01*
X88146Y149443D01*
X88035Y149434D01*
X87906Y149406D01*
X87767Y149369D01*
X87610Y149305D01*
X87462Y149221D01*
X87323Y149110D01*
X87305Y149092D01*
X87268Y149046D01*
X87212Y148972D01*
X87157Y148861D01*
X87092Y148731D01*
X87037Y148565D01*
X87000Y148380D01*
X86981Y148167D01*
X86177Y148251D01*
Y148260D01*
X86186Y148287D01*
Y148334D01*
X86195Y148399D01*
X86214Y148472D01*
X86232Y148556D01*
X86260Y148657D01*
X86288Y148759D01*
X86362Y148981D01*
X86473Y149203D01*
X86537Y149314D01*
X86621Y149425D01*
X86704Y149526D01*
X86796Y149619D01*
X86805Y149628D01*
X86824Y149637D01*
X86852Y149665D01*
X86898Y149693D01*
X86953Y149730D01*
X87018Y149767D01*
X87092Y149813D01*
X87184Y149859D01*
X87286Y149906D01*
X87397Y149952D01*
X87517Y149989D01*
X87647Y150026D01*
X87786Y150053D01*
X87933Y150081D01*
X88091Y150090D01*
X88257Y150100D01*
X88350D01*
X88414Y150090D01*
D02*
G37*
G36*
X93333D02*
X93407Y150081D01*
X93490Y150072D01*
X93582Y150063D01*
X93675Y150035D01*
X93897Y149979D01*
X94119Y149896D01*
X94230Y149841D01*
X94341Y149776D01*
X94442Y149693D01*
X94544Y149610D01*
X94553Y149600D01*
X94563Y149591D01*
X94590Y149563D01*
X94627Y149526D01*
X94664Y149471D01*
X94711Y149416D01*
X94803Y149277D01*
X94895Y149101D01*
X94979Y148898D01*
X95043Y148667D01*
X95052Y148546D01*
X95062Y148417D01*
Y148408D01*
Y148399D01*
Y148343D01*
X95052Y148260D01*
X95034Y148158D01*
X95006Y148029D01*
X94960Y147899D01*
X94905Y147770D01*
X94821Y147640D01*
X94812Y147622D01*
X94775Y147585D01*
X94720Y147529D01*
X94646Y147455D01*
X94544Y147372D01*
X94424Y147289D01*
X94285Y147206D01*
X94119Y147132D01*
X94128D01*
X94146Y147123D01*
X94174Y147113D01*
X94211Y147095D01*
X94322Y147049D01*
X94452Y146984D01*
X94590Y146891D01*
X94738Y146790D01*
X94877Y146660D01*
X95006Y146512D01*
Y146503D01*
X95016Y146494D01*
X95052Y146438D01*
X95108Y146346D01*
X95163Y146226D01*
X95219Y146078D01*
X95274Y145902D01*
X95311Y145708D01*
X95321Y145495D01*
Y145486D01*
Y145458D01*
Y145412D01*
X95311Y145357D01*
X95302Y145292D01*
X95293Y145209D01*
X95274Y145116D01*
X95247Y145015D01*
X95182Y144802D01*
X95136Y144682D01*
X95071Y144571D01*
X95006Y144451D01*
X94932Y144340D01*
X94840Y144229D01*
X94738Y144118D01*
X94729Y144108D01*
X94711Y144090D01*
X94683Y144062D01*
X94636Y144035D01*
X94572Y143988D01*
X94507Y143942D01*
X94424Y143896D01*
X94331Y143840D01*
X94230Y143785D01*
X94109Y143739D01*
X93980Y143692D01*
X93851Y143646D01*
X93703Y143618D01*
X93546Y143591D01*
X93388Y143572D01*
X93213Y143563D01*
X93120D01*
X93055Y143572D01*
X92972Y143581D01*
X92880Y143591D01*
X92778Y143609D01*
X92667Y143637D01*
X92417Y143702D01*
X92288Y143748D01*
X92168Y143794D01*
X92038Y143859D01*
X91909Y143933D01*
X91789Y144016D01*
X91678Y144118D01*
X91669Y144127D01*
X91650Y144145D01*
X91622Y144173D01*
X91585Y144219D01*
X91549Y144275D01*
X91493Y144340D01*
X91447Y144414D01*
X91391Y144506D01*
X91336Y144599D01*
X91290Y144710D01*
X91197Y144941D01*
X91160Y145079D01*
X91132Y145218D01*
X91114Y145366D01*
X91105Y145514D01*
Y145523D01*
Y145542D01*
Y145579D01*
X91114Y145616D01*
Y145671D01*
X91123Y145736D01*
X91142Y145884D01*
X91179Y146050D01*
X91234Y146216D01*
X91317Y146392D01*
X91419Y146559D01*
Y146568D01*
X91438Y146577D01*
X91475Y146623D01*
X91549Y146697D01*
X91650Y146790D01*
X91780Y146882D01*
X91937Y146984D01*
X92112Y147067D01*
X92325Y147132D01*
X92316D01*
X92307Y147141D01*
X92279Y147150D01*
X92242Y147169D01*
X92159Y147206D01*
X92048Y147261D01*
X91927Y147335D01*
X91807Y147428D01*
X91696Y147529D01*
X91595Y147640D01*
X91585Y147659D01*
X91558Y147696D01*
X91521Y147770D01*
X91484Y147862D01*
X91438Y147982D01*
X91400Y148121D01*
X91373Y148278D01*
X91363Y148445D01*
Y148454D01*
Y148472D01*
Y148509D01*
X91373Y148565D01*
X91382Y148620D01*
X91391Y148694D01*
X91428Y148851D01*
X91484Y149036D01*
X91576Y149231D01*
X91632Y149332D01*
X91696Y149434D01*
X91780Y149526D01*
X91863Y149619D01*
X91872Y149628D01*
X91890Y149637D01*
X91918Y149665D01*
X91955Y149693D01*
X92001Y149730D01*
X92066Y149767D01*
X92140Y149813D01*
X92214Y149859D01*
X92307Y149906D01*
X92408Y149952D01*
X92519Y149989D01*
X92639Y150026D01*
X92898Y150081D01*
X93046Y150090D01*
X93194Y150100D01*
X93277D01*
X93333Y150090D01*
D02*
G37*
G36*
X-68894Y116039D02*
X-69700Y115646D01*
X-70093Y116452D01*
X-69287Y116845D01*
X-68894Y116039D01*
D02*
G37*
G36*
X-81846Y110494D02*
X-81734Y110476D01*
X-81722Y110472D01*
X-81709Y110468D01*
X-81635Y110442D01*
X-81524Y110404D01*
X-81384Y110328D01*
X-81224Y110231D01*
X-81052Y110110D01*
X-80875Y109938D01*
X-80704Y109734D01*
X-81349Y109286D01*
X-81353Y109294D01*
X-81357Y109302D01*
X-81398Y109344D01*
X-81455Y109419D01*
X-81533Y109494D01*
X-81623Y109574D01*
X-81726Y109657D01*
X-81853Y109729D01*
X-81989Y109776D01*
X-82010Y109776D01*
X-82055Y109785D01*
X-82138Y109785D01*
X-82241Y109786D01*
X-82370Y109775D01*
X-82511Y109748D01*
X-82672Y109700D01*
X-82851Y109623D01*
X-82934Y109582D01*
X-83013Y109534D01*
X-83113Y109464D01*
X-83217Y109383D01*
X-83326Y109289D01*
X-83413Y109194D01*
X-83481Y109079D01*
X-83485Y109067D01*
X-83506Y109026D01*
X-83519Y108968D01*
X-83540Y108885D01*
X-83549Y108799D01*
X-83551Y108695D01*
X-83535Y108600D01*
X-83495Y108496D01*
X-83490Y108488D01*
X-83474Y108455D01*
X-83446Y108417D01*
X-83401Y108367D01*
X-83348Y108321D01*
X-83278Y108283D01*
X-83195Y108241D01*
X-83096Y108228D01*
X-83084Y108223D01*
X-83055Y108227D01*
X-83001Y108223D01*
X-82922Y108230D01*
X-82807Y108246D01*
X-82736Y108249D01*
X-82662Y108265D01*
X-82575Y108276D01*
X-82479Y108292D01*
X-82376Y108312D01*
X-82256Y108339D01*
X-82247Y108343D01*
X-82218Y108347D01*
X-82173Y108359D01*
X-82115Y108367D01*
X-82040Y108383D01*
X-81953Y108394D01*
X-81775Y108430D01*
X-81564Y108461D01*
X-81365Y108496D01*
X-81171Y108519D01*
X-81080Y108522D01*
X-81009Y108525D01*
X-80989Y108525D01*
X-80947Y108525D01*
X-80881Y108516D01*
X-80794Y108507D01*
X-80691Y108485D01*
X-80584Y108455D01*
X-80473Y108417D01*
X-80362Y108358D01*
X-80349Y108354D01*
X-80316Y108329D01*
X-80263Y108282D01*
X-80206Y108228D01*
X-80140Y108157D01*
X-80067Y108070D01*
X-80001Y107978D01*
X-79936Y107866D01*
X-79928Y107849D01*
X-79912Y107816D01*
X-79896Y107762D01*
X-79868Y107683D01*
X-79848Y107600D01*
X-79820Y107501D01*
X-79813Y107401D01*
X-79810Y107290D01*
X-79814Y107277D01*
X-79815Y107236D01*
X-79819Y107182D01*
X-79832Y107104D01*
X-79854Y107021D01*
X-79875Y106918D01*
X-79910Y106819D01*
X-79964Y106721D01*
X-79969Y106708D01*
X-79990Y106688D01*
X-80010Y106647D01*
X-80048Y106597D01*
X-80098Y106532D01*
X-80157Y106462D01*
X-80232Y106384D01*
X-80316Y106302D01*
X-80328Y106286D01*
X-80358Y106261D01*
X-80408Y106216D01*
X-80474Y106163D01*
X-80558Y106102D01*
X-80653Y106045D01*
X-80761Y105972D01*
X-80961Y105875D01*
X-81056Y105838D01*
X-81185Y105786D01*
X-81326Y105738D01*
X-81484Y105702D01*
X-81649Y105662D01*
X-81815Y105643D01*
X-81823Y105639D01*
X-81836Y105643D01*
X-81885Y105640D01*
X-81968Y105640D01*
X-82071Y105641D01*
X-82191Y105655D01*
X-82315Y105677D01*
X-82435Y105711D01*
X-82550Y105758D01*
X-82562Y105762D01*
X-82595Y105787D01*
X-82657Y105829D01*
X-82731Y105876D01*
X-82821Y105955D01*
X-82915Y106043D01*
X-83009Y106151D01*
X-83111Y106276D01*
X-82466Y106704D01*
X-82458Y106687D01*
X-82434Y106658D01*
X-82388Y106608D01*
X-82327Y106545D01*
X-82249Y106491D01*
X-82159Y106432D01*
X-82060Y106377D01*
X-81940Y106343D01*
X-81928Y106339D01*
X-81887Y106339D01*
X-81821Y106330D01*
X-81730Y106333D01*
X-81630Y106340D01*
X-81506Y106360D01*
X-81365Y106408D01*
X-81220Y106468D01*
X-81137Y106509D01*
X-81058Y106558D01*
X-80954Y106619D01*
X-80858Y106696D01*
X-80753Y106778D01*
X-80666Y106872D01*
X-80603Y106975D01*
X-80598Y106987D01*
X-80582Y107016D01*
X-80565Y107066D01*
X-80556Y107132D01*
X-80539Y107202D01*
X-80538Y107284D01*
X-80549Y107372D01*
X-80577Y107450D01*
X-80581Y107459D01*
X-80590Y107475D01*
X-80610Y107496D01*
X-80626Y107529D01*
X-80692Y107600D01*
X-80782Y107659D01*
X-80794Y107663D01*
X-80807Y107668D01*
X-80836Y107684D01*
X-80881Y107693D01*
X-80926Y107702D01*
X-80992Y107711D01*
X-81063Y107707D01*
X-81145Y107708D01*
X-81154Y107704D01*
X-81174Y107704D01*
X-81212Y107696D01*
X-81282Y107693D01*
X-81377Y107677D01*
X-81497Y107650D01*
X-81576Y107642D01*
X-81659Y107622D01*
X-81754Y107607D01*
X-81858Y107587D01*
X-81866Y107583D01*
X-81895Y107579D01*
X-81941Y107567D01*
X-81999Y107559D01*
X-82065Y107548D01*
X-82148Y107528D01*
X-82330Y107501D01*
X-82529Y107465D01*
X-82732Y107438D01*
X-82918Y107420D01*
X-82997Y107412D01*
X-83067Y107409D01*
X-83088Y107409D01*
X-83129Y107409D01*
X-83191Y107410D01*
X-83286Y107415D01*
X-83385Y107428D01*
X-83492Y107458D01*
X-83604Y107497D01*
X-83711Y107547D01*
X-83723Y107552D01*
X-83756Y107577D01*
X-83813Y107610D01*
X-83883Y107669D01*
X-83953Y107748D01*
X-84035Y107832D01*
X-84108Y107940D01*
X-84181Y108069D01*
X-84189Y108085D01*
X-84209Y108127D01*
X-84234Y108198D01*
X-84262Y108297D01*
X-84285Y108409D01*
X-84296Y108537D01*
X-84307Y108686D01*
X-84298Y108835D01*
X-84297Y108856D01*
X-84280Y108905D01*
X-84267Y108984D01*
X-84233Y109082D01*
X-84178Y109202D01*
X-84119Y109334D01*
X-84039Y109465D01*
X-83934Y109609D01*
X-83926Y109613D01*
X-83922Y109625D01*
X-83880Y109666D01*
X-83809Y109732D01*
X-83717Y109818D01*
X-83601Y109916D01*
X-83463Y110014D01*
X-83313Y110107D01*
X-83135Y110205D01*
X-83060Y110241D01*
X-82998Y110261D01*
X-82931Y110294D01*
X-82844Y110326D01*
X-82757Y110358D01*
X-82657Y110386D01*
X-82437Y110442D01*
X-82201Y110485D01*
X-81961Y110499D01*
X-81846Y110494D01*
D02*
G37*
G36*
X-68610Y110057D02*
X-70820Y108979D01*
X-70974Y108914D01*
X-71144Y108842D01*
X-71318Y108777D01*
X-71497Y108721D01*
X-71650Y108677D01*
X-71659Y108673D01*
X-71679Y108673D01*
X-71704Y108661D01*
X-71746Y108662D01*
X-71849Y108642D01*
X-71986Y108627D01*
X-72147Y108620D01*
X-72325Y108626D01*
X-72507Y108640D01*
X-72692Y108683D01*
X-72705Y108688D01*
X-72717Y108692D01*
X-72754Y108705D01*
X-72799Y108713D01*
X-72923Y108756D01*
X-73080Y108824D01*
X-73257Y108912D01*
X-73454Y109022D01*
X-73655Y109160D01*
X-73852Y109332D01*
X-73856Y109340D01*
X-73872Y109352D01*
X-73905Y109378D01*
X-73938Y109423D01*
X-73991Y109469D01*
X-74040Y109528D01*
X-74093Y109594D01*
X-74163Y109674D01*
X-74232Y109753D01*
X-74302Y109853D01*
X-74457Y110065D01*
X-74607Y110311D01*
X-74753Y110589D01*
X-74757Y110597D01*
X-74766Y110614D01*
X-74786Y110656D01*
X-74806Y110697D01*
X-74826Y110759D01*
X-74858Y110826D01*
X-74927Y110988D01*
X-74991Y111183D01*
X-75060Y111386D01*
X-75115Y111606D01*
X-75163Y111830D01*
X-75167Y111838D01*
X-75167Y111859D01*
X-75171Y111888D01*
X-75178Y111925D01*
X-75190Y112032D01*
X-75197Y112173D01*
X-75212Y112330D01*
X-75210Y112496D01*
X-75196Y112678D01*
X-75178Y112851D01*
X-75177Y112872D01*
X-75164Y112929D01*
X-75143Y113012D01*
X-75113Y113119D01*
X-75079Y113239D01*
X-75028Y113366D01*
X-74981Y113503D01*
X-74909Y113630D01*
X-74897Y113646D01*
X-74876Y113687D01*
X-74834Y113749D01*
X-74771Y113831D01*
X-74696Y113930D01*
X-74599Y114028D01*
X-74491Y114143D01*
X-74362Y114257D01*
X-74345Y114265D01*
X-74324Y114286D01*
X-74303Y114306D01*
X-74224Y114355D01*
X-74116Y114428D01*
X-73991Y114510D01*
X-73841Y114604D01*
X-73671Y114697D01*
X-73484Y114798D01*
X-71415Y115808D01*
X-68610Y110057D01*
D02*
G37*
G36*
X-88367Y109206D02*
X-88355Y109202D01*
X-88342Y109197D01*
X-88260Y109176D01*
X-88157Y109134D01*
X-88021Y109066D01*
X-87869Y108965D01*
X-87709Y108827D01*
X-87635Y108740D01*
X-87566Y108640D01*
X-87497Y108540D01*
X-87436Y108415D01*
X-88170Y108170D01*
X-88178Y108187D01*
X-88203Y108216D01*
X-88248Y108266D01*
X-88301Y108333D01*
X-88371Y108391D01*
X-88449Y108446D01*
X-88535Y108496D01*
X-88630Y108522D01*
X-88651Y108522D01*
X-88696Y108531D01*
X-88770Y108536D01*
X-88870Y108529D01*
X-88990Y108522D01*
X-89131Y108494D01*
X-89292Y108446D01*
X-89454Y108377D01*
X-89537Y108337D01*
X-89616Y108288D01*
X-89725Y108215D01*
X-89829Y108133D01*
X-89937Y108039D01*
X-90038Y107928D01*
X-90113Y107809D01*
X-90117Y107797D01*
X-90139Y107755D01*
X-90164Y107681D01*
X-90194Y107595D01*
X-90211Y107483D01*
X-90225Y107364D01*
X-90231Y107227D01*
X-90211Y107082D01*
X-90207Y107074D01*
X-90199Y107037D01*
X-90175Y106966D01*
X-90143Y106879D01*
X-90123Y106817D01*
X-90091Y106750D01*
X-90062Y106671D01*
X-90022Y106588D01*
X-89977Y106497D01*
X-89933Y106385D01*
X-89880Y106277D01*
X-89819Y106152D01*
X-89815Y106165D01*
X-89807Y106189D01*
X-89794Y106226D01*
X-89777Y106276D01*
X-89755Y106338D01*
X-89722Y106416D01*
X-89679Y106498D01*
X-89637Y106580D01*
X-89511Y106765D01*
X-89365Y106950D01*
X-89273Y107036D01*
X-89169Y107117D01*
X-89052Y107195D01*
X-88932Y107264D01*
X-88890Y107284D01*
X-88845Y107296D01*
X-88786Y107325D01*
X-88708Y107353D01*
X-88617Y107377D01*
X-88517Y107405D01*
X-88405Y107428D01*
X-88281Y107448D01*
X-88153Y107459D01*
X-88020Y107462D01*
X-87875Y107460D01*
X-87731Y107438D01*
X-87582Y107408D01*
X-87438Y107365D01*
X-87294Y107302D01*
X-87282Y107297D01*
X-87265Y107285D01*
X-87220Y107255D01*
X-87167Y107230D01*
X-87101Y107180D01*
X-87027Y107134D01*
X-86945Y107071D01*
X-86855Y106991D01*
X-86764Y106912D01*
X-86666Y106816D01*
X-86568Y106720D01*
X-86470Y106603D01*
X-86274Y106349D01*
X-86188Y106195D01*
X-86103Y106041D01*
X-86099Y106033D01*
X-86091Y106016D01*
X-86075Y105983D01*
X-86054Y105941D01*
X-86034Y105879D01*
X-86006Y105821D01*
X-85950Y105663D01*
X-85894Y105485D01*
X-85846Y105282D01*
X-85803Y105066D01*
X-85784Y104839D01*
X-85780Y104831D01*
X-85780Y104810D01*
X-85785Y104777D01*
X-85785Y104735D01*
X-85791Y104620D01*
X-85800Y104471D01*
X-85831Y104302D01*
X-85878Y104124D01*
X-85938Y103931D01*
X-86026Y103754D01*
X-86035Y103750D01*
X-86039Y103737D01*
X-86056Y103708D01*
X-86081Y103676D01*
X-86140Y103585D01*
X-86232Y103479D01*
X-86349Y103360D01*
X-86491Y103229D01*
X-86657Y103107D01*
X-86853Y103001D01*
X-86927Y102964D01*
X-86981Y102949D01*
X-87044Y102928D01*
X-87126Y102909D01*
X-87218Y102885D01*
X-87321Y102865D01*
X-87429Y102854D01*
X-87549Y102847D01*
X-87673Y102848D01*
X-87809Y102853D01*
X-87941Y102871D01*
X-88082Y102906D01*
X-88226Y102948D01*
X-88370Y103012D01*
X-88119Y102497D01*
X-88767Y102181D01*
X-90526Y105787D01*
X-90530Y105795D01*
X-90546Y105829D01*
X-90570Y105878D01*
X-90603Y105945D01*
X-90631Y106024D01*
X-90676Y106115D01*
X-90716Y106219D01*
X-90760Y106331D01*
X-90845Y106567D01*
X-90925Y106816D01*
X-90953Y106937D01*
X-90977Y107048D01*
X-90988Y107156D01*
X-90995Y107255D01*
X-90999Y107264D01*
X-90995Y107276D01*
X-90986Y107342D01*
X-90981Y107437D01*
X-90959Y107561D01*
X-90916Y107705D01*
X-90861Y107866D01*
X-90781Y108039D01*
X-90676Y108203D01*
X-90667Y108207D01*
X-90663Y108220D01*
X-90646Y108248D01*
X-90617Y108273D01*
X-90588Y108318D01*
X-90546Y108359D01*
X-90442Y108462D01*
X-90316Y108584D01*
X-90150Y108707D01*
X-89958Y108841D01*
X-89738Y108959D01*
X-89663Y108995D01*
X-89609Y109011D01*
X-89543Y109044D01*
X-89472Y109068D01*
X-89385Y109100D01*
X-89286Y109128D01*
X-89074Y109180D01*
X-88846Y109219D01*
X-88606Y109233D01*
X-88367Y109206D01*
D02*
G37*
G36*
X-77645Y112512D02*
X-77493Y112493D01*
X-77344Y112463D01*
X-77187Y112416D01*
X-77175Y112412D01*
X-77150Y112403D01*
X-77109Y112382D01*
X-77052Y112349D01*
X-76982Y112311D01*
X-76908Y112264D01*
X-76817Y112206D01*
X-76723Y112139D01*
X-76620Y112055D01*
X-76514Y111963D01*
X-76407Y111850D01*
X-76297Y111729D01*
X-76191Y111596D01*
X-76085Y111442D01*
X-75983Y111275D01*
X-75885Y111097D01*
X-75881Y111088D01*
X-75861Y111047D01*
X-75837Y110997D01*
X-75809Y110918D01*
X-75772Y110823D01*
X-75732Y110719D01*
X-75692Y110594D01*
X-75660Y110466D01*
X-75597Y110168D01*
X-75574Y110014D01*
X-75554Y109849D01*
X-75556Y109683D01*
X-75570Y109522D01*
X-75592Y109357D01*
X-75627Y109196D01*
X-75631Y109184D01*
X-75640Y109159D01*
X-75661Y109118D01*
X-75682Y109056D01*
X-75712Y108990D01*
X-75754Y108908D01*
X-75800Y108813D01*
X-75868Y108719D01*
X-75931Y108616D01*
X-76014Y108513D01*
X-76106Y108407D01*
X-76211Y108305D01*
X-76323Y108198D01*
X-76452Y108104D01*
X-76594Y108015D01*
X-76748Y107929D01*
X-76831Y107889D01*
X-76893Y107869D01*
X-76964Y107845D01*
X-77055Y107821D01*
X-77154Y107793D01*
X-77275Y107765D01*
X-77386Y107741D01*
X-77523Y107726D01*
X-77651Y107715D01*
X-77796Y107717D01*
X-77945Y107726D01*
X-78098Y107744D01*
X-78250Y107783D01*
X-78399Y107834D01*
X-78411Y107838D01*
X-78436Y107847D01*
X-78477Y107868D01*
X-78534Y107902D01*
X-78604Y107940D01*
X-78678Y107986D01*
X-78769Y108045D01*
X-78867Y108120D01*
X-78970Y108204D01*
X-79076Y108296D01*
X-79183Y108408D01*
X-79293Y108529D01*
X-79403Y108671D01*
X-79509Y108825D01*
X-79611Y108991D01*
X-79713Y109178D01*
X-79717Y109187D01*
X-79733Y109220D01*
X-79761Y109278D01*
X-79794Y109365D01*
X-76677Y110885D01*
X-76681Y110894D01*
X-76694Y110919D01*
X-76718Y110948D01*
X-76742Y110997D01*
X-76779Y111052D01*
X-76828Y111110D01*
X-76926Y111247D01*
X-77057Y111389D01*
X-77213Y111540D01*
X-77385Y111661D01*
X-77574Y111754D01*
X-77583Y111750D01*
X-77599Y111763D01*
X-77669Y111780D01*
X-77772Y111802D01*
X-77900Y111811D01*
X-78066Y111813D01*
X-78244Y111798D01*
X-78430Y111758D01*
X-78526Y111722D01*
X-78629Y111682D01*
X-78696Y111649D01*
X-78767Y111605D01*
X-78850Y111543D01*
X-78938Y111470D01*
X-79038Y111380D01*
X-79121Y111277D01*
X-79197Y111158D01*
X-79201Y111146D01*
X-79226Y111092D01*
X-79252Y111018D01*
X-79278Y110923D01*
X-79300Y110799D01*
X-79318Y110647D01*
X-79328Y110477D01*
X-79317Y110287D01*
X-80093Y110022D01*
X-80097Y110030D01*
X-80097Y110051D01*
X-80105Y110088D01*
X-80112Y110146D01*
X-80112Y110208D01*
X-80119Y110287D01*
X-80122Y110460D01*
X-80116Y110659D01*
X-80080Y110882D01*
X-80024Y111104D01*
X-79931Y111335D01*
X-79923Y111339D01*
X-79914Y111364D01*
X-79898Y111392D01*
X-79876Y111434D01*
X-79839Y111483D01*
X-79801Y111532D01*
X-79751Y111598D01*
X-79692Y111667D01*
X-79625Y111741D01*
X-79559Y111815D01*
X-79375Y111966D01*
X-79163Y112121D01*
X-78913Y112264D01*
X-78822Y112308D01*
X-78759Y112328D01*
X-78681Y112356D01*
X-78581Y112384D01*
X-78473Y112416D01*
X-78357Y112452D01*
X-78092Y112499D01*
X-77943Y112510D01*
X-77803Y112517D01*
X-77645Y112512D01*
D02*
G37*
G36*
X-83582Y104710D02*
X-84288Y104365D01*
X-86322Y108537D01*
X-85616Y108881D01*
X-83582Y104710D01*
D02*
G37*
G36*
X-82811Y103131D02*
X-83518Y102786D01*
X-83911Y103592D01*
X-83205Y103937D01*
X-82811Y103131D01*
D02*
G37*
G36*
X-96554Y103382D02*
X-96351Y103347D01*
X-96327Y103338D01*
X-96265Y103317D01*
X-96170Y103271D01*
X-96055Y103203D01*
X-95928Y103111D01*
X-95801Y102998D01*
X-95674Y102844D01*
X-95625Y102765D01*
X-95568Y102669D01*
X-95560Y102653D01*
X-95544Y102619D01*
X-95524Y102557D01*
X-95496Y102478D01*
X-95468Y102379D01*
X-95448Y102275D01*
X-95433Y102159D01*
X-95430Y102048D01*
X-95434Y102035D01*
X-95434Y101994D01*
X-95443Y101928D01*
X-95456Y101849D01*
X-95474Y101759D01*
X-95508Y101660D01*
X-95542Y101561D01*
X-95597Y101462D01*
X-95601Y101450D01*
X-95626Y101417D01*
X-95651Y101363D01*
X-95702Y101298D01*
X-95760Y101228D01*
X-95831Y101142D01*
X-95907Y101064D01*
X-95998Y100978D01*
X-96007Y100974D01*
X-96036Y100950D01*
X-96078Y100909D01*
X-96140Y100868D01*
X-96215Y100811D01*
X-96315Y100742D01*
X-96427Y100656D01*
X-96569Y100566D01*
X-96577Y100562D01*
X-96607Y100538D01*
X-96648Y100517D01*
X-96702Y100481D01*
X-96765Y100440D01*
X-96840Y100383D01*
X-96927Y100330D01*
X-97018Y100265D01*
X-97198Y100126D01*
X-97394Y99979D01*
X-97560Y99836D01*
X-97640Y99766D01*
X-97711Y99701D01*
X-97706Y99693D01*
X-97698Y99676D01*
X-97682Y99622D01*
X-97654Y99564D01*
X-97638Y99531D01*
X-97630Y99514D01*
X-97626Y99506D01*
X-97621Y99497D01*
X-97597Y99447D01*
X-97548Y99368D01*
X-97487Y99285D01*
X-97414Y99198D01*
X-97323Y99118D01*
X-97229Y99051D01*
X-97126Y99009D01*
X-97114Y99004D01*
X-97056Y98991D01*
X-96973Y98991D01*
X-96866Y98981D01*
X-96729Y98996D01*
X-96576Y99020D01*
X-96398Y99076D01*
X-96202Y99161D01*
X-96119Y99201D01*
X-96040Y99250D01*
X-95932Y99324D01*
X-95824Y99397D01*
X-95715Y99491D01*
X-95619Y99589D01*
X-95548Y99696D01*
X-95544Y99708D01*
X-95523Y99750D01*
X-95501Y99811D01*
X-95484Y99902D01*
X-95475Y100010D01*
X-95469Y100146D01*
X-95484Y100303D01*
X-95507Y100477D01*
X-94773Y100722D01*
X-94769Y100714D01*
X-94773Y100702D01*
X-94761Y100677D01*
X-94753Y100639D01*
X-94741Y100552D01*
X-94722Y100428D01*
X-94711Y100300D01*
X-94704Y100159D01*
X-94714Y100010D01*
X-94736Y99866D01*
X-94740Y99853D01*
X-94757Y99804D01*
X-94783Y99730D01*
X-94817Y99631D01*
X-94876Y99520D01*
X-94951Y99401D01*
X-95040Y99265D01*
X-95152Y99138D01*
X-95161Y99134D01*
X-95165Y99122D01*
X-95186Y99101D01*
X-95215Y99077D01*
X-95286Y99011D01*
X-95390Y98930D01*
X-95511Y98840D01*
X-95665Y98734D01*
X-95831Y98632D01*
X-96027Y98526D01*
X-96118Y98482D01*
X-96214Y98446D01*
X-96342Y98393D01*
X-96492Y98341D01*
X-96645Y98297D01*
X-96803Y98261D01*
X-96956Y98238D01*
X-96976Y98238D01*
X-97026Y98235D01*
X-97097Y98231D01*
X-97188Y98228D01*
X-97295Y98237D01*
X-97402Y98246D01*
X-97509Y98277D01*
X-97608Y98310D01*
X-97621Y98315D01*
X-97650Y98332D01*
X-97695Y98361D01*
X-97752Y98395D01*
X-97830Y98449D01*
X-97900Y98508D01*
X-97978Y98583D01*
X-98055Y98679D01*
X-98060Y98687D01*
X-98080Y98708D01*
X-98113Y98754D01*
X-98153Y98816D01*
X-98198Y98908D01*
X-98259Y99012D01*
X-98336Y99149D01*
X-98413Y99307D01*
X-98875Y100254D01*
X-98879Y100262D01*
X-98896Y100296D01*
X-98920Y100345D01*
X-98952Y100412D01*
X-98989Y100487D01*
X-99033Y100578D01*
X-99139Y100773D01*
X-99240Y100981D01*
X-99350Y101185D01*
X-99403Y101272D01*
X-99443Y101355D01*
X-99488Y101426D01*
X-99525Y101480D01*
X-99529Y101489D01*
X-99553Y101518D01*
X-99586Y101564D01*
X-99643Y101618D01*
X-99696Y101685D01*
X-99770Y101751D01*
X-99856Y101823D01*
X-99942Y101894D01*
X-99203Y102254D01*
X-99191Y102250D01*
X-99166Y102221D01*
X-99129Y102188D01*
X-99072Y102133D01*
X-99010Y102071D01*
X-98949Y101987D01*
X-98884Y101896D01*
X-98815Y101796D01*
X-98806Y101800D01*
X-98806Y101820D01*
X-98776Y101886D01*
X-98730Y101981D01*
X-98667Y102104D01*
X-98579Y102240D01*
X-98495Y102384D01*
X-98398Y102523D01*
X-98285Y102651D01*
X-98272Y102667D01*
X-98227Y102700D01*
X-98164Y102761D01*
X-98085Y102831D01*
X-97981Y102912D01*
X-97856Y102994D01*
X-97714Y103083D01*
X-97569Y103165D01*
X-97502Y103197D01*
X-97448Y103213D01*
X-97390Y103241D01*
X-97320Y103265D01*
X-97158Y103314D01*
X-96972Y103353D01*
X-96760Y103384D01*
X-96554Y103382D01*
D02*
G37*
G36*
X-89839Y101658D02*
X-90471Y101350D01*
X-90762Y101948D01*
X-90766Y101936D01*
X-90771Y101903D01*
X-90780Y101857D01*
X-90793Y101799D01*
X-90818Y101725D01*
X-90848Y101639D01*
X-90882Y101540D01*
X-90933Y101433D01*
X-90988Y101334D01*
X-91055Y101219D01*
X-91134Y101108D01*
X-91227Y101001D01*
X-91339Y100895D01*
X-91456Y100797D01*
X-91593Y100699D01*
X-91747Y100614D01*
X-91814Y100581D01*
X-91884Y100557D01*
X-91980Y100521D01*
X-92096Y100485D01*
X-92224Y100453D01*
X-92365Y100426D01*
X-92506Y100419D01*
X-92527Y100419D01*
X-92568Y100419D01*
X-92638Y100416D01*
X-92725Y100425D01*
X-92832Y100434D01*
X-92940Y100464D01*
X-93047Y100494D01*
X-93154Y100545D01*
X-93166Y100549D01*
X-93199Y100574D01*
X-93244Y100604D01*
X-93314Y100642D01*
X-93388Y100709D01*
X-93462Y100775D01*
X-93552Y100855D01*
X-93629Y100951D01*
X-93633Y100959D01*
X-93658Y100988D01*
X-93691Y101034D01*
X-93731Y101096D01*
X-93780Y101196D01*
X-93845Y101308D01*
X-93922Y101446D01*
X-94007Y101620D01*
X-95256Y104180D01*
X-94549Y104524D01*
X-93317Y101998D01*
X-93313Y101990D01*
X-93309Y101981D01*
X-93281Y101923D01*
X-93244Y101848D01*
X-93191Y101761D01*
X-93130Y101657D01*
X-93061Y101557D01*
X-92987Y101469D01*
X-92918Y101390D01*
X-92914Y101382D01*
X-92885Y101365D01*
X-92840Y101336D01*
X-92791Y101298D01*
X-92725Y101269D01*
X-92647Y101235D01*
X-92552Y101209D01*
X-92453Y101195D01*
X-92440Y101191D01*
X-92407Y101187D01*
X-92349Y101194D01*
X-92279Y101198D01*
X-92200Y101205D01*
X-92105Y101221D01*
X-92001Y101261D01*
X-91897Y101302D01*
X-91856Y101322D01*
X-91827Y101346D01*
X-91748Y101395D01*
X-91648Y101465D01*
X-91552Y101563D01*
X-91443Y101678D01*
X-91342Y101809D01*
X-91266Y101969D01*
X-91258Y101994D01*
X-91245Y102052D01*
X-91236Y102097D01*
X-91232Y102151D01*
X-91223Y102217D01*
X-91226Y102287D01*
X-91225Y102370D01*
X-91233Y102469D01*
X-91252Y102573D01*
X-91276Y102685D01*
X-91312Y102801D01*
X-91352Y102925D01*
X-91404Y103075D01*
X-91473Y103216D01*
X-92580Y105485D01*
X-91874Y105829D01*
X-89839Y101658D01*
D02*
G37*
G36*
X-101264Y101167D02*
X-101231Y101162D01*
X-101186Y101153D01*
X-101116Y101136D01*
X-101054Y101115D01*
X-100976Y101081D01*
X-100898Y101047D01*
X-100828Y100989D01*
X-100824Y100980D01*
X-100791Y100955D01*
X-100754Y100901D01*
X-100697Y100826D01*
X-100628Y100726D01*
X-100587Y100664D01*
X-100551Y100589D01*
X-100498Y100502D01*
X-100445Y100414D01*
X-100396Y100315D01*
X-100340Y100198D01*
X-99164Y97788D01*
X-98641Y98044D01*
X-98373Y97495D01*
X-98897Y97240D01*
X-98394Y96209D01*
X-98894Y95441D01*
X-99603Y96895D01*
X-100318Y96547D01*
X-100585Y97095D01*
X-99871Y97444D01*
X-101066Y99895D01*
X-101074Y99912D01*
X-101090Y99945D01*
X-101115Y99995D01*
X-101152Y100049D01*
X-101225Y100178D01*
X-101261Y100232D01*
X-101290Y100270D01*
X-101306Y100282D01*
X-101347Y100303D01*
X-101401Y100329D01*
X-101479Y100342D01*
X-101500Y100342D01*
X-101550Y100338D01*
X-101633Y100318D01*
X-101745Y100274D01*
X-101828Y100233D01*
X-101865Y100205D01*
X-101924Y100177D01*
X-101986Y100136D01*
X-102048Y100095D01*
X-102444Y100674D01*
X-102427Y100682D01*
X-102398Y100706D01*
X-102344Y100743D01*
X-102273Y100788D01*
X-102198Y100845D01*
X-102111Y100898D01*
X-101932Y100995D01*
X-101866Y101028D01*
X-101795Y101052D01*
X-101708Y101084D01*
X-101604Y101124D01*
X-101492Y101148D01*
X-101389Y101168D01*
X-101277Y101171D01*
X-101264Y101167D01*
D02*
G37*
G36*
X-103547Y99878D02*
X-103394Y99860D01*
X-103246Y99830D01*
X-103089Y99783D01*
X-103077Y99779D01*
X-103052Y99770D01*
X-103011Y99749D01*
X-102954Y99715D01*
X-102884Y99677D01*
X-102810Y99631D01*
X-102719Y99572D01*
X-102621Y99497D01*
X-102518Y99413D01*
X-102408Y99313D01*
X-102301Y99200D01*
X-102191Y99079D01*
X-102080Y98938D01*
X-101974Y98784D01*
X-101869Y98609D01*
X-101767Y98422D01*
X-101759Y98405D01*
X-101743Y98372D01*
X-101723Y98310D01*
X-101682Y98227D01*
X-101646Y98131D01*
X-101606Y98007D01*
X-101566Y97882D01*
X-101534Y97733D01*
X-101503Y97584D01*
X-101475Y97422D01*
X-101452Y97248D01*
X-101450Y97075D01*
X-101451Y96909D01*
X-101478Y96732D01*
X-101508Y96563D01*
X-101572Y96398D01*
X-101576Y96385D01*
X-101589Y96369D01*
X-101610Y96328D01*
X-101635Y96274D01*
X-101669Y96217D01*
X-101715Y96143D01*
X-101761Y96069D01*
X-101824Y95987D01*
X-101895Y95901D01*
X-101975Y95811D01*
X-102163Y95626D01*
X-102392Y95442D01*
X-102521Y95369D01*
X-102658Y95292D01*
X-102741Y95252D01*
X-102803Y95232D01*
X-102882Y95203D01*
X-102973Y95180D01*
X-103073Y95152D01*
X-103189Y95115D01*
X-103450Y95081D01*
X-103587Y95066D01*
X-103731Y95067D01*
X-103876Y95069D01*
X-104033Y95095D01*
X-104181Y95125D01*
X-104338Y95172D01*
X-104350Y95176D01*
X-104375Y95185D01*
X-104416Y95206D01*
X-104470Y95232D01*
X-104540Y95269D01*
X-104626Y95320D01*
X-104716Y95379D01*
X-104811Y95446D01*
X-104909Y95521D01*
X-105020Y95621D01*
X-105131Y95722D01*
X-105241Y95843D01*
X-105347Y95976D01*
X-105449Y96122D01*
X-105547Y96280D01*
X-105644Y96459D01*
X-105648Y96467D01*
X-105661Y96492D01*
X-105681Y96533D01*
X-105709Y96592D01*
X-105733Y96662D01*
X-105766Y96749D01*
X-105806Y96833D01*
X-105834Y96932D01*
X-105911Y97152D01*
X-105962Y97384D01*
X-106005Y97620D01*
X-106015Y97852D01*
X-106019Y97860D01*
X-106015Y97872D01*
X-106011Y97905D01*
X-106010Y97947D01*
X-105992Y98058D01*
X-105966Y98195D01*
X-105923Y98359D01*
X-105855Y98537D01*
X-105771Y98722D01*
X-105657Y98911D01*
X-105649Y98915D01*
X-105645Y98927D01*
X-105628Y98956D01*
X-105595Y98993D01*
X-105561Y99030D01*
X-105519Y99071D01*
X-105419Y99181D01*
X-105298Y99292D01*
X-105144Y99419D01*
X-104977Y99541D01*
X-104782Y99647D01*
X-104699Y99687D01*
X-104628Y99711D01*
X-104549Y99739D01*
X-104458Y99763D01*
X-104350Y99795D01*
X-104242Y99827D01*
X-103986Y99870D01*
X-103837Y99881D01*
X-103696Y99888D01*
X-103547Y99878D01*
D02*
G37*
G36*
X-105478Y94030D02*
X-106118Y93718D01*
X-106426Y94349D01*
X-106430Y94337D01*
X-106435Y94263D01*
X-106440Y94168D01*
X-106462Y94044D01*
X-106484Y93920D01*
X-106510Y93784D01*
X-106544Y93664D01*
X-106587Y93561D01*
X-106591Y93549D01*
X-106608Y93520D01*
X-106646Y93471D01*
X-106683Y93421D01*
X-106738Y93364D01*
X-106809Y93299D01*
X-106883Y93242D01*
X-106971Y93189D01*
X-107029Y93160D01*
X-107108Y93132D01*
X-107207Y93104D01*
X-107332Y93085D01*
X-107468Y93069D01*
X-107630Y93063D01*
X-107807Y93069D01*
X-107866Y93842D01*
X-107853Y93838D01*
X-107812Y93838D01*
X-107750Y93837D01*
X-107671Y93845D01*
X-107584Y93856D01*
X-107481Y93876D01*
X-107381Y93904D01*
X-107286Y93940D01*
X-107244Y93961D01*
X-107207Y93989D01*
X-107153Y94026D01*
X-107103Y94071D01*
X-107040Y94132D01*
X-106981Y94202D01*
X-106939Y94284D01*
X-106935Y94297D01*
X-106918Y94325D01*
X-106910Y94371D01*
X-106888Y94432D01*
X-106875Y94511D01*
X-106866Y94598D01*
X-106861Y94693D01*
X-106872Y94800D01*
X-106872Y94821D01*
X-106888Y94875D01*
X-106908Y94958D01*
X-106932Y95070D01*
X-106967Y95206D01*
X-107020Y95356D01*
X-107084Y95510D01*
X-107157Y95680D01*
X-108219Y97857D01*
X-107513Y98201D01*
X-105478Y94030D01*
D02*
G37*
G36*
X-38024Y75820D02*
X-38830Y75427D01*
X-39223Y76233D01*
X-38417Y76626D01*
X-38024Y75820D01*
D02*
G37*
G36*
X-50976Y70275D02*
X-50864Y70257D01*
X-50852Y70253D01*
X-50840Y70248D01*
X-50765Y70223D01*
X-50654Y70185D01*
X-50514Y70109D01*
X-50354Y70012D01*
X-50181Y69890D01*
X-50005Y69719D01*
X-49834Y69515D01*
X-50479Y69067D01*
X-50483Y69075D01*
X-50487Y69083D01*
X-50528Y69125D01*
X-50585Y69200D01*
X-50663Y69275D01*
X-50753Y69355D01*
X-50856Y69438D01*
X-50983Y69510D01*
X-51119Y69557D01*
X-51140Y69557D01*
X-51185Y69566D01*
X-51268Y69566D01*
X-51371Y69567D01*
X-51500Y69556D01*
X-51641Y69529D01*
X-51802Y69481D01*
X-51981Y69404D01*
X-52064Y69363D01*
X-52143Y69314D01*
X-52243Y69245D01*
X-52347Y69163D01*
X-52456Y69069D01*
X-52543Y68975D01*
X-52611Y68860D01*
X-52615Y68848D01*
X-52636Y68807D01*
X-52649Y68749D01*
X-52670Y68666D01*
X-52680Y68580D01*
X-52681Y68476D01*
X-52665Y68381D01*
X-52625Y68277D01*
X-52621Y68269D01*
X-52604Y68236D01*
X-52576Y68198D01*
X-52531Y68148D01*
X-52477Y68102D01*
X-52408Y68064D01*
X-52325Y68022D01*
X-52226Y68009D01*
X-52214Y68004D01*
X-52185Y68008D01*
X-52131Y68004D01*
X-52052Y68011D01*
X-51936Y68026D01*
X-51866Y68030D01*
X-51792Y68046D01*
X-51705Y68057D01*
X-51609Y68073D01*
X-51506Y68092D01*
X-51386Y68120D01*
X-51377Y68124D01*
X-51348Y68128D01*
X-51303Y68140D01*
X-51245Y68148D01*
X-51170Y68164D01*
X-51083Y68175D01*
X-50905Y68211D01*
X-50694Y68242D01*
X-50495Y68277D01*
X-50300Y68300D01*
X-50209Y68303D01*
X-50139Y68306D01*
X-50118Y68306D01*
X-50077Y68306D01*
X-50011Y68297D01*
X-49924Y68288D01*
X-49821Y68266D01*
X-49714Y68236D01*
X-49603Y68198D01*
X-49492Y68139D01*
X-49479Y68134D01*
X-49447Y68109D01*
X-49393Y68063D01*
X-49336Y68009D01*
X-49270Y67938D01*
X-49197Y67850D01*
X-49132Y67759D01*
X-49067Y67647D01*
X-49058Y67630D01*
X-49042Y67597D01*
X-49026Y67543D01*
X-48998Y67464D01*
X-48978Y67381D01*
X-48950Y67282D01*
X-48943Y67182D01*
X-48940Y67071D01*
X-48944Y67058D01*
X-48945Y67017D01*
X-48949Y66963D01*
X-48962Y66885D01*
X-48984Y66802D01*
X-49005Y66699D01*
X-49040Y66600D01*
X-49094Y66501D01*
X-49099Y66489D01*
X-49120Y66469D01*
X-49141Y66428D01*
X-49178Y66378D01*
X-49229Y66313D01*
X-49287Y66243D01*
X-49362Y66165D01*
X-49446Y66083D01*
X-49458Y66067D01*
X-49488Y66042D01*
X-49538Y65997D01*
X-49604Y65944D01*
X-49688Y65883D01*
X-49783Y65826D01*
X-49892Y65753D01*
X-50091Y65655D01*
X-50186Y65619D01*
X-50315Y65567D01*
X-50456Y65518D01*
X-50614Y65483D01*
X-50779Y65443D01*
X-50945Y65424D01*
X-50953Y65420D01*
X-50966Y65424D01*
X-51015Y65421D01*
X-51098Y65421D01*
X-51201Y65422D01*
X-51321Y65436D01*
X-51445Y65458D01*
X-51565Y65492D01*
X-51680Y65539D01*
X-51692Y65543D01*
X-51725Y65568D01*
X-51787Y65610D01*
X-51861Y65656D01*
X-51951Y65736D01*
X-52045Y65823D01*
X-52139Y65932D01*
X-52241Y66057D01*
X-51596Y66485D01*
X-51588Y66468D01*
X-51564Y66439D01*
X-51519Y66389D01*
X-51457Y66326D01*
X-51379Y66272D01*
X-51289Y66213D01*
X-51190Y66158D01*
X-51070Y66124D01*
X-51058Y66120D01*
X-51017Y66119D01*
X-50951Y66111D01*
X-50860Y66114D01*
X-50760Y66121D01*
X-50636Y66140D01*
X-50495Y66189D01*
X-50350Y66249D01*
X-50267Y66290D01*
X-50188Y66339D01*
X-50084Y66400D01*
X-49988Y66477D01*
X-49883Y66559D01*
X-49796Y66653D01*
X-49733Y66756D01*
X-49728Y66768D01*
X-49712Y66797D01*
X-49695Y66846D01*
X-49686Y66913D01*
X-49668Y66983D01*
X-49668Y67065D01*
X-49679Y67152D01*
X-49707Y67231D01*
X-49711Y67239D01*
X-49720Y67256D01*
X-49740Y67277D01*
X-49756Y67310D01*
X-49822Y67381D01*
X-49912Y67440D01*
X-49924Y67444D01*
X-49937Y67449D01*
X-49966Y67465D01*
X-50011Y67474D01*
X-50056Y67483D01*
X-50122Y67492D01*
X-50193Y67488D01*
X-50276Y67489D01*
X-50284Y67485D01*
X-50304Y67485D01*
X-50342Y67477D01*
X-50412Y67474D01*
X-50507Y67458D01*
X-50627Y67431D01*
X-50706Y67423D01*
X-50789Y67403D01*
X-50884Y67387D01*
X-50988Y67368D01*
X-50996Y67364D01*
X-51025Y67360D01*
X-51071Y67348D01*
X-51129Y67340D01*
X-51195Y67329D01*
X-51278Y67309D01*
X-51460Y67282D01*
X-51659Y67246D01*
X-51862Y67219D01*
X-52048Y67200D01*
X-52127Y67193D01*
X-52197Y67190D01*
X-52218Y67190D01*
X-52259Y67190D01*
X-52321Y67191D01*
X-52416Y67196D01*
X-52515Y67209D01*
X-52622Y67239D01*
X-52734Y67278D01*
X-52841Y67328D01*
X-52853Y67333D01*
X-52886Y67358D01*
X-52944Y67391D01*
X-53013Y67450D01*
X-53083Y67529D01*
X-53165Y67613D01*
X-53238Y67721D01*
X-53311Y67850D01*
X-53319Y67866D01*
X-53340Y67908D01*
X-53364Y67979D01*
X-53391Y68078D01*
X-53415Y68190D01*
X-53426Y68318D01*
X-53437Y68467D01*
X-53428Y68616D01*
X-53427Y68636D01*
X-53410Y68686D01*
X-53397Y68764D01*
X-53363Y68863D01*
X-53308Y68983D01*
X-53249Y69114D01*
X-53169Y69246D01*
X-53064Y69390D01*
X-53056Y69394D01*
X-53052Y69406D01*
X-53010Y69447D01*
X-52939Y69513D01*
X-52847Y69598D01*
X-52730Y69696D01*
X-52593Y69794D01*
X-52443Y69888D01*
X-52265Y69985D01*
X-52190Y70022D01*
X-52128Y70042D01*
X-52061Y70074D01*
X-51974Y70107D01*
X-51887Y70139D01*
X-51787Y70167D01*
X-51568Y70223D01*
X-51331Y70266D01*
X-51091Y70280D01*
X-50976Y70275D01*
D02*
G37*
G36*
X-37740Y69838D02*
X-39950Y68760D01*
X-40104Y68695D01*
X-40274Y68623D01*
X-40448Y68558D01*
X-40627Y68502D01*
X-40780Y68458D01*
X-40789Y68454D01*
X-40809Y68454D01*
X-40834Y68442D01*
X-40876Y68443D01*
X-40979Y68423D01*
X-41116Y68408D01*
X-41277Y68401D01*
X-41455Y68407D01*
X-41637Y68421D01*
X-41822Y68464D01*
X-41835Y68468D01*
X-41847Y68473D01*
X-41884Y68485D01*
X-41929Y68494D01*
X-42053Y68537D01*
X-42210Y68604D01*
X-42386Y68693D01*
X-42584Y68802D01*
X-42785Y68941D01*
X-42982Y69112D01*
X-42986Y69121D01*
X-43002Y69133D01*
X-43035Y69158D01*
X-43068Y69204D01*
X-43121Y69250D01*
X-43170Y69309D01*
X-43223Y69375D01*
X-43293Y69454D01*
X-43362Y69534D01*
X-43432Y69634D01*
X-43587Y69846D01*
X-43737Y70092D01*
X-43883Y70370D01*
X-43887Y70378D01*
X-43896Y70395D01*
X-43916Y70437D01*
X-43936Y70478D01*
X-43956Y70540D01*
X-43988Y70607D01*
X-44057Y70769D01*
X-44121Y70964D01*
X-44190Y71167D01*
X-44246Y71387D01*
X-44293Y71610D01*
X-44297Y71619D01*
X-44297Y71639D01*
X-44301Y71668D01*
X-44309Y71706D01*
X-44320Y71813D01*
X-44327Y71954D01*
X-44342Y72111D01*
X-44340Y72277D01*
X-44326Y72459D01*
X-44308Y72632D01*
X-44307Y72653D01*
X-44294Y72710D01*
X-44273Y72793D01*
X-44243Y72900D01*
X-44209Y73020D01*
X-44158Y73147D01*
X-44111Y73283D01*
X-44039Y73411D01*
X-44027Y73427D01*
X-44006Y73468D01*
X-43964Y73530D01*
X-43901Y73612D01*
X-43826Y73710D01*
X-43730Y73809D01*
X-43621Y73924D01*
X-43492Y74038D01*
X-43475Y74046D01*
X-43454Y74067D01*
X-43433Y74087D01*
X-43354Y74136D01*
X-43246Y74209D01*
X-43121Y74291D01*
X-42971Y74384D01*
X-42801Y74478D01*
X-42614Y74579D01*
X-40545Y75588D01*
X-37740Y69838D01*
D02*
G37*
G36*
X-57497Y68987D02*
X-57484Y68983D01*
X-57472Y68978D01*
X-57390Y68957D01*
X-57287Y68914D01*
X-57151Y68847D01*
X-56999Y68746D01*
X-56839Y68608D01*
X-56765Y68521D01*
X-56696Y68421D01*
X-56627Y68321D01*
X-56566Y68196D01*
X-57300Y67951D01*
X-57308Y67968D01*
X-57333Y67997D01*
X-57378Y68047D01*
X-57431Y68114D01*
X-57501Y68172D01*
X-57579Y68227D01*
X-57665Y68277D01*
X-57760Y68303D01*
X-57781Y68303D01*
X-57826Y68312D01*
X-57900Y68317D01*
X-58000Y68309D01*
X-58120Y68302D01*
X-58261Y68275D01*
X-58422Y68227D01*
X-58584Y68158D01*
X-58667Y68118D01*
X-58746Y68069D01*
X-58855Y67995D01*
X-58959Y67914D01*
X-59067Y67820D01*
X-59168Y67709D01*
X-59243Y67590D01*
X-59247Y67578D01*
X-59268Y67536D01*
X-59294Y67462D01*
X-59324Y67376D01*
X-59342Y67264D01*
X-59355Y67144D01*
X-59361Y67008D01*
X-59341Y66863D01*
X-59337Y66855D01*
X-59329Y66817D01*
X-59305Y66747D01*
X-59273Y66660D01*
X-59253Y66598D01*
X-59221Y66531D01*
X-59192Y66452D01*
X-59152Y66369D01*
X-59107Y66278D01*
X-59063Y66166D01*
X-59010Y66058D01*
X-58949Y65933D01*
X-58945Y65945D01*
X-58937Y65970D01*
X-58924Y66007D01*
X-58907Y66057D01*
X-58886Y66118D01*
X-58852Y66197D01*
X-58809Y66279D01*
X-58767Y66361D01*
X-58642Y66546D01*
X-58495Y66731D01*
X-58403Y66817D01*
X-58299Y66898D01*
X-58182Y66976D01*
X-58062Y67045D01*
X-58020Y67065D01*
X-57975Y67077D01*
X-57916Y67105D01*
X-57838Y67134D01*
X-57747Y67158D01*
X-57647Y67185D01*
X-57535Y67209D01*
X-57411Y67229D01*
X-57283Y67240D01*
X-57150Y67243D01*
X-57006Y67241D01*
X-56861Y67219D01*
X-56712Y67189D01*
X-56568Y67146D01*
X-56424Y67082D01*
X-56412Y67078D01*
X-56395Y67066D01*
X-56350Y67036D01*
X-56297Y67011D01*
X-56231Y66961D01*
X-56157Y66914D01*
X-56075Y66852D01*
X-55985Y66772D01*
X-55894Y66693D01*
X-55796Y66597D01*
X-55698Y66501D01*
X-55600Y66384D01*
X-55404Y66130D01*
X-55318Y65976D01*
X-55233Y65822D01*
X-55229Y65814D01*
X-55221Y65797D01*
X-55205Y65764D01*
X-55184Y65722D01*
X-55164Y65660D01*
X-55136Y65602D01*
X-55080Y65444D01*
X-55024Y65266D01*
X-54976Y65063D01*
X-54933Y64847D01*
X-54914Y64620D01*
X-54910Y64611D01*
X-54910Y64591D01*
X-54915Y64558D01*
X-54915Y64516D01*
X-54921Y64401D01*
X-54930Y64252D01*
X-54961Y64082D01*
X-55008Y63905D01*
X-55068Y63712D01*
X-55156Y63534D01*
X-55165Y63531D01*
X-55169Y63518D01*
X-55186Y63489D01*
X-55211Y63457D01*
X-55270Y63366D01*
X-55362Y63260D01*
X-55479Y63141D01*
X-55621Y63010D01*
X-55787Y62887D01*
X-55983Y62782D01*
X-56057Y62745D01*
X-56111Y62729D01*
X-56174Y62709D01*
X-56256Y62689D01*
X-56348Y62666D01*
X-56451Y62646D01*
X-56559Y62635D01*
X-56679Y62627D01*
X-56803Y62629D01*
X-56939Y62634D01*
X-57071Y62652D01*
X-57212Y62686D01*
X-57356Y62729D01*
X-57500Y62793D01*
X-57249Y62277D01*
X-57897Y61961D01*
X-59656Y65568D01*
X-59660Y65576D01*
X-59676Y65609D01*
X-59700Y65659D01*
X-59733Y65726D01*
X-59761Y65805D01*
X-59806Y65896D01*
X-59846Y66000D01*
X-59890Y66112D01*
X-59975Y66348D01*
X-60055Y66597D01*
X-60083Y66717D01*
X-60107Y66829D01*
X-60118Y66937D01*
X-60125Y67036D01*
X-60129Y67045D01*
X-60125Y67057D01*
X-60116Y67123D01*
X-60111Y67218D01*
X-60089Y67342D01*
X-60046Y67486D01*
X-59991Y67647D01*
X-59911Y67820D01*
X-59806Y67984D01*
X-59798Y67988D01*
X-59793Y68000D01*
X-59776Y68029D01*
X-59747Y68054D01*
X-59718Y68099D01*
X-59676Y68140D01*
X-59572Y68242D01*
X-59446Y68365D01*
X-59280Y68488D01*
X-59088Y68622D01*
X-58868Y68740D01*
X-58793Y68776D01*
X-58739Y68792D01*
X-58673Y68825D01*
X-58602Y68849D01*
X-58515Y68881D01*
X-58416Y68909D01*
X-58204Y68961D01*
X-57976Y69000D01*
X-57736Y69014D01*
X-57497Y68987D01*
D02*
G37*
G36*
X-46775Y72292D02*
X-46623Y72274D01*
X-46474Y72244D01*
X-46317Y72197D01*
X-46305Y72193D01*
X-46280Y72184D01*
X-46239Y72163D01*
X-46182Y72129D01*
X-46112Y72091D01*
X-46038Y72045D01*
X-45947Y71986D01*
X-45853Y71919D01*
X-45750Y71836D01*
X-45644Y71744D01*
X-45537Y71631D01*
X-45427Y71510D01*
X-45321Y71377D01*
X-45215Y71223D01*
X-45113Y71056D01*
X-45016Y70877D01*
X-45011Y70869D01*
X-44991Y70828D01*
X-44967Y70778D01*
X-44939Y70699D01*
X-44902Y70603D01*
X-44862Y70500D01*
X-44822Y70375D01*
X-44790Y70247D01*
X-44727Y69948D01*
X-44704Y69795D01*
X-44685Y69630D01*
X-44686Y69464D01*
X-44700Y69303D01*
X-44722Y69138D01*
X-44757Y68977D01*
X-44761Y68965D01*
X-44770Y68940D01*
X-44791Y68899D01*
X-44812Y68837D01*
X-44842Y68771D01*
X-44884Y68689D01*
X-44931Y68594D01*
X-44998Y68500D01*
X-45061Y68397D01*
X-45144Y68294D01*
X-45236Y68188D01*
X-45341Y68085D01*
X-45453Y67979D01*
X-45582Y67885D01*
X-45724Y67796D01*
X-45878Y67710D01*
X-45961Y67670D01*
X-46023Y67650D01*
X-46094Y67626D01*
X-46185Y67602D01*
X-46284Y67574D01*
X-46405Y67546D01*
X-46516Y67522D01*
X-46653Y67507D01*
X-46781Y67496D01*
X-46926Y67497D01*
X-47075Y67507D01*
X-47228Y67525D01*
X-47380Y67564D01*
X-47529Y67615D01*
X-47541Y67619D01*
X-47566Y67628D01*
X-47607Y67649D01*
X-47664Y67682D01*
X-47734Y67720D01*
X-47808Y67766D01*
X-47899Y67825D01*
X-47997Y67901D01*
X-48100Y67984D01*
X-48206Y68076D01*
X-48313Y68189D01*
X-48423Y68310D01*
X-48533Y68452D01*
X-48639Y68606D01*
X-48741Y68772D01*
X-48843Y68959D01*
X-48847Y68968D01*
X-48863Y69001D01*
X-48891Y69059D01*
X-48924Y69146D01*
X-45807Y70666D01*
X-45811Y70674D01*
X-45823Y70699D01*
X-45848Y70729D01*
X-45872Y70778D01*
X-45909Y70833D01*
X-45958Y70891D01*
X-46056Y71028D01*
X-46187Y71170D01*
X-46343Y71321D01*
X-46515Y71442D01*
X-46704Y71535D01*
X-46713Y71531D01*
X-46729Y71543D01*
X-46799Y71561D01*
X-46902Y71582D01*
X-47030Y71592D01*
X-47196Y71594D01*
X-47374Y71579D01*
X-47560Y71539D01*
X-47656Y71503D01*
X-47759Y71463D01*
X-47826Y71430D01*
X-47897Y71385D01*
X-47980Y71324D01*
X-48067Y71251D01*
X-48168Y71161D01*
X-48251Y71058D01*
X-48327Y70939D01*
X-48331Y70927D01*
X-48356Y70873D01*
X-48382Y70799D01*
X-48408Y70704D01*
X-48430Y70580D01*
X-48448Y70427D01*
X-48458Y70258D01*
X-48447Y70068D01*
X-49223Y69802D01*
X-49227Y69811D01*
X-49227Y69832D01*
X-49235Y69869D01*
X-49243Y69927D01*
X-49242Y69989D01*
X-49249Y70067D01*
X-49252Y70241D01*
X-49246Y70440D01*
X-49210Y70662D01*
X-49155Y70885D01*
X-49061Y71116D01*
X-49053Y71120D01*
X-49044Y71145D01*
X-49028Y71173D01*
X-49007Y71214D01*
X-48969Y71264D01*
X-48931Y71313D01*
X-48881Y71379D01*
X-48822Y71448D01*
X-48755Y71522D01*
X-48689Y71596D01*
X-48505Y71747D01*
X-48293Y71902D01*
X-48043Y72044D01*
X-47952Y72089D01*
X-47889Y72109D01*
X-47811Y72137D01*
X-47711Y72165D01*
X-47603Y72197D01*
X-47487Y72233D01*
X-47222Y72280D01*
X-47073Y72291D01*
X-46933Y72298D01*
X-46775Y72292D01*
D02*
G37*
G36*
X-52712Y64490D02*
X-53418Y64146D01*
X-55452Y68317D01*
X-54746Y68662D01*
X-52712Y64490D01*
D02*
G37*
G36*
X-51941Y62912D02*
X-52648Y62567D01*
X-53041Y63373D01*
X-52335Y63718D01*
X-51941Y62912D01*
D02*
G37*
G36*
X-65684Y63163D02*
X-65481Y63128D01*
X-65457Y63119D01*
X-65395Y63098D01*
X-65300Y63052D01*
X-65185Y62984D01*
X-65058Y62892D01*
X-64931Y62779D01*
X-64804Y62625D01*
X-64755Y62546D01*
X-64698Y62450D01*
X-64690Y62434D01*
X-64674Y62400D01*
X-64654Y62338D01*
X-64626Y62259D01*
X-64598Y62160D01*
X-64578Y62056D01*
X-64563Y61940D01*
X-64560Y61829D01*
X-64564Y61816D01*
X-64564Y61775D01*
X-64573Y61709D01*
X-64586Y61630D01*
X-64604Y61540D01*
X-64638Y61441D01*
X-64672Y61342D01*
X-64727Y61243D01*
X-64731Y61231D01*
X-64756Y61198D01*
X-64781Y61144D01*
X-64832Y61079D01*
X-64890Y61009D01*
X-64961Y60923D01*
X-65037Y60845D01*
X-65128Y60759D01*
X-65137Y60755D01*
X-65166Y60731D01*
X-65208Y60690D01*
X-65270Y60649D01*
X-65345Y60592D01*
X-65445Y60522D01*
X-65557Y60437D01*
X-65699Y60347D01*
X-65707Y60343D01*
X-65736Y60318D01*
X-65778Y60298D01*
X-65832Y60262D01*
X-65895Y60221D01*
X-65970Y60164D01*
X-66057Y60111D01*
X-66149Y60045D01*
X-66328Y59907D01*
X-66523Y59760D01*
X-66690Y59617D01*
X-66770Y59547D01*
X-66841Y59482D01*
X-66836Y59473D01*
X-66828Y59457D01*
X-66812Y59403D01*
X-66784Y59345D01*
X-66768Y59311D01*
X-66760Y59295D01*
X-66756Y59286D01*
X-66752Y59278D01*
X-66727Y59228D01*
X-66678Y59149D01*
X-66617Y59066D01*
X-66544Y58978D01*
X-66453Y58899D01*
X-66359Y58832D01*
X-66256Y58790D01*
X-66244Y58785D01*
X-66186Y58772D01*
X-66103Y58772D01*
X-65996Y58762D01*
X-65859Y58777D01*
X-65706Y58801D01*
X-65528Y58857D01*
X-65332Y58942D01*
X-65249Y58982D01*
X-65170Y59031D01*
X-65062Y59104D01*
X-64954Y59178D01*
X-64845Y59272D01*
X-64749Y59370D01*
X-64678Y59477D01*
X-64674Y59489D01*
X-64653Y59530D01*
X-64631Y59592D01*
X-64614Y59683D01*
X-64605Y59791D01*
X-64599Y59927D01*
X-64614Y60084D01*
X-64637Y60258D01*
X-63903Y60503D01*
X-63899Y60495D01*
X-63903Y60482D01*
X-63891Y60457D01*
X-63883Y60420D01*
X-63871Y60333D01*
X-63852Y60209D01*
X-63841Y60081D01*
X-63834Y59940D01*
X-63844Y59791D01*
X-63866Y59647D01*
X-63870Y59634D01*
X-63887Y59585D01*
X-63913Y59511D01*
X-63947Y59412D01*
X-64006Y59301D01*
X-64081Y59182D01*
X-64170Y59046D01*
X-64282Y58919D01*
X-64291Y58915D01*
X-64295Y58903D01*
X-64316Y58882D01*
X-64345Y58857D01*
X-64416Y58792D01*
X-64520Y58710D01*
X-64641Y58621D01*
X-64795Y58515D01*
X-64961Y58413D01*
X-65157Y58307D01*
X-65248Y58263D01*
X-65344Y58226D01*
X-65472Y58174D01*
X-65622Y58122D01*
X-65775Y58078D01*
X-65933Y58042D01*
X-66086Y58019D01*
X-66107Y58019D01*
X-66156Y58015D01*
X-66227Y58012D01*
X-66318Y58009D01*
X-66425Y58018D01*
X-66532Y58027D01*
X-66639Y58057D01*
X-66738Y58091D01*
X-66751Y58096D01*
X-66780Y58112D01*
X-66825Y58142D01*
X-66882Y58176D01*
X-66960Y58230D01*
X-67030Y58289D01*
X-67108Y58364D01*
X-67186Y58460D01*
X-67190Y58468D01*
X-67210Y58489D01*
X-67243Y58535D01*
X-67283Y58597D01*
X-67328Y58689D01*
X-67389Y58792D01*
X-67466Y58930D01*
X-67543Y59088D01*
X-68005Y60035D01*
X-68009Y60043D01*
X-68025Y60076D01*
X-68050Y60126D01*
X-68082Y60193D01*
X-68119Y60268D01*
X-68163Y60359D01*
X-68269Y60554D01*
X-68370Y60762D01*
X-68480Y60966D01*
X-68533Y61053D01*
X-68573Y61136D01*
X-68618Y61207D01*
X-68655Y61261D01*
X-68659Y61269D01*
X-68683Y61299D01*
X-68716Y61344D01*
X-68773Y61399D01*
X-68826Y61465D01*
X-68900Y61532D01*
X-68986Y61603D01*
X-69072Y61675D01*
X-68333Y62035D01*
X-68320Y62031D01*
X-68296Y62002D01*
X-68259Y61968D01*
X-68202Y61914D01*
X-68140Y61852D01*
X-68079Y61768D01*
X-68014Y61677D01*
X-67945Y61577D01*
X-67936Y61581D01*
X-67936Y61601D01*
X-67906Y61667D01*
X-67860Y61762D01*
X-67797Y61885D01*
X-67709Y62021D01*
X-67625Y62165D01*
X-67528Y62304D01*
X-67415Y62432D01*
X-67403Y62448D01*
X-67357Y62481D01*
X-67294Y62542D01*
X-67215Y62611D01*
X-67111Y62693D01*
X-66986Y62775D01*
X-66844Y62864D01*
X-66699Y62945D01*
X-66632Y62978D01*
X-66578Y62994D01*
X-66520Y63022D01*
X-66450Y63046D01*
X-66288Y63094D01*
X-66101Y63134D01*
X-65890Y63165D01*
X-65684Y63163D01*
D02*
G37*
G36*
X-58969Y61438D02*
X-59601Y61130D01*
X-59892Y61729D01*
X-59897Y61716D01*
X-59901Y61683D01*
X-59910Y61638D01*
X-59923Y61580D01*
X-59948Y61506D01*
X-59978Y61420D01*
X-60012Y61321D01*
X-60063Y61214D01*
X-60118Y61115D01*
X-60185Y61000D01*
X-60264Y60889D01*
X-60356Y60782D01*
X-60469Y60676D01*
X-60586Y60578D01*
X-60723Y60480D01*
X-60877Y60395D01*
X-60944Y60362D01*
X-61014Y60338D01*
X-61110Y60302D01*
X-61226Y60266D01*
X-61354Y60234D01*
X-61495Y60206D01*
X-61636Y60199D01*
X-61656Y60200D01*
X-61698Y60200D01*
X-61768Y60197D01*
X-61855Y60206D01*
X-61962Y60215D01*
X-62070Y60245D01*
X-62177Y60275D01*
X-62284Y60326D01*
X-62296Y60330D01*
X-62329Y60355D01*
X-62374Y60385D01*
X-62444Y60423D01*
X-62518Y60489D01*
X-62592Y60556D01*
X-62682Y60636D01*
X-62759Y60732D01*
X-62763Y60740D01*
X-62788Y60769D01*
X-62821Y60815D01*
X-62861Y60877D01*
X-62910Y60977D01*
X-62975Y61089D01*
X-63052Y61227D01*
X-63137Y61401D01*
X-64386Y63960D01*
X-63679Y64305D01*
X-62447Y61779D01*
X-62443Y61771D01*
X-62439Y61762D01*
X-62411Y61704D01*
X-62374Y61629D01*
X-62321Y61542D01*
X-62260Y61438D01*
X-62191Y61338D01*
X-62118Y61250D01*
X-62048Y61171D01*
X-62044Y61163D01*
X-62015Y61146D01*
X-61970Y61117D01*
X-61921Y61079D01*
X-61855Y61049D01*
X-61777Y61016D01*
X-61682Y60990D01*
X-61583Y60976D01*
X-61570Y60972D01*
X-61537Y60968D01*
X-61479Y60975D01*
X-61409Y60979D01*
X-61330Y60986D01*
X-61235Y61002D01*
X-61131Y61042D01*
X-61027Y61083D01*
X-60986Y61103D01*
X-60957Y61127D01*
X-60878Y61176D01*
X-60778Y61245D01*
X-60682Y61344D01*
X-60573Y61458D01*
X-60472Y61590D01*
X-60397Y61750D01*
X-60388Y61775D01*
X-60375Y61833D01*
X-60366Y61878D01*
X-60362Y61932D01*
X-60353Y61998D01*
X-60356Y62068D01*
X-60355Y62151D01*
X-60363Y62250D01*
X-60382Y62354D01*
X-60406Y62466D01*
X-60442Y62582D01*
X-60482Y62706D01*
X-60535Y62856D01*
X-60603Y62997D01*
X-61710Y65266D01*
X-61003Y65610D01*
X-58969Y61438D01*
D02*
G37*
G36*
X-70395Y60947D02*
X-70361Y60943D01*
X-70316Y60934D01*
X-70246Y60917D01*
X-70184Y60896D01*
X-70106Y60862D01*
X-70028Y60828D01*
X-69958Y60770D01*
X-69954Y60761D01*
X-69921Y60736D01*
X-69884Y60682D01*
X-69827Y60607D01*
X-69758Y60507D01*
X-69717Y60445D01*
X-69681Y60370D01*
X-69628Y60282D01*
X-69575Y60195D01*
X-69526Y60095D01*
X-69470Y59979D01*
X-68294Y57569D01*
X-67771Y57825D01*
X-67503Y57276D01*
X-68027Y57021D01*
X-67524Y55990D01*
X-68024Y55222D01*
X-68733Y56676D01*
X-69448Y56328D01*
X-69715Y56876D01*
X-69001Y57225D01*
X-70196Y59676D01*
X-70204Y59693D01*
X-70220Y59726D01*
X-70245Y59776D01*
X-70282Y59830D01*
X-70355Y59959D01*
X-70391Y60013D01*
X-70420Y60050D01*
X-70436Y60063D01*
X-70477Y60084D01*
X-70531Y60109D01*
X-70609Y60123D01*
X-70630Y60123D01*
X-70680Y60119D01*
X-70763Y60099D01*
X-70875Y60055D01*
X-70958Y60014D01*
X-70995Y59986D01*
X-71054Y59957D01*
X-71116Y59917D01*
X-71178Y59876D01*
X-71574Y60455D01*
X-71557Y60463D01*
X-71528Y60487D01*
X-71474Y60524D01*
X-71403Y60569D01*
X-71328Y60626D01*
X-71241Y60679D01*
X-71062Y60776D01*
X-70995Y60809D01*
X-70925Y60833D01*
X-70838Y60865D01*
X-70734Y60905D01*
X-70622Y60929D01*
X-70519Y60949D01*
X-70407Y60952D01*
X-70395Y60947D01*
D02*
G37*
G36*
X-72677Y59659D02*
X-72524Y59641D01*
X-72376Y59611D01*
X-72219Y59564D01*
X-72207Y59559D01*
X-72182Y59551D01*
X-72141Y59530D01*
X-72084Y59496D01*
X-72014Y59458D01*
X-71940Y59412D01*
X-71849Y59353D01*
X-71751Y59278D01*
X-71648Y59194D01*
X-71537Y59094D01*
X-71431Y58981D01*
X-71321Y58860D01*
X-71210Y58719D01*
X-71104Y58564D01*
X-70999Y58390D01*
X-70897Y58203D01*
X-70889Y58186D01*
X-70873Y58153D01*
X-70853Y58091D01*
X-70812Y58007D01*
X-70776Y57912D01*
X-70736Y57788D01*
X-70696Y57663D01*
X-70664Y57514D01*
X-70633Y57365D01*
X-70605Y57203D01*
X-70582Y57029D01*
X-70580Y56856D01*
X-70581Y56690D01*
X-70608Y56513D01*
X-70638Y56343D01*
X-70702Y56179D01*
X-70706Y56166D01*
X-70719Y56150D01*
X-70740Y56109D01*
X-70765Y56055D01*
X-70799Y55998D01*
X-70845Y55924D01*
X-70891Y55850D01*
X-70954Y55768D01*
X-71025Y55682D01*
X-71105Y55591D01*
X-71293Y55407D01*
X-71522Y55223D01*
X-71651Y55150D01*
X-71788Y55073D01*
X-71871Y55033D01*
X-71933Y55012D01*
X-72012Y54984D01*
X-72103Y54960D01*
X-72203Y54932D01*
X-72319Y54896D01*
X-72580Y54862D01*
X-72716Y54847D01*
X-72861Y54848D01*
X-73006Y54849D01*
X-73163Y54876D01*
X-73311Y54906D01*
X-73468Y54953D01*
X-73480Y54957D01*
X-73505Y54966D01*
X-73546Y54987D01*
X-73600Y55012D01*
X-73670Y55050D01*
X-73756Y55101D01*
X-73846Y55160D01*
X-73941Y55227D01*
X-74039Y55302D01*
X-74150Y55402D01*
X-74261Y55503D01*
X-74371Y55624D01*
X-74477Y55757D01*
X-74579Y55903D01*
X-74677Y56061D01*
X-74774Y56240D01*
X-74778Y56248D01*
X-74791Y56273D01*
X-74811Y56314D01*
X-74839Y56373D01*
X-74863Y56443D01*
X-74896Y56530D01*
X-74936Y56613D01*
X-74964Y56713D01*
X-75040Y56933D01*
X-75092Y57165D01*
X-75135Y57401D01*
X-75145Y57633D01*
X-75149Y57641D01*
X-75145Y57653D01*
X-75141Y57686D01*
X-75140Y57728D01*
X-75122Y57839D01*
X-75096Y57975D01*
X-75053Y58140D01*
X-74985Y58317D01*
X-74901Y58503D01*
X-74787Y58692D01*
X-74779Y58696D01*
X-74775Y58708D01*
X-74758Y58737D01*
X-74725Y58774D01*
X-74691Y58811D01*
X-74649Y58852D01*
X-74549Y58962D01*
X-74428Y59073D01*
X-74274Y59199D01*
X-74107Y59322D01*
X-73912Y59427D01*
X-73829Y59468D01*
X-73758Y59492D01*
X-73679Y59520D01*
X-73588Y59544D01*
X-73480Y59576D01*
X-73373Y59608D01*
X-73116Y59651D01*
X-72967Y59662D01*
X-72826Y59669D01*
X-72677Y59659D01*
D02*
G37*
G36*
X-74608Y53811D02*
X-75248Y53499D01*
X-75556Y54130D01*
X-75560Y54118D01*
X-75565Y54043D01*
X-75570Y53948D01*
X-75592Y53825D01*
X-75614Y53701D01*
X-75640Y53565D01*
X-75674Y53445D01*
X-75717Y53342D01*
X-75721Y53330D01*
X-75738Y53301D01*
X-75776Y53252D01*
X-75813Y53202D01*
X-75868Y53145D01*
X-75939Y53080D01*
X-76013Y53022D01*
X-76101Y52969D01*
X-76159Y52941D01*
X-76238Y52913D01*
X-76337Y52885D01*
X-76462Y52866D01*
X-76598Y52850D01*
X-76760Y52844D01*
X-76937Y52850D01*
X-76996Y53623D01*
X-76983Y53619D01*
X-76942Y53619D01*
X-76880Y53618D01*
X-76802Y53626D01*
X-76715Y53637D01*
X-76611Y53657D01*
X-76512Y53685D01*
X-76416Y53721D01*
X-76374Y53741D01*
X-76337Y53770D01*
X-76283Y53807D01*
X-76233Y53852D01*
X-76170Y53913D01*
X-76112Y53983D01*
X-76069Y54065D01*
X-76065Y54077D01*
X-76048Y54106D01*
X-76040Y54152D01*
X-76018Y54213D01*
X-76005Y54292D01*
X-75996Y54378D01*
X-75991Y54474D01*
X-76002Y54581D01*
X-76002Y54602D01*
X-76018Y54656D01*
X-76038Y54739D01*
X-76062Y54851D01*
X-76097Y54987D01*
X-76150Y55137D01*
X-76214Y55290D01*
X-76287Y55461D01*
X-77349Y57638D01*
X-76643Y57982D01*
X-74608Y53811D01*
D02*
G37*
G36*
X-68894Y-113831D02*
X-69700Y-114224D01*
X-70093Y-113418D01*
X-69287Y-113025D01*
X-68894Y-113831D01*
D02*
G37*
G36*
X-81846Y-119376D02*
X-81734Y-119394D01*
X-81722Y-119398D01*
X-81709Y-119402D01*
X-81635Y-119428D01*
X-81524Y-119466D01*
X-81384Y-119542D01*
X-81224Y-119639D01*
X-81052Y-119760D01*
X-80875Y-119932D01*
X-80704Y-120136D01*
X-81349Y-120584D01*
X-81353Y-120576D01*
X-81357Y-120568D01*
X-81398Y-120526D01*
X-81455Y-120451D01*
X-81533Y-120376D01*
X-81623Y-120296D01*
X-81726Y-120213D01*
X-81853Y-120141D01*
X-81989Y-120094D01*
X-82010Y-120094D01*
X-82055Y-120085D01*
X-82138Y-120085D01*
X-82241Y-120084D01*
X-82370Y-120095D01*
X-82511Y-120122D01*
X-82672Y-120170D01*
X-82851Y-120247D01*
X-82934Y-120288D01*
X-83013Y-120336D01*
X-83113Y-120406D01*
X-83217Y-120487D01*
X-83326Y-120581D01*
X-83413Y-120676D01*
X-83481Y-120791D01*
X-83485Y-120803D01*
X-83506Y-120844D01*
X-83519Y-120902D01*
X-83540Y-120985D01*
X-83549Y-121071D01*
X-83551Y-121175D01*
X-83535Y-121270D01*
X-83495Y-121374D01*
X-83490Y-121382D01*
X-83474Y-121415D01*
X-83446Y-121453D01*
X-83401Y-121503D01*
X-83348Y-121549D01*
X-83278Y-121587D01*
X-83195Y-121629D01*
X-83096Y-121642D01*
X-83084Y-121646D01*
X-83055Y-121643D01*
X-83001Y-121647D01*
X-82922Y-121640D01*
X-82807Y-121624D01*
X-82736Y-121621D01*
X-82662Y-121605D01*
X-82575Y-121594D01*
X-82479Y-121578D01*
X-82376Y-121558D01*
X-82256Y-121531D01*
X-82247Y-121527D01*
X-82218Y-121523D01*
X-82173Y-121511D01*
X-82115Y-121503D01*
X-82040Y-121487D01*
X-81953Y-121476D01*
X-81775Y-121440D01*
X-81564Y-121409D01*
X-81365Y-121374D01*
X-81171Y-121351D01*
X-81080Y-121348D01*
X-81009Y-121344D01*
X-80989Y-121345D01*
X-80947Y-121345D01*
X-80881Y-121354D01*
X-80794Y-121363D01*
X-80691Y-121385D01*
X-80584Y-121415D01*
X-80473Y-121453D01*
X-80362Y-121512D01*
X-80349Y-121516D01*
X-80316Y-121542D01*
X-80263Y-121587D01*
X-80206Y-121642D01*
X-80140Y-121713D01*
X-80067Y-121800D01*
X-80001Y-121892D01*
X-79936Y-122004D01*
X-79928Y-122021D01*
X-79912Y-122054D01*
X-79896Y-122108D01*
X-79868Y-122187D01*
X-79848Y-122270D01*
X-79820Y-122369D01*
X-79813Y-122469D01*
X-79810Y-122580D01*
X-79814Y-122593D01*
X-79815Y-122634D01*
X-79819Y-122688D01*
X-79832Y-122766D01*
X-79854Y-122849D01*
X-79875Y-122952D01*
X-79910Y-123051D01*
X-79964Y-123149D01*
X-79969Y-123162D01*
X-79990Y-123182D01*
X-80010Y-123223D01*
X-80048Y-123272D01*
X-80098Y-123338D01*
X-80157Y-123408D01*
X-80232Y-123486D01*
X-80316Y-123568D01*
X-80328Y-123584D01*
X-80358Y-123609D01*
X-80408Y-123653D01*
X-80474Y-123707D01*
X-80558Y-123768D01*
X-80653Y-123825D01*
X-80761Y-123898D01*
X-80961Y-123995D01*
X-81056Y-124032D01*
X-81185Y-124084D01*
X-81326Y-124132D01*
X-81484Y-124168D01*
X-81649Y-124208D01*
X-81815Y-124227D01*
X-81823Y-124231D01*
X-81836Y-124227D01*
X-81885Y-124230D01*
X-81968Y-124229D01*
X-82071Y-124228D01*
X-82191Y-124215D01*
X-82315Y-124193D01*
X-82435Y-124159D01*
X-82550Y-124112D01*
X-82562Y-124108D01*
X-82595Y-124083D01*
X-82657Y-124041D01*
X-82731Y-123995D01*
X-82821Y-123915D01*
X-82915Y-123827D01*
X-83009Y-123719D01*
X-83111Y-123594D01*
X-82466Y-123166D01*
X-82458Y-123183D01*
X-82434Y-123212D01*
X-82388Y-123262D01*
X-82327Y-123324D01*
X-82249Y-123379D01*
X-82159Y-123438D01*
X-82060Y-123492D01*
X-81940Y-123527D01*
X-81928Y-123531D01*
X-81887Y-123532D01*
X-81821Y-123540D01*
X-81730Y-123537D01*
X-81630Y-123530D01*
X-81506Y-123510D01*
X-81365Y-123462D01*
X-81220Y-123402D01*
X-81137Y-123361D01*
X-81058Y-123312D01*
X-80954Y-123251D01*
X-80858Y-123174D01*
X-80753Y-123092D01*
X-80666Y-122998D01*
X-80603Y-122895D01*
X-80598Y-122883D01*
X-80582Y-122854D01*
X-80565Y-122804D01*
X-80556Y-122738D01*
X-80539Y-122668D01*
X-80538Y-122585D01*
X-80549Y-122499D01*
X-80577Y-122420D01*
X-80581Y-122411D01*
X-80590Y-122395D01*
X-80610Y-122374D01*
X-80626Y-122341D01*
X-80692Y-122270D01*
X-80782Y-122211D01*
X-80794Y-122207D01*
X-80807Y-122202D01*
X-80836Y-122186D01*
X-80881Y-122177D01*
X-80926Y-122168D01*
X-80992Y-122159D01*
X-81063Y-122163D01*
X-81145Y-122162D01*
X-81154Y-122166D01*
X-81174Y-122166D01*
X-81212Y-122174D01*
X-81282Y-122177D01*
X-81377Y-122193D01*
X-81497Y-122220D01*
X-81576Y-122228D01*
X-81659Y-122248D01*
X-81754Y-122263D01*
X-81858Y-122283D01*
X-81866Y-122287D01*
X-81895Y-122291D01*
X-81941Y-122303D01*
X-81999Y-122311D01*
X-82065Y-122322D01*
X-82148Y-122342D01*
X-82330Y-122369D01*
X-82529Y-122405D01*
X-82732Y-122431D01*
X-82918Y-122450D01*
X-82997Y-122458D01*
X-83067Y-122461D01*
X-83088Y-122461D01*
X-83129Y-122461D01*
X-83191Y-122460D01*
X-83286Y-122455D01*
X-83385Y-122442D01*
X-83492Y-122412D01*
X-83604Y-122373D01*
X-83711Y-122323D01*
X-83723Y-122318D01*
X-83756Y-122293D01*
X-83813Y-122260D01*
X-83883Y-122201D01*
X-83953Y-122122D01*
X-84035Y-122038D01*
X-84108Y-121930D01*
X-84181Y-121801D01*
X-84189Y-121784D01*
X-84209Y-121743D01*
X-84234Y-121672D01*
X-84262Y-121573D01*
X-84285Y-121461D01*
X-84296Y-121333D01*
X-84307Y-121184D01*
X-84298Y-121035D01*
X-84297Y-121014D01*
X-84280Y-120965D01*
X-84267Y-120886D01*
X-84233Y-120787D01*
X-84178Y-120668D01*
X-84119Y-120536D01*
X-84039Y-120405D01*
X-83934Y-120261D01*
X-83926Y-120257D01*
X-83922Y-120245D01*
X-83880Y-120204D01*
X-83809Y-120138D01*
X-83717Y-120052D01*
X-83601Y-119954D01*
X-83463Y-119857D01*
X-83313Y-119763D01*
X-83135Y-119665D01*
X-83060Y-119629D01*
X-82998Y-119609D01*
X-82931Y-119576D01*
X-82844Y-119544D01*
X-82757Y-119512D01*
X-82657Y-119484D01*
X-82437Y-119428D01*
X-82201Y-119385D01*
X-81961Y-119371D01*
X-81846Y-119376D01*
D02*
G37*
G36*
X-68610Y-119813D02*
X-70820Y-120891D01*
X-70974Y-120955D01*
X-71144Y-121028D01*
X-71318Y-121093D01*
X-71497Y-121149D01*
X-71650Y-121193D01*
X-71659Y-121197D01*
X-71679Y-121197D01*
X-71704Y-121209D01*
X-71746Y-121208D01*
X-71849Y-121228D01*
X-71986Y-121243D01*
X-72147Y-121250D01*
X-72325Y-121244D01*
X-72507Y-121230D01*
X-72692Y-121187D01*
X-72705Y-121182D01*
X-72717Y-121178D01*
X-72754Y-121165D01*
X-72799Y-121157D01*
X-72923Y-121114D01*
X-73080Y-121046D01*
X-73257Y-120958D01*
X-73454Y-120848D01*
X-73655Y-120710D01*
X-73852Y-120538D01*
X-73856Y-120530D01*
X-73872Y-120518D01*
X-73905Y-120492D01*
X-73938Y-120447D01*
X-73991Y-120401D01*
X-74040Y-120342D01*
X-74093Y-120276D01*
X-74163Y-120196D01*
X-74232Y-120117D01*
X-74302Y-120017D01*
X-74457Y-119805D01*
X-74607Y-119559D01*
X-74753Y-119281D01*
X-74757Y-119272D01*
X-74766Y-119256D01*
X-74786Y-119214D01*
X-74806Y-119173D01*
X-74826Y-119110D01*
X-74858Y-119044D01*
X-74927Y-118882D01*
X-74991Y-118687D01*
X-75060Y-118484D01*
X-75115Y-118264D01*
X-75163Y-118040D01*
X-75167Y-118032D01*
X-75167Y-118011D01*
X-75171Y-117982D01*
X-75178Y-117945D01*
X-75190Y-117837D01*
X-75197Y-117697D01*
X-75212Y-117540D01*
X-75210Y-117374D01*
X-75196Y-117192D01*
X-75178Y-117019D01*
X-75177Y-116998D01*
X-75164Y-116940D01*
X-75143Y-116858D01*
X-75113Y-116751D01*
X-75079Y-116631D01*
X-75028Y-116503D01*
X-74981Y-116368D01*
X-74909Y-116240D01*
X-74897Y-116224D01*
X-74876Y-116182D01*
X-74834Y-116121D01*
X-74771Y-116039D01*
X-74696Y-115940D01*
X-74599Y-115842D01*
X-74491Y-115727D01*
X-74362Y-115613D01*
X-74345Y-115605D01*
X-74324Y-115584D01*
X-74303Y-115564D01*
X-74224Y-115515D01*
X-74116Y-115442D01*
X-73991Y-115360D01*
X-73841Y-115267D01*
X-73671Y-115173D01*
X-73484Y-115071D01*
X-71415Y-114062D01*
X-68610Y-119813D01*
D02*
G37*
G36*
X-88367Y-120664D02*
X-88355Y-120668D01*
X-88342Y-120673D01*
X-88260Y-120694D01*
X-88157Y-120736D01*
X-88021Y-120804D01*
X-87869Y-120905D01*
X-87709Y-121043D01*
X-87635Y-121130D01*
X-87566Y-121230D01*
X-87497Y-121330D01*
X-87436Y-121455D01*
X-88170Y-121700D01*
X-88178Y-121683D01*
X-88203Y-121654D01*
X-88248Y-121604D01*
X-88301Y-121537D01*
X-88371Y-121479D01*
X-88449Y-121424D01*
X-88535Y-121374D01*
X-88630Y-121348D01*
X-88651Y-121348D01*
X-88696Y-121339D01*
X-88770Y-121334D01*
X-88870Y-121341D01*
X-88990Y-121348D01*
X-89131Y-121376D01*
X-89292Y-121424D01*
X-89454Y-121493D01*
X-89537Y-121533D01*
X-89616Y-121582D01*
X-89725Y-121656D01*
X-89829Y-121737D01*
X-89937Y-121831D01*
X-90038Y-121942D01*
X-90113Y-122061D01*
X-90117Y-122073D01*
X-90139Y-122114D01*
X-90164Y-122189D01*
X-90194Y-122275D01*
X-90211Y-122387D01*
X-90225Y-122507D01*
X-90231Y-122643D01*
X-90211Y-122788D01*
X-90207Y-122796D01*
X-90199Y-122833D01*
X-90175Y-122904D01*
X-90143Y-122991D01*
X-90123Y-123053D01*
X-90091Y-123120D01*
X-90062Y-123199D01*
X-90022Y-123282D01*
X-89977Y-123373D01*
X-89933Y-123485D01*
X-89880Y-123593D01*
X-89819Y-123718D01*
X-89815Y-123706D01*
X-89807Y-123681D01*
X-89794Y-123644D01*
X-89777Y-123594D01*
X-89755Y-123532D01*
X-89722Y-123454D01*
X-89679Y-123372D01*
X-89637Y-123290D01*
X-89511Y-123105D01*
X-89365Y-122920D01*
X-89273Y-122834D01*
X-89169Y-122753D01*
X-89052Y-122675D01*
X-88932Y-122606D01*
X-88890Y-122586D01*
X-88845Y-122574D01*
X-88786Y-122545D01*
X-88708Y-122517D01*
X-88617Y-122493D01*
X-88517Y-122465D01*
X-88405Y-122442D01*
X-88281Y-122422D01*
X-88153Y-122411D01*
X-88020Y-122408D01*
X-87875Y-122410D01*
X-87731Y-122432D01*
X-87582Y-122462D01*
X-87438Y-122505D01*
X-87294Y-122568D01*
X-87282Y-122573D01*
X-87265Y-122585D01*
X-87220Y-122615D01*
X-87167Y-122640D01*
X-87101Y-122690D01*
X-87027Y-122737D01*
X-86945Y-122799D01*
X-86855Y-122879D01*
X-86764Y-122958D01*
X-86666Y-123054D01*
X-86568Y-123150D01*
X-86470Y-123267D01*
X-86274Y-123521D01*
X-86188Y-123675D01*
X-86103Y-123829D01*
X-86099Y-123837D01*
X-86091Y-123854D01*
X-86075Y-123887D01*
X-86054Y-123929D01*
X-86034Y-123991D01*
X-86006Y-124049D01*
X-85950Y-124207D01*
X-85894Y-124385D01*
X-85846Y-124588D01*
X-85803Y-124804D01*
X-85784Y-125031D01*
X-85780Y-125040D01*
X-85780Y-125060D01*
X-85785Y-125093D01*
X-85785Y-125135D01*
X-85791Y-125250D01*
X-85800Y-125399D01*
X-85831Y-125568D01*
X-85878Y-125746D01*
X-85938Y-125939D01*
X-86026Y-126116D01*
X-86035Y-126120D01*
X-86039Y-126133D01*
X-86056Y-126161D01*
X-86081Y-126194D01*
X-86140Y-126285D01*
X-86232Y-126391D01*
X-86349Y-126510D01*
X-86491Y-126641D01*
X-86657Y-126763D01*
X-86853Y-126869D01*
X-86927Y-126905D01*
X-86981Y-126922D01*
X-87044Y-126942D01*
X-87126Y-126961D01*
X-87218Y-126985D01*
X-87321Y-127005D01*
X-87429Y-127016D01*
X-87549Y-127023D01*
X-87673Y-127022D01*
X-87809Y-127017D01*
X-87941Y-126999D01*
X-88082Y-126964D01*
X-88226Y-126922D01*
X-88370Y-126858D01*
X-88119Y-127373D01*
X-88767Y-127690D01*
X-90526Y-124083D01*
X-90530Y-124075D01*
X-90546Y-124042D01*
X-90570Y-123992D01*
X-90603Y-123925D01*
X-90631Y-123846D01*
X-90676Y-123755D01*
X-90716Y-123651D01*
X-90760Y-123539D01*
X-90845Y-123302D01*
X-90925Y-123054D01*
X-90953Y-122933D01*
X-90977Y-122822D01*
X-90988Y-122714D01*
X-90995Y-122615D01*
X-90999Y-122606D01*
X-90995Y-122594D01*
X-90986Y-122528D01*
X-90981Y-122433D01*
X-90959Y-122309D01*
X-90916Y-122165D01*
X-90861Y-122004D01*
X-90781Y-121831D01*
X-90676Y-121667D01*
X-90667Y-121663D01*
X-90663Y-121650D01*
X-90646Y-121622D01*
X-90617Y-121597D01*
X-90588Y-121552D01*
X-90546Y-121511D01*
X-90442Y-121409D01*
X-90316Y-121286D01*
X-90150Y-121163D01*
X-89958Y-121029D01*
X-89738Y-120911D01*
X-89663Y-120875D01*
X-89609Y-120858D01*
X-89543Y-120826D01*
X-89472Y-120802D01*
X-89385Y-120770D01*
X-89286Y-120742D01*
X-89074Y-120690D01*
X-88846Y-120651D01*
X-88606Y-120637D01*
X-88367Y-120664D01*
D02*
G37*
G36*
X-77645Y-117358D02*
X-77493Y-117376D01*
X-77344Y-117407D01*
X-77187Y-117454D01*
X-77175Y-117458D01*
X-77150Y-117467D01*
X-77109Y-117488D01*
X-77052Y-117521D01*
X-76982Y-117559D01*
X-76908Y-117606D01*
X-76817Y-117664D01*
X-76723Y-117731D01*
X-76620Y-117815D01*
X-76514Y-117907D01*
X-76407Y-118020D01*
X-76297Y-118141D01*
X-76191Y-118274D01*
X-76085Y-118428D01*
X-75983Y-118595D01*
X-75885Y-118773D01*
X-75881Y-118782D01*
X-75861Y-118823D01*
X-75837Y-118873D01*
X-75809Y-118952D01*
X-75772Y-119047D01*
X-75732Y-119151D01*
X-75692Y-119276D01*
X-75660Y-119404D01*
X-75597Y-119703D01*
X-75574Y-119856D01*
X-75554Y-120021D01*
X-75556Y-120187D01*
X-75570Y-120348D01*
X-75592Y-120513D01*
X-75627Y-120674D01*
X-75631Y-120686D01*
X-75640Y-120711D01*
X-75661Y-120752D01*
X-75682Y-120814D01*
X-75712Y-120880D01*
X-75754Y-120962D01*
X-75800Y-121057D01*
X-75868Y-121151D01*
X-75931Y-121254D01*
X-76014Y-121356D01*
X-76106Y-121463D01*
X-76211Y-121565D01*
X-76323Y-121672D01*
X-76452Y-121766D01*
X-76594Y-121855D01*
X-76748Y-121941D01*
X-76831Y-121981D01*
X-76893Y-122001D01*
X-76964Y-122025D01*
X-77055Y-122049D01*
X-77154Y-122077D01*
X-77275Y-122105D01*
X-77386Y-122129D01*
X-77523Y-122144D01*
X-77651Y-122155D01*
X-77796Y-122154D01*
X-77945Y-122144D01*
X-78098Y-122126D01*
X-78250Y-122087D01*
X-78399Y-122036D01*
X-78411Y-122032D01*
X-78436Y-122023D01*
X-78477Y-122002D01*
X-78534Y-121968D01*
X-78604Y-121931D01*
X-78678Y-121884D01*
X-78769Y-121826D01*
X-78867Y-121750D01*
X-78970Y-121666D01*
X-79076Y-121574D01*
X-79183Y-121462D01*
X-79293Y-121341D01*
X-79403Y-121199D01*
X-79509Y-121045D01*
X-79611Y-120879D01*
X-79713Y-120691D01*
X-79717Y-120683D01*
X-79733Y-120650D01*
X-79761Y-120592D01*
X-79794Y-120505D01*
X-76677Y-118985D01*
X-76681Y-118976D01*
X-76694Y-118952D01*
X-76718Y-118922D01*
X-76742Y-118872D01*
X-76779Y-118818D01*
X-76828Y-118760D01*
X-76926Y-118623D01*
X-77057Y-118481D01*
X-77213Y-118330D01*
X-77385Y-118209D01*
X-77574Y-118116D01*
X-77583Y-118120D01*
X-77599Y-118107D01*
X-77669Y-118090D01*
X-77772Y-118068D01*
X-77900Y-118059D01*
X-78066Y-118057D01*
X-78244Y-118072D01*
X-78430Y-118111D01*
X-78526Y-118148D01*
X-78629Y-118188D01*
X-78696Y-118221D01*
X-78767Y-118265D01*
X-78850Y-118327D01*
X-78938Y-118400D01*
X-79038Y-118490D01*
X-79121Y-118593D01*
X-79197Y-118712D01*
X-79201Y-118724D01*
X-79226Y-118778D01*
X-79252Y-118852D01*
X-79278Y-118947D01*
X-79300Y-119071D01*
X-79318Y-119223D01*
X-79328Y-119393D01*
X-79317Y-119583D01*
X-80093Y-119848D01*
X-80097Y-119840D01*
X-80097Y-119819D01*
X-80105Y-119782D01*
X-80112Y-119724D01*
X-80112Y-119662D01*
X-80119Y-119584D01*
X-80122Y-119410D01*
X-80116Y-119211D01*
X-80080Y-118988D01*
X-80024Y-118766D01*
X-79931Y-118535D01*
X-79923Y-118531D01*
X-79914Y-118506D01*
X-79898Y-118477D01*
X-79876Y-118436D01*
X-79839Y-118387D01*
X-79801Y-118338D01*
X-79751Y-118272D01*
X-79692Y-118202D01*
X-79625Y-118129D01*
X-79559Y-118055D01*
X-79375Y-117904D01*
X-79163Y-117749D01*
X-78913Y-117606D01*
X-78822Y-117562D01*
X-78759Y-117542D01*
X-78681Y-117514D01*
X-78581Y-117486D01*
X-78473Y-117454D01*
X-78357Y-117418D01*
X-78092Y-117371D01*
X-77943Y-117360D01*
X-77803Y-117353D01*
X-77645Y-117358D01*
D02*
G37*
G36*
X-83582Y-125161D02*
X-84288Y-125505D01*
X-86322Y-121333D01*
X-85616Y-120989D01*
X-83582Y-125161D01*
D02*
G37*
G36*
X-82811Y-126739D02*
X-83518Y-127084D01*
X-83911Y-126278D01*
X-83205Y-125933D01*
X-82811Y-126739D01*
D02*
G37*
G36*
X-96554Y-126488D02*
X-96351Y-126523D01*
X-96327Y-126532D01*
X-96265Y-126553D01*
X-96170Y-126599D01*
X-96055Y-126667D01*
X-95928Y-126759D01*
X-95801Y-126872D01*
X-95674Y-127026D01*
X-95625Y-127105D01*
X-95568Y-127201D01*
X-95560Y-127217D01*
X-95544Y-127250D01*
X-95524Y-127313D01*
X-95496Y-127392D01*
X-95468Y-127491D01*
X-95448Y-127595D01*
X-95433Y-127711D01*
X-95430Y-127822D01*
X-95434Y-127835D01*
X-95434Y-127876D01*
X-95443Y-127942D01*
X-95456Y-128020D01*
X-95474Y-128111D01*
X-95508Y-128210D01*
X-95542Y-128309D01*
X-95597Y-128408D01*
X-95601Y-128420D01*
X-95626Y-128453D01*
X-95651Y-128506D01*
X-95702Y-128572D01*
X-95760Y-128642D01*
X-95831Y-128728D01*
X-95907Y-128806D01*
X-95998Y-128892D01*
X-96007Y-128896D01*
X-96036Y-128920D01*
X-96078Y-128961D01*
X-96140Y-129002D01*
X-96215Y-129059D01*
X-96315Y-129129D01*
X-96427Y-129214D01*
X-96569Y-129304D01*
X-96577Y-129308D01*
X-96607Y-129332D01*
X-96648Y-129353D01*
X-96702Y-129389D01*
X-96765Y-129430D01*
X-96840Y-129487D01*
X-96927Y-129540D01*
X-97018Y-129605D01*
X-97198Y-129744D01*
X-97394Y-129891D01*
X-97560Y-130034D01*
X-97640Y-130104D01*
X-97711Y-130169D01*
X-97706Y-130177D01*
X-97698Y-130194D01*
X-97682Y-130248D01*
X-97654Y-130306D01*
X-97638Y-130339D01*
X-97630Y-130356D01*
X-97626Y-130364D01*
X-97621Y-130373D01*
X-97597Y-130422D01*
X-97548Y-130501D01*
X-97487Y-130585D01*
X-97414Y-130672D01*
X-97323Y-130752D01*
X-97229Y-130819D01*
X-97126Y-130861D01*
X-97114Y-130865D01*
X-97056Y-130878D01*
X-96973Y-130879D01*
X-96866Y-130889D01*
X-96729Y-130873D01*
X-96576Y-130850D01*
X-96398Y-130794D01*
X-96202Y-130709D01*
X-96119Y-130669D01*
X-96040Y-130620D01*
X-95932Y-130546D01*
X-95824Y-130473D01*
X-95715Y-130379D01*
X-95619Y-130281D01*
X-95548Y-130174D01*
X-95544Y-130162D01*
X-95523Y-130120D01*
X-95501Y-130059D01*
X-95484Y-129968D01*
X-95475Y-129860D01*
X-95469Y-129724D01*
X-95484Y-129567D01*
X-95507Y-129393D01*
X-94773Y-129148D01*
X-94769Y-129156D01*
X-94773Y-129169D01*
X-94761Y-129193D01*
X-94753Y-129231D01*
X-94741Y-129318D01*
X-94722Y-129442D01*
X-94711Y-129570D01*
X-94704Y-129711D01*
X-94714Y-129860D01*
X-94736Y-130004D01*
X-94740Y-130016D01*
X-94757Y-130066D01*
X-94783Y-130140D01*
X-94817Y-130239D01*
X-94876Y-130350D01*
X-94951Y-130469D01*
X-95040Y-130605D01*
X-95152Y-130732D01*
X-95161Y-130736D01*
X-95165Y-130748D01*
X-95186Y-130769D01*
X-95215Y-130793D01*
X-95286Y-130859D01*
X-95390Y-130941D01*
X-95511Y-131030D01*
X-95665Y-131136D01*
X-95831Y-131238D01*
X-96027Y-131343D01*
X-96118Y-131388D01*
X-96214Y-131424D01*
X-96342Y-131477D01*
X-96492Y-131529D01*
X-96645Y-131573D01*
X-96803Y-131609D01*
X-96956Y-131632D01*
X-96976Y-131632D01*
X-97026Y-131636D01*
X-97097Y-131639D01*
X-97188Y-131642D01*
X-97295Y-131633D01*
X-97402Y-131623D01*
X-97509Y-131594D01*
X-97608Y-131559D01*
X-97621Y-131555D01*
X-97650Y-131538D01*
X-97695Y-131509D01*
X-97752Y-131475D01*
X-97830Y-131421D01*
X-97900Y-131362D01*
X-97978Y-131287D01*
X-98055Y-131191D01*
X-98060Y-131183D01*
X-98080Y-131162D01*
X-98113Y-131116D01*
X-98153Y-131054D01*
X-98198Y-130962D01*
X-98259Y-130858D01*
X-98336Y-130721D01*
X-98413Y-130563D01*
X-98875Y-129616D01*
X-98879Y-129608D01*
X-98896Y-129574D01*
X-98920Y-129525D01*
X-98952Y-129458D01*
X-98989Y-129383D01*
X-99033Y-129292D01*
X-99139Y-129096D01*
X-99240Y-128889D01*
X-99350Y-128685D01*
X-99403Y-128598D01*
X-99443Y-128515D01*
X-99488Y-128444D01*
X-99525Y-128390D01*
X-99529Y-128382D01*
X-99553Y-128352D01*
X-99586Y-128306D01*
X-99643Y-128252D01*
X-99696Y-128185D01*
X-99770Y-128119D01*
X-99856Y-128047D01*
X-99942Y-127976D01*
X-99203Y-127615D01*
X-99191Y-127620D01*
X-99166Y-127649D01*
X-99129Y-127682D01*
X-99072Y-127737D01*
X-99010Y-127799D01*
X-98949Y-127883D01*
X-98884Y-127974D01*
X-98815Y-128074D01*
X-98806Y-128070D01*
X-98806Y-128049D01*
X-98776Y-127984D01*
X-98730Y-127889D01*
X-98667Y-127766D01*
X-98579Y-127630D01*
X-98495Y-127486D01*
X-98398Y-127346D01*
X-98285Y-127219D01*
X-98272Y-127203D01*
X-98227Y-127170D01*
X-98164Y-127109D01*
X-98085Y-127039D01*
X-97981Y-126958D01*
X-97856Y-126876D01*
X-97714Y-126787D01*
X-97569Y-126705D01*
X-97502Y-126673D01*
X-97448Y-126657D01*
X-97390Y-126629D01*
X-97320Y-126604D01*
X-97158Y-126557D01*
X-96972Y-126517D01*
X-96760Y-126486D01*
X-96554Y-126488D01*
D02*
G37*
G36*
X-89839Y-128212D02*
X-90471Y-128520D01*
X-90762Y-127922D01*
X-90766Y-127934D01*
X-90771Y-127968D01*
X-90780Y-128013D01*
X-90793Y-128071D01*
X-90818Y-128145D01*
X-90848Y-128231D01*
X-90882Y-128330D01*
X-90933Y-128437D01*
X-90988Y-128536D01*
X-91055Y-128651D01*
X-91134Y-128762D01*
X-91227Y-128869D01*
X-91339Y-128975D01*
X-91456Y-129073D01*
X-91593Y-129171D01*
X-91747Y-129256D01*
X-91814Y-129289D01*
X-91884Y-129313D01*
X-91980Y-129349D01*
X-92096Y-129385D01*
X-92224Y-129417D01*
X-92365Y-129445D01*
X-92506Y-129451D01*
X-92527Y-129451D01*
X-92568Y-129451D01*
X-92638Y-129454D01*
X-92725Y-129445D01*
X-92832Y-129436D01*
X-92940Y-129406D01*
X-93047Y-129376D01*
X-93154Y-129325D01*
X-93166Y-129321D01*
X-93199Y-129296D01*
X-93244Y-129266D01*
X-93314Y-129228D01*
X-93388Y-129162D01*
X-93462Y-129095D01*
X-93552Y-129015D01*
X-93629Y-128919D01*
X-93633Y-128911D01*
X-93658Y-128882D01*
X-93691Y-128836D01*
X-93731Y-128774D01*
X-93780Y-128674D01*
X-93845Y-128561D01*
X-93922Y-128424D01*
X-94007Y-128250D01*
X-95256Y-125690D01*
X-94549Y-125346D01*
X-93317Y-127872D01*
X-93313Y-127880D01*
X-93309Y-127889D01*
X-93281Y-127947D01*
X-93244Y-128022D01*
X-93191Y-128109D01*
X-93130Y-128213D01*
X-93061Y-128313D01*
X-92987Y-128400D01*
X-92918Y-128480D01*
X-92914Y-128488D01*
X-92885Y-128505D01*
X-92840Y-128534D01*
X-92791Y-128572D01*
X-92725Y-128602D01*
X-92647Y-128635D01*
X-92552Y-128661D01*
X-92453Y-128674D01*
X-92440Y-128679D01*
X-92407Y-128683D01*
X-92349Y-128675D01*
X-92279Y-128672D01*
X-92200Y-128665D01*
X-92105Y-128649D01*
X-92001Y-128609D01*
X-91897Y-128568D01*
X-91856Y-128548D01*
X-91827Y-128524D01*
X-91748Y-128475D01*
X-91648Y-128405D01*
X-91552Y-128307D01*
X-91443Y-128192D01*
X-91342Y-128061D01*
X-91266Y-127901D01*
X-91258Y-127876D01*
X-91245Y-127818D01*
X-91236Y-127773D01*
X-91232Y-127719D01*
X-91223Y-127653D01*
X-91226Y-127583D01*
X-91225Y-127500D01*
X-91233Y-127401D01*
X-91252Y-127297D01*
X-91276Y-127185D01*
X-91312Y-127069D01*
X-91352Y-126945D01*
X-91404Y-126795D01*
X-91473Y-126654D01*
X-92580Y-124385D01*
X-91874Y-124041D01*
X-89839Y-128212D01*
D02*
G37*
G36*
X-101264Y-128703D02*
X-101231Y-128708D01*
X-101186Y-128717D01*
X-101116Y-128734D01*
X-101054Y-128755D01*
X-100976Y-128789D01*
X-100898Y-128823D01*
X-100828Y-128881D01*
X-100824Y-128890D01*
X-100791Y-128915D01*
X-100754Y-128969D01*
X-100697Y-129044D01*
X-100628Y-129144D01*
X-100587Y-129206D01*
X-100551Y-129281D01*
X-100498Y-129368D01*
X-100445Y-129456D01*
X-100396Y-129556D01*
X-100340Y-129672D01*
X-99164Y-132082D01*
X-98641Y-131826D01*
X-98373Y-132375D01*
X-98897Y-132630D01*
X-98394Y-133661D01*
X-98894Y-134429D01*
X-99603Y-132975D01*
X-100318Y-133323D01*
X-100585Y-132775D01*
X-99871Y-132426D01*
X-101066Y-129975D01*
X-101074Y-129958D01*
X-101090Y-129925D01*
X-101115Y-129875D01*
X-101152Y-129821D01*
X-101225Y-129692D01*
X-101261Y-129638D01*
X-101290Y-129600D01*
X-101306Y-129588D01*
X-101347Y-129567D01*
X-101401Y-129541D01*
X-101479Y-129528D01*
X-101500Y-129528D01*
X-101550Y-129532D01*
X-101633Y-129552D01*
X-101745Y-129596D01*
X-101828Y-129636D01*
X-101865Y-129665D01*
X-101924Y-129693D01*
X-101986Y-129734D01*
X-102048Y-129775D01*
X-102444Y-129196D01*
X-102427Y-129188D01*
X-102398Y-129164D01*
X-102344Y-129127D01*
X-102273Y-129082D01*
X-102198Y-129025D01*
X-102111Y-128972D01*
X-101932Y-128875D01*
X-101866Y-128842D01*
X-101795Y-128818D01*
X-101708Y-128786D01*
X-101604Y-128745D01*
X-101492Y-128722D01*
X-101389Y-128702D01*
X-101277Y-128699D01*
X-101264Y-128703D01*
D02*
G37*
G36*
X-103547Y-129992D02*
X-103394Y-130010D01*
X-103246Y-130040D01*
X-103089Y-130087D01*
X-103077Y-130091D01*
X-103052Y-130100D01*
X-103011Y-130121D01*
X-102954Y-130155D01*
X-102884Y-130193D01*
X-102810Y-130239D01*
X-102719Y-130298D01*
X-102621Y-130373D01*
X-102518Y-130457D01*
X-102408Y-130557D01*
X-102301Y-130670D01*
X-102191Y-130791D01*
X-102080Y-130932D01*
X-101974Y-131086D01*
X-101869Y-131261D01*
X-101767Y-131448D01*
X-101759Y-131465D01*
X-101743Y-131498D01*
X-101723Y-131560D01*
X-101682Y-131643D01*
X-101646Y-131739D01*
X-101606Y-131863D01*
X-101566Y-131988D01*
X-101534Y-132137D01*
X-101503Y-132286D01*
X-101475Y-132448D01*
X-101452Y-132621D01*
X-101450Y-132795D01*
X-101451Y-132961D01*
X-101478Y-133138D01*
X-101508Y-133307D01*
X-101572Y-133472D01*
X-101576Y-133484D01*
X-101589Y-133501D01*
X-101610Y-133542D01*
X-101635Y-133596D01*
X-101669Y-133653D01*
X-101715Y-133727D01*
X-101761Y-133801D01*
X-101824Y-133883D01*
X-101895Y-133969D01*
X-101975Y-134059D01*
X-102163Y-134244D01*
X-102392Y-134427D01*
X-102521Y-134501D01*
X-102658Y-134578D01*
X-102741Y-134618D01*
X-102803Y-134638D01*
X-102882Y-134667D01*
X-102973Y-134691D01*
X-103073Y-134719D01*
X-103189Y-134754D01*
X-103450Y-134789D01*
X-103587Y-134804D01*
X-103731Y-134803D01*
X-103876Y-134802D01*
X-104033Y-134775D01*
X-104181Y-134745D01*
X-104338Y-134698D01*
X-104350Y-134693D01*
X-104375Y-134685D01*
X-104416Y-134664D01*
X-104470Y-134639D01*
X-104540Y-134601D01*
X-104626Y-134550D01*
X-104716Y-134491D01*
X-104811Y-134424D01*
X-104909Y-134349D01*
X-105020Y-134249D01*
X-105131Y-134148D01*
X-105241Y-134027D01*
X-105347Y-133894D01*
X-105449Y-133748D01*
X-105547Y-133590D01*
X-105644Y-133411D01*
X-105648Y-133403D01*
X-105661Y-133378D01*
X-105681Y-133336D01*
X-105709Y-133278D01*
X-105733Y-133208D01*
X-105766Y-133121D01*
X-105806Y-133038D01*
X-105834Y-132938D01*
X-105911Y-132718D01*
X-105962Y-132486D01*
X-106005Y-132250D01*
X-106015Y-132018D01*
X-106019Y-132010D01*
X-106015Y-131998D01*
X-106011Y-131965D01*
X-106010Y-131923D01*
X-105992Y-131812D01*
X-105966Y-131676D01*
X-105923Y-131511D01*
X-105855Y-131333D01*
X-105771Y-131148D01*
X-105657Y-130959D01*
X-105649Y-130955D01*
X-105645Y-130943D01*
X-105628Y-130914D01*
X-105595Y-130877D01*
X-105561Y-130840D01*
X-105519Y-130799D01*
X-105419Y-130688D01*
X-105298Y-130578D01*
X-105144Y-130451D01*
X-104977Y-130329D01*
X-104782Y-130223D01*
X-104699Y-130183D01*
X-104628Y-130159D01*
X-104549Y-130131D01*
X-104458Y-130107D01*
X-104350Y-130075D01*
X-104242Y-130043D01*
X-103986Y-130000D01*
X-103837Y-129989D01*
X-103696Y-129982D01*
X-103547Y-129992D01*
D02*
G37*
G36*
X-105478Y-135840D02*
X-106118Y-136152D01*
X-106426Y-135521D01*
X-106430Y-135533D01*
X-106435Y-135607D01*
X-106440Y-135702D01*
X-106462Y-135826D01*
X-106484Y-135950D01*
X-106510Y-136086D01*
X-106544Y-136206D01*
X-106587Y-136309D01*
X-106591Y-136321D01*
X-106608Y-136350D01*
X-106646Y-136399D01*
X-106683Y-136448D01*
X-106738Y-136506D01*
X-106809Y-136571D01*
X-106883Y-136629D01*
X-106971Y-136681D01*
X-107029Y-136710D01*
X-107108Y-136738D01*
X-107207Y-136766D01*
X-107332Y-136785D01*
X-107468Y-136800D01*
X-107630Y-136807D01*
X-107807Y-136801D01*
X-107866Y-136027D01*
X-107853Y-136032D01*
X-107812Y-136032D01*
X-107750Y-136033D01*
X-107671Y-136025D01*
X-107584Y-136014D01*
X-107481Y-135994D01*
X-107381Y-135966D01*
X-107286Y-135930D01*
X-107244Y-135910D01*
X-107207Y-135881D01*
X-107153Y-135844D01*
X-107103Y-135799D01*
X-107040Y-135738D01*
X-106981Y-135668D01*
X-106939Y-135586D01*
X-106935Y-135574D01*
X-106918Y-135545D01*
X-106910Y-135499D01*
X-106888Y-135437D01*
X-106875Y-135359D01*
X-106866Y-135272D01*
X-106861Y-135177D01*
X-106872Y-135070D01*
X-106872Y-135049D01*
X-106888Y-134995D01*
X-106908Y-134912D01*
X-106932Y-134800D01*
X-106967Y-134663D01*
X-107020Y-134514D01*
X-107084Y-134361D01*
X-107157Y-134190D01*
X-108219Y-132013D01*
X-107513Y-131669D01*
X-105478Y-135840D01*
D02*
G37*
G36*
X-38024Y-154050D02*
X-38830Y-154443D01*
X-39223Y-153637D01*
X-38417Y-153244D01*
X-38024Y-154050D01*
D02*
G37*
G36*
X-50976Y-159595D02*
X-50864Y-159613D01*
X-50852Y-159617D01*
X-50840Y-159621D01*
X-50765Y-159647D01*
X-50654Y-159685D01*
X-50514Y-159761D01*
X-50354Y-159858D01*
X-50181Y-159979D01*
X-50005Y-160151D01*
X-49834Y-160355D01*
X-50479Y-160804D01*
X-50483Y-160795D01*
X-50487Y-160787D01*
X-50528Y-160745D01*
X-50585Y-160670D01*
X-50663Y-160595D01*
X-50753Y-160515D01*
X-50856Y-160432D01*
X-50983Y-160360D01*
X-51119Y-160313D01*
X-51140Y-160313D01*
X-51185Y-160305D01*
X-51268Y-160304D01*
X-51371Y-160303D01*
X-51500Y-160314D01*
X-51641Y-160341D01*
X-51802Y-160389D01*
X-51981Y-160466D01*
X-52064Y-160507D01*
X-52143Y-160556D01*
X-52243Y-160625D01*
X-52347Y-160707D01*
X-52456Y-160801D01*
X-52543Y-160895D01*
X-52611Y-161010D01*
X-52615Y-161022D01*
X-52636Y-161063D01*
X-52649Y-161121D01*
X-52670Y-161204D01*
X-52680Y-161290D01*
X-52681Y-161394D01*
X-52665Y-161489D01*
X-52625Y-161593D01*
X-52621Y-161601D01*
X-52604Y-161634D01*
X-52576Y-161672D01*
X-52531Y-161722D01*
X-52477Y-161768D01*
X-52408Y-161806D01*
X-52325Y-161848D01*
X-52226Y-161861D01*
X-52214Y-161866D01*
X-52185Y-161862D01*
X-52131Y-161866D01*
X-52052Y-161859D01*
X-51936Y-161844D01*
X-51866Y-161840D01*
X-51792Y-161824D01*
X-51705Y-161813D01*
X-51609Y-161797D01*
X-51506Y-161778D01*
X-51386Y-161750D01*
X-51377Y-161746D01*
X-51348Y-161742D01*
X-51303Y-161730D01*
X-51245Y-161722D01*
X-51170Y-161706D01*
X-51083Y-161695D01*
X-50905Y-161659D01*
X-50694Y-161628D01*
X-50495Y-161593D01*
X-50300Y-161570D01*
X-50209Y-161567D01*
X-50139Y-161564D01*
X-50118Y-161564D01*
X-50077Y-161564D01*
X-50011Y-161573D01*
X-49924Y-161582D01*
X-49821Y-161604D01*
X-49714Y-161634D01*
X-49603Y-161672D01*
X-49492Y-161731D01*
X-49479Y-161735D01*
X-49447Y-161761D01*
X-49393Y-161807D01*
X-49336Y-161861D01*
X-49270Y-161932D01*
X-49197Y-162020D01*
X-49132Y-162111D01*
X-49067Y-162223D01*
X-49058Y-162240D01*
X-49042Y-162273D01*
X-49026Y-162327D01*
X-48998Y-162406D01*
X-48978Y-162489D01*
X-48950Y-162588D01*
X-48943Y-162688D01*
X-48940Y-162799D01*
X-48944Y-162812D01*
X-48945Y-162853D01*
X-48949Y-162907D01*
X-48962Y-162985D01*
X-48984Y-163068D01*
X-49005Y-163171D01*
X-49040Y-163270D01*
X-49094Y-163368D01*
X-49099Y-163381D01*
X-49120Y-163401D01*
X-49141Y-163442D01*
X-49178Y-163492D01*
X-49229Y-163557D01*
X-49287Y-163627D01*
X-49362Y-163705D01*
X-49446Y-163787D01*
X-49458Y-163803D01*
X-49488Y-163828D01*
X-49538Y-163873D01*
X-49604Y-163926D01*
X-49688Y-163987D01*
X-49783Y-164044D01*
X-49892Y-164117D01*
X-50091Y-164215D01*
X-50186Y-164251D01*
X-50315Y-164303D01*
X-50456Y-164352D01*
X-50614Y-164387D01*
X-50779Y-164427D01*
X-50945Y-164446D01*
X-50953Y-164450D01*
X-50966Y-164446D01*
X-51015Y-164449D01*
X-51098Y-164449D01*
X-51201Y-164448D01*
X-51321Y-164434D01*
X-51445Y-164412D01*
X-51565Y-164378D01*
X-51680Y-164331D01*
X-51692Y-164327D01*
X-51725Y-164302D01*
X-51787Y-164260D01*
X-51861Y-164214D01*
X-51951Y-164134D01*
X-52045Y-164046D01*
X-52139Y-163938D01*
X-52241Y-163813D01*
X-51596Y-163385D01*
X-51588Y-163402D01*
X-51564Y-163431D01*
X-51519Y-163481D01*
X-51457Y-163544D01*
X-51379Y-163598D01*
X-51289Y-163657D01*
X-51190Y-163712D01*
X-51070Y-163746D01*
X-51058Y-163750D01*
X-51017Y-163751D01*
X-50951Y-163759D01*
X-50860Y-163756D01*
X-50760Y-163749D01*
X-50636Y-163729D01*
X-50495Y-163681D01*
X-50350Y-163621D01*
X-50267Y-163580D01*
X-50188Y-163531D01*
X-50084Y-163470D01*
X-49988Y-163393D01*
X-49883Y-163311D01*
X-49796Y-163217D01*
X-49733Y-163114D01*
X-49728Y-163102D01*
X-49712Y-163073D01*
X-49695Y-163023D01*
X-49686Y-162957D01*
X-49668Y-162887D01*
X-49668Y-162805D01*
X-49679Y-162718D01*
X-49707Y-162639D01*
X-49711Y-162631D01*
X-49720Y-162614D01*
X-49740Y-162593D01*
X-49756Y-162560D01*
X-49822Y-162489D01*
X-49912Y-162430D01*
X-49924Y-162426D01*
X-49937Y-162421D01*
X-49966Y-162405D01*
X-50011Y-162396D01*
X-50056Y-162387D01*
X-50122Y-162378D01*
X-50193Y-162382D01*
X-50276Y-162381D01*
X-50284Y-162385D01*
X-50304Y-162385D01*
X-50342Y-162393D01*
X-50412Y-162396D01*
X-50507Y-162412D01*
X-50627Y-162439D01*
X-50706Y-162447D01*
X-50789Y-162467D01*
X-50884Y-162482D01*
X-50988Y-162502D01*
X-50996Y-162506D01*
X-51025Y-162510D01*
X-51071Y-162522D01*
X-51129Y-162530D01*
X-51195Y-162541D01*
X-51278Y-162561D01*
X-51460Y-162588D01*
X-51659Y-162624D01*
X-51862Y-162651D01*
X-52048Y-162670D01*
X-52127Y-162677D01*
X-52197Y-162680D01*
X-52218Y-162680D01*
X-52259Y-162680D01*
X-52321Y-162679D01*
X-52416Y-162674D01*
X-52515Y-162661D01*
X-52622Y-162631D01*
X-52734Y-162592D01*
X-52841Y-162542D01*
X-52853Y-162537D01*
X-52886Y-162512D01*
X-52944Y-162479D01*
X-53013Y-162420D01*
X-53083Y-162341D01*
X-53165Y-162257D01*
X-53238Y-162149D01*
X-53311Y-162020D01*
X-53319Y-162004D01*
X-53340Y-161962D01*
X-53364Y-161891D01*
X-53391Y-161792D01*
X-53415Y-161680D01*
X-53426Y-161552D01*
X-53437Y-161403D01*
X-53428Y-161254D01*
X-53427Y-161234D01*
X-53410Y-161184D01*
X-53397Y-161106D01*
X-53363Y-161007D01*
X-53308Y-160887D01*
X-53249Y-160756D01*
X-53169Y-160624D01*
X-53064Y-160480D01*
X-53056Y-160476D01*
X-53052Y-160464D01*
X-53010Y-160423D01*
X-52939Y-160357D01*
X-52847Y-160272D01*
X-52730Y-160173D01*
X-52593Y-160076D01*
X-52443Y-159982D01*
X-52265Y-159885D01*
X-52190Y-159848D01*
X-52128Y-159828D01*
X-52061Y-159796D01*
X-51974Y-159763D01*
X-51887Y-159731D01*
X-51787Y-159703D01*
X-51568Y-159647D01*
X-51331Y-159604D01*
X-51091Y-159590D01*
X-50976Y-159595D01*
D02*
G37*
G36*
X-37740Y-160032D02*
X-39950Y-161110D01*
X-40104Y-161175D01*
X-40274Y-161247D01*
X-40448Y-161312D01*
X-40627Y-161368D01*
X-40780Y-161412D01*
X-40789Y-161416D01*
X-40809Y-161416D01*
X-40834Y-161428D01*
X-40876Y-161427D01*
X-40979Y-161447D01*
X-41116Y-161462D01*
X-41277Y-161469D01*
X-41455Y-161463D01*
X-41637Y-161449D01*
X-41822Y-161406D01*
X-41835Y-161402D01*
X-41847Y-161397D01*
X-41884Y-161385D01*
X-41929Y-161376D01*
X-42053Y-161333D01*
X-42210Y-161266D01*
X-42386Y-161177D01*
X-42584Y-161068D01*
X-42785Y-160929D01*
X-42982Y-160758D01*
X-42986Y-160749D01*
X-43002Y-160737D01*
X-43035Y-160712D01*
X-43068Y-160666D01*
X-43121Y-160620D01*
X-43170Y-160561D01*
X-43223Y-160495D01*
X-43293Y-160415D01*
X-43362Y-160336D01*
X-43432Y-160236D01*
X-43587Y-160024D01*
X-43737Y-159778D01*
X-43883Y-159500D01*
X-43887Y-159492D01*
X-43896Y-159475D01*
X-43916Y-159433D01*
X-43936Y-159392D01*
X-43956Y-159330D01*
X-43988Y-159263D01*
X-44057Y-159101D01*
X-44121Y-158906D01*
X-44190Y-158703D01*
X-44246Y-158483D01*
X-44293Y-158259D01*
X-44297Y-158251D01*
X-44297Y-158230D01*
X-44301Y-158202D01*
X-44309Y-158164D01*
X-44320Y-158057D01*
X-44327Y-157916D01*
X-44342Y-157759D01*
X-44340Y-157593D01*
X-44326Y-157411D01*
X-44308Y-157238D01*
X-44307Y-157217D01*
X-44294Y-157160D01*
X-44273Y-157077D01*
X-44243Y-156970D01*
X-44209Y-156850D01*
X-44158Y-156723D01*
X-44111Y-156587D01*
X-44039Y-156459D01*
X-44027Y-156443D01*
X-44006Y-156402D01*
X-43964Y-156340D01*
X-43901Y-156258D01*
X-43826Y-156159D01*
X-43730Y-156061D01*
X-43621Y-155946D01*
X-43492Y-155832D01*
X-43475Y-155824D01*
X-43454Y-155803D01*
X-43433Y-155783D01*
X-43354Y-155734D01*
X-43246Y-155661D01*
X-43121Y-155579D01*
X-42971Y-155486D01*
X-42801Y-155392D01*
X-42614Y-155291D01*
X-40545Y-154282D01*
X-37740Y-160032D01*
D02*
G37*
G36*
X-57497Y-160883D02*
X-57484Y-160888D01*
X-57472Y-160892D01*
X-57390Y-160913D01*
X-57287Y-160956D01*
X-57151Y-161023D01*
X-56999Y-161124D01*
X-56839Y-161262D01*
X-56765Y-161349D01*
X-56696Y-161449D01*
X-56627Y-161549D01*
X-56566Y-161674D01*
X-57300Y-161919D01*
X-57308Y-161902D01*
X-57333Y-161873D01*
X-57378Y-161823D01*
X-57431Y-161756D01*
X-57501Y-161698D01*
X-57579Y-161643D01*
X-57665Y-161593D01*
X-57760Y-161567D01*
X-57781Y-161567D01*
X-57826Y-161558D01*
X-57900Y-161553D01*
X-58000Y-161560D01*
X-58120Y-161568D01*
X-58261Y-161595D01*
X-58422Y-161643D01*
X-58584Y-161712D01*
X-58667Y-161752D01*
X-58746Y-161801D01*
X-58855Y-161875D01*
X-58959Y-161956D01*
X-59067Y-162050D01*
X-59168Y-162161D01*
X-59243Y-162280D01*
X-59247Y-162292D01*
X-59268Y-162334D01*
X-59294Y-162408D01*
X-59324Y-162494D01*
X-59342Y-162606D01*
X-59355Y-162726D01*
X-59361Y-162862D01*
X-59341Y-163007D01*
X-59337Y-163015D01*
X-59329Y-163053D01*
X-59305Y-163123D01*
X-59273Y-163210D01*
X-59253Y-163272D01*
X-59221Y-163339D01*
X-59192Y-163418D01*
X-59152Y-163501D01*
X-59107Y-163592D01*
X-59063Y-163704D01*
X-59010Y-163812D01*
X-58949Y-163937D01*
X-58945Y-163925D01*
X-58937Y-163900D01*
X-58924Y-163863D01*
X-58907Y-163813D01*
X-58886Y-163752D01*
X-58852Y-163673D01*
X-58809Y-163591D01*
X-58767Y-163509D01*
X-58642Y-163324D01*
X-58495Y-163139D01*
X-58403Y-163053D01*
X-58299Y-162972D01*
X-58182Y-162894D01*
X-58062Y-162825D01*
X-58020Y-162805D01*
X-57975Y-162793D01*
X-57916Y-162765D01*
X-57838Y-162736D01*
X-57747Y-162712D01*
X-57647Y-162685D01*
X-57535Y-162661D01*
X-57411Y-162641D01*
X-57283Y-162630D01*
X-57150Y-162627D01*
X-57006Y-162629D01*
X-56861Y-162651D01*
X-56712Y-162681D01*
X-56568Y-162724D01*
X-56424Y-162788D01*
X-56412Y-162792D01*
X-56395Y-162804D01*
X-56350Y-162834D01*
X-56297Y-162859D01*
X-56231Y-162909D01*
X-56157Y-162956D01*
X-56075Y-163018D01*
X-55985Y-163098D01*
X-55894Y-163177D01*
X-55796Y-163273D01*
X-55698Y-163370D01*
X-55600Y-163486D01*
X-55404Y-163740D01*
X-55318Y-163894D01*
X-55233Y-164048D01*
X-55229Y-164056D01*
X-55221Y-164073D01*
X-55205Y-164106D01*
X-55184Y-164148D01*
X-55164Y-164210D01*
X-55136Y-164268D01*
X-55080Y-164426D01*
X-55024Y-164604D01*
X-54976Y-164807D01*
X-54933Y-165023D01*
X-54914Y-165250D01*
X-54910Y-165259D01*
X-54910Y-165279D01*
X-54915Y-165312D01*
X-54915Y-165354D01*
X-54921Y-165469D01*
X-54930Y-165618D01*
X-54961Y-165788D01*
X-55008Y-165965D01*
X-55068Y-166159D01*
X-55156Y-166336D01*
X-55165Y-166339D01*
X-55169Y-166352D01*
X-55186Y-166381D01*
X-55211Y-166413D01*
X-55270Y-166504D01*
X-55362Y-166611D01*
X-55479Y-166729D01*
X-55621Y-166860D01*
X-55787Y-166983D01*
X-55983Y-167088D01*
X-56057Y-167125D01*
X-56111Y-167141D01*
X-56174Y-167161D01*
X-56256Y-167181D01*
X-56348Y-167204D01*
X-56451Y-167224D01*
X-56559Y-167236D01*
X-56679Y-167243D01*
X-56803Y-167241D01*
X-56939Y-167236D01*
X-57071Y-167218D01*
X-57212Y-167184D01*
X-57356Y-167141D01*
X-57500Y-167077D01*
X-57249Y-167593D01*
X-57897Y-167909D01*
X-59656Y-164302D01*
X-59660Y-164294D01*
X-59676Y-164261D01*
X-59700Y-164211D01*
X-59733Y-164144D01*
X-59761Y-164065D01*
X-59806Y-163974D01*
X-59846Y-163870D01*
X-59890Y-163758D01*
X-59975Y-163522D01*
X-60055Y-163273D01*
X-60083Y-163153D01*
X-60107Y-163041D01*
X-60118Y-162933D01*
X-60125Y-162834D01*
X-60129Y-162826D01*
X-60125Y-162813D01*
X-60116Y-162747D01*
X-60111Y-162652D01*
X-60089Y-162528D01*
X-60046Y-162384D01*
X-59991Y-162223D01*
X-59911Y-162050D01*
X-59806Y-161886D01*
X-59798Y-161882D01*
X-59793Y-161870D01*
X-59776Y-161841D01*
X-59747Y-161816D01*
X-59718Y-161771D01*
X-59676Y-161730D01*
X-59572Y-161628D01*
X-59446Y-161505D01*
X-59280Y-161383D01*
X-59088Y-161248D01*
X-58868Y-161130D01*
X-58793Y-161094D01*
X-58739Y-161078D01*
X-58673Y-161045D01*
X-58602Y-161021D01*
X-58515Y-160989D01*
X-58416Y-160961D01*
X-58204Y-160909D01*
X-57976Y-160870D01*
X-57736Y-160856D01*
X-57497Y-160883D01*
D02*
G37*
G36*
X-46775Y-157578D02*
X-46623Y-157596D01*
X-46474Y-157626D01*
X-46317Y-157673D01*
X-46305Y-157677D01*
X-46280Y-157686D01*
X-46239Y-157707D01*
X-46182Y-157741D01*
X-46112Y-157779D01*
X-46038Y-157825D01*
X-45947Y-157884D01*
X-45853Y-157951D01*
X-45750Y-158034D01*
X-45644Y-158126D01*
X-45537Y-158239D01*
X-45427Y-158360D01*
X-45321Y-158493D01*
X-45215Y-158647D01*
X-45113Y-158814D01*
X-45016Y-158993D01*
X-45011Y-159001D01*
X-44991Y-159042D01*
X-44967Y-159092D01*
X-44939Y-159171D01*
X-44902Y-159267D01*
X-44862Y-159370D01*
X-44822Y-159495D01*
X-44790Y-159623D01*
X-44727Y-159922D01*
X-44704Y-160075D01*
X-44685Y-160240D01*
X-44686Y-160406D01*
X-44700Y-160567D01*
X-44722Y-160732D01*
X-44757Y-160893D01*
X-44761Y-160905D01*
X-44770Y-160930D01*
X-44791Y-160971D01*
X-44812Y-161033D01*
X-44842Y-161099D01*
X-44884Y-161181D01*
X-44931Y-161276D01*
X-44998Y-161370D01*
X-45061Y-161473D01*
X-45144Y-161576D01*
X-45236Y-161682D01*
X-45341Y-161785D01*
X-45453Y-161891D01*
X-45582Y-161985D01*
X-45724Y-162074D01*
X-45878Y-162160D01*
X-45961Y-162200D01*
X-46023Y-162220D01*
X-46094Y-162244D01*
X-46185Y-162268D01*
X-46284Y-162296D01*
X-46405Y-162324D01*
X-46516Y-162348D01*
X-46653Y-162363D01*
X-46781Y-162374D01*
X-46926Y-162373D01*
X-47075Y-162363D01*
X-47228Y-162345D01*
X-47380Y-162306D01*
X-47529Y-162255D01*
X-47541Y-162251D01*
X-47566Y-162242D01*
X-47607Y-162221D01*
X-47664Y-162188D01*
X-47734Y-162150D01*
X-47808Y-162104D01*
X-47899Y-162045D01*
X-47997Y-161969D01*
X-48100Y-161886D01*
X-48206Y-161794D01*
X-48313Y-161681D01*
X-48423Y-161560D01*
X-48533Y-161418D01*
X-48639Y-161264D01*
X-48741Y-161098D01*
X-48843Y-160911D01*
X-48847Y-160902D01*
X-48863Y-160869D01*
X-48891Y-160811D01*
X-48924Y-160724D01*
X-45807Y-159204D01*
X-45811Y-159196D01*
X-45823Y-159171D01*
X-45848Y-159142D01*
X-45872Y-159092D01*
X-45909Y-159038D01*
X-45958Y-158979D01*
X-46056Y-158842D01*
X-46187Y-158700D01*
X-46343Y-158549D01*
X-46515Y-158428D01*
X-46704Y-158335D01*
X-46713Y-158339D01*
X-46729Y-158327D01*
X-46799Y-158309D01*
X-46902Y-158288D01*
X-47030Y-158278D01*
X-47196Y-158276D01*
X-47374Y-158291D01*
X-47560Y-158331D01*
X-47656Y-158367D01*
X-47759Y-158407D01*
X-47826Y-158440D01*
X-47897Y-158484D01*
X-47980Y-158546D01*
X-48067Y-158619D01*
X-48168Y-158709D01*
X-48251Y-158812D01*
X-48327Y-158931D01*
X-48331Y-158943D01*
X-48356Y-158997D01*
X-48382Y-159071D01*
X-48408Y-159166D01*
X-48430Y-159290D01*
X-48448Y-159443D01*
X-48458Y-159612D01*
X-48447Y-159802D01*
X-49223Y-160068D01*
X-49227Y-160059D01*
X-49227Y-160039D01*
X-49235Y-160001D01*
X-49243Y-159943D01*
X-49242Y-159881D01*
X-49249Y-159803D01*
X-49252Y-159629D01*
X-49246Y-159431D01*
X-49210Y-159208D01*
X-49155Y-158985D01*
X-49061Y-158754D01*
X-49053Y-158750D01*
X-49044Y-158725D01*
X-49028Y-158697D01*
X-49007Y-158656D01*
X-48969Y-158606D01*
X-48931Y-158557D01*
X-48881Y-158491D01*
X-48822Y-158422D01*
X-48755Y-158348D01*
X-48689Y-158274D01*
X-48505Y-158123D01*
X-48293Y-157968D01*
X-48043Y-157826D01*
X-47952Y-157781D01*
X-47889Y-157761D01*
X-47811Y-157733D01*
X-47711Y-157705D01*
X-47603Y-157673D01*
X-47487Y-157637D01*
X-47222Y-157590D01*
X-47073Y-157579D01*
X-46933Y-157572D01*
X-46775Y-157578D01*
D02*
G37*
G36*
X-52712Y-165380D02*
X-53418Y-165724D01*
X-55452Y-161553D01*
X-54746Y-161208D01*
X-52712Y-165380D01*
D02*
G37*
G36*
X-51941Y-166959D02*
X-52648Y-167303D01*
X-53041Y-166497D01*
X-52335Y-166152D01*
X-51941Y-166959D01*
D02*
G37*
G36*
X-65684Y-166707D02*
X-65481Y-166742D01*
X-65457Y-166751D01*
X-65395Y-166772D01*
X-65300Y-166819D01*
X-65185Y-166886D01*
X-65058Y-166978D01*
X-64931Y-167091D01*
X-64804Y-167245D01*
X-64755Y-167324D01*
X-64698Y-167420D01*
X-64690Y-167437D01*
X-64674Y-167470D01*
X-64654Y-167532D01*
X-64626Y-167611D01*
X-64598Y-167710D01*
X-64578Y-167814D01*
X-64563Y-167930D01*
X-64560Y-168041D01*
X-64564Y-168054D01*
X-64564Y-168095D01*
X-64573Y-168161D01*
X-64586Y-168240D01*
X-64604Y-168330D01*
X-64638Y-168429D01*
X-64672Y-168528D01*
X-64727Y-168627D01*
X-64731Y-168639D01*
X-64756Y-168672D01*
X-64781Y-168726D01*
X-64832Y-168791D01*
X-64890Y-168861D01*
X-64961Y-168947D01*
X-65037Y-169025D01*
X-65128Y-169111D01*
X-65137Y-169115D01*
X-65166Y-169139D01*
X-65208Y-169180D01*
X-65270Y-169221D01*
X-65345Y-169278D01*
X-65445Y-169348D01*
X-65557Y-169433D01*
X-65699Y-169523D01*
X-65707Y-169527D01*
X-65736Y-169552D01*
X-65778Y-169572D01*
X-65832Y-169608D01*
X-65895Y-169649D01*
X-65970Y-169706D01*
X-66057Y-169759D01*
X-66149Y-169825D01*
X-66328Y-169963D01*
X-66523Y-170110D01*
X-66690Y-170253D01*
X-66770Y-170323D01*
X-66841Y-170388D01*
X-66836Y-170397D01*
X-66828Y-170413D01*
X-66812Y-170467D01*
X-66784Y-170525D01*
X-66768Y-170558D01*
X-66760Y-170575D01*
X-66756Y-170583D01*
X-66752Y-170592D01*
X-66727Y-170642D01*
X-66678Y-170721D01*
X-66617Y-170804D01*
X-66544Y-170892D01*
X-66453Y-170971D01*
X-66359Y-171038D01*
X-66256Y-171080D01*
X-66244Y-171085D01*
X-66186Y-171098D01*
X-66103Y-171098D01*
X-65996Y-171108D01*
X-65859Y-171093D01*
X-65706Y-171069D01*
X-65528Y-171013D01*
X-65332Y-170928D01*
X-65249Y-170888D01*
X-65170Y-170839D01*
X-65062Y-170766D01*
X-64954Y-170692D01*
X-64845Y-170598D01*
X-64749Y-170500D01*
X-64678Y-170393D01*
X-64674Y-170381D01*
X-64653Y-170340D01*
X-64631Y-170278D01*
X-64614Y-170187D01*
X-64605Y-170079D01*
X-64599Y-169943D01*
X-64614Y-169786D01*
X-64637Y-169612D01*
X-63903Y-169367D01*
X-63899Y-169375D01*
X-63903Y-169388D01*
X-63891Y-169413D01*
X-63883Y-169450D01*
X-63871Y-169537D01*
X-63852Y-169661D01*
X-63841Y-169789D01*
X-63834Y-169930D01*
X-63844Y-170079D01*
X-63866Y-170223D01*
X-63870Y-170236D01*
X-63887Y-170285D01*
X-63913Y-170359D01*
X-63947Y-170458D01*
X-64006Y-170569D01*
X-64081Y-170688D01*
X-64170Y-170824D01*
X-64282Y-170951D01*
X-64291Y-170955D01*
X-64295Y-170968D01*
X-64316Y-170988D01*
X-64345Y-171012D01*
X-64416Y-171078D01*
X-64520Y-171160D01*
X-64641Y-171249D01*
X-64795Y-171355D01*
X-64961Y-171457D01*
X-65157Y-171563D01*
X-65248Y-171607D01*
X-65344Y-171644D01*
X-65472Y-171696D01*
X-65622Y-171748D01*
X-65775Y-171792D01*
X-65933Y-171828D01*
X-66086Y-171851D01*
X-66107Y-171851D01*
X-66156Y-171855D01*
X-66227Y-171858D01*
X-66318Y-171861D01*
X-66425Y-171852D01*
X-66532Y-171843D01*
X-66639Y-171813D01*
X-66738Y-171779D01*
X-66751Y-171774D01*
X-66780Y-171758D01*
X-66825Y-171728D01*
X-66882Y-171695D01*
X-66960Y-171640D01*
X-67030Y-171581D01*
X-67108Y-171506D01*
X-67186Y-171410D01*
X-67190Y-171402D01*
X-67210Y-171381D01*
X-67243Y-171335D01*
X-67283Y-171273D01*
X-67328Y-171182D01*
X-67389Y-171078D01*
X-67466Y-170940D01*
X-67543Y-170782D01*
X-68005Y-169835D01*
X-68009Y-169827D01*
X-68025Y-169794D01*
X-68050Y-169744D01*
X-68082Y-169677D01*
X-68119Y-169602D01*
X-68163Y-169511D01*
X-68269Y-169316D01*
X-68370Y-169108D01*
X-68480Y-168904D01*
X-68533Y-168817D01*
X-68573Y-168734D01*
X-68618Y-168663D01*
X-68655Y-168609D01*
X-68659Y-168601D01*
X-68683Y-168571D01*
X-68716Y-168526D01*
X-68773Y-168471D01*
X-68826Y-168405D01*
X-68900Y-168338D01*
X-68986Y-168267D01*
X-69072Y-168195D01*
X-68333Y-167835D01*
X-68320Y-167839D01*
X-68296Y-167868D01*
X-68259Y-167902D01*
X-68202Y-167956D01*
X-68140Y-168018D01*
X-68079Y-168102D01*
X-68014Y-168193D01*
X-67945Y-168293D01*
X-67936Y-168289D01*
X-67936Y-168269D01*
X-67906Y-168203D01*
X-67860Y-168108D01*
X-67797Y-167985D01*
X-67709Y-167849D01*
X-67625Y-167705D01*
X-67528Y-167566D01*
X-67415Y-167439D01*
X-67403Y-167422D01*
X-67357Y-167390D01*
X-67294Y-167328D01*
X-67215Y-167259D01*
X-67111Y-167177D01*
X-66986Y-167095D01*
X-66844Y-167006D01*
X-66699Y-166925D01*
X-66632Y-166892D01*
X-66578Y-166876D01*
X-66520Y-166848D01*
X-66450Y-166824D01*
X-66288Y-166776D01*
X-66101Y-166736D01*
X-65890Y-166705D01*
X-65684Y-166707D01*
D02*
G37*
G36*
X-58969Y-168431D02*
X-59601Y-168739D01*
X-59892Y-168141D01*
X-59897Y-168154D01*
X-59901Y-168187D01*
X-59910Y-168232D01*
X-59923Y-168290D01*
X-59948Y-168364D01*
X-59978Y-168451D01*
X-60012Y-168549D01*
X-60063Y-168656D01*
X-60118Y-168755D01*
X-60185Y-168870D01*
X-60264Y-168981D01*
X-60356Y-169088D01*
X-60469Y-169194D01*
X-60586Y-169292D01*
X-60723Y-169390D01*
X-60877Y-169475D01*
X-60944Y-169508D01*
X-61014Y-169532D01*
X-61110Y-169568D01*
X-61226Y-169604D01*
X-61354Y-169636D01*
X-61495Y-169664D01*
X-61636Y-169671D01*
X-61656Y-169670D01*
X-61698Y-169670D01*
X-61768Y-169673D01*
X-61855Y-169664D01*
X-61962Y-169655D01*
X-62070Y-169625D01*
X-62177Y-169595D01*
X-62284Y-169544D01*
X-62296Y-169540D01*
X-62329Y-169515D01*
X-62374Y-169485D01*
X-62444Y-169447D01*
X-62518Y-169381D01*
X-62592Y-169314D01*
X-62682Y-169234D01*
X-62759Y-169138D01*
X-62763Y-169130D01*
X-62788Y-169101D01*
X-62821Y-169055D01*
X-62861Y-168993D01*
X-62910Y-168893D01*
X-62975Y-168781D01*
X-63052Y-168643D01*
X-63137Y-168469D01*
X-64386Y-165910D01*
X-63679Y-165565D01*
X-62447Y-168091D01*
X-62443Y-168099D01*
X-62439Y-168108D01*
X-62411Y-168166D01*
X-62374Y-168241D01*
X-62321Y-168328D01*
X-62260Y-168432D01*
X-62191Y-168532D01*
X-62118Y-168620D01*
X-62048Y-168699D01*
X-62044Y-168707D01*
X-62015Y-168724D01*
X-61970Y-168753D01*
X-61921Y-168791D01*
X-61855Y-168821D01*
X-61777Y-168855D01*
X-61682Y-168880D01*
X-61583Y-168894D01*
X-61570Y-168898D01*
X-61537Y-168902D01*
X-61479Y-168895D01*
X-61409Y-168891D01*
X-61330Y-168884D01*
X-61235Y-168868D01*
X-61131Y-168828D01*
X-61027Y-168787D01*
X-60986Y-168767D01*
X-60957Y-168743D01*
X-60878Y-168694D01*
X-60778Y-168625D01*
X-60682Y-168526D01*
X-60573Y-168412D01*
X-60472Y-168280D01*
X-60397Y-168120D01*
X-60388Y-168095D01*
X-60375Y-168037D01*
X-60366Y-167992D01*
X-60362Y-167938D01*
X-60353Y-167872D01*
X-60356Y-167802D01*
X-60355Y-167719D01*
X-60363Y-167620D01*
X-60382Y-167516D01*
X-60406Y-167404D01*
X-60442Y-167288D01*
X-60482Y-167164D01*
X-60535Y-167014D01*
X-60603Y-166873D01*
X-61710Y-164604D01*
X-61003Y-164260D01*
X-58969Y-168431D01*
D02*
G37*
G36*
X-70395Y-168923D02*
X-70361Y-168927D01*
X-70316Y-168936D01*
X-70246Y-168953D01*
X-70184Y-168974D01*
X-70106Y-169008D01*
X-70028Y-169042D01*
X-69958Y-169100D01*
X-69954Y-169109D01*
X-69921Y-169134D01*
X-69884Y-169188D01*
X-69827Y-169263D01*
X-69758Y-169363D01*
X-69717Y-169425D01*
X-69681Y-169500D01*
X-69628Y-169588D01*
X-69575Y-169675D01*
X-69526Y-169775D01*
X-69470Y-169891D01*
X-68294Y-172301D01*
X-67771Y-172045D01*
X-67503Y-172594D01*
X-68027Y-172849D01*
X-67524Y-173880D01*
X-68024Y-174648D01*
X-68733Y-173194D01*
X-69448Y-173542D01*
X-69715Y-172994D01*
X-69001Y-172645D01*
X-70196Y-170194D01*
X-70204Y-170177D01*
X-70220Y-170144D01*
X-70245Y-170094D01*
X-70282Y-170040D01*
X-70355Y-169911D01*
X-70391Y-169857D01*
X-70420Y-169820D01*
X-70436Y-169807D01*
X-70477Y-169786D01*
X-70531Y-169761D01*
X-70609Y-169747D01*
X-70630Y-169747D01*
X-70680Y-169751D01*
X-70763Y-169771D01*
X-70875Y-169815D01*
X-70958Y-169856D01*
X-70995Y-169884D01*
X-71054Y-169913D01*
X-71116Y-169953D01*
X-71178Y-169994D01*
X-71574Y-169415D01*
X-71557Y-169407D01*
X-71528Y-169383D01*
X-71474Y-169346D01*
X-71403Y-169301D01*
X-71328Y-169244D01*
X-71241Y-169191D01*
X-71062Y-169094D01*
X-70995Y-169061D01*
X-70925Y-169037D01*
X-70838Y-169005D01*
X-70734Y-168965D01*
X-70622Y-168941D01*
X-70519Y-168921D01*
X-70407Y-168918D01*
X-70395Y-168923D01*
D02*
G37*
G36*
X-72677Y-170211D02*
X-72524Y-170229D01*
X-72376Y-170259D01*
X-72219Y-170306D01*
X-72207Y-170311D01*
X-72182Y-170319D01*
X-72141Y-170340D01*
X-72084Y-170374D01*
X-72014Y-170412D01*
X-71940Y-170458D01*
X-71849Y-170517D01*
X-71751Y-170592D01*
X-71648Y-170676D01*
X-71537Y-170776D01*
X-71431Y-170889D01*
X-71321Y-171010D01*
X-71210Y-171152D01*
X-71104Y-171306D01*
X-70999Y-171480D01*
X-70897Y-171667D01*
X-70889Y-171684D01*
X-70873Y-171717D01*
X-70853Y-171779D01*
X-70812Y-171863D01*
X-70776Y-171958D01*
X-70736Y-172082D01*
X-70696Y-172207D01*
X-70664Y-172356D01*
X-70633Y-172505D01*
X-70605Y-172667D01*
X-70582Y-172841D01*
X-70580Y-173014D01*
X-70581Y-173180D01*
X-70608Y-173357D01*
X-70638Y-173526D01*
X-70702Y-173691D01*
X-70706Y-173704D01*
X-70719Y-173720D01*
X-70740Y-173761D01*
X-70765Y-173815D01*
X-70799Y-173872D01*
X-70845Y-173946D01*
X-70891Y-174020D01*
X-70954Y-174102D01*
X-71025Y-174188D01*
X-71105Y-174279D01*
X-71293Y-174463D01*
X-71522Y-174647D01*
X-71651Y-174720D01*
X-71788Y-174797D01*
X-71871Y-174837D01*
X-71933Y-174858D01*
X-72012Y-174886D01*
X-72103Y-174910D01*
X-72203Y-174938D01*
X-72319Y-174974D01*
X-72580Y-175008D01*
X-72716Y-175023D01*
X-72861Y-175022D01*
X-73006Y-175021D01*
X-73163Y-174994D01*
X-73311Y-174964D01*
X-73468Y-174917D01*
X-73480Y-174913D01*
X-73505Y-174904D01*
X-73546Y-174883D01*
X-73600Y-174858D01*
X-73670Y-174820D01*
X-73756Y-174769D01*
X-73846Y-174711D01*
X-73941Y-174643D01*
X-74039Y-174568D01*
X-74150Y-174468D01*
X-74261Y-174367D01*
X-74371Y-174246D01*
X-74477Y-174113D01*
X-74579Y-173967D01*
X-74677Y-173809D01*
X-74774Y-173630D01*
X-74778Y-173622D01*
X-74791Y-173597D01*
X-74811Y-173556D01*
X-74839Y-173497D01*
X-74863Y-173427D01*
X-74896Y-173340D01*
X-74936Y-173257D01*
X-74964Y-173157D01*
X-75040Y-172937D01*
X-75092Y-172705D01*
X-75135Y-172469D01*
X-75145Y-172237D01*
X-75149Y-172229D01*
X-75145Y-172217D01*
X-75141Y-172184D01*
X-75140Y-172142D01*
X-75122Y-172031D01*
X-75096Y-171895D01*
X-75053Y-171730D01*
X-74985Y-171553D01*
X-74901Y-171367D01*
X-74787Y-171178D01*
X-74779Y-171174D01*
X-74775Y-171162D01*
X-74758Y-171133D01*
X-74725Y-171096D01*
X-74691Y-171059D01*
X-74649Y-171018D01*
X-74549Y-170908D01*
X-74428Y-170797D01*
X-74274Y-170671D01*
X-74107Y-170548D01*
X-73912Y-170443D01*
X-73829Y-170402D01*
X-73758Y-170378D01*
X-73679Y-170350D01*
X-73588Y-170326D01*
X-73480Y-170294D01*
X-73373Y-170262D01*
X-73116Y-170219D01*
X-72967Y-170208D01*
X-72826Y-170201D01*
X-72677Y-170211D01*
D02*
G37*
G36*
X-74608Y-176059D02*
X-75248Y-176371D01*
X-75556Y-175740D01*
X-75560Y-175752D01*
X-75565Y-175826D01*
X-75570Y-175922D01*
X-75592Y-176045D01*
X-75614Y-176169D01*
X-75640Y-176306D01*
X-75674Y-176425D01*
X-75717Y-176528D01*
X-75721Y-176540D01*
X-75738Y-176569D01*
X-75776Y-176618D01*
X-75813Y-176668D01*
X-75868Y-176725D01*
X-75939Y-176791D01*
X-76013Y-176848D01*
X-76101Y-176901D01*
X-76159Y-176929D01*
X-76238Y-176957D01*
X-76337Y-176985D01*
X-76462Y-177004D01*
X-76598Y-177020D01*
X-76760Y-177026D01*
X-76937Y-177020D01*
X-76996Y-176247D01*
X-76983Y-176251D01*
X-76942Y-176251D01*
X-76880Y-176252D01*
X-76802Y-176244D01*
X-76715Y-176233D01*
X-76611Y-176213D01*
X-76512Y-176185D01*
X-76416Y-176149D01*
X-76374Y-176129D01*
X-76337Y-176100D01*
X-76283Y-176063D01*
X-76233Y-176018D01*
X-76170Y-175957D01*
X-76112Y-175887D01*
X-76069Y-175805D01*
X-76065Y-175793D01*
X-76048Y-175764D01*
X-76040Y-175718D01*
X-76018Y-175657D01*
X-76005Y-175578D01*
X-75996Y-175492D01*
X-75991Y-175396D01*
X-76002Y-175289D01*
X-76002Y-175268D01*
X-76018Y-175214D01*
X-76038Y-175131D01*
X-76062Y-175019D01*
X-76097Y-174883D01*
X-76150Y-174733D01*
X-76214Y-174580D01*
X-76287Y-174409D01*
X-77349Y-172232D01*
X-76643Y-171888D01*
X-74608Y-176059D01*
D02*
G37*
%LPC*%
G36*
X93213Y149452D02*
X93139D01*
X93055Y149434D01*
X92944Y149416D01*
X92824Y149378D01*
X92695Y149332D01*
X92575Y149258D01*
X92455Y149157D01*
X92445Y149147D01*
X92408Y149110D01*
X92362Y149046D01*
X92316Y148962D01*
X92260Y148861D01*
X92214Y148741D01*
X92177Y148611D01*
X92168Y148463D01*
Y148454D01*
Y148445D01*
X92177Y148389D01*
X92186Y148306D01*
X92205Y148204D01*
X92242Y148084D01*
X92288Y147964D01*
X92362Y147835D01*
X92455Y147724D01*
X92464Y147714D01*
X92510Y147677D01*
X92575Y147631D01*
X92658Y147585D01*
X92769Y147529D01*
X92898Y147483D01*
X93046Y147446D01*
X93213Y147437D01*
X93231D01*
X93287Y147446D01*
X93370Y147455D01*
X93481Y147474D01*
X93601Y147511D01*
X93721Y147557D01*
X93851Y147631D01*
X93962Y147724D01*
X93971Y147733D01*
X94008Y147779D01*
X94054Y147835D01*
X94109Y147918D01*
X94165Y148019D01*
X94211Y148140D01*
X94248Y148278D01*
X94257Y148426D01*
Y148435D01*
Y148445D01*
Y148500D01*
X94239Y148583D01*
X94220Y148685D01*
X94184Y148796D01*
X94128Y148916D01*
X94054Y149036D01*
X93952Y149157D01*
X93943Y149166D01*
X93897Y149203D01*
X93832Y149249D01*
X93749Y149305D01*
X93638Y149360D01*
X93518Y149406D01*
X93370Y149443D01*
X93213Y149452D01*
D02*
G37*
G36*
X93185Y146799D02*
X93130D01*
X93092Y146790D01*
X92991Y146781D01*
X92861Y146753D01*
X92713Y146706D01*
X92565Y146642D01*
X92408Y146549D01*
X92270Y146429D01*
X92251Y146411D01*
X92214Y146364D01*
X92159Y146281D01*
X92094Y146180D01*
X92020Y146041D01*
X91965Y145884D01*
X91927Y145708D01*
X91909Y145514D01*
Y145495D01*
Y145458D01*
X91918Y145394D01*
X91927Y145310D01*
X91946Y145209D01*
X91974Y145098D01*
X92011Y144987D01*
X92057Y144867D01*
X92066Y144857D01*
X92085Y144811D01*
X92122Y144756D01*
X92177Y144691D01*
X92242Y144608D01*
X92325Y144525D01*
X92417Y144451D01*
X92528Y144377D01*
X92547Y144367D01*
X92584Y144349D01*
X92649Y144321D01*
X92732Y144293D01*
X92834Y144266D01*
X92954Y144238D01*
X93083Y144219D01*
X93213Y144210D01*
X93268D01*
X93305Y144219D01*
X93416Y144229D01*
X93546Y144256D01*
X93693Y144303D01*
X93851Y144358D01*
X93998Y144451D01*
X94146Y144571D01*
X94165Y144589D01*
X94202Y144635D01*
X94267Y144719D01*
X94331Y144820D01*
X94396Y144950D01*
X94461Y145107D01*
X94498Y145292D01*
X94516Y145486D01*
Y145495D01*
Y145514D01*
Y145542D01*
X94507Y145579D01*
X94498Y145680D01*
X94470Y145819D01*
X94424Y145958D01*
X94359Y146115D01*
X94267Y146272D01*
X94137Y146420D01*
X94119Y146438D01*
X94073Y146475D01*
X93989Y146540D01*
X93878Y146614D01*
X93740Y146679D01*
X93573Y146743D01*
X93388Y146781D01*
X93185Y146799D01*
D02*
G37*
G36*
X-71847Y114753D02*
X-73210Y114089D01*
X-73264Y114052D01*
X-73384Y113983D01*
X-73521Y113906D01*
X-73663Y113816D01*
X-73800Y113718D01*
X-73909Y113624D01*
X-73921Y113608D01*
X-73959Y113579D01*
X-74005Y113526D01*
X-74064Y113456D01*
X-74122Y113366D01*
X-74181Y113275D01*
X-74236Y113177D01*
X-74286Y113070D01*
X-74287Y113049D01*
X-74304Y113000D01*
X-74325Y112917D01*
X-74343Y112806D01*
X-74357Y112665D01*
X-74371Y112504D01*
X-74368Y112330D01*
X-74349Y112144D01*
X-74345Y112136D01*
X-74345Y112115D01*
X-74342Y112086D01*
X-74334Y112049D01*
X-74322Y112003D01*
X-74310Y111937D01*
X-74298Y111871D01*
X-74282Y111796D01*
X-74226Y111618D01*
X-74158Y111414D01*
X-74069Y111190D01*
X-73964Y110954D01*
X-73960Y110945D01*
X-73944Y110912D01*
X-73924Y110871D01*
X-73883Y110808D01*
X-73846Y110733D01*
X-73797Y110654D01*
X-73741Y110559D01*
X-73684Y110463D01*
X-73533Y110259D01*
X-73369Y110050D01*
X-73189Y109871D01*
X-73087Y109787D01*
X-72992Y109720D01*
X-72988Y109712D01*
X-72963Y109703D01*
X-72935Y109686D01*
X-72902Y109661D01*
X-72795Y109611D01*
X-72663Y109551D01*
X-72502Y109496D01*
X-72325Y109449D01*
X-72139Y109426D01*
X-71953Y109424D01*
X-71932Y109424D01*
X-71887Y109436D01*
X-71800Y109448D01*
X-71680Y109475D01*
X-71539Y109524D01*
X-71360Y109580D01*
X-71256Y109620D01*
X-71148Y109673D01*
X-71036Y109717D01*
X-69707Y110366D01*
X-71847Y114753D01*
D02*
G37*
G36*
X-88176Y106769D02*
X-88345Y106758D01*
X-88524Y106722D01*
X-88611Y106690D01*
X-88706Y106654D01*
X-88756Y106630D01*
X-88785Y106605D01*
X-88873Y106552D01*
X-88973Y106462D01*
X-89077Y106360D01*
X-89186Y106224D01*
X-89274Y106068D01*
X-89312Y105978D01*
X-89347Y105879D01*
X-89342Y105870D01*
X-89355Y105854D01*
X-89360Y105821D01*
X-89360Y105780D01*
X-89369Y105734D01*
X-89378Y105668D01*
X-89374Y105598D01*
X-89371Y105507D01*
X-89368Y105416D01*
X-89352Y105321D01*
X-89337Y105205D01*
X-89309Y105084D01*
X-89273Y104968D01*
X-89229Y104836D01*
X-89176Y104686D01*
X-89108Y104545D01*
X-89103Y104537D01*
X-89091Y104512D01*
X-89071Y104470D01*
X-89038Y104424D01*
X-89006Y104358D01*
X-88961Y104287D01*
X-88855Y104133D01*
X-88720Y103962D01*
X-88569Y103799D01*
X-88393Y103649D01*
X-88294Y103594D01*
X-88199Y103548D01*
X-88195Y103539D01*
X-88175Y103539D01*
X-88113Y103518D01*
X-88006Y103488D01*
X-87869Y103462D01*
X-87721Y103452D01*
X-87547Y103454D01*
X-87369Y103490D01*
X-87278Y103514D01*
X-87145Y103579D01*
X-87115Y103603D01*
X-87028Y103656D01*
X-86936Y103742D01*
X-86824Y103848D01*
X-86727Y103988D01*
X-86639Y104144D01*
X-86605Y104243D01*
X-86571Y104342D01*
X-86575Y104350D01*
X-86562Y104367D01*
X-86558Y104400D01*
X-86557Y104441D01*
X-86549Y104487D01*
X-86548Y104549D01*
X-86543Y104623D01*
X-86551Y104702D01*
X-86554Y104793D01*
X-86565Y104900D01*
X-86585Y105004D01*
X-86608Y105116D01*
X-86649Y105240D01*
X-86689Y105365D01*
X-86733Y105497D01*
X-86802Y105639D01*
X-86806Y105647D01*
X-86818Y105672D01*
X-86838Y105713D01*
X-86875Y105767D01*
X-86907Y105834D01*
X-86956Y105913D01*
X-87066Y106075D01*
X-87205Y106255D01*
X-87348Y106421D01*
X-87524Y106572D01*
X-87615Y106631D01*
X-87710Y106677D01*
X-87734Y106686D01*
X-87796Y106707D01*
X-87891Y106733D01*
X-88023Y106750D01*
X-88176Y106769D01*
D02*
G37*
G36*
X-76435Y110283D02*
X-78770Y109144D01*
X-78766Y109136D01*
X-78758Y109120D01*
X-78738Y109099D01*
X-78721Y109065D01*
X-78656Y108974D01*
X-78579Y108878D01*
X-78472Y108765D01*
X-78370Y108661D01*
X-78243Y108569D01*
X-78115Y108497D01*
X-78111Y108489D01*
X-78090Y108489D01*
X-78024Y108459D01*
X-77917Y108429D01*
X-77781Y108403D01*
X-77620Y108389D01*
X-77438Y108395D01*
X-77239Y108431D01*
X-77144Y108467D01*
X-77040Y108507D01*
X-76990Y108531D01*
X-76961Y108556D01*
X-76873Y108609D01*
X-76778Y108686D01*
X-76665Y108793D01*
X-76552Y108920D01*
X-76459Y109068D01*
X-76379Y109241D01*
X-76371Y109265D01*
X-76358Y109323D01*
X-76336Y109426D01*
X-76326Y109555D01*
X-76317Y109703D01*
X-76332Y109881D01*
X-76367Y110080D01*
X-76435Y110283D01*
D02*
G37*
G36*
X-96953Y102662D02*
X-97061Y102651D01*
X-97185Y102632D01*
X-97318Y102587D01*
X-97472Y102523D01*
X-97538Y102490D01*
X-97617Y102441D01*
X-97701Y102380D01*
X-97809Y102307D01*
X-97909Y102217D01*
X-98013Y102114D01*
X-98110Y101996D01*
X-98122Y101979D01*
X-98143Y101938D01*
X-98181Y101868D01*
X-98219Y101777D01*
X-98262Y101674D01*
X-98304Y101551D01*
X-98322Y101419D01*
X-98336Y101278D01*
X-98340Y101266D01*
X-98332Y101229D01*
X-98321Y101162D01*
X-98309Y101075D01*
X-98285Y100964D01*
X-98245Y100839D01*
X-98184Y100694D01*
X-98112Y100524D01*
X-97990Y100254D01*
X-97982Y100258D01*
X-97978Y100270D01*
X-97957Y100290D01*
X-97928Y100315D01*
X-97894Y100352D01*
X-97852Y100393D01*
X-97802Y100438D01*
X-97744Y100487D01*
X-97682Y100548D01*
X-97598Y100610D01*
X-97519Y100679D01*
X-97423Y100757D01*
X-97319Y100838D01*
X-97215Y100920D01*
X-97090Y101001D01*
X-96961Y101095D01*
X-96944Y101103D01*
X-96898Y101136D01*
X-96823Y101193D01*
X-96740Y101254D01*
X-96648Y101320D01*
X-96561Y101393D01*
X-96482Y101463D01*
X-96415Y101536D01*
X-96406Y101540D01*
X-96390Y101569D01*
X-96364Y101602D01*
X-96343Y101643D01*
X-96276Y101758D01*
X-96242Y101899D01*
X-96246Y101907D01*
X-96237Y101932D01*
X-96245Y101969D01*
X-96249Y102019D01*
X-96256Y102077D01*
X-96264Y102135D01*
X-96288Y102205D01*
X-96312Y102276D01*
X-96316Y102284D01*
X-96337Y102325D01*
X-96369Y102371D01*
X-96418Y102430D01*
X-96480Y102492D01*
X-96558Y102547D01*
X-96648Y102605D01*
X-96751Y102648D01*
X-96763Y102652D01*
X-96805Y102653D01*
X-96871Y102662D01*
X-96953Y102662D01*
D02*
G37*
G36*
X-103922Y99192D02*
X-104104Y99185D01*
X-104299Y99142D01*
X-104394Y99105D01*
X-104498Y99065D01*
X-104548Y99040D01*
X-104586Y99012D01*
X-104669Y98951D01*
X-104781Y98865D01*
X-104890Y98750D01*
X-105007Y98611D01*
X-105100Y98442D01*
X-105142Y98339D01*
X-105176Y98240D01*
X-105180Y98228D01*
X-105185Y98216D01*
X-105189Y98183D01*
X-105198Y98137D01*
X-105203Y98083D01*
X-105211Y98018D01*
X-105212Y97935D01*
X-105213Y97852D01*
X-105206Y97753D01*
X-105186Y97649D01*
X-105171Y97533D01*
X-105143Y97413D01*
X-105107Y97276D01*
X-105063Y97143D01*
X-105011Y96994D01*
X-104938Y96845D01*
X-104934Y96836D01*
X-104921Y96811D01*
X-104901Y96770D01*
X-104868Y96724D01*
X-104836Y96657D01*
X-104791Y96587D01*
X-104681Y96424D01*
X-104551Y96262D01*
X-104387Y96095D01*
X-104206Y95957D01*
X-104112Y95890D01*
X-104009Y95847D01*
X-104005Y95839D01*
X-103984Y95839D01*
X-103910Y95813D01*
X-103807Y95791D01*
X-103671Y95765D01*
X-103509Y95751D01*
X-103328Y95758D01*
X-103141Y95797D01*
X-103046Y95834D01*
X-102942Y95874D01*
X-102892Y95898D01*
X-102854Y95927D01*
X-102767Y95980D01*
X-102659Y96074D01*
X-102542Y96192D01*
X-102424Y96332D01*
X-102332Y96501D01*
X-102289Y96603D01*
X-102255Y96702D01*
X-102260Y96711D01*
X-102247Y96727D01*
X-102242Y96760D01*
X-102234Y96805D01*
X-102229Y96859D01*
X-102228Y96921D01*
X-102228Y97004D01*
X-102227Y97087D01*
X-102234Y97186D01*
X-102241Y97285D01*
X-102265Y97397D01*
X-102293Y97517D01*
X-102325Y97646D01*
X-102369Y97779D01*
X-102430Y97924D01*
X-102490Y98069D01*
X-102494Y98077D01*
X-102506Y98102D01*
X-102527Y98144D01*
X-102563Y98198D01*
X-102596Y98265D01*
X-102640Y98335D01*
X-102751Y98498D01*
X-102889Y98677D01*
X-103053Y98844D01*
X-103229Y98995D01*
X-103328Y99049D01*
X-103427Y99104D01*
X-103435Y99100D01*
X-103451Y99112D01*
X-103522Y99130D01*
X-103629Y99160D01*
X-103761Y99178D01*
X-103922Y99192D01*
D02*
G37*
G36*
X-40977Y74534D02*
X-42340Y73870D01*
X-42394Y73833D01*
X-42514Y73764D01*
X-42652Y73687D01*
X-42793Y73597D01*
X-42930Y73499D01*
X-43039Y73405D01*
X-43051Y73389D01*
X-43089Y73360D01*
X-43135Y73307D01*
X-43193Y73237D01*
X-43252Y73147D01*
X-43311Y73056D01*
X-43366Y72958D01*
X-43416Y72851D01*
X-43417Y72830D01*
X-43434Y72780D01*
X-43455Y72698D01*
X-43473Y72586D01*
X-43487Y72446D01*
X-43501Y72285D01*
X-43498Y72111D01*
X-43479Y71925D01*
X-43475Y71917D01*
X-43475Y71896D01*
X-43472Y71867D01*
X-43464Y71830D01*
X-43452Y71784D01*
X-43440Y71718D01*
X-43428Y71652D01*
X-43412Y71577D01*
X-43356Y71399D01*
X-43288Y71195D01*
X-43199Y70971D01*
X-43094Y70734D01*
X-43090Y70726D01*
X-43074Y70693D01*
X-43054Y70651D01*
X-43013Y70589D01*
X-42976Y70514D01*
X-42927Y70435D01*
X-42871Y70339D01*
X-42814Y70244D01*
X-42663Y70040D01*
X-42499Y69831D01*
X-42319Y69652D01*
X-42217Y69568D01*
X-42122Y69501D01*
X-42118Y69493D01*
X-42093Y69484D01*
X-42065Y69467D01*
X-42032Y69442D01*
X-41925Y69391D01*
X-41793Y69332D01*
X-41632Y69277D01*
X-41455Y69230D01*
X-41269Y69207D01*
X-41083Y69205D01*
X-41062Y69205D01*
X-41017Y69217D01*
X-40930Y69229D01*
X-40810Y69256D01*
X-40669Y69305D01*
X-40490Y69361D01*
X-40387Y69401D01*
X-40278Y69454D01*
X-40166Y69498D01*
X-38837Y70147D01*
X-40977Y74534D01*
D02*
G37*
G36*
X-57306Y66549D02*
X-57476Y66539D01*
X-57654Y66503D01*
X-57741Y66471D01*
X-57836Y66435D01*
X-57886Y66410D01*
X-57915Y66386D01*
X-58003Y66333D01*
X-58103Y66243D01*
X-58207Y66141D01*
X-58316Y66005D01*
X-58404Y65849D01*
X-58443Y65759D01*
X-58477Y65660D01*
X-58472Y65651D01*
X-58485Y65635D01*
X-58489Y65602D01*
X-58490Y65560D01*
X-58499Y65515D01*
X-58508Y65449D01*
X-58504Y65379D01*
X-58501Y65288D01*
X-58498Y65197D01*
X-58482Y65101D01*
X-58467Y64985D01*
X-58439Y64865D01*
X-58403Y64749D01*
X-58359Y64616D01*
X-58306Y64467D01*
X-58238Y64326D01*
X-58233Y64317D01*
X-58221Y64292D01*
X-58201Y64251D01*
X-58168Y64205D01*
X-58136Y64139D01*
X-58091Y64068D01*
X-57985Y63914D01*
X-57850Y63743D01*
X-57699Y63580D01*
X-57523Y63430D01*
X-57424Y63375D01*
X-57329Y63328D01*
X-57325Y63320D01*
X-57305Y63320D01*
X-57243Y63299D01*
X-57136Y63269D01*
X-56999Y63243D01*
X-56851Y63233D01*
X-56677Y63235D01*
X-56499Y63271D01*
X-56408Y63295D01*
X-56275Y63359D01*
X-56245Y63384D01*
X-56158Y63437D01*
X-56066Y63523D01*
X-55954Y63629D01*
X-55857Y63769D01*
X-55769Y63925D01*
X-55735Y64024D01*
X-55701Y64123D01*
X-55705Y64131D01*
X-55692Y64148D01*
X-55688Y64181D01*
X-55687Y64222D01*
X-55679Y64267D01*
X-55678Y64329D01*
X-55673Y64404D01*
X-55681Y64482D01*
X-55684Y64573D01*
X-55695Y64681D01*
X-55715Y64785D01*
X-55739Y64896D01*
X-55779Y65021D01*
X-55819Y65145D01*
X-55863Y65278D01*
X-55932Y65419D01*
X-55936Y65428D01*
X-55948Y65453D01*
X-55968Y65494D01*
X-56005Y65548D01*
X-56037Y65615D01*
X-56086Y65694D01*
X-56196Y65856D01*
X-56335Y66035D01*
X-56478Y66202D01*
X-56655Y66353D01*
X-56745Y66412D01*
X-56839Y66458D01*
X-56864Y66466D01*
X-56926Y66488D01*
X-57021Y66514D01*
X-57153Y66531D01*
X-57306Y66549D01*
D02*
G37*
G36*
X-45565Y70064D02*
X-47900Y68925D01*
X-47896Y68917D01*
X-47888Y68900D01*
X-47868Y68879D01*
X-47851Y68846D01*
X-47786Y68755D01*
X-47709Y68659D01*
X-47602Y68546D01*
X-47500Y68442D01*
X-47372Y68349D01*
X-47245Y68278D01*
X-47241Y68270D01*
X-47220Y68269D01*
X-47154Y68240D01*
X-47047Y68210D01*
X-46911Y68184D01*
X-46750Y68170D01*
X-46568Y68176D01*
X-46369Y68211D01*
X-46274Y68248D01*
X-46170Y68288D01*
X-46120Y68312D01*
X-46091Y68337D01*
X-46003Y68390D01*
X-45908Y68467D01*
X-45795Y68574D01*
X-45682Y68701D01*
X-45589Y68849D01*
X-45509Y69022D01*
X-45501Y69046D01*
X-45488Y69104D01*
X-45466Y69207D01*
X-45457Y69335D01*
X-45447Y69484D01*
X-45462Y69662D01*
X-45497Y69861D01*
X-45565Y70064D01*
D02*
G37*
G36*
X-66083Y62443D02*
X-66191Y62432D01*
X-66315Y62412D01*
X-66448Y62368D01*
X-66602Y62304D01*
X-66668Y62271D01*
X-66747Y62222D01*
X-66831Y62161D01*
X-66939Y62088D01*
X-67039Y61998D01*
X-67143Y61895D01*
X-67240Y61776D01*
X-67252Y61760D01*
X-67273Y61719D01*
X-67311Y61649D01*
X-67349Y61558D01*
X-67392Y61455D01*
X-67434Y61332D01*
X-67452Y61200D01*
X-67466Y61059D01*
X-67470Y61047D01*
X-67462Y61009D01*
X-67450Y60943D01*
X-67439Y60856D01*
X-67415Y60744D01*
X-67375Y60620D01*
X-67315Y60475D01*
X-67242Y60304D01*
X-67120Y60034D01*
X-67112Y60038D01*
X-67108Y60051D01*
X-67087Y60071D01*
X-67058Y60096D01*
X-67024Y60133D01*
X-66982Y60174D01*
X-66933Y60219D01*
X-66874Y60268D01*
X-66811Y60329D01*
X-66728Y60390D01*
X-66649Y60460D01*
X-66553Y60537D01*
X-66449Y60619D01*
X-66345Y60701D01*
X-66220Y60782D01*
X-66091Y60876D01*
X-66074Y60884D01*
X-66028Y60917D01*
X-65953Y60974D01*
X-65870Y61035D01*
X-65778Y61100D01*
X-65691Y61174D01*
X-65612Y61244D01*
X-65545Y61317D01*
X-65536Y61321D01*
X-65520Y61350D01*
X-65494Y61383D01*
X-65473Y61424D01*
X-65406Y61539D01*
X-65372Y61679D01*
X-65376Y61688D01*
X-65367Y61712D01*
X-65375Y61750D01*
X-65379Y61799D01*
X-65386Y61857D01*
X-65394Y61915D01*
X-65418Y61986D01*
X-65442Y62056D01*
X-65446Y62065D01*
X-65467Y62106D01*
X-65499Y62152D01*
X-65548Y62210D01*
X-65610Y62273D01*
X-65688Y62328D01*
X-65778Y62386D01*
X-65881Y62429D01*
X-65893Y62433D01*
X-65935Y62433D01*
X-66001Y62442D01*
X-66083Y62443D01*
D02*
G37*
G36*
X-73052Y58972D02*
X-73234Y58966D01*
X-73429Y58922D01*
X-73524Y58886D01*
X-73628Y58846D01*
X-73678Y58821D01*
X-73716Y58793D01*
X-73799Y58732D01*
X-73911Y58646D01*
X-74020Y58531D01*
X-74137Y58392D01*
X-74230Y58223D01*
X-74272Y58120D01*
X-74306Y58021D01*
X-74310Y58009D01*
X-74315Y57997D01*
X-74319Y57964D01*
X-74328Y57918D01*
X-74332Y57864D01*
X-74341Y57798D01*
X-74342Y57716D01*
X-74343Y57633D01*
X-74336Y57534D01*
X-74316Y57430D01*
X-74301Y57314D01*
X-74273Y57194D01*
X-74237Y57057D01*
X-74193Y56924D01*
X-74141Y56775D01*
X-74068Y56625D01*
X-74064Y56617D01*
X-74051Y56592D01*
X-74031Y56551D01*
X-73998Y56505D01*
X-73966Y56438D01*
X-73921Y56368D01*
X-73811Y56205D01*
X-73681Y56043D01*
X-73517Y55876D01*
X-73336Y55738D01*
X-73242Y55670D01*
X-73139Y55628D01*
X-73135Y55620D01*
X-73114Y55620D01*
X-73040Y55594D01*
X-72937Y55572D01*
X-72801Y55546D01*
X-72639Y55532D01*
X-72457Y55539D01*
X-72271Y55578D01*
X-72175Y55614D01*
X-72072Y55655D01*
X-72022Y55679D01*
X-71984Y55708D01*
X-71897Y55760D01*
X-71789Y55855D01*
X-71672Y55973D01*
X-71554Y56113D01*
X-71462Y56281D01*
X-71420Y56384D01*
X-71385Y56483D01*
X-71389Y56491D01*
X-71377Y56508D01*
X-71372Y56541D01*
X-71364Y56586D01*
X-71359Y56640D01*
X-71358Y56702D01*
X-71358Y56785D01*
X-71357Y56867D01*
X-71364Y56967D01*
X-71371Y57066D01*
X-71395Y57178D01*
X-71423Y57298D01*
X-71455Y57427D01*
X-71499Y57559D01*
X-71560Y57705D01*
X-71620Y57850D01*
X-71624Y57858D01*
X-71636Y57883D01*
X-71656Y57925D01*
X-71693Y57979D01*
X-71726Y58046D01*
X-71770Y58116D01*
X-71880Y58278D01*
X-72019Y58458D01*
X-72183Y58625D01*
X-72359Y58775D01*
X-72458Y58830D01*
X-72557Y58885D01*
X-72565Y58881D01*
X-72582Y58893D01*
X-72652Y58910D01*
X-72759Y58941D01*
X-72891Y58958D01*
X-73052Y58972D01*
D02*
G37*
G36*
X-71847Y-115117D02*
X-73210Y-115781D01*
X-73264Y-115818D01*
X-73384Y-115887D01*
X-73521Y-115964D01*
X-73663Y-116054D01*
X-73800Y-116152D01*
X-73909Y-116246D01*
X-73921Y-116262D01*
X-73959Y-116291D01*
X-74005Y-116344D01*
X-74064Y-116414D01*
X-74122Y-116504D01*
X-74181Y-116595D01*
X-74236Y-116693D01*
X-74286Y-116800D01*
X-74287Y-116821D01*
X-74304Y-116870D01*
X-74325Y-116953D01*
X-74343Y-117064D01*
X-74357Y-117205D01*
X-74371Y-117366D01*
X-74368Y-117540D01*
X-74349Y-117726D01*
X-74345Y-117734D01*
X-74345Y-117755D01*
X-74342Y-117784D01*
X-74334Y-117821D01*
X-74322Y-117867D01*
X-74310Y-117933D01*
X-74298Y-117999D01*
X-74282Y-118074D01*
X-74226Y-118252D01*
X-74158Y-118455D01*
X-74069Y-118680D01*
X-73964Y-118916D01*
X-73960Y-118925D01*
X-73944Y-118958D01*
X-73924Y-119000D01*
X-73883Y-119062D01*
X-73846Y-119137D01*
X-73797Y-119216D01*
X-73741Y-119311D01*
X-73684Y-119407D01*
X-73533Y-119611D01*
X-73369Y-119820D01*
X-73189Y-119999D01*
X-73087Y-120083D01*
X-72992Y-120150D01*
X-72988Y-120158D01*
X-72963Y-120167D01*
X-72935Y-120184D01*
X-72902Y-120209D01*
X-72795Y-120259D01*
X-72663Y-120319D01*
X-72502Y-120374D01*
X-72325Y-120421D01*
X-72139Y-120444D01*
X-71953Y-120445D01*
X-71932Y-120446D01*
X-71887Y-120434D01*
X-71800Y-120422D01*
X-71680Y-120394D01*
X-71539Y-120346D01*
X-71360Y-120290D01*
X-71256Y-120250D01*
X-71148Y-120197D01*
X-71036Y-120153D01*
X-69707Y-119504D01*
X-71847Y-115117D01*
D02*
G37*
G36*
X-88176Y-123101D02*
X-88345Y-123112D01*
X-88524Y-123148D01*
X-88611Y-123180D01*
X-88706Y-123216D01*
X-88756Y-123240D01*
X-88785Y-123265D01*
X-88873Y-123318D01*
X-88973Y-123408D01*
X-89077Y-123510D01*
X-89186Y-123645D01*
X-89274Y-123802D01*
X-89312Y-123892D01*
X-89347Y-123991D01*
X-89342Y-124000D01*
X-89355Y-124016D01*
X-89360Y-124049D01*
X-89360Y-124090D01*
X-89369Y-124136D01*
X-89378Y-124202D01*
X-89374Y-124272D01*
X-89371Y-124363D01*
X-89368Y-124454D01*
X-89352Y-124550D01*
X-89337Y-124665D01*
X-89309Y-124786D01*
X-89273Y-124902D01*
X-89229Y-125035D01*
X-89176Y-125184D01*
X-89108Y-125325D01*
X-89103Y-125333D01*
X-89091Y-125358D01*
X-89071Y-125400D01*
X-89038Y-125446D01*
X-89006Y-125512D01*
X-88961Y-125583D01*
X-88855Y-125737D01*
X-88720Y-125908D01*
X-88569Y-126071D01*
X-88393Y-126221D01*
X-88294Y-126276D01*
X-88199Y-126322D01*
X-88195Y-126331D01*
X-88175Y-126331D01*
X-88113Y-126352D01*
X-88006Y-126382D01*
X-87869Y-126408D01*
X-87721Y-126418D01*
X-87547Y-126416D01*
X-87369Y-126380D01*
X-87278Y-126356D01*
X-87145Y-126291D01*
X-87115Y-126267D01*
X-87028Y-126214D01*
X-86936Y-126128D01*
X-86824Y-126022D01*
X-86727Y-125882D01*
X-86639Y-125726D01*
X-86605Y-125627D01*
X-86571Y-125528D01*
X-86575Y-125520D01*
X-86562Y-125503D01*
X-86558Y-125470D01*
X-86557Y-125429D01*
X-86549Y-125383D01*
X-86548Y-125321D01*
X-86543Y-125247D01*
X-86551Y-125168D01*
X-86554Y-125077D01*
X-86565Y-124970D01*
X-86585Y-124866D01*
X-86608Y-124754D01*
X-86649Y-124630D01*
X-86689Y-124505D01*
X-86733Y-124373D01*
X-86802Y-124231D01*
X-86806Y-124223D01*
X-86818Y-124198D01*
X-86838Y-124157D01*
X-86875Y-124102D01*
X-86907Y-124036D01*
X-86956Y-123957D01*
X-87066Y-123795D01*
X-87205Y-123615D01*
X-87348Y-123449D01*
X-87524Y-123298D01*
X-87615Y-123239D01*
X-87710Y-123193D01*
X-87734Y-123184D01*
X-87796Y-123163D01*
X-87891Y-123137D01*
X-88023Y-123119D01*
X-88176Y-123101D01*
D02*
G37*
G36*
X-76435Y-119587D02*
X-78770Y-120726D01*
X-78766Y-120734D01*
X-78758Y-120751D01*
X-78738Y-120771D01*
X-78721Y-120805D01*
X-78656Y-120896D01*
X-78579Y-120992D01*
X-78472Y-121105D01*
X-78370Y-121209D01*
X-78243Y-121301D01*
X-78115Y-121373D01*
X-78111Y-121381D01*
X-78090Y-121382D01*
X-78024Y-121411D01*
X-77917Y-121441D01*
X-77781Y-121467D01*
X-77620Y-121481D01*
X-77438Y-121475D01*
X-77239Y-121440D01*
X-77144Y-121403D01*
X-77040Y-121363D01*
X-76990Y-121339D01*
X-76961Y-121314D01*
X-76873Y-121261D01*
X-76778Y-121184D01*
X-76665Y-121077D01*
X-76552Y-120950D01*
X-76459Y-120802D01*
X-76379Y-120629D01*
X-76371Y-120605D01*
X-76358Y-120547D01*
X-76336Y-120444D01*
X-76326Y-120316D01*
X-76317Y-120167D01*
X-76332Y-119989D01*
X-76367Y-119790D01*
X-76435Y-119587D01*
D02*
G37*
G36*
X-96953Y-127208D02*
X-97061Y-127219D01*
X-97185Y-127239D01*
X-97318Y-127283D01*
X-97472Y-127347D01*
X-97538Y-127380D01*
X-97617Y-127429D01*
X-97701Y-127490D01*
X-97809Y-127563D01*
X-97909Y-127653D01*
X-98013Y-127755D01*
X-98110Y-127874D01*
X-98122Y-127891D01*
X-98143Y-127932D01*
X-98181Y-128002D01*
X-98219Y-128092D01*
X-98262Y-128195D01*
X-98304Y-128319D01*
X-98322Y-128451D01*
X-98336Y-128592D01*
X-98340Y-128604D01*
X-98332Y-128641D01*
X-98321Y-128708D01*
X-98309Y-128795D01*
X-98285Y-128906D01*
X-98245Y-129031D01*
X-98184Y-129176D01*
X-98112Y-129347D01*
X-97990Y-129616D01*
X-97982Y-129612D01*
X-97978Y-129600D01*
X-97957Y-129579D01*
X-97928Y-129555D01*
X-97894Y-129518D01*
X-97852Y-129477D01*
X-97802Y-129432D01*
X-97744Y-129383D01*
X-97682Y-129322D01*
X-97598Y-129261D01*
X-97519Y-129191D01*
X-97423Y-129113D01*
X-97319Y-129032D01*
X-97215Y-128950D01*
X-97090Y-128869D01*
X-96961Y-128775D01*
X-96944Y-128767D01*
X-96898Y-128734D01*
X-96823Y-128677D01*
X-96740Y-128616D01*
X-96648Y-128550D01*
X-96561Y-128477D01*
X-96482Y-128407D01*
X-96415Y-128334D01*
X-96406Y-128329D01*
X-96390Y-128301D01*
X-96364Y-128268D01*
X-96343Y-128227D01*
X-96276Y-128112D01*
X-96242Y-127971D01*
X-96246Y-127963D01*
X-96237Y-127938D01*
X-96245Y-127901D01*
X-96249Y-127851D01*
X-96256Y-127794D01*
X-96264Y-127736D01*
X-96288Y-127665D01*
X-96312Y-127594D01*
X-96316Y-127586D01*
X-96337Y-127545D01*
X-96369Y-127499D01*
X-96418Y-127440D01*
X-96480Y-127378D01*
X-96558Y-127323D01*
X-96648Y-127264D01*
X-96751Y-127222D01*
X-96763Y-127218D01*
X-96805Y-127217D01*
X-96871Y-127208D01*
X-96953Y-127208D01*
D02*
G37*
G36*
X-103922Y-130679D02*
X-104104Y-130685D01*
X-104299Y-130729D01*
X-104394Y-130765D01*
X-104498Y-130805D01*
X-104548Y-130829D01*
X-104586Y-130858D01*
X-104669Y-130919D01*
X-104781Y-131005D01*
X-104890Y-131120D01*
X-105007Y-131259D01*
X-105100Y-131428D01*
X-105142Y-131531D01*
X-105176Y-131630D01*
X-105180Y-131642D01*
X-105185Y-131654D01*
X-105189Y-131687D01*
X-105198Y-131733D01*
X-105203Y-131786D01*
X-105211Y-131853D01*
X-105212Y-131935D01*
X-105213Y-132018D01*
X-105206Y-132117D01*
X-105186Y-132221D01*
X-105171Y-132337D01*
X-105143Y-132457D01*
X-105107Y-132594D01*
X-105063Y-132726D01*
X-105011Y-132876D01*
X-104938Y-133025D01*
X-104934Y-133034D01*
X-104921Y-133059D01*
X-104901Y-133100D01*
X-104868Y-133146D01*
X-104836Y-133212D01*
X-104791Y-133283D01*
X-104681Y-133446D01*
X-104551Y-133608D01*
X-104387Y-133775D01*
X-104206Y-133913D01*
X-104112Y-133981D01*
X-104009Y-134023D01*
X-104005Y-134031D01*
X-103984Y-134031D01*
X-103910Y-134057D01*
X-103807Y-134079D01*
X-103671Y-134105D01*
X-103509Y-134119D01*
X-103328Y-134112D01*
X-103141Y-134073D01*
X-103046Y-134037D01*
X-102942Y-133996D01*
X-102892Y-133972D01*
X-102854Y-133943D01*
X-102767Y-133890D01*
X-102659Y-133796D01*
X-102542Y-133678D01*
X-102424Y-133538D01*
X-102332Y-133370D01*
X-102289Y-133266D01*
X-102255Y-133168D01*
X-102260Y-133159D01*
X-102247Y-133143D01*
X-102242Y-133110D01*
X-102234Y-133064D01*
X-102229Y-133011D01*
X-102228Y-132949D01*
X-102228Y-132866D01*
X-102227Y-132783D01*
X-102234Y-132684D01*
X-102241Y-132585D01*
X-102265Y-132473D01*
X-102293Y-132353D01*
X-102325Y-132224D01*
X-102369Y-132091D01*
X-102430Y-131946D01*
X-102490Y-131801D01*
X-102494Y-131792D01*
X-102506Y-131768D01*
X-102527Y-131726D01*
X-102563Y-131672D01*
X-102596Y-131605D01*
X-102640Y-131535D01*
X-102751Y-131372D01*
X-102889Y-131193D01*
X-103053Y-131026D01*
X-103229Y-130876D01*
X-103328Y-130821D01*
X-103427Y-130766D01*
X-103435Y-130770D01*
X-103451Y-130758D01*
X-103522Y-130740D01*
X-103629Y-130710D01*
X-103761Y-130693D01*
X-103922Y-130679D01*
D02*
G37*
G36*
X-40977Y-155336D02*
X-42340Y-156000D01*
X-42394Y-156037D01*
X-42514Y-156106D01*
X-42652Y-156183D01*
X-42793Y-156273D01*
X-42930Y-156371D01*
X-43039Y-156465D01*
X-43051Y-156481D01*
X-43089Y-156510D01*
X-43135Y-156563D01*
X-43193Y-156633D01*
X-43252Y-156723D01*
X-43311Y-156814D01*
X-43366Y-156912D01*
X-43416Y-157019D01*
X-43417Y-157040D01*
X-43434Y-157090D01*
X-43455Y-157172D01*
X-43473Y-157283D01*
X-43487Y-157424D01*
X-43501Y-157585D01*
X-43498Y-157759D01*
X-43479Y-157945D01*
X-43475Y-157953D01*
X-43475Y-157974D01*
X-43472Y-158003D01*
X-43464Y-158040D01*
X-43452Y-158086D01*
X-43440Y-158152D01*
X-43428Y-158218D01*
X-43412Y-158293D01*
X-43356Y-158471D01*
X-43288Y-158675D01*
X-43199Y-158899D01*
X-43094Y-159136D01*
X-43090Y-159144D01*
X-43074Y-159177D01*
X-43054Y-159219D01*
X-43013Y-159281D01*
X-42976Y-159356D01*
X-42927Y-159435D01*
X-42871Y-159531D01*
X-42814Y-159626D01*
X-42663Y-159830D01*
X-42499Y-160039D01*
X-42319Y-160218D01*
X-42217Y-160302D01*
X-42122Y-160369D01*
X-42118Y-160377D01*
X-42093Y-160386D01*
X-42065Y-160403D01*
X-42032Y-160428D01*
X-41925Y-160478D01*
X-41793Y-160538D01*
X-41632Y-160593D01*
X-41455Y-160640D01*
X-41269Y-160663D01*
X-41083Y-160665D01*
X-41062Y-160665D01*
X-41017Y-160653D01*
X-40930Y-160641D01*
X-40810Y-160614D01*
X-40669Y-160565D01*
X-40490Y-160509D01*
X-40387Y-160469D01*
X-40278Y-160416D01*
X-40166Y-160372D01*
X-38837Y-159723D01*
X-40977Y-155336D01*
D02*
G37*
G36*
X-57306Y-163321D02*
X-57476Y-163331D01*
X-57654Y-163367D01*
X-57741Y-163399D01*
X-57836Y-163435D01*
X-57886Y-163460D01*
X-57915Y-163484D01*
X-58003Y-163537D01*
X-58103Y-163627D01*
X-58207Y-163729D01*
X-58316Y-163865D01*
X-58404Y-164021D01*
X-58443Y-164111D01*
X-58477Y-164210D01*
X-58472Y-164219D01*
X-58485Y-164235D01*
X-58489Y-164268D01*
X-58490Y-164310D01*
X-58499Y-164355D01*
X-58508Y-164421D01*
X-58504Y-164491D01*
X-58501Y-164582D01*
X-58498Y-164673D01*
X-58482Y-164769D01*
X-58467Y-164884D01*
X-58439Y-165005D01*
X-58403Y-165121D01*
X-58359Y-165254D01*
X-58306Y-165403D01*
X-58238Y-165544D01*
X-58233Y-165553D01*
X-58221Y-165578D01*
X-58201Y-165619D01*
X-58168Y-165665D01*
X-58136Y-165731D01*
X-58091Y-165802D01*
X-57985Y-165956D01*
X-57850Y-166127D01*
X-57699Y-166290D01*
X-57523Y-166440D01*
X-57424Y-166495D01*
X-57329Y-166542D01*
X-57325Y-166550D01*
X-57305Y-166550D01*
X-57243Y-166571D01*
X-57136Y-166601D01*
X-56999Y-166627D01*
X-56851Y-166637D01*
X-56677Y-166635D01*
X-56499Y-166599D01*
X-56408Y-166575D01*
X-56275Y-166511D01*
X-56245Y-166486D01*
X-56158Y-166433D01*
X-56066Y-166347D01*
X-55954Y-166241D01*
X-55857Y-166101D01*
X-55769Y-165945D01*
X-55735Y-165846D01*
X-55701Y-165747D01*
X-55705Y-165739D01*
X-55692Y-165722D01*
X-55688Y-165689D01*
X-55687Y-165648D01*
X-55679Y-165603D01*
X-55678Y-165541D01*
X-55673Y-165466D01*
X-55681Y-165387D01*
X-55684Y-165296D01*
X-55695Y-165189D01*
X-55715Y-165085D01*
X-55739Y-164974D01*
X-55779Y-164849D01*
X-55819Y-164725D01*
X-55863Y-164592D01*
X-55932Y-164451D01*
X-55936Y-164442D01*
X-55948Y-164417D01*
X-55968Y-164376D01*
X-56005Y-164322D01*
X-56037Y-164255D01*
X-56086Y-164176D01*
X-56196Y-164014D01*
X-56335Y-163835D01*
X-56478Y-163668D01*
X-56655Y-163517D01*
X-56745Y-163458D01*
X-56839Y-163412D01*
X-56864Y-163403D01*
X-56926Y-163382D01*
X-57021Y-163356D01*
X-57153Y-163339D01*
X-57306Y-163321D01*
D02*
G37*
G36*
X-45565Y-159806D02*
X-47900Y-160945D01*
X-47896Y-160953D01*
X-47888Y-160970D01*
X-47868Y-160991D01*
X-47851Y-161024D01*
X-47786Y-161115D01*
X-47709Y-161211D01*
X-47602Y-161324D01*
X-47500Y-161428D01*
X-47372Y-161521D01*
X-47245Y-161592D01*
X-47241Y-161600D01*
X-47220Y-161601D01*
X-47154Y-161630D01*
X-47047Y-161660D01*
X-46911Y-161686D01*
X-46750Y-161700D01*
X-46568Y-161694D01*
X-46369Y-161659D01*
X-46274Y-161622D01*
X-46170Y-161582D01*
X-46120Y-161558D01*
X-46091Y-161533D01*
X-46003Y-161480D01*
X-45908Y-161403D01*
X-45795Y-161296D01*
X-45682Y-161169D01*
X-45589Y-161021D01*
X-45509Y-160848D01*
X-45501Y-160824D01*
X-45488Y-160766D01*
X-45466Y-160663D01*
X-45457Y-160535D01*
X-45447Y-160386D01*
X-45462Y-160208D01*
X-45497Y-160009D01*
X-45565Y-159806D01*
D02*
G37*
G36*
X-66083Y-167427D02*
X-66191Y-167438D01*
X-66315Y-167458D01*
X-66448Y-167502D01*
X-66602Y-167567D01*
X-66668Y-167599D01*
X-66747Y-167648D01*
X-66831Y-167709D01*
X-66939Y-167782D01*
X-67039Y-167872D01*
X-67143Y-167975D01*
X-67240Y-168094D01*
X-67252Y-168110D01*
X-67273Y-168151D01*
X-67311Y-168221D01*
X-67349Y-168312D01*
X-67392Y-168415D01*
X-67434Y-168538D01*
X-67452Y-168670D01*
X-67466Y-168811D01*
X-67470Y-168823D01*
X-67462Y-168860D01*
X-67450Y-168927D01*
X-67439Y-169014D01*
X-67415Y-169126D01*
X-67375Y-169250D01*
X-67315Y-169395D01*
X-67242Y-169566D01*
X-67120Y-169836D01*
X-67112Y-169832D01*
X-67108Y-169819D01*
X-67087Y-169799D01*
X-67058Y-169774D01*
X-67024Y-169737D01*
X-66982Y-169696D01*
X-66933Y-169651D01*
X-66874Y-169602D01*
X-66811Y-169541D01*
X-66728Y-169480D01*
X-66649Y-169410D01*
X-66553Y-169333D01*
X-66449Y-169251D01*
X-66345Y-169169D01*
X-66220Y-169088D01*
X-66091Y-168994D01*
X-66074Y-168986D01*
X-66028Y-168953D01*
X-65953Y-168896D01*
X-65870Y-168835D01*
X-65778Y-168770D01*
X-65691Y-168696D01*
X-65612Y-168626D01*
X-65545Y-168553D01*
X-65536Y-168549D01*
X-65520Y-168520D01*
X-65494Y-168487D01*
X-65473Y-168446D01*
X-65406Y-168331D01*
X-65372Y-168191D01*
X-65376Y-168182D01*
X-65367Y-168158D01*
X-65375Y-168120D01*
X-65379Y-168071D01*
X-65386Y-168013D01*
X-65394Y-167955D01*
X-65418Y-167884D01*
X-65442Y-167814D01*
X-65446Y-167805D01*
X-65467Y-167764D01*
X-65499Y-167718D01*
X-65548Y-167660D01*
X-65610Y-167597D01*
X-65688Y-167542D01*
X-65778Y-167484D01*
X-65881Y-167441D01*
X-65893Y-167437D01*
X-65935Y-167437D01*
X-66001Y-167428D01*
X-66083Y-167427D01*
D02*
G37*
G36*
X-73052Y-170898D02*
X-73234Y-170904D01*
X-73429Y-170948D01*
X-73524Y-170984D01*
X-73628Y-171024D01*
X-73678Y-171049D01*
X-73716Y-171077D01*
X-73799Y-171138D01*
X-73911Y-171224D01*
X-74020Y-171339D01*
X-74137Y-171478D01*
X-74230Y-171647D01*
X-74272Y-171750D01*
X-74306Y-171849D01*
X-74310Y-171861D01*
X-74315Y-171873D01*
X-74319Y-171907D01*
X-74328Y-171952D01*
X-74332Y-172006D01*
X-74341Y-172072D01*
X-74342Y-172154D01*
X-74343Y-172237D01*
X-74336Y-172336D01*
X-74316Y-172440D01*
X-74301Y-172556D01*
X-74273Y-172676D01*
X-74237Y-172813D01*
X-74193Y-172946D01*
X-74141Y-173095D01*
X-74068Y-173245D01*
X-74064Y-173253D01*
X-74051Y-173278D01*
X-74031Y-173319D01*
X-73998Y-173365D01*
X-73966Y-173432D01*
X-73921Y-173502D01*
X-73811Y-173665D01*
X-73681Y-173827D01*
X-73517Y-173994D01*
X-73336Y-174132D01*
X-73242Y-174200D01*
X-73139Y-174242D01*
X-73135Y-174250D01*
X-73114Y-174251D01*
X-73040Y-174276D01*
X-72937Y-174298D01*
X-72801Y-174324D01*
X-72639Y-174338D01*
X-72457Y-174331D01*
X-72271Y-174292D01*
X-72175Y-174256D01*
X-72072Y-174215D01*
X-72022Y-174191D01*
X-71984Y-174162D01*
X-71897Y-174109D01*
X-71789Y-174016D01*
X-71672Y-173897D01*
X-71554Y-173757D01*
X-71462Y-173589D01*
X-71420Y-173486D01*
X-71385Y-173387D01*
X-71389Y-173379D01*
X-71377Y-173362D01*
X-71372Y-173329D01*
X-71364Y-173284D01*
X-71359Y-173230D01*
X-71358Y-173168D01*
X-71358Y-173085D01*
X-71357Y-173002D01*
X-71364Y-172903D01*
X-71371Y-172804D01*
X-71395Y-172692D01*
X-71423Y-172572D01*
X-71455Y-172443D01*
X-71499Y-172311D01*
X-71560Y-172165D01*
X-71620Y-172020D01*
X-71624Y-172012D01*
X-71636Y-171987D01*
X-71656Y-171945D01*
X-71693Y-171891D01*
X-71726Y-171824D01*
X-71770Y-171754D01*
X-71880Y-171591D01*
X-72019Y-171412D01*
X-72183Y-171245D01*
X-72359Y-171095D01*
X-72458Y-171040D01*
X-72557Y-170985D01*
X-72565Y-170989D01*
X-72582Y-170977D01*
X-72652Y-170959D01*
X-72759Y-170930D01*
X-72891Y-170912D01*
X-73052Y-170898D01*
D02*
G37*
%LPD*%
D47*
X217171Y-264653D02*
G03*
X270795Y-210819I-118J53742D01*
G01*
X270608Y208316D02*
G03*
X218774Y263901I-53710J1876D01*
G01*
X-207022Y264549D02*
G03*
X-257878Y208067I2813J-53669D01*
G01*
X-258098Y-210417D02*
G03*
X-204355Y-264160I53742J0D01*
G01*
X217171D01*
X270608Y-210819D02*
X270608Y208316D01*
X-207022Y264160D02*
X218774D01*
X-258098Y-210417D02*
Y207992D01*
D48*
X-153419Y91622D02*
G03*
X-157240Y81620I11179J-10002D01*
G01*
X-138751Y-197016D02*
G03*
X-125240Y-205500I13511J6516D01*
G01*
X162760Y185620D02*
G03*
X147760Y200620I-15000J0D01*
G01*
X162760Y185620D02*
G03*
X147760Y200620I-15000J0D01*
G01*
X158367Y117622D02*
G03*
X162760Y128229I-10607J10607D01*
G01*
X158367Y117622D02*
G03*
X162760Y128229I-10607J10607D01*
G01*
X138401Y103870D02*
G03*
X149008Y108263I0J15000D01*
G01*
X138401Y103870D02*
G03*
X149008Y108263I0J15000D01*
G01*
X18291Y200620D02*
G03*
X14505Y200135I0J-15000D01*
G01*
X18291Y200620D02*
G03*
X14490Y200131I0J-15000D01*
G01*
X-31174Y188220D02*
G03*
X-33834Y187253I3771J-14519D01*
G01*
X-31189Y188216D02*
G03*
X-33851Y187245I3786J-14515D01*
G01*
X162760Y-44250D02*
G03*
X147760Y-29250I-15000J0D01*
G01*
X162760Y-44250D02*
G03*
X147760Y-29250I-15000J0D01*
G01*
X158367Y-112248D02*
G03*
X162760Y-101641I-10607J10607D01*
G01*
X138401Y-126000D02*
G03*
X149008Y-121607I0J15000D01*
G01*
X158367Y-112248D02*
G03*
X162760Y-101641I-10607J10607D01*
G01*
X138401Y-126000D02*
G03*
X149008Y-121607I0J15000D01*
G01*
X18291Y-29250D02*
G03*
X14505Y-29735I0J-15000D01*
G01*
X-31174Y-41650D02*
G03*
X-33834Y-42617I3771J-14519D01*
G01*
X18291Y-29250D02*
G03*
X14490Y-29739I0J-15000D01*
G01*
X-31189Y-41654D02*
G03*
X-33851Y-42625I3786J-14515D01*
G01*
X-110483Y144434D02*
G03*
X-112974Y141964I9243J-11814D01*
G01*
X-110491Y144428D02*
G03*
X-112983Y141953I9251J-11808D01*
G01*
X-138751Y32854D02*
G03*
X-125240Y24370I13511J6516D01*
G01*
X-138751Y32854D02*
G03*
X-125240Y24370I13511J6516D01*
G01*
X-110491Y-85442D02*
G03*
X-112983Y-87917I9251J-11808D01*
G01*
X-138751Y-197016D02*
G03*
X-125240Y-205500I13511J6516D01*
G01*
X-153408Y-138236D02*
G03*
X-157240Y-148250I11168J-10014D01*
G01*
X-153419Y-138248D02*
G03*
X-157240Y-148250I11179J-10002D01*
G01*
X78740Y24130D02*
X198120D01*
X-74670Y28109D02*
X-35560Y46990D01*
X-200660Y-29250D02*
X-113030D01*
X-200660Y200620D02*
X-113030D01*
X77470Y-205740D02*
X196850D01*
X-194317Y81357D02*
X-162070Y81520D01*
X130175Y103870D02*
X196850D01*
X130175Y200620D02*
X198120D01*
X128905Y-29250D02*
X198120D01*
X130175Y-126000D02*
X195580D01*
X-190507Y-148513D02*
X-158260Y-148350D01*
X-179070Y24130D02*
X-131590D01*
X-179070Y-205740D02*
X-131590D01*
X16370Y200620D02*
X50165D01*
X14490Y200131D02*
X16370Y200620D01*
X-72390Y-200660D02*
X-30480Y-180340D01*
X-150199Y95216D02*
X-118179Y135428D01*
X-149860Y-133350D02*
X-117560Y-93665D01*
X40666Y-146650D02*
X68367Y-133350D01*
X36376Y81160D02*
X65722Y95250D01*
X18291Y-29250D02*
X48895D01*
X-58169Y175705D02*
X-33851Y187245D01*
X-53863Y-52122D02*
X-33851Y-42625D01*
X149008Y108263D02*
X156950Y116205D01*
X-522Y196215D02*
X14490Y200131D01*
X-31174Y188220D02*
X-522Y196215D01*
X149008Y-121607D02*
X156950Y-113665D01*
X14490Y-29739D02*
X14505Y-29735D01*
X-522Y-33655D02*
X14490Y-29739D01*
X-31174Y-41650D02*
X-3810Y-34513D01*
X-31189Y188216D02*
X-31174Y188220D01*
X-33851Y187245D02*
X-33834Y187253D01*
X-31189Y-41654D02*
X-31174Y-41650D01*
X-33851Y-42625D02*
X-33834Y-42617D01*
D71*
X72946Y146877D02*
X86573Y146877D01*
X86574Y140249D01*
X72947Y140249D02*
X86574Y140249D01*
X72946Y146877D02*
X72947Y140249D01*
X-42898Y81570D02*
X-38076Y71683D01*
X-23016Y91267D02*
X-18194Y81381D01*
X-38076Y71683D02*
X-18194Y81381D01*
X-42898Y81570D02*
X-23016Y91267D01*
X-63957Y124167D02*
X-60231Y116527D01*
X-78338Y117153D02*
X-63957Y124167D01*
X-78338Y117153D02*
X-74612Y109514D01*
X-60231Y116527D01*
X-42898Y-148300D02*
X-38076Y-158187D01*
X-23016Y-138603D02*
X-18194Y-148489D01*
X-38076Y-158187D02*
X-18194Y-148489D01*
X-42898Y-148300D02*
X-23016Y-138603D01*
X-63957Y-105703D02*
X-60231Y-113343D01*
X-78338Y-112717D02*
X-63957Y-105703D01*
X-78338Y-112717D02*
X-74612Y-120356D01*
X-60231Y-113343D01*
M02*
