G04*
G04 #@! TF.GenerationSoftware,Altium Limited,Altium Designer,23.2.1 (34)*
G04*
G04 Layer_Physical_Order=3*
G04 Layer_Color=16440176*
%FSLAX44Y44*%
%MOMM*%
G71*
G04*
G04 #@! TF.SameCoordinates,96D2EB81-E719-42E9-B1B6-D61F4878D9FD*
G04*
G04*
G04 #@! TF.FilePolarity,Positive*
G04*
G01*
G75*
%ADD10C,0.1524*%
%ADD11C,0.3810*%
%ADD47C,0.2540*%
%ADD48C,3.0000*%
%ADD54C,0.3000*%
%ADD55C,0.2410*%
%ADD56C,0.3050*%
G36*
X145010Y129063D02*
X137510Y121313D01*
X78760D01*
X48260Y107313D01*
X47376Y109076D01*
X50577Y110690D01*
X51004Y111187D01*
X51205Y111419D01*
X51133Y112380D01*
X50403Y113008D01*
X50097Y112985D01*
X49444Y112936D01*
X47050Y111729D01*
X45845Y112128D01*
X14163Y175279D01*
X14371Y175487D01*
X14660Y176185D01*
Y176941D01*
X14432Y177490D01*
X14434Y177803D01*
X14871Y178935D01*
X18204Y179882D01*
X19445Y180159D01*
X19446D01*
X20641Y180284D01*
X34715Y180284D01*
X35910Y179090D01*
Y179063D01*
X36089Y178164D01*
X36598Y177401D01*
X37361Y176892D01*
X38260Y176713D01*
X39159Y176892D01*
X39922Y177401D01*
X40431Y178164D01*
X40610Y179063D01*
Y180063D01*
X40431Y180962D01*
X39922Y181725D01*
X38503Y183144D01*
X39029Y184414D01*
X145010D01*
Y129063D01*
D02*
G37*
G36*
X43469Y109922D02*
X39333Y107836D01*
X39171Y107884D01*
X38160Y108667D01*
Y108941D01*
X37871Y109639D01*
X37336Y110174D01*
X36638Y110463D01*
X35882D01*
X35184Y110174D01*
X34649Y109639D01*
X34360Y108941D01*
Y108185D01*
X34649Y107487D01*
X35042Y107094D01*
X35088Y106258D01*
X35004Y105652D01*
X25583Y100900D01*
X25516Y100917D01*
X24410Y101731D01*
Y101941D01*
X24121Y102639D01*
X23586Y103174D01*
X22888Y103463D01*
X22132D01*
X21434Y103174D01*
X20899Y102639D01*
X20610Y101941D01*
Y101185D01*
X20899Y100487D01*
X21249Y100137D01*
X21282Y99183D01*
X21184Y98681D01*
X4394Y90212D01*
X3183Y90837D01*
X3081Y90972D01*
X2835Y91566D01*
X2301Y92100D01*
X1602Y92389D01*
X847D01*
X148Y92100D01*
X-386Y91566D01*
X-676Y90867D01*
Y90112D01*
X-386Y89413D01*
X-260Y89287D01*
X-348Y87920D01*
X-417Y87785D01*
X-21570Y77115D01*
X-21905Y77201D01*
X-22996Y77818D01*
X-23129Y78139D01*
X-23664Y78674D01*
X-24362Y78963D01*
X-25118D01*
X-25816Y78674D01*
X-26351Y78139D01*
X-26640Y77441D01*
Y76685D01*
X-26351Y75987D01*
X-26434Y75616D01*
X-26804Y75401D01*
X-28244Y75857D01*
X-33031Y85976D01*
X-31185Y89849D01*
X-31183Y89897D01*
X-31149Y89931D01*
X-31158Y90371D01*
X-31135Y90810D01*
X-31167Y90846D01*
X-31168Y90894D01*
X-34153Y97717D01*
X-34242Y97802D01*
X-34267Y97922D01*
X-34585Y98389D01*
X-34688Y98456D01*
X-34735Y98569D01*
X-35623Y99458D01*
X-35634Y99734D01*
X-35251Y100882D01*
X-35081Y100952D01*
X-34629Y101404D01*
X-34385Y101994D01*
Y102632D01*
X-34629Y103222D01*
X-35081Y103674D01*
X-35245Y103742D01*
X-35732Y104243D01*
X-35908Y105188D01*
X-35885Y105244D01*
Y105882D01*
X-36129Y106472D01*
X-36581Y106924D01*
X-36745Y106992D01*
X-37232Y107493D01*
X-37408Y108438D01*
X-37385Y108494D01*
Y109132D01*
X-37629Y109722D01*
X-38081Y110174D01*
X-38481Y110339D01*
X-39607Y112403D01*
X-39606Y112407D01*
X-39582Y112421D01*
X-39607Y112588D01*
X-39351Y113821D01*
X-38390Y117988D01*
X-14563Y130192D01*
X-13540Y129343D01*
Y128587D01*
X-13251Y127889D01*
X-12716Y127354D01*
X-12018Y127065D01*
X-11262D01*
X-10564Y127354D01*
X-10029Y127889D01*
X-9740Y128587D01*
Y129343D01*
X-10029Y130041D01*
X-10564Y130576D01*
X-10937Y130731D01*
X-11228Y131420D01*
X-11241Y131505D01*
X-11221Y132118D01*
X-11163Y132163D01*
X-8358Y137072D01*
X-8332Y137270D01*
X-8243Y137404D01*
X-8034Y138452D01*
X-8243Y139500D01*
X-8294Y139577D01*
X-8309Y139743D01*
X-21215Y164384D01*
X-21090Y164685D01*
Y165441D01*
X-21379Y166139D01*
X-21914Y166674D01*
X-22612Y166963D01*
X-23368D01*
X-24066Y166674D01*
X-24601Y166139D01*
X-24890Y165441D01*
Y164685D01*
X-24601Y163987D01*
X-24066Y163452D01*
X-23428Y163188D01*
X-19785Y156233D01*
X-19877Y155882D01*
X-20476Y154815D01*
X-20816Y154674D01*
X-21351Y154139D01*
X-21640Y153441D01*
Y152685D01*
X-21351Y151987D01*
X-20816Y151452D01*
X-20179Y151188D01*
X-15966Y143135D01*
X-16415Y142103D01*
X-16697Y141791D01*
X-17216Y141576D01*
X-17751Y141041D01*
X-18040Y140343D01*
Y139587D01*
X-17751Y138889D01*
X-17216Y138354D01*
X-16518Y138065D01*
X-16422D01*
X-15715Y137032D01*
X-16131Y135921D01*
X-46138Y120802D01*
X-46185Y120748D01*
X-46256Y120735D01*
X-46493Y120390D01*
X-46767Y120073D01*
X-46761Y120001D01*
X-46802Y119942D01*
X-47103Y118537D01*
X-48365Y118390D01*
X-51659Y125353D01*
X-47216Y127549D01*
X-43707Y126145D01*
X-42745Y126157D01*
X-42072Y126846D01*
X-42084Y127809D01*
X-42773Y128481D01*
X-46803Y130093D01*
X-46839Y130092D01*
X-46866Y130116D01*
X-47315Y130086D01*
X-47765Y130081D01*
X-47790Y130055D01*
X-47827Y130052D01*
X-51922Y128028D01*
X-53122Y128446D01*
X-63590Y150575D01*
X-25615Y168596D01*
X-25508Y168558D01*
X-25270Y168657D01*
X-24059Y169044D01*
X-18219Y170567D01*
X-17564Y169426D01*
X-17851Y169139D01*
X-18140Y168441D01*
Y167685D01*
X-17851Y166987D01*
X-17316Y166452D01*
X-16618Y166163D01*
X-15862D01*
X-15164Y166452D01*
X-14629Y166987D01*
X-14340Y167685D01*
Y168441D01*
X-14629Y169139D01*
X-15164Y169674D01*
X-15724Y169906D01*
X-15838Y170355D01*
X-15787Y171202D01*
X9727Y177857D01*
X43469Y109922D01*
D02*
G37*
G36*
X-66387Y148586D02*
X-65894Y148417D01*
X-56294Y128382D01*
X-55320Y126349D01*
X-63386Y122364D01*
X-64521Y121816D01*
X-64521Y121816D01*
X-64521D01*
X-65264Y122852D01*
X-65083Y123033D01*
X-64879Y123237D01*
X-64590Y123935D01*
Y124691D01*
X-64879Y125389D01*
X-65414Y125924D01*
X-66112Y126213D01*
X-66868D01*
X-67566Y125924D01*
X-68101Y125389D01*
X-68390Y124691D01*
Y123935D01*
X-68101Y123237D01*
X-67566Y122702D01*
X-66868Y122413D01*
X-66112Y122413D01*
X-65660Y121240D01*
X-69622Y119282D01*
X-72090Y121447D01*
Y121941D01*
X-72379Y122639D01*
X-72914Y123174D01*
X-73612Y123463D01*
X-74368D01*
X-75066Y123174D01*
X-75601Y122639D01*
X-75890Y121941D01*
Y121185D01*
X-75601Y120487D01*
X-75066Y119952D01*
X-74368Y119663D01*
X-73854D01*
X-73839Y119657D01*
X-73819Y119618D01*
X-70649Y116836D01*
X-70412Y116755D01*
X-70223Y116590D01*
X-69974Y116606D01*
X-69738Y116526D01*
X-69513Y116637D01*
X-69262Y116654D01*
X-55043Y123681D01*
X-53843Y123266D01*
X-48486Y112086D01*
X-48487Y112081D01*
X-48414Y111685D01*
X-48395Y111282D01*
X-45622Y105389D01*
X-45355Y105146D01*
X-45210Y104946D01*
X-45125Y104728D01*
X-44969Y103652D01*
X-45815Y102705D01*
X-46671Y102668D01*
X-46714Y102668D01*
X-47309D01*
X-47899Y102424D01*
X-48351Y101972D01*
X-48448Y101737D01*
X-48820Y101324D01*
X-49865Y101054D01*
X-49871Y101057D01*
X-50509D01*
X-50833Y100922D01*
X-55009Y102025D01*
X-56229Y102377D01*
X-56381Y102506D01*
X-56405Y102495D01*
X-56412Y102499D01*
X-58320Y106506D01*
X-58654Y106807D01*
X-58972Y107126D01*
X-62731Y108693D01*
X-62777Y108693D01*
X-62811Y108723D01*
X-63252Y108694D01*
X-63694Y108695D01*
X-63726Y108663D01*
X-63772Y108660D01*
X-100081Y90747D01*
X-101951Y92221D01*
Y92495D01*
X-102240Y93193D01*
X-102774Y93728D01*
X-103473Y94017D01*
X-104229D01*
X-104927Y93728D01*
X-105461Y93193D01*
X-105751Y92495D01*
Y91739D01*
X-105461Y91041D01*
X-104927Y90506D01*
X-104229Y90217D01*
X-103473D01*
X-103472Y90217D01*
X-101015Y88280D01*
X-100805Y88221D01*
X-100641Y88077D01*
X-100360Y88096D01*
X-100089Y88019D01*
X-99898Y88126D01*
X-99680Y88140D01*
X-63171Y106151D01*
X-60384Y104990D01*
X-58683Y101418D01*
X-58485Y101239D01*
X-58570Y101020D01*
X-59258Y100111D01*
X-59681D01*
X-60379Y99821D01*
X-60914Y99287D01*
X-61203Y98588D01*
Y97833D01*
X-60914Y97134D01*
X-60379Y96600D01*
X-59681Y96311D01*
X-58925D01*
X-58227Y96600D01*
X-57692Y97134D01*
X-57403Y97833D01*
Y98588D01*
X-57518Y98867D01*
X-57510Y98888D01*
X-57354Y99142D01*
X-56585Y99839D01*
X-51506Y98498D01*
X-51099Y98091D01*
X-50509Y97847D01*
X-49871D01*
X-49281Y98091D01*
X-48829Y98542D01*
X-47558Y98632D01*
X-47046Y98275D01*
X-47045Y98271D01*
X-47045Y98271D01*
X-47045Y98188D01*
Y97632D01*
X-46800Y97043D01*
X-46349Y96591D01*
X-45759Y96347D01*
X-45121D01*
X-44531Y96591D01*
X-44079Y97043D01*
X-43835Y97632D01*
Y98271D01*
X-44079Y98861D01*
X-44531Y99312D01*
X-44406Y100532D01*
X-44402Y100551D01*
X-44308Y100646D01*
X-42976Y100588D01*
X-40094Y94574D01*
X-40099Y94562D01*
X-40550Y94111D01*
X-40795Y93521D01*
Y92882D01*
X-40550Y92292D01*
X-40099Y91841D01*
X-39509Y91597D01*
X-38870D01*
X-38701Y91667D01*
X-35974Y85975D01*
X-36461Y84743D01*
X-40498Y82812D01*
X-40862Y82963D01*
X-41618D01*
X-42316Y82674D01*
X-42851Y82139D01*
X-43140Y81441D01*
Y80685D01*
X-42851Y79987D01*
X-42316Y79452D01*
X-41618Y79163D01*
X-40862D01*
X-40164Y79452D01*
X-39629Y79987D01*
X-39396Y80551D01*
X-35078Y82616D01*
X-35041Y82614D01*
X-34312Y82121D01*
X-33993Y81841D01*
X-29751Y72988D01*
X-33449Y71123D01*
X-34586Y70584D01*
X-34809Y70588D01*
X-35917Y71185D01*
X-56090Y82678D01*
Y82691D01*
X-56379Y83389D01*
X-56914Y83924D01*
X-57612Y84213D01*
X-58368D01*
X-59066Y83924D01*
X-59601Y83389D01*
X-59849Y82790D01*
X-64742Y80343D01*
X-75517Y91119D01*
X-75788Y91231D01*
X-76009Y91423D01*
X-76215Y91408D01*
X-76407Y91487D01*
X-76677Y91375D01*
X-76969Y91355D01*
X-82529Y88575D01*
X-82862Y88713D01*
X-83618D01*
X-84316Y88424D01*
X-84851Y87889D01*
X-85140Y87191D01*
Y86435D01*
X-84851Y85737D01*
X-84316Y85202D01*
X-83618Y84913D01*
X-82862D01*
X-82164Y85202D01*
X-81629Y85737D01*
X-81381Y86336D01*
X-76655Y88699D01*
X-65879Y77924D01*
X-65609Y77812D01*
X-65388Y77620D01*
X-65181Y77635D01*
X-64990Y77555D01*
X-64720Y77667D01*
X-64427Y77688D01*
X-58701Y80551D01*
X-58368Y80413D01*
X-57612D01*
X-57371Y80513D01*
X-36069Y68377D01*
X-35872Y68352D01*
X-35740Y68264D01*
X-34692Y68056D01*
X-33644Y68264D01*
X-33591Y68299D01*
X-33439Y68310D01*
X-30638Y69723D01*
X-29328Y68962D01*
X-29313Y68663D01*
X-41156Y62846D01*
X-85691Y41462D01*
X-104312D01*
X-104823Y41869D01*
X-105120Y41954D01*
X-105358Y42152D01*
X-106853Y42620D01*
X-107740Y43063D01*
X-108394Y42970D01*
X-108435Y42982D01*
X-110977Y42753D01*
X-111268Y42601D01*
X-111595Y42571D01*
X-113743Y41446D01*
X-114211Y41648D01*
X-114240Y41700D01*
X-113787Y43211D01*
X-112372Y43901D01*
X-110821Y45081D01*
X-109838Y46765D01*
X-109576Y48696D01*
X-110072Y50581D01*
X-111252Y52133D01*
X-112936Y53115D01*
X-114867Y53378D01*
X-116752Y52882D01*
X-119781Y51404D01*
X-120407Y52226D01*
X-120065Y53501D01*
X-117633Y54687D01*
X-116081Y55867D01*
X-115099Y57551D01*
X-114836Y59482D01*
X-115332Y61367D01*
X-116512Y62919D01*
X-118196Y63901D01*
X-120128Y64164D01*
X-122013Y63667D01*
X-125391Y62020D01*
X-126016Y62842D01*
X-125674Y64116D01*
X-122893Y65472D01*
X-121342Y66652D01*
X-120360Y68336D01*
X-120097Y70268D01*
X-120593Y72153D01*
X-121773Y73704D01*
X-123457Y74686D01*
X-125388Y74949D01*
X-127274Y74453D01*
X-130999Y72636D01*
X-131625Y73457D01*
X-131283Y74731D01*
X-128153Y76258D01*
X-126602Y77438D01*
X-125620Y79122D01*
X-125357Y81053D01*
X-125853Y82938D01*
X-127033Y84490D01*
X-128717Y85472D01*
X-130649Y85735D01*
X-132534Y85239D01*
X-136957Y83081D01*
X-137740Y84563D01*
X-136676Y85414D01*
X-136381Y85480D01*
X-136177Y85623D01*
X-135929Y85652D01*
X-133704Y86904D01*
X-133501Y87162D01*
X-133215Y87323D01*
X-131638Y89330D01*
X-131550Y89646D01*
X-131347Y89904D01*
X-130794Y91879D01*
X-122032Y102995D01*
X-120822Y102608D01*
X-120597Y97898D01*
X-120534Y97644D01*
X-120515Y97384D01*
X-120424Y97204D01*
X-120375Y97008D01*
X-120220Y96798D01*
X-120103Y96565D01*
X-110593Y84368D01*
X-109899Y83769D01*
X-109029Y83481D01*
X-108114Y83548D01*
X-107295Y83960D01*
X-106696Y84654D01*
X-106408Y85524D01*
X-106475Y86439D01*
X-106887Y87258D01*
X-115278Y98021D01*
X-115025Y99504D01*
X-114985Y99564D01*
X-114704Y99663D01*
X-114112D01*
X-113414Y99952D01*
X-113061Y100305D01*
X-109231D01*
X-108705Y99035D01*
X-108851Y98889D01*
X-109140Y98191D01*
Y97435D01*
X-108851Y96737D01*
X-108316Y96202D01*
X-107618Y95913D01*
X-106862D01*
X-106164Y96202D01*
X-105629Y96737D01*
X-105340Y97435D01*
Y98191D01*
X-105629Y98889D01*
X-106164Y99424D01*
X-106226Y99839D01*
X-106208Y100817D01*
X-88313Y118711D01*
X-88192Y118683D01*
X-87140Y118088D01*
Y117685D01*
X-86851Y116987D01*
X-86316Y116452D01*
X-85618Y116163D01*
X-84862D01*
X-84164Y116452D01*
X-83629Y116987D01*
X-83340Y117685D01*
Y118128D01*
X-80175Y121293D01*
X-79737Y121731D01*
X-79369Y122620D01*
Y123422D01*
X-79396Y123488D01*
X-79376Y123556D01*
X-79999Y129367D01*
X-80108Y129567D01*
X-80124Y129795D01*
X-80330Y129973D01*
X-80460Y130212D01*
X-80679Y130276D01*
X-80851Y130426D01*
X-86026Y132151D01*
X-86486Y132118D01*
X-86947Y132101D01*
X-92634Y129502D01*
X-93717Y130403D01*
X-93628Y130755D01*
X-93184Y131089D01*
X-68390Y148254D01*
X-68362Y148213D01*
X-68172Y148292D01*
X-67314Y148715D01*
X-66387Y148586D01*
D02*
G37*
G36*
X-82414Y128295D02*
X-82283Y127079D01*
X-82580Y126774D01*
X-83478Y126304D01*
X-83862Y126463D01*
X-84618D01*
X-85316Y126174D01*
X-85851Y125639D01*
X-86140Y124941D01*
Y124442D01*
X-93570Y117012D01*
X-94840Y117538D01*
Y117691D01*
X-95129Y118389D01*
X-95664Y118924D01*
X-96362Y119213D01*
X-97118D01*
X-97816Y118924D01*
X-98351Y118389D01*
X-98640Y117691D01*
Y116935D01*
X-98351Y116237D01*
X-97816Y115702D01*
X-97118Y115413D01*
X-96965D01*
X-96439Y114143D01*
X-107761Y102821D01*
X-113061D01*
X-113414Y103174D01*
X-114112Y103463D01*
X-114868D01*
X-114886Y103456D01*
X-114963Y103483D01*
X-115706Y104490D01*
X-111249Y109876D01*
X-110615Y109829D01*
X-109890Y108862D01*
Y108435D01*
X-109601Y107737D01*
X-109066Y107202D01*
X-108368Y106913D01*
X-107612D01*
X-106914Y107202D01*
X-106379Y107737D01*
X-106090Y108435D01*
Y109191D01*
X-106379Y109889D01*
X-106914Y110424D01*
X-107612Y110713D01*
X-108368D01*
X-108884Y110499D01*
X-109094Y110426D01*
X-109142Y110430D01*
X-109692Y111668D01*
X-109699Y111749D01*
X-98145Y125710D01*
X-97795Y125763D01*
X-96569Y125623D01*
X-96399Y125452D01*
X-95809Y125208D01*
X-95171D01*
X-94581Y125452D01*
X-94129Y125904D01*
X-94054Y126087D01*
X-86351Y129608D01*
X-82414Y128295D01*
D02*
G37*
G36*
X145010Y-100807D02*
X137510Y-108557D01*
X78760D01*
X48260Y-122557D01*
X47376Y-120794D01*
X50577Y-119180D01*
X51004Y-118683D01*
X51205Y-118450D01*
X51133Y-117491D01*
X50403Y-116862D01*
X50097Y-116885D01*
X49444Y-116934D01*
X47050Y-118141D01*
X45845Y-117742D01*
X14163Y-54591D01*
X14371Y-54383D01*
X14660Y-53685D01*
Y-52929D01*
X14371Y-52231D01*
X14279Y-52139D01*
X14599Y-50742D01*
X18786Y-49650D01*
X18870Y-49699D01*
Y-49699D01*
X20071Y-49586D01*
X34715Y-49586D01*
X35910Y-50780D01*
Y-50807D01*
X36089Y-51706D01*
X36598Y-52469D01*
X37361Y-52978D01*
X38260Y-53157D01*
X39159Y-52978D01*
X39922Y-52469D01*
X40431Y-51706D01*
X40610Y-50807D01*
Y-49807D01*
X40431Y-48908D01*
X39922Y-48145D01*
X38503Y-46726D01*
X39029Y-45456D01*
X145010D01*
Y-100807D01*
D02*
G37*
G36*
X43469Y-119948D02*
X39333Y-122034D01*
X39171Y-121986D01*
X38160Y-121203D01*
Y-120929D01*
X37871Y-120231D01*
X37336Y-119696D01*
X36638Y-119407D01*
X35882D01*
X35184Y-119696D01*
X34649Y-120231D01*
X34360Y-120929D01*
Y-121685D01*
X34649Y-122383D01*
X35042Y-122776D01*
X35088Y-123611D01*
X35004Y-124218D01*
X25583Y-128970D01*
X25516Y-128953D01*
X24410Y-128139D01*
Y-127929D01*
X24121Y-127231D01*
X23586Y-126696D01*
X22888Y-126407D01*
X22132D01*
X21434Y-126696D01*
X20899Y-127231D01*
X20610Y-127929D01*
Y-128685D01*
X20899Y-129383D01*
X21249Y-129733D01*
X21282Y-130688D01*
X21184Y-131189D01*
X4394Y-139658D01*
X3183Y-139033D01*
X3081Y-138898D01*
X2835Y-138304D01*
X2301Y-137770D01*
X1602Y-137481D01*
X847D01*
X148Y-137770D01*
X-386Y-138304D01*
X-676Y-139003D01*
Y-139759D01*
X-386Y-140457D01*
X-260Y-140583D01*
X-348Y-141950D01*
X-417Y-142085D01*
X-21570Y-152755D01*
X-21905Y-152669D01*
X-22996Y-152052D01*
X-23129Y-151731D01*
X-23664Y-151196D01*
X-24362Y-150907D01*
X-25118D01*
X-25816Y-151196D01*
X-26351Y-151731D01*
X-26640Y-152429D01*
Y-153185D01*
X-26351Y-153883D01*
X-26434Y-154255D01*
X-26804Y-154469D01*
X-28244Y-154013D01*
X-33031Y-143895D01*
X-31185Y-140021D01*
X-31183Y-139973D01*
X-31149Y-139939D01*
X-31158Y-139499D01*
X-31135Y-139060D01*
X-31167Y-139024D01*
X-31168Y-138976D01*
X-34153Y-132153D01*
X-34242Y-132068D01*
X-34267Y-131948D01*
X-34585Y-131481D01*
X-34688Y-131414D01*
X-34735Y-131301D01*
X-35604Y-130432D01*
X-35530Y-129919D01*
X-35178Y-129061D01*
X-34831Y-128918D01*
X-34379Y-128466D01*
X-34135Y-127876D01*
Y-127238D01*
X-34379Y-126648D01*
X-34831Y-126196D01*
X-35202Y-126043D01*
X-35482Y-125793D01*
X-35908Y-124682D01*
X-35885Y-124626D01*
Y-123988D01*
X-36129Y-123398D01*
X-36581Y-122946D01*
X-36745Y-122878D01*
X-37232Y-122376D01*
X-37408Y-121432D01*
X-37385Y-121376D01*
Y-120738D01*
X-37629Y-120148D01*
X-38081Y-119696D01*
X-38481Y-119531D01*
X-39607Y-117467D01*
X-39606Y-117463D01*
X-39582Y-117449D01*
X-39607Y-117282D01*
X-39351Y-116049D01*
X-38390Y-111882D01*
X-14563Y-99678D01*
X-13540Y-100527D01*
Y-101283D01*
X-13251Y-101981D01*
X-12716Y-102516D01*
X-12018Y-102805D01*
X-11262D01*
X-10564Y-102516D01*
X-10029Y-101981D01*
X-9740Y-101283D01*
Y-100527D01*
X-10029Y-99829D01*
X-10564Y-99294D01*
X-10937Y-99139D01*
X-11228Y-98450D01*
X-11241Y-98365D01*
X-11221Y-97752D01*
X-11163Y-97707D01*
X-8358Y-92798D01*
X-8332Y-92600D01*
X-8243Y-92466D01*
X-8034Y-91418D01*
X-8243Y-90370D01*
X-8294Y-90293D01*
X-8309Y-90127D01*
X-21215Y-65486D01*
X-21090Y-65185D01*
Y-64429D01*
X-21379Y-63731D01*
X-21914Y-63196D01*
X-22612Y-62907D01*
X-23368D01*
X-24066Y-63196D01*
X-24601Y-63731D01*
X-24890Y-64429D01*
Y-65185D01*
X-24601Y-65883D01*
X-24066Y-66418D01*
X-23428Y-66682D01*
X-19785Y-73637D01*
X-19877Y-73988D01*
X-20476Y-75055D01*
X-20816Y-75196D01*
X-21351Y-75731D01*
X-21640Y-76429D01*
Y-77185D01*
X-21351Y-77883D01*
X-20816Y-78418D01*
X-20179Y-78682D01*
X-15966Y-86735D01*
X-16415Y-87767D01*
X-16697Y-88079D01*
X-17216Y-88294D01*
X-17751Y-88829D01*
X-18040Y-89527D01*
Y-90283D01*
X-17751Y-90981D01*
X-17216Y-91516D01*
X-16518Y-91805D01*
X-16422D01*
X-15715Y-92838D01*
X-16131Y-93948D01*
X-46138Y-109068D01*
X-46185Y-109122D01*
X-46256Y-109135D01*
X-46493Y-109480D01*
X-46767Y-109797D01*
X-46761Y-109869D01*
X-46802Y-109928D01*
X-47103Y-111333D01*
X-48365Y-111480D01*
X-51659Y-104517D01*
X-47216Y-102321D01*
X-43707Y-103725D01*
X-42745Y-103713D01*
X-42072Y-103024D01*
X-42084Y-102062D01*
X-42773Y-101389D01*
X-46803Y-99777D01*
X-46839Y-99778D01*
X-46866Y-99754D01*
X-47315Y-99784D01*
X-47765Y-99789D01*
X-47790Y-99815D01*
X-47827Y-99818D01*
X-51922Y-101841D01*
X-52783Y-101542D01*
X-53278Y-101095D01*
X-63590Y-79295D01*
X-25542Y-61239D01*
X-25508Y-61312D01*
X-25267Y-61212D01*
X-24083Y-60832D01*
X-19233Y-59567D01*
X-18579Y-60709D01*
X-18601Y-60731D01*
X-18890Y-61429D01*
Y-62185D01*
X-18601Y-62883D01*
X-18066Y-63418D01*
X-17368Y-63707D01*
X-16612D01*
X-15914Y-63418D01*
X-15379Y-62883D01*
X-15090Y-62185D01*
Y-61429D01*
X-15379Y-60731D01*
X-15914Y-60196D01*
X-16184Y-60084D01*
X-16092Y-58748D01*
X9727Y-52013D01*
X43469Y-119948D01*
D02*
G37*
G36*
X-82414Y-101575D02*
X-82283Y-102791D01*
X-82580Y-103096D01*
X-83478Y-103566D01*
X-83862Y-103407D01*
X-84618D01*
X-85316Y-103696D01*
X-85851Y-104231D01*
X-86140Y-104929D01*
Y-105428D01*
X-93570Y-112858D01*
X-94840Y-112332D01*
Y-112179D01*
X-95129Y-111481D01*
X-95664Y-110946D01*
X-96362Y-110657D01*
X-97118D01*
X-97816Y-110946D01*
X-98351Y-111481D01*
X-98640Y-112179D01*
Y-112935D01*
X-98351Y-113633D01*
X-97816Y-114168D01*
X-97118Y-114457D01*
X-96965D01*
X-96439Y-115727D01*
X-107761Y-127049D01*
X-113061D01*
X-113414Y-126696D01*
X-114112Y-126407D01*
X-114868D01*
X-114886Y-126414D01*
X-114963Y-126387D01*
X-115706Y-125380D01*
X-111249Y-119993D01*
X-110615Y-120041D01*
X-109890Y-121008D01*
Y-121435D01*
X-109601Y-122133D01*
X-109066Y-122668D01*
X-108368Y-122957D01*
X-107612D01*
X-106914Y-122668D01*
X-106379Y-122133D01*
X-106090Y-121435D01*
Y-120679D01*
X-106379Y-119981D01*
X-106914Y-119446D01*
X-107612Y-119157D01*
X-108368D01*
X-108883Y-119370D01*
X-109094Y-119444D01*
X-109142Y-119440D01*
X-109692Y-118202D01*
X-109699Y-118120D01*
X-98145Y-104160D01*
X-97795Y-104107D01*
X-96569Y-104248D01*
X-96399Y-104418D01*
X-95809Y-104662D01*
X-95171D01*
X-94581Y-104418D01*
X-94129Y-103966D01*
X-94054Y-103783D01*
X-86351Y-100262D01*
X-82414Y-101575D01*
D02*
G37*
G36*
X-55320Y-103520D02*
X-63386Y-107506D01*
X-64521Y-108054D01*
X-64521Y-108054D01*
X-64521D01*
X-65264Y-107018D01*
X-65083Y-106837D01*
X-64879Y-106633D01*
X-64590Y-105935D01*
Y-105179D01*
X-64879Y-104481D01*
X-65414Y-103946D01*
X-66112Y-103657D01*
X-66868D01*
X-67566Y-103946D01*
X-68101Y-104481D01*
X-68390Y-105179D01*
Y-105935D01*
X-68101Y-106633D01*
X-67566Y-107168D01*
X-66868Y-107457D01*
X-66112Y-107457D01*
X-65660Y-108630D01*
X-69622Y-110589D01*
X-72090Y-108423D01*
Y-107929D01*
X-72379Y-107231D01*
X-72914Y-106696D01*
X-73612Y-106407D01*
X-74368D01*
X-75066Y-106696D01*
X-75601Y-107231D01*
X-75890Y-107929D01*
Y-108685D01*
X-75601Y-109383D01*
X-75066Y-109918D01*
X-74368Y-110207D01*
X-73854D01*
X-73839Y-110213D01*
X-73819Y-110252D01*
X-70649Y-113034D01*
X-70412Y-113115D01*
X-70223Y-113280D01*
X-69974Y-113264D01*
X-69738Y-113344D01*
X-69513Y-113233D01*
X-69262Y-113216D01*
X-55043Y-106189D01*
X-53843Y-106604D01*
X-48486Y-117784D01*
X-48487Y-117789D01*
X-48414Y-118185D01*
X-48395Y-118588D01*
X-45622Y-124481D01*
X-45355Y-124724D01*
X-45210Y-124924D01*
X-45125Y-125142D01*
X-44983Y-126126D01*
X-45916Y-126995D01*
X-46585Y-127054D01*
X-46675Y-127054D01*
X-47224D01*
X-47814Y-127299D01*
X-48265Y-127750D01*
X-48427Y-128141D01*
X-48674Y-128406D01*
X-49779Y-128851D01*
X-49871Y-128813D01*
X-50509D01*
X-50833Y-128948D01*
X-55009Y-127845D01*
X-56229Y-127493D01*
X-56381Y-127364D01*
X-56405Y-127375D01*
X-56412Y-127371D01*
X-58320Y-123364D01*
X-58654Y-123063D01*
X-58972Y-122744D01*
X-62731Y-121177D01*
X-62777Y-121177D01*
X-62811Y-121147D01*
X-63252Y-121176D01*
X-63694Y-121175D01*
X-63726Y-121207D01*
X-63772Y-121210D01*
X-100081Y-139123D01*
X-101951Y-137649D01*
Y-137375D01*
X-102240Y-136677D01*
X-102774Y-136142D01*
X-103473Y-135853D01*
X-104229D01*
X-104927Y-136142D01*
X-105461Y-136677D01*
X-105751Y-137375D01*
Y-138131D01*
X-105461Y-138829D01*
X-104927Y-139364D01*
X-104229Y-139653D01*
X-103473D01*
X-103472Y-139653D01*
X-101015Y-141590D01*
X-100805Y-141649D01*
X-100641Y-141793D01*
X-100360Y-141775D01*
X-100089Y-141851D01*
X-99898Y-141744D01*
X-99680Y-141730D01*
X-63171Y-123719D01*
X-60384Y-124880D01*
X-58683Y-128452D01*
X-58485Y-128631D01*
X-58570Y-128850D01*
X-59258Y-129759D01*
X-59681D01*
X-60379Y-130049D01*
X-60914Y-130583D01*
X-61203Y-131281D01*
Y-132037D01*
X-60914Y-132736D01*
X-60379Y-133270D01*
X-59681Y-133559D01*
X-58925D01*
X-58227Y-133270D01*
X-57692Y-132736D01*
X-57403Y-132037D01*
Y-131281D01*
X-57518Y-131003D01*
X-57510Y-130982D01*
X-57354Y-130728D01*
X-56585Y-130031D01*
X-51506Y-131372D01*
X-51099Y-131779D01*
X-50509Y-132023D01*
X-49871D01*
X-49281Y-131779D01*
X-48829Y-131328D01*
X-47494Y-131196D01*
X-47027Y-131480D01*
X-47018Y-131534D01*
X-47045Y-131599D01*
Y-132238D01*
X-46800Y-132828D01*
X-46349Y-133279D01*
X-45759Y-133523D01*
X-45121D01*
X-44531Y-133279D01*
X-44079Y-132828D01*
X-43835Y-132238D01*
Y-131599D01*
X-44079Y-131009D01*
X-44531Y-130558D01*
X-44676Y-130497D01*
X-44698Y-130474D01*
X-44724Y-130290D01*
X-44323Y-129216D01*
X-44309Y-129204D01*
X-42978Y-129277D01*
X-40094Y-135296D01*
X-40099Y-135308D01*
X-40550Y-135759D01*
X-40795Y-136349D01*
Y-136988D01*
X-40550Y-137578D01*
X-40099Y-138029D01*
X-39509Y-138273D01*
X-38870D01*
X-38701Y-138203D01*
X-35974Y-143895D01*
X-36461Y-145127D01*
X-40498Y-147058D01*
X-40862Y-146907D01*
X-41618D01*
X-42316Y-147196D01*
X-42851Y-147731D01*
X-43140Y-148429D01*
Y-149185D01*
X-42851Y-149883D01*
X-42316Y-150418D01*
X-41618Y-150707D01*
X-40862D01*
X-40164Y-150418D01*
X-39629Y-149883D01*
X-39396Y-149319D01*
X-35078Y-147254D01*
X-35041Y-147256D01*
X-34312Y-147750D01*
X-33993Y-148029D01*
X-29751Y-156882D01*
X-33449Y-158747D01*
X-34586Y-159286D01*
X-34809Y-159282D01*
X-35917Y-158685D01*
X-56090Y-147192D01*
Y-147179D01*
X-56379Y-146481D01*
X-56914Y-145946D01*
X-57612Y-145657D01*
X-58368D01*
X-59066Y-145946D01*
X-59601Y-146481D01*
X-59849Y-147080D01*
X-64742Y-149527D01*
X-75517Y-138751D01*
X-75788Y-138639D01*
X-76009Y-138447D01*
X-76215Y-138462D01*
X-76407Y-138383D01*
X-76677Y-138495D01*
X-76969Y-138515D01*
X-82529Y-141295D01*
X-82862Y-141157D01*
X-83618D01*
X-84316Y-141446D01*
X-84851Y-141981D01*
X-85140Y-142679D01*
Y-143435D01*
X-84851Y-144133D01*
X-84316Y-144668D01*
X-83618Y-144957D01*
X-82862D01*
X-82164Y-144668D01*
X-81629Y-144133D01*
X-81381Y-143534D01*
X-76655Y-141171D01*
X-65879Y-151946D01*
X-65609Y-152058D01*
X-65388Y-152250D01*
X-65181Y-152235D01*
X-64990Y-152315D01*
X-64720Y-152203D01*
X-64427Y-152182D01*
X-58701Y-149319D01*
X-58368Y-149457D01*
X-57612D01*
X-57371Y-149357D01*
X-36069Y-161493D01*
X-35872Y-161518D01*
X-35740Y-161606D01*
X-34692Y-161814D01*
X-33644Y-161606D01*
X-33591Y-161571D01*
X-33439Y-161560D01*
X-30638Y-160147D01*
X-29328Y-160908D01*
X-29313Y-161207D01*
X-41156Y-167024D01*
X-85691Y-188407D01*
X-104312D01*
X-104823Y-188001D01*
X-105120Y-187916D01*
X-105358Y-187718D01*
X-106853Y-187250D01*
X-107740Y-186807D01*
X-108394Y-186900D01*
X-108435Y-186888D01*
X-110977Y-187117D01*
X-111268Y-187269D01*
X-111595Y-187299D01*
X-113743Y-188424D01*
X-114211Y-188222D01*
X-114240Y-188170D01*
X-113787Y-186659D01*
X-112372Y-185969D01*
X-110821Y-184789D01*
X-109838Y-183105D01*
X-109576Y-181174D01*
X-110072Y-179289D01*
X-111252Y-177737D01*
X-112936Y-176755D01*
X-114867Y-176492D01*
X-116752Y-176988D01*
X-119781Y-178466D01*
X-120407Y-177644D01*
X-120065Y-176369D01*
X-117633Y-175183D01*
X-116081Y-174003D01*
X-115099Y-172319D01*
X-114836Y-170388D01*
X-115332Y-168503D01*
X-116512Y-166951D01*
X-118196Y-165969D01*
X-120128Y-165706D01*
X-122013Y-166203D01*
X-125391Y-167850D01*
X-126016Y-167028D01*
X-125674Y-165754D01*
X-122893Y-164398D01*
X-121342Y-163218D01*
X-120360Y-161534D01*
X-120097Y-159602D01*
X-120593Y-157717D01*
X-121773Y-156166D01*
X-123457Y-155184D01*
X-125388Y-154921D01*
X-127274Y-155417D01*
X-130999Y-157234D01*
X-131625Y-156413D01*
X-131283Y-155139D01*
X-128153Y-153612D01*
X-126602Y-152432D01*
X-125620Y-150748D01*
X-125357Y-148817D01*
X-125853Y-146932D01*
X-127033Y-145380D01*
X-128717Y-144398D01*
X-130649Y-144135D01*
X-132534Y-144632D01*
X-136957Y-146789D01*
X-137740Y-145307D01*
X-136676Y-144455D01*
X-136381Y-144390D01*
X-136177Y-144247D01*
X-135929Y-144218D01*
X-133704Y-142966D01*
X-133501Y-142708D01*
X-133215Y-142547D01*
X-131638Y-140540D01*
X-131550Y-140224D01*
X-131347Y-139966D01*
X-130794Y-137991D01*
X-122032Y-126875D01*
X-120822Y-127262D01*
X-120597Y-131973D01*
X-120534Y-132226D01*
X-120515Y-132486D01*
X-120424Y-132666D01*
X-120375Y-132862D01*
X-120220Y-133072D01*
X-120103Y-133305D01*
X-110593Y-145502D01*
X-109899Y-146101D01*
X-109029Y-146389D01*
X-108114Y-146322D01*
X-107295Y-145910D01*
X-106696Y-145216D01*
X-106408Y-144346D01*
X-106475Y-143431D01*
X-106887Y-142612D01*
X-115278Y-131849D01*
X-115025Y-130366D01*
X-114985Y-130306D01*
X-114704Y-130207D01*
X-114112D01*
X-113414Y-129918D01*
X-113061Y-129565D01*
X-109231D01*
X-108705Y-130835D01*
X-108851Y-130981D01*
X-109140Y-131679D01*
Y-132435D01*
X-108851Y-133133D01*
X-108316Y-133668D01*
X-107618Y-133957D01*
X-106862D01*
X-106164Y-133668D01*
X-105629Y-133133D01*
X-105340Y-132435D01*
Y-131679D01*
X-105629Y-130981D01*
X-106164Y-130446D01*
X-106226Y-130031D01*
X-106208Y-129053D01*
X-88313Y-111159D01*
X-88192Y-111187D01*
X-87140Y-111782D01*
Y-112185D01*
X-86851Y-112883D01*
X-86316Y-113418D01*
X-85618Y-113707D01*
X-84862D01*
X-84164Y-113418D01*
X-83629Y-112883D01*
X-83340Y-112185D01*
Y-111742D01*
X-80175Y-108577D01*
X-79737Y-108139D01*
X-79369Y-107250D01*
Y-106448D01*
X-79396Y-106382D01*
X-79376Y-106314D01*
X-79999Y-100503D01*
X-80108Y-100303D01*
X-80124Y-100075D01*
X-80330Y-99897D01*
X-80460Y-99658D01*
X-80679Y-99594D01*
X-80851Y-99444D01*
X-86026Y-97719D01*
X-86486Y-97752D01*
X-86947Y-97768D01*
X-91718Y-99950D01*
X-92380Y-98856D01*
X-74012Y-84580D01*
X-72989Y-83827D01*
X-72706Y-83709D01*
X-72738Y-83641D01*
X-72734Y-83634D01*
X-66310Y-80585D01*
X-55320Y-103520D01*
D02*
G37*
%LPC*%
G36*
X93138Y177963D02*
X92382D01*
X91684Y177674D01*
X91149Y177139D01*
X90860Y176441D01*
Y175685D01*
X91149Y174987D01*
X91684Y174452D01*
X92382Y174163D01*
X93138D01*
X93836Y174452D01*
X94371Y174987D01*
X94660Y175685D01*
Y176441D01*
X94371Y177139D01*
X93836Y177674D01*
X93138Y177963D01*
D02*
G37*
G36*
X134260Y179799D02*
X127260D01*
X125543Y179458D01*
X124088Y178485D01*
X123115Y177030D01*
X122774Y175313D01*
X123115Y173596D01*
X124088Y172141D01*
X125543Y171168D01*
X127260Y170827D01*
X134260D01*
X135977Y171168D01*
X137432Y172141D01*
X138405Y173596D01*
X138746Y175313D01*
X138405Y177030D01*
X137432Y178485D01*
X135977Y179458D01*
X134260Y179799D01*
D02*
G37*
G36*
X29638Y171213D02*
X28882D01*
X28184Y170924D01*
X27649Y170389D01*
X27360Y169691D01*
X26090Y169170D01*
X26086Y169174D01*
X25388Y169463D01*
X24632D01*
X23934Y169174D01*
X23399Y168639D01*
X23110Y167941D01*
Y167185D01*
X23399Y166487D01*
X23934Y165952D01*
X24632Y165663D01*
X25087D01*
X25256Y165663D01*
X25563Y165093D01*
X25750Y164490D01*
X25637Y164377D01*
X25399Y164139D01*
X25110Y163441D01*
Y162685D01*
X25399Y161987D01*
X25934Y161452D01*
X26632Y161163D01*
X27388D01*
X28086Y161452D01*
X28621Y161987D01*
X28910Y162685D01*
Y163441D01*
X28621Y164139D01*
X28086Y164674D01*
X27388Y164963D01*
X26933D01*
X26764Y164963D01*
X26456Y165533D01*
X26270Y166136D01*
X26383Y166249D01*
X26621Y166487D01*
X26910Y167185D01*
X28180Y167706D01*
X28184Y167702D01*
X28882Y167413D01*
X29638D01*
X30336Y167702D01*
X30871Y168237D01*
X31160Y168935D01*
Y169691D01*
X30871Y170389D01*
X30336Y170924D01*
X29638Y171213D01*
D02*
G37*
G36*
X65356Y171750D02*
X64601D01*
X63902Y171461D01*
X63368Y170927D01*
X63078Y170228D01*
Y169472D01*
X63368Y168774D01*
X63902Y168240D01*
X64601Y167950D01*
X65356D01*
X66055Y168240D01*
X66589Y168774D01*
X66878Y169472D01*
Y170228D01*
X66589Y170927D01*
X66055Y171461D01*
X65356Y171750D01*
D02*
G37*
G36*
X52638Y171713D02*
X51882D01*
X51184Y171424D01*
X50649Y170889D01*
X50360Y170191D01*
Y169435D01*
X50649Y168737D01*
X51184Y168202D01*
X51882Y167913D01*
X52638D01*
X53336Y168202D01*
X53871Y168737D01*
X54160Y169435D01*
Y170191D01*
X53871Y170889D01*
X53336Y171424D01*
X52638Y171713D01*
D02*
G37*
G36*
X44138D02*
X43382D01*
X42684Y171424D01*
X42149Y170889D01*
X41860Y170191D01*
Y169435D01*
X42149Y168737D01*
X42684Y168202D01*
X43382Y167913D01*
X44138D01*
X44836Y168202D01*
X45371Y168737D01*
X45660Y169435D01*
Y170191D01*
X45371Y170889D01*
X44836Y171424D01*
X44138Y171713D01*
D02*
G37*
G36*
X34638Y165463D02*
X33882D01*
X33184Y165174D01*
X32649Y164639D01*
X32360Y163941D01*
Y163185D01*
X32649Y162487D01*
X33184Y161952D01*
X33882Y161663D01*
X34638D01*
X35336Y161952D01*
X35871Y162487D01*
X36160Y163185D01*
Y163941D01*
X35871Y164639D01*
X35336Y165174D01*
X34638Y165463D01*
D02*
G37*
G36*
X134260Y168800D02*
X127260D01*
X125543Y168458D01*
X124088Y167486D01*
X123115Y166030D01*
X122774Y164313D01*
X123115Y162597D01*
X124088Y161141D01*
X125543Y160169D01*
X127260Y159827D01*
X134260D01*
X135977Y160169D01*
X137432Y161141D01*
X138405Y162597D01*
X138746Y164313D01*
X138405Y166030D01*
X137432Y167486D01*
X135977Y168458D01*
X134260Y168800D01*
D02*
G37*
G36*
X65356Y156750D02*
X64601D01*
X63902Y156461D01*
X63368Y155927D01*
X63078Y155228D01*
Y154472D01*
X63368Y153774D01*
X63902Y153240D01*
X64601Y152950D01*
X65356D01*
X66055Y153240D01*
X66589Y153774D01*
X66878Y154472D01*
Y155228D01*
X66589Y155927D01*
X66055Y156461D01*
X65356Y156750D01*
D02*
G37*
G36*
X81638Y154963D02*
X80882D01*
X80184Y154674D01*
X79649Y154139D01*
X79360Y153441D01*
Y152685D01*
X79649Y151987D01*
X80184Y151452D01*
X80882Y151163D01*
X81638D01*
X82336Y151452D01*
X82871Y151987D01*
X83160Y152685D01*
Y153441D01*
X82871Y154139D01*
X82336Y154674D01*
X81638Y154963D01*
D02*
G37*
G36*
X134260Y157799D02*
X127260D01*
X125543Y157458D01*
X124088Y156485D01*
X123115Y155030D01*
X122774Y153313D01*
X123115Y151596D01*
X124088Y150141D01*
X125543Y149168D01*
X127260Y148827D01*
X134260D01*
X135977Y149168D01*
X137432Y150141D01*
X138405Y151596D01*
X138746Y153313D01*
X138405Y155030D01*
X137432Y156485D01*
X135977Y157458D01*
X134260Y157799D01*
D02*
G37*
G36*
X89138Y150213D02*
X88382D01*
X87684Y149924D01*
X87149Y149389D01*
X86860Y148691D01*
Y147935D01*
X87149Y147237D01*
X87684Y146702D01*
X88382Y146413D01*
X89138D01*
X89836Y146702D01*
X90371Y147237D01*
X90660Y147935D01*
Y148691D01*
X90371Y149389D01*
X89836Y149924D01*
X89138Y150213D01*
D02*
G37*
G36*
X51638Y143213D02*
X50882D01*
X50184Y142924D01*
X49649Y142389D01*
X49360Y141691D01*
Y140935D01*
X49649Y140237D01*
X50184Y139702D01*
X50882Y139413D01*
X51638D01*
X52336Y139702D01*
X52871Y140237D01*
X53160Y140935D01*
Y141691D01*
X52871Y142389D01*
X52336Y142924D01*
X51638Y143213D01*
D02*
G37*
G36*
X81638Y142963D02*
X80882D01*
X80184Y142674D01*
X79649Y142139D01*
X79360Y141441D01*
Y140685D01*
X79649Y139987D01*
X80184Y139452D01*
X80882Y139163D01*
X81638D01*
X82336Y139452D01*
X82871Y139987D01*
X83160Y140685D01*
Y141441D01*
X82871Y142139D01*
X82336Y142674D01*
X81638Y142963D01*
D02*
G37*
G36*
X134260Y146799D02*
X127260D01*
X125543Y146458D01*
X124088Y145485D01*
X123115Y144030D01*
X122774Y142313D01*
X123115Y140596D01*
X124088Y139141D01*
X125543Y138168D01*
X127260Y137827D01*
X134260D01*
X135977Y138168D01*
X137432Y139141D01*
X138405Y140596D01*
X138746Y142313D01*
X138405Y144030D01*
X137432Y145485D01*
X135977Y146458D01*
X134260Y146799D01*
D02*
G37*
G36*
X91888Y133963D02*
X91132D01*
X90434Y133674D01*
X89899Y133139D01*
X89610Y132441D01*
Y131685D01*
X89899Y130987D01*
X90434Y130452D01*
X91132Y130163D01*
X91888D01*
X92586Y130452D01*
X93121Y130987D01*
X93410Y131685D01*
Y132441D01*
X93121Y133139D01*
X92586Y133674D01*
X91888Y133963D01*
D02*
G37*
G36*
X42888Y133713D02*
X42132D01*
X41434Y133424D01*
X40899Y132889D01*
X40610Y132191D01*
Y131435D01*
X40899Y130737D01*
X41434Y130202D01*
X42132Y129913D01*
X42888D01*
X43586Y130202D01*
X44121Y130737D01*
X44410Y131435D01*
Y132191D01*
X44121Y132889D01*
X43586Y133424D01*
X42888Y133713D01*
D02*
G37*
G36*
X134260Y135799D02*
X127260D01*
X125543Y135458D01*
X124088Y134485D01*
X123115Y133030D01*
X122774Y131313D01*
X123115Y129596D01*
X124088Y128141D01*
X125543Y127169D01*
X127260Y126827D01*
X134260D01*
X135977Y127169D01*
X137432Y128141D01*
X138405Y129596D01*
X138746Y131313D01*
X138405Y133030D01*
X137432Y134485D01*
X135977Y135458D01*
X134260Y135799D01*
D02*
G37*
G36*
X49888Y124463D02*
X49132D01*
X48434Y124174D01*
X47899Y123639D01*
X47610Y122941D01*
Y122185D01*
X47899Y121487D01*
X48434Y120952D01*
X49132Y120663D01*
X49888D01*
X50586Y120952D01*
X51121Y121487D01*
X51410Y122185D01*
Y122941D01*
X51121Y123639D01*
X50586Y124174D01*
X49888Y124463D01*
D02*
G37*
G36*
X63102Y121639D02*
X62347D01*
X61648Y121350D01*
X61114Y120816D01*
X60824Y120117D01*
Y119361D01*
X61114Y118663D01*
X61648Y118129D01*
X62347Y117839D01*
X63102D01*
X63801Y118129D01*
X64335Y118663D01*
X64624Y119361D01*
Y120117D01*
X64335Y120816D01*
X63801Y121350D01*
X63102Y121639D01*
D02*
G37*
G36*
X-58Y166577D02*
X-814D01*
X-1513Y166287D01*
X-2047Y165753D01*
X-2336Y165054D01*
Y164299D01*
X-2047Y163600D01*
X-1513Y163066D01*
X-814Y162777D01*
X-58D01*
X640Y163066D01*
X1174Y163600D01*
X1464Y164299D01*
Y165054D01*
X1174Y165753D01*
X640Y166287D01*
X-58Y166577D01*
D02*
G37*
G36*
X13138Y165213D02*
X12382D01*
X11684Y164924D01*
X11149Y164389D01*
X10860Y163691D01*
Y162935D01*
X11149Y162237D01*
X11684Y161702D01*
X12382Y161413D01*
X13138D01*
X13836Y161702D01*
X14371Y162237D01*
X14660Y162935D01*
Y163691D01*
X14371Y164389D01*
X13836Y164924D01*
X13138Y165213D01*
D02*
G37*
G36*
X-31362Y162713D02*
X-32118D01*
X-32816Y162424D01*
X-33351Y161889D01*
X-33640Y161191D01*
Y160435D01*
X-33351Y159737D01*
X-32816Y159202D01*
X-32118Y158913D01*
X-31362D01*
X-30664Y159202D01*
X-30129Y159737D01*
X-29840Y160435D01*
Y161191D01*
X-30129Y161889D01*
X-30664Y162424D01*
X-31362Y162713D01*
D02*
G37*
G36*
X13888Y150963D02*
X13132D01*
X12434Y150674D01*
X11899Y150139D01*
X11610Y149441D01*
Y148685D01*
X11899Y147987D01*
X12434Y147452D01*
X13132Y147163D01*
X13888D01*
X14586Y147452D01*
X15121Y147987D01*
X15410Y148685D01*
Y149441D01*
X15121Y150139D01*
X14586Y150674D01*
X13888Y150963D01*
D02*
G37*
G36*
X-28362Y150713D02*
X-29118D01*
X-29816Y150424D01*
X-30351Y149889D01*
X-30640Y149191D01*
Y148435D01*
X-30351Y147737D01*
X-29816Y147202D01*
X-29118Y146913D01*
X-28362D01*
X-27664Y147202D01*
X-27129Y147737D01*
X-26840Y148435D01*
Y149191D01*
X-27129Y149889D01*
X-27664Y150424D01*
X-28362Y150713D01*
D02*
G37*
G36*
X20388Y150213D02*
X19632D01*
X18934Y149924D01*
X18399Y149389D01*
X18110Y148691D01*
Y147935D01*
X18399Y147237D01*
X18934Y146702D01*
X19632Y146413D01*
X20388D01*
X21086Y146702D01*
X21621Y147237D01*
X21910Y147935D01*
Y148691D01*
X21621Y149389D01*
X21086Y149924D01*
X20388Y150213D01*
D02*
G37*
G36*
X4238Y149865D02*
X3482D01*
X2784Y149576D01*
X2249Y149041D01*
X1960Y148343D01*
Y147587D01*
X2249Y146889D01*
X2784Y146354D01*
X3482Y146065D01*
X4238D01*
X4936Y146354D01*
X5471Y146889D01*
X5760Y147587D01*
Y148343D01*
X5471Y149041D01*
X4936Y149576D01*
X4238Y149865D01*
D02*
G37*
G36*
X-38112Y148963D02*
X-38868D01*
X-39566Y148674D01*
X-40101Y148139D01*
X-40390Y147441D01*
Y146685D01*
X-40101Y145987D01*
X-39566Y145452D01*
X-38868Y145163D01*
X-38112D01*
X-37414Y145452D01*
X-36879Y145987D01*
X-36590Y146685D01*
Y147441D01*
X-36879Y148139D01*
X-37414Y148674D01*
X-38112Y148963D01*
D02*
G37*
G36*
X-42862Y141963D02*
X-43618D01*
X-44316Y141674D01*
X-44851Y141139D01*
X-45140Y140441D01*
Y139685D01*
X-44851Y138987D01*
X-44316Y138452D01*
X-43618Y138163D01*
X-42862D01*
X-42164Y138452D01*
X-41629Y138987D01*
X-41340Y139685D01*
Y140441D01*
X-41629Y141139D01*
X-42164Y141674D01*
X-42862Y141963D01*
D02*
G37*
G36*
X24726Y141250D02*
X23970D01*
X23272Y140961D01*
X22737Y140426D01*
X22448Y139728D01*
Y138972D01*
X22737Y138273D01*
X23272Y137739D01*
X23970Y137450D01*
X24726D01*
X25424Y137739D01*
X25959Y138273D01*
X26248Y138972D01*
Y139728D01*
X25959Y140426D01*
X25424Y140961D01*
X24726Y141250D01*
D02*
G37*
G36*
X24388Y130963D02*
X23632D01*
X22934Y130674D01*
X22399Y130139D01*
X22110Y129441D01*
Y128685D01*
X22399Y127987D01*
X22934Y127452D01*
X23632Y127163D01*
X24388D01*
X25086Y127452D01*
X25621Y127987D01*
X25910Y128685D01*
Y129441D01*
X25621Y130139D01*
X25086Y130674D01*
X24388Y130963D01*
D02*
G37*
G36*
X238Y127115D02*
X-518D01*
X-1216Y126826D01*
X-1751Y126291D01*
X-2040Y125593D01*
Y124837D01*
X-1751Y124139D01*
X-1216Y123604D01*
X-518Y123315D01*
X238D01*
X936Y123604D01*
X1471Y124139D01*
X1760Y124837D01*
Y125593D01*
X1471Y126291D01*
X936Y126826D01*
X238Y127115D01*
D02*
G37*
G36*
X35138Y117213D02*
X34382D01*
X33684Y116924D01*
X33149Y116389D01*
X32860Y115691D01*
X32860Y114935D01*
X32839Y114883D01*
X32835Y114875D01*
X31561Y114458D01*
X31433Y114577D01*
X31336Y114674D01*
X30638Y114963D01*
X29882D01*
X29184Y114674D01*
X28649Y114139D01*
X28360Y113441D01*
X28360Y112685D01*
X28339Y112633D01*
X28335Y112625D01*
X27061Y112208D01*
X26933Y112327D01*
X26836Y112424D01*
X26138Y112713D01*
X25382D01*
X24684Y112424D01*
X24149Y111889D01*
X23860Y111191D01*
Y110435D01*
X24149Y109737D01*
X24684Y109202D01*
X25382Y108913D01*
X26138D01*
X26836Y109202D01*
X27371Y109737D01*
X27660Y110435D01*
X27660Y111191D01*
X27681Y111243D01*
X27685Y111251D01*
X28959Y111668D01*
X29087Y111549D01*
X29184Y111452D01*
X29882Y111163D01*
X30638D01*
X31336Y111452D01*
X31871Y111987D01*
X32160Y112685D01*
X32160Y113441D01*
X32181Y113493D01*
X32185Y113501D01*
X33459Y113918D01*
X33587Y113799D01*
X33684Y113702D01*
X34382Y113413D01*
X35138D01*
X35836Y113702D01*
X36371Y114237D01*
X36660Y114935D01*
Y115691D01*
X36371Y116389D01*
X35836Y116924D01*
X35138Y117213D01*
D02*
G37*
G36*
X8388Y103713D02*
X7632D01*
X6934Y103424D01*
X6399Y102889D01*
X6110Y102191D01*
Y101435D01*
X6399Y100737D01*
X6934Y100202D01*
X7632Y99913D01*
X8388D01*
X9086Y100202D01*
X9621Y100737D01*
X9910Y101435D01*
Y102191D01*
X9621Y102889D01*
X9086Y103424D01*
X8388Y103713D01*
D02*
G37*
G36*
X-23398Y93889D02*
X-24153D01*
X-24852Y93600D01*
X-25386Y93066D01*
X-25676Y92367D01*
Y91611D01*
X-25386Y90913D01*
X-24852Y90379D01*
X-24153Y90089D01*
X-23398D01*
X-22699Y90379D01*
X-22165Y90913D01*
X-21876Y91611D01*
Y92367D01*
X-22165Y93066D01*
X-22699Y93600D01*
X-23398Y93889D01*
D02*
G37*
G36*
X-73362Y140213D02*
X-74118D01*
X-74816Y139924D01*
X-75351Y139389D01*
X-75640Y138691D01*
Y137935D01*
X-75351Y137237D01*
X-74816Y136702D01*
X-74118Y136413D01*
X-73362D01*
X-72664Y136702D01*
X-72129Y137237D01*
X-71840Y137935D01*
Y138691D01*
X-72129Y139389D01*
X-72664Y139924D01*
X-73362Y140213D01*
D02*
G37*
G36*
X-79112Y118463D02*
X-79868D01*
X-80566Y118174D01*
X-81101Y117639D01*
X-81390Y116941D01*
Y116185D01*
X-81101Y115487D01*
X-80566Y114952D01*
X-79868Y114663D01*
X-79112D01*
X-78414Y114952D01*
X-77879Y115487D01*
X-77590Y116185D01*
Y116941D01*
X-77879Y117639D01*
X-78414Y118174D01*
X-79112Y118463D01*
D02*
G37*
G36*
X-45421Y91668D02*
X-46059D01*
X-46649Y91424D01*
X-47101Y90972D01*
X-47345Y90382D01*
Y89744D01*
X-47101Y89154D01*
X-46649Y88702D01*
X-46059Y88458D01*
X-45421D01*
X-44831Y88702D01*
X-44379Y89154D01*
X-44135Y89744D01*
Y90382D01*
X-44379Y90972D01*
X-44831Y91424D01*
X-45421Y91668D01*
D02*
G37*
G36*
X-54499Y91061D02*
X-55255D01*
X-55953Y90772D01*
X-56487Y90237D01*
X-56777Y89539D01*
Y88783D01*
X-56487Y88085D01*
X-55953Y87550D01*
X-55255Y87261D01*
X-54499D01*
X-53800Y87550D01*
X-53266Y88085D01*
X-52977Y88783D01*
Y89539D01*
X-53266Y90237D01*
X-53800Y90772D01*
X-54499Y91061D01*
D02*
G37*
G36*
X-72362Y74713D02*
X-73118D01*
X-73816Y74424D01*
X-74351Y73889D01*
X-74640Y73191D01*
Y72435D01*
X-74351Y71737D01*
X-73816Y71202D01*
X-73118Y70913D01*
X-72362D01*
X-71664Y71202D01*
X-71129Y71737D01*
X-70840Y72435D01*
Y73191D01*
X-71129Y73889D01*
X-71664Y74424D01*
X-72362Y74713D01*
D02*
G37*
G36*
X-89862Y62463D02*
X-90618D01*
X-91316Y62174D01*
X-91851Y61639D01*
X-92140Y60941D01*
Y60185D01*
X-91851Y59487D01*
X-91316Y58952D01*
X-90618Y58663D01*
X-89862D01*
X-89164Y58952D01*
X-88629Y59487D01*
X-88340Y60185D01*
Y60941D01*
X-88629Y61639D01*
X-89164Y62174D01*
X-89862Y62463D01*
D02*
G37*
G36*
X-87612Y57463D02*
X-88368D01*
X-89066Y57174D01*
X-89601Y56639D01*
X-89890Y55941D01*
Y55185D01*
X-89601Y54487D01*
X-89066Y53952D01*
X-88368Y53663D01*
X-87612D01*
X-86914Y53952D01*
X-86379Y54487D01*
X-86090Y55185D01*
Y55941D01*
X-86379Y56639D01*
X-86914Y57174D01*
X-87612Y57463D01*
D02*
G37*
G36*
X-99362Y46713D02*
X-100118D01*
X-100816Y46424D01*
X-101351Y45889D01*
X-101640Y45191D01*
Y44435D01*
X-101351Y43737D01*
X-100816Y43202D01*
X-100118Y42913D01*
X-99362D01*
X-98664Y43202D01*
X-98129Y43737D01*
X-97840Y44435D01*
Y45191D01*
X-98129Y45889D01*
X-98664Y46424D01*
X-99362Y46713D01*
D02*
G37*
G36*
X81138Y-50157D02*
X80382D01*
X79684Y-50446D01*
X79149Y-50981D01*
X78860Y-51679D01*
Y-52435D01*
X79149Y-53133D01*
X79684Y-53668D01*
X80382Y-53957D01*
X81138D01*
X81836Y-53668D01*
X82371Y-53133D01*
X82660Y-52435D01*
Y-51679D01*
X82371Y-50981D01*
X81836Y-50446D01*
X81138Y-50157D01*
D02*
G37*
G36*
X54388Y-51657D02*
X53632D01*
X52934Y-51946D01*
X52399Y-52481D01*
X52110Y-53179D01*
Y-53935D01*
X52399Y-54633D01*
X52934Y-55168D01*
X53632Y-55457D01*
X54388D01*
X55086Y-55168D01*
X55621Y-54633D01*
X55910Y-53935D01*
Y-53179D01*
X55621Y-52481D01*
X55086Y-51946D01*
X54388Y-51657D01*
D02*
G37*
G36*
X134260Y-50071D02*
X127260D01*
X125543Y-50412D01*
X124088Y-51385D01*
X123115Y-52840D01*
X122774Y-54557D01*
X123115Y-56274D01*
X124088Y-57729D01*
X125543Y-58702D01*
X127260Y-59043D01*
X134260D01*
X135977Y-58702D01*
X137432Y-57729D01*
X138405Y-56274D01*
X138746Y-54557D01*
X138405Y-52840D01*
X137432Y-51385D01*
X135977Y-50412D01*
X134260Y-50071D01*
D02*
G37*
G36*
X29638Y-58657D02*
X28882D01*
X28184Y-58946D01*
X27649Y-59481D01*
X27360Y-60179D01*
X26090Y-60700D01*
X26086Y-60696D01*
X25388Y-60407D01*
X24632D01*
X23934Y-60696D01*
X23399Y-61231D01*
X23110Y-61929D01*
Y-62685D01*
X23399Y-63383D01*
X23934Y-63918D01*
X24632Y-64207D01*
X25087D01*
X25256Y-64207D01*
X25563Y-64777D01*
X25750Y-65380D01*
X25637Y-65493D01*
X25399Y-65731D01*
X25110Y-66429D01*
Y-67185D01*
X25399Y-67883D01*
X25934Y-68418D01*
X26632Y-68707D01*
X27388D01*
X28086Y-68418D01*
X28621Y-67883D01*
X28910Y-67185D01*
Y-66429D01*
X28621Y-65731D01*
X28086Y-65196D01*
X27388Y-64907D01*
X26933D01*
X26764Y-64907D01*
X26456Y-64337D01*
X26270Y-63734D01*
X26383Y-63621D01*
X26621Y-63383D01*
X26910Y-62685D01*
X28180Y-62164D01*
X28184Y-62168D01*
X28882Y-62457D01*
X29638D01*
X30336Y-62168D01*
X30871Y-61633D01*
X31160Y-60935D01*
Y-60179D01*
X30871Y-59481D01*
X30336Y-58946D01*
X29638Y-58657D01*
D02*
G37*
G36*
X65388Y-58157D02*
X64632D01*
X63934Y-58446D01*
X63399Y-58981D01*
X63110Y-59679D01*
Y-60435D01*
X63399Y-61133D01*
X63934Y-61668D01*
X64632Y-61957D01*
X65388D01*
X66086Y-61668D01*
X66621Y-61133D01*
X66910Y-60435D01*
Y-59679D01*
X66621Y-58981D01*
X66086Y-58446D01*
X65388Y-58157D01*
D02*
G37*
G36*
X44138D02*
X43382D01*
X42684Y-58446D01*
X42149Y-58981D01*
X41860Y-59679D01*
Y-60435D01*
X42149Y-61133D01*
X42684Y-61668D01*
X43382Y-61957D01*
X44138D01*
X44836Y-61668D01*
X45371Y-61133D01*
X45660Y-60435D01*
Y-59679D01*
X45371Y-58981D01*
X44836Y-58446D01*
X44138Y-58157D01*
D02*
G37*
G36*
X34638Y-64407D02*
X33882D01*
X33184Y-64696D01*
X32649Y-65231D01*
X32360Y-65929D01*
Y-66685D01*
X32649Y-67383D01*
X33184Y-67918D01*
X33882Y-68207D01*
X34638D01*
X35336Y-67918D01*
X35871Y-67383D01*
X36160Y-66685D01*
Y-65929D01*
X35871Y-65231D01*
X35336Y-64696D01*
X34638Y-64407D01*
D02*
G37*
G36*
X134260Y-61070D02*
X127260D01*
X125543Y-61412D01*
X124088Y-62384D01*
X123115Y-63840D01*
X122774Y-65557D01*
X123115Y-67273D01*
X124088Y-68729D01*
X125543Y-69701D01*
X127260Y-70043D01*
X134260D01*
X135977Y-69701D01*
X137432Y-68729D01*
X138405Y-67273D01*
X138746Y-65557D01*
X138405Y-63840D01*
X137432Y-62384D01*
X135977Y-61412D01*
X134260Y-61070D01*
D02*
G37*
G36*
X65388Y-66657D02*
X64632D01*
X63934Y-66946D01*
X63399Y-67481D01*
X63110Y-68179D01*
Y-68935D01*
X63399Y-69633D01*
X63934Y-70168D01*
X64632Y-70457D01*
X65388D01*
X66086Y-70168D01*
X66621Y-69633D01*
X66910Y-68935D01*
Y-68179D01*
X66621Y-67481D01*
X66086Y-66946D01*
X65388Y-66657D01*
D02*
G37*
G36*
X49388Y-68657D02*
X48632D01*
X47934Y-68946D01*
X47399Y-69481D01*
X47110Y-70179D01*
Y-70935D01*
X47399Y-71633D01*
X47934Y-72168D01*
X48632Y-72457D01*
X49388D01*
X50086Y-72168D01*
X50621Y-71633D01*
X50910Y-70935D01*
Y-70179D01*
X50621Y-69481D01*
X50086Y-68946D01*
X49388Y-68657D01*
D02*
G37*
G36*
X134260Y-72071D02*
X127260D01*
X125543Y-72412D01*
X124088Y-73385D01*
X123115Y-74840D01*
X122774Y-76557D01*
X123115Y-78274D01*
X124088Y-79729D01*
X125543Y-80702D01*
X127260Y-81043D01*
X134260D01*
X135977Y-80702D01*
X137432Y-79729D01*
X138405Y-78274D01*
X138746Y-76557D01*
X138405Y-74840D01*
X137432Y-73385D01*
X135977Y-72412D01*
X134260Y-72071D01*
D02*
G37*
G36*
X34138Y-78657D02*
X33382D01*
X32684Y-78946D01*
X32149Y-79481D01*
X31860Y-80179D01*
Y-80935D01*
X32149Y-81633D01*
X32684Y-82168D01*
X33382Y-82457D01*
X34138D01*
X34836Y-82168D01*
X35371Y-81633D01*
X35660Y-80935D01*
Y-80179D01*
X35371Y-79481D01*
X34836Y-78946D01*
X34138Y-78657D01*
D02*
G37*
G36*
X65388Y-84657D02*
X64632D01*
X63934Y-84946D01*
X63399Y-85481D01*
X63110Y-86179D01*
Y-86935D01*
X63399Y-87633D01*
X63934Y-88168D01*
X64632Y-88457D01*
X65388D01*
X66086Y-88168D01*
X66621Y-87633D01*
X66910Y-86935D01*
Y-86179D01*
X66621Y-85481D01*
X66086Y-84946D01*
X65388Y-84657D01*
D02*
G37*
G36*
X134260Y-83071D02*
X127260D01*
X125543Y-83412D01*
X124088Y-84385D01*
X123115Y-85840D01*
X122774Y-87557D01*
X123115Y-89274D01*
X124088Y-90729D01*
X125543Y-91702D01*
X127260Y-92043D01*
X134260D01*
X135977Y-91702D01*
X137432Y-90729D01*
X138405Y-89274D01*
X138746Y-87557D01*
X138405Y-85840D01*
X137432Y-84385D01*
X135977Y-83412D01*
X134260Y-83071D01*
D02*
G37*
G36*
X88888Y-90657D02*
X88132D01*
X87434Y-90946D01*
X86899Y-91481D01*
X86610Y-92179D01*
Y-92935D01*
X86899Y-93633D01*
X87434Y-94168D01*
X88132Y-94457D01*
X88888D01*
X89586Y-94168D01*
X90121Y-93633D01*
X90410Y-92935D01*
Y-92179D01*
X90121Y-91481D01*
X89586Y-90946D01*
X88888Y-90657D01*
D02*
G37*
G36*
X42888Y-96157D02*
X42132D01*
X41434Y-96446D01*
X40899Y-96981D01*
X40610Y-97679D01*
Y-98435D01*
X40899Y-99133D01*
X41434Y-99668D01*
X42132Y-99957D01*
X42888D01*
X43586Y-99668D01*
X44121Y-99133D01*
X44410Y-98435D01*
Y-97679D01*
X44121Y-96981D01*
X43586Y-96446D01*
X42888Y-96157D01*
D02*
G37*
G36*
X134260Y-94071D02*
X127260D01*
X125543Y-94412D01*
X124088Y-95385D01*
X123115Y-96840D01*
X122774Y-98557D01*
X123115Y-100274D01*
X124088Y-101729D01*
X125543Y-102702D01*
X127260Y-103043D01*
X134260D01*
X135977Y-102702D01*
X137432Y-101729D01*
X138405Y-100274D01*
X138746Y-98557D01*
X138405Y-96840D01*
X137432Y-95385D01*
X135977Y-94412D01*
X134260Y-94071D01*
D02*
G37*
G36*
X49888Y-105407D02*
X49132D01*
X48434Y-105696D01*
X47899Y-106231D01*
X47610Y-106929D01*
Y-107685D01*
X47899Y-108383D01*
X48434Y-108918D01*
X49132Y-109207D01*
X49888D01*
X50586Y-108918D01*
X51121Y-108383D01*
X51410Y-107685D01*
Y-106929D01*
X51121Y-106231D01*
X50586Y-105696D01*
X49888Y-105407D01*
D02*
G37*
G36*
X63102Y-108231D02*
X62347D01*
X61648Y-108520D01*
X61114Y-109054D01*
X60824Y-109753D01*
Y-110508D01*
X61114Y-111207D01*
X61648Y-111741D01*
X62347Y-112031D01*
X63102D01*
X63801Y-111741D01*
X64335Y-111207D01*
X64624Y-110508D01*
Y-109753D01*
X64335Y-109054D01*
X63801Y-108520D01*
X63102Y-108231D01*
D02*
G37*
G36*
X-58Y-63293D02*
X-814D01*
X-1513Y-63583D01*
X-2047Y-64117D01*
X-2336Y-64816D01*
Y-65571D01*
X-2047Y-66270D01*
X-1513Y-66804D01*
X-814Y-67093D01*
X-58D01*
X640Y-66804D01*
X1174Y-66270D01*
X1464Y-65571D01*
Y-64816D01*
X1174Y-64117D01*
X640Y-63583D01*
X-58Y-63293D01*
D02*
G37*
G36*
X13388Y-63907D02*
X12632D01*
X11934Y-64196D01*
X11399Y-64731D01*
X11110Y-65429D01*
Y-66185D01*
X11399Y-66883D01*
X11934Y-67418D01*
X12632Y-67707D01*
X13388D01*
X14086Y-67418D01*
X14621Y-66883D01*
X14910Y-66185D01*
Y-65429D01*
X14621Y-64731D01*
X14086Y-64196D01*
X13388Y-63907D01*
D02*
G37*
G36*
X-31362Y-67157D02*
X-32118D01*
X-32816Y-67446D01*
X-33351Y-67981D01*
X-33640Y-68679D01*
Y-69435D01*
X-33351Y-70133D01*
X-32816Y-70668D01*
X-32118Y-70957D01*
X-31362D01*
X-30664Y-70668D01*
X-30129Y-70133D01*
X-29840Y-69435D01*
Y-68679D01*
X-30129Y-67981D01*
X-30664Y-67446D01*
X-31362Y-67157D01*
D02*
G37*
G36*
X13888Y-78907D02*
X13132D01*
X12434Y-79196D01*
X11899Y-79731D01*
X11610Y-80429D01*
Y-81185D01*
X11899Y-81883D01*
X12434Y-82418D01*
X13132Y-82707D01*
X13888D01*
X14586Y-82418D01*
X15121Y-81883D01*
X15410Y-81185D01*
Y-80429D01*
X15121Y-79731D01*
X14586Y-79196D01*
X13888Y-78907D01*
D02*
G37*
G36*
X-28362Y-79157D02*
X-29118D01*
X-29816Y-79446D01*
X-30351Y-79981D01*
X-30640Y-80679D01*
Y-81435D01*
X-30351Y-82133D01*
X-29816Y-82668D01*
X-29118Y-82957D01*
X-28362D01*
X-27664Y-82668D01*
X-27129Y-82133D01*
X-26840Y-81435D01*
Y-80679D01*
X-27129Y-79981D01*
X-27664Y-79446D01*
X-28362Y-79157D01*
D02*
G37*
G36*
X20388Y-79657D02*
X19632D01*
X18934Y-79946D01*
X18399Y-80481D01*
X18110Y-81179D01*
Y-81935D01*
X18399Y-82633D01*
X18934Y-83168D01*
X19632Y-83457D01*
X20388D01*
X21086Y-83168D01*
X21621Y-82633D01*
X21910Y-81935D01*
Y-81179D01*
X21621Y-80481D01*
X21086Y-79946D01*
X20388Y-79657D01*
D02*
G37*
G36*
X4238Y-80005D02*
X3482D01*
X2784Y-80294D01*
X2249Y-80829D01*
X1960Y-81527D01*
Y-82283D01*
X2249Y-82981D01*
X2784Y-83516D01*
X3482Y-83805D01*
X4238D01*
X4936Y-83516D01*
X5471Y-82981D01*
X5760Y-82283D01*
Y-81527D01*
X5471Y-80829D01*
X4936Y-80294D01*
X4238Y-80005D01*
D02*
G37*
G36*
X-38112Y-80907D02*
X-38868D01*
X-39566Y-81196D01*
X-40101Y-81731D01*
X-40390Y-82429D01*
Y-83185D01*
X-40101Y-83883D01*
X-39566Y-84418D01*
X-38868Y-84707D01*
X-38112D01*
X-37414Y-84418D01*
X-36879Y-83883D01*
X-36590Y-83185D01*
Y-82429D01*
X-36879Y-81731D01*
X-37414Y-81196D01*
X-38112Y-80907D01*
D02*
G37*
G36*
X-42862Y-87907D02*
X-43618D01*
X-44316Y-88196D01*
X-44851Y-88731D01*
X-45140Y-89429D01*
Y-90185D01*
X-44851Y-90883D01*
X-44316Y-91418D01*
X-43618Y-91707D01*
X-42862D01*
X-42164Y-91418D01*
X-41629Y-90883D01*
X-41340Y-90185D01*
Y-89429D01*
X-41629Y-88731D01*
X-42164Y-88196D01*
X-42862Y-87907D01*
D02*
G37*
G36*
X24726Y-88620D02*
X23970D01*
X23272Y-88910D01*
X22737Y-89444D01*
X22448Y-90142D01*
Y-90898D01*
X22737Y-91596D01*
X23272Y-92131D01*
X23970Y-92420D01*
X24726D01*
X25424Y-92131D01*
X25959Y-91596D01*
X26248Y-90898D01*
Y-90142D01*
X25959Y-89444D01*
X25424Y-88910D01*
X24726Y-88620D01*
D02*
G37*
G36*
X24388Y-98907D02*
X23632D01*
X22934Y-99196D01*
X22399Y-99731D01*
X22110Y-100429D01*
Y-101185D01*
X22399Y-101883D01*
X22934Y-102418D01*
X23632Y-102707D01*
X24388D01*
X25086Y-102418D01*
X25621Y-101883D01*
X25910Y-101185D01*
Y-100429D01*
X25621Y-99731D01*
X25086Y-99196D01*
X24388Y-98907D01*
D02*
G37*
G36*
X238Y-102755D02*
X-518D01*
X-1216Y-103044D01*
X-1751Y-103579D01*
X-2040Y-104277D01*
Y-105033D01*
X-1751Y-105731D01*
X-1216Y-106266D01*
X-518Y-106555D01*
X238D01*
X936Y-106266D01*
X1471Y-105731D01*
X1760Y-105033D01*
Y-104277D01*
X1471Y-103579D01*
X936Y-103044D01*
X238Y-102755D01*
D02*
G37*
G36*
X35138Y-112657D02*
X34382D01*
X33684Y-112946D01*
X33149Y-113481D01*
X32860Y-114179D01*
X32860Y-114935D01*
X32839Y-114987D01*
X32835Y-114995D01*
X31561Y-115412D01*
X31433Y-115293D01*
X31336Y-115196D01*
X30638Y-114907D01*
X29882D01*
X29184Y-115196D01*
X28649Y-115731D01*
X28360Y-116429D01*
X28360Y-117185D01*
X28339Y-117237D01*
X28335Y-117245D01*
X27061Y-117662D01*
X26933Y-117543D01*
X26836Y-117446D01*
X26138Y-117157D01*
X25382D01*
X24684Y-117446D01*
X24149Y-117981D01*
X23860Y-118679D01*
Y-119435D01*
X24149Y-120133D01*
X24684Y-120668D01*
X25382Y-120957D01*
X26138D01*
X26836Y-120668D01*
X27371Y-120133D01*
X27660Y-119435D01*
X27660Y-118679D01*
X27681Y-118627D01*
X27685Y-118619D01*
X28959Y-118202D01*
X29087Y-118321D01*
X29184Y-118418D01*
X29882Y-118707D01*
X30638D01*
X31336Y-118418D01*
X31871Y-117883D01*
X32160Y-117185D01*
X32160Y-116429D01*
X32181Y-116377D01*
X32185Y-116369D01*
X33459Y-115952D01*
X33587Y-116071D01*
X33684Y-116168D01*
X34382Y-116457D01*
X35138D01*
X35836Y-116168D01*
X36371Y-115633D01*
X36660Y-114935D01*
Y-114179D01*
X36371Y-113481D01*
X35836Y-112946D01*
X35138Y-112657D01*
D02*
G37*
G36*
X8388Y-126157D02*
X7632D01*
X6934Y-126446D01*
X6399Y-126981D01*
X6110Y-127679D01*
Y-128435D01*
X6399Y-129133D01*
X6934Y-129668D01*
X7632Y-129957D01*
X8388D01*
X9086Y-129668D01*
X9621Y-129133D01*
X9910Y-128435D01*
Y-127679D01*
X9621Y-126981D01*
X9086Y-126446D01*
X8388Y-126157D01*
D02*
G37*
G36*
X-23398Y-135981D02*
X-24153D01*
X-24852Y-136270D01*
X-25386Y-136804D01*
X-25676Y-137503D01*
Y-138258D01*
X-25386Y-138957D01*
X-24852Y-139491D01*
X-24153Y-139781D01*
X-23398D01*
X-22699Y-139491D01*
X-22165Y-138957D01*
X-21876Y-138258D01*
Y-137503D01*
X-22165Y-136804D01*
X-22699Y-136270D01*
X-23398Y-135981D01*
D02*
G37*
G36*
X-73362Y-89657D02*
X-74118D01*
X-74816Y-89946D01*
X-75351Y-90481D01*
X-75640Y-91179D01*
Y-91935D01*
X-75351Y-92633D01*
X-74816Y-93168D01*
X-74118Y-93457D01*
X-73362D01*
X-72664Y-93168D01*
X-72129Y-92633D01*
X-71840Y-91935D01*
Y-91179D01*
X-72129Y-90481D01*
X-72664Y-89946D01*
X-73362Y-89657D01*
D02*
G37*
G36*
X-79112Y-111407D02*
X-79868D01*
X-80566Y-111696D01*
X-81101Y-112231D01*
X-81390Y-112929D01*
Y-113685D01*
X-81101Y-114383D01*
X-80566Y-114918D01*
X-79868Y-115207D01*
X-79112D01*
X-78414Y-114918D01*
X-77879Y-114383D01*
X-77590Y-113685D01*
Y-112929D01*
X-77879Y-112231D01*
X-78414Y-111696D01*
X-79112Y-111407D01*
D02*
G37*
G36*
X-45421Y-138202D02*
X-46059D01*
X-46649Y-138446D01*
X-47101Y-138898D01*
X-47345Y-139488D01*
Y-140126D01*
X-47101Y-140716D01*
X-46649Y-141168D01*
X-46059Y-141412D01*
X-45421D01*
X-44831Y-141168D01*
X-44379Y-140716D01*
X-44135Y-140126D01*
Y-139488D01*
X-44379Y-138898D01*
X-44831Y-138446D01*
X-45421Y-138202D01*
D02*
G37*
G36*
X-54499Y-138809D02*
X-55255D01*
X-55953Y-139098D01*
X-56487Y-139633D01*
X-56777Y-140331D01*
Y-141087D01*
X-56487Y-141785D01*
X-55953Y-142320D01*
X-55255Y-142609D01*
X-54499D01*
X-53800Y-142320D01*
X-53266Y-141785D01*
X-52977Y-141087D01*
Y-140331D01*
X-53266Y-139633D01*
X-53800Y-139098D01*
X-54499Y-138809D01*
D02*
G37*
G36*
X-72362Y-155157D02*
X-73118D01*
X-73816Y-155446D01*
X-74351Y-155981D01*
X-74640Y-156679D01*
Y-157435D01*
X-74351Y-158133D01*
X-73816Y-158668D01*
X-73118Y-158957D01*
X-72362D01*
X-71664Y-158668D01*
X-71129Y-158133D01*
X-70840Y-157435D01*
Y-156679D01*
X-71129Y-155981D01*
X-71664Y-155446D01*
X-72362Y-155157D01*
D02*
G37*
G36*
X-89862Y-167407D02*
X-90618D01*
X-91316Y-167696D01*
X-91851Y-168231D01*
X-92140Y-168929D01*
Y-169685D01*
X-91851Y-170383D01*
X-91316Y-170918D01*
X-90618Y-171207D01*
X-89862D01*
X-89164Y-170918D01*
X-88629Y-170383D01*
X-88340Y-169685D01*
Y-168929D01*
X-88629Y-168231D01*
X-89164Y-167696D01*
X-89862Y-167407D01*
D02*
G37*
G36*
X-87612Y-172407D02*
X-88368D01*
X-89066Y-172696D01*
X-89601Y-173231D01*
X-89890Y-173929D01*
Y-174685D01*
X-89601Y-175383D01*
X-89066Y-175918D01*
X-88368Y-176207D01*
X-87612D01*
X-86914Y-175918D01*
X-86379Y-175383D01*
X-86090Y-174685D01*
Y-173929D01*
X-86379Y-173231D01*
X-86914Y-172696D01*
X-87612Y-172407D01*
D02*
G37*
G36*
X-99362Y-183157D02*
X-100118D01*
X-100816Y-183446D01*
X-101351Y-183981D01*
X-101640Y-184679D01*
Y-185435D01*
X-101351Y-186133D01*
X-100816Y-186668D01*
X-100118Y-186957D01*
X-99362D01*
X-98664Y-186668D01*
X-98129Y-186133D01*
X-97840Y-185435D01*
Y-184679D01*
X-98129Y-183981D01*
X-98664Y-183446D01*
X-99362Y-183157D01*
D02*
G37*
%LPD*%
D10*
X-57547Y101958D02*
G03*
X-56563Y101134I1380J648D01*
G01*
X-35446Y69470D02*
G03*
X-34006Y69433I754J1324D01*
G01*
X-9450Y137696D02*
G03*
X-9423Y139159I-1323J756D01*
G01*
X-40860Y112877D02*
G03*
X-40711Y111801I1485J-343D01*
G01*
X-40347Y102402D02*
X-35624Y97680D01*
X-47257Y111818D02*
X-44484Y105925D01*
X-42148Y104487D01*
X-39790D01*
X-37682Y105473D01*
X-43839Y102402D02*
X-40347D01*
X-56557Y101133D02*
X-50190Y99452D01*
X-56563Y101134D02*
X-56557Y101133D01*
X-114490Y101563D02*
X-107240D01*
X-85184Y118063D02*
X-81065Y122182D01*
X-80627Y122620D02*
Y123422D01*
X-107240Y101563D02*
X-84240Y124563D01*
X-81065Y122182D02*
X-80627Y122620D01*
X-73990Y121563D02*
X-72990Y120563D01*
X-85240Y118063D02*
X-85184D01*
X-81249Y129233D02*
X-80627Y123422D01*
X-35461Y83799D02*
X-32320Y90390D01*
X-41240Y81063D02*
X-35490Y83813D01*
X-41240Y81063D02*
X-40958Y81345D01*
X-34006Y69433D02*
X50010Y111813D01*
X-57990Y82313D02*
X-57740D01*
X-57801Y82205D02*
X-35446Y69470D01*
X-22990Y165063D02*
X-9423Y139159D01*
X-12255Y132787D02*
X-9450Y137696D01*
X-95490Y126813D02*
X-86424Y130958D01*
X-81249Y129233D01*
X-39101Y109114D02*
X-38990Y108813D01*
X-39240Y109063D02*
X-38990Y108813D01*
X-40711Y111801D02*
X-39490Y109563D01*
X-35624Y97680D02*
X-35306Y97213D01*
X-32320Y90390D01*
X-72990Y120563D02*
X-72601Y120222D01*
X-69819Y117781D01*
X-39484Y118841D02*
X-12255Y132787D01*
X-15183Y134991D02*
X-12567Y139351D01*
X-45572Y119679D02*
X-15183Y134991D01*
X-19740Y153063D02*
X-12567Y139351D01*
X-100237Y89268D02*
X-63215Y107532D01*
X-59455Y105965D02*
X-57547Y101958D01*
X-63215Y107532D02*
X-59455Y105965D01*
X-103851Y92117D02*
X-100237Y89268D01*
X-47257Y111818D02*
X-45572Y119679D01*
X-37682Y105473D02*
X-37490Y105563D01*
X-40860Y112877D02*
X-39484Y118841D01*
X-69819Y117781D02*
X-47270Y128925D01*
X-43240Y127313D01*
X-57990Y82313D02*
X-57801Y82205D01*
X-83240Y86813D02*
X-76407Y90230D01*
X-64990Y78813D02*
X-57990Y82313D01*
X-76407Y90230D02*
X-64990Y78813D01*
X-40860Y-116993D02*
G03*
X-40711Y-118069I1485J-343D01*
G01*
X-57547Y-127912D02*
G03*
X-56563Y-128736I1380J648D01*
G01*
X-9450Y-92174D02*
G03*
X-9423Y-90711I-1323J756D01*
G01*
X-35446Y-160400D02*
G03*
X-34006Y-160437I754J1324D01*
G01*
X-47270Y-100945D02*
X-43240Y-102557D01*
X-39484Y-111029D02*
X-12255Y-97083D01*
X-42148Y-125383D02*
X-39790D01*
X-40711Y-118069D02*
X-39490Y-120307D01*
X-40347Y-127468D02*
X-35624Y-132190D01*
X-40860Y-116993D02*
X-39484Y-111029D01*
X-41240Y-148807D02*
X-40958Y-148525D01*
X-37682Y-124397D02*
X-37490Y-124307D01*
X-39790Y-125383D02*
X-37682Y-124397D01*
X-39240Y-120807D02*
X-38990Y-121057D01*
X-35624Y-132190D02*
X-35306Y-132657D01*
X-39101Y-120756D02*
X-38990Y-121057D01*
X-43839Y-127468D02*
X-40347D01*
X-47257Y-118052D02*
X-44484Y-123946D01*
X-42148Y-125383D01*
X-47257Y-118052D02*
X-45572Y-110191D01*
X-56557Y-128737D02*
X-50190Y-130418D01*
X-56563Y-128736D02*
X-56557Y-128737D01*
X-45572Y-110191D02*
X-15183Y-94879D01*
X-35306Y-132657D02*
X-32320Y-139480D01*
X-35461Y-146071D02*
X-32320Y-139480D01*
X-83240Y-143057D02*
X-76407Y-139640D01*
X-57990Y-147557D02*
X-57740D01*
X-57990D02*
X-57801Y-147664D01*
X-64990Y-151057D02*
X-57990Y-147557D01*
X-107240Y-128307D02*
X-84240Y-105307D01*
X-59455Y-123905D02*
X-57547Y-127912D01*
X-12255Y-97083D02*
X-9450Y-92174D01*
X-22990Y-64807D02*
X-9423Y-90711D01*
X-41240Y-148807D02*
X-35490Y-146057D01*
X-34006Y-160437D02*
X50010Y-118057D01*
X-57801Y-147664D02*
X-35446Y-160400D01*
X-81249Y-100637D02*
X-80627Y-106448D01*
X-95490Y-103057D02*
X-86424Y-98912D01*
X-81249Y-100637D01*
X-73990Y-108307D02*
X-72990Y-109307D01*
X-72601Y-109648D01*
X-69819Y-112089D01*
X-85184Y-111807D02*
X-81065Y-107688D01*
X-80627Y-107250D02*
Y-106448D01*
X-85240Y-111807D02*
X-85184D01*
X-81065Y-107688D02*
X-80627Y-107250D01*
X-15183Y-94879D02*
X-12567Y-90519D01*
X-19740Y-76807D02*
X-12567Y-90519D01*
X-114490Y-128307D02*
X-107240D01*
X-100237Y-140602D02*
X-63215Y-122338D01*
X-59455Y-123905D01*
X-103851Y-137753D02*
X-100237Y-140602D01*
X-69819Y-112089D02*
X-47270Y-100945D01*
X-76407Y-139640D02*
X-64990Y-151057D01*
D11*
X-69250Y150468D02*
G03*
X-69728Y150187I1691J-3414D01*
G01*
X-25886Y170996D02*
G03*
X-26550Y170754I970J-3684D01*
G01*
X19218Y182634D02*
G03*
X18262Y182512I1J-3810D01*
G01*
X-68131Y151022D02*
G03*
X-68189Y150994I1633J-3442D01*
G01*
X-95551Y132309D02*
G03*
X-96315Y131607I2171J-3131D01*
G01*
X-95551Y132309D02*
X-69728Y150187D01*
X-25886Y170996D02*
X-25878Y170998D01*
X19218Y182634D02*
X19220Y182634D01*
X-68131Y151022D02*
X-26550Y170754D01*
X-69250Y150468D02*
X-68189Y150994D01*
X-25878Y170998D02*
X18262Y182512D01*
X19220Y182634D02*
X35760Y182634D01*
X-118570Y104716D02*
X-96315Y131607D01*
X35760Y182563D02*
X38260Y180063D01*
Y179063D02*
Y180063D01*
X-118249Y98010D02*
X-118150Y97883D01*
X-108740Y85813D01*
X-118570Y104716D02*
X-118249Y98010D01*
X19218Y-47236D02*
G03*
X18262Y-47358I2J-3810D01*
G01*
X-25878Y-58872D02*
G03*
X-26550Y-59116I962J-3687D01*
G01*
X-73742Y-81511D02*
G03*
X-74444Y-81939I1625J-3446D01*
G01*
X19218Y-47236D02*
X19219Y-47236D01*
X-73742Y-81510D02*
X-26550Y-59116D01*
X-73742Y-81511D02*
X-73742Y-81510D01*
X-74456Y-81949D02*
X-74444Y-81939D01*
X19219Y-47236D02*
X35760Y-47236D01*
X-25878Y-58872D02*
X18262Y-47358D01*
X-97882Y-100155D02*
X-74456Y-81949D01*
X35760Y-47307D02*
X38260Y-49807D01*
X-118570Y-125154D02*
X-97882Y-100155D01*
X38260Y-50807D02*
Y-49807D01*
X-118249Y-131860D02*
X-118150Y-131987D01*
X-108740Y-144057D01*
X-118570Y-125154D02*
X-118249Y-131860D01*
D47*
X217171Y-264653D02*
G03*
X270795Y-210819I-118J53742D01*
G01*
X270608Y208316D02*
G03*
X218774Y263901I-53710J1876D01*
G01*
X-207022Y264549D02*
G03*
X-257878Y208067I2813J-53669D01*
G01*
X-258098Y-210417D02*
G03*
X-204355Y-264160I53742J0D01*
G01*
X217171D01*
X270608Y-210819D02*
X270608Y208316D01*
X-207022Y264160D02*
X218774D01*
X-258098Y-210417D02*
Y207992D01*
D48*
X-153419Y91622D02*
G03*
X-157240Y81620I11179J-10002D01*
G01*
X-138751Y-197016D02*
G03*
X-125240Y-205500I13511J6516D01*
G01*
X162760Y185620D02*
G03*
X147760Y200620I-15000J0D01*
G01*
X162760Y185620D02*
G03*
X147760Y200620I-15000J0D01*
G01*
X158367Y117622D02*
G03*
X162760Y128229I-10607J10607D01*
G01*
X158367Y117622D02*
G03*
X162760Y128229I-10607J10607D01*
G01*
X138401Y103870D02*
G03*
X149008Y108263I0J15000D01*
G01*
X138401Y103870D02*
G03*
X149008Y108263I0J15000D01*
G01*
X18291Y200620D02*
G03*
X14505Y200135I0J-15000D01*
G01*
X18291Y200620D02*
G03*
X14490Y200131I0J-15000D01*
G01*
X-31174Y188220D02*
G03*
X-33834Y187253I3771J-14519D01*
G01*
X-31189Y188216D02*
G03*
X-33851Y187245I3786J-14515D01*
G01*
X162760Y-44250D02*
G03*
X147760Y-29250I-15000J0D01*
G01*
X162760Y-44250D02*
G03*
X147760Y-29250I-15000J0D01*
G01*
X158367Y-112248D02*
G03*
X162760Y-101641I-10607J10607D01*
G01*
X138401Y-126000D02*
G03*
X149008Y-121607I0J15000D01*
G01*
X158367Y-112248D02*
G03*
X162760Y-101641I-10607J10607D01*
G01*
X138401Y-126000D02*
G03*
X149008Y-121607I0J15000D01*
G01*
X18291Y-29250D02*
G03*
X14505Y-29735I0J-15000D01*
G01*
X-31174Y-41650D02*
G03*
X-33834Y-42617I3771J-14519D01*
G01*
X18291Y-29250D02*
G03*
X14490Y-29739I0J-15000D01*
G01*
X-31189Y-41654D02*
G03*
X-33851Y-42625I3786J-14515D01*
G01*
X-110483Y144434D02*
G03*
X-112974Y141964I9243J-11814D01*
G01*
X-110491Y144428D02*
G03*
X-112983Y141953I9251J-11808D01*
G01*
X-138751Y32854D02*
G03*
X-125240Y24370I13511J6516D01*
G01*
X-138751Y32854D02*
G03*
X-125240Y24370I13511J6516D01*
G01*
X-110491Y-85442D02*
G03*
X-112983Y-87917I9251J-11808D01*
G01*
X-138751Y-197016D02*
G03*
X-125240Y-205500I13511J6516D01*
G01*
X-153408Y-138236D02*
G03*
X-157240Y-148250I11168J-10014D01*
G01*
X-153419Y-138248D02*
G03*
X-157240Y-148250I11179J-10002D01*
G01*
X78740Y24130D02*
X198120D01*
X-74670Y28109D02*
X-35560Y46990D01*
X-200660Y-29250D02*
X-113030D01*
X-200660Y200620D02*
X-113030D01*
X77470Y-205740D02*
X196850D01*
X-194317Y81357D02*
X-162070Y81520D01*
X130175Y103870D02*
X196850D01*
X130175Y200620D02*
X198120D01*
X128905Y-29250D02*
X198120D01*
X130175Y-126000D02*
X195580D01*
X-190507Y-148513D02*
X-158260Y-148350D01*
X-179070Y24130D02*
X-131590D01*
X-179070Y-205740D02*
X-131590D01*
X16370Y200620D02*
X50165D01*
X14490Y200131D02*
X16370Y200620D01*
X-72390Y-200660D02*
X-30480Y-180340D01*
X-150199Y95216D02*
X-118179Y135428D01*
X-149860Y-133350D02*
X-117560Y-93665D01*
X40666Y-146650D02*
X68367Y-133350D01*
X36376Y81160D02*
X65722Y95250D01*
X18291Y-29250D02*
X48895D01*
X-58169Y175705D02*
X-33851Y187245D01*
X-53863Y-52122D02*
X-33851Y-42625D01*
X149008Y108263D02*
X156950Y116205D01*
X-522Y196215D02*
X14490Y200131D01*
X-31174Y188220D02*
X-522Y196215D01*
X149008Y-121607D02*
X156950Y-113665D01*
X14490Y-29739D02*
X14505Y-29735D01*
X-522Y-33655D02*
X14490Y-29739D01*
X-31174Y-41650D02*
X-3810Y-34513D01*
X-31189Y188216D02*
X-31174Y188220D01*
X-33851Y187245D02*
X-33834Y187253D01*
X-31189Y-41654D02*
X-31174Y-41650D01*
X-33851Y-42625D02*
X-33834Y-42617D01*
D54*
X-96990Y103313D02*
D03*
X-99990Y83563D02*
D03*
X30696Y126221D02*
D03*
X-73990Y121563D02*
D03*
X-85240Y118063D02*
D03*
X-89240Y105313D02*
D03*
X97760Y148313D02*
D03*
X64978Y161350D02*
D03*
X91510Y140813D02*
D03*
X-41240Y81063D02*
D03*
X-43990Y86563D02*
D03*
X-33425Y72631D02*
D03*
X38260Y179063D02*
D03*
X-22990Y165063D02*
D03*
X8760Y169063D02*
D03*
X21260Y108813D02*
D03*
X-31740Y115813D02*
D03*
X-19740Y153063D02*
D03*
X50010Y111813D02*
D03*
X-13240Y98563D02*
D03*
X-43240Y127313D02*
D03*
X-60148Y129362D02*
D03*
X-64468Y138382D02*
D03*
X-57990Y82313D02*
D03*
X-83240Y86813D02*
D03*
X-84240Y124563D02*
D03*
X-114490Y101563D02*
D03*
X-103851Y92117D02*
D03*
X-96990Y-126557D02*
D03*
X-99990Y-146307D02*
D03*
X-43240Y-102557D02*
D03*
X-31740Y-114057D02*
D03*
X30717Y-104383D02*
D03*
X-83240Y-143057D02*
D03*
X-57990Y-147557D02*
D03*
X-84240Y-105307D02*
D03*
X-22990Y-64807D02*
D03*
X-41240Y-148807D02*
D03*
X-43990Y-143307D02*
D03*
X-33425Y-157239D02*
D03*
X38260Y-50807D02*
D03*
X8760Y-60807D02*
D03*
X21260Y-121057D02*
D03*
X65010Y-74807D02*
D03*
X-73990Y-108307D02*
D03*
X-85240Y-111807D02*
D03*
X-19740Y-76807D02*
D03*
X50010Y-118057D02*
D03*
X-13240Y-131307D02*
D03*
X-60148Y-100508D02*
D03*
X-64468Y-91488D02*
D03*
X-89240Y-124557D02*
D03*
X-114490Y-128307D02*
D03*
X-103851Y-137753D02*
D03*
X97260Y-92807D02*
D03*
D55*
X-43839Y102402D02*
D03*
X-50190Y99452D02*
D03*
X-40911Y96464D02*
D03*
X-95490Y126813D02*
D03*
X-38990Y108813D02*
D03*
X-37490Y105563D02*
D03*
Y-124307D02*
D03*
X-38990Y-121057D02*
D03*
X-43839Y-127468D02*
D03*
X-50190Y-130418D02*
D03*
X-40911Y-133406D02*
D03*
X-95490Y-103057D02*
D03*
D56*
X-108740Y85813D02*
D03*
X-72990Y55063D02*
D03*
X-108740Y-144057D02*
D03*
X-72990Y-174807D02*
D03*
M02*
