G04*
G04 #@! TF.GenerationSoftware,Altium Limited,Altium Designer,23.2.1 (34)*
G04*
G04 Layer_Physical_Order=1*
G04 Layer_Color=255*
%FSLAX44Y44*%
%MOMM*%
G71*
G04*
G04 #@! TF.SameCoordinates,96D2EB81-E719-42E9-B1B6-D61F4878D9FD*
G04*
G04*
G04 #@! TF.FilePolarity,Positive*
G04*
G01*
G75*
%ADD10C,0.1524*%
%ADD11C,0.3810*%
%ADD12O,0.5500X0.2500*%
%ADD13R,0.5500X0.2500*%
%ADD14R,0.4541X0.3627*%
%ADD15R,0.4400X0.3500*%
%ADD16R,0.5600X0.5200*%
G04:AMPARAMS|DCode=17|XSize=1.646mm|YSize=2.384mm|CornerRadius=0mm|HoleSize=0mm|Usage=FLASHONLY|Rotation=206.000|XOffset=0mm|YOffset=0mm|HoleType=Round|Shape=Rectangle|*
%AMROTATEDRECTD17*
4,1,4,0.2172,1.4321,1.2622,-0.7106,-0.2172,-1.4321,-1.2622,0.7106,0.2172,1.4321,0.0*
%
%ADD17ROTATEDRECTD17*%

G04:AMPARAMS|DCode=18|XSize=0.6mm|YSize=0.3mm|CornerRadius=0mm|HoleSize=0mm|Usage=FLASHONLY|Rotation=206.000|XOffset=0mm|YOffset=0mm|HoleType=Round|Shape=Rectangle|*
%AMROTATEDRECTD18*
4,1,4,0.2039,0.2663,0.3354,-0.0033,-0.2039,-0.2663,-0.3354,0.0033,0.2039,0.2663,0.0*
%
%ADD18ROTATEDRECTD18*%

G04:AMPARAMS|DCode=19|XSize=0.27mm|YSize=0.65mm|CornerRadius=0mm|HoleSize=0mm|Usage=FLASHONLY|Rotation=190.000|XOffset=0mm|YOffset=0mm|HoleType=Round|Shape=Rectangle|*
%AMROTATEDRECTD19*
4,1,4,0.0765,0.3435,0.1894,-0.2966,-0.0765,-0.3435,-0.1894,0.2966,0.0765,0.3435,0.0*
%
%ADD19ROTATEDRECTD19*%

G04:AMPARAMS|DCode=20|XSize=0.25mm|YSize=0.65mm|CornerRadius=0mm|HoleSize=0mm|Usage=FLASHONLY|Rotation=190.000|XOffset=0mm|YOffset=0mm|HoleType=Round|Shape=Rectangle|*
%AMROTATEDRECTD20*
4,1,4,0.0667,0.3418,0.1795,-0.2984,-0.0667,-0.3418,-0.1795,0.2984,0.0667,0.3418,0.0*
%
%ADD20ROTATEDRECTD20*%

G04:AMPARAMS|DCode=21|XSize=0.675mm|YSize=0.25mm|CornerRadius=0mm|HoleSize=0mm|Usage=FLASHONLY|Rotation=116.000|XOffset=0mm|YOffset=0mm|HoleType=Round|Shape=Rectangle|*
%AMROTATEDRECTD21*
4,1,4,0.2603,-0.2486,0.0356,-0.3581,-0.2603,0.2486,-0.0356,0.3581,0.2603,-0.2486,0.0*
%
%ADD21ROTATEDRECTD21*%

G04:AMPARAMS|DCode=22|XSize=0.675mm|YSize=0.25mm|CornerRadius=0mm|HoleSize=0mm|Usage=FLASHONLY|Rotation=26.000|XOffset=0mm|YOffset=0mm|HoleType=Round|Shape=Rectangle|*
%AMROTATEDRECTD22*
4,1,4,-0.2486,-0.2603,-0.3581,-0.0356,0.2486,0.2603,0.3581,0.0356,-0.2486,-0.2603,0.0*
%
%ADD22ROTATEDRECTD22*%

G04:AMPARAMS|DCode=23|XSize=0.35mm|YSize=0.4mm|CornerRadius=0mm|HoleSize=0mm|Usage=FLASHONLY|Rotation=296.000|XOffset=0mm|YOffset=0mm|HoleType=Round|Shape=Rectangle|*
%AMROTATEDRECTD23*
4,1,4,-0.2565,0.0696,0.1030,0.2450,0.2565,-0.0696,-0.1030,-0.2450,-0.2565,0.0696,0.0*
%
%ADD23ROTATEDRECTD23*%

G04:AMPARAMS|DCode=24|XSize=0.6587mm|YSize=0.8121mm|CornerRadius=0mm|HoleSize=0mm|Usage=FLASHONLY|Rotation=206.000|XOffset=0mm|YOffset=0mm|HoleType=Round|Shape=Rectangle|*
%AMROTATEDRECTD24*
4,1,4,0.1180,0.5094,0.4740,-0.2206,-0.1180,-0.5094,-0.4740,0.2206,0.1180,0.5094,0.0*
%
%ADD24ROTATEDRECTD24*%

G04:AMPARAMS|DCode=25|XSize=0.64mm|YSize=0.6mm|CornerRadius=0mm|HoleSize=0mm|Usage=FLASHONLY|Rotation=296.000|XOffset=0mm|YOffset=0mm|HoleType=Round|Shape=Rectangle|*
%AMROTATEDRECTD25*
4,1,4,-0.4099,0.1561,0.1294,0.4191,0.4099,-0.1561,-0.1294,-0.4191,-0.4099,0.1561,0.0*
%
%ADD25ROTATEDRECTD25*%

G04:AMPARAMS|DCode=26|XSize=0.64mm|YSize=0.6mm|CornerRadius=0mm|HoleSize=0mm|Usage=FLASHONLY|Rotation=284.000|XOffset=0mm|YOffset=0mm|HoleType=Round|Shape=Rectangle|*
%AMROTATEDRECTD26*
4,1,4,-0.3685,0.2379,0.2137,0.3831,0.3685,-0.2379,-0.2137,-0.3831,-0.3685,0.2379,0.0*
%
%ADD26ROTATEDRECTD26*%

G04:AMPARAMS|DCode=27|XSize=0.64mm|YSize=0.6mm|CornerRadius=0mm|HoleSize=0mm|Usage=FLASHONLY|Rotation=26.000|XOffset=0mm|YOffset=0mm|HoleType=Round|Shape=Rectangle|*
%AMROTATEDRECTD27*
4,1,4,-0.1561,-0.4099,-0.4191,0.1294,0.1561,0.4099,0.4191,-0.1294,-0.1561,-0.4099,0.0*
%
%ADD27ROTATEDRECTD27*%

%ADD28R,0.8000X0.8000*%
G04:AMPARAMS|DCode=29|XSize=0.35mm|YSize=0.44mm|CornerRadius=0mm|HoleSize=0mm|Usage=FLASHONLY|Rotation=116.000|XOffset=0mm|YOffset=0mm|HoleType=Round|Shape=Rectangle|*
%AMROTATEDRECTD29*
4,1,4,0.2745,-0.0609,-0.1210,-0.2537,-0.2745,0.0609,0.1210,0.2537,0.2745,-0.0609,0.0*
%
%ADD29ROTATEDRECTD29*%

G04:AMPARAMS|DCode=30|XSize=0.65mm|YSize=0.7mm|CornerRadius=0mm|HoleSize=0mm|Usage=FLASHONLY|Rotation=116.000|XOffset=0mm|YOffset=0mm|HoleType=Round|Shape=Rectangle|*
%AMROTATEDRECTD30*
4,1,4,0.4571,-0.1387,-0.1721,-0.4455,-0.4571,0.1387,0.1721,0.4455,0.4571,-0.1387,0.0*
%
%ADD30ROTATEDRECTD30*%

G04:AMPARAMS|DCode=31|XSize=0.5mm|YSize=0.6mm|CornerRadius=0mm|HoleSize=0mm|Usage=FLASHONLY|Rotation=206.000|XOffset=0mm|YOffset=0mm|HoleType=Round|Shape=Rectangle|*
%AMROTATEDRECTD31*
4,1,4,0.0932,0.3792,0.3562,-0.1601,-0.0932,-0.3792,-0.3562,0.1601,0.0932,0.3792,0.0*
%
%ADD31ROTATEDRECTD31*%

G04:AMPARAMS|DCode=32|XSize=0.55mm|YSize=0.6mm|CornerRadius=0mm|HoleSize=0mm|Usage=FLASHONLY|Rotation=296.000|XOffset=0mm|YOffset=0mm|HoleType=Round|Shape=Rectangle|*
%AMROTATEDRECTD32*
4,1,4,-0.3902,0.1157,0.1491,0.3787,0.3902,-0.1157,-0.1491,-0.3787,-0.3902,0.1157,0.0*
%
%ADD32ROTATEDRECTD32*%

G04:AMPARAMS|DCode=33|XSize=0.35mm|YSize=0.4mm|CornerRadius=0mm|HoleSize=0mm|Usage=FLASHONLY|Rotation=277.000|XOffset=0mm|YOffset=0mm|HoleType=Round|Shape=Rectangle|*
%AMROTATEDRECTD33*
4,1,4,-0.2198,0.1493,0.1772,0.1981,0.2198,-0.1493,-0.1772,-0.1981,-0.2198,0.1493,0.0*
%
%ADD33ROTATEDRECTD33*%

G04:AMPARAMS|DCode=34|XSize=0.65mm|YSize=0.7mm|CornerRadius=0mm|HoleSize=0mm|Usage=FLASHONLY|Rotation=206.000|XOffset=0mm|YOffset=0mm|HoleType=Round|Shape=Rectangle|*
%AMROTATEDRECTD34*
4,1,4,0.1387,0.4571,0.4455,-0.1721,-0.1387,-0.4571,-0.4455,0.1721,0.1387,0.4571,0.0*
%
%ADD34ROTATEDRECTD34*%

%ADD35P,1.1314X4X161.0*%
%ADD36P,1.1314X4X97.0*%
%ADD37P,1.1314X4X55.0*%
%ADD38P,0.2828X4X251.0*%
G04:AMPARAMS|DCode=39|XSize=0.2mm|YSize=0.2mm|CornerRadius=0mm|HoleSize=0mm|Usage=FLASHONLY|Rotation=206.000|XOffset=0mm|YOffset=0mm|HoleType=Round|Shape=Octagon|*
%AMOCTAGOND39*
4,1,8,-0.1118,0.0011,-0.0680,-0.0888,-0.0011,-0.1118,0.0888,-0.0680,0.1118,-0.0011,0.0680,0.0888,0.0011,0.1118,-0.0888,0.0680,-0.1118,0.0011,0.0*
%
%ADD39OCTAGOND39*%

%ADD40C,0.0500*%
%ADD41R,0.6000X0.6400*%
%ADD42R,0.3500X0.4000*%
%ADD43R,0.4000X0.3500*%
%ADD44R,0.2500X0.3500*%
%ADD45R,0.1000X0.1000*%
%ADD46P,0.6788X4X180.0*%
%ADD47C,0.2540*%
%ADD48C,3.0000*%
%ADD49C,1.3000*%
%ADD50C,1.5240*%
%ADD51C,0.1000*%
%ADD52O,1.5000X0.8000*%
G04:AMPARAMS|DCode=53|XSize=0.9mm|YSize=1.5mm|CornerRadius=0mm|HoleSize=0mm|Usage=FLASHONLY|Rotation=296.000|XOffset=0mm|YOffset=0mm|HoleType=Round|Shape=Round|*
%AMOVALD53*
21,1,0.6000,0.9000,0.0000,0.0000,26.0*
1,1,0.9000,-0.2696,-0.1315*
1,1,0.9000,0.2696,0.1315*
%
%ADD53OVALD53*%

%ADD54C,0.3000*%
%ADD55C,0.2410*%
%ADD56C,0.3050*%
G36*
X105411Y178688D02*
X105161Y158438D01*
X99760D01*
Y178688D01*
X105411Y178688D01*
D02*
G37*
G36*
X95661D02*
X95411Y158438D01*
X90010D01*
Y178688D01*
X95661Y178688D01*
D02*
G37*
G36*
X85661D02*
X85411Y158438D01*
X80010D01*
Y178688D01*
X85661Y178688D01*
D02*
G37*
G36*
X27010Y153813D02*
X14760Y151563D01*
X13760Y158063D01*
X26010Y160063D01*
X27010Y153813D01*
D02*
G37*
G36*
X-9971Y143549D02*
X-7740Y144563D01*
X-6240Y142563D01*
X-9079Y141224D01*
X-10622D01*
X-14161Y143880D01*
X-21556Y140350D01*
X-22196Y138265D01*
X-21201Y136219D01*
X-22996Y134958D01*
X-23302Y135023D01*
X-25321Y138876D01*
X-24305Y141988D01*
X-14310Y146813D01*
X-9971Y143549D01*
D02*
G37*
G36*
X-72240Y133813D02*
X-74490Y132813D01*
X-76490Y137813D01*
X-74490Y138813D01*
X-72240Y133813D01*
D02*
G37*
G36*
X-10115Y135563D02*
X-16365Y132563D01*
X-19115Y138313D01*
X-12865Y141313D01*
X-10115Y135563D01*
D02*
G37*
G36*
X-19353Y131819D02*
X-19253Y131775D01*
X-19168Y131707D01*
X-19136Y131662D01*
X-19136D01*
X-19091Y131601D01*
X-18997Y131482D01*
X-18899Y131367D01*
X-18796Y131256D01*
X-18743Y131202D01*
Y131202D01*
Y131202D01*
D01*
X-18743Y130571D01*
X-18676Y130375D01*
X-18669Y129961D01*
X-18790Y129565D01*
X-19028Y129226D01*
X-19194Y129102D01*
X-19194Y129102D01*
X-20180Y128444D01*
X-21535Y131606D01*
X-19515Y131830D01*
X-19461Y131836D01*
X-19353Y131819D01*
D02*
G37*
G36*
X38760Y130313D02*
X26510Y128563D01*
X25510Y134813D01*
X37760Y136813D01*
X38760Y130313D01*
D02*
G37*
G36*
X7260Y109313D02*
X-7740Y102063D01*
X-18990Y125313D01*
X-3990Y132563D01*
X7260Y109313D01*
D02*
G37*
G36*
X57010Y-66257D02*
X55210Y-68057D01*
X53010D01*
Y-65557D01*
X57010D01*
Y-66257D01*
D02*
G37*
G36*
X66010Y-68057D02*
X63810D01*
X62010Y-66257D01*
Y-65557D01*
X66010D01*
Y-68057D01*
D02*
G37*
G36*
Y-74557D02*
X61310D01*
X63810Y-72057D01*
X66010D01*
Y-74557D01*
D02*
G37*
G36*
X57010Y-73857D02*
Y-74557D01*
X53010D01*
Y-72057D01*
X55210D01*
X57010Y-73857D01*
D02*
G37*
G36*
X27010Y-76057D02*
X14760Y-78307D01*
X13760Y-71807D01*
X26010Y-69807D01*
X27010Y-76057D01*
D02*
G37*
G36*
X-9971Y-86321D02*
X-7740Y-85307D01*
X-6240Y-87307D01*
X-9079Y-88646D01*
X-10622D01*
X-14161Y-85990D01*
X-21556Y-89521D01*
X-22196Y-91605D01*
X-21201Y-93651D01*
X-22996Y-94912D01*
X-23302Y-94847D01*
X-25321Y-90994D01*
X-24305Y-87882D01*
X-14310Y-83057D01*
X-9971Y-86321D01*
D02*
G37*
G36*
X-72240Y-96057D02*
X-74490Y-97057D01*
X-76490Y-92057D01*
X-74490Y-91057D01*
X-72240Y-96057D01*
D02*
G37*
G36*
X-10115Y-94307D02*
X-16365Y-97307D01*
X-19115Y-91557D01*
X-12865Y-88557D01*
X-10115Y-94307D01*
D02*
G37*
G36*
X-19353Y-98051D02*
X-19253Y-98095D01*
X-19168Y-98163D01*
X-19136Y-98208D01*
X-19136D01*
X-19091Y-98268D01*
X-18997Y-98388D01*
X-18899Y-98503D01*
X-18796Y-98614D01*
X-18743Y-98668D01*
Y-98668D01*
Y-98668D01*
D01*
X-18743Y-99299D01*
X-18676Y-99495D01*
X-18669Y-99909D01*
X-18790Y-100305D01*
X-19028Y-100644D01*
X-19194Y-100768D01*
X-19194Y-100768D01*
X-20180Y-101426D01*
X-21535Y-98264D01*
X-19515Y-98040D01*
X-19461Y-98034D01*
X-19353Y-98051D01*
D02*
G37*
G36*
X38760Y-99557D02*
X26510Y-101307D01*
X25510Y-95057D01*
X37760Y-93057D01*
X38760Y-99557D01*
D02*
G37*
G36*
X14010Y-124557D02*
X10760Y-122557D01*
X14010Y-120807D01*
Y-124557D01*
D02*
G37*
G36*
X7260Y-120557D02*
X-7740Y-127807D01*
X-18990Y-104557D01*
X-3990Y-97307D01*
X7260Y-120557D01*
D02*
G37*
D10*
X-108726Y85837D02*
G03*
X-105000Y85683I2004J3335D01*
G01*
X-90822Y92772D02*
G03*
X-89990Y94130I-692J1358D01*
G01*
X-93442Y104994D02*
G03*
X-93296Y104161I1515J-164D01*
G01*
X-89990Y96964D02*
G03*
X-90140Y97625I-1524J0D01*
G01*
X-92236Y109431D02*
G03*
X-93083Y108222I668J-1370D01*
G01*
X-89723Y118506D02*
G03*
X-90569Y119274I-1373J-662D01*
G01*
X-98008Y82426D02*
G03*
X-98789Y83101I-1328J-748D01*
G01*
X-21069Y128762D02*
G03*
X-20393Y130787I-693J1357D01*
G01*
X-32426Y123661D02*
G03*
X-31044Y123668I684J1362D01*
G01*
X-49180Y104955D02*
G03*
X-50155Y105690I-1328J-747D01*
G01*
X9867Y158003D02*
G03*
X9020Y156760I671J-1368D01*
G01*
X22769Y163972D02*
G03*
X21785Y163848I-312J-1492D01*
G01*
X6603Y134805D02*
G03*
X7444Y136054I-679J1365D01*
G01*
X8607Y162514D02*
G03*
X8227Y162387I288J-1497D01*
G01*
X-107828Y93399D02*
G03*
X-108799Y93327I-378J-1476D01*
G01*
X-120190Y89360D02*
G03*
X-118663Y89162I932J1206D01*
G01*
X-12508Y169005D02*
G03*
X-11783Y169426I-373J1478D01*
G01*
X40473Y167221D02*
G03*
X40484Y167147I1513J186D01*
G01*
X-47609Y141683D02*
G03*
X-47116Y141401I990J1159D01*
G01*
X30252Y159930D02*
G03*
X30276Y160426I-1490J323D01*
G01*
X15850Y146455D02*
G03*
X14951Y145173I622J-1392D01*
G01*
X12959Y126579D02*
G03*
X13811Y127842I-668J1370D01*
G01*
X-89990Y94130D02*
Y96964D01*
X-105000Y85683D02*
X-90822Y92772D01*
X-95490Y121063D02*
X-95434Y121046D01*
X-95113Y120947D01*
X-93296Y104161D02*
X-90142Y97627D01*
X-90140Y97625D01*
X-93442Y104994D02*
X-93442Y104999D01*
X-93083Y108222D01*
X-89723Y118506D02*
X-89721Y118502D01*
X-98008Y82426D02*
X-97240Y81063D01*
X-99990Y83563D02*
X-98789Y83101D01*
X-98008Y82426D02*
X-98008D01*
X-92236Y109431D02*
X-87949Y111522D01*
X-87026Y112454D01*
X-89063Y116630D02*
X-87062Y112528D01*
X-87026Y112454D02*
Y112527D01*
X-86990Y112563D01*
X-31044Y123668D02*
X-21069Y128762D01*
X-32432Y123664D02*
X-32426Y123661D01*
X-20569Y131148D02*
X-20490Y131313D01*
X-20569Y131148D02*
X-20393Y130787D01*
X-36251Y125603D02*
X-32432Y123664D01*
X-47116Y141401D02*
X-43463Y140140D01*
X-43240Y140063D02*
X-36251Y125603D01*
X-50159Y105691D02*
X-50155Y105690D01*
X-53959Y106585D02*
X-50159Y105691D01*
X-49180Y104955D02*
X-46990Y101063D01*
X-46090Y95930D02*
X-45440Y97952D01*
X-51273Y93270D02*
X-46090Y95930D01*
X9867Y158003D02*
X21785Y163848D01*
X22769Y163972D02*
X22776Y163970D01*
X27010Y163063D01*
X7444Y136054D02*
X9019Y156750D01*
X9020Y156760D01*
X6593Y134800D02*
X6603Y134805D01*
X4562Y133810D02*
X6593Y134800D01*
X1200Y158960D02*
X8227Y162387D01*
X8607Y162513D02*
X12760Y163313D01*
X-103787Y92364D02*
X-103033Y92170D01*
X-107828Y93399D02*
X-103787Y92364D01*
X-118663Y89162D02*
X-108799Y93327D01*
X-120196Y89365D02*
X-120190Y89360D01*
X-103033Y92170D02*
X-102240Y91313D01*
X-122823Y91417D02*
X-120196Y89365D01*
X-124990Y93903D02*
X-122823Y91417D01*
X-89721Y118502D02*
X-88987Y116968D01*
X-95113Y120947D02*
X-90569Y119274D01*
X-11783Y169426D02*
X-10510Y170749D01*
X-16240Y168063D02*
X-12508Y169005D01*
X-64468Y132585D02*
Y138041D01*
X-64490Y138063D02*
X-64468Y138041D01*
X-65240Y131813D02*
X-64468Y132585D01*
X-74490Y127313D02*
X-65240Y131813D01*
X-77354Y128954D02*
X-75713Y127313D01*
X-74490D01*
X-78776Y128954D02*
X-77354D01*
X33510Y168563D02*
Y171063D01*
X32010Y172563D02*
X33510Y171063D01*
X27510Y172563D02*
X32010D01*
X25292Y167845D02*
Y170345D01*
X27510Y172563D01*
X25010Y167563D02*
X25292Y167845D01*
X-28958Y160531D02*
X-28740Y160313D01*
X-31740Y160813D02*
X-31458Y160531D01*
X-28958D01*
X-28740Y160313D02*
X-26846Y156431D01*
X-25740Y154063D01*
X-63990Y117813D02*
X-62973Y118257D01*
X-74557Y121990D02*
Y122282D01*
X-80339Y115714D02*
X-79490Y116563D01*
X-74557Y122282D02*
X-74230Y122609D01*
X-80339Y115710D02*
Y115714D01*
X-74557Y121990D02*
X-74130Y121563D01*
X-85240Y118063D02*
X-76781Y122189D01*
X-74130Y121563D02*
X-73990D01*
X-76781Y122189D02*
X-75776Y122954D01*
X-133040Y79433D02*
X-130990Y78563D01*
X34260Y163563D02*
X34720Y160954D01*
X35010Y159563D01*
X34260Y163563D02*
X34542Y163281D01*
X95728Y141095D02*
X95760Y141063D01*
X91792Y141095D02*
X95728D01*
X91510Y140813D02*
X91792Y141095D01*
X82803Y143770D02*
Y154858D01*
Y143770D02*
X83010Y143563D01*
X82803Y154858D02*
X83009Y155063D01*
X82760Y159562D02*
X84260D01*
X100861Y159563D02*
X102361Y159563D01*
X102610Y159563D02*
X102760Y159563D01*
X84260Y159562D02*
X100861Y159563D01*
X102361Y159563D02*
X102610Y159563D01*
X51659Y141313D02*
X53909Y143563D01*
X51260Y141313D02*
X51659D01*
X53909Y143563D02*
X76510D01*
X101348Y177063D02*
X102848D01*
X102611Y173063D02*
X102760Y173063D01*
X102362Y173063D02*
X102611Y173063D01*
X83249Y177063D02*
X93098D01*
X102463Y163577D02*
X102510Y163563D01*
X102235Y163646D02*
X102463Y163577D01*
X82760Y173063D02*
X84260D01*
X82761Y168562D02*
X84261D01*
X40689Y168251D02*
X40760Y168313D01*
X82760Y164062D02*
X84260D01*
X40380Y167981D02*
X40473Y167221D01*
X40484Y167147D02*
X41392Y161995D01*
X42319Y105043D02*
X80015Y123563D01*
X136510D01*
X141260Y128313D01*
X43478Y169531D02*
X43760Y169813D01*
X41228Y169531D02*
X43478D01*
X40380Y167981D02*
X40689Y168251D01*
X40510Y168813D02*
X41228Y169531D01*
X127260Y152563D02*
X130760D01*
X84261Y168562D02*
X100861Y168563D01*
X102260Y168813D01*
X100861Y164062D02*
X102235Y163646D01*
X84260Y164062D02*
X100861Y164062D01*
X100862Y173063D02*
X102362Y173063D01*
X84260Y173063D02*
X100862Y173063D01*
X93098Y177063D02*
X101348D01*
X101348Y177063D01*
X93098Y177063D02*
X93098Y177063D01*
X102848Y177063D02*
X102848Y177063D01*
X103348D01*
X-76713Y138022D02*
X-75418D01*
X-75127Y138313D02*
X-73740D01*
X-77154Y137581D02*
X-76713Y138022D01*
X-75418D02*
X-75127Y138313D01*
X-62940Y58363D02*
Y73106D01*
X-62940Y73624D02*
X-62092Y74472D01*
X-62940Y73106D02*
X-62940Y73624D01*
X-62092Y74472D02*
X-38195Y86292D01*
X-35703Y93057D01*
X-79247Y72025D02*
X-77261Y72994D01*
X-72940Y55163D02*
X-70725Y59593D01*
X-77261Y72994D02*
X-70725Y59593D01*
X-72990Y55063D02*
X-72940Y55163D01*
X19826Y101781D02*
X22292D01*
X17976Y102475D02*
X19542Y101781D01*
X22292Y101781D02*
X22510Y101563D01*
X10210Y106913D02*
X17976Y102475D01*
X19542Y101781D02*
X19826Y101781D01*
X-2990Y169813D02*
X-436Y164677D01*
X-17350Y93133D02*
X9510Y106563D01*
X-22664Y86527D02*
X-18311Y88651D01*
X-17350Y93133D01*
X-62211Y102560D02*
X-53959Y106585D01*
X-55936Y94202D02*
X-51273Y93270D01*
X138999Y141074D02*
X141260Y138813D01*
Y128313D02*
Y138813D01*
X131999Y141074D02*
X138999D01*
X130760Y142313D02*
X131999Y141074D01*
X-22941Y135805D02*
X-21357Y133671D01*
X-23242Y140569D02*
X-23240Y140563D01*
X13669Y149361D02*
X15337Y152484D01*
X13510Y149063D02*
X13669Y149361D01*
X13510Y149063D02*
X13760Y149313D01*
X15337Y152484D02*
X15484Y155036D01*
X24010Y129063D02*
X27089Y129606D01*
X23760Y129063D02*
X24010D01*
X27089Y129606D02*
X27212Y131718D01*
X2760Y132563D02*
X4562Y133810D01*
X19501Y119434D02*
X20695Y137172D01*
X12260Y115813D02*
X19501Y119434D01*
X-43463Y140140D02*
X-43240Y140063D01*
X-33240Y72563D02*
X-28894Y74851D01*
X-18399Y114751D02*
X-17294Y113989D01*
X-18490Y114813D02*
X-18399Y114751D01*
X-21492Y120074D02*
X-21240Y120063D01*
X-21804Y120088D02*
X-21492Y120074D01*
X-22877Y120136D02*
X-21804Y120088D01*
X20695Y137172D02*
X24348Y139350D01*
X-55205Y148266D02*
X-47617Y141690D01*
X-47609Y141683D01*
X-64881Y143566D02*
X-55205Y148266D01*
X29260Y169313D02*
X30276Y160426D01*
X30159Y159502D02*
X30252Y159930D01*
X40105Y159377D02*
X41260Y161813D01*
X-1085Y157985D02*
X1200Y158960D01*
X-1490Y157813D02*
X-1085Y157985D01*
X13812Y127848D02*
X14951Y145173D01*
X15850Y146455D02*
X20010Y148313D01*
X-106897Y99185D02*
Y102406D01*
X-103990Y105313D02*
Y114313D01*
X-106897Y102406D02*
X-103990Y105313D01*
X-96740Y117313D02*
X-93558Y116672D01*
X-93490Y116563D01*
X-92384Y124476D02*
X-91428Y129969D01*
X-42361Y107367D02*
Y107375D01*
X-42348Y107389D01*
X-42361Y107367D02*
X-35703Y93057D01*
X-85735Y119893D02*
X-85731Y119960D01*
X-31740Y115813D02*
X-22877Y120136D01*
X-92493Y124158D02*
X-92384Y124476D01*
X-91428Y129969D02*
X-90490Y131313D01*
X-103990Y114313D02*
Y115313D01*
X-87157Y126730D02*
X-82657Y128980D01*
X-79990Y128313D01*
X-88241Y124564D02*
X-87157Y126730D01*
X-107240Y97813D02*
X-106897Y99185D01*
X-23907Y83552D02*
X-23490Y83813D01*
X-62740Y102313D02*
X-62211Y102560D01*
X-58740Y93063D02*
X-55936Y94202D01*
X-97751Y74533D02*
X-85803Y80361D01*
X-101611Y74691D02*
X-98734Y74533D01*
X-105235Y75584D02*
X-102503D01*
X-101611Y74691D01*
X-98734Y74533D02*
X-97751Y74533D01*
X-85803Y80361D02*
X-83631Y81013D01*
X-99154Y68050D02*
X-83518Y75676D01*
X-81439Y76519D01*
X-100804Y67261D02*
X-99154Y68050D01*
X-101401Y66975D02*
X-100804Y67261D01*
X-101740Y66813D02*
X-101401Y66975D01*
X-101687Y66978D02*
X-101572Y67332D01*
X-101740Y66813D02*
X-101687Y66978D01*
X-64881Y143566D02*
X-64415Y138547D01*
X-64191Y138463D02*
X-62361Y139355D01*
X-62973Y118257D02*
X-54096Y122586D01*
X-52776Y122704D01*
X-62361Y139355D02*
X-61490Y139563D01*
X-58013Y130403D02*
X-57240Y130563D01*
X-60148Y129362D02*
X-58013Y130403D01*
X-29148Y80685D02*
X-28894Y74851D01*
X-29148Y80685D02*
X-26159Y82143D01*
X-24359Y84563D02*
X-22664Y86527D01*
X-24464Y84442D02*
X-24359Y84563D01*
X-26468Y82775D02*
X-24464Y84442D01*
X-24740Y77063D02*
X-22696Y75019D01*
X2826Y87879D02*
X8010Y93063D01*
X-22696Y75019D02*
X2826Y87879D01*
X8010Y93063D02*
Y101813D01*
X-88015Y90001D02*
X-85936Y90845D01*
X-82769Y92389D01*
X-80740Y93313D01*
X-43442Y127214D02*
X-43240Y127313D01*
X-46075Y125931D02*
X-43442Y127214D01*
X-43490Y127313D02*
X-43240D01*
X-47204Y125422D02*
X-46075Y125931D01*
X-52133Y132491D02*
X-51453Y133922D01*
X-52133Y132491D02*
X-52097Y124135D01*
X-52490Y122813D02*
X-52097Y124135D01*
X-55446Y141699D02*
X-52048Y134731D01*
X-55704Y142672D02*
X-55446Y141699D01*
X-52048Y134731D02*
X-51740Y134063D01*
X44260Y124313D02*
X49510Y122563D01*
X10206Y106921D02*
X44004Y124325D01*
X9510Y106563D02*
X10210Y106913D01*
X35007Y105043D02*
X42319D01*
X39237Y111335D02*
X74671Y128792D01*
X36760Y112063D02*
X39237Y111335D01*
X74671Y128792D02*
X120234D01*
X34760Y115313D02*
X36629Y111990D01*
X7447Y123229D02*
X9114Y124703D01*
X7260Y123063D02*
X7447Y123229D01*
X9114Y124703D02*
X12959Y126579D01*
X13811Y127842D02*
X13812Y127848D01*
X120234Y128792D02*
X122474Y131032D01*
X33213Y106837D02*
X33511Y106539D01*
X30260Y113063D02*
X33087Y107221D01*
X33511Y106539D02*
X35007Y105043D01*
X33087Y107221D02*
X33213Y106837D01*
X-77029Y137018D02*
X-74621Y132080D01*
X-77240Y137313D02*
X-77029Y137018D01*
X-74621Y132080D02*
X-73204Y131672D01*
X-75776Y122954D02*
X-74230Y122609D01*
X-85731Y119960D02*
X-85692Y119946D01*
X-89063Y116630D02*
X-88987Y116968D01*
X-84026Y134704D02*
X-83990Y134563D01*
X122474Y131032D02*
X129010Y131063D01*
X126954Y163164D02*
X127260Y163563D01*
X126760Y163313D02*
X127260Y163563D01*
X-107357Y-144542D02*
G03*
X-106213Y-144478I494J1442D01*
G01*
X-90094Y-136734D02*
G03*
X-89240Y-135365I-670J1369D01*
G01*
X-89240Y-133908D02*
G03*
X-89394Y-133241I-1524J0D01*
G01*
X-92884Y-120640D02*
G03*
X-93740Y-122009I668J-1370D01*
G01*
Y-123965D02*
G03*
X-93592Y-124612I1524J9D01*
G01*
X-98062Y-147348D02*
G03*
X-98922Y-146649I-1325J-752D01*
G01*
X-89717Y-111378D02*
G03*
X-90565Y-110606I-1374J-658D01*
G01*
X-32426Y-106209D02*
G03*
X-31044Y-106202I684J1362D01*
G01*
X-21069Y-101108D02*
G03*
X-20393Y-99083I-693J1357D01*
G01*
X22549Y-65851D02*
G03*
X21564Y-65974I-314J-1491D01*
G01*
X10882Y-71214D02*
G03*
X10034Y-72457I671J-1368D01*
G01*
X7602Y-94578D02*
G03*
X8446Y-93327I-676J1366D01*
G01*
X542Y-71778D02*
G03*
X1737Y-71681I485J1445D01*
G01*
X56131Y-64990D02*
G03*
X56510Y-63984I-1145J1005D01*
G01*
X-28533Y-70195D02*
G03*
X-29902Y-69339I-1370J-668D01*
G01*
X-76904Y-101366D02*
G03*
X-77985Y-100916I-1081J-1074D01*
G01*
X-67000Y-98943D02*
G03*
X-66579Y-98646I-657J1375D01*
G01*
X-76120Y-102150D02*
G03*
X-74401Y-102449I1074J1081D01*
G01*
X32206Y-57753D02*
G03*
X31129Y-57307I-1078J-1078D01*
G01*
X28141D02*
G03*
X27064Y-57753I0J-1524D01*
G01*
X34297Y-60301D02*
G03*
X33856Y-59403I-1513J-186D01*
G01*
X30252Y-69940D02*
G03*
X30276Y-69444I-1490J323D01*
G01*
X-119849Y-139984D02*
G03*
X-118910Y-140307I938J1201D01*
G01*
X-116871D02*
G03*
X-115798Y-139865I0J1524D01*
G01*
X-113609Y-138307D02*
G03*
X-114682Y-138749I0J-1524D01*
G01*
X-105036Y-138307D02*
G03*
X-103958Y-137861I0J1524D01*
G01*
X-103738Y-137865D02*
G03*
X-103141Y-138231I1073J1082D01*
G01*
X-85861Y-110182D02*
G03*
X-85905Y-110084I-1414J-570D01*
G01*
X-85240Y-111807D02*
G03*
X-85326Y-111510I-1499J-273D01*
G01*
X-12845Y-61109D02*
G03*
X-11993Y-60662I-246J1504D01*
G01*
X15850Y-83415D02*
G03*
X14951Y-84698I622J-1391D01*
G01*
X57510Y-87430D02*
G03*
X57064Y-86361I-1524J-9D01*
G01*
X57510Y-93128D02*
G03*
X57952Y-94201I1524J0D01*
G01*
X55155Y-84452D02*
G03*
X54061Y-84005I-1078J-1078D01*
G01*
X40473Y-62649D02*
G03*
X40484Y-62723I1513J186D01*
G01*
X108441Y-68668D02*
G03*
X107075Y-67819I-1366J-675D01*
G01*
X80956Y-70206D02*
G03*
X80510Y-71284I1078J-1078D01*
G01*
X76629Y-80557D02*
G03*
X77702Y-80115I0J1524D01*
G01*
X-47609Y-88187D02*
G03*
X-47116Y-88469I990J1159D01*
G01*
X80064Y-77753D02*
G03*
X80510Y-76676I-1078J1078D01*
G01*
X34466Y-81085D02*
G03*
X33760Y-80557I-1227J-904D01*
G01*
X64712Y-66557D02*
G03*
X63635Y-67002I0J-1524D01*
G01*
D02*
G03*
X63634Y-67003I1076J-1079D01*
G01*
X63010Y-65697D02*
G03*
X63170Y-66377I1524J0D01*
G01*
X119235Y-75807D02*
G03*
X120446Y-75209I-0J1524D01*
G01*
X119707Y-83532D02*
G03*
X120722Y-83144I0J1524D01*
G01*
X-107369Y-144538D02*
X-107357Y-144542D01*
X-89240Y-135365D02*
Y-133908D01*
X-108740Y-144057D02*
X-107369Y-144538D01*
X-106213Y-144478D02*
X-90094Y-136734D01*
X-93587Y-124623D02*
X-89394Y-133241D01*
X-93740Y-123965D02*
Y-122009D01*
X-93592Y-124612D02*
X-93587Y-124623D01*
X-92884Y-120640D02*
X-87994Y-118255D01*
X-87026Y-117416D01*
X-99990Y-146307D02*
X-98922Y-146649D01*
X-98062Y-147348D02*
X-98059Y-147353D01*
X-97240Y-148807D01*
X-89717Y-111378D02*
X-89148Y-112565D01*
X-95122Y-108927D02*
X-90565Y-110606D01*
X-43240Y-89807D02*
X-36251Y-104267D01*
X-32432Y-106206D01*
X-31044Y-106202D02*
X-21069Y-101108D01*
X-20240Y-98307D02*
X-20166Y-98381D01*
X-22941Y-94065D02*
X-21357Y-96200D01*
X-47116Y-88469D02*
X-43463Y-89730D01*
X-43442Y-102655D02*
X-43240Y-102557D01*
X-43490D02*
X-43240D01*
X-42361Y-122503D02*
Y-122495D01*
X-46090Y-133940D02*
X-45440Y-131918D01*
X-53959Y-123285D02*
X-49045Y-124441D01*
X-51273Y-136600D02*
X-46090Y-133940D01*
X-62211Y-127310D02*
X-53959Y-123285D01*
X-42361Y-122503D02*
X-35703Y-136813D01*
X-42361Y-122495D02*
X-42348Y-122481D01*
X-49045Y-124441D02*
X-46904Y-128659D01*
X10882Y-71214D02*
X21564Y-65974D01*
X22549Y-65851D02*
X22555Y-65852D01*
X27010Y-66807D01*
X8446Y-93327D02*
X10033Y-72467D01*
X10034Y-72457D01*
X4562Y-96060D02*
X7594Y-94581D01*
X7602Y-94578D01*
X-1418Y-71102D02*
X531Y-71774D01*
X1737Y-71681D02*
X13010Y-65807D01*
X531Y-71774D02*
X542Y-71778D01*
X-38195Y-143578D02*
X-35703Y-136813D01*
X-62092Y-155398D02*
X-38195Y-143578D01*
X-55936Y-135668D02*
X-51273Y-136600D01*
X-62740Y-127557D02*
X-62211Y-127310D01*
X-58740Y-136807D02*
X-55936Y-135668D01*
X-22877Y-109734D02*
X-21804Y-109782D01*
X-21492Y-109796D02*
X-21240Y-109807D01*
X-31740Y-114057D02*
X-22877Y-109734D01*
X56510Y-63984D02*
X56510Y-63984D01*
X54760Y-66557D02*
X56131Y-64990D01*
X-29902Y-69339D02*
X-29902Y-69339D01*
X-26930Y-73480D02*
X-26490Y-74307D01*
X-28533Y-70195D02*
X-26930Y-73480D01*
X-31458Y-69339D02*
X-29902D01*
X-31740Y-69057D02*
X-31458Y-69339D01*
X-76904Y-101366D02*
X-76120Y-102150D01*
X-74401Y-102449D02*
X-67000Y-98943D01*
X-78776Y-100916D02*
X-77985D01*
X-66579Y-98646D02*
X-64490Y-96557D01*
Y-92307D01*
X25292Y-59525D02*
X27064Y-57753D01*
X28141Y-57307D02*
X31129D01*
X32206Y-57753D02*
X33856Y-59403D01*
X25292Y-62025D02*
Y-59525D01*
X34297Y-60301D02*
X34339Y-60639D01*
X30159Y-70368D02*
X30252Y-69940D01*
X34260Y-61307D02*
X34339Y-60639D01*
X29260Y-60557D02*
X30276Y-69444D01*
X25010Y-62307D02*
X25292Y-62025D01*
X-122438Y-137961D02*
X-119849Y-139984D01*
X-124990Y-135967D02*
X-122438Y-137961D01*
X-118910Y-140307D02*
X-116871D01*
X-115798Y-139865D02*
X-114682Y-138749D01*
X-113609Y-138307D02*
X-105036D01*
X-103958Y-137861D02*
X-103851Y-137753D01*
X-103141Y-138231D02*
X-102844Y-138086D01*
X-101740Y-138307D01*
X-103851Y-137753D02*
X-103738Y-137865D01*
X-86008Y-109818D02*
X-85940Y-110012D01*
X-85861Y-110182D02*
X-85326Y-111510D01*
X-76793Y-107655D02*
X-75776Y-106916D01*
X-85227Y-111769D02*
X-76793Y-107655D01*
X-85940Y-110012D02*
X-85905Y-110084D01*
X-85240Y-111807D02*
X-85240Y-111807D01*
X-85223Y-111766D01*
X-21804Y-109782D02*
X-21492Y-109796D01*
X-21804Y-109782D02*
X-21804D01*
X-18490Y-115057D02*
X-18399Y-115119D01*
X-17294Y-115882D01*
X-89088Y-112687D02*
X-88987Y-112902D01*
X-89148Y-112565D02*
X-89088Y-112687D01*
X-95431Y-108813D02*
X-95122Y-108927D01*
X-22692Y-154903D02*
X8010Y-139433D01*
X-24740Y-152807D02*
X-22781Y-154766D01*
X8010Y-139433D02*
Y-128057D01*
X-11993Y-60662D02*
X-10510Y-59121D01*
X-16990Y-61807D02*
X-12845Y-61109D01*
X15850Y-83415D02*
X20010Y-81557D01*
X7447Y-106641D02*
X9114Y-105167D01*
X7260Y-106807D02*
X7447Y-106641D01*
X9114Y-105167D02*
X13698Y-102931D01*
X13760Y-102807D02*
X14951Y-84698D01*
X57510Y-87430D02*
X57510Y-87438D01*
Y-93128D02*
Y-87438D01*
X57952Y-94201D02*
X57956Y-94206D01*
X54061Y-84005D02*
Y-84005D01*
X36761Y-84182D02*
X54061Y-84005D01*
X34260Y-66307D02*
X34720Y-68916D01*
X35180Y-71361D01*
X34260Y-66307D02*
Y-66057D01*
X43478Y-60339D02*
X43760Y-60057D01*
X41228Y-60339D02*
X43478D01*
X40484Y-62723D02*
X41392Y-67875D01*
X40380Y-61889D02*
X40689Y-61619D01*
X40510Y-61057D02*
X41228Y-60339D01*
X40689Y-61619D02*
X40760Y-61557D01*
X40380Y-61889D02*
X40473Y-62649D01*
X-76713Y-91848D02*
X-75418D01*
X-75127Y-91557D02*
X-73740D01*
X-77154Y-92289D02*
X-76713Y-91848D01*
X-75418D02*
X-75127Y-91557D01*
X49010Y-76807D02*
Y-70557D01*
Y-76807D02*
X52760Y-80557D01*
X108441Y-68668D02*
X108510Y-68807D01*
X108441Y-68668D02*
X108441Y-68668D01*
X83344Y-67819D02*
X107075D01*
X80510Y-76676D02*
Y-71284D01*
X77702Y-80115D02*
X80064Y-77753D01*
X52760Y-80557D02*
X76629D01*
X-62940Y-171507D02*
Y-156764D01*
X-62940Y-156246D02*
X-62092Y-155398D01*
X-62940Y-156764D02*
X-62940Y-156246D01*
X-79247Y-157845D02*
X-77261Y-156876D01*
X-72940Y-174707D02*
X-70725Y-170277D01*
X-77261Y-156876D02*
X-70725Y-170277D01*
X-72990Y-174807D02*
X-72940Y-174707D01*
X19826Y-128089D02*
X22292D01*
X17976Y-127395D02*
X19542Y-128089D01*
X22292Y-128089D02*
X22510Y-128307D01*
X10210Y-122957D02*
X17976Y-127395D01*
X19542Y-128089D02*
X19826Y-128089D01*
X-2990Y-60057D02*
X-436Y-65193D01*
X-17350Y-136737D02*
X9510Y-123307D01*
X-22664Y-143343D02*
X-18311Y-141220D01*
X-17350Y-136737D01*
X75567Y-70276D02*
Y-56613D01*
X64198Y-53807D02*
X72760D01*
X75567Y-56613D01*
X62760Y-53307D02*
X64198Y-53807D01*
X138999Y-88796D02*
X141260Y-91057D01*
X136510Y-106307D02*
X141260Y-101557D01*
Y-91057D01*
X131999Y-88796D02*
X138999D01*
X42319Y-124827D02*
X80015Y-106307D01*
X136510D01*
X130760Y-87557D02*
X131999Y-88796D01*
X64712Y-66557D02*
X71022D01*
X13669Y-80509D02*
X15337Y-77386D01*
X13510Y-80807D02*
X13669Y-80509D01*
X13510Y-80807D02*
X13760Y-80557D01*
X15337Y-77386D02*
X15484Y-74834D01*
X24010Y-100807D02*
X27089Y-100264D01*
X23760Y-100807D02*
X24010D01*
X27089Y-100264D02*
X27212Y-98152D01*
X2760Y-97307D02*
X4562Y-96060D01*
X19501Y-110436D02*
X20695Y-92698D01*
X12260Y-114057D02*
X19501Y-110436D01*
X-43463Y-89730D02*
X-43240Y-89807D01*
X-33240Y-157307D02*
X-28894Y-155020D01*
X20695Y-92698D02*
X24348Y-90520D01*
X-55205Y-81604D02*
X-47617Y-88180D01*
X-47609Y-88187D01*
X-64881Y-86304D02*
X-55205Y-81604D01*
X55155Y-84452D02*
X57064Y-86361D01*
X34466Y-81085D02*
X36692Y-84107D01*
X57956Y-94206D02*
X60807Y-97057D01*
X80956Y-70206D02*
X83344Y-67819D01*
X40105Y-70493D02*
X41260Y-68057D01*
X60807Y-97057D02*
X103248D01*
Y-97057D02*
X105531D01*
X-80339Y-114160D02*
Y-114156D01*
X-79490Y-113307D01*
X-106897Y-130685D02*
Y-127464D01*
X-103990Y-124557D02*
Y-115557D01*
X-106897Y-127464D02*
X-103990Y-124557D01*
X-96740Y-112557D02*
X-93558Y-113198D01*
X-93490Y-113307D01*
X-92384Y-105394D02*
X-91428Y-99901D01*
X-74557Y-107880D02*
Y-107588D01*
X-74230Y-107261D01*
X-74130Y-108307D02*
X-73990D01*
X-74557Y-107880D02*
X-74130Y-108307D01*
X-92493Y-105712D02*
X-92384Y-105394D01*
X-91428Y-99901D02*
X-90490Y-98557D01*
X-103990Y-115557D02*
Y-114557D01*
X-87157Y-103140D02*
X-82657Y-100890D01*
X-79990Y-101557D01*
X-88241Y-105307D02*
X-87157Y-103140D01*
X-107240Y-132057D02*
X-106897Y-130685D01*
X-23907Y-146318D02*
X-23490Y-146057D01*
X-97751Y-155337D02*
X-85803Y-149509D01*
X-101611Y-155179D02*
X-98734Y-155337D01*
X-105235Y-154286D02*
X-102503D01*
X-101611Y-155179D01*
X-98734Y-155337D02*
X-97751Y-155337D01*
X-85803Y-149509D02*
X-83631Y-148857D01*
X-99154Y-161821D02*
X-83518Y-154194D01*
X-81439Y-153351D01*
X-100804Y-162609D02*
X-99154Y-161821D01*
X-101401Y-162895D02*
X-100804Y-162609D01*
X-101740Y-163057D02*
X-101401Y-162895D01*
X-101687Y-162892D02*
X-101572Y-162538D01*
X-101740Y-163057D02*
X-101687Y-162892D01*
X-64881Y-86304D02*
X-64415Y-91323D01*
X-64191Y-91407D02*
X-62361Y-90515D01*
X-62973Y-111613D02*
X-54096Y-107284D01*
X-52776Y-107166D01*
X-63990Y-112057D02*
X-62973Y-111613D01*
X-62361Y-90515D02*
X-61490Y-90307D01*
X-58013Y-99467D02*
X-57240Y-99307D01*
X-60148Y-100508D02*
X-58013Y-99467D01*
X-29148Y-149185D02*
X-28894Y-155020D01*
X-29148Y-149185D02*
X-26159Y-147727D01*
X-24359Y-145307D02*
X-22664Y-143343D01*
X-24464Y-145428D02*
X-24359Y-145307D01*
X-26468Y-147095D02*
X-24464Y-145428D01*
X64712Y-66557D02*
X64712Y-66557D01*
X63634Y-67003D02*
X63635Y-67002D01*
X61203Y-69434D02*
X63634Y-67003D01*
X63170Y-66377D02*
X63260Y-66557D01*
X63010Y-65697D02*
Y-61045D01*
Y-65697D02*
Y-65697D01*
X62710Y-60057D02*
X63010Y-61045D01*
X106572Y-75609D02*
X107764Y-75773D01*
X108010Y-75807D01*
X107765Y-83592D02*
X108010Y-83557D01*
X64510Y-73307D02*
X71022D01*
X-88015Y-139869D02*
X-85936Y-139025D01*
X-82769Y-137480D01*
X-80740Y-136557D01*
X-46075Y-103940D02*
X-43442Y-102655D01*
X-47204Y-104448D02*
X-46075Y-103940D01*
X-52133Y-97379D02*
X-51453Y-95948D01*
X-52133Y-97379D02*
X-52097Y-105735D01*
X-52490Y-107057D02*
X-52097Y-105735D01*
X-55446Y-88172D02*
X-52048Y-95139D01*
X-55704Y-87198D02*
X-55446Y-88172D01*
X-52048Y-95139D02*
X-51740Y-95807D01*
X72010Y-72407D02*
Y-72157D01*
X72998Y-71168D02*
X74674D01*
X75567Y-70276D01*
X72010Y-72157D02*
X72998Y-71168D01*
X107765Y-83592D02*
X107765D01*
X44260Y-105557D02*
X49510Y-107307D01*
X10206Y-122949D02*
X44004Y-105545D01*
X9510Y-123307D02*
X10210Y-122957D01*
X71022Y-73307D02*
X72010Y-73057D01*
X35007Y-124827D02*
X42319D01*
X39237Y-118535D02*
X74671Y-101079D01*
X36760Y-117807D02*
X39237Y-118535D01*
X74671Y-101079D02*
X120234D01*
X34760Y-114557D02*
X36629Y-117880D01*
X59455Y-69770D02*
X61203Y-69434D01*
X59260Y-69807D02*
X59455Y-69770D01*
X71022Y-66557D02*
X72010Y-66207D01*
X56510Y-63984D02*
Y-60057D01*
X54260Y-73307D02*
Y-66807D01*
X120234Y-101079D02*
X122474Y-98838D01*
X33213Y-123033D02*
X33511Y-123331D01*
X30260Y-116807D02*
X33087Y-122649D01*
X33511Y-123331D02*
X35007Y-124827D01*
X33087Y-122649D02*
X33213Y-123033D01*
X-77029Y-92852D02*
X-74621Y-97790D01*
X-77240Y-92557D02*
X-77029Y-92852D01*
X-74621Y-97790D02*
X-73204Y-98198D01*
X106572Y-83760D02*
X107765Y-83592D01*
X-75776Y-106916D02*
X-74230Y-107261D01*
X-89063Y-113240D02*
X-87026Y-117416D01*
X-84026Y-95166D02*
X-83990Y-95307D01*
X122474Y-98838D02*
X129010Y-98807D01*
X108760Y-90557D02*
X108760Y-90557D01*
Y-93828D02*
Y-90557D01*
X105531Y-97057D02*
X108760Y-93828D01*
X126954Y-66706D02*
X127260Y-66307D01*
X120446Y-75209D02*
X126954Y-66706D01*
X114010Y-76057D02*
Y-69795D01*
X115698Y-75807D02*
X119235D01*
X126760Y-66557D02*
X127260Y-66307D01*
X114260Y-75807D02*
X115698Y-75807D01*
X114010Y-69795D02*
X114010Y-68807D01*
X115698Y-83532D02*
X119707D01*
X114260Y-90557D02*
X114260Y-89569D01*
X114260Y-91057D02*
Y-90557D01*
X114260Y-84545D02*
X114260Y-83557D01*
X114260Y-89569D02*
Y-84545D01*
X120722Y-83144D02*
X127260Y-77307D01*
X114510Y-83307D02*
X115698Y-83532D01*
X127260Y-77307D02*
X130760D01*
X97260Y-75557D02*
X99498Y-75609D01*
X106572D01*
X97510Y-83807D02*
X99498Y-83760D01*
X106572D01*
D11*
X-125070Y78140D02*
G03*
X-123140Y78517I259J3801D01*
G01*
X37278Y179121D02*
G03*
X37054Y179127I-224J-3803D01*
G01*
X49769Y170826D02*
G03*
X52342Y169813I2587J2797D01*
G01*
X49769Y170826D02*
G03*
X49387Y171136I-2587J-2797D01*
G01*
X-125082Y78141D02*
X-125070Y78140D01*
X-123140Y78517D02*
X-117761Y81140D01*
X31105Y179127D02*
X37054D01*
X-68830Y123117D02*
X-66301Y118171D01*
X-65990Y117563D01*
X-113076Y83699D02*
X-108740Y85813D01*
X-114103Y83197D02*
X-113076Y83699D01*
X-114402Y83212D02*
X-114103Y83197D01*
X-116490Y83313D02*
X-114402Y83212D01*
X-130990Y78563D02*
X-125082Y78141D01*
X102260Y141813D02*
Y154715D01*
X102560Y133813D02*
Y141563D01*
X32140Y132563D02*
X33369Y132774D01*
X32136Y132563D02*
X32140Y132563D01*
X-70150Y125699D02*
X-68830Y123117D01*
X-96682Y57342D02*
X-90240Y60563D01*
X-96682Y57342D02*
X-96682Y57342D01*
X-97379Y58881D02*
X-97352Y58816D01*
X-96740Y57313D01*
X-107758Y52646D02*
X-105897Y53752D01*
X-108740Y52063D02*
X-107758Y52646D01*
X-21776Y120704D02*
X-21492Y120074D01*
X-18833Y114179D01*
X-17075Y110283D01*
X-14028Y103528D01*
X-13490Y102313D01*
X37278Y179121D02*
X38260Y179063D01*
X29760Y179563D02*
X31105Y179127D01*
X38260Y179063D02*
X49387Y171136D01*
X-90740Y131313D02*
X-90537Y131411D01*
X-90533Y131413D01*
X-123529Y70441D02*
X-116230Y72689D01*
X-125083Y69963D02*
X-123529Y70441D01*
X-125083Y69963D02*
X-123490Y70313D01*
X-116230Y72689D02*
X-114322Y71845D01*
X-113490Y72063D02*
X-113053Y72311D01*
X-106449Y75532D02*
X-105259Y76731D01*
X-113053Y72311D02*
X-106449Y75532D01*
X-101792Y66932D02*
X-101687Y66978D01*
X-102685Y66545D02*
X-101792Y66932D01*
X-65151Y118759D02*
X-64136Y118035D01*
X-97408Y58794D02*
X-97379Y58881D01*
X-96740Y57313D02*
X-96682Y57342D01*
X-36931Y75963D02*
X-36628Y78509D01*
X-39740Y69313D02*
X-36931Y75963D01*
X-51940Y63163D02*
X-40003Y68985D01*
X-98261Y57476D02*
X-97886Y58055D01*
X-98262Y57476D02*
X-98261Y57476D01*
X-105897Y53752D02*
X-98262Y57476D01*
X-97886Y58055D02*
X-97408Y58794D01*
X127260Y175313D02*
X129510Y175563D01*
X-98965Y101512D02*
X-98676Y100956D01*
X-95740Y95313D01*
X-90533Y131413D02*
X-83990Y134563D01*
X-77483Y107866D02*
X-77306Y109165D01*
X-77490Y107813D02*
X-77483Y107866D01*
X-73295Y113568D02*
X-73240Y114813D01*
X-77306Y109165D02*
X-73295Y113568D01*
X-110158Y63306D02*
X-108789Y63568D01*
X-102685Y66545D01*
X-123240Y58063D02*
X-121133Y60170D01*
X-115131D02*
X-111995Y63306D01*
X-110158D01*
X-121133Y60170D02*
X-115131D01*
X49769Y-59044D02*
G03*
X52342Y-60057I2587J2797D01*
G01*
X37278Y-50749D02*
G03*
X37054Y-50743I-224J-3803D01*
G01*
X-116324Y-146612D02*
G03*
X-113438Y-146406I1191J3619D01*
G01*
X-126783Y-150542D02*
G03*
X-123701Y-150428I1412J3539D01*
G01*
X49769Y-59044D02*
G03*
X49387Y-58734I-2587J-2797D01*
G01*
X52342Y-60057D02*
X56510D01*
X31105Y-50743D02*
X37054D01*
X-116337Y-146608D02*
X-116324Y-146613D01*
X-123701Y-150428D02*
X-118233Y-147762D01*
X-130320Y-149131D02*
X-126783Y-150542D01*
X-116490Y-146557D02*
X-116337Y-146608D01*
X-113438Y-146406D02*
X-108740Y-144057D01*
X-21492Y-109796D02*
X-18833Y-115691D01*
X-17075Y-119587D01*
X-130344Y-149122D02*
X-130320Y-149131D01*
X-130490Y-149557D02*
X-130344Y-149122D01*
X-118233Y-147762D02*
X-116490Y-146557D01*
X-21776Y-109166D02*
X-21492Y-109796D01*
X-17075Y-119587D02*
X-14028Y-126342D01*
X-13490Y-127557D01*
X37278Y-50749D02*
X38260Y-50807D01*
X29760Y-50307D02*
X31105Y-50743D01*
X38260Y-50807D02*
X49387Y-58734D01*
X-90740Y-98557D02*
X-90537Y-98459D01*
X-90533Y-98457D01*
X-123529Y-159429D02*
X-116230Y-157181D01*
X-125083Y-159907D02*
X-123529Y-159429D01*
X-125083Y-159907D02*
X-123490Y-159557D01*
X-116230Y-157181D02*
X-114322Y-158025D01*
X-113490Y-157807D02*
X-113053Y-157559D01*
X-106449Y-154338D02*
X-105259Y-153139D01*
X-113053Y-157559D02*
X-106449Y-154338D01*
X-101792Y-162938D02*
X-101687Y-162892D01*
X-102685Y-163325D02*
X-101792Y-162938D01*
X-66301Y-111699D02*
X-65990Y-112307D01*
X-70150Y-104171D02*
X-66301Y-111699D01*
X-65151Y-111111D02*
X-64136Y-111835D01*
X-97408Y-171076D02*
X-97379Y-170989D01*
X-96682Y-172528D02*
X-90240Y-169307D01*
X-96740Y-172557D02*
X-96682Y-172528D01*
X-97379Y-170989D02*
X-96740Y-172557D01*
X32136Y-97307D02*
X33369Y-97096D01*
X-36931Y-153907D02*
X-36628Y-151361D01*
X-39740Y-160557D02*
X-36931Y-153907D01*
X-51940Y-166707D02*
X-40003Y-160885D01*
X97260Y-92807D02*
Y-87307D01*
X-98261Y-172394D02*
X-97886Y-171815D01*
X-98262Y-172394D02*
X-98261Y-172394D01*
X-105897Y-176118D02*
X-98262Y-172394D01*
X-97886Y-171815D02*
X-97408Y-171076D01*
X-108740Y-177807D02*
X-107758Y-177224D01*
X-105897Y-176118D01*
X127260Y-54557D02*
X129510Y-54307D01*
X88504Y-84262D02*
X88510Y-85557D01*
Y-92557D02*
Y-86307D01*
X-98965Y-128358D02*
X-98676Y-128914D01*
X-95740Y-134557D01*
X-90533Y-98457D02*
X-83990Y-95307D01*
X-77483Y-122003D02*
X-77306Y-120705D01*
X-77490Y-122057D02*
X-77483Y-122003D01*
X-73295Y-116302D02*
X-73240Y-115057D01*
X-77306Y-120705D02*
X-73295Y-116302D01*
X97260Y-85557D02*
Y-75557D01*
X88504Y-84262D02*
Y-75352D01*
X88460Y-74057D02*
X88504Y-75352D01*
X-110158Y-166564D02*
X-108789Y-166302D01*
X-102685Y-163325D01*
X-123240Y-171807D02*
X-121133Y-169700D01*
X-115131D02*
X-111995Y-166564D01*
X-110158D01*
X-121133Y-169700D02*
X-115131D01*
D12*
X83011Y177564D02*
D03*
X83009Y173064D02*
D03*
X83010Y168563D02*
D03*
X83009Y164063D02*
D03*
X83009Y159562D02*
D03*
X102609Y155064D02*
D03*
X102610Y177563D02*
D03*
X102611Y173063D02*
D03*
X102611Y168563D02*
D03*
X102610Y164063D02*
D03*
Y159563D02*
D03*
D13*
X83009Y155063D02*
D03*
D14*
X76717Y143563D02*
D03*
X82803Y143563D02*
D03*
D15*
X95760Y141813D02*
D03*
X102260Y141813D02*
D03*
X62760Y-53307D02*
D03*
X56260Y-53307D02*
D03*
X107760Y-75807D02*
D03*
X114260Y-75807D02*
D03*
X107760Y-83557D02*
D03*
X114260Y-83557D02*
D03*
D16*
X94960Y133813D02*
D03*
X102560Y133813D02*
D03*
D17*
X-71740Y86813D02*
D03*
Y-143057D02*
D03*
D18*
X-57657Y88119D02*
D03*
X-59849Y92613D02*
D03*
X-62041Y97107D02*
D03*
X-64233Y101601D02*
D03*
X-85823Y85507D02*
D03*
X-83631Y81013D02*
D03*
X-88015Y90001D02*
D03*
X-81439Y76519D02*
D03*
X-79247Y72025D02*
D03*
X-55465Y83625D02*
D03*
Y-146245D02*
D03*
X-79247Y-157845D02*
D03*
X-81439Y-153351D02*
D03*
X-88015Y-139869D02*
D03*
X-83631Y-148857D02*
D03*
X-85823Y-144363D02*
D03*
X-64233Y-128269D02*
D03*
X-62041Y-132763D02*
D03*
X-59849Y-137257D02*
D03*
X-57657Y-141751D02*
D03*
D19*
X40105Y159377D02*
D03*
X15484Y155036D02*
D03*
X40105Y-70493D02*
D03*
X15484Y-74834D02*
D03*
D20*
X35180Y158509D02*
D03*
X37060Y133455D02*
D03*
X30257Y157641D02*
D03*
X32136Y132586D02*
D03*
X25332Y156773D02*
D03*
X27212Y131718D02*
D03*
X20408Y155904D02*
D03*
X35180Y-71361D02*
D03*
X37060Y-96415D02*
D03*
X30257Y-72229D02*
D03*
X32136Y-97283D02*
D03*
X25332Y-73097D02*
D03*
X27212Y-98152D02*
D03*
X20408Y-73966D02*
D03*
D21*
X-30234Y151871D02*
D03*
X-25740Y154063D02*
D03*
X-21246Y156255D02*
D03*
X-12369Y138054D02*
D03*
X-16863Y135862D02*
D03*
X-21357Y133671D02*
D03*
Y-96200D02*
D03*
X-16863Y-94008D02*
D03*
X-12369Y-91816D02*
D03*
X-21246Y-73615D02*
D03*
X-25740Y-75807D02*
D03*
X-30234Y-77999D02*
D03*
D22*
X-13242Y157238D02*
D03*
X-11050Y152744D02*
D03*
X-8858Y148250D02*
D03*
X-6666Y143756D02*
D03*
X-29361Y132687D02*
D03*
X-31553Y137181D02*
D03*
X-33745Y141675D02*
D03*
X-35937Y146169D02*
D03*
Y-83701D02*
D03*
X-33745Y-88195D02*
D03*
X-31553Y-92689D02*
D03*
X-29361Y-97183D02*
D03*
X-6666Y-86114D02*
D03*
X-8858Y-81620D02*
D03*
X-11050Y-77126D02*
D03*
X-13242Y-72632D02*
D03*
D23*
X-57026Y131204D02*
D03*
X-51453Y133922D02*
D03*
X-61276Y139954D02*
D03*
X-55704Y142672D02*
D03*
X-52776Y122704D02*
D03*
X-47204Y125422D02*
D03*
X-13204Y116922D02*
D03*
X-18776Y114204D02*
D03*
X-16204Y123422D02*
D03*
X-21776Y120704D02*
D03*
X-78454Y137422D02*
D03*
X-84026Y134704D02*
D03*
X-70204Y125672D02*
D03*
X-75776Y122954D02*
D03*
X-73204Y131672D02*
D03*
X-78776Y128954D02*
D03*
X-81454Y115172D02*
D03*
X-87026Y112454D02*
D03*
X-57026Y-98666D02*
D03*
X-51453Y-95948D02*
D03*
X-61276Y-89916D02*
D03*
X-55704Y-87198D02*
D03*
X-52776Y-107166D02*
D03*
X-47204Y-104448D02*
D03*
X-13204Y-112948D02*
D03*
X-18776Y-115666D02*
D03*
X-16204Y-106448D02*
D03*
X-21776Y-109166D02*
D03*
X-78454Y-92448D02*
D03*
X-84026Y-95166D02*
D03*
X-70204Y-104198D02*
D03*
X-75776Y-106916D02*
D03*
X-73204Y-98198D02*
D03*
X-78776Y-100916D02*
D03*
X-81454Y-114698D02*
D03*
X-87026Y-117416D02*
D03*
D24*
X-24464Y84442D02*
D03*
X-36628Y78509D02*
D03*
X-24464Y-145428D02*
D03*
X-36628Y-151361D02*
D03*
D25*
X11465Y114492D02*
D03*
X3555Y110634D02*
D03*
X7215Y123492D02*
D03*
X-695Y119634D02*
D03*
X2715Y132492D02*
D03*
X-5195Y128634D02*
D03*
X-6535Y105742D02*
D03*
X-14445Y101884D02*
D03*
X11465Y-115378D02*
D03*
X3555Y-119236D02*
D03*
X7215Y-106378D02*
D03*
X-695Y-110236D02*
D03*
X2715Y-97378D02*
D03*
X-5195Y-101236D02*
D03*
X-6535Y-124128D02*
D03*
X-14445Y-127986D02*
D03*
D26*
X-1971Y172877D02*
D03*
X-10510Y170749D02*
D03*
X-1971Y-56993D02*
D03*
X-10510Y-59121D02*
D03*
D27*
X2438Y150858D02*
D03*
X-1418Y158768D02*
D03*
X2438Y-79012D02*
D03*
X-1418Y-71102D02*
D03*
D28*
X29010Y178313D02*
D03*
Y-51557D02*
D03*
D29*
X-95465Y94762D02*
D03*
X-101307Y91913D02*
D03*
X-90569Y131488D02*
D03*
X-96411Y128638D02*
D03*
X-98965Y101512D02*
D03*
X-104807Y98663D02*
D03*
X-95465Y-135108D02*
D03*
X-101307Y-137957D02*
D03*
X-90569Y-98382D02*
D03*
X-96411Y-101232D02*
D03*
X-98965Y-128358D02*
D03*
X-104807Y-131207D02*
D03*
D30*
X-105259Y76731D02*
D03*
X-96721Y80895D02*
D03*
X-105259Y-153139D02*
D03*
X-96721Y-148975D02*
D03*
D31*
X-73240Y114813D02*
D03*
X-65151Y118759D02*
D03*
X-73240Y-115057D02*
D03*
X-65151Y-111111D02*
D03*
D32*
X-77920Y107926D02*
D03*
X-85560Y104200D02*
D03*
X-77920Y-121944D02*
D03*
X-85560Y-125670D02*
D03*
D33*
X40087Y168940D02*
D03*
X33934Y168186D02*
D03*
X40087Y-60930D02*
D03*
X33934Y-61684D02*
D03*
D34*
X-97408Y58794D02*
D03*
X-101572Y67332D02*
D03*
X-110158Y63306D02*
D03*
X-114322Y71845D02*
D03*
X-97408Y-171076D02*
D03*
X-101572Y-162538D02*
D03*
X-110158Y-166564D02*
D03*
X-114322Y-158025D02*
D03*
D35*
X-62940Y58363D02*
D03*
X-51940Y63163D02*
D03*
X-107370Y51993D02*
D03*
X-116490Y83313D02*
D03*
X-62940Y-171507D02*
D03*
X-51940Y-166707D02*
D03*
X-107370Y-177877D02*
D03*
X-116490Y-146557D02*
D03*
D36*
X-118740Y101813D02*
D03*
X-124990Y93903D02*
D03*
X-112240Y109813D02*
D03*
X-105240Y118703D02*
D03*
X-118740Y-128057D02*
D03*
X-124990Y-135967D02*
D03*
X-112240Y-120057D02*
D03*
X-105240Y-111167D02*
D03*
D37*
X17128Y177313D02*
D03*
Y-52557D02*
D03*
D38*
X-88987Y116968D02*
D03*
X-93239Y116563D02*
D03*
X-95431Y121056D02*
D03*
X-92493Y124158D02*
D03*
X-88241Y124564D02*
D03*
X-88987Y-112902D02*
D03*
X-93239Y-113307D02*
D03*
X-95431Y-108813D02*
D03*
X-92493Y-105712D02*
D03*
X-88241Y-105307D02*
D03*
D39*
X-86049Y120070D02*
D03*
Y-109801D02*
D03*
D40*
X-96411Y128638D02*
X-95837Y127249D01*
D41*
X97260Y-85557D02*
D03*
X88460Y-85557D02*
D03*
X97260Y-74057D02*
D03*
X88460Y-74057D02*
D03*
D42*
X72010Y-66207D02*
D03*
X72010Y-72407D02*
D03*
D43*
X62710Y-60057D02*
D03*
X56510Y-60057D02*
D03*
D44*
X108760Y-90557D02*
D03*
X114260Y-90557D02*
D03*
X108510Y-68807D02*
D03*
X114010Y-68807D02*
D03*
D45*
X64760Y-73307D02*
D03*
Y-66807D02*
D03*
X54260D02*
D03*
Y-73307D02*
D03*
D46*
X59510Y-70057D02*
D03*
D47*
X217171Y-264653D02*
G03*
X270795Y-210819I-118J53742D01*
G01*
X270608Y208316D02*
G03*
X218774Y263901I-53710J1876D01*
G01*
X-207022Y264549D02*
G03*
X-257878Y208067I2813J-53669D01*
G01*
X-258098Y-210417D02*
G03*
X-204355Y-264160I53742J0D01*
G01*
X217171D01*
X270608Y-210819D02*
X270608Y208316D01*
X-207022Y264160D02*
X218774D01*
X-258098Y-210417D02*
Y207992D01*
D48*
X-153419Y91622D02*
G03*
X-157240Y81620I11179J-10002D01*
G01*
X-138751Y-197016D02*
G03*
X-125240Y-205500I13511J6516D01*
G01*
X162760Y185620D02*
G03*
X147760Y200620I-15000J0D01*
G01*
X162760Y185620D02*
G03*
X147760Y200620I-15000J0D01*
G01*
X158367Y117622D02*
G03*
X162760Y128229I-10607J10607D01*
G01*
X158367Y117622D02*
G03*
X162760Y128229I-10607J10607D01*
G01*
X138401Y103870D02*
G03*
X149008Y108263I0J15000D01*
G01*
X138401Y103870D02*
G03*
X149008Y108263I0J15000D01*
G01*
X18291Y200620D02*
G03*
X14505Y200135I0J-15000D01*
G01*
X18291Y200620D02*
G03*
X14490Y200131I0J-15000D01*
G01*
X-31174Y188220D02*
G03*
X-33834Y187253I3771J-14519D01*
G01*
X-31189Y188216D02*
G03*
X-33851Y187245I3786J-14515D01*
G01*
X162760Y-44250D02*
G03*
X147760Y-29250I-15000J0D01*
G01*
X162760Y-44250D02*
G03*
X147760Y-29250I-15000J0D01*
G01*
X158367Y-112248D02*
G03*
X162760Y-101641I-10607J10607D01*
G01*
X138401Y-126000D02*
G03*
X149008Y-121607I0J15000D01*
G01*
X158367Y-112248D02*
G03*
X162760Y-101641I-10607J10607D01*
G01*
X138401Y-126000D02*
G03*
X149008Y-121607I0J15000D01*
G01*
X18291Y-29250D02*
G03*
X14505Y-29735I0J-15000D01*
G01*
X-31174Y-41650D02*
G03*
X-33834Y-42617I3771J-14519D01*
G01*
X18291Y-29250D02*
G03*
X14490Y-29739I0J-15000D01*
G01*
X-31189Y-41654D02*
G03*
X-33851Y-42625I3786J-14515D01*
G01*
X-110483Y144434D02*
G03*
X-112974Y141964I9243J-11814D01*
G01*
X-110491Y144428D02*
G03*
X-112983Y141953I9251J-11808D01*
G01*
X-138751Y32854D02*
G03*
X-125240Y24370I13511J6516D01*
G01*
X-138751Y32854D02*
G03*
X-125240Y24370I13511J6516D01*
G01*
X-110491Y-85442D02*
G03*
X-112983Y-87917I9251J-11808D01*
G01*
X-138751Y-197016D02*
G03*
X-125240Y-205500I13511J6516D01*
G01*
X-153408Y-138236D02*
G03*
X-157240Y-148250I11168J-10014D01*
G01*
X-153419Y-138248D02*
G03*
X-157240Y-148250I11179J-10002D01*
G01*
X78740Y24130D02*
X198120D01*
X-74670Y28109D02*
X-35560Y46990D01*
X-200660Y-29250D02*
X-113030D01*
X-200660Y200620D02*
X-113030D01*
X77470Y-205740D02*
X196850D01*
X-194317Y81357D02*
X-162070Y81520D01*
X130175Y103870D02*
X196850D01*
X130175Y200620D02*
X198120D01*
X128905Y-29250D02*
X198120D01*
X130175Y-126000D02*
X195580D01*
X-190507Y-148513D02*
X-158260Y-148350D01*
X-179070Y24130D02*
X-131590D01*
X-179070Y-205740D02*
X-131590D01*
X16370Y200620D02*
X50165D01*
X14490Y200131D02*
X16370Y200620D01*
X-72390Y-200660D02*
X-30480Y-180340D01*
X-150199Y95216D02*
X-118179Y135428D01*
X-149860Y-133350D02*
X-117560Y-93665D01*
X40666Y-146650D02*
X68367Y-133350D01*
X36376Y81160D02*
X65722Y95250D01*
X18291Y-29250D02*
X48895D01*
X-58169Y175705D02*
X-33851Y187245D01*
X-53863Y-52122D02*
X-33851Y-42625D01*
X149008Y108263D02*
X156950Y116205D01*
X-522Y196215D02*
X14490Y200131D01*
X-31174Y188220D02*
X-522Y196215D01*
X149008Y-121607D02*
X156950Y-113665D01*
X14490Y-29739D02*
X14505Y-29735D01*
X-522Y-33655D02*
X14490Y-29739D01*
X-31174Y-41650D02*
X-3810Y-34513D01*
X-31189Y188216D02*
X-31174Y188220D01*
X-33851Y187245D02*
X-33834Y187253D01*
X-31189Y-41654D02*
X-31174Y-41650D01*
X-33851Y-42625D02*
X-33834Y-42617D01*
D49*
X243080Y-140875D02*
D03*
X242193Y118091D02*
D03*
X-232138Y118103D02*
D03*
X-232410Y-140970D02*
D03*
D50*
X242665Y-189150D02*
D03*
X241765Y166366D02*
D03*
X-231723Y166378D02*
D03*
X-231140Y-189230D02*
D03*
D51*
X-167640Y-257952D02*
D03*
X36901Y-216470D02*
D03*
X48260D02*
D03*
X58562D02*
D03*
X-99060Y-16820D02*
D03*
X-42966D02*
D03*
X-88758D02*
D03*
X-77399D02*
D03*
X-66040D02*
D03*
X-54682D02*
D03*
X1341D02*
D03*
X-10018D02*
D03*
X-20320D02*
D03*
X-31679D02*
D03*
X-97790Y211300D02*
D03*
X-41696D02*
D03*
X-87488D02*
D03*
X-76129D02*
D03*
X-64770D02*
D03*
X-53412D02*
D03*
X-8748D02*
D03*
X-19050D02*
D03*
X-30409D02*
D03*
X16581Y14670D02*
D03*
X27940D02*
D03*
X38242D02*
D03*
X49601D02*
D03*
X60960D02*
D03*
X-6422D02*
D03*
X-17780D02*
D03*
X-29139D02*
D03*
X-40498D02*
D03*
X5294D02*
D03*
X-50800D02*
D03*
X-62159D02*
D03*
X12628Y-216470D02*
D03*
X1270D02*
D03*
X-10089D02*
D03*
X-21448D02*
D03*
X24344D02*
D03*
X-31750D02*
D03*
X-43109D02*
D03*
X-64699D02*
D03*
X-53340D02*
D03*
X-167640Y-246594D02*
D03*
Y-223520D02*
D03*
Y-234878D02*
D03*
Y256469D02*
D03*
Y245110D02*
D03*
Y234808D02*
D03*
Y223449D02*
D03*
Y114514D02*
D03*
Y125872D02*
D03*
Y137231D02*
D03*
Y148590D02*
D03*
Y102798D02*
D03*
Y158892D02*
D03*
Y170251D02*
D03*
Y181610D02*
D03*
Y-189159D02*
D03*
Y-177800D02*
D03*
X-167642Y-166441D02*
D03*
X-167640Y-47061D02*
D03*
Y-58420D02*
D03*
Y3739D02*
D03*
Y-7620D02*
D03*
Y-114514D02*
D03*
Y-125872D02*
D03*
Y-68722D02*
D03*
Y-80081D02*
D03*
Y-91440D02*
D03*
Y-102798D02*
D03*
X174520Y-260636D02*
D03*
Y-226203D02*
D03*
Y-237562D02*
D03*
Y-248920D02*
D03*
Y-170466D02*
D03*
Y-181824D02*
D03*
Y-147392D02*
D03*
Y-158750D02*
D03*
Y219109D02*
D03*
Y230469D02*
D03*
Y241827D02*
D03*
Y253186D02*
D03*
Y89641D02*
D03*
Y45648D02*
D03*
Y57007D02*
D03*
Y68366D02*
D03*
Y79724D02*
D03*
Y-11502D02*
D03*
Y-143D02*
D03*
X-88900Y148590D02*
D03*
X174520Y-85019D02*
D03*
Y-73660D02*
D03*
Y-62301D02*
D03*
X151867Y-84421D02*
D03*
X151754Y-73061D02*
D03*
X151643Y-61703D02*
D03*
X-134749Y-179909D02*
D03*
X-139472Y-169578D02*
D03*
X-144194Y-159247D02*
D03*
X-108029Y-216299D02*
D03*
X-96669Y-216384D02*
D03*
X-85310Y-216471D02*
D03*
X-111839Y-193439D02*
D03*
X-100479Y-193524D02*
D03*
X-89120Y-193611D02*
D03*
X87300Y-137710D02*
D03*
X97790Y-133350D02*
D03*
X108280Y-128991D02*
D03*
X73680Y-117384D02*
D03*
X85002Y-116480D02*
D03*
X96326Y-115576D02*
D03*
X107649Y-114672D02*
D03*
X118972Y-113768D02*
D03*
X-109870Y-69675D02*
D03*
X-99894Y-64244D02*
D03*
X-89917Y-58812D02*
D03*
X-79941Y-53380D02*
D03*
X-69964Y-47949D02*
D03*
X-87630Y-80011D02*
D03*
X-77470Y-74930D02*
D03*
X-67310Y-69850D02*
D03*
X-11170Y-182393D02*
D03*
X-839Y-177671D02*
D03*
X9492Y-172948D02*
D03*
X19823Y-168226D02*
D03*
X30154Y-163504D02*
D03*
X-20060Y-163343D02*
D03*
X-9729Y-158621D02*
D03*
X602Y-153898D02*
D03*
X10933Y-149176D02*
D03*
X21264Y-144454D02*
D03*
X66033Y-16822D02*
D03*
X77391Y-16909D02*
D03*
X88751Y-16994D02*
D03*
X100110Y-17081D02*
D03*
X111468Y-17167D02*
D03*
X66033Y-39682D02*
D03*
X77391Y-39769D02*
D03*
X88751Y-39854D02*
D03*
X100110Y-39941D02*
D03*
X111468Y-40027D02*
D03*
X174523Y168241D02*
D03*
X174636Y156882D02*
D03*
X174747Y145523D02*
D03*
X151663Y168241D02*
D03*
X151776Y156882D02*
D03*
X151887Y145523D02*
D03*
X106680Y101600D02*
D03*
X96520Y96520D02*
D03*
X86360Y91440D02*
D03*
X117293Y115424D02*
D03*
X105988Y114323D02*
D03*
X94682Y113221D02*
D03*
X83376Y112120D02*
D03*
X72071Y111018D02*
D03*
X113037Y211132D02*
D03*
X101678Y211218D02*
D03*
X90319Y211304D02*
D03*
X78960Y211391D02*
D03*
X67602Y211477D02*
D03*
X25620Y63161D02*
D03*
X15460Y58081D02*
D03*
X5300Y53001D02*
D03*
X-4860Y47921D02*
D03*
X-15020Y42841D02*
D03*
X-78740Y153670D02*
D03*
X-68580Y158750D02*
D03*
X-74027Y184853D02*
D03*
X-84003Y179422D02*
D03*
X-93980Y173990D02*
D03*
X-103957Y168559D02*
D03*
X-113933Y163127D02*
D03*
X-167640Y40711D02*
D03*
Y52070D02*
D03*
Y63429D02*
D03*
X-134222Y49631D02*
D03*
X-139124Y59878D02*
D03*
X-144026Y70125D02*
D03*
X-108028Y14842D02*
D03*
X-96669Y14755D02*
D03*
X-85310Y14669D02*
D03*
X-111838Y36432D02*
D03*
X-100479Y36345D02*
D03*
X-89120Y36259D02*
D03*
X67452Y190673D02*
D03*
X78811Y190586D02*
D03*
X90170Y190500D02*
D03*
X101529Y190414D02*
D03*
X112888Y190328D02*
D03*
X15240Y83820D02*
D03*
X5080Y78740D02*
D03*
X-5080Y73660D02*
D03*
X-15240Y68580D02*
D03*
X-25400Y63500D02*
D03*
D52*
X130760Y131313D02*
D03*
X130760Y142313D02*
D03*
X130760Y153313D02*
D03*
X130760Y164313D02*
D03*
X130760Y175313D02*
D03*
X130760Y-98557D02*
D03*
X130760Y-87557D02*
D03*
X130760Y-76557D02*
D03*
X130760Y-65557D02*
D03*
X130760Y-54557D02*
D03*
D53*
X-133040Y79433D02*
D03*
X-127780Y68647D02*
D03*
X-122519Y57862D02*
D03*
X-117259Y47076D02*
D03*
X-133040Y-150437D02*
D03*
X-127780Y-161222D02*
D03*
X-122519Y-172008D02*
D03*
X-117259Y-182794D02*
D03*
D54*
X-96990Y103313D02*
D03*
X-99990Y83563D02*
D03*
X12760Y163313D02*
D03*
X-16240Y168063D02*
D03*
X30696Y126221D02*
D03*
X42510Y131813D02*
D03*
X-73990Y121563D02*
D03*
X-79490Y116563D02*
D03*
X-85240Y118063D02*
D03*
X-89240Y105313D02*
D03*
X34260Y163563D02*
D03*
X91510Y132063D02*
D03*
X81260Y153063D02*
D03*
Y141063D02*
D03*
X88760Y148313D02*
D03*
X97760D02*
D03*
X52260Y169813D02*
D03*
X51260Y141313D02*
D03*
X64978Y169850D02*
D03*
Y154850D02*
D03*
Y161350D02*
D03*
X43760Y169813D02*
D03*
X92760Y176063D02*
D03*
X91510Y140813D02*
D03*
X-66490Y124313D02*
D03*
X-73740Y138313D02*
D03*
X-41240Y81063D02*
D03*
X-43990Y86563D02*
D03*
X22510Y101563D02*
D03*
X-28740Y148813D02*
D03*
X13510Y149063D02*
D03*
X24010Y129063D02*
D03*
X-33425Y72631D02*
D03*
X-43240Y140063D02*
D03*
X29260Y169313D02*
D03*
X27010Y163063D02*
D03*
X38260Y179063D02*
D03*
X-31740Y160813D02*
D03*
X-22990Y165063D02*
D03*
X8760Y169063D02*
D03*
X-436Y164677D02*
D03*
X12760Y176563D02*
D03*
X25010Y167563D02*
D03*
X36260Y108563D02*
D03*
X21260Y108813D02*
D03*
X25760Y110813D02*
D03*
X20010Y148313D02*
D03*
X24348Y139350D02*
D03*
X-107990Y108813D02*
D03*
X-96740Y117313D02*
D03*
X-31740Y115813D02*
D03*
X-16140Y139965D02*
D03*
X-19740Y153063D02*
D03*
X30260Y113063D02*
D03*
X34760Y115313D02*
D03*
X50010Y111813D02*
D03*
X49510Y122563D02*
D03*
X62724Y119739D02*
D03*
X8010Y101813D02*
D03*
X1224Y90489D02*
D03*
X-140Y125215D02*
D03*
X3860Y147965D02*
D03*
X-11640Y128965D02*
D03*
X-13240Y98563D02*
D03*
X-38490Y147063D02*
D03*
X-23776Y91989D02*
D03*
X-24740Y77063D02*
D03*
X-43240Y127313D02*
D03*
X-60148Y129362D02*
D03*
X-64468Y138382D02*
D03*
X-54877Y89161D02*
D03*
X-59303Y98211D02*
D03*
X-57990Y82313D02*
D03*
X-72740Y72813D02*
D03*
X-83240Y86813D02*
D03*
X-84240Y124563D02*
D03*
X-114490Y101563D02*
D03*
X-107240Y97813D02*
D03*
X-103851Y92117D02*
D03*
X-90240Y60563D02*
D03*
X-87990Y55563D02*
D03*
X-99740Y44813D02*
D03*
X-96990Y-126557D02*
D03*
X-99990Y-146307D02*
D03*
X-43240Y-102557D02*
D03*
X13010Y-65807D02*
D03*
X-23776Y-137881D02*
D03*
X-31740Y-114057D02*
D03*
X30717Y-104383D02*
D03*
X42510Y-98057D02*
D03*
X-83240Y-143057D02*
D03*
X-57990Y-147557D02*
D03*
X29260Y-60557D02*
D03*
X-84240Y-105307D02*
D03*
X1224Y-139381D02*
D03*
X-16990Y-61807D02*
D03*
X-22990Y-64807D02*
D03*
X12760Y-53307D02*
D03*
X43760Y-60057D02*
D03*
X34260Y-66307D02*
D03*
X-66490Y-105557D02*
D03*
X-73740Y-91557D02*
D03*
X49010Y-70557D02*
D03*
X-41240Y-148807D02*
D03*
X-43990Y-143307D02*
D03*
X22510Y-128307D02*
D03*
X80760Y-52057D02*
D03*
X-28740Y-81057D02*
D03*
X13510Y-80807D02*
D03*
X24010Y-100807D02*
D03*
X-33425Y-157239D02*
D03*
X-43240Y-89807D02*
D03*
X54010Y-53557D02*
D03*
X27010Y-66807D02*
D03*
X38260Y-50807D02*
D03*
X33760Y-80557D02*
D03*
X-31740Y-69057D02*
D03*
X8760Y-60807D02*
D03*
X-436Y-65193D02*
D03*
X25010Y-62307D02*
D03*
X36260Y-121307D02*
D03*
X21260Y-121057D02*
D03*
X25760Y-119057D02*
D03*
X20010Y-81557D02*
D03*
X24348Y-90520D02*
D03*
X65010Y-86557D02*
D03*
Y-74807D02*
D03*
Y-68557D02*
D03*
Y-60057D02*
D03*
X-79490Y-113307D02*
D03*
X-107990Y-121057D02*
D03*
X-96740Y-112557D02*
D03*
X-73990Y-108307D02*
D03*
X-85240Y-111807D02*
D03*
X-16140Y-89905D02*
D03*
X-19740Y-76807D02*
D03*
X30260Y-116807D02*
D03*
X34760Y-114557D02*
D03*
X50010Y-118057D02*
D03*
X49510Y-107307D02*
D03*
X62724Y-110131D02*
D03*
X88510Y-92557D02*
D03*
X8010Y-128057D02*
D03*
X-140Y-104655D02*
D03*
X3860Y-81905D02*
D03*
X-11640Y-100905D02*
D03*
X-13240Y-131307D02*
D03*
X-38490Y-82807D02*
D03*
X-24740Y-152807D02*
D03*
X-60148Y-100508D02*
D03*
X-64468Y-91488D02*
D03*
X-54877Y-140709D02*
D03*
X-59303Y-131659D02*
D03*
X-72740Y-157057D02*
D03*
X-89240Y-124557D02*
D03*
X-114490Y-128307D02*
D03*
X-107240Y-132057D02*
D03*
X-103851Y-137753D02*
D03*
X-90240Y-169307D02*
D03*
X-87990Y-174307D02*
D03*
X-99740Y-185057D02*
D03*
X97260Y-92807D02*
D03*
D55*
X-35990Y102313D02*
D03*
X-46990Y101063D02*
D03*
X-45740Y90063D02*
D03*
X-43839Y102402D02*
D03*
X-50190Y99452D02*
D03*
X-40911Y96464D02*
D03*
X-45440Y97952D02*
D03*
X-39190Y93202D02*
D03*
X-95490Y126813D02*
D03*
X-42348Y107389D02*
D03*
X-38990Y108813D02*
D03*
X-37490Y105563D02*
D03*
X-35740Y-127557D02*
D03*
X-37490Y-124307D02*
D03*
X-38990Y-121057D02*
D03*
X-46904Y-128659D02*
D03*
X-42348Y-122481D02*
D03*
X-43839Y-127468D02*
D03*
X-50190Y-130418D02*
D03*
X-45440Y-131918D02*
D03*
X-40911Y-133406D02*
D03*
X-39190Y-136668D02*
D03*
X-45740Y-139807D02*
D03*
X-95490Y-103057D02*
D03*
D56*
X-108740Y85813D02*
D03*
X-72990Y55063D02*
D03*
X-108740Y-144057D02*
D03*
X-72990Y-174807D02*
D03*
M02*
