G04*
G04 #@! TF.GenerationSoftware,Altium Limited,Altium Designer,23.2.1 (34)*
G04*
G04 Layer_Color=0*
%FSLAX44Y44*%
%MOMM*%
G71*
G04*
G04 #@! TF.SameCoordinates,96D2EB81-E719-42E9-B1B6-D61F4878D9FD*
G04*
G04*
G04 #@! TF.FilePolarity,Positive*
G04*
G01*
G75*
%ADD40C,0.0500*%
%ADD47C,0.2540*%
%ADD48C,3.0000*%
%ADD69C,0.1000*%
%ADD75C,0.0800*%
%ADD132C,0.1016*%
D40*
X-108393Y54214D02*
X-91813Y62301D01*
X-114959Y67676D02*
X-98379Y75763D01*
X-91813Y62301D01*
X-114959Y67676D02*
X-108393Y54214D01*
X-56699Y107047D02*
X-46704Y86555D01*
X-36208Y117041D02*
X-26213Y96549D01*
X-46704Y86555D02*
X-26213Y96549D01*
X-56699Y107047D02*
X-36208Y117041D01*
X83510Y158563D02*
X83510Y148563D01*
X102510Y158563D02*
X102510Y148563D01*
X83510Y148563D02*
X102510Y148563D01*
X83510Y158563D02*
X102510Y158563D01*
X83510Y169313D02*
X83510Y159313D01*
X102510Y169313D02*
X102510Y159313D01*
X83510Y159313D02*
X102510Y159313D01*
X83510Y169313D02*
X102510Y169313D01*
X52760Y180063D02*
X52760Y173063D01*
X66760Y180063D02*
X66760Y173063D01*
X52760Y173063D02*
X66760Y173063D01*
X52760Y180063D02*
X66760Y180063D01*
X70010Y167813D02*
X70010Y152813D01*
X77010Y152813D02*
X77010Y167813D01*
X70010Y167813D02*
X77010Y167813D01*
X70010Y152813D02*
X77010Y152813D01*
X118760Y143813D02*
X118760Y150813D01*
X104760Y150813D02*
X104760Y143813D01*
X104760Y150813D02*
X118760Y150813D01*
X104760Y143813D02*
X118760Y143813D01*
X118760Y160563D02*
X118760Y153563D01*
X104760Y160563D02*
X104760Y153563D01*
X104760Y160563D02*
X118760Y160563D01*
X104760Y153563D02*
X118760Y153563D01*
X52010Y166313D02*
X67010Y166313D01*
X52010Y173313D02*
X67010Y173313D01*
X52010Y173313D02*
X52010Y166313D01*
X67010Y173313D02*
X67010Y166313D01*
X23618Y94584D02*
X40695Y102912D01*
X19234Y103571D02*
X36312Y111900D01*
X19234Y103571D02*
X23618Y94584D01*
X36312Y111900D02*
X40695Y102912D01*
X-99051Y84062D02*
X-95983Y77771D01*
X-85569Y90638D02*
X-82501Y84346D01*
X-95983Y77771D02*
X-82501Y84346D01*
X-99051Y84062D02*
X-85569Y90638D01*
X-91033Y54747D02*
X-87965Y48455D01*
X-104515Y48171D02*
X-101447Y41880D01*
X-104515Y48171D02*
X-91033Y54747D01*
X-101447Y41880D02*
X-87965Y48455D01*
X-96015Y77921D02*
X-92947Y71630D01*
X-82533Y84497D02*
X-79465Y78205D01*
X-92947Y71630D02*
X-79465Y78205D01*
X-96015Y77921D02*
X-82533Y84497D01*
X-93015Y71921D02*
X-89947Y65630D01*
X-79533Y78496D02*
X-76465Y72205D01*
X-89947Y65630D02*
X-76465Y72205D01*
X-93015Y71921D02*
X-79533Y78496D01*
X-90015Y65921D02*
X-86947Y59629D01*
X-76533Y72497D02*
X-73465Y66205D01*
X-86947Y59629D02*
X-73465Y66205D01*
X-90015Y65921D02*
X-76533Y72497D01*
X-87015Y59921D02*
X-83947Y53630D01*
X-73533Y66497D02*
X-70465Y60205D01*
X-83947Y53630D02*
X-70465Y60205D01*
X-87015Y59921D02*
X-73533Y66497D01*
X54201Y129139D02*
X60556Y116665D01*
X47964Y125961D02*
X54320Y113487D01*
X60556Y116665D01*
X47964Y125961D02*
X54201Y129139D01*
X53737Y129656D02*
X59974Y132834D01*
X60546Y116291D02*
X66784Y119469D01*
X53737Y129656D02*
X60546Y116291D01*
X59974Y132834D02*
X66784Y119469D01*
X-21457Y79074D02*
X-15166Y82142D01*
X-28033Y92556D02*
X-21742Y95625D01*
X-15166Y82142D01*
X-28033Y92556D02*
X-21457Y79074D01*
X-1970Y92892D02*
X2413Y83905D01*
X15107Y101222D02*
X19490Y92234D01*
X2413Y83905D02*
X19490Y92234D01*
X-1970Y92892D02*
X15107Y101222D01*
X-34673Y89271D02*
X-28382Y92338D01*
X-28098Y75788D02*
X-21807Y78856D01*
X-34673Y89271D02*
X-28098Y75788D01*
X-28382Y92338D02*
X-21807Y78856D01*
X-94069Y60637D02*
X-91001Y54346D01*
X-107551Y54062D02*
X-104483Y47771D01*
X-107551Y54062D02*
X-94069Y60637D01*
X-104483Y47771D02*
X-91001Y54346D01*
X-116015Y76171D02*
X-112947Y69879D01*
X-102533Y82746D02*
X-99465Y76455D01*
X-112947Y69879D02*
X-99465Y76455D01*
X-116015Y76171D02*
X-102533Y82746D01*
X-108893Y-175656D02*
X-92313Y-167569D01*
X-115459Y-162194D02*
X-98879Y-154107D01*
X-92313Y-167569D01*
X-115459Y-162194D02*
X-108893Y-175656D01*
X-56730Y-122800D02*
X-46736Y-143292D01*
X-36239Y-112806D02*
X-26244Y-133298D01*
X-46736Y-143292D02*
X-26244Y-133298D01*
X-56730Y-122800D02*
X-36239Y-112806D01*
X23618Y-135286D02*
X40695Y-126958D01*
X19234Y-126299D02*
X36312Y-117970D01*
X19234Y-126299D02*
X23618Y-135286D01*
X36312Y-117970D02*
X40695Y-126958D01*
X-99051Y-145808D02*
X-95983Y-152099D01*
X-85569Y-139232D02*
X-82501Y-145524D01*
X-95983Y-152099D02*
X-82501Y-145524D01*
X-99051Y-145808D02*
X-85569Y-139232D01*
X-91033Y-175123D02*
X-87965Y-181415D01*
X-104515Y-181699D02*
X-101447Y-187990D01*
X-104515Y-181699D02*
X-91033Y-175123D01*
X-101447Y-187990D02*
X-87965Y-181415D01*
X-96015Y-151949D02*
X-92947Y-158240D01*
X-82533Y-145373D02*
X-79465Y-151665D01*
X-92947Y-158240D02*
X-79465Y-151665D01*
X-96015Y-151949D02*
X-82533Y-145373D01*
X-93015Y-157949D02*
X-89947Y-164240D01*
X-79533Y-151374D02*
X-76465Y-157665D01*
X-89947Y-164240D02*
X-76465Y-157665D01*
X-93015Y-157949D02*
X-79533Y-151374D01*
X-90015Y-163949D02*
X-86947Y-170241D01*
X-76533Y-157373D02*
X-73465Y-163665D01*
X-86947Y-170241D02*
X-73465Y-163665D01*
X-90015Y-163949D02*
X-76533Y-157373D01*
X-87015Y-169949D02*
X-83947Y-176240D01*
X-73533Y-163374D02*
X-70465Y-169665D01*
X-83947Y-176240D02*
X-70465Y-169665D01*
X-87015Y-169949D02*
X-73533Y-163374D01*
X54201Y-100730D02*
X60556Y-113205D01*
X47964Y-103909D02*
X54320Y-116383D01*
X60556Y-113205D01*
X47964Y-103909D02*
X54201Y-100730D01*
X53737Y-100213D02*
X59974Y-97036D01*
X60546Y-113579D02*
X66784Y-110401D01*
X53737Y-100213D02*
X60546Y-113579D01*
X59974Y-97036D02*
X66784Y-110401D01*
X-21457Y-150796D02*
X-15166Y-147727D01*
X-28033Y-137314D02*
X-21742Y-134246D01*
X-15166Y-147727D01*
X-28033Y-137314D02*
X-21457Y-150796D01*
X-1970Y-136978D02*
X2413Y-145965D01*
X15107Y-128648D02*
X19490Y-137636D01*
X2413Y-145965D02*
X19490Y-137636D01*
X-1970Y-136978D02*
X15107Y-128648D01*
X-34673Y-140599D02*
X-28382Y-137532D01*
X-28098Y-154082D02*
X-21807Y-151014D01*
X-34673Y-140599D02*
X-28098Y-154082D01*
X-28382Y-137532D02*
X-21807Y-151014D01*
X60299Y-84834D02*
X78297Y-85148D01*
X60125Y-94833D02*
X78122Y-95147D01*
X78297Y-85148D01*
X60125Y-94833D02*
X60299Y-84834D01*
X62322Y-77435D02*
X76320Y-77680D01*
X62200Y-84434D02*
X76198Y-84679D01*
X76320Y-77680D01*
X62200Y-84434D02*
X62322Y-77435D01*
X-94069Y-169233D02*
X-91001Y-175524D01*
X-107551Y-175808D02*
X-104483Y-182099D01*
X-107551Y-175808D02*
X-94069Y-169233D01*
X-104483Y-182099D02*
X-91001Y-175524D01*
X-116015Y-153699D02*
X-112947Y-159991D01*
X-102533Y-147124D02*
X-99465Y-153415D01*
X-112947Y-159991D02*
X-99465Y-153415D01*
X-116015Y-153699D02*
X-102533Y-147124D01*
D47*
X217171Y-264653D02*
G03*
X270795Y-210819I-118J53742D01*
G01*
X270608Y208316D02*
G03*
X218774Y263901I-53710J1876D01*
G01*
X-207022Y264549D02*
G03*
X-257878Y208067I2813J-53669D01*
G01*
X-258098Y-210417D02*
G03*
X-204355Y-264160I53742J0D01*
G01*
X217171D01*
X270608Y-210819D02*
X270608Y208316D01*
X-207022Y264160D02*
X218774D01*
X-258098Y-210417D02*
Y207992D01*
D48*
X-153419Y91622D02*
G03*
X-157240Y81620I11179J-10002D01*
G01*
X-138751Y-197016D02*
G03*
X-125240Y-205500I13511J6516D01*
G01*
X162760Y185620D02*
G03*
X147760Y200620I-15000J0D01*
G01*
X162760Y185620D02*
G03*
X147760Y200620I-15000J0D01*
G01*
X158367Y117622D02*
G03*
X162760Y128229I-10607J10607D01*
G01*
X158367Y117622D02*
G03*
X162760Y128229I-10607J10607D01*
G01*
X138401Y103870D02*
G03*
X149008Y108263I0J15000D01*
G01*
X138401Y103870D02*
G03*
X149008Y108263I0J15000D01*
G01*
X18291Y200620D02*
G03*
X14505Y200135I0J-15000D01*
G01*
X18291Y200620D02*
G03*
X14490Y200131I0J-15000D01*
G01*
X-31174Y188220D02*
G03*
X-33834Y187253I3771J-14519D01*
G01*
X-31189Y188216D02*
G03*
X-33851Y187245I3786J-14515D01*
G01*
X162760Y-44250D02*
G03*
X147760Y-29250I-15000J0D01*
G01*
X162760Y-44250D02*
G03*
X147760Y-29250I-15000J0D01*
G01*
X158367Y-112248D02*
G03*
X162760Y-101641I-10607J10607D01*
G01*
X138401Y-126000D02*
G03*
X149008Y-121607I0J15000D01*
G01*
X158367Y-112248D02*
G03*
X162760Y-101641I-10607J10607D01*
G01*
X138401Y-126000D02*
G03*
X149008Y-121607I0J15000D01*
G01*
X18291Y-29250D02*
G03*
X14505Y-29735I0J-15000D01*
G01*
X-31174Y-41650D02*
G03*
X-33834Y-42617I3771J-14519D01*
G01*
X18291Y-29250D02*
G03*
X14490Y-29739I0J-15000D01*
G01*
X-31189Y-41654D02*
G03*
X-33851Y-42625I3786J-14515D01*
G01*
X-110483Y144434D02*
G03*
X-112974Y141964I9243J-11814D01*
G01*
X-110491Y144428D02*
G03*
X-112983Y141953I9251J-11808D01*
G01*
X-138751Y32854D02*
G03*
X-125240Y24370I13511J6516D01*
G01*
X-138751Y32854D02*
G03*
X-125240Y24370I13511J6516D01*
G01*
X-110491Y-85442D02*
G03*
X-112983Y-87917I9251J-11808D01*
G01*
X-138751Y-197016D02*
G03*
X-125240Y-205500I13511J6516D01*
G01*
X-153408Y-138236D02*
G03*
X-157240Y-148250I11168J-10014D01*
G01*
X-153419Y-138248D02*
G03*
X-157240Y-148250I11179J-10002D01*
G01*
X78740Y24130D02*
X198120D01*
X-74670Y28109D02*
X-35560Y46990D01*
X-200660Y-29250D02*
X-113030D01*
X-200660Y200620D02*
X-113030D01*
X77470Y-205740D02*
X196850D01*
X-194317Y81357D02*
X-162070Y81520D01*
X130175Y103870D02*
X196850D01*
X130175Y200620D02*
X198120D01*
X128905Y-29250D02*
X198120D01*
X130175Y-126000D02*
X195580D01*
X-190507Y-148513D02*
X-158260Y-148350D01*
X-179070Y24130D02*
X-131590D01*
X-179070Y-205740D02*
X-131590D01*
X16370Y200620D02*
X50165D01*
X14490Y200131D02*
X16370Y200620D01*
X-72390Y-200660D02*
X-30480Y-180340D01*
X-150199Y95216D02*
X-118179Y135428D01*
X-149860Y-133350D02*
X-117560Y-93665D01*
X40666Y-146650D02*
X68367Y-133350D01*
X36376Y81160D02*
X65722Y95250D01*
X18291Y-29250D02*
X48895D01*
X-58169Y175705D02*
X-33851Y187245D01*
X-53863Y-52122D02*
X-33851Y-42625D01*
X149008Y108263D02*
X156950Y116205D01*
X-522Y196215D02*
X14490Y200131D01*
X-31174Y188220D02*
X-522Y196215D01*
X149008Y-121607D02*
X156950Y-113665D01*
X14490Y-29739D02*
X14505Y-29735D01*
X-522Y-33655D02*
X14490Y-29739D01*
X-31174Y-41650D02*
X-3810Y-34513D01*
X-31189Y188216D02*
X-31174Y188220D01*
X-33851Y187245D02*
X-33834Y187253D01*
X-31189Y-41654D02*
X-31174Y-41650D01*
X-33851Y-42625D02*
X-33834Y-42617D01*
D69*
X90410Y153563D02*
X95610Y153563D01*
X93010Y150963D02*
X93010Y156163D01*
X90410Y164314D02*
X95610Y164313D01*
X93010Y161713D02*
X93010Y166913D01*
X58110Y176563D02*
X61410Y176563D01*
X59760Y178213D02*
X59760Y174913D01*
X71860Y160313D02*
X75160Y160313D01*
X73510Y161963D02*
X73510Y158664D01*
X110110Y147313D02*
X113410Y147313D01*
X111760Y148963D02*
X111760Y145663D01*
X110110Y157063D02*
X113410Y157063D01*
X111760Y155413D02*
X111760Y158713D01*
X59510Y168163D02*
X59510Y171463D01*
X57860Y169813D02*
X61160Y169813D01*
X55010Y165063D02*
X55010Y155063D01*
X65010Y155063D01*
X65010Y165063D02*
X65010Y155063D01*
X55010Y165063D02*
X65010Y165063D01*
X58010Y160063D02*
X62010Y160063D01*
X60010Y158063D02*
X60010Y162063D01*
X28825Y105579D02*
X31104Y100905D01*
X27628Y102102D02*
X32302Y104381D01*
X-92259Y83481D02*
X-89293Y84928D01*
X-91499Y85687D02*
X-90053Y82721D01*
X-97723Y47590D02*
X-94757Y49036D01*
X-96963Y49796D02*
X-95517Y46830D01*
X-89223Y77340D02*
X-86257Y78786D01*
X-88463Y79546D02*
X-87017Y76580D01*
X-86223Y71340D02*
X-83257Y72786D01*
X-85463Y73546D02*
X-84017Y70580D01*
X-83223Y65339D02*
X-80257Y66786D01*
X-82463Y67546D02*
X-81017Y64580D01*
X-80223Y59340D02*
X-77257Y60786D01*
X-79463Y61546D02*
X-78017Y58580D01*
X52790Y120564D02*
X55730Y122062D01*
X53511Y122783D02*
X55009Y119843D01*
X59511Y126033D02*
X61010Y123093D01*
X58790Y123813D02*
X61730Y125311D01*
X-22323Y88832D02*
X-20876Y85866D01*
X-23083Y86626D02*
X-20116Y88073D01*
X6423Y91423D02*
X11097Y93703D01*
X7620Y94900D02*
X9900Y90226D01*
X-28964Y85546D02*
X-27517Y82581D01*
X-29723Y83340D02*
X-26757Y84787D01*
X-100759Y53480D02*
X-97793Y54927D01*
X-99999Y55687D02*
X-98553Y52721D01*
X-109223Y75589D02*
X-106257Y77036D01*
X-108463Y77796D02*
X-107017Y74830D01*
X28825Y-124291D02*
X31104Y-128965D01*
X27628Y-127768D02*
X32302Y-125489D01*
X-92259Y-146389D02*
X-89293Y-144943D01*
X-91499Y-144183D02*
X-90053Y-147149D01*
X-97723Y-182280D02*
X-94757Y-180833D01*
X-96963Y-180074D02*
X-95517Y-183040D01*
X-89223Y-152530D02*
X-86257Y-151084D01*
X-88463Y-150324D02*
X-87017Y-153290D01*
X-86223Y-158530D02*
X-83257Y-157084D01*
X-85463Y-156324D02*
X-84017Y-159290D01*
X-83223Y-164531D02*
X-80257Y-163084D01*
X-82463Y-162324D02*
X-81017Y-165290D01*
X-80223Y-170530D02*
X-77257Y-169084D01*
X-79463Y-168324D02*
X-78017Y-171290D01*
X52790Y-109306D02*
X55730Y-107808D01*
X53511Y-107087D02*
X55009Y-110027D01*
X59511Y-103837D02*
X61010Y-106777D01*
X58790Y-106057D02*
X61730Y-104559D01*
X-22323Y-141038D02*
X-20876Y-144004D01*
X-23083Y-143244D02*
X-20116Y-141797D01*
X6423Y-138447D02*
X11097Y-136167D01*
X7620Y-134970D02*
X9900Y-139644D01*
X-28964Y-144324D02*
X-27517Y-147289D01*
X-29723Y-146530D02*
X-26757Y-145083D01*
X69182Y-91640D02*
X69239Y-88341D01*
X67561Y-89962D02*
X70861Y-90019D01*
X69231Y-82707D02*
X69289Y-79407D01*
X67610Y-81028D02*
X70910Y-81086D01*
X-100759Y-176390D02*
X-97793Y-174943D01*
X-99999Y-174183D02*
X-98553Y-177149D01*
X-109223Y-154281D02*
X-106257Y-152834D01*
X-108463Y-152074D02*
X-107017Y-155040D01*
D75*
X-111178Y58085D02*
X-110043Y55858D01*
X-110261Y55186D01*
X-111152Y54732D01*
X-111824Y54950D01*
X-112959Y57177D01*
X-113623Y56278D02*
X-114295Y56496D01*
X-115186Y56042D01*
X-115404Y55370D01*
X-115177Y54925D01*
X-114505Y54706D01*
X-114060Y54933D01*
X-114505Y54706D01*
X-114723Y54034D01*
X-114496Y53589D01*
X-113824Y53370D01*
X-112934Y53824D01*
X-112715Y54496D01*
X-48679Y157037D02*
X-47623Y154771D01*
X-47864Y154107D01*
X-48770Y153685D01*
X-49435Y153926D01*
X-50491Y156192D01*
X-50129Y153051D02*
X-51035Y152628D01*
X-50582Y152840D01*
X-51850Y155558D01*
X-51186Y155316D01*
X-46289Y117145D02*
X-45233Y114880D01*
X-45475Y114215D01*
X-46381Y113793D01*
X-47045Y114035D01*
X-48101Y116300D01*
X-50819Y115032D02*
X-49007Y115877D01*
X-48373Y114518D01*
X-49491Y114549D01*
X-49944Y114337D01*
X-50186Y113673D01*
X-49763Y112767D01*
X-49099Y112525D01*
X-48193Y112948D01*
X-47951Y113612D01*
X-48571Y-72452D02*
X-47514Y-74717D01*
X-47756Y-75381D01*
X-48662Y-75804D01*
X-49326Y-75562D01*
X-50383Y-73297D01*
X-50021Y-76437D02*
X-50927Y-76860D01*
X-50474Y-76649D01*
X-51742Y-73931D01*
X-51077Y-74172D01*
X-46321Y-112702D02*
X-45264Y-114967D01*
X-45506Y-115631D01*
X-46412Y-116054D01*
X-47076Y-115812D01*
X-48133Y-113547D01*
X-50851Y-114814D02*
X-49039Y-113969D01*
X-48405Y-115329D01*
X-49522Y-115298D01*
X-49975Y-115509D01*
X-50217Y-116173D01*
X-49795Y-117079D01*
X-49130Y-117321D01*
X-48224Y-116899D01*
X-47982Y-116235D01*
X-111678Y-171785D02*
X-110543Y-174012D01*
X-110761Y-174684D01*
X-111652Y-175138D01*
X-112324Y-174920D01*
X-113459Y-172693D01*
X-114123Y-173592D02*
X-114795Y-173374D01*
X-115686Y-173827D01*
X-115904Y-174500D01*
X-115677Y-174945D01*
X-115005Y-175164D01*
X-114560Y-174937D01*
X-115005Y-175164D01*
X-115223Y-175836D01*
X-114997Y-176281D01*
X-114324Y-176500D01*
X-113434Y-176046D01*
X-113215Y-175373D01*
D132*
X63760Y152642D02*
Y149014D01*
X63518Y148289D01*
X63034Y147805D01*
X62309Y147563D01*
X61825D01*
X61100Y147805D01*
X60616Y148289D01*
X60374Y149014D01*
Y152642D01*
X58729Y151433D02*
Y151674D01*
X58488Y152158D01*
X58246Y152400D01*
X57762Y152642D01*
X56795D01*
X56311Y152400D01*
X56069Y152158D01*
X55827Y151674D01*
Y151191D01*
X56069Y150707D01*
X56553Y149982D01*
X58971Y147563D01*
X55585D01*
M02*
