G04*
G04 #@! TF.GenerationSoftware,Altium Limited,Altium Designer,23.2.1 (34)*
G04*
G04 Layer_Physical_Order=4*
G04 Layer_Color=16711680*
%FSLAX44Y44*%
%MOMM*%
G71*
G04*
G04 #@! TF.SameCoordinates,96D2EB81-E719-42E9-B1B6-D61F4878D9FD*
G04*
G04*
G04 #@! TF.FilePolarity,Positive*
G04*
G01*
G75*
%ADD10C,0.1524*%
%ADD11C,0.3810*%
%ADD12O,0.5500X0.2500*%
%ADD13R,0.5500X0.2500*%
%ADD14R,0.4541X0.3627*%
%ADD15R,0.4400X0.3500*%
G04:AMPARAMS|DCode=23|XSize=0.35mm|YSize=0.4mm|CornerRadius=0mm|HoleSize=0mm|Usage=FLASHONLY|Rotation=296.000|XOffset=0mm|YOffset=0mm|HoleType=Round|Shape=Rectangle|*
%AMROTATEDRECTD23*
4,1,4,-0.2565,0.0696,0.1030,0.2450,0.2565,-0.0696,-0.1030,-0.2450,-0.2565,0.0696,0.0*
%
%ADD23ROTATEDRECTD23*%

G04:AMPARAMS|DCode=24|XSize=0.6587mm|YSize=0.8121mm|CornerRadius=0mm|HoleSize=0mm|Usage=FLASHONLY|Rotation=206.000|XOffset=0mm|YOffset=0mm|HoleType=Round|Shape=Rectangle|*
%AMROTATEDRECTD24*
4,1,4,0.1180,0.5094,0.4740,-0.2206,-0.1180,-0.5094,-0.4740,0.2206,0.1180,0.5094,0.0*
%
%ADD24ROTATEDRECTD24*%

G04:AMPARAMS|DCode=25|XSize=0.64mm|YSize=0.6mm|CornerRadius=0mm|HoleSize=0mm|Usage=FLASHONLY|Rotation=296.000|XOffset=0mm|YOffset=0mm|HoleType=Round|Shape=Rectangle|*
%AMROTATEDRECTD25*
4,1,4,-0.4099,0.1561,0.1294,0.4191,0.4099,-0.1561,-0.1294,-0.4191,-0.4099,0.1561,0.0*
%
%ADD25ROTATEDRECTD25*%

%ADD41R,0.6000X0.6400*%
%ADD42R,0.3500X0.4000*%
%ADD43R,0.4000X0.3500*%
%ADD44R,0.2500X0.3500*%
%ADD45R,0.1000X0.1000*%
%ADD47C,0.2540*%
%ADD48C,3.0000*%
%ADD49C,1.3000*%
%ADD50C,1.5240*%
%ADD51C,0.1000*%
%ADD52O,1.5000X0.8000*%
G04:AMPARAMS|DCode=53|XSize=0.9mm|YSize=1.5mm|CornerRadius=0mm|HoleSize=0mm|Usage=FLASHONLY|Rotation=296.000|XOffset=0mm|YOffset=0mm|HoleType=Round|Shape=Round|*
%AMOVALD53*
21,1,0.6000,0.9000,0.0000,0.0000,26.0*
1,1,0.9000,-0.2696,-0.1315*
1,1,0.9000,0.2696,0.1315*
%
%ADD53OVALD53*%

%ADD54C,0.3000*%
%ADD55C,0.2410*%
%ADD56C,0.3050*%
G04:AMPARAMS|DCode=57|XSize=0.25mm|YSize=0.9mm|CornerRadius=0mm|HoleSize=0mm|Usage=FLASHONLY|Rotation=206.000|XOffset=0mm|YOffset=0mm|HoleType=Round|Shape=Rectangle|*
%AMROTATEDRECTD57*
4,1,4,-0.0849,0.4593,0.3096,-0.3497,0.0849,-0.4593,-0.3096,0.3497,-0.0849,0.4593,0.0*
%
%ADD57ROTATEDRECTD57*%

G04:AMPARAMS|DCode=58|XSize=0.25mm|YSize=0.9mm|CornerRadius=0mm|HoleSize=0mm|Usage=FLASHONLY|Rotation=296.000|XOffset=0mm|YOffset=0mm|HoleType=Round|Shape=Rectangle|*
%AMROTATEDRECTD58*
4,1,4,-0.4593,-0.0849,0.3497,0.3096,0.4593,0.0849,-0.3497,-0.3096,-0.4593,-0.0849,0.0*
%
%ADD58ROTATEDRECTD58*%

%ADD59P,6.1518X4X341.0*%
%ADD60P,0.6788X4X270.0*%
%ADD61C,0.2100*%
G04:AMPARAMS|DCode=62|XSize=0.35mm|YSize=0.44mm|CornerRadius=0mm|HoleSize=0mm|Usage=FLASHONLY|Rotation=207.000|XOffset=0mm|YOffset=0mm|HoleType=Round|Shape=Rectangle|*
%AMROTATEDRECTD62*
4,1,4,0.0561,0.2755,0.2558,-0.1166,-0.0561,-0.2755,-0.2558,0.1166,0.0561,0.2755,0.0*
%
%ADD62ROTATEDRECTD62*%

G04:AMPARAMS|DCode=63|XSize=0.35mm|YSize=0.4mm|CornerRadius=0mm|HoleSize=0mm|Usage=FLASHONLY|Rotation=207.000|XOffset=0mm|YOffset=0mm|HoleType=Round|Shape=Rectangle|*
%AMROTATEDRECTD63*
4,1,4,0.0651,0.2576,0.2467,-0.0988,-0.0651,-0.2576,-0.2467,0.0988,0.0651,0.2576,0.0*
%
%ADD63ROTATEDRECTD63*%

G04:AMPARAMS|DCode=64|XSize=0.35mm|YSize=0.4mm|CornerRadius=0mm|HoleSize=0mm|Usage=FLASHONLY|Rotation=26.000|XOffset=0mm|YOffset=0mm|HoleType=Round|Shape=Rectangle|*
%AMROTATEDRECTD64*
4,1,4,-0.0696,-0.2565,-0.2450,0.1030,0.0696,0.2565,0.2450,-0.1030,-0.0696,-0.2565,0.0*
%
%ADD64ROTATEDRECTD64*%

G04:AMPARAMS|DCode=65|XSize=1.26mm|YSize=0.35mm|CornerRadius=0mm|HoleSize=0mm|Usage=FLASHONLY|Rotation=296.000|XOffset=0mm|YOffset=0mm|HoleType=Round|Shape=Rectangle|*
%AMROTATEDRECTD65*
4,1,4,-0.4335,0.4895,-0.1189,0.6430,0.4335,-0.4895,0.1189,-0.6430,-0.4335,0.4895,0.0*
%
%ADD65ROTATEDRECTD65*%

G04:AMPARAMS|DCode=66|XSize=0.25mm|YSize=0.35mm|CornerRadius=0mm|HoleSize=0mm|Usage=FLASHONLY|Rotation=296.000|XOffset=0mm|YOffset=0mm|HoleType=Round|Shape=Rectangle|*
%AMROTATEDRECTD66*
4,1,4,-0.2121,0.0356,0.1025,0.1891,0.2121,-0.0356,-0.1025,-0.1891,-0.2121,0.0356,0.0*
%
%ADD66ROTATEDRECTD66*%

G04:AMPARAMS|DCode=67|XSize=0.52mm|YSize=0.56mm|CornerRadius=0mm|HoleSize=0mm|Usage=FLASHONLY|Rotation=269.000|XOffset=0mm|YOffset=0mm|HoleType=Round|Shape=Rectangle|*
%AMROTATEDRECTD67*
4,1,4,-0.2754,0.2649,0.2845,0.2551,0.2754,-0.2649,-0.2845,-0.2551,-0.2754,0.2649,0.0*
%
%ADD67ROTATEDRECTD67*%

G04:AMPARAMS|DCode=68|XSize=0.35mm|YSize=0.44mm|CornerRadius=0mm|HoleSize=0mm|Usage=FLASHONLY|Rotation=269.000|XOffset=0mm|YOffset=0mm|HoleType=Round|Shape=Rectangle|*
%AMROTATEDRECTD68*
4,1,4,-0.2169,0.1788,0.2230,0.1711,0.2169,-0.1788,-0.2230,-0.1711,-0.2169,0.1788,0.0*
%
%ADD68ROTATEDRECTD68*%

G36*
X57510Y164563D02*
Y163863D01*
X55710Y162063D01*
X53510Y162063D01*
X53510Y164563D01*
X57510Y164563D01*
D02*
G37*
G36*
X66510Y164563D02*
X66510Y162063D01*
X64310Y162063D01*
X61810Y164563D01*
X66510Y164563D01*
D02*
G37*
G36*
X66510Y158063D02*
X66510Y155563D01*
X62510Y155563D01*
X62510Y156263D01*
X64310Y158063D01*
X66510Y158063D01*
D02*
G37*
G36*
X55710Y158063D02*
X57510Y156263D01*
X57510Y155563D01*
X53510Y155563D01*
X53510Y158063D01*
X55710Y158063D01*
D02*
G37*
G36*
X3826Y100002D02*
X-1685Y97392D01*
X-5152Y104592D01*
X360Y107202D01*
X3826Y100002D01*
D02*
G37*
G36*
X83745Y-69275D02*
X78344D01*
X78094Y-49025D01*
X83745Y-49025D01*
Y-69275D01*
D02*
G37*
G36*
X93510Y-69432D02*
X88109D01*
X87859Y-49182D01*
X93510Y-49182D01*
Y-69432D01*
D02*
G37*
G36*
X73786Y-69682D02*
X68385D01*
X68135Y-49432D01*
X73786Y-49432D01*
Y-69682D01*
D02*
G37*
G36*
X3760Y-129807D02*
X-1624Y-132499D01*
X-4988Y-125253D01*
X454Y-122676D01*
X3760Y-129807D01*
D02*
G37*
D10*
X-94069Y65661D02*
G03*
X-93908Y65999I-1976J1150D01*
G01*
X15913Y163090D02*
G03*
X15906Y163090I-114J-1520D01*
G01*
X-17123Y165634D02*
G03*
X-17034Y164395I1433J-520D01*
G01*
X30842Y128042D02*
G03*
X30836Y127984I1152J-150D01*
G01*
X56322Y165469D02*
G03*
X56510Y166202I-1336J733D01*
G01*
X32206Y159563D02*
G03*
X31572Y159425I0J-1524D01*
G01*
X60236Y166981D02*
G03*
X60010Y166182I1298J-799D01*
G01*
X-10352Y106078D02*
G03*
X-10248Y105021I1474J-389D01*
G01*
X39323Y141166D02*
G03*
X38654Y141012I0J-1524D01*
G01*
X29053Y147169D02*
G03*
X29167Y147216I-524J1431D01*
G01*
X26914Y157295D02*
G03*
X26868Y157274I622J-1391D01*
G01*
X73528Y171639D02*
G03*
X73057Y172741I-1524J0D01*
G01*
X69450Y176147D02*
G03*
X68404Y176563I-1046J-1108D01*
G01*
X22813Y161035D02*
G03*
X22893Y161070I-585J1407D01*
G01*
X-33068Y166742D02*
G03*
X-34400Y166733I-658J-1375D01*
G01*
X-24058Y151107D02*
G03*
X-23234Y152774I-671J1369D01*
G01*
X-98966Y43884D02*
G03*
X-97729Y43345I1164J984D01*
G01*
X17856Y182631D02*
G03*
X16272Y183103I-1158J-991D01*
G01*
X22465Y149684D02*
G03*
X21921Y149481I251J-1503D01*
G01*
X4670Y98123D02*
G03*
X5465Y97380I1370J668D01*
G01*
X-22370Y99942D02*
G03*
X-22352Y99950I-930J1952D01*
G01*
X-100986Y72242D02*
X-100495Y71788D01*
X-100358Y71661D02*
X-100144Y71722D01*
X-99392Y71934D01*
X-104805Y77745D02*
X-102646Y73318D01*
X-93908Y65999D02*
X-93908Y65999D01*
X-93640Y66266D01*
X-108740Y85813D02*
X-104805Y77745D01*
X55058Y163150D02*
X56322Y165469D01*
X56314Y169794D02*
X56328Y169726D01*
X-42253Y99435D02*
X-40747Y96348D01*
X-42282Y99494D02*
X-42240Y99563D01*
X-40730Y96342D02*
X-36067Y94737D01*
X-40747Y96348D02*
X-40730Y96342D01*
X-42282Y99494D02*
X-42253Y99435D01*
X12760Y163313D02*
X15906Y163090D01*
X9423Y163877D02*
X9661Y165676D01*
X16860Y169187D01*
X15915Y163090D02*
X16260Y163063D01*
X15913Y163090D02*
X15915Y163090D01*
X-17034Y164395D02*
X-16990Y164313D01*
X-17123Y165634D02*
X-16240Y168063D01*
X31249Y131158D02*
X36244Y134161D01*
X30696Y126221D02*
X30836Y127984D01*
X30842Y128042D02*
X31249Y131158D01*
X39875Y130528D02*
X42510Y131813D01*
X42228Y131531D02*
X42510Y131813D01*
X39260Y130063D02*
X39875Y130528D01*
X-29965Y156744D02*
X-29329Y155028D01*
X-29326Y155020D02*
X-27990Y151813D01*
X34260Y163563D02*
X45010D01*
X51010Y152563D02*
X53760Y149813D01*
X51010Y152563D02*
Y156313D01*
X47760Y159563D02*
X51010Y156313D01*
X53760Y149813D02*
X75010D01*
X32206Y159563D02*
X47760D01*
X109010Y166313D02*
Y178313D01*
X108760Y166063D02*
X109010Y166313D01*
X80010Y181063D02*
X106260D01*
X109010Y178313D01*
X77510Y178563D02*
X80010Y181063D01*
X75010Y149813D02*
X77510Y152313D01*
Y178563D01*
X33760Y149313D02*
X37260Y145813D01*
X55760D01*
X64510Y137063D01*
X81260Y141063D02*
Y153063D01*
X106260Y137063D02*
X107772Y138575D01*
X64510Y137063D02*
X106260D01*
X107772Y138575D02*
X108272D01*
X98260Y152513D02*
Y153563D01*
X56328Y169726D02*
X56510Y168825D01*
X39323Y141166D02*
X51113D01*
X51260Y141313D01*
X47760Y166313D02*
Y173313D01*
X45010Y163563D02*
X47760Y166313D01*
X51010Y176563D02*
X56510D01*
X47760Y173313D02*
X51010Y176563D01*
X26914Y157295D02*
X31572Y159425D01*
X62747Y169556D02*
X62760Y169563D01*
X62747Y169556D02*
X62747Y169556D01*
X61372Y168825D02*
X62747Y169556D01*
X60236Y166981D02*
X61372Y168825D01*
X60010Y166182D02*
Y166182D01*
Y160063D02*
Y166182D01*
X72522Y156813D02*
X73510Y156813D01*
X73510D01*
X-10352Y106078D02*
X-10350Y106084D01*
X-10248Y105021D02*
X-8945Y102349D01*
X-103673Y64845D02*
X-102784Y65276D01*
X108760Y139063D02*
Y139563D01*
X108272Y138575D02*
X108760Y139063D01*
X35510Y139478D02*
X38654Y141012D01*
X29167Y147216D02*
X33760Y149313D01*
X26837Y157259D02*
X26868Y157274D01*
X97760Y163763D02*
X99648Y161875D01*
X97410Y164113D02*
X97760Y163763D01*
X108060Y157063D02*
X108060Y157063D01*
X103248Y161875D02*
X108060Y157063D01*
X108510Y157064D01*
X107072Y157063D02*
X108060Y157063D01*
X108060Y157063D02*
X108760D01*
X99648Y161875D02*
X103248D01*
X97410Y164113D02*
Y164313D01*
X107760Y147063D02*
Y147613D01*
X98260Y152513D02*
X99648Y151125D01*
X104248D01*
X107760Y147613D01*
X60010Y160063D02*
X61668Y159405D01*
X64010Y157063D01*
X55010Y163063D02*
X55058Y163150D01*
X56510Y166202D02*
Y168825D01*
X73528Y164651D02*
X73736Y163452D01*
X73760Y163313D01*
X72522Y163313D02*
X73510Y163313D01*
X73760Y163313D01*
X73051Y172747D02*
X73057Y172741D01*
X73528Y164651D02*
Y171639D01*
X68404Y176563D02*
Y176563D01*
X68404D02*
X68404D01*
X64448D02*
X68404D01*
X69450Y176147D02*
X73051Y172747D01*
X63010Y176563D02*
X64448Y176563D01*
X65260Y156813D02*
X72522D01*
X65260Y163313D02*
X72522D01*
X54760Y156813D02*
X54760Y163313D01*
X114260Y146562D02*
X115010Y147313D01*
X114260Y139563D02*
Y146562D01*
X114510Y157313D02*
Y163575D01*
X114510Y164563D01*
X126221Y163315D02*
X126256D01*
X119968Y157063D02*
X126221Y163315D01*
X115010Y157063D02*
X119968D01*
X121275Y147723D02*
X127260Y153313D01*
X120235Y147313D02*
X120836Y147313D01*
X121275Y147723D01*
X115010Y147313D02*
X120235D01*
X126256Y163315D02*
X127260Y164313D01*
X-43990Y86563D02*
X-35980Y90445D01*
X-35864Y90744D01*
X-35145Y92592D01*
X-32990Y104063D02*
X-32844Y104097D01*
X-28686Y105891D01*
X-33068Y166742D02*
X-27990Y164313D01*
X-28740Y148813D02*
X-28653Y148849D01*
X-28740Y148813D02*
X-28641Y148861D01*
X-28740Y148813D02*
Y149063D01*
X-28641Y148861D02*
X-24058Y151107D01*
X-28653Y148849D02*
X-28526Y148900D01*
X-26884Y108771D02*
X-25029Y109676D01*
X-21740Y111313D01*
X-29218Y109704D02*
X-26884Y108771D01*
X22893Y161070D02*
X27010Y163063D01*
X22807Y161032D02*
X22813Y161035D01*
X21177Y160363D02*
X22807Y161032D01*
X18010Y159063D02*
X21177Y160363D01*
X-34510Y162198D02*
X-31740Y160813D01*
X-55732Y151714D02*
X-34510Y162198D01*
X-58704Y141562D02*
X-55732Y151714D01*
X-30626Y158530D02*
X-29965Y156744D01*
X-29329Y155028D02*
X-29326Y155020D01*
X-30833Y158429D02*
X-29965Y156744D01*
X-29120Y155105D01*
X-28017Y164312D02*
X-28012Y164302D01*
X-24613Y157334D01*
X-34406Y166730D02*
X-34400Y166733D01*
X-59969Y153969D02*
X-34406Y166730D01*
X-63236Y142805D02*
X-59969Y153969D01*
X-23235Y152777D02*
X-23234Y152774D01*
X-28020Y164319D02*
X-28017Y164312D01*
X-26270Y80199D02*
X-24740Y77063D01*
X-26990Y81063D02*
X-26270Y80199D01*
X-40928Y131688D02*
X-37740Y125313D01*
X-38488Y136567D02*
X-34876Y138391D01*
X-40928Y131688D02*
X-38488Y136567D01*
X-40490Y119813D02*
X-37740Y125313D01*
X-40490Y119813D02*
X-37447Y113534D01*
X-54721Y141872D02*
X-40593Y112000D01*
X-54721Y141872D02*
X-52321Y148456D01*
X-85832Y43840D02*
X-46087Y63469D01*
X-97729Y43345D02*
X-85832Y43840D01*
X-46087Y63469D02*
X-41750Y73752D01*
X-102390Y53784D02*
X-102012Y52866D01*
X-98972Y43891D02*
X-98966Y43884D01*
X-41657Y73894D02*
X-35617Y77077D01*
X-35040Y84297D02*
X-33751Y81502D01*
X-35617Y77077D02*
X-33751Y81502D01*
X-35040Y84297D02*
X-31708Y93070D01*
X-32922Y96271D02*
X-31708Y93070D01*
X-40285Y141813D02*
X-39240D01*
X-40501Y141399D02*
X-40240Y141313D01*
X-43240Y140063D02*
X-40501Y141399D01*
X1176Y178702D02*
X16272Y183103D01*
X17856Y182631D02*
X29260Y169313D01*
X-31740Y160813D02*
X-30626Y158530D01*
X-22990Y165063D02*
X-21883Y162794D01*
X-21240Y162063D01*
X25010Y167563D02*
X25010D01*
X19095Y164678D02*
X22426Y166303D01*
X25010Y167563D01*
X27820Y146717D02*
X29053Y147169D01*
X23436Y155705D02*
X26837Y157259D01*
X41248Y114682D02*
X45348Y113004D01*
X12510Y100313D02*
X41248Y114682D01*
X8010Y101813D02*
X12510Y100313D01*
X20010Y148313D02*
X21921Y149481D01*
X22473Y149686D02*
X23260Y149813D01*
X22465Y149684D02*
X22473Y149686D01*
X26696Y140495D02*
X28010Y141313D01*
X24348Y139350D02*
X26696Y140495D01*
X32204Y137729D02*
X35510Y139478D01*
X-107990Y108813D02*
X-107990D01*
X-101012Y105600D02*
X-86108Y112349D01*
X-107990Y108813D02*
X-107560Y108383D01*
X-101012Y105600D01*
X-35913Y110388D02*
X-27401Y114540D01*
X-84240Y124563D02*
X-72544Y115591D01*
X-36067Y94737D02*
X-35145Y92592D01*
X-42221Y99524D02*
X-39136Y101028D01*
X-42282Y99494D02*
X-42221Y99524D01*
X-56268Y104071D02*
X-51641Y102717D01*
X-62619Y113688D02*
X-59690Y111498D01*
X-59490Y111063D01*
X-56268Y104071D01*
X-99059Y95670D02*
X-62619Y113688D01*
X-107240Y97813D02*
X-99059Y95670D01*
X-77196Y110356D02*
X-60970Y117717D01*
X-86108Y112349D02*
X-77196Y110356D01*
X-57740Y115563D02*
X-53176Y105862D01*
X-60970Y117717D02*
X-57740Y115563D01*
X-59971Y121353D02*
X-55376Y118330D01*
X-72544Y115591D02*
X-59971Y121353D01*
X-55376Y118330D02*
X-50030Y107397D01*
X-63236Y142805D02*
X-46884Y108932D01*
X-59222Y98211D02*
X-58952Y98481D01*
X-59303Y98211D02*
X-59222D01*
X-57380Y99214D02*
X-52331Y94670D01*
X-48573Y96426D01*
X-11640Y128965D02*
X-1490Y133563D01*
X-140Y125215D02*
X260Y133313D01*
X-9903Y107749D02*
X-1065Y133417D01*
X-13860Y158389D02*
X-11548Y153649D01*
X-10740Y152063D01*
X-15638Y161681D02*
X-13860Y158389D01*
X8510Y159563D02*
X9423Y163877D01*
X-8945Y102349D02*
X-8490Y101063D01*
X-10350Y106084D02*
X-9903Y107749D01*
X20103Y122384D02*
X22415Y117644D01*
X24146Y114329D01*
X19010Y124563D02*
X20103Y122384D01*
X-24831Y77154D02*
X-24740Y77063D01*
X45348Y113004D02*
X54904Y117873D01*
X874Y174809D02*
X2338Y170449D01*
X874Y174809D02*
X1176Y178702D01*
X-23426Y153724D02*
X-23235Y152777D01*
X-24626Y157297D02*
X-23426Y153724D01*
X-35173Y156315D02*
X-35059Y156367D01*
X-52321Y148456D02*
X-35173Y156315D01*
X54904Y117873D02*
X55735Y118417D01*
X3666Y100182D02*
X4670Y98123D01*
X5465Y97380D02*
X5470Y97378D01*
X2510Y101563D02*
X3666Y100182D01*
X5470Y97378D02*
X9634Y95702D01*
X12714Y94492D01*
X-3451Y92584D02*
X-3045Y92990D01*
X-4089Y92430D02*
X-3451Y92584D01*
X-1618Y97542D02*
Y97605D01*
X-1423Y94611D02*
Y97348D01*
X-19348Y84987D02*
X-4089Y92430D01*
X-3045Y92990D02*
X-1423Y94611D01*
X-1618Y97542D02*
X-1423Y97348D01*
X-20240Y84563D02*
X-19348Y84987D01*
X-58952Y98481D02*
X-57380Y99214D01*
X-54745Y89324D02*
X-47039Y93280D01*
X-40670Y104174D02*
X-39136Y101028D01*
X-28384Y102105D02*
X-24641Y98860D01*
X-31310Y100951D02*
X-28384Y102105D01*
X-24641Y98860D02*
X-22370Y99942D01*
X-25647Y103787D02*
X-22827Y105162D01*
X-28686Y105891D02*
X-25647Y103787D01*
X-34378Y107243D02*
X-29218Y109704D01*
X-58704Y141562D02*
X-43739Y110466D01*
X-35059Y156367D02*
X-33614Y152914D01*
X-27401Y114540D02*
X-24990Y115063D01*
X-22827Y105162D02*
X-20740Y105813D01*
X-22352Y99950D02*
X-20682Y100765D01*
X-19490Y101313D01*
X-99740Y44813D02*
X-98972Y43891D01*
X-109740Y75813D02*
X-109560Y75488D01*
X-109054Y74573D01*
X-106607Y69556D02*
X-103665Y64830D01*
X-109054Y74573D02*
X-106607Y69556D01*
X-98942Y67150D02*
X-98047Y67569D01*
X-102784Y65276D02*
X-98942Y67150D01*
X-103738Y56547D02*
X-102390Y53784D01*
X-106990Y57563D02*
X-103738Y56547D01*
X-100495Y71788D02*
X-100358Y71661D01*
X-101204Y72922D02*
X-101190Y72867D01*
X-99256Y71655D02*
X-98425Y71542D01*
X-97970D01*
X-97550Y71746D01*
X-96076D01*
X-95135Y70806D02*
X-93640Y67741D01*
Y66266D02*
Y67741D01*
X-95129Y63839D02*
X-94069Y65661D01*
X-99392Y71934D02*
X-99256Y71655D01*
X-95300Y63545D02*
X-95129Y63839D01*
X-101190Y72867D02*
X-101087Y72449D01*
X-100986Y72242D01*
X-96076Y71746D02*
X-95135Y70806D01*
X-102646Y73318D02*
X-101490Y72813D01*
X-58542Y-87757D02*
G03*
X-58449Y-88838I1466J-417D01*
G01*
X15544Y-66702D02*
G03*
X15917Y-66781I499J1440D01*
G01*
X-33068Y-63128D02*
G03*
X-34400Y-63137I-658J-1375D01*
G01*
X30842Y-101829D02*
G03*
X30834Y-101922I1152J-149D01*
G01*
X4670Y-131747D02*
G03*
X5465Y-132490I1370J668D01*
G01*
X-94069Y-164209D02*
G03*
X-93908Y-163871I-1976J1150D01*
G01*
X-17299Y-64399D02*
G03*
X-17130Y-65298I1513J-181D01*
G01*
X22465Y-80186D02*
G03*
X21921Y-80388I251J-1503D01*
G01*
X29053Y-82702D02*
G03*
X29167Y-82654I-524J1431D01*
G01*
X32206Y-70307D02*
G03*
X31572Y-70445I0J-1524D01*
G01*
X26914Y-72575D02*
G03*
X26868Y-72597I622J-1391D01*
G01*
X90512Y-68307D02*
G03*
X90508Y-68307I-4J-1524D01*
G01*
X82447Y-54807D02*
G03*
X82078Y-54852I0J-1524D01*
G01*
X22813Y-68835D02*
G03*
X22893Y-68800I-585J1407D01*
G01*
X-24058Y-78763D02*
G03*
X-23234Y-77097I-671J1369D01*
G01*
X-98966Y-185986D02*
G03*
X-97729Y-186525I1164J984D01*
G01*
X17856Y-47239D02*
G03*
X16272Y-46767I-1158J-991D01*
G01*
X39323Y-88704D02*
G03*
X38654Y-88858I0J-1524D01*
G01*
X-10352Y-123792D02*
G03*
X-10248Y-124849I1474J-389D01*
G01*
X-22370Y-129928D02*
G03*
X-22352Y-129920I-930J1952D01*
G01*
X-58449Y-88838D02*
X-43739Y-119404D01*
X-58539Y-87746D02*
X-55732Y-78156D01*
X-43739Y-119404D02*
Y-119404D01*
X-58542Y-87757D02*
X-58539Y-87746D01*
X-24641Y-131010D02*
X-22370Y-129928D01*
X-31310Y-128919D02*
X-28384Y-127765D01*
X-24641Y-131010D01*
X-32990Y-125807D02*
X-32844Y-125773D01*
X-28686Y-123979D02*
X-25647Y-126083D01*
X-32844Y-125773D02*
X-28686Y-123979D01*
X-54721Y-87998D02*
X-52321Y-81414D01*
X-40490Y-110057D02*
X-37740Y-104557D01*
X-40490Y-110057D02*
X-37447Y-116336D01*
X-54721Y-87998D02*
X-40593Y-117870D01*
X-29218Y-120166D02*
X-26884Y-121099D01*
X-34378Y-122627D02*
X-29218Y-120166D01*
X-56268Y-125799D02*
X-51641Y-127153D01*
X-59490Y-118807D02*
X-56268Y-125799D01*
X-59690Y-118372D02*
X-59490Y-118807D01*
X15927Y-66782D02*
X16260Y-66807D01*
X13010Y-65807D02*
X15544Y-66702D01*
X15917Y-66781D02*
X15927Y-66782D01*
X-42282Y-130376D02*
X-42253Y-130435D01*
X-40747Y-133522D02*
X-40730Y-133528D01*
X-35980Y-139425D02*
X-35864Y-139126D01*
X-42282Y-130376D02*
X-42240Y-130307D01*
X-42253Y-130435D02*
X-40747Y-133522D01*
X-43990Y-143307D02*
X-35980Y-139425D01*
X-40730Y-133528D02*
X-36067Y-135133D01*
X-35145Y-137277D01*
X-35864Y-139126D02*
X-35145Y-137277D01*
X-58952Y-131389D02*
X-57380Y-130656D01*
X-52331Y-135200D01*
X-54745Y-140546D02*
X-47039Y-136590D01*
X-52331Y-135200D02*
X-48573Y-133444D01*
X-63236Y-87065D02*
X-59969Y-75901D01*
X-28653Y-81021D02*
X-28526Y-80969D01*
X-28012Y-65568D02*
X-24613Y-72536D01*
X-63236Y-87065D02*
X-46884Y-120939D01*
X-33068Y-63128D02*
X-27990Y-65557D01*
X-25647Y-126083D02*
X-22827Y-124708D01*
X-28740Y-81057D02*
Y-80807D01*
X-28020Y-65551D02*
X-28017Y-65558D01*
X-28740Y-81057D02*
X-28653Y-81021D01*
X-28017Y-65558D02*
X-28012Y-65568D01*
X-59971Y-108517D02*
X-55376Y-111540D01*
X-50030Y-122473D01*
X-22827Y-124708D02*
X-20740Y-124057D01*
X-27401Y-115330D02*
X-24990Y-114807D01*
X-35913Y-119482D02*
X-27401Y-115330D01*
X30717Y-104383D02*
X30834Y-101922D01*
X31103Y-99835D02*
X31249Y-98712D01*
X30842Y-101829D02*
X31103Y-99835D01*
X31249Y-98712D02*
X34437Y-96711D01*
X39875Y-99342D02*
X42510Y-98057D01*
X42228Y-98339D02*
X42510Y-98057D01*
X5465Y-132490D02*
X5470Y-132492D01*
X3685Y-129728D02*
X4670Y-131747D01*
X2850Y-130020D02*
X3010Y-130057D01*
X-2818Y-128692D02*
X-767Y-131784D01*
X-93908Y-163871D02*
X-93640Y-163604D01*
X-93908Y-163871D02*
X-93908Y-163871D01*
X-108740Y-144057D02*
X-104805Y-152125D01*
X-102646Y-156552D01*
X-100144Y-158148D02*
X-99392Y-157936D01*
X-100358Y-158209D02*
X-100144Y-158148D01*
X-100986Y-157628D02*
X-100495Y-158083D01*
X17856Y-47239D02*
X29260Y-60557D01*
X-84240Y-105307D02*
X-72544Y-114279D01*
X-17130Y-65298D02*
X-16990Y-65557D01*
X-17299Y-64399D02*
X-16990Y-61807D01*
X-21883Y-67076D02*
X-21240Y-67807D01*
X-22990Y-64807D02*
X-21883Y-67076D01*
X22465Y-80186D02*
X22473Y-80184D01*
X29167Y-82654D02*
X33760Y-80557D01*
X49760Y-53807D02*
X53760D01*
X48010Y-63557D02*
Y-55557D01*
X49760Y-53807D01*
X34260Y-66307D02*
X45260D01*
X48010Y-63557D01*
X32206Y-70307D02*
X48760D01*
X26914Y-72575D02*
X31572Y-70445D01*
X48760Y-70307D02*
X49010Y-70557D01*
X26837Y-72611D02*
X26868Y-72597D01*
X71160Y-68307D02*
X72660Y-68307D01*
X70760Y-68307D02*
X71160Y-68307D01*
X90512Y-68307D02*
X90761Y-68308D01*
X90512Y-68307D02*
Y-68307D01*
X72660Y-68307D02*
X90508Y-68307D01*
X71160Y-63807D02*
X72660Y-63807D01*
X70760Y-63807D02*
X71160Y-63807D01*
X89261Y-63807D02*
X90761D01*
X72660Y-63807D02*
X89261Y-63807D01*
X71160Y-50307D02*
X72660Y-50307D01*
X70760Y-50307D02*
X71160Y-50307D01*
X71176Y-50462D02*
X72660Y-50307D01*
X70780Y-50503D02*
X71176Y-50462D01*
X70260Y-50557D02*
X70780Y-50503D01*
X90759Y-50306D02*
X90759D01*
X89259D02*
X90759D01*
X80760Y-50307D02*
X89259Y-50306D01*
X72660Y-50307D02*
X80760Y-50307D01*
X89261Y-54806D02*
X90761D01*
X82447Y-54807D02*
X82448Y-54807D01*
X89261Y-54806D02*
X90510Y-55057D01*
X71159Y-54807D02*
X72659D01*
X89261Y-54806D01*
X71159Y-59307D02*
X72659Y-59307D01*
X70510Y-59307D02*
X71159Y-59307D01*
X72659Y-59307D02*
X89260Y-59307D01*
X90760D01*
X81260Y-55057D02*
X82078Y-54852D01*
X-28740Y-81057D02*
X-28641Y-81009D01*
X-24058Y-78763D01*
X-26884Y-121099D02*
X-25029Y-120194D01*
X-21740Y-118557D01*
X22893Y-68800D02*
X27010Y-66807D01*
X22807Y-68838D02*
X22813Y-68835D01*
X21177Y-69507D02*
X22807Y-68838D01*
X18010Y-70807D02*
X21177Y-69507D01*
X-34510Y-67672D02*
X-31740Y-69057D01*
X-55732Y-78156D02*
X-34510Y-67672D01*
X-30626Y-71340D02*
X-29965Y-73126D01*
X-29120Y-74764D01*
X-34406Y-63140D02*
X-34400Y-63137D01*
X-59969Y-75901D02*
X-34406Y-63140D01*
X-23235Y-77093D02*
X-23234Y-77097D01*
X-26270Y-149671D02*
X-24740Y-152807D01*
X-26990Y-148807D02*
X-26270Y-149671D01*
X-40928Y-98182D02*
X-37740Y-104557D01*
X-38488Y-93303D02*
X-34876Y-91479D01*
X-40928Y-98182D02*
X-38488Y-93303D01*
X-85832Y-186030D02*
X-46087Y-166401D01*
X-97729Y-186525D02*
X-85832Y-186030D01*
X-46087Y-166401D02*
X-41750Y-156118D01*
X-102390Y-176086D02*
X-102012Y-177005D01*
X-98972Y-185979D02*
X-98966Y-185986D01*
X-41657Y-155976D02*
X-35617Y-152793D01*
X-35040Y-145573D02*
X-33751Y-148368D01*
X-35617Y-152793D02*
X-33751Y-148368D01*
X-35040Y-145573D02*
X-31708Y-136800D01*
X-32922Y-133599D02*
X-31708Y-136800D01*
X-40285Y-88057D02*
X-39240D01*
X-40501Y-88471D02*
X-40240Y-88557D01*
X-43240Y-89807D02*
X-40501Y-88471D01*
X1176Y-51168D02*
X16272Y-46767D01*
X52510Y-94292D02*
Y-90307D01*
Y-94307D02*
X52525D01*
X39323Y-88704D02*
X50986D01*
X51010Y-88807D02*
X52510Y-90307D01*
X52525Y-94307D02*
X54025Y-95807D01*
X83050D01*
X35510Y-90392D02*
X38654Y-88858D01*
X-31740Y-69057D02*
X-30626Y-71340D01*
X25010Y-62307D02*
X25010D01*
X19095Y-65192D02*
X22426Y-63567D01*
X25010Y-62307D01*
X27820Y-83153D02*
X29053Y-82702D01*
X23436Y-74165D02*
X26837Y-72611D01*
X41248Y-115188D02*
X45348Y-116866D01*
X12510Y-129557D02*
X41248Y-115188D01*
X8010Y-128057D02*
X12510Y-129557D01*
X20010Y-81557D02*
X21921Y-80388D01*
X22473Y-80184D02*
X23260Y-80057D01*
X26696Y-89375D02*
X28010Y-88557D01*
X24348Y-90520D02*
X26696Y-89375D01*
X39260Y-99807D02*
X39875Y-99342D01*
X32204Y-92141D02*
X35510Y-90392D01*
X64590Y-79987D02*
X64920Y-79993D01*
X65010Y-74807D01*
X-107990Y-121057D02*
X-107990D01*
X-101012Y-124270D02*
X-86108Y-117521D01*
X-107990Y-121057D02*
X-107560Y-121487D01*
X-101012Y-124270D01*
X-42221Y-130346D02*
X-39136Y-128841D01*
X-42282Y-130376D02*
X-42221Y-130346D01*
X-62619Y-116182D02*
X-59690Y-118372D01*
X-99059Y-134200D02*
X-62619Y-116182D01*
X-107240Y-132057D02*
X-99059Y-134200D01*
X-77196Y-119514D02*
X-60970Y-112153D01*
X-86108Y-117521D02*
X-77196Y-119514D01*
X-57740Y-114307D02*
X-53176Y-124008D01*
X-60970Y-112153D02*
X-57740Y-114307D01*
X-72544Y-114279D02*
X-59971Y-108517D01*
X-59222Y-131659D02*
X-58952Y-131389D01*
X-59303Y-131659D02*
X-59222D01*
X-11640Y-100905D02*
X-1490Y-96307D01*
X-140Y-104655D02*
X260Y-96557D01*
X-9903Y-122121D02*
X-1065Y-96453D01*
X-13860Y-71481D02*
X-11548Y-76221D01*
X-10740Y-77807D01*
X-15638Y-68189D02*
X-13860Y-71481D01*
X9661Y-64194D02*
X16860Y-60683D01*
X9423Y-65993D02*
X9661Y-64194D01*
X8510Y-70307D02*
X9423Y-65993D01*
X-10248Y-124849D02*
X-8945Y-127521D01*
X-10352Y-123792D02*
X-10350Y-123786D01*
X-8945Y-127521D02*
X-8490Y-128807D01*
X-10350Y-123786D02*
X-9903Y-122121D01*
X20103Y-107486D02*
X22415Y-112226D01*
X24146Y-115541D01*
X19010Y-105307D02*
X20103Y-107486D01*
X-24831Y-152716D02*
X-24740Y-152807D01*
X45348Y-116866D02*
X54904Y-111997D01*
X90342Y-50319D02*
X90759Y-50306D01*
X89260Y-50352D02*
X90342Y-50319D01*
X874Y-55061D02*
X2338Y-59421D01*
X874Y-55061D02*
X1176Y-51168D01*
X91010Y-77155D02*
X92820Y-78964D01*
Y-83755D02*
Y-78964D01*
X91010Y-77155D02*
Y-73295D01*
X90761Y-72807D02*
X91010Y-73295D01*
X-23426Y-76146D02*
X-23235Y-77093D01*
X-24626Y-72573D02*
X-23426Y-76146D01*
X-35173Y-73555D02*
X-35059Y-73503D01*
X-52321Y-81414D02*
X-35173Y-73555D01*
X54904Y-111997D02*
X55735Y-111453D01*
X5470Y-132492D02*
X9634Y-134168D01*
X12714Y-135378D01*
X-3451Y-137286D02*
X-3045Y-136881D01*
X-4089Y-137440D02*
X-3451Y-137286D01*
X-1618Y-132328D02*
Y-132265D01*
X-1423Y-135259D02*
Y-132522D01*
X-19348Y-144883D02*
X-4089Y-137440D01*
X-3045Y-136881D02*
X-1423Y-135259D01*
X-1618Y-132328D02*
X-1423Y-132522D01*
X-20240Y-145307D02*
X-19348Y-144883D01*
X83050Y-95807D02*
X84772Y-94086D01*
Y-91654D02*
X84772Y-91605D01*
X84958Y-85859D01*
X84772Y-94086D02*
Y-91654D01*
X84958Y-85859D02*
X85510Y-84557D01*
X-40670Y-125696D02*
X-39136Y-128841D01*
X-35059Y-73503D02*
X-33614Y-76956D01*
X-22352Y-129920D02*
X-20682Y-129106D01*
X-19490Y-128557D01*
X-99740Y-185057D02*
X-98972Y-185979D01*
X-103673Y-165025D02*
X-102784Y-164594D01*
X-109740Y-154057D02*
X-109560Y-154382D01*
X-109054Y-155297D01*
X-106607Y-160314D02*
X-103665Y-165040D01*
X-109054Y-155297D02*
X-106607Y-160314D01*
X-98942Y-162720D02*
X-98047Y-162301D01*
X-102784Y-164594D02*
X-98942Y-162720D01*
X-103738Y-173323D02*
X-102390Y-176086D01*
X-106990Y-172307D02*
X-103738Y-173323D01*
X-100495Y-158083D02*
X-100358Y-158209D01*
X-101204Y-156948D02*
X-101190Y-157003D01*
X-99256Y-158215D02*
X-98425Y-158329D01*
X-97970D01*
X-97550Y-158124D01*
X-96076D01*
X-95135Y-159064D02*
X-93640Y-162129D01*
Y-163604D02*
Y-162129D01*
X-95129Y-166031D02*
X-94069Y-164209D01*
X-99392Y-157936D02*
X-99256Y-158215D01*
X-95300Y-166325D02*
X-95129Y-166031D01*
X-101190Y-157003D02*
X-101087Y-157421D01*
X-100986Y-157628D01*
X-96076Y-158124D02*
X-95135Y-159064D01*
X-102646Y-156552D02*
X-101490Y-157057D01*
D11*
X-97542Y57667D02*
G03*
X-98832Y59124I-3403J-1713D01*
G01*
X-78740Y130313D02*
Y131495D01*
X-73740Y136495D01*
Y138313D01*
X88760Y152813D02*
X89010Y153063D01*
X88610Y152963D02*
X88760Y152813D01*
X97760Y153563D02*
X98260Y153563D01*
X88760Y153313D02*
X89010Y153063D01*
X88760Y148313D02*
Y152813D01*
X97760Y148313D02*
Y153563D01*
X88610Y152963D02*
Y164313D01*
X52260Y169813D02*
X56311D01*
X-29612Y86876D02*
X-22959Y90135D01*
X-29740Y86813D02*
X-29612Y86876D01*
X-84532Y64701D02*
X-81526Y58704D01*
X-87537Y70699D02*
X-84532Y64701D01*
X-90543Y76696D02*
X-87537Y70699D01*
X-87973Y55528D02*
X-81526Y58704D01*
X-93990Y52563D02*
X-87973Y55528D01*
X-93526Y82954D02*
X-93490Y82882D01*
X-93548Y82693D02*
X-90543Y76696D01*
X-97542Y57667D02*
X-97537Y57658D01*
X97760Y153563D02*
Y163763D01*
X97410Y153563D02*
X97760Y153563D01*
Y163763D02*
Y164063D01*
X88610Y164313D02*
X88610Y164313D01*
X-84929Y79434D02*
X-81954Y73422D01*
X-87868Y85373D02*
X-84929Y79434D01*
X-79003Y67397D02*
X-76240Y61813D01*
X-81979Y73410D02*
X-79003Y67397D01*
X52760Y124063D02*
X52840Y124106D01*
X58853Y127324D01*
X49510Y122563D02*
X52784Y124209D01*
X-38490Y147063D02*
X-33240Y149563D01*
X-101740Y61063D02*
X-98832Y59124D01*
X-97537Y57658D02*
X-96490Y55563D01*
X-17740Y126813D02*
X-14085Y119451D01*
X-96490Y55563D02*
X-94725Y52180D01*
X-93490Y49813D01*
X-102062Y52845D02*
X-99240Y47313D01*
X-75954Y61422D02*
X-72990Y55063D01*
X-97542Y-172203D02*
G03*
X-98832Y-170746I-3403J-1713D01*
G01*
X-78740Y-101057D02*
Y-98375D01*
X-73740Y-93375D01*
Y-91557D01*
X71010Y-77807D02*
X72510Y-81057D01*
X71010Y-77807D02*
X71131Y-73803D01*
X72509Y-81114D02*
X72510Y-81057D01*
X-84929Y-150436D02*
X-81954Y-156448D01*
X-87868Y-144497D02*
X-84929Y-150436D01*
X-79003Y-162473D02*
X-76240Y-168057D01*
X-81979Y-156460D02*
X-79003Y-162473D01*
X52760Y-105807D02*
X52840Y-105764D01*
X58853Y-102546D01*
X49510Y-107307D02*
X52784Y-105661D01*
X-38490Y-82807D02*
X-33240Y-80307D01*
X72365Y-89351D02*
X72509Y-81114D01*
X72365Y-89351D02*
X73010Y-90057D01*
X-29612Y-142994D02*
X-22959Y-139735D01*
X-29740Y-143057D02*
X-29612Y-142994D01*
X-87537Y-159171D02*
X-84532Y-165169D01*
X-97542Y-172203D02*
X-97537Y-172212D01*
X-93990Y-177307D02*
X-87973Y-174342D01*
X-81526Y-171166D01*
X-101740Y-168807D02*
X-98832Y-170746D01*
X-93526Y-146916D02*
X-93490Y-146988D01*
X-97537Y-172212D02*
X-96490Y-174307D01*
X-17740Y-103057D02*
X-14085Y-110419D01*
X-96490Y-174307D02*
X-94725Y-177690D01*
X-93490Y-180057D01*
X-84532Y-165169D02*
X-81526Y-171166D01*
X-102062Y-177025D02*
X-99240Y-182557D01*
X-75954Y-168448D02*
X-72990Y-174807D01*
X-93548Y-147177D02*
X-90543Y-153174D01*
X-87537Y-159171D01*
D12*
X71160Y-68307D02*
D03*
Y-63807D02*
D03*
X71159Y-59307D02*
D03*
X71159Y-54807D02*
D03*
X71160Y-50307D02*
D03*
X71161Y-72806D02*
D03*
X90761Y-68308D02*
D03*
X90761Y-63807D02*
D03*
X90760Y-59307D02*
D03*
X90761Y-54806D02*
D03*
X90759Y-50306D02*
D03*
D13*
X90761Y-72807D02*
D03*
D14*
X92553Y-84807D02*
D03*
X86467Y-84807D02*
D03*
D15*
X56510Y176563D02*
D03*
X63010Y176563D02*
D03*
X115010Y147313D02*
D03*
X108510Y147313D02*
D03*
X115010Y157063D02*
D03*
X108510Y157064D02*
D03*
D23*
X-93562Y82845D02*
D03*
X-87990Y85563D02*
D03*
X-93454Y49672D02*
D03*
X-99026Y46954D02*
D03*
X-90526Y76704D02*
D03*
X-84954Y79422D02*
D03*
X-87526Y70704D02*
D03*
X-81954Y73422D02*
D03*
X-84526Y64704D02*
D03*
X-78954Y67422D02*
D03*
X-81526Y58704D02*
D03*
X-75954Y61422D02*
D03*
X-96490Y55563D02*
D03*
X-102062Y52845D02*
D03*
X-110526Y74954D02*
D03*
X-104954Y77672D02*
D03*
X-93562Y-147025D02*
D03*
X-87990Y-144307D02*
D03*
X-93454Y-180198D02*
D03*
X-99026Y-182916D02*
D03*
X-90526Y-153166D02*
D03*
X-84954Y-150448D02*
D03*
X-87526Y-159166D02*
D03*
X-81954Y-156448D02*
D03*
X-84526Y-165166D02*
D03*
X-78954Y-162448D02*
D03*
X-81526Y-171166D02*
D03*
X-75954Y-168448D02*
D03*
X-96490Y-174307D02*
D03*
X-102062Y-177025D02*
D03*
X-110526Y-154916D02*
D03*
X-104954Y-152198D02*
D03*
D24*
X-91072Y122597D02*
D03*
X-78908Y128530D02*
D03*
X-91072Y-107273D02*
D03*
X-78908Y-101341D02*
D03*
D25*
X26010Y101313D02*
D03*
X33919Y105170D02*
D03*
X4806Y90634D02*
D03*
X12714Y94492D02*
D03*
X26010Y-128557D02*
D03*
X33919Y-124700D02*
D03*
X4806Y-139236D02*
D03*
X12714Y-135378D02*
D03*
D41*
X88610Y153563D02*
D03*
X97410Y153563D02*
D03*
X88610Y164313D02*
D03*
X97410Y164313D02*
D03*
D42*
X73510Y163413D02*
D03*
X73510Y157213D02*
D03*
D43*
X56410Y169813D02*
D03*
X62610Y169813D02*
D03*
D44*
X114260Y139563D02*
D03*
X108760Y139563D02*
D03*
X114510Y164563D02*
D03*
X109010Y164563D02*
D03*
D45*
X54760Y163313D02*
D03*
X54760Y156813D02*
D03*
X65260Y156813D02*
D03*
X65260Y163313D02*
D03*
D47*
X-100216Y121689D02*
G03*
X-100218Y121687I1952J-1625D01*
G01*
X-99108Y122460D02*
G03*
X-100216Y121689I844J-2396D01*
G01*
X-100218Y121687D02*
X-100216Y121689D01*
X-108078Y112225D02*
X-100218Y121687D01*
X-92614Y123093D02*
X-92240Y122813D01*
X-94114Y124218D02*
X-92614Y123093D01*
X-99108Y122460D02*
X-94114Y124218D01*
X-108078Y108901D02*
Y112225D01*
Y108901D02*
X-107990Y108813D01*
X-100216Y-108181D02*
G03*
X-100218Y-108183I1952J-1625D01*
G01*
X-99108Y-107410D02*
G03*
X-100216Y-108181I844J-2396D01*
G01*
X-100218Y-108183D02*
X-100216Y-108181D01*
X-108078Y-117645D02*
X-100218Y-108183D01*
X-92614Y-106777D02*
X-92240Y-107057D01*
X-94114Y-105652D02*
X-92614Y-106777D01*
X-99108Y-107410D02*
X-94114Y-105652D01*
X-108078Y-120969D02*
Y-117645D01*
Y-120969D02*
X-107990Y-121057D01*
X217171Y-264653D02*
G03*
X270795Y-210819I-118J53742D01*
G01*
X270608Y208316D02*
G03*
X218774Y263901I-53710J1876D01*
G01*
X-207022Y264549D02*
G03*
X-257878Y208067I2813J-53669D01*
G01*
X-258098Y-210417D02*
G03*
X-204355Y-264160I53742J0D01*
G01*
X217171D01*
X270608Y-210819D02*
X270608Y208316D01*
X-207022Y264160D02*
X218774D01*
X-258098Y-210417D02*
Y207992D01*
D48*
X-153419Y91622D02*
G03*
X-157240Y81620I11179J-10002D01*
G01*
X-138751Y-197016D02*
G03*
X-125240Y-205500I13511J6516D01*
G01*
X162760Y185620D02*
G03*
X147760Y200620I-15000J0D01*
G01*
X162760Y185620D02*
G03*
X147760Y200620I-15000J0D01*
G01*
X158367Y117622D02*
G03*
X162760Y128229I-10607J10607D01*
G01*
X158367Y117622D02*
G03*
X162760Y128229I-10607J10607D01*
G01*
X138401Y103870D02*
G03*
X149008Y108263I0J15000D01*
G01*
X138401Y103870D02*
G03*
X149008Y108263I0J15000D01*
G01*
X18291Y200620D02*
G03*
X14505Y200135I0J-15000D01*
G01*
X18291Y200620D02*
G03*
X14490Y200131I0J-15000D01*
G01*
X-31174Y188220D02*
G03*
X-33834Y187253I3771J-14519D01*
G01*
X-31189Y188216D02*
G03*
X-33851Y187245I3786J-14515D01*
G01*
X162760Y-44250D02*
G03*
X147760Y-29250I-15000J0D01*
G01*
X162760Y-44250D02*
G03*
X147760Y-29250I-15000J0D01*
G01*
X158367Y-112248D02*
G03*
X162760Y-101641I-10607J10607D01*
G01*
X138401Y-126000D02*
G03*
X149008Y-121607I0J15000D01*
G01*
X158367Y-112248D02*
G03*
X162760Y-101641I-10607J10607D01*
G01*
X138401Y-126000D02*
G03*
X149008Y-121607I0J15000D01*
G01*
X18291Y-29250D02*
G03*
X14505Y-29735I0J-15000D01*
G01*
X-31174Y-41650D02*
G03*
X-33834Y-42617I3771J-14519D01*
G01*
X18291Y-29250D02*
G03*
X14490Y-29739I0J-15000D01*
G01*
X-31189Y-41654D02*
G03*
X-33851Y-42625I3786J-14515D01*
G01*
X-110483Y144434D02*
G03*
X-112974Y141964I9243J-11814D01*
G01*
X-110491Y144428D02*
G03*
X-112983Y141953I9251J-11808D01*
G01*
X-138751Y32854D02*
G03*
X-125240Y24370I13511J6516D01*
G01*
X-138751Y32854D02*
G03*
X-125240Y24370I13511J6516D01*
G01*
X-110491Y-85442D02*
G03*
X-112983Y-87917I9251J-11808D01*
G01*
X-138751Y-197016D02*
G03*
X-125240Y-205500I13511J6516D01*
G01*
X-153408Y-138236D02*
G03*
X-157240Y-148250I11168J-10014D01*
G01*
X-153419Y-138248D02*
G03*
X-157240Y-148250I11179J-10002D01*
G01*
X78740Y24130D02*
X198120D01*
X-74670Y28109D02*
X-35560Y46990D01*
X-200660Y-29250D02*
X-113030D01*
X-200660Y200620D02*
X-113030D01*
X77470Y-205740D02*
X196850D01*
X-194317Y81357D02*
X-162070Y81520D01*
X130175Y103870D02*
X196850D01*
X130175Y200620D02*
X198120D01*
X128905Y-29250D02*
X198120D01*
X130175Y-126000D02*
X195580D01*
X-190507Y-148513D02*
X-158260Y-148350D01*
X-179070Y24130D02*
X-131590D01*
X-179070Y-205740D02*
X-131590D01*
X16370Y200620D02*
X50165D01*
X14490Y200131D02*
X16370Y200620D01*
X-72390Y-200660D02*
X-30480Y-180340D01*
X-150199Y95216D02*
X-118179Y135428D01*
X-149860Y-133350D02*
X-117560Y-93665D01*
X40666Y-146650D02*
X68367Y-133350D01*
X36376Y81160D02*
X65722Y95250D01*
X18291Y-29250D02*
X48895D01*
X-58169Y175705D02*
X-33851Y187245D01*
X-53863Y-52122D02*
X-33851Y-42625D01*
X149008Y108263D02*
X156950Y116205D01*
X-522Y196215D02*
X14490Y200131D01*
X-31174Y188220D02*
X-522Y196215D01*
X149008Y-121607D02*
X156950Y-113665D01*
X14490Y-29739D02*
X14505Y-29735D01*
X-522Y-33655D02*
X14490Y-29739D01*
X-31174Y-41650D02*
X-3810Y-34513D01*
X-31189Y188216D02*
X-31174Y188220D01*
X-33851Y187245D02*
X-33834Y187253D01*
X-31189Y-41654D02*
X-31174Y-41650D01*
X-33851Y-42625D02*
X-33834Y-42617D01*
D49*
X243080Y-140875D02*
D03*
X242193Y118091D02*
D03*
X-232138Y118103D02*
D03*
X-232410Y-140970D02*
D03*
D50*
X242665Y-189150D02*
D03*
X241765Y166366D02*
D03*
X-231723Y166378D02*
D03*
X-231140Y-189230D02*
D03*
D51*
X-167640Y-257952D02*
D03*
X36901Y-216470D02*
D03*
X48260D02*
D03*
X58562D02*
D03*
X-99060Y-16820D02*
D03*
X-42966D02*
D03*
X-88758D02*
D03*
X-77399D02*
D03*
X-66040D02*
D03*
X-54682D02*
D03*
X1341D02*
D03*
X-10018D02*
D03*
X-20320D02*
D03*
X-31679D02*
D03*
X-97790Y211300D02*
D03*
X-41696D02*
D03*
X-87488D02*
D03*
X-76129D02*
D03*
X-64770D02*
D03*
X-53412D02*
D03*
X-8748D02*
D03*
X-19050D02*
D03*
X-30409D02*
D03*
X16581Y14670D02*
D03*
X27940D02*
D03*
X38242D02*
D03*
X49601D02*
D03*
X60960D02*
D03*
X-6422D02*
D03*
X-17780D02*
D03*
X-29139D02*
D03*
X-40498D02*
D03*
X5294D02*
D03*
X-50800D02*
D03*
X-62159D02*
D03*
X12628Y-216470D02*
D03*
X1270D02*
D03*
X-10089D02*
D03*
X-21448D02*
D03*
X24344D02*
D03*
X-31750D02*
D03*
X-43109D02*
D03*
X-64699D02*
D03*
X-53340D02*
D03*
X-167640Y-246594D02*
D03*
Y-223520D02*
D03*
Y-234878D02*
D03*
Y256469D02*
D03*
Y245110D02*
D03*
Y234808D02*
D03*
Y223449D02*
D03*
Y114514D02*
D03*
Y125872D02*
D03*
Y137231D02*
D03*
Y148590D02*
D03*
Y102798D02*
D03*
Y158892D02*
D03*
Y170251D02*
D03*
Y181610D02*
D03*
Y-189159D02*
D03*
Y-177800D02*
D03*
X-167642Y-166441D02*
D03*
X-167640Y-47061D02*
D03*
Y-58420D02*
D03*
Y3739D02*
D03*
Y-7620D02*
D03*
Y-114514D02*
D03*
Y-125872D02*
D03*
Y-68722D02*
D03*
Y-80081D02*
D03*
Y-91440D02*
D03*
Y-102798D02*
D03*
X174520Y-260636D02*
D03*
Y-226203D02*
D03*
Y-237562D02*
D03*
Y-248920D02*
D03*
Y-170466D02*
D03*
Y-181824D02*
D03*
Y-147392D02*
D03*
Y-158750D02*
D03*
Y219109D02*
D03*
Y230469D02*
D03*
Y241827D02*
D03*
Y253186D02*
D03*
Y89641D02*
D03*
Y45648D02*
D03*
Y57007D02*
D03*
Y68366D02*
D03*
Y79724D02*
D03*
Y-11502D02*
D03*
Y-143D02*
D03*
X-88900Y148590D02*
D03*
X174520Y-85019D02*
D03*
Y-73660D02*
D03*
Y-62301D02*
D03*
X151867Y-84421D02*
D03*
X151754Y-73061D02*
D03*
X151643Y-61703D02*
D03*
X-134749Y-179909D02*
D03*
X-139472Y-169578D02*
D03*
X-144194Y-159247D02*
D03*
X-108029Y-216299D02*
D03*
X-96669Y-216384D02*
D03*
X-85310Y-216471D02*
D03*
X-111839Y-193439D02*
D03*
X-100479Y-193524D02*
D03*
X-89120Y-193611D02*
D03*
X87300Y-137710D02*
D03*
X97790Y-133350D02*
D03*
X108280Y-128991D02*
D03*
X73680Y-117384D02*
D03*
X85002Y-116480D02*
D03*
X96326Y-115576D02*
D03*
X107649Y-114672D02*
D03*
X118972Y-113768D02*
D03*
X-109870Y-69675D02*
D03*
X-99894Y-64244D02*
D03*
X-89917Y-58812D02*
D03*
X-79941Y-53380D02*
D03*
X-69964Y-47949D02*
D03*
X-87630Y-80011D02*
D03*
X-77470Y-74930D02*
D03*
X-67310Y-69850D02*
D03*
X-11170Y-182393D02*
D03*
X-839Y-177671D02*
D03*
X9492Y-172948D02*
D03*
X19823Y-168226D02*
D03*
X30154Y-163504D02*
D03*
X-20060Y-163343D02*
D03*
X-9729Y-158621D02*
D03*
X602Y-153898D02*
D03*
X10933Y-149176D02*
D03*
X21264Y-144454D02*
D03*
X66033Y-16822D02*
D03*
X77391Y-16909D02*
D03*
X88751Y-16994D02*
D03*
X100110Y-17081D02*
D03*
X111468Y-17167D02*
D03*
X66033Y-39682D02*
D03*
X77391Y-39769D02*
D03*
X88751Y-39854D02*
D03*
X100110Y-39941D02*
D03*
X111468Y-40027D02*
D03*
X174523Y168241D02*
D03*
X174636Y156882D02*
D03*
X174747Y145523D02*
D03*
X151663Y168241D02*
D03*
X151776Y156882D02*
D03*
X151887Y145523D02*
D03*
X106680Y101600D02*
D03*
X96520Y96520D02*
D03*
X86360Y91440D02*
D03*
X117293Y115424D02*
D03*
X105988Y114323D02*
D03*
X94682Y113221D02*
D03*
X83376Y112120D02*
D03*
X72071Y111018D02*
D03*
X113037Y211132D02*
D03*
X101678Y211218D02*
D03*
X90319Y211304D02*
D03*
X78960Y211391D02*
D03*
X67602Y211477D02*
D03*
X25620Y63161D02*
D03*
X15460Y58081D02*
D03*
X5300Y53001D02*
D03*
X-4860Y47921D02*
D03*
X-15020Y42841D02*
D03*
X-78740Y153670D02*
D03*
X-68580Y158750D02*
D03*
X-74027Y184853D02*
D03*
X-84003Y179422D02*
D03*
X-93980Y173990D02*
D03*
X-103957Y168559D02*
D03*
X-113933Y163127D02*
D03*
X-167640Y40711D02*
D03*
Y52070D02*
D03*
Y63429D02*
D03*
X-134222Y49631D02*
D03*
X-139124Y59878D02*
D03*
X-144026Y70125D02*
D03*
X-108028Y14842D02*
D03*
X-96669Y14755D02*
D03*
X-85310Y14669D02*
D03*
X-111838Y36432D02*
D03*
X-100479Y36345D02*
D03*
X-89120Y36259D02*
D03*
X67452Y190673D02*
D03*
X78811Y190586D02*
D03*
X90170Y190500D02*
D03*
X101529Y190414D02*
D03*
X112888Y190328D02*
D03*
X15240Y83820D02*
D03*
X5080Y78740D02*
D03*
X-5080Y73660D02*
D03*
X-15240Y68580D02*
D03*
X-25400Y63500D02*
D03*
D52*
X130760Y131313D02*
D03*
X130760Y142313D02*
D03*
X130760Y153313D02*
D03*
X130760Y164313D02*
D03*
X130760Y175313D02*
D03*
X130760Y-98557D02*
D03*
X130760Y-87557D02*
D03*
X130760Y-76557D02*
D03*
X130760Y-65557D02*
D03*
X130760Y-54557D02*
D03*
D53*
X-133040Y79433D02*
D03*
X-127780Y68647D02*
D03*
X-122519Y57862D02*
D03*
X-117259Y47076D02*
D03*
X-133040Y-150437D02*
D03*
X-127780Y-161222D02*
D03*
X-122519Y-172008D02*
D03*
X-117259Y-182794D02*
D03*
D54*
X-96990Y103313D02*
D03*
X-99990Y83563D02*
D03*
X12760Y163313D02*
D03*
X-16240Y168063D02*
D03*
X30696Y126221D02*
D03*
X42510Y131813D02*
D03*
X-73990Y121563D02*
D03*
X-79490Y116563D02*
D03*
X-85240Y118063D02*
D03*
X-89240Y105313D02*
D03*
X34260Y163563D02*
D03*
X91510Y132063D02*
D03*
X81260Y153063D02*
D03*
Y141063D02*
D03*
X88760Y148313D02*
D03*
X97760D02*
D03*
X52260Y169813D02*
D03*
X51260Y141313D02*
D03*
X64978Y169850D02*
D03*
Y154850D02*
D03*
Y161350D02*
D03*
X43760Y169813D02*
D03*
X92760Y176063D02*
D03*
X91510Y140813D02*
D03*
X-66490Y124313D02*
D03*
X-73740Y138313D02*
D03*
X-41240Y81063D02*
D03*
X-43990Y86563D02*
D03*
X22510Y101563D02*
D03*
X-28740Y148813D02*
D03*
X13510Y149063D02*
D03*
X24010Y129063D02*
D03*
X-33425Y72631D02*
D03*
X-43240Y140063D02*
D03*
X29260Y169313D02*
D03*
X27010Y163063D02*
D03*
X38260Y179063D02*
D03*
X-31740Y160813D02*
D03*
X-22990Y165063D02*
D03*
X8760Y169063D02*
D03*
X-436Y164677D02*
D03*
X12760Y176563D02*
D03*
X25010Y167563D02*
D03*
X36260Y108563D02*
D03*
X21260Y108813D02*
D03*
X25760Y110813D02*
D03*
X20010Y148313D02*
D03*
X24348Y139350D02*
D03*
X-107990Y108813D02*
D03*
X-96740Y117313D02*
D03*
X-31740Y115813D02*
D03*
X-16140Y139965D02*
D03*
X-19740Y153063D02*
D03*
X30260Y113063D02*
D03*
X34760Y115313D02*
D03*
X50010Y111813D02*
D03*
X49510Y122563D02*
D03*
X62724Y119739D02*
D03*
X8010Y101813D02*
D03*
X1224Y90489D02*
D03*
X-140Y125215D02*
D03*
X3860Y147965D02*
D03*
X-11640Y128965D02*
D03*
X-13240Y98563D02*
D03*
X-38490Y147063D02*
D03*
X-23776Y91989D02*
D03*
X-24740Y77063D02*
D03*
X-43240Y127313D02*
D03*
X-60148Y129362D02*
D03*
X-64468Y138382D02*
D03*
X-54877Y89161D02*
D03*
X-59303Y98211D02*
D03*
X-57990Y82313D02*
D03*
X-72740Y72813D02*
D03*
X-83240Y86813D02*
D03*
X-84240Y124563D02*
D03*
X-114490Y101563D02*
D03*
X-107240Y97813D02*
D03*
X-103851Y92117D02*
D03*
X-90240Y60563D02*
D03*
X-87990Y55563D02*
D03*
X-99740Y44813D02*
D03*
X-96990Y-126557D02*
D03*
X-99990Y-146307D02*
D03*
X-43240Y-102557D02*
D03*
X13010Y-65807D02*
D03*
X-23776Y-137881D02*
D03*
X-31740Y-114057D02*
D03*
X30717Y-104383D02*
D03*
X42510Y-98057D02*
D03*
X-83240Y-143057D02*
D03*
X-57990Y-147557D02*
D03*
X29260Y-60557D02*
D03*
X-84240Y-105307D02*
D03*
X1224Y-139381D02*
D03*
X-16990Y-61807D02*
D03*
X-22990Y-64807D02*
D03*
X12760Y-53307D02*
D03*
X43760Y-60057D02*
D03*
X34260Y-66307D02*
D03*
X-66490Y-105557D02*
D03*
X-73740Y-91557D02*
D03*
X49010Y-70557D02*
D03*
X-41240Y-148807D02*
D03*
X-43990Y-143307D02*
D03*
X22510Y-128307D02*
D03*
X80760Y-52057D02*
D03*
X-28740Y-81057D02*
D03*
X13510Y-80807D02*
D03*
X24010Y-100807D02*
D03*
X-33425Y-157239D02*
D03*
X-43240Y-89807D02*
D03*
X54010Y-53557D02*
D03*
X27010Y-66807D02*
D03*
X38260Y-50807D02*
D03*
X33760Y-80557D02*
D03*
X-31740Y-69057D02*
D03*
X8760Y-60807D02*
D03*
X-436Y-65193D02*
D03*
X25010Y-62307D02*
D03*
X36260Y-121307D02*
D03*
X21260Y-121057D02*
D03*
X25760Y-119057D02*
D03*
X20010Y-81557D02*
D03*
X24348Y-90520D02*
D03*
X65010Y-86557D02*
D03*
Y-74807D02*
D03*
Y-68557D02*
D03*
Y-60057D02*
D03*
X-79490Y-113307D02*
D03*
X-107990Y-121057D02*
D03*
X-96740Y-112557D02*
D03*
X-73990Y-108307D02*
D03*
X-85240Y-111807D02*
D03*
X-16140Y-89905D02*
D03*
X-19740Y-76807D02*
D03*
X30260Y-116807D02*
D03*
X34760Y-114557D02*
D03*
X50010Y-118057D02*
D03*
X49510Y-107307D02*
D03*
X62724Y-110131D02*
D03*
X88510Y-92557D02*
D03*
X8010Y-128057D02*
D03*
X-140Y-104655D02*
D03*
X3860Y-81905D02*
D03*
X-11640Y-100905D02*
D03*
X-13240Y-131307D02*
D03*
X-38490Y-82807D02*
D03*
X-24740Y-152807D02*
D03*
X-60148Y-100508D02*
D03*
X-64468Y-91488D02*
D03*
X-54877Y-140709D02*
D03*
X-59303Y-131659D02*
D03*
X-72740Y-157057D02*
D03*
X-89240Y-124557D02*
D03*
X-114490Y-128307D02*
D03*
X-107240Y-132057D02*
D03*
X-103851Y-137753D02*
D03*
X-90240Y-169307D02*
D03*
X-87990Y-174307D02*
D03*
X-99740Y-185057D02*
D03*
X97260Y-92807D02*
D03*
D55*
X-35990Y102313D02*
D03*
X-46990Y101063D02*
D03*
X-45740Y90063D02*
D03*
X-43839Y102402D02*
D03*
X-50190Y99452D02*
D03*
X-40911Y96464D02*
D03*
X-45440Y97952D02*
D03*
X-39190Y93202D02*
D03*
X-95490Y126813D02*
D03*
X-42348Y107389D02*
D03*
X-38990Y108813D02*
D03*
X-37490Y105563D02*
D03*
X-35740Y-127557D02*
D03*
X-37490Y-124307D02*
D03*
X-38990Y-121057D02*
D03*
X-46904Y-128659D02*
D03*
X-42348Y-122481D02*
D03*
X-43839Y-127468D02*
D03*
X-50190Y-130418D02*
D03*
X-45440Y-131918D02*
D03*
X-40911Y-133406D02*
D03*
X-39190Y-136668D02*
D03*
X-45740Y-139807D02*
D03*
X-95490Y-103057D02*
D03*
D56*
X-108740Y85813D02*
D03*
X-72990Y55063D02*
D03*
X-108740Y-144057D02*
D03*
X-72990Y-174807D02*
D03*
D57*
X1677Y103370D02*
D03*
X28640Y116521D02*
D03*
X6170Y105562D02*
D03*
X33134Y118713D02*
D03*
X10664Y107753D02*
D03*
X-2818Y101178D02*
D03*
X24146Y114329D02*
D03*
X19653Y112137D02*
D03*
X15158Y109945D02*
D03*
X-7312Y98987D02*
D03*
X6831Y172641D02*
D03*
X2338Y170449D02*
D03*
X-2156Y168256D02*
D03*
X-6650Y166065D02*
D03*
X-11144Y163873D02*
D03*
X-15638Y161681D02*
D03*
X-20132Y159490D02*
D03*
X-24626Y157297D02*
D03*
X-29120Y155105D02*
D03*
X-33614Y152914D02*
D03*
X1677Y-126500D02*
D03*
X28640Y-113349D02*
D03*
X6170Y-124309D02*
D03*
X33134Y-111157D02*
D03*
X10664Y-122117D02*
D03*
X-2818Y-128692D02*
D03*
X24146Y-115541D02*
D03*
X19653Y-117733D02*
D03*
X15158Y-119925D02*
D03*
X-7312Y-130883D02*
D03*
X6831Y-57229D02*
D03*
X2338Y-59421D02*
D03*
X-2156Y-61614D02*
D03*
X-6650Y-63805D02*
D03*
X-11144Y-65997D02*
D03*
X-15638Y-68189D02*
D03*
X-20132Y-70380D02*
D03*
X-24626Y-72573D02*
D03*
X-29120Y-74764D02*
D03*
X-33614Y-76956D02*
D03*
D58*
X32204Y137729D02*
D03*
X-17340Y102439D02*
D03*
X36587Y128741D02*
D03*
X-19532Y106933D02*
D03*
X34395Y133235D02*
D03*
X-21724Y111427D02*
D03*
X21244Y160200D02*
D03*
X30012Y142223D02*
D03*
X19052Y164693D02*
D03*
X27820Y146717D02*
D03*
X25628Y151211D02*
D03*
X16860Y169187D02*
D03*
X23436Y155705D02*
D03*
X-37067Y142885D02*
D03*
X-28300Y124909D02*
D03*
X-23916Y115921D02*
D03*
X-26108Y120414D02*
D03*
X-32683Y133897D02*
D03*
X-30492Y129403D02*
D03*
X-34876Y138391D02*
D03*
X32204Y-92141D02*
D03*
X-17340Y-127431D02*
D03*
X36587Y-101129D02*
D03*
X-19532Y-122937D02*
D03*
X34395Y-96635D02*
D03*
X-21724Y-118443D02*
D03*
X21244Y-69670D02*
D03*
X30012Y-87647D02*
D03*
X19052Y-65177D02*
D03*
X27820Y-83153D02*
D03*
X25628Y-78659D02*
D03*
X16860Y-60683D02*
D03*
X23436Y-74165D02*
D03*
X-37067Y-86985D02*
D03*
X-28300Y-104961D02*
D03*
X-23916Y-113949D02*
D03*
X-26108Y-109456D02*
D03*
X-32683Y-95974D02*
D03*
X-30492Y-100467D02*
D03*
X-34876Y-91479D02*
D03*
D59*
X-240Y135813D02*
D03*
Y-94057D02*
D03*
D60*
X60010Y160063D02*
D03*
D61*
X-37447Y113534D02*
D03*
X-35913Y110388D02*
D03*
X-34378Y107243D02*
D03*
X-32844Y104097D02*
D03*
X-31310Y100951D02*
D03*
X-29776Y97805D02*
D03*
X-40593Y112000D02*
D03*
X-39058Y108854D02*
D03*
X-37524Y105708D02*
D03*
X-35990Y102563D02*
D03*
X-34456Y99417D02*
D03*
X-32922Y96271D02*
D03*
X-43739Y110466D02*
D03*
X-42205Y107320D02*
D03*
X-40670Y104174D02*
D03*
X-39136Y101028D02*
D03*
X-37602Y97882D02*
D03*
X-36067Y94737D02*
D03*
X-46884Y108932D02*
D03*
X-45350Y105785D02*
D03*
X-43816Y102640D02*
D03*
X-42282Y99494D02*
D03*
X-40747Y96348D02*
D03*
X-39213Y93203D02*
D03*
X-50030Y107397D02*
D03*
X-48496Y104251D02*
D03*
X-46962Y101105D02*
D03*
X-45427Y97959D02*
D03*
X-43893Y94814D02*
D03*
X-42359Y91668D02*
D03*
X-53176Y105862D02*
D03*
X-51641Y102717D02*
D03*
X-50107Y99571D02*
D03*
X-48573Y96426D02*
D03*
X-47039Y93280D02*
D03*
X-45505Y90134D02*
D03*
X-37447Y-116336D02*
D03*
X-35913Y-119482D02*
D03*
X-34378Y-122627D02*
D03*
X-32844Y-125773D02*
D03*
X-31310Y-128919D02*
D03*
X-29776Y-132065D02*
D03*
X-40593Y-117870D02*
D03*
X-39058Y-121016D02*
D03*
X-37524Y-124162D02*
D03*
X-35990Y-127307D02*
D03*
X-34456Y-130453D02*
D03*
X-32922Y-133599D02*
D03*
X-43739Y-119404D02*
D03*
X-42205Y-122550D02*
D03*
X-40670Y-125696D02*
D03*
X-39136Y-128841D02*
D03*
X-37602Y-131988D02*
D03*
X-36067Y-135133D02*
D03*
X-46884Y-120939D02*
D03*
X-45350Y-124085D02*
D03*
X-43816Y-127230D02*
D03*
X-42282Y-130376D02*
D03*
X-40747Y-133522D02*
D03*
X-39213Y-136667D02*
D03*
X-50030Y-122473D02*
D03*
X-48496Y-125618D02*
D03*
X-46962Y-128765D02*
D03*
X-45427Y-131911D02*
D03*
X-43893Y-135056D02*
D03*
X-42359Y-138202D02*
D03*
X-53176Y-124008D02*
D03*
X-51641Y-127153D02*
D03*
X-50107Y-130299D02*
D03*
X-48573Y-133444D02*
D03*
X-47039Y-136590D02*
D03*
X-45505Y-139736D02*
D03*
D62*
X55735Y118417D02*
D03*
X52784Y124209D02*
D03*
X55735Y-111453D02*
D03*
X52784Y-105661D02*
D03*
D63*
X58853Y127324D02*
D03*
X61668Y121801D02*
D03*
X58853Y-102546D02*
D03*
X61668Y-108069D02*
D03*
D64*
X-20240Y84563D02*
D03*
X-22959Y90135D02*
D03*
X-29599Y86848D02*
D03*
X-26881Y81278D02*
D03*
X-20240Y-145307D02*
D03*
X-22959Y-139735D02*
D03*
X-29599Y-143021D02*
D03*
X-26881Y-148592D02*
D03*
D65*
X-103665Y64830D02*
D03*
Y-165040D02*
D03*
D66*
X-95856Y63075D02*
D03*
X-98047Y67569D02*
D03*
X-100240Y72063D02*
D03*
X-111474Y66583D02*
D03*
X-109283Y62090D02*
D03*
X-107091Y57595D02*
D03*
X-95856Y-166795D02*
D03*
X-98047Y-162301D02*
D03*
X-100240Y-157807D02*
D03*
X-111474Y-163286D02*
D03*
X-109283Y-167780D02*
D03*
X-107091Y-172275D02*
D03*
D67*
X73010Y-90057D02*
D03*
X65411Y-89924D02*
D03*
D68*
X72510Y-81114D02*
D03*
X66011Y-81000D02*
D03*
M02*
