G04*
G04 #@! TF.GenerationSoftware,Altium Limited,Altium Designer,23.2.1 (34)*
G04*
G04 Layer_Physical_Order=2*
G04 Layer_Color=36540*
%FSLAX44Y44*%
%MOMM*%
G71*
G04*
G04 #@! TF.SameCoordinates,96D2EB81-E719-42E9-B1B6-D61F4878D9FD*
G04*
G04*
G04 #@! TF.FilePolarity,Positive*
G04*
G01*
G75*
%ADD47C,0.2540*%
%ADD48C,3.0000*%
%ADD52O,1.5000X0.8000*%
G04:AMPARAMS|DCode=53|XSize=0.9mm|YSize=1.5mm|CornerRadius=0mm|HoleSize=0mm|Usage=FLASHONLY|Rotation=296.000|XOffset=0mm|YOffset=0mm|HoleType=Round|Shape=Round|*
%AMOVALD53*
21,1,0.6000,0.9000,0.0000,0.0000,26.0*
1,1,0.9000,-0.2696,-0.1315*
1,1,0.9000,0.2696,0.1315*
%
%ADD53OVALD53*%

%ADD54C,0.3000*%
%ADD55C,0.2410*%
G36*
X144510Y184063D02*
Y129313D01*
X138010Y122063D01*
X78760D01*
X-85740Y42313D01*
X-98060Y42147D01*
X-98215Y42417D01*
X-98455Y43411D01*
X-98129Y43737D01*
X-97840Y44435D01*
Y45191D01*
X-98129Y45889D01*
X-98664Y46424D01*
X-99362Y46713D01*
X-100118D01*
X-100816Y46424D01*
X-101351Y45889D01*
X-101640Y45191D01*
Y44435D01*
X-101351Y43737D01*
X-100991Y43377D01*
X-101146Y42554D01*
X-101375Y42102D01*
X-104240Y42063D01*
X-107990Y43313D01*
X-108695Y43249D01*
X-109312Y44468D01*
X-109100Y44707D01*
X-108333Y46247D01*
X-107990Y47932D01*
X-108095Y49648D01*
X-108234Y50065D01*
X-116702Y45935D01*
X-117815Y48218D01*
X-109348Y52348D01*
X-109590Y52714D01*
X-110878Y53853D01*
X-112417Y54621D01*
X-114103Y54964D01*
X-115292Y54891D01*
X-115597Y55269D01*
X-115942Y56104D01*
X-115099Y57551D01*
X-114836Y59482D01*
X-115332Y61367D01*
X-116512Y62919D01*
X-118196Y63901D01*
X-120128Y64164D01*
X-122013Y63667D01*
X-124743Y62336D01*
X-125520Y62918D01*
X-125361Y64269D01*
X-122893Y65472D01*
X-121342Y66652D01*
X-120360Y68336D01*
X-120097Y70268D01*
X-120593Y72153D01*
X-121773Y73704D01*
X-123457Y74686D01*
X-125388Y74949D01*
X-127274Y74453D01*
X-130993Y72639D01*
X-131622Y73454D01*
X-131284Y74731D01*
X-128153Y76258D01*
X-126602Y77438D01*
X-125620Y79122D01*
X-125357Y81053D01*
X-125853Y82938D01*
X-127033Y84490D01*
X-128717Y85472D01*
X-130649Y85735D01*
X-132534Y85239D01*
X-137050Y83036D01*
X-137740Y84313D01*
X-135740Y85813D01*
X-132990Y87063D01*
X-132362Y88409D01*
X-131638Y89330D01*
X-131550Y89646D01*
X-131347Y89904D01*
X-131011Y91103D01*
X-97490Y133563D01*
X-87626Y141634D01*
X-80805Y146977D01*
X-26837Y172587D01*
X18503Y184414D01*
X143809D01*
X144510Y184063D01*
D02*
G37*
G36*
Y-45807D02*
Y-100557D01*
X138010Y-107807D01*
X78760D01*
X-85740Y-187557D01*
X-98060Y-187723D01*
X-98215Y-187453D01*
X-98455Y-186459D01*
X-98129Y-186133D01*
X-97840Y-185435D01*
Y-184679D01*
X-98129Y-183981D01*
X-98664Y-183446D01*
X-99362Y-183157D01*
X-100118D01*
X-100816Y-183446D01*
X-101351Y-183981D01*
X-101640Y-184679D01*
Y-185435D01*
X-101351Y-186133D01*
X-100991Y-186493D01*
X-101146Y-187316D01*
X-101375Y-187768D01*
X-104240Y-187807D01*
X-107990Y-186557D01*
X-108695Y-186621D01*
X-109312Y-185402D01*
X-109100Y-185163D01*
X-108333Y-183624D01*
X-107990Y-181938D01*
X-108095Y-180222D01*
X-108234Y-179805D01*
X-116702Y-183935D01*
X-117815Y-181652D01*
X-109348Y-177522D01*
X-109590Y-177156D01*
X-110878Y-176017D01*
X-112417Y-175249D01*
X-114103Y-174906D01*
X-115292Y-174979D01*
X-115597Y-174601D01*
X-115942Y-173766D01*
X-115099Y-172319D01*
X-114836Y-170388D01*
X-115332Y-168503D01*
X-116512Y-166951D01*
X-118196Y-165969D01*
X-120128Y-165706D01*
X-122013Y-166203D01*
X-124743Y-167534D01*
X-125520Y-166952D01*
X-125361Y-165601D01*
X-122893Y-164398D01*
X-121342Y-163218D01*
X-120360Y-161534D01*
X-120097Y-159602D01*
X-120593Y-157717D01*
X-121773Y-156166D01*
X-123457Y-155184D01*
X-125388Y-154921D01*
X-127274Y-155417D01*
X-130993Y-157231D01*
X-131622Y-156416D01*
X-131284Y-155139D01*
X-128153Y-153612D01*
X-126602Y-152432D01*
X-125620Y-150748D01*
X-125357Y-148817D01*
X-125853Y-146932D01*
X-127033Y-145380D01*
X-128717Y-144398D01*
X-130649Y-144135D01*
X-132534Y-144632D01*
X-137050Y-146834D01*
X-137740Y-145557D01*
X-135740Y-144057D01*
X-132990Y-142807D01*
X-132362Y-141461D01*
X-131638Y-140540D01*
X-131550Y-140224D01*
X-131347Y-139966D01*
X-131011Y-138767D01*
X-97490Y-96307D01*
X-87626Y-88237D01*
X-80805Y-82893D01*
X-26837Y-57283D01*
X18503Y-45456D01*
X143809D01*
X144510Y-45807D01*
D02*
G37*
%LPC*%
G36*
X38638Y180963D02*
X37882D01*
X37184Y180674D01*
X36649Y180139D01*
X36360Y179441D01*
Y178685D01*
X36649Y177987D01*
X37184Y177452D01*
X37882Y177163D01*
X38638D01*
X39336Y177452D01*
X39871Y177987D01*
X40160Y178685D01*
Y179441D01*
X39871Y180139D01*
X39336Y180674D01*
X38638Y180963D01*
D02*
G37*
G36*
X134260Y181463D02*
X132030D01*
Y176583D01*
X140157D01*
X139942Y177667D01*
X138609Y179662D01*
X136613Y180995D01*
X134260Y181463D01*
D02*
G37*
G36*
X129490D02*
X127260D01*
X124906Y180995D01*
X122911Y179662D01*
X121578Y177667D01*
X121362Y176583D01*
X129490D01*
Y181463D01*
D02*
G37*
G36*
X29638Y171213D02*
X28882D01*
X28184Y170924D01*
X27649Y170389D01*
X27360Y169691D01*
X26090Y169170D01*
X26086Y169174D01*
X25388Y169463D01*
X24632D01*
X23934Y169174D01*
X23399Y168639D01*
X23110Y167941D01*
Y167185D01*
X23399Y166487D01*
X23934Y165952D01*
X24632Y165663D01*
X25087D01*
X25256Y165663D01*
X25563Y165093D01*
X25750Y164490D01*
X25637Y164377D01*
X25399Y164139D01*
X25110Y163441D01*
Y162685D01*
X25399Y161987D01*
X25934Y161452D01*
X26632Y161163D01*
X27388D01*
X28086Y161452D01*
X28621Y161987D01*
X28910Y162685D01*
Y163441D01*
X28621Y164139D01*
X28086Y164674D01*
X27388Y164963D01*
X26933D01*
X26764Y164963D01*
X26456Y165533D01*
X26270Y166136D01*
X26383Y166249D01*
X26621Y166487D01*
X26910Y167185D01*
X28180Y167706D01*
X28184Y167702D01*
X28882Y167413D01*
X29638D01*
X30336Y167702D01*
X30871Y168237D01*
X31160Y168935D01*
Y169691D01*
X30871Y170389D01*
X30336Y170924D01*
X29638Y171213D01*
D02*
G37*
G36*
X52638Y171713D02*
X51882D01*
X51184Y171424D01*
X50649Y170889D01*
X50360Y170191D01*
Y169435D01*
X50649Y168737D01*
X51184Y168202D01*
X51882Y167913D01*
X52638D01*
X53336Y168202D01*
X53871Y168737D01*
X54160Y169435D01*
Y170191D01*
X53871Y170889D01*
X53336Y171424D01*
X52638Y171713D01*
D02*
G37*
G36*
X9138Y170963D02*
X8382D01*
X7684Y170674D01*
X7149Y170139D01*
X6860Y169441D01*
Y168685D01*
X7149Y167987D01*
X7684Y167452D01*
X8382Y167163D01*
X9138D01*
X9836Y167452D01*
X10371Y167987D01*
X10660Y168685D01*
Y169441D01*
X10371Y170139D01*
X9836Y170674D01*
X9138Y170963D01*
D02*
G37*
G36*
X-22612Y166963D02*
X-23368D01*
X-24066Y166674D01*
X-24601Y166139D01*
X-24890Y165441D01*
Y164685D01*
X-24601Y163987D01*
X-24066Y163452D01*
X-23368Y163163D01*
X-22612D01*
X-21914Y163452D01*
X-21379Y163987D01*
X-21090Y164685D01*
Y165441D01*
X-21379Y166139D01*
X-21914Y166674D01*
X-22612Y166963D01*
D02*
G37*
G36*
X-58Y166577D02*
X-814D01*
X-1513Y166287D01*
X-2047Y165753D01*
X-2336Y165054D01*
Y164299D01*
X-2047Y163600D01*
X-1513Y163066D01*
X-814Y162777D01*
X-58D01*
X640Y163066D01*
X1174Y163600D01*
X1464Y164299D01*
Y165054D01*
X1174Y165753D01*
X640Y166287D01*
X-58Y166577D01*
D02*
G37*
G36*
X34638Y165463D02*
X33882D01*
X33184Y165174D01*
X32649Y164639D01*
X32360Y163941D01*
Y163185D01*
X32649Y162487D01*
X33184Y161952D01*
X33882Y161663D01*
X34638D01*
X35336Y161952D01*
X35871Y162487D01*
X36160Y163185D01*
Y163941D01*
X35871Y164639D01*
X35336Y165174D01*
X34638Y165463D01*
D02*
G37*
G36*
X13138Y165213D02*
X12382D01*
X11684Y164924D01*
X11149Y164389D01*
X10860Y163691D01*
Y162935D01*
X11149Y162237D01*
X11684Y161702D01*
X12382Y161413D01*
X13138D01*
X13836Y161702D01*
X14371Y162237D01*
X14660Y162935D01*
Y163691D01*
X14371Y164389D01*
X13836Y164924D01*
X13138Y165213D01*
D02*
G37*
G36*
X140157Y174043D02*
X130760D01*
X121362D01*
X121578Y172960D01*
X122911Y170964D01*
X124906Y169631D01*
X125122Y169588D01*
X125175Y169446D01*
X125257Y168267D01*
X124088Y167486D01*
X123115Y166030D01*
X122774Y164313D01*
X123115Y162597D01*
X124088Y161141D01*
X125543Y160169D01*
X127260Y159827D01*
X134260D01*
X135977Y160169D01*
X137432Y161141D01*
X138405Y162597D01*
X138746Y164313D01*
X138405Y166030D01*
X137432Y167486D01*
X136263Y168267D01*
X136344Y169446D01*
X136397Y169588D01*
X136613Y169631D01*
X138609Y170964D01*
X139942Y172960D01*
X140157Y174043D01*
D02*
G37*
G36*
X65356Y163250D02*
X64601D01*
X63902Y162961D01*
X63368Y162427D01*
X63078Y161728D01*
Y160972D01*
X63368Y160274D01*
X63902Y159740D01*
X64601Y159450D01*
X65356D01*
X66055Y159740D01*
X66589Y160274D01*
X66878Y160972D01*
Y161728D01*
X66589Y162427D01*
X66055Y162961D01*
X65356Y163250D01*
D02*
G37*
G36*
X-31362Y162713D02*
X-32118D01*
X-32816Y162424D01*
X-33351Y161889D01*
X-33640Y161191D01*
Y160435D01*
X-33351Y159737D01*
X-32816Y159202D01*
X-32118Y158913D01*
X-31362D01*
X-30664Y159202D01*
X-30129Y159737D01*
X-29840Y160435D01*
Y161191D01*
X-30129Y161889D01*
X-30664Y162424D01*
X-31362Y162713D01*
D02*
G37*
G36*
X81638Y154963D02*
X80882D01*
X80184Y154674D01*
X79649Y154139D01*
X79360Y153441D01*
Y152685D01*
X79649Y151987D01*
X80184Y151452D01*
X80882Y151163D01*
X81638D01*
X82336Y151452D01*
X82871Y151987D01*
X83160Y152685D01*
Y153441D01*
X82871Y154139D01*
X82336Y154674D01*
X81638Y154963D01*
D02*
G37*
G36*
X-19362D02*
X-20118D01*
X-20816Y154674D01*
X-21351Y154139D01*
X-21640Y153441D01*
Y152685D01*
X-21351Y151987D01*
X-20816Y151452D01*
X-20118Y151163D01*
X-19362D01*
X-18664Y151452D01*
X-18129Y151987D01*
X-17840Y152685D01*
Y153441D01*
X-18129Y154139D01*
X-18664Y154674D01*
X-19362Y154963D01*
D02*
G37*
G36*
X134260Y157799D02*
X127260D01*
X125543Y157458D01*
X124088Y156485D01*
X123115Y155030D01*
X122774Y153313D01*
X123115Y151596D01*
X124088Y150141D01*
X125543Y149168D01*
X127260Y148827D01*
X134260D01*
X135977Y149168D01*
X137432Y150141D01*
X138405Y151596D01*
X138746Y153313D01*
X138405Y155030D01*
X137432Y156485D01*
X135977Y157458D01*
X134260Y157799D01*
D02*
G37*
G36*
X-28362Y150713D02*
X-29118D01*
X-29816Y150424D01*
X-30351Y149889D01*
X-30640Y149191D01*
Y148435D01*
X-30351Y147737D01*
X-29816Y147202D01*
X-29118Y146913D01*
X-28362D01*
X-27664Y147202D01*
X-27129Y147737D01*
X-26840Y148435D01*
Y149191D01*
X-27129Y149889D01*
X-27664Y150424D01*
X-28362Y150713D01*
D02*
G37*
G36*
X98138Y150213D02*
X97382D01*
X96684Y149924D01*
X96149Y149389D01*
X95860Y148691D01*
Y147935D01*
X96149Y147237D01*
X96684Y146702D01*
X97382Y146413D01*
X98138D01*
X98836Y146702D01*
X99371Y147237D01*
X99660Y147935D01*
Y148691D01*
X99371Y149389D01*
X98836Y149924D01*
X98138Y150213D01*
D02*
G37*
G36*
X20388D02*
X19632D01*
X18934Y149924D01*
X18399Y149389D01*
X18110Y148691D01*
Y147935D01*
X18399Y147237D01*
X18934Y146702D01*
X19632Y146413D01*
X20388D01*
X21086Y146702D01*
X21621Y147237D01*
X21910Y147935D01*
Y148691D01*
X21621Y149389D01*
X21086Y149924D01*
X20388Y150213D01*
D02*
G37*
G36*
X-38112Y148963D02*
X-38868D01*
X-39566Y148674D01*
X-40101Y148139D01*
X-40390Y147441D01*
Y146685D01*
X-40101Y145987D01*
X-39566Y145452D01*
X-38868Y145163D01*
X-38112D01*
X-37414Y145452D01*
X-36879Y145987D01*
X-36590Y146685D01*
Y147441D01*
X-36879Y148139D01*
X-37414Y148674D01*
X-38112Y148963D01*
D02*
G37*
G36*
X51638Y143213D02*
X50882D01*
X50184Y142924D01*
X49649Y142389D01*
X49360Y141691D01*
Y140935D01*
X49649Y140237D01*
X50184Y139702D01*
X50882Y139413D01*
X51638D01*
X52336Y139702D01*
X52871Y140237D01*
X53160Y140935D01*
Y141691D01*
X52871Y142389D01*
X52336Y142924D01*
X51638Y143213D01*
D02*
G37*
G36*
X81638Y142963D02*
X80882D01*
X80184Y142674D01*
X79649Y142139D01*
X79360Y141441D01*
Y140685D01*
X79649Y139987D01*
X80184Y139452D01*
X80882Y139163D01*
X81638D01*
X82336Y139452D01*
X82871Y139987D01*
X83160Y140685D01*
Y141441D01*
X82871Y142139D01*
X82336Y142674D01*
X81638Y142963D01*
D02*
G37*
G36*
X91888Y142713D02*
X91132D01*
X90434Y142424D01*
X89899Y141889D01*
X89610Y141191D01*
Y140435D01*
X89899Y139737D01*
X90434Y139202D01*
X91132Y138913D01*
X91888D01*
X92586Y139202D01*
X93121Y139737D01*
X93410Y140435D01*
Y141191D01*
X93121Y141889D01*
X92586Y142424D01*
X91888Y142713D01*
D02*
G37*
G36*
X-42862Y141963D02*
X-43618D01*
X-44316Y141674D01*
X-44851Y141139D01*
X-45140Y140441D01*
Y139685D01*
X-44851Y138987D01*
X-44316Y138452D01*
X-43618Y138163D01*
X-42862D01*
X-42164Y138452D01*
X-41629Y138987D01*
X-41340Y139685D01*
Y140441D01*
X-41629Y141139D01*
X-42164Y141674D01*
X-42862Y141963D01*
D02*
G37*
G36*
X134260Y146799D02*
X127260D01*
X125543Y146458D01*
X124088Y145485D01*
X123115Y144030D01*
X122774Y142313D01*
X123115Y140596D01*
X124088Y139141D01*
X125543Y138168D01*
X127260Y137827D01*
X134260D01*
X135977Y138168D01*
X137432Y139141D01*
X138405Y140596D01*
X138746Y142313D01*
X138405Y144030D01*
X137432Y145485D01*
X135977Y146458D01*
X134260Y146799D01*
D02*
G37*
G36*
X24726Y141250D02*
X23970D01*
X23272Y140961D01*
X22737Y140426D01*
X22448Y139728D01*
Y138972D01*
X22737Y138273D01*
X23272Y137739D01*
X23970Y137450D01*
X24726D01*
X25424Y137739D01*
X25959Y138273D01*
X26248Y138972D01*
Y139728D01*
X25959Y140426D01*
X25424Y140961D01*
X24726Y141250D01*
D02*
G37*
G36*
X-64090Y140282D02*
X-64846D01*
X-65544Y139993D01*
X-66079Y139458D01*
X-66368Y138760D01*
Y138004D01*
X-66079Y137306D01*
X-65544Y136771D01*
X-64846Y136482D01*
X-64090D01*
X-63392Y136771D01*
X-62857Y137306D01*
X-62568Y138004D01*
Y138760D01*
X-62857Y139458D01*
X-63392Y139993D01*
X-64090Y140282D01*
D02*
G37*
G36*
X-59770Y131262D02*
X-60526D01*
X-61224Y130972D01*
X-61759Y130438D01*
X-62048Y129740D01*
Y128984D01*
X-61759Y128285D01*
X-61224Y127751D01*
X-60526Y127462D01*
X-59770D01*
X-59072Y127751D01*
X-58537Y128285D01*
X-58248Y128984D01*
Y129740D01*
X-58537Y130438D01*
X-59072Y130972D01*
X-59770Y131262D01*
D02*
G37*
G36*
X134260Y135799D02*
X127260D01*
X125543Y135458D01*
X124088Y134485D01*
X123115Y133030D01*
X122774Y131313D01*
X123115Y129596D01*
X124088Y128141D01*
X125543Y127169D01*
X127260Y126827D01*
X134260D01*
X135977Y127169D01*
X137432Y128141D01*
X138405Y129596D01*
X138746Y131313D01*
X138405Y133030D01*
X137432Y134485D01*
X135977Y135458D01*
X134260Y135799D01*
D02*
G37*
G36*
X-42862Y129213D02*
X-43618D01*
X-44316Y128924D01*
X-44851Y128389D01*
X-45140Y127691D01*
Y126935D01*
X-44851Y126237D01*
X-44316Y125702D01*
X-43618Y125413D01*
X-42862D01*
X-42164Y125702D01*
X-41629Y126237D01*
X-41340Y126935D01*
Y127691D01*
X-41629Y128389D01*
X-42164Y128924D01*
X-42862Y129213D01*
D02*
G37*
G36*
X-95171Y128418D02*
X-95809D01*
X-96399Y128174D01*
X-96851Y127722D01*
X-97095Y127132D01*
Y126494D01*
X-96851Y125904D01*
X-96399Y125452D01*
X-95809Y125208D01*
X-95171D01*
X-94581Y125452D01*
X-94129Y125904D01*
X-93885Y126494D01*
Y127132D01*
X-94129Y127722D01*
X-94581Y128174D01*
X-95171Y128418D01*
D02*
G37*
G36*
X31074Y128120D02*
X30318D01*
X29620Y127831D01*
X29085Y127297D01*
X28796Y126599D01*
Y125843D01*
X29085Y125144D01*
X29620Y124610D01*
X30318Y124320D01*
X31074D01*
X31772Y124610D01*
X32307Y125144D01*
X32596Y125843D01*
Y126599D01*
X32307Y127297D01*
X31772Y127831D01*
X31074Y128120D01*
D02*
G37*
G36*
X-83862Y126463D02*
X-84618D01*
X-85316Y126174D01*
X-85851Y125639D01*
X-86140Y124941D01*
Y124185D01*
X-85851Y123487D01*
X-85316Y122952D01*
X-84618Y122663D01*
X-83862D01*
X-83164Y122952D01*
X-82629Y123487D01*
X-82340Y124185D01*
Y124941D01*
X-82629Y125639D01*
X-83164Y126174D01*
X-83862Y126463D01*
D02*
G37*
G36*
X49888Y124463D02*
X49132D01*
X48434Y124174D01*
X47899Y123639D01*
X47610Y122941D01*
Y122185D01*
X47899Y121487D01*
X48434Y120952D01*
X49132Y120663D01*
X49888D01*
X50586Y120952D01*
X51121Y121487D01*
X51410Y122185D01*
Y122941D01*
X51121Y123639D01*
X50586Y124174D01*
X49888Y124463D01*
D02*
G37*
G36*
X-73612Y123463D02*
X-74368D01*
X-75066Y123174D01*
X-75601Y122639D01*
X-75890Y121941D01*
Y121185D01*
X-75601Y120487D01*
X-75066Y119952D01*
X-74368Y119663D01*
X-73612D01*
X-72914Y119952D01*
X-72379Y120487D01*
X-72090Y121185D01*
Y121941D01*
X-72379Y122639D01*
X-72914Y123174D01*
X-73612Y123463D01*
D02*
G37*
G36*
X-84862Y119963D02*
X-85618D01*
X-86316Y119674D01*
X-86851Y119139D01*
X-87140Y118441D01*
Y117685D01*
X-86851Y116987D01*
X-86316Y116452D01*
X-85618Y116163D01*
X-84862D01*
X-84164Y116452D01*
X-83629Y116987D01*
X-83340Y117685D01*
Y118441D01*
X-83629Y119139D01*
X-84164Y119674D01*
X-84862Y119963D01*
D02*
G37*
G36*
X35138Y117213D02*
X34382D01*
X33684Y116924D01*
X33149Y116389D01*
X32860Y115691D01*
X32860Y114935D01*
X32839Y114883D01*
X32835Y114875D01*
X31561Y114458D01*
X31433Y114577D01*
X31336Y114674D01*
X30638Y114963D01*
X29882D01*
X29184Y114674D01*
X28649Y114139D01*
X28360Y113441D01*
Y112685D01*
X28649Y111987D01*
X29184Y111452D01*
X29882Y111163D01*
X30638D01*
X31336Y111452D01*
X31871Y111987D01*
X32160Y112685D01*
X32160Y113441D01*
X32181Y113493D01*
X32185Y113501D01*
X33459Y113918D01*
X33587Y113799D01*
X33684Y113702D01*
X34382Y113413D01*
X35138D01*
X35836Y113702D01*
X36371Y114237D01*
X36660Y114935D01*
Y115691D01*
X36371Y116389D01*
X35836Y116924D01*
X35138Y117213D01*
D02*
G37*
G36*
X-31362Y117713D02*
X-32118D01*
X-32816Y117424D01*
X-33351Y116889D01*
X-33640Y116191D01*
Y115435D01*
X-33351Y114737D01*
X-32816Y114202D01*
X-32118Y113913D01*
X-31362D01*
X-30664Y114202D01*
X-30129Y114737D01*
X-29840Y115435D01*
Y116191D01*
X-30129Y116889D01*
X-30664Y117424D01*
X-31362Y117713D01*
D02*
G37*
G36*
X50388Y113713D02*
X49632D01*
X48934Y113424D01*
X48399Y112889D01*
X48110Y112191D01*
Y111435D01*
X48399Y110737D01*
X48934Y110202D01*
X49632Y109913D01*
X50388D01*
X51086Y110202D01*
X51621Y110737D01*
X51910Y111435D01*
Y112191D01*
X51621Y112889D01*
X51086Y113424D01*
X50388Y113713D01*
D02*
G37*
G36*
X-38671Y110418D02*
X-39309D01*
X-39899Y110174D01*
X-40351Y109722D01*
X-40428Y109536D01*
X-41039Y109060D01*
X-41865Y108927D01*
X-42028Y108994D01*
X-42667D01*
X-43257Y108750D01*
X-43708Y108299D01*
X-43953Y107709D01*
Y107070D01*
X-43708Y106480D01*
X-43257Y106029D01*
X-42667Y105784D01*
X-42028D01*
X-41438Y106029D01*
X-40987Y106480D01*
X-40910Y106667D01*
X-40411Y107054D01*
X-39804Y106865D01*
X-39095Y105882D01*
Y105244D01*
X-38851Y104654D01*
X-38399Y104202D01*
X-37809Y103958D01*
X-37171D01*
X-36581Y104202D01*
X-36129Y104654D01*
X-35885Y105244D01*
Y105882D01*
X-36129Y106472D01*
X-36581Y106924D01*
X-36745Y106992D01*
X-37232Y107493D01*
X-37408Y108438D01*
X-37385Y108494D01*
Y109132D01*
X-37629Y109722D01*
X-38081Y110174D01*
X-38671Y110418D01*
D02*
G37*
G36*
X21638Y110713D02*
X20882D01*
X20184Y110424D01*
X19649Y109889D01*
X19360Y109191D01*
Y108435D01*
X19649Y107737D01*
X20184Y107202D01*
X20882Y106913D01*
X21638D01*
X22336Y107202D01*
X22871Y107737D01*
X23160Y108435D01*
Y109191D01*
X22871Y109889D01*
X22336Y110424D01*
X21638Y110713D01*
D02*
G37*
G36*
X-107612D02*
X-108368D01*
X-109066Y110424D01*
X-109601Y109889D01*
X-109890Y109191D01*
Y108435D01*
X-109601Y107737D01*
X-109066Y107202D01*
X-108368Y106913D01*
X-107612D01*
X-106914Y107202D01*
X-106379Y107737D01*
X-106090Y108435D01*
Y109191D01*
X-106379Y109889D01*
X-106914Y110424D01*
X-107612Y110713D01*
D02*
G37*
G36*
X-88862Y107213D02*
X-89618D01*
X-90316Y106924D01*
X-90851Y106389D01*
X-91140Y105691D01*
Y104935D01*
X-90851Y104237D01*
X-90316Y103702D01*
X-89618Y103413D01*
X-88862D01*
X-88164Y103702D01*
X-87629Y104237D01*
X-87340Y104935D01*
Y105691D01*
X-87629Y106389D01*
X-88164Y106924D01*
X-88862Y107213D01*
D02*
G37*
G36*
X-43520Y104007D02*
X-44158D01*
X-44748Y103763D01*
X-45187Y103324D01*
X-45200Y103312D01*
X-45801Y102706D01*
X-46671Y102668D01*
X-46714Y102668D01*
X-47309D01*
X-47899Y102424D01*
X-48351Y101972D01*
X-48448Y101737D01*
X-48820Y101324D01*
X-49865Y101054D01*
X-49871Y101057D01*
X-50509D01*
X-51099Y100812D01*
X-51550Y100361D01*
X-51795Y99771D01*
Y99132D01*
X-51550Y98542D01*
X-51099Y98091D01*
X-50509Y97847D01*
X-49871D01*
X-49281Y98091D01*
X-48829Y98542D01*
X-47558Y98632D01*
X-47046Y98275D01*
X-47045Y98271D01*
X-47045Y98271D01*
X-47045Y98188D01*
Y97632D01*
X-46800Y97043D01*
X-46349Y96591D01*
X-45759Y96347D01*
X-45121D01*
X-44531Y96591D01*
X-44079Y97043D01*
X-43835Y97632D01*
Y98271D01*
X-44079Y98861D01*
X-44531Y99312D01*
X-44406Y100532D01*
X-44402Y100551D01*
X-44158Y100797D01*
X-44115Y100797D01*
X-43520D01*
X-42930Y101042D01*
X-42478Y101493D01*
X-42234Y102083D01*
Y102722D01*
X-42478Y103311D01*
X-42930Y103763D01*
X-43520Y104007D01*
D02*
G37*
G36*
X8388Y103713D02*
X7632D01*
X6934Y103424D01*
X6399Y102889D01*
X6110Y102191D01*
Y101435D01*
X6399Y100737D01*
X6934Y100202D01*
X7632Y99913D01*
X8388D01*
X9086Y100202D01*
X9621Y100737D01*
X9910Y101435D01*
Y102191D01*
X9621Y102889D01*
X9086Y103424D01*
X8388Y103713D01*
D02*
G37*
G36*
X22888Y103463D02*
X22132D01*
X21434Y103174D01*
X20899Y102639D01*
X20610Y101941D01*
Y101185D01*
X20899Y100487D01*
X21434Y99952D01*
X22132Y99663D01*
X22888D01*
X23586Y99952D01*
X24121Y100487D01*
X24410Y101185D01*
Y101941D01*
X24121Y102639D01*
X23586Y103174D01*
X22888Y103463D01*
D02*
G37*
G36*
X-114112D02*
X-114868D01*
X-115566Y103174D01*
X-116101Y102639D01*
X-116390Y101941D01*
Y101185D01*
X-116101Y100487D01*
X-115566Y99952D01*
X-114868Y99663D01*
X-114112D01*
X-113414Y99952D01*
X-112879Y100487D01*
X-112590Y101185D01*
Y101941D01*
X-112879Y102639D01*
X-113414Y103174D01*
X-114112Y103463D01*
D02*
G37*
G36*
X-12862Y100463D02*
X-13618D01*
X-14316Y100174D01*
X-14851Y99639D01*
X-15140Y98941D01*
Y98185D01*
X-14851Y97487D01*
X-14316Y96952D01*
X-13618Y96663D01*
X-12862D01*
X-12164Y96952D01*
X-11629Y97487D01*
X-11340Y98185D01*
Y98941D01*
X-11629Y99639D01*
X-12164Y100174D01*
X-12862Y100463D01*
D02*
G37*
G36*
X-58925Y100111D02*
X-59681D01*
X-60379Y99821D01*
X-60914Y99287D01*
X-61203Y98588D01*
Y97833D01*
X-60914Y97134D01*
X-60379Y96600D01*
X-59681Y96311D01*
X-58925D01*
X-58227Y96600D01*
X-57692Y97134D01*
X-57403Y97833D01*
Y98588D01*
X-57692Y99287D01*
X-58227Y99821D01*
X-58925Y100111D01*
D02*
G37*
G36*
X-106862Y99713D02*
X-107618D01*
X-108316Y99424D01*
X-108851Y98889D01*
X-109140Y98191D01*
Y97435D01*
X-108851Y96737D01*
X-108316Y96202D01*
X-107618Y95913D01*
X-106862D01*
X-106164Y96202D01*
X-105629Y96737D01*
X-105340Y97435D01*
Y98191D01*
X-105629Y98889D01*
X-106164Y99424D01*
X-106862Y99713D01*
D02*
G37*
G36*
X-40591Y98069D02*
X-41230D01*
X-41820Y97824D01*
X-42271Y97373D01*
X-42516Y96783D01*
Y96145D01*
X-42271Y95555D01*
X-41820Y95103D01*
X-41230Y94859D01*
X-40591D01*
X-40001Y95103D01*
X-39550Y95555D01*
X-39306Y96145D01*
Y96783D01*
X-39550Y97373D01*
X-40001Y97824D01*
X-40591Y98069D01*
D02*
G37*
G36*
X-103473Y94017D02*
X-104229D01*
X-104927Y93728D01*
X-105461Y93193D01*
X-105751Y92495D01*
Y91739D01*
X-105461Y91041D01*
X-104927Y90506D01*
X-104229Y90217D01*
X-103473D01*
X-102774Y90506D01*
X-102240Y91041D01*
X-101951Y91739D01*
Y92495D01*
X-102240Y93193D01*
X-102774Y93728D01*
X-103473Y94017D01*
D02*
G37*
G36*
X-54499Y91061D02*
X-55255D01*
X-55953Y90772D01*
X-56487Y90237D01*
X-56777Y89539D01*
Y88783D01*
X-56487Y88085D01*
X-55953Y87550D01*
X-55255Y87261D01*
X-54499D01*
X-53800Y87550D01*
X-53266Y88085D01*
X-52977Y88783D01*
Y89539D01*
X-53266Y90237D01*
X-53800Y90772D01*
X-54499Y91061D01*
D02*
G37*
G36*
X-82862Y88713D02*
X-83618D01*
X-84316Y88424D01*
X-84851Y87889D01*
X-85140Y87191D01*
Y86435D01*
X-84851Y85737D01*
X-84316Y85202D01*
X-83618Y84913D01*
X-82862D01*
X-82164Y85202D01*
X-81629Y85737D01*
X-81340Y86435D01*
Y87191D01*
X-81629Y87889D01*
X-82164Y88424D01*
X-82862Y88713D01*
D02*
G37*
G36*
X-43612Y88463D02*
X-44368D01*
X-45066Y88174D01*
X-45601Y87639D01*
X-45890Y86941D01*
Y86185D01*
X-45601Y85487D01*
X-45066Y84952D01*
X-44368Y84663D01*
X-43612D01*
X-42914Y84952D01*
X-42379Y85487D01*
X-42090Y86185D01*
Y86941D01*
X-42379Y87639D01*
X-42914Y88174D01*
X-43612Y88463D01*
D02*
G37*
G36*
X-108357Y87738D02*
X-109123D01*
X-109830Y87445D01*
X-110372Y86903D01*
X-110665Y86196D01*
Y85430D01*
X-110372Y84723D01*
X-109830Y84181D01*
X-109123Y83888D01*
X-108357D01*
X-107650Y84181D01*
X-107108Y84723D01*
X-106815Y85430D01*
Y86196D01*
X-107108Y86903D01*
X-107650Y87445D01*
X-108357Y87738D01*
D02*
G37*
G36*
X-101612Y86963D02*
X-102368D01*
X-103066Y86674D01*
X-103601Y86139D01*
X-103890Y85441D01*
Y84685D01*
X-103601Y83987D01*
X-103066Y83452D01*
X-102368Y83163D01*
X-101612D01*
X-100914Y83452D01*
X-100379Y83987D01*
X-100090Y84685D01*
Y85441D01*
X-100379Y86139D01*
X-100914Y86674D01*
X-101612Y86963D01*
D02*
G37*
G36*
X-57612Y84213D02*
X-58368D01*
X-59066Y83924D01*
X-59601Y83389D01*
X-59890Y82691D01*
Y81935D01*
X-59601Y81237D01*
X-59066Y80702D01*
X-58368Y80413D01*
X-57612D01*
X-56914Y80702D01*
X-56379Y81237D01*
X-56090Y81935D01*
Y82691D01*
X-56379Y83389D01*
X-56914Y83924D01*
X-57612Y84213D01*
D02*
G37*
G36*
X-40862Y82963D02*
X-41618D01*
X-42316Y82674D01*
X-42851Y82139D01*
X-43140Y81441D01*
Y80685D01*
X-42851Y79987D01*
X-42316Y79452D01*
X-41618Y79163D01*
X-40862D01*
X-40164Y79452D01*
X-39629Y79987D01*
X-39340Y80685D01*
Y81441D01*
X-39629Y82139D01*
X-40164Y82674D01*
X-40862Y82963D01*
D02*
G37*
G36*
X-24362Y78963D02*
X-25118D01*
X-25816Y78674D01*
X-26351Y78139D01*
X-26640Y77441D01*
Y76685D01*
X-26351Y75987D01*
X-25816Y75452D01*
X-25118Y75163D01*
X-24362D01*
X-23664Y75452D01*
X-23129Y75987D01*
X-22840Y76685D01*
Y77441D01*
X-23129Y78139D01*
X-23664Y78674D01*
X-24362Y78963D01*
D02*
G37*
G36*
X-33047Y74531D02*
X-33803D01*
X-34502Y74242D01*
X-35036Y73707D01*
X-35325Y73009D01*
Y72253D01*
X-35036Y71555D01*
X-34502Y71020D01*
X-33803Y70731D01*
X-33047D01*
X-32349Y71020D01*
X-31814Y71555D01*
X-31525Y72253D01*
Y73009D01*
X-31814Y73707D01*
X-32349Y74242D01*
X-33047Y74531D01*
D02*
G37*
G36*
X-72607Y56988D02*
X-73373D01*
X-74080Y56695D01*
X-74622Y56153D01*
X-74915Y55446D01*
Y54680D01*
X-74622Y53973D01*
X-74080Y53431D01*
X-73373Y53138D01*
X-72607D01*
X-71900Y53431D01*
X-71358Y53973D01*
X-71065Y54680D01*
Y55446D01*
X-71358Y56153D01*
X-71900Y56695D01*
X-72607Y56988D01*
D02*
G37*
G36*
X38638Y-48907D02*
X37882D01*
X37184Y-49196D01*
X36649Y-49731D01*
X36360Y-50429D01*
Y-51185D01*
X36649Y-51883D01*
X37184Y-52418D01*
X37882Y-52707D01*
X38638D01*
X39336Y-52418D01*
X39871Y-51883D01*
X40160Y-51185D01*
Y-50429D01*
X39871Y-49731D01*
X39336Y-49196D01*
X38638Y-48907D01*
D02*
G37*
G36*
X134260Y-48407D02*
X132030D01*
Y-53287D01*
X140157D01*
X139942Y-52203D01*
X138609Y-50208D01*
X136613Y-48875D01*
X134260Y-48407D01*
D02*
G37*
G36*
X129490D02*
X127260D01*
X124906Y-48875D01*
X122911Y-50208D01*
X121578Y-52203D01*
X121362Y-53287D01*
X129490D01*
Y-48407D01*
D02*
G37*
G36*
X54388Y-51657D02*
X53632D01*
X52934Y-51946D01*
X52399Y-52481D01*
X52110Y-53179D01*
Y-53935D01*
X52399Y-54633D01*
X52934Y-55168D01*
X53632Y-55457D01*
X54388D01*
X55086Y-55168D01*
X55621Y-54633D01*
X55910Y-53935D01*
Y-53179D01*
X55621Y-52481D01*
X55086Y-51946D01*
X54388Y-51657D01*
D02*
G37*
G36*
X29638Y-58657D02*
X28882D01*
X28184Y-58946D01*
X27649Y-59481D01*
X27360Y-60179D01*
X26090Y-60700D01*
X26086Y-60696D01*
X25388Y-60407D01*
X24632D01*
X23934Y-60696D01*
X23399Y-61231D01*
X23110Y-61929D01*
Y-62685D01*
X23399Y-63383D01*
X23934Y-63918D01*
X24632Y-64207D01*
X25087D01*
X25256Y-64207D01*
X25563Y-64777D01*
X25750Y-65380D01*
X25637Y-65493D01*
X25399Y-65731D01*
X25110Y-66429D01*
Y-67185D01*
X25399Y-67883D01*
X25934Y-68418D01*
X26632Y-68707D01*
X27388D01*
X28086Y-68418D01*
X28621Y-67883D01*
X28910Y-67185D01*
Y-66429D01*
X28621Y-65731D01*
X28086Y-65196D01*
X27388Y-64907D01*
X26933D01*
X26764Y-64907D01*
X26456Y-64337D01*
X26270Y-63734D01*
X26383Y-63621D01*
X26621Y-63383D01*
X26910Y-62685D01*
X28180Y-62164D01*
X28184Y-62168D01*
X28882Y-62457D01*
X29638D01*
X30336Y-62168D01*
X30871Y-61633D01*
X31160Y-60935D01*
Y-60179D01*
X30871Y-59481D01*
X30336Y-58946D01*
X29638Y-58657D01*
D02*
G37*
G36*
X9138Y-58907D02*
X8382D01*
X7684Y-59196D01*
X7149Y-59731D01*
X6860Y-60429D01*
Y-61185D01*
X7149Y-61883D01*
X7684Y-62418D01*
X8382Y-62707D01*
X9138D01*
X9836Y-62418D01*
X10371Y-61883D01*
X10660Y-61185D01*
Y-60429D01*
X10371Y-59731D01*
X9836Y-59196D01*
X9138Y-58907D01*
D02*
G37*
G36*
X-22612Y-62907D02*
X-23368D01*
X-24066Y-63196D01*
X-24601Y-63731D01*
X-24890Y-64429D01*
Y-65185D01*
X-24601Y-65883D01*
X-24066Y-66418D01*
X-23368Y-66707D01*
X-22612D01*
X-21914Y-66418D01*
X-21379Y-65883D01*
X-21090Y-65185D01*
Y-64429D01*
X-21379Y-63731D01*
X-21914Y-63196D01*
X-22612Y-62907D01*
D02*
G37*
G36*
X-58Y-63293D02*
X-814D01*
X-1513Y-63583D01*
X-2047Y-64117D01*
X-2336Y-64816D01*
Y-65571D01*
X-2047Y-66270D01*
X-1513Y-66804D01*
X-814Y-67093D01*
X-58D01*
X640Y-66804D01*
X1174Y-66270D01*
X1464Y-65571D01*
Y-64816D01*
X1174Y-64117D01*
X640Y-63583D01*
X-58Y-63293D01*
D02*
G37*
G36*
X13388Y-63907D02*
X12632D01*
X11934Y-64196D01*
X11399Y-64731D01*
X11110Y-65429D01*
Y-66185D01*
X11399Y-66883D01*
X11934Y-67418D01*
X12632Y-67707D01*
X13388D01*
X14086Y-67418D01*
X14621Y-66883D01*
X14910Y-66185D01*
Y-65429D01*
X14621Y-64731D01*
X14086Y-64196D01*
X13388Y-63907D01*
D02*
G37*
G36*
X34638Y-64407D02*
X33882D01*
X33184Y-64696D01*
X32649Y-65231D01*
X32360Y-65929D01*
Y-66685D01*
X32649Y-67383D01*
X33184Y-67918D01*
X33882Y-68207D01*
X34638D01*
X35336Y-67918D01*
X35871Y-67383D01*
X36160Y-66685D01*
Y-65929D01*
X35871Y-65231D01*
X35336Y-64696D01*
X34638Y-64407D01*
D02*
G37*
G36*
X140157Y-55827D02*
X130760D01*
X121362D01*
X121578Y-56910D01*
X122911Y-58906D01*
X124906Y-60239D01*
X125122Y-60282D01*
X125175Y-60424D01*
X125257Y-61603D01*
X124088Y-62384D01*
X123115Y-63840D01*
X122774Y-65557D01*
X123115Y-67273D01*
X124088Y-68729D01*
X125543Y-69701D01*
X127260Y-70043D01*
X134260D01*
X135977Y-69701D01*
X137432Y-68729D01*
X138405Y-67273D01*
X138746Y-65557D01*
X138405Y-63840D01*
X137432Y-62384D01*
X136263Y-61603D01*
X136344Y-60424D01*
X136397Y-60282D01*
X136613Y-60239D01*
X138609Y-58906D01*
X139942Y-56910D01*
X140157Y-55827D01*
D02*
G37*
G36*
X-31362Y-67157D02*
X-32118D01*
X-32816Y-67446D01*
X-33351Y-67981D01*
X-33640Y-68679D01*
Y-69435D01*
X-33351Y-70133D01*
X-32816Y-70668D01*
X-32118Y-70957D01*
X-31362D01*
X-30664Y-70668D01*
X-30129Y-70133D01*
X-29840Y-69435D01*
Y-68679D01*
X-30129Y-67981D01*
X-30664Y-67446D01*
X-31362Y-67157D01*
D02*
G37*
G36*
X49388Y-68657D02*
X48632D01*
X47934Y-68946D01*
X47399Y-69481D01*
X47110Y-70179D01*
Y-70935D01*
X47399Y-71633D01*
X47934Y-72168D01*
X48632Y-72457D01*
X49388D01*
X50086Y-72168D01*
X50621Y-71633D01*
X50910Y-70935D01*
Y-70179D01*
X50621Y-69481D01*
X50086Y-68946D01*
X49388Y-68657D01*
D02*
G37*
G36*
X65388Y-72907D02*
X64632D01*
X63934Y-73196D01*
X63399Y-73731D01*
X63110Y-74429D01*
Y-75185D01*
X63399Y-75883D01*
X63934Y-76418D01*
X64632Y-76707D01*
X65388D01*
X66086Y-76418D01*
X66621Y-75883D01*
X66910Y-75185D01*
Y-74429D01*
X66621Y-73731D01*
X66086Y-73196D01*
X65388Y-72907D01*
D02*
G37*
G36*
X-19362Y-74907D02*
X-20118D01*
X-20816Y-75196D01*
X-21351Y-75731D01*
X-21640Y-76429D01*
Y-77185D01*
X-21351Y-77883D01*
X-20816Y-78418D01*
X-20118Y-78707D01*
X-19362D01*
X-18664Y-78418D01*
X-18129Y-77883D01*
X-17840Y-77185D01*
Y-76429D01*
X-18129Y-75731D01*
X-18664Y-75196D01*
X-19362Y-74907D01*
D02*
G37*
G36*
X134260Y-72071D02*
X127260D01*
X125543Y-72412D01*
X124088Y-73385D01*
X123115Y-74840D01*
X122774Y-76557D01*
X123115Y-78274D01*
X124088Y-79729D01*
X125543Y-80702D01*
X127260Y-81043D01*
X134260D01*
X135977Y-80702D01*
X137432Y-79729D01*
X138405Y-78274D01*
X138746Y-76557D01*
X138405Y-74840D01*
X137432Y-73385D01*
X135977Y-72412D01*
X134260Y-72071D01*
D02*
G37*
G36*
X34138Y-78657D02*
X33382D01*
X32684Y-78946D01*
X32149Y-79481D01*
X31860Y-80179D01*
Y-80935D01*
X32149Y-81633D01*
X32684Y-82168D01*
X33382Y-82457D01*
X34138D01*
X34836Y-82168D01*
X35371Y-81633D01*
X35660Y-80935D01*
Y-80179D01*
X35371Y-79481D01*
X34836Y-78946D01*
X34138Y-78657D01*
D02*
G37*
G36*
X-28362Y-79157D02*
X-29118D01*
X-29816Y-79446D01*
X-30351Y-79981D01*
X-30640Y-80679D01*
Y-81435D01*
X-30351Y-82133D01*
X-29816Y-82668D01*
X-29118Y-82957D01*
X-28362D01*
X-27664Y-82668D01*
X-27129Y-82133D01*
X-26840Y-81435D01*
Y-80679D01*
X-27129Y-79981D01*
X-27664Y-79446D01*
X-28362Y-79157D01*
D02*
G37*
G36*
X20388Y-79657D02*
X19632D01*
X18934Y-79946D01*
X18399Y-80481D01*
X18110Y-81179D01*
Y-81935D01*
X18399Y-82633D01*
X18934Y-83168D01*
X19632Y-83457D01*
X20388D01*
X21086Y-83168D01*
X21621Y-82633D01*
X21910Y-81935D01*
Y-81179D01*
X21621Y-80481D01*
X21086Y-79946D01*
X20388Y-79657D01*
D02*
G37*
G36*
X-38112Y-80907D02*
X-38868D01*
X-39566Y-81196D01*
X-40101Y-81731D01*
X-40390Y-82429D01*
Y-83185D01*
X-40101Y-83883D01*
X-39566Y-84418D01*
X-38868Y-84707D01*
X-38112D01*
X-37414Y-84418D01*
X-36879Y-83883D01*
X-36590Y-83185D01*
Y-82429D01*
X-36879Y-81731D01*
X-37414Y-81196D01*
X-38112Y-80907D01*
D02*
G37*
G36*
X-42862Y-87907D02*
X-43618D01*
X-44316Y-88196D01*
X-44851Y-88731D01*
X-45140Y-89429D01*
Y-90185D01*
X-44851Y-90883D01*
X-44316Y-91418D01*
X-43618Y-91707D01*
X-42862D01*
X-42164Y-91418D01*
X-41629Y-90883D01*
X-41340Y-90185D01*
Y-89429D01*
X-41629Y-88731D01*
X-42164Y-88196D01*
X-42862Y-87907D01*
D02*
G37*
G36*
X134260Y-83071D02*
X127260D01*
X125543Y-83412D01*
X124088Y-84385D01*
X123115Y-85840D01*
X122774Y-87557D01*
X123115Y-89274D01*
X124088Y-90729D01*
X125543Y-91702D01*
X127260Y-92043D01*
X134260D01*
X135977Y-91702D01*
X137432Y-90729D01*
X138405Y-89274D01*
X138746Y-87557D01*
X138405Y-85840D01*
X137432Y-84385D01*
X135977Y-83412D01*
X134260Y-83071D01*
D02*
G37*
G36*
X24726Y-88620D02*
X23970D01*
X23272Y-88910D01*
X22737Y-89444D01*
X22448Y-90142D01*
Y-90898D01*
X22737Y-91596D01*
X23272Y-92131D01*
X23970Y-92420D01*
X24726D01*
X25424Y-92131D01*
X25959Y-91596D01*
X26248Y-90898D01*
Y-90142D01*
X25959Y-89444D01*
X25424Y-88910D01*
X24726Y-88620D01*
D02*
G37*
G36*
X-64090Y-89588D02*
X-64846D01*
X-65544Y-89877D01*
X-66079Y-90412D01*
X-66368Y-91110D01*
Y-91866D01*
X-66079Y-92564D01*
X-65544Y-93099D01*
X-64846Y-93388D01*
X-64090D01*
X-63392Y-93099D01*
X-62857Y-92564D01*
X-62568Y-91866D01*
Y-91110D01*
X-62857Y-90412D01*
X-63392Y-89877D01*
X-64090Y-89588D01*
D02*
G37*
G36*
X97638Y-90907D02*
X96882D01*
X96184Y-91196D01*
X95649Y-91731D01*
X95360Y-92429D01*
Y-93185D01*
X95649Y-93883D01*
X96184Y-94418D01*
X96882Y-94707D01*
X97638D01*
X98336Y-94418D01*
X98871Y-93883D01*
X99160Y-93185D01*
Y-92429D01*
X98871Y-91731D01*
X98336Y-91196D01*
X97638Y-90907D01*
D02*
G37*
G36*
X-59770Y-98608D02*
X-60526D01*
X-61224Y-98898D01*
X-61759Y-99432D01*
X-62048Y-100130D01*
Y-100886D01*
X-61759Y-101585D01*
X-61224Y-102119D01*
X-60526Y-102408D01*
X-59770D01*
X-59072Y-102119D01*
X-58537Y-101585D01*
X-58248Y-100886D01*
Y-100130D01*
X-58537Y-99432D01*
X-59072Y-98898D01*
X-59770Y-98608D01*
D02*
G37*
G36*
X134260Y-94071D02*
X127260D01*
X125543Y-94412D01*
X124088Y-95385D01*
X123115Y-96840D01*
X122774Y-98557D01*
X123115Y-100274D01*
X124088Y-101729D01*
X125543Y-102702D01*
X127260Y-103043D01*
X134260D01*
X135977Y-102702D01*
X137432Y-101729D01*
X138405Y-100274D01*
X138746Y-98557D01*
X138405Y-96840D01*
X137432Y-95385D01*
X135977Y-94412D01*
X134260Y-94071D01*
D02*
G37*
G36*
X-42862Y-100657D02*
X-43618D01*
X-44316Y-100946D01*
X-44851Y-101481D01*
X-45140Y-102179D01*
Y-102935D01*
X-44851Y-103633D01*
X-44316Y-104168D01*
X-43618Y-104457D01*
X-42862D01*
X-42164Y-104168D01*
X-41629Y-103633D01*
X-41340Y-102935D01*
Y-102179D01*
X-41629Y-101481D01*
X-42164Y-100946D01*
X-42862Y-100657D01*
D02*
G37*
G36*
X-95171Y-101452D02*
X-95809D01*
X-96399Y-101696D01*
X-96851Y-102148D01*
X-97095Y-102738D01*
Y-103376D01*
X-96851Y-103966D01*
X-96399Y-104418D01*
X-95809Y-104662D01*
X-95171D01*
X-94581Y-104418D01*
X-94129Y-103966D01*
X-93885Y-103376D01*
Y-102738D01*
X-94129Y-102148D01*
X-94581Y-101696D01*
X-95171Y-101452D01*
D02*
G37*
G36*
X31095Y-102483D02*
X30340D01*
X29641Y-102772D01*
X29107Y-103307D01*
X28818Y-104005D01*
Y-104761D01*
X29107Y-105459D01*
X29641Y-105994D01*
X30340Y-106283D01*
X31095D01*
X31794Y-105994D01*
X32328Y-105459D01*
X32617Y-104761D01*
Y-104005D01*
X32328Y-103307D01*
X31794Y-102772D01*
X31095Y-102483D01*
D02*
G37*
G36*
X-83862Y-103407D02*
X-84618D01*
X-85316Y-103696D01*
X-85851Y-104231D01*
X-86140Y-104929D01*
Y-105685D01*
X-85851Y-106383D01*
X-85316Y-106918D01*
X-84618Y-107207D01*
X-83862D01*
X-83164Y-106918D01*
X-82629Y-106383D01*
X-82340Y-105685D01*
Y-104929D01*
X-82629Y-104231D01*
X-83164Y-103696D01*
X-83862Y-103407D01*
D02*
G37*
G36*
X49888Y-105407D02*
X49132D01*
X48434Y-105696D01*
X47899Y-106231D01*
X47610Y-106929D01*
Y-107685D01*
X47899Y-108383D01*
X48434Y-108918D01*
X49132Y-109207D01*
X49888D01*
X50586Y-108918D01*
X51121Y-108383D01*
X51410Y-107685D01*
Y-106929D01*
X51121Y-106231D01*
X50586Y-105696D01*
X49888Y-105407D01*
D02*
G37*
G36*
X-73612Y-106407D02*
X-74368D01*
X-75066Y-106696D01*
X-75601Y-107231D01*
X-75890Y-107929D01*
Y-108685D01*
X-75601Y-109383D01*
X-75066Y-109918D01*
X-74368Y-110207D01*
X-73612D01*
X-72914Y-109918D01*
X-72379Y-109383D01*
X-72090Y-108685D01*
Y-107929D01*
X-72379Y-107231D01*
X-72914Y-106696D01*
X-73612Y-106407D01*
D02*
G37*
G36*
X-84862Y-109907D02*
X-85618D01*
X-86316Y-110196D01*
X-86851Y-110731D01*
X-87140Y-111429D01*
Y-112185D01*
X-86851Y-112883D01*
X-86316Y-113418D01*
X-85618Y-113707D01*
X-84862D01*
X-84164Y-113418D01*
X-83629Y-112883D01*
X-83340Y-112185D01*
Y-111429D01*
X-83629Y-110731D01*
X-84164Y-110196D01*
X-84862Y-109907D01*
D02*
G37*
G36*
X35138Y-112657D02*
X34382D01*
X33684Y-112946D01*
X33149Y-113481D01*
X32860Y-114179D01*
X32860Y-114935D01*
X32839Y-114987D01*
X32835Y-114995D01*
X31561Y-115412D01*
X31433Y-115293D01*
X31336Y-115196D01*
X30638Y-114907D01*
X29882D01*
X29184Y-115196D01*
X28649Y-115731D01*
X28360Y-116429D01*
Y-117185D01*
X28649Y-117883D01*
X29184Y-118418D01*
X29882Y-118707D01*
X30638D01*
X31336Y-118418D01*
X31871Y-117883D01*
X32160Y-117185D01*
X32160Y-116429D01*
X32181Y-116377D01*
X32185Y-116369D01*
X33459Y-115952D01*
X33587Y-116071D01*
X33684Y-116168D01*
X34382Y-116457D01*
X35138D01*
X35836Y-116168D01*
X36371Y-115633D01*
X36660Y-114935D01*
Y-114179D01*
X36371Y-113481D01*
X35836Y-112946D01*
X35138Y-112657D01*
D02*
G37*
G36*
X-31362Y-112157D02*
X-32118D01*
X-32816Y-112446D01*
X-33351Y-112981D01*
X-33640Y-113679D01*
Y-114435D01*
X-33351Y-115133D01*
X-32816Y-115668D01*
X-32118Y-115957D01*
X-31362D01*
X-30664Y-115668D01*
X-30129Y-115133D01*
X-29840Y-114435D01*
Y-113679D01*
X-30129Y-112981D01*
X-30664Y-112446D01*
X-31362Y-112157D01*
D02*
G37*
G36*
X50388Y-116157D02*
X49632D01*
X48934Y-116446D01*
X48399Y-116981D01*
X48110Y-117679D01*
Y-118435D01*
X48399Y-119133D01*
X48934Y-119668D01*
X49632Y-119957D01*
X50388D01*
X51086Y-119668D01*
X51621Y-119133D01*
X51910Y-118435D01*
Y-117679D01*
X51621Y-116981D01*
X51086Y-116446D01*
X50388Y-116157D01*
D02*
G37*
G36*
X-38671Y-119452D02*
X-39309D01*
X-39899Y-119696D01*
X-40351Y-120148D01*
X-40428Y-120335D01*
X-41039Y-120810D01*
X-41865Y-120943D01*
X-42028Y-120876D01*
X-42667D01*
X-43257Y-121120D01*
X-43708Y-121572D01*
X-43953Y-122162D01*
Y-122800D01*
X-43708Y-123390D01*
X-43257Y-123841D01*
X-42667Y-124086D01*
X-42028D01*
X-41438Y-123841D01*
X-40987Y-123390D01*
X-40910Y-123203D01*
X-40411Y-122816D01*
X-39804Y-123005D01*
X-39095Y-123988D01*
Y-124626D01*
X-38851Y-125216D01*
X-38399Y-125668D01*
X-37809Y-125912D01*
X-37171D01*
X-36581Y-125668D01*
X-36129Y-125216D01*
X-35885Y-124626D01*
Y-123988D01*
X-36129Y-123398D01*
X-36581Y-122946D01*
X-36745Y-122878D01*
X-37232Y-122376D01*
X-37408Y-121432D01*
X-37385Y-121376D01*
Y-120738D01*
X-37629Y-120148D01*
X-38081Y-119696D01*
X-38671Y-119452D01*
D02*
G37*
G36*
X21638Y-119157D02*
X20882D01*
X20184Y-119446D01*
X19649Y-119981D01*
X19360Y-120679D01*
Y-121435D01*
X19649Y-122133D01*
X20184Y-122668D01*
X20882Y-122957D01*
X21638D01*
X22336Y-122668D01*
X22871Y-122133D01*
X23160Y-121435D01*
Y-120679D01*
X22871Y-119981D01*
X22336Y-119446D01*
X21638Y-119157D01*
D02*
G37*
G36*
X-107612D02*
X-108368D01*
X-109066Y-119446D01*
X-109601Y-119981D01*
X-109890Y-120679D01*
Y-121435D01*
X-109601Y-122133D01*
X-109066Y-122668D01*
X-108368Y-122957D01*
X-107612D01*
X-106914Y-122668D01*
X-106379Y-122133D01*
X-106090Y-121435D01*
Y-120679D01*
X-106379Y-119981D01*
X-106914Y-119446D01*
X-107612Y-119157D01*
D02*
G37*
G36*
X-88862Y-122657D02*
X-89618D01*
X-90316Y-122946D01*
X-90851Y-123481D01*
X-91140Y-124179D01*
Y-124935D01*
X-90851Y-125633D01*
X-90316Y-126168D01*
X-89618Y-126457D01*
X-88862D01*
X-88164Y-126168D01*
X-87629Y-125633D01*
X-87340Y-124935D01*
Y-124179D01*
X-87629Y-123481D01*
X-88164Y-122946D01*
X-88862Y-122657D01*
D02*
G37*
G36*
X-43520Y-125863D02*
X-44158D01*
X-44748Y-126107D01*
X-45138Y-126497D01*
X-45214Y-126568D01*
X-45855Y-126990D01*
X-46585Y-127054D01*
X-46675Y-127054D01*
X-47224D01*
X-47814Y-127299D01*
X-48265Y-127750D01*
X-48427Y-128141D01*
X-48674Y-128406D01*
X-49779Y-128851D01*
X-49871Y-128813D01*
X-50509D01*
X-51099Y-129058D01*
X-51550Y-129509D01*
X-51795Y-130099D01*
Y-130738D01*
X-51550Y-131328D01*
X-51099Y-131779D01*
X-50509Y-132023D01*
X-49871D01*
X-49281Y-131779D01*
X-48829Y-131328D01*
X-47494Y-131196D01*
X-47027Y-131480D01*
X-47018Y-131534D01*
X-47045Y-131599D01*
Y-132238D01*
X-46800Y-132828D01*
X-46349Y-133279D01*
X-45759Y-133523D01*
X-45121D01*
X-44531Y-133279D01*
X-44079Y-132828D01*
X-43835Y-132238D01*
Y-131599D01*
X-44079Y-131009D01*
X-44531Y-130558D01*
X-44676Y-130497D01*
X-44698Y-130474D01*
X-44724Y-130290D01*
X-44323Y-129216D01*
X-44209Y-129117D01*
X-44086Y-129073D01*
X-43520D01*
X-42930Y-128828D01*
X-42478Y-128377D01*
X-42234Y-127787D01*
Y-127149D01*
X-42478Y-126559D01*
X-42930Y-126107D01*
X-43520Y-125863D01*
D02*
G37*
G36*
X8388Y-126157D02*
X7632D01*
X6934Y-126446D01*
X6399Y-126981D01*
X6110Y-127679D01*
Y-128435D01*
X6399Y-129133D01*
X6934Y-129668D01*
X7632Y-129957D01*
X8388D01*
X9086Y-129668D01*
X9621Y-129133D01*
X9910Y-128435D01*
Y-127679D01*
X9621Y-126981D01*
X9086Y-126446D01*
X8388Y-126157D01*
D02*
G37*
G36*
X22888Y-126407D02*
X22132D01*
X21434Y-126696D01*
X20899Y-127231D01*
X20610Y-127929D01*
Y-128685D01*
X20899Y-129383D01*
X21434Y-129918D01*
X22132Y-130207D01*
X22888D01*
X23586Y-129918D01*
X24121Y-129383D01*
X24410Y-128685D01*
Y-127929D01*
X24121Y-127231D01*
X23586Y-126696D01*
X22888Y-126407D01*
D02*
G37*
G36*
X-114112D02*
X-114868D01*
X-115566Y-126696D01*
X-116101Y-127231D01*
X-116390Y-127929D01*
Y-128685D01*
X-116101Y-129383D01*
X-115566Y-129918D01*
X-114868Y-130207D01*
X-114112D01*
X-113414Y-129918D01*
X-112879Y-129383D01*
X-112590Y-128685D01*
Y-127929D01*
X-112879Y-127231D01*
X-113414Y-126696D01*
X-114112Y-126407D01*
D02*
G37*
G36*
X-12862Y-129407D02*
X-13618D01*
X-14316Y-129696D01*
X-14851Y-130231D01*
X-15140Y-130929D01*
Y-131685D01*
X-14851Y-132383D01*
X-14316Y-132918D01*
X-13618Y-133207D01*
X-12862D01*
X-12164Y-132918D01*
X-11629Y-132383D01*
X-11340Y-131685D01*
Y-130929D01*
X-11629Y-130231D01*
X-12164Y-129696D01*
X-12862Y-129407D01*
D02*
G37*
G36*
X-58925Y-129759D02*
X-59681D01*
X-60379Y-130049D01*
X-60914Y-130583D01*
X-61203Y-131281D01*
Y-132037D01*
X-60914Y-132736D01*
X-60379Y-133270D01*
X-59681Y-133559D01*
X-58925D01*
X-58227Y-133270D01*
X-57692Y-132736D01*
X-57403Y-132037D01*
Y-131281D01*
X-57692Y-130583D01*
X-58227Y-130049D01*
X-58925Y-129759D01*
D02*
G37*
G36*
X-106862Y-130157D02*
X-107618D01*
X-108316Y-130446D01*
X-108851Y-130981D01*
X-109140Y-131679D01*
Y-132435D01*
X-108851Y-133133D01*
X-108316Y-133668D01*
X-107618Y-133957D01*
X-106862D01*
X-106164Y-133668D01*
X-105629Y-133133D01*
X-105340Y-132435D01*
Y-131679D01*
X-105629Y-130981D01*
X-106164Y-130446D01*
X-106862Y-130157D01*
D02*
G37*
G36*
X-40591Y-131801D02*
X-41230D01*
X-41820Y-132046D01*
X-42271Y-132497D01*
X-42516Y-133087D01*
Y-133726D01*
X-42271Y-134315D01*
X-41820Y-134767D01*
X-41230Y-135011D01*
X-40591D01*
X-40001Y-134767D01*
X-39550Y-134315D01*
X-39306Y-133726D01*
Y-133087D01*
X-39550Y-132497D01*
X-40001Y-132046D01*
X-40591Y-131801D01*
D02*
G37*
G36*
X-103473Y-135853D02*
X-104229D01*
X-104927Y-136142D01*
X-105461Y-136677D01*
X-105751Y-137375D01*
Y-138131D01*
X-105461Y-138829D01*
X-104927Y-139364D01*
X-104229Y-139653D01*
X-103473D01*
X-102774Y-139364D01*
X-102240Y-138829D01*
X-101951Y-138131D01*
Y-137375D01*
X-102240Y-136677D01*
X-102774Y-136142D01*
X-103473Y-135853D01*
D02*
G37*
G36*
X-54499Y-138809D02*
X-55255D01*
X-55953Y-139098D01*
X-56487Y-139633D01*
X-56777Y-140331D01*
Y-141087D01*
X-56487Y-141785D01*
X-55953Y-142320D01*
X-55255Y-142609D01*
X-54499D01*
X-53800Y-142320D01*
X-53266Y-141785D01*
X-52977Y-141087D01*
Y-140331D01*
X-53266Y-139633D01*
X-53800Y-139098D01*
X-54499Y-138809D01*
D02*
G37*
G36*
X-82862Y-141157D02*
X-83618D01*
X-84316Y-141446D01*
X-84851Y-141981D01*
X-85140Y-142679D01*
Y-143435D01*
X-84851Y-144133D01*
X-84316Y-144668D01*
X-83618Y-144957D01*
X-82862D01*
X-82164Y-144668D01*
X-81629Y-144133D01*
X-81340Y-143435D01*
Y-142679D01*
X-81629Y-141981D01*
X-82164Y-141446D01*
X-82862Y-141157D01*
D02*
G37*
G36*
X-43612Y-141407D02*
X-44368D01*
X-45066Y-141696D01*
X-45601Y-142231D01*
X-45890Y-142929D01*
Y-143685D01*
X-45601Y-144383D01*
X-45066Y-144918D01*
X-44368Y-145207D01*
X-43612D01*
X-42914Y-144918D01*
X-42379Y-144383D01*
X-42090Y-143685D01*
Y-142929D01*
X-42379Y-142231D01*
X-42914Y-141696D01*
X-43612Y-141407D01*
D02*
G37*
G36*
X-108357Y-142132D02*
X-109123D01*
X-109830Y-142425D01*
X-110372Y-142966D01*
X-110665Y-143674D01*
Y-144440D01*
X-110372Y-145147D01*
X-109830Y-145689D01*
X-109123Y-145982D01*
X-108357D01*
X-107650Y-145689D01*
X-107108Y-145147D01*
X-106815Y-144440D01*
Y-143674D01*
X-107108Y-142966D01*
X-107650Y-142425D01*
X-108357Y-142132D01*
D02*
G37*
G36*
X-101612Y-142907D02*
X-102368D01*
X-103066Y-143196D01*
X-103601Y-143731D01*
X-103890Y-144429D01*
Y-145185D01*
X-103601Y-145883D01*
X-103066Y-146418D01*
X-102368Y-146707D01*
X-101612D01*
X-100914Y-146418D01*
X-100379Y-145883D01*
X-100090Y-145185D01*
Y-144429D01*
X-100379Y-143731D01*
X-100914Y-143196D01*
X-101612Y-142907D01*
D02*
G37*
G36*
X-57612Y-145657D02*
X-58368D01*
X-59066Y-145946D01*
X-59601Y-146481D01*
X-59890Y-147179D01*
Y-147935D01*
X-59601Y-148633D01*
X-59066Y-149168D01*
X-58368Y-149457D01*
X-57612D01*
X-56914Y-149168D01*
X-56379Y-148633D01*
X-56090Y-147935D01*
Y-147179D01*
X-56379Y-146481D01*
X-56914Y-145946D01*
X-57612Y-145657D01*
D02*
G37*
G36*
X-40862Y-146907D02*
X-41618D01*
X-42316Y-147196D01*
X-42851Y-147731D01*
X-43140Y-148429D01*
Y-149185D01*
X-42851Y-149883D01*
X-42316Y-150418D01*
X-41618Y-150707D01*
X-40862D01*
X-40164Y-150418D01*
X-39629Y-149883D01*
X-39340Y-149185D01*
Y-148429D01*
X-39629Y-147731D01*
X-40164Y-147196D01*
X-40862Y-146907D01*
D02*
G37*
G36*
X-24362Y-150907D02*
X-25118D01*
X-25816Y-151196D01*
X-26351Y-151731D01*
X-26640Y-152429D01*
Y-153185D01*
X-26351Y-153883D01*
X-25816Y-154418D01*
X-25118Y-154707D01*
X-24362D01*
X-23664Y-154418D01*
X-23129Y-153883D01*
X-22840Y-153185D01*
Y-152429D01*
X-23129Y-151731D01*
X-23664Y-151196D01*
X-24362Y-150907D01*
D02*
G37*
G36*
X-33047Y-155339D02*
X-33803D01*
X-34502Y-155628D01*
X-35036Y-156163D01*
X-35325Y-156861D01*
Y-157617D01*
X-35036Y-158315D01*
X-34502Y-158850D01*
X-33803Y-159139D01*
X-33047D01*
X-32349Y-158850D01*
X-31814Y-158315D01*
X-31525Y-157617D01*
Y-156861D01*
X-31814Y-156163D01*
X-32349Y-155628D01*
X-33047Y-155339D01*
D02*
G37*
G36*
X-72607Y-172882D02*
X-73373D01*
X-74080Y-173175D01*
X-74622Y-173717D01*
X-74915Y-174424D01*
Y-175190D01*
X-74622Y-175897D01*
X-74080Y-176439D01*
X-73373Y-176732D01*
X-72607D01*
X-71900Y-176439D01*
X-71358Y-175897D01*
X-71065Y-175190D01*
Y-174424D01*
X-71358Y-173717D01*
X-71900Y-173175D01*
X-72607Y-172882D01*
D02*
G37*
%LPD*%
D47*
X217171Y-264653D02*
G03*
X270795Y-210819I-118J53742D01*
G01*
X270608Y208316D02*
G03*
X218774Y263901I-53710J1876D01*
G01*
X-207022Y264549D02*
G03*
X-257878Y208067I2813J-53669D01*
G01*
X-258098Y-210417D02*
G03*
X-204355Y-264160I53742J0D01*
G01*
X217171D01*
X270608Y-210819D02*
X270608Y208316D01*
X-207022Y264160D02*
X218774D01*
X-258098Y-210417D02*
Y207992D01*
D48*
X-153419Y91622D02*
G03*
X-157240Y81620I11179J-10002D01*
G01*
X-138751Y-197016D02*
G03*
X-125240Y-205500I13511J6516D01*
G01*
X162760Y185620D02*
G03*
X147760Y200620I-15000J0D01*
G01*
X162760Y185620D02*
G03*
X147760Y200620I-15000J0D01*
G01*
X158367Y117622D02*
G03*
X162760Y128229I-10607J10607D01*
G01*
X158367Y117622D02*
G03*
X162760Y128229I-10607J10607D01*
G01*
X138401Y103870D02*
G03*
X149008Y108263I0J15000D01*
G01*
X138401Y103870D02*
G03*
X149008Y108263I0J15000D01*
G01*
X18291Y200620D02*
G03*
X14505Y200135I0J-15000D01*
G01*
X18291Y200620D02*
G03*
X14490Y200131I0J-15000D01*
G01*
X-31174Y188220D02*
G03*
X-33834Y187253I3771J-14519D01*
G01*
X-31189Y188216D02*
G03*
X-33851Y187245I3786J-14515D01*
G01*
X162760Y-44250D02*
G03*
X147760Y-29250I-15000J0D01*
G01*
X162760Y-44250D02*
G03*
X147760Y-29250I-15000J0D01*
G01*
X158367Y-112248D02*
G03*
X162760Y-101641I-10607J10607D01*
G01*
X138401Y-126000D02*
G03*
X149008Y-121607I0J15000D01*
G01*
X158367Y-112248D02*
G03*
X162760Y-101641I-10607J10607D01*
G01*
X138401Y-126000D02*
G03*
X149008Y-121607I0J15000D01*
G01*
X18291Y-29250D02*
G03*
X14505Y-29735I0J-15000D01*
G01*
X-31174Y-41650D02*
G03*
X-33834Y-42617I3771J-14519D01*
G01*
X18291Y-29250D02*
G03*
X14490Y-29739I0J-15000D01*
G01*
X-31189Y-41654D02*
G03*
X-33851Y-42625I3786J-14515D01*
G01*
X-110483Y144434D02*
G03*
X-112974Y141964I9243J-11814D01*
G01*
X-110491Y144428D02*
G03*
X-112983Y141953I9251J-11808D01*
G01*
X-138751Y32854D02*
G03*
X-125240Y24370I13511J6516D01*
G01*
X-138751Y32854D02*
G03*
X-125240Y24370I13511J6516D01*
G01*
X-110491Y-85442D02*
G03*
X-112983Y-87917I9251J-11808D01*
G01*
X-138751Y-197016D02*
G03*
X-125240Y-205500I13511J6516D01*
G01*
X-153408Y-138236D02*
G03*
X-157240Y-148250I11168J-10014D01*
G01*
X-153419Y-138248D02*
G03*
X-157240Y-148250I11179J-10002D01*
G01*
X78740Y24130D02*
X198120D01*
X-74670Y28109D02*
X-35560Y46990D01*
X-200660Y-29250D02*
X-113030D01*
X-200660Y200620D02*
X-113030D01*
X77470Y-205740D02*
X196850D01*
X-194317Y81357D02*
X-162070Y81520D01*
X130175Y103870D02*
X196850D01*
X130175Y200620D02*
X198120D01*
X128905Y-29250D02*
X198120D01*
X130175Y-126000D02*
X195580D01*
X-190507Y-148513D02*
X-158260Y-148350D01*
X-179070Y24130D02*
X-131590D01*
X-179070Y-205740D02*
X-131590D01*
X16370Y200620D02*
X50165D01*
X14490Y200131D02*
X16370Y200620D01*
X-72390Y-200660D02*
X-30480Y-180340D01*
X-150199Y95216D02*
X-118179Y135428D01*
X-149860Y-133350D02*
X-117560Y-93665D01*
X40666Y-146650D02*
X68367Y-133350D01*
X36376Y81160D02*
X65722Y95250D01*
X18291Y-29250D02*
X48895D01*
X-58169Y175705D02*
X-33851Y187245D01*
X-53863Y-52122D02*
X-33851Y-42625D01*
X149008Y108263D02*
X156950Y116205D01*
X-522Y196215D02*
X14490Y200131D01*
X-31174Y188220D02*
X-522Y196215D01*
X149008Y-121607D02*
X156950Y-113665D01*
X14490Y-29739D02*
X14505Y-29735D01*
X-522Y-33655D02*
X14490Y-29739D01*
X-31174Y-41650D02*
X-3810Y-34513D01*
X-31189Y188216D02*
X-31174Y188220D01*
X-33851Y187245D02*
X-33834Y187253D01*
X-31189Y-41654D02*
X-31174Y-41650D01*
X-33851Y-42625D02*
X-33834Y-42617D01*
D52*
X130760Y175313D02*
D03*
Y-54557D02*
D03*
D53*
X-117259Y47076D02*
D03*
Y-182794D02*
D03*
D54*
X-96990Y103313D02*
D03*
X-99990Y83563D02*
D03*
X-16240Y168063D02*
D03*
X42510Y131813D02*
D03*
X-79490Y116563D02*
D03*
X91510Y132063D02*
D03*
X88760Y148313D02*
D03*
X64978Y169850D02*
D03*
Y154850D02*
D03*
X43760Y169813D02*
D03*
X92760Y176063D02*
D03*
X-66490Y124313D02*
D03*
X-73740Y138313D02*
D03*
X13510Y149063D02*
D03*
X24010Y129063D02*
D03*
X12760Y176563D02*
D03*
X36260Y108563D02*
D03*
X25760Y110813D02*
D03*
X-96740Y117313D02*
D03*
X-16140Y139965D02*
D03*
X62724Y119739D02*
D03*
X1224Y90489D02*
D03*
X-140Y125215D02*
D03*
X3860Y147965D02*
D03*
X-11640Y128965D02*
D03*
X-23776Y91989D02*
D03*
X-72740Y72813D02*
D03*
X-90240Y60563D02*
D03*
X-87990Y55563D02*
D03*
X-96990Y-126557D02*
D03*
X-99990Y-146307D02*
D03*
X-23776Y-137881D02*
D03*
X42510Y-98057D02*
D03*
X1224Y-139381D02*
D03*
X-16990Y-61807D02*
D03*
X12760Y-53307D02*
D03*
X43760Y-60057D02*
D03*
X-66490Y-105557D02*
D03*
X-73740Y-91557D02*
D03*
X80760Y-52057D02*
D03*
X13510Y-80807D02*
D03*
X24010Y-100807D02*
D03*
X36260Y-121307D02*
D03*
X25760Y-119057D02*
D03*
X65010Y-86557D02*
D03*
Y-68557D02*
D03*
Y-60057D02*
D03*
X-79490Y-113307D02*
D03*
X-96740Y-112557D02*
D03*
X-16140Y-89905D02*
D03*
X62724Y-110131D02*
D03*
X88510Y-92557D02*
D03*
X-140Y-104655D02*
D03*
X3860Y-81905D02*
D03*
X-11640Y-100905D02*
D03*
X-72740Y-157057D02*
D03*
X-90240Y-169307D02*
D03*
X-87990Y-174307D02*
D03*
D55*
X-35990Y102313D02*
D03*
X-45740Y90063D02*
D03*
X-39190Y93202D02*
D03*
X-35740Y-127557D02*
D03*
X-39190Y-136668D02*
D03*
X-45740Y-139807D02*
D03*
M02*
