G04*
G04 #@! TF.GenerationSoftware,Altium Limited,Altium Designer,23.2.1 (34)*
G04*
G04 Layer_Color=32768*
%FSLAX44Y44*%
%MOMM*%
G71*
G04*
G04 #@! TF.SameCoordinates,96D2EB81-E719-42E9-B1B6-D61F4878D9FD*
G04*
G04*
G04 #@! TF.FilePolarity,Positive*
G04*
G01*
G75*
%ADD47C,0.2540*%
%ADD48C,3.0000*%
%ADD70C,0.0760*%
%ADD75C,0.0800*%
D47*
X217171Y-264653D02*
G03*
X270795Y-210819I-118J53742D01*
G01*
X270608Y208316D02*
G03*
X218774Y263901I-53710J1876D01*
G01*
X-207022Y264549D02*
G03*
X-257878Y208067I2813J-53669D01*
G01*
X-258098Y-210417D02*
G03*
X-204355Y-264160I53742J0D01*
G01*
X217171D01*
X270608Y-210819D02*
X270608Y208316D01*
X-207022Y264160D02*
X218774D01*
X-258098Y-210417D02*
Y207992D01*
D48*
X-153419Y91622D02*
G03*
X-157240Y81620I11179J-10002D01*
G01*
X-138751Y-197016D02*
G03*
X-125240Y-205500I13511J6516D01*
G01*
X162760Y185620D02*
G03*
X147760Y200620I-15000J0D01*
G01*
X162760Y185620D02*
G03*
X147760Y200620I-15000J0D01*
G01*
X158367Y117622D02*
G03*
X162760Y128229I-10607J10607D01*
G01*
X158367Y117622D02*
G03*
X162760Y128229I-10607J10607D01*
G01*
X138401Y103870D02*
G03*
X149008Y108263I0J15000D01*
G01*
X138401Y103870D02*
G03*
X149008Y108263I0J15000D01*
G01*
X18291Y200620D02*
G03*
X14505Y200135I0J-15000D01*
G01*
X18291Y200620D02*
G03*
X14490Y200131I0J-15000D01*
G01*
X-31174Y188220D02*
G03*
X-33834Y187253I3771J-14519D01*
G01*
X-31189Y188216D02*
G03*
X-33851Y187245I3786J-14515D01*
G01*
X162760Y-44250D02*
G03*
X147760Y-29250I-15000J0D01*
G01*
X162760Y-44250D02*
G03*
X147760Y-29250I-15000J0D01*
G01*
X158367Y-112248D02*
G03*
X162760Y-101641I-10607J10607D01*
G01*
X138401Y-126000D02*
G03*
X149008Y-121607I0J15000D01*
G01*
X158367Y-112248D02*
G03*
X162760Y-101641I-10607J10607D01*
G01*
X138401Y-126000D02*
G03*
X149008Y-121607I0J15000D01*
G01*
X18291Y-29250D02*
G03*
X14505Y-29735I0J-15000D01*
G01*
X-31174Y-41650D02*
G03*
X-33834Y-42617I3771J-14519D01*
G01*
X18291Y-29250D02*
G03*
X14490Y-29739I0J-15000D01*
G01*
X-31189Y-41654D02*
G03*
X-33851Y-42625I3786J-14515D01*
G01*
X-110483Y144434D02*
G03*
X-112974Y141964I9243J-11814D01*
G01*
X-110491Y144428D02*
G03*
X-112983Y141953I9251J-11808D01*
G01*
X-138751Y32854D02*
G03*
X-125240Y24370I13511J6516D01*
G01*
X-138751Y32854D02*
G03*
X-125240Y24370I13511J6516D01*
G01*
X-110491Y-85442D02*
G03*
X-112983Y-87917I9251J-11808D01*
G01*
X-138751Y-197016D02*
G03*
X-125240Y-205500I13511J6516D01*
G01*
X-153408Y-138236D02*
G03*
X-157240Y-148250I11168J-10014D01*
G01*
X-153419Y-138248D02*
G03*
X-157240Y-148250I11179J-10002D01*
G01*
X78740Y24130D02*
X198120D01*
X-74670Y28109D02*
X-35560Y46990D01*
X-200660Y-29250D02*
X-113030D01*
X-200660Y200620D02*
X-113030D01*
X77470Y-205740D02*
X196850D01*
X-194317Y81357D02*
X-162070Y81520D01*
X130175Y103870D02*
X196850D01*
X130175Y200620D02*
X198120D01*
X128905Y-29250D02*
X198120D01*
X130175Y-126000D02*
X195580D01*
X-190507Y-148513D02*
X-158260Y-148350D01*
X-179070Y24130D02*
X-131590D01*
X-179070Y-205740D02*
X-131590D01*
X16370Y200620D02*
X50165D01*
X14490Y200131D02*
X16370Y200620D01*
X-72390Y-200660D02*
X-30480Y-180340D01*
X-150199Y95216D02*
X-118179Y135428D01*
X-149860Y-133350D02*
X-117560Y-93665D01*
X40666Y-146650D02*
X68367Y-133350D01*
X36376Y81160D02*
X65722Y95250D01*
X18291Y-29250D02*
X48895D01*
X-58169Y175705D02*
X-33851Y187245D01*
X-53863Y-52122D02*
X-33851Y-42625D01*
X149008Y108263D02*
X156950Y116205D01*
X-522Y196215D02*
X14490Y200131D01*
X-31174Y188220D02*
X-522Y196215D01*
X149008Y-121607D02*
X156950Y-113665D01*
X14490Y-29739D02*
X14505Y-29735D01*
X-522Y-33655D02*
X14490Y-29739D01*
X-31174Y-41650D02*
X-3810Y-34513D01*
X-31189Y188216D02*
X-31174Y188220D01*
X-33851Y187245D02*
X-33834Y187253D01*
X-31189Y-41654D02*
X-31174Y-41650D01*
X-33851Y-42625D02*
X-33834Y-42617D01*
D70*
X-137990Y86813D02*
G03*
X-132274Y94090I-781J6496D01*
G01*
X-104789Y39857D02*
G03*
X-114005Y39026I-4193J-5023D01*
G01*
X-85315Y39813D02*
X80260Y119313D01*
X-90084Y39813D02*
X-85315D01*
X80260Y119313D02*
X138401D01*
X-101240Y133063D02*
X-81678Y148389D01*
X-27403Y174144D01*
X-104887Y39813D02*
X-99621D01*
X-142240Y75063D02*
X-126218Y42018D01*
X-126086Y41974D02*
X-120215Y38161D01*
X-119975Y38100D02*
X-114005Y39026D01*
X-142240Y75063D02*
Y82063D01*
X-137990Y86813D01*
X-99621Y39813D02*
X-90084D01*
X138401Y119313D02*
X147760Y128672D01*
X-27403Y174144D02*
X18291Y186063D01*
X-132274Y94090D02*
X-101240Y133063D01*
X147760Y128672D02*
Y186063D01*
X18291D02*
X147760D01*
X-137990Y-143057D02*
G03*
X-132274Y-135780I-781J6496D01*
G01*
X-104789Y-190014D02*
G03*
X-114005Y-190844I-4193J-5023D01*
G01*
X-85315Y-190057D02*
X80260Y-110557D01*
X-90084Y-190057D02*
X-85315D01*
X80260Y-110557D02*
X138401D01*
X-101240Y-96807D02*
X-81678Y-81481D01*
X-27403Y-55726D01*
X-104887Y-190057D02*
X-99621D01*
X-142240Y-154807D02*
X-126218Y-187852D01*
X-126086Y-187896D02*
X-120215Y-191709D01*
X-119975Y-191770D02*
X-114005Y-190844D01*
X-142240Y-154807D02*
Y-147807D01*
X-137990Y-143057D01*
X-99621Y-190057D02*
X-90084D01*
X138401Y-110557D02*
X147760Y-101198D01*
X-27403Y-55726D02*
X18291Y-43807D01*
X-132274Y-135780D02*
X-101240Y-96807D01*
X147760Y-101198D02*
Y-43807D01*
X18291D02*
X147760D01*
D75*
X-448164Y1096388D02*
X-449432Y1099106D01*
X-448073Y1099739D01*
X-447408Y1099498D01*
X-446986Y1098592D01*
X-447228Y1097927D01*
X-448587Y1097294D01*
X-447681Y1097716D02*
X-446352Y1097233D01*
X-445446Y1097655D02*
X-444540Y1098078D01*
X-444993Y1097866D01*
X-446261Y1100584D01*
X-446502Y1099920D01*
X-443181Y1098711D02*
X-442275Y1099134D01*
X-442728Y1098923D01*
X-443996Y1101641D01*
X-444237Y1100976D01*
X-70804Y68609D02*
X-69788Y66326D01*
X-69128Y66073D01*
X-68215Y66479D01*
X-67961Y67139D01*
X-68978Y69422D01*
X-66238Y70642D02*
X-66948Y69779D01*
X-67455Y68459D01*
X-67048Y67546D01*
X-66388Y67292D01*
X-65475Y67699D01*
X-65222Y68359D01*
X-65425Y68815D01*
X-66085Y69069D01*
X-67455Y68459D01*
X-48679Y73070D02*
X-49946Y75788D01*
X-48587Y76422D01*
X-47923Y76180D01*
X-47500Y75274D01*
X-47742Y74610D01*
X-49101Y73976D01*
X-48195Y74399D02*
X-46866Y73915D01*
X-45960Y74338D02*
X-45054Y74760D01*
X-45507Y74549D01*
X-46775Y77267D01*
X-47017Y76603D01*
X-43696Y75394D02*
X-42790Y75817D01*
X-43243Y75605D01*
X-44510Y78323D01*
X-44752Y77659D01*
X-71554Y-161761D02*
X-70538Y-164044D01*
X-69878Y-164297D01*
X-68965Y-163891D01*
X-68711Y-163231D01*
X-69728Y-160948D01*
X-66988Y-159728D02*
X-67698Y-160591D01*
X-68205Y-161911D01*
X-67798Y-162824D01*
X-67138Y-163078D01*
X-66225Y-162671D01*
X-65972Y-162011D01*
X-66175Y-161555D01*
X-66835Y-161301D01*
X-68205Y-161911D01*
X-48103Y-157994D02*
X-49370Y-155276D01*
X-48011Y-154642D01*
X-47347Y-154884D01*
X-46925Y-155790D01*
X-47167Y-156454D01*
X-48526Y-157088D01*
X-47620Y-156665D02*
X-46291Y-157149D01*
X-45385Y-156726D02*
X-44479Y-156304D01*
X-44932Y-156515D01*
X-46199Y-153797D01*
X-46441Y-154461D01*
X-43120Y-155670D02*
X-42214Y-155248D01*
X-42667Y-155459D01*
X-43934Y-152741D01*
X-44176Y-153405D01*
M02*
