M48
;Layer_Color=9474304
;FILE_FORMAT=4:4
METRIC,LZ
;TYPE=PLATED
T1F00S00C0.1270
T2F00S00C0.1500
T3F00S00C0.1520
T4F00S00C0.2000
T5F00S00C0.6000
;TYPE=NON_PLATED
T6F00S00C0.5000
T7F00S00C1.5240
T8F00S00C2.7940
%
T01
X-0009549Y-00103057
Y00126813
T02
X-0004574Y-00139807
X-0004544Y-00131918
X-00046904Y-00128659
X-00043839Y-00127468
X-00042348Y-00122481
X-0003899Y-00121057
X-0003749Y-00124307
X-0003574Y-00127557
X-00040911Y-00133406
X-0003919Y-00136668
X-0005019Y-00130418
X-0004574Y00090063
X-0004544Y00097952
X-0004699Y00101063
X-00043839Y00102402
X-00042348Y00107389
X-0003899Y00108813
X-0003749Y00105563
X-0003599Y00102313
X-00040911Y00096464
X-0003919Y00093202
X-0005019Y00099452
T03
X-0010874Y-00144057
X-0007299Y-00174807
Y00055063
X-0010874Y00085813
T04
X-0009974Y-00185057
X-0008799Y-00174307
X-0009024Y-00169307
X-0007274Y-00157057
X-0005799Y-00147557
X-00054877Y-00140709
X-00059303Y-00131659
X-0004399Y-00143307
X-0004124Y-00148807
X-00033425Y-00157239
X-0002474Y-00152807
X-00023776Y-00137881
X-0001324Y-00131307
X00001224Y-00139381
X0000801Y-00128057
X0002251Y-00128307
X0002126Y-00121057
X0002576Y-00119057
X0003026Y-00116807
X0003476Y-00114557
X0003626Y-00121307
X0005001Y-00118057
X-0003174Y-00114057
X-0007949Y-00113307
X-0008524Y-00111807
X-0009674Y-00112557
X-0009699Y-00126557
X-0008924Y-00124557
X-0010799Y-00121057
X-0010724Y-00132057
X-00103851Y-00137753
X-0009999Y-00146307
X-0008324Y-00143057
X-0011449Y-00128307
X-0008424Y-00105307
X-0007399Y-00108307
X-0006649Y-00105557
X-00060148Y-00100508
X-00064468Y-00091488
X-0007374Y-00091557
X-0004324Y-00089807
X-0003849Y-00082807
X-0002874Y-00081057
X-0001974Y-00076807
X-0002299Y-00064807
X-0001699Y-00061807
X-00000436Y-00065193
X0000876Y-00060807
X0001301Y-00065807
X0001276Y-00053307
X0002501Y-00062307
X0002926Y-00060557
X0002701Y-00066807
X0003426Y-00066307
X0003376Y-00080557
X0002001Y-00081557
X0001351Y-00080807
X0000386Y-00081905
X-0000014Y-00104655
X-0001164Y-00100905
X-0001614Y-00089905
X-0003174Y-00069057
X-0004324Y-00102557
X0002401Y-00100807
X00030717Y-00104383
X0004251Y-00098057
X0004951Y-00107307
X00062724Y-00110131
X0006501Y-00086557
Y-00074807
Y-00068557
Y-00060057
X0005401Y-00053557
X0004376Y-00060057
X0003826Y-00050807
X0004901Y-00070557
X00024348Y-0009052
X0008851Y-00092557
X0009726Y-00092807
X0008076Y-00052057
X00062724Y00119739
X0004951Y00122563
X0005001Y00111813
X0003626Y00108563
X0003476Y00115313
X0003026Y00113063
X0002576Y00110813
X0002126Y00108813
X0002251Y00101563
X0000801Y00101813
X00001224Y00090489
X-0001324Y00098563
X-00023776Y00091989
X-0002474Y00077063
X-00033425Y00072631
X-0004124Y00081063
X-0004399Y00086563
X-00054877Y00089161
X-0005799Y00082313
X-00059303Y00098211
X-00060148Y00129362
X-0006649Y00124313
X-0007399Y00121563
X-0007949Y00116563
X-0008524Y00118063
X-0008424Y00124563
X-0009674Y00117313
X-0009699Y00103313
X-0008924Y00105313
X-0010799Y00108813
X-0010724Y00097813
X-00103851Y00092117
X-0009999Y00083563
X-0008324Y00086813
X-0007274Y00072813
X-0009024Y00060563
X-0008799Y00055563
X-0009974Y00044813
X-0011449Y00101563
X-0007374Y00138313
X-00064468Y00138382
X-0004324Y00140063
X-0003849Y00147063
X-0002874Y00148813
X-0001974Y00153063
X-0002299Y00165063
X-0001624Y00168063
X-00000436Y00164677
X0000876Y00169063
X0001276Y00163313
Y00176563
X0002501Y00167563
X0002926Y00169313
X0002701Y00163063
X0003426Y00163563
X0004376Y00169813
X0005226
X00064978Y0016985
Y0016135
Y0015485
X0008126Y00153063
Y00141063
X0009151Y00140813
Y00132063
X0008876Y00148313
X0009776
X0009276Y00176063
X0003826Y00179063
X0002001Y00148313
X0001351Y00149063
X0000386Y00147965
X-0000014Y00125215
X-0001164Y00128965
X-0001614Y00139965
X-0003174Y00160813
Y00115813
X-0004324Y00127313
X0002401Y00129063
X00030696Y00126221
X0004251Y00131813
X0005126Y00141313
X00024348Y0013935
T05
X-00117259Y-00182794
X-00122519Y-00172008
X-0012778Y-00161222
X-0013304Y-00150437
X-00117259Y00047076
X-00122519Y00057862
X-0012778Y00068647
X-0013304Y00079433
X0013076Y00131313
X0013076Y00142313
X0013076Y00153313
X0013076Y00164313
X0013076Y00175313
Y-00054557
X0013076Y-00065557
X0013076Y-00076557
X0013076Y-00087557
X0013076Y-00098557
T06
X-0016764Y-00257952
Y-00246594
Y-00234878
Y-0022352
Y-00189159
Y-001778
X-00167642Y-00166441
X-00144194Y-00159247
X-00139472Y-00169578
X-00134749Y-00179909
X-00111839Y-00193439
X-00100479Y-00193524
X-0008912Y-00193611
X-0008531Y-00216471
X-00096669Y-00216384
X-00108029Y-00216299
X-00064699Y-0021647
X-0005334
X-00043109
X-0003175
X-00021448
X-00010089
X0000127
X00012628
X00024344
X00036901
X0004826
X00058562
X00030154Y-00163504
X00019823Y-00168226
X00009492Y-00172948
X-00000839Y-00177671
X-0001117Y-00182393
X-00009729Y-00158621
X-0002006Y-00163343
X00000602Y-00153898
X00010933Y-00149176
X00021264Y-00144454
X000873Y-0013771
X0009779Y-0013335
X0010828Y-00128991
X00107649Y-00114672
X00096326Y-00115576
X00085002Y-0011648
X0007368Y-00117384
X00118972Y-00113768
X-0016764Y-00114514
Y-00125872
X0017452Y-00147392
Y-0015875
Y-00170466
Y-00181824
Y-00226203
Y-00237562
Y-0024892
Y-00260636
Y-00085019
Y-0007366
Y-00062301
X00151643Y-00061703
X00151754Y-00073061
X00151867Y-00084421
X0017452Y-00011502
Y-00000143
Y00045648
Y00057007
Y00068366
Y00079724
Y00089641
X00174747Y00145523
X00174636Y00156882
X00174523Y00168241
X00151663
X00151776Y00156882
X00151887Y00145523
X0017452Y00219109
Y00230469
Y00241827
Y00253186
X00113037Y00211132
X00101678Y00211218
X00090319Y00211304
X0007896Y00211391
X00067602Y00211477
X00067452Y00190673
X00078811Y00190586
X0009017Y001905
X00101529Y00190414
X00112888Y00190328
X00117293Y00115424
X00105988Y00114323
X00094682Y00113221
X00083376Y0011212
X00072071Y00111018
X0008636Y0009144
X0009652Y0009652
X0010668Y001016
X0001524Y0008382
X0000508Y0007874
X-0000508Y0007366
X-0001524Y0006858
X-000254Y000635
X-0001502Y00042841
X-0000486Y00047921
X000053Y00053001
X0001546Y00058081
X0002562Y00063161
X0002794Y0001467
X00038242
X00049601
X0006096
X00066033Y-00016822
X00077391Y-00016909
X00088751Y-00016994
X0010011Y-00017081
X00111468Y-00017167
Y-00040027
X0010011Y-00039941
X00088751Y-00039854
X00077391Y-00039769
X00066033Y-00039682
X00001341Y-0001682
X-00010018
X-0002032
X-00031679
X-00042966
X-00054682
X-0006604
X-00077399
X-00088758
X-0009906
X-00096669Y00014755
X-0008531Y00014669
X-00108028Y00014842
X-00111838Y00036432
X-00100479Y00036345
X-0008912Y00036259
X-00062159Y0001467
X-000508
X-00040498
X-00029139
X-0001778
X-00006422
X00005294
X00016581
X-00069964Y-00047949
X-00079941Y-0005338
X-00089917Y-00058812
X-00099894Y-00064244
X-0010987Y-00069675
X-0008763Y-00080011
X-0007747Y-0007493
X-0006731Y-0006985
X-0016764Y-00068722
Y-0005842
Y-00047061
Y-00080081
Y-0009144
Y-00102798
Y-0000762
Y00003739
Y00040711
Y0005207
Y00063429
X-00144026Y00070125
X-00139124Y00059878
X-00134222Y00049631
X-0016764Y00102798
Y00114514
Y00125872
Y00137231
Y0014859
Y00158892
Y00170251
Y0018161
Y00223449
Y00234808
Y0024511
Y00256469
X-0009779Y002113
X-00087488
X-00076129
X-0006477
X-00053412
X-00041696
X-00030409
X-0001905
X-00008748
X-00074027Y00184853
X-00084003Y00179422
X-0009398Y0017399
X-00103957Y00168559
X-00113933Y00163127
X-000889Y0014859
X-0007874Y0015367
X-0006858Y0015875
T07
X-0023241Y-0014097
X0024308Y-00140875
X00242193Y00118091
X-00232138Y00118103
T08
X-0023114Y-0018923
X00242665Y-0018915
X00241765Y00166366
X-00231723Y00166378
M30
