G04*
G04 #@! TF.GenerationSoftware,Altium Limited,Altium Designer,22.6.1 (34)*
G04*
G04 Layer_Color=65535*
%FSLAX44Y44*%
%MOMM*%
G71*
G04*
G04 #@! TF.SameCoordinates,55340204-0453-48C6-9AD9-4A0BB80BD5D4*
G04*
G04*
G04 #@! TF.FilePolarity,Positive*
G04*
G01*
G75*
%ADD28C,1.0000*%
%ADD29C,0.0760*%
%ADD30C,0.2000*%
%ADD31C,0.2540*%
%ADD32C,0.1270*%
%ADD33C,0.0800*%
D28*
X299548Y-284023D02*
X286219D01*
X292883D01*
Y-317346D01*
X286219Y-324010D01*
X279555D01*
X272890Y-317346D01*
X312877Y-284023D02*
X326206D01*
X319542D01*
Y-324010D01*
X312877D01*
X326206D01*
X372858Y-290688D02*
X366193Y-284023D01*
X352864D01*
X346200Y-290688D01*
Y-317346D01*
X352864Y-324010D01*
X366193D01*
X372858Y-317346D01*
Y-304016D01*
X359529D01*
X426174Y-284023D02*
Y-324010D01*
X446167D01*
X452832Y-317346D01*
Y-310681D01*
X446167Y-304016D01*
X426174D01*
X446167D01*
X452832Y-297352D01*
Y-290688D01*
X446167Y-284023D01*
X426174D01*
X-337992Y-272593D02*
X-351321D01*
X-344656D01*
Y-305916D01*
X-351321Y-312580D01*
X-357985D01*
X-364650Y-305916D01*
X-324663Y-272593D02*
X-311334D01*
X-317998D01*
Y-312580D01*
X-324663D01*
X-311334D01*
X-264682Y-279258D02*
X-271347Y-272593D01*
X-284676D01*
X-291340Y-279258D01*
Y-305916D01*
X-284676Y-312580D01*
X-271347D01*
X-264682Y-305916D01*
Y-292586D01*
X-278011D01*
X-211366Y-312580D02*
Y-285922D01*
X-198037Y-272593D01*
X-184708Y-285922D01*
Y-312580D01*
Y-292586D01*
X-211366D01*
D29*
X-46776Y-19463D02*
G03*
X-41060Y-26740I6496J-781D01*
G01*
X-52090Y-40520D02*
X-47037Y-30161D01*
X-71581Y-31014D02*
X-66528Y-20654D01*
X-47037Y-30161D01*
X-71581Y-31014D02*
X-52090Y-40520D01*
X-61490Y-71620D02*
X-56525Y-61441D01*
X-80582Y-62308D02*
X-75618Y-52129D01*
X-56525Y-61441D01*
X-80582Y-62308D02*
X-61490Y-71620D01*
X-117190Y-72220D02*
X-107576Y-52508D01*
X-139651Y-61265D02*
X-130037Y-41553D01*
X-107576Y-52508D01*
X-139651Y-61265D02*
X-117190Y-72220D01*
X-128790Y-66820D02*
X-125890Y-61020D01*
X-122290Y-53920D02*
X-119090Y-47120D01*
X-203790Y58680D02*
X-203294Y62152D01*
X-201590Y74280D02*
X-200890Y80380D01*
X-69320Y-10986D02*
X-67611Y-9619D01*
X-75990Y-2220D02*
X-73290Y-120D01*
X-54890Y480D02*
X-52390Y2480D01*
X-62990Y-19220D02*
X-61149Y-17773D01*
X-48490Y-7720D02*
X-45990Y-5820D01*
X-61990Y8980D02*
X-59090Y11280D01*
X-83193Y6553D02*
X-65846Y20056D01*
X-83193Y6553D02*
X-59025Y-24186D01*
X-65846Y20056D02*
X-39271Y-14278D01*
X-54276Y-26345D02*
X-39271Y-14278D01*
X-59025Y-24186D02*
X-54276Y-26345D01*
X-213990Y58680D02*
X-204058D01*
X-213990D02*
Y80580D01*
X-204058Y58680D02*
X-192949Y56517D01*
X-188505Y78028D01*
X-213990Y80580D02*
X-201642D01*
X-188505Y78028D01*
X-326810Y15119D02*
Y72510D01*
X-197341D01*
X-317451Y5760D02*
X-259310D01*
X-326810Y15119D02*
X-317451Y5760D01*
X-151647Y60591D02*
X-97372Y34836D01*
X-197341Y72510D02*
X-151647Y60591D01*
X-97372Y34836D02*
X-77810Y19510D01*
X-46776Y-19463D01*
X-36810Y-38490D02*
Y-31490D01*
X-41060Y-26740D02*
X-36810Y-31490D01*
X-53810Y-73740D02*
X-36810Y-38490D01*
X-93735Y-73740D02*
X-53810D01*
X-259310Y5760D02*
X-93735Y-73740D01*
D30*
X-353083Y-127520D02*
X-332962Y-127520D01*
X-353084Y-110520D02*
X-332963Y-110520D01*
D31*
X-319890Y-107970D02*
X-319890Y-137470D01*
X-264140Y-107970D02*
X-264140Y-137470D01*
X-319890Y-107970D02*
X-264140Y-107970D01*
X-319890Y-137470D02*
X-264140D01*
X-417431Y92950D02*
X-386951D01*
X-417431Y-89930D02*
X-386951D01*
Y92950D01*
X-417431Y-89930D02*
Y92950D01*
X-479790Y-21020D02*
X-479790Y-34020D01*
X-534790Y-34020D02*
X-479790Y-34020D01*
X-534790Y51980D02*
X-534790Y-34020D01*
X-534790Y51980D02*
X-479790Y51980D01*
X-479790Y38980D02*
X-479790Y51980D01*
X-231190Y122030D02*
X-231190Y151530D01*
X-175440Y122030D02*
X-175440Y151530D01*
X-231190D02*
X-175440D01*
X-231190Y122030D02*
X-175440Y122030D01*
X-382347Y-126538D02*
Y-111302D01*
X-374729D01*
X-372190Y-113842D01*
Y-118920D01*
X-374729Y-121459D01*
X-382347D01*
X-377268D02*
X-372190Y-126538D01*
X-367112D02*
X-362033D01*
X-364573D01*
Y-111302D01*
X-367112Y-113842D01*
X-244229Y-115603D02*
X-249308D01*
X-246768D01*
Y-128298D01*
X-249308Y-130837D01*
X-251847D01*
X-254386Y-128298D01*
X-228994Y-130837D02*
X-239151D01*
X-228994Y-120681D01*
Y-118142D01*
X-231533Y-115603D01*
X-236612D01*
X-239151Y-118142D01*
X-523287Y76001D02*
X-528366D01*
X-525827D01*
Y63305D01*
X-528366Y60766D01*
X-530905D01*
X-533444Y63305D01*
X-510592Y60766D02*
Y76001D01*
X-518209Y68383D01*
X-508052D01*
X-218190Y114598D02*
X-223269D01*
X-220729D01*
Y101902D01*
X-223269Y99362D01*
X-225808D01*
X-228347Y101902D01*
X-213112Y99362D02*
X-208033D01*
X-210573D01*
Y114598D01*
X-213112Y112058D01*
X-405939Y117149D02*
X-411018D01*
X-408479D01*
Y104453D01*
X-411018Y101914D01*
X-413557D01*
X-416096Y104453D01*
X-400861Y114610D02*
X-398322Y117149D01*
X-393244D01*
X-390704Y114610D01*
Y112071D01*
X-393244Y109531D01*
X-395783D01*
X-393244D01*
X-390704Y106992D01*
Y104453D01*
X-393244Y101914D01*
X-398322D01*
X-400861Y104453D01*
D32*
X-137791Y-95590D02*
X-138537Y-95597D01*
X-139428Y-95904D01*
X-140019Y-96357D01*
X-140604Y-97555D01*
X-140596Y-98300D01*
X-140290Y-99191D01*
X-139837Y-99783D01*
X-139084Y-100521D01*
X-137586Y-101251D01*
X-136542Y-101390D01*
X-135797Y-101383D01*
X-134905Y-101076D01*
X-134314Y-100623D01*
X-133729Y-99425D01*
X-133737Y-98680D01*
X-134043Y-97788D01*
X-134496Y-97197D01*
X-138427Y-93092D02*
X-132137Y-96160D01*
X-138427Y-93092D02*
X-137404Y-90995D01*
X-136666Y-90243D01*
X-135775Y-89936D01*
X-135030Y-89928D01*
X-133985Y-90067D01*
X-132488Y-90798D01*
X-131735Y-91535D01*
X-131282Y-92127D01*
X-130975Y-93018D01*
X-131114Y-94063D01*
X-132137Y-96160D01*
X-134818Y-85693D02*
X-134811Y-86438D01*
X-134504Y-87330D01*
X-134051Y-87921D01*
X-133299Y-88659D01*
X-131801Y-89390D01*
X-130756Y-89528D01*
X-130011Y-89521D01*
X-129120Y-89214D01*
X-128528Y-88761D01*
X-127944Y-87563D01*
X-127951Y-86818D01*
X-128258Y-85927D01*
X-128711Y-85335D01*
X-129464Y-84597D01*
X-130961Y-83867D01*
X-132006Y-83728D01*
X-132751Y-83735D01*
X-133642Y-84042D01*
X-134234Y-84495D01*
X-134818Y-85693D01*
X-132642Y-81230D02*
X-126351Y-84298D01*
X-132642Y-81230D02*
X-124306Y-80105D01*
X-130596Y-77037D02*
X-124306Y-80105D01*
X-127850Y-71406D02*
X-129749Y-75299D01*
X-123459Y-78367D01*
X-121560Y-74473D01*
X-126754Y-76760D02*
X-125585Y-74364D01*
X-158091Y-103490D02*
X-158836Y-103497D01*
X-159728Y-103804D01*
X-160319Y-104257D01*
X-160904Y-105455D01*
X-160896Y-106200D01*
X-160590Y-107091D01*
X-160137Y-107683D01*
X-159384Y-108421D01*
X-157886Y-109151D01*
X-156842Y-109290D01*
X-156096Y-109283D01*
X-155205Y-108976D01*
X-154614Y-108523D01*
X-154029Y-107325D01*
X-154037Y-106580D01*
X-154343Y-105688D01*
X-154796Y-105097D01*
X-158727Y-100992D02*
X-152437Y-104060D01*
X-158727Y-100992D02*
X-157412Y-98296D01*
X-156674Y-97543D01*
X-156229Y-97390D01*
X-155484Y-97383D01*
X-154885Y-97675D01*
X-154431Y-98267D01*
X-154278Y-98712D01*
X-154417Y-99757D01*
X-155732Y-102453D01*
X-154709Y-100356D02*
X-150392Y-99866D01*
X-154096Y-91496D02*
X-155995Y-95391D01*
X-149705Y-98458D01*
X-147806Y-94565D01*
X-153000Y-96851D02*
X-151831Y-94455D01*
X-150641Y-86693D02*
X-151532Y-87000D01*
X-152270Y-87752D01*
X-152854Y-88951D01*
X-152993Y-89995D01*
X-152686Y-90886D01*
X-152087Y-91179D01*
X-151342Y-91171D01*
X-150896Y-91018D01*
X-150304Y-90565D01*
X-148829Y-89060D01*
X-148237Y-88607D01*
X-147791Y-88453D01*
X-147046Y-88446D01*
X-146148Y-88884D01*
X-145841Y-89776D01*
X-145979Y-90820D01*
X-146564Y-92018D01*
X-147302Y-92771D01*
X-148193Y-93078D01*
X-148953Y-80953D02*
X-150853Y-84847D01*
X-144562Y-87915D01*
X-142663Y-84021D01*
X-147857Y-86308D02*
X-146688Y-83912D01*
X-147419Y-77808D02*
X-141129Y-80876D01*
X-148442Y-79905D02*
X-146397Y-75711D01*
X-137645Y-79053D02*
X-135307Y-74260D01*
X-143300Y-69361D02*
X-137009Y-72429D01*
X-143300Y-69361D02*
X-141985Y-66665D01*
X-141247Y-65913D01*
X-140801Y-65759D01*
X-140056Y-65752D01*
X-139457Y-66044D01*
X-139004Y-66636D01*
X-138851Y-67081D01*
X-138989Y-68126D01*
X-140304Y-70822D02*
X-138989Y-68126D01*
X-138252Y-67374D01*
X-137806Y-67220D01*
X-137061Y-67213D01*
X-136162Y-67651D01*
X-135709Y-68243D01*
X-135556Y-68688D01*
X-135695Y-69733D01*
X-137009Y-72429D01*
X-217588Y64159D02*
X-220006D01*
X-220248Y61982D01*
X-220006Y62224D01*
X-219281Y62466D01*
X-218555D01*
X-217830Y62224D01*
X-217346Y61740D01*
X-217104Y61015D01*
Y60531D01*
X-217346Y59805D01*
X-217830Y59322D01*
X-218555Y59080D01*
X-219281D01*
X-220006Y59322D01*
X-220248Y59564D01*
X-220490Y60047D01*
X-186154Y60150D02*
X-185494Y59762D01*
X-185172Y58952D01*
X-185187Y57719D01*
X-185338Y57009D01*
X-185826Y55876D01*
X-186450Y55267D01*
X-187210Y55182D01*
X-187683Y55282D01*
X-188342Y55670D01*
X-188664Y56480D01*
X-188650Y57713D01*
X-188499Y58423D01*
X-188011Y59555D01*
X-187387Y60164D01*
X-186627Y60250D01*
X-186154Y60150D01*
X-60591Y-54698D02*
X-60056Y-54152D01*
X-59191Y-54035D01*
X-57999Y-54348D01*
X-57347Y-54666D01*
X-56366Y-55413D01*
X-55925Y-56166D01*
X-56026Y-56924D01*
X-56238Y-57359D01*
X-56774Y-57905D01*
X-57638Y-58022D01*
X-58831Y-57709D01*
X-59483Y-57391D01*
X-60464Y-56644D01*
X-60904Y-55891D01*
X-60803Y-55133D01*
X-60591Y-54698D01*
X-46683Y-35485D02*
X-47743Y-37659D01*
X-45893Y-38830D01*
X-46004Y-38507D01*
X-45903Y-37749D01*
X-45585Y-37097D01*
X-45050Y-36551D01*
X-44403Y-36328D01*
X-43645Y-36429D01*
X-43210Y-36641D01*
X-42664Y-37176D01*
X-42441Y-37823D01*
X-42542Y-38581D01*
X-42860Y-39233D01*
X-43395Y-39779D01*
X-43719Y-39891D01*
X-44260Y-39896D01*
X-42707Y6980D02*
X-43642Y7094D01*
X-44635Y6741D01*
X-45686Y5921D01*
X-46268Y5043D01*
X-46383Y4107D01*
X-45973Y3582D01*
X-45300Y3262D01*
X-44832Y3204D01*
X-44102Y3352D01*
X-42116Y4058D01*
X-41385Y4206D01*
X-40918Y4148D01*
X-40245Y3828D01*
X-39629Y3040D01*
X-39744Y2105D01*
X-40327Y1227D01*
X-41377Y406D01*
X-42370Y53D01*
X-43306Y168D01*
X-42088Y8732D02*
X-37779Y3217D01*
X-42088Y8732D02*
X-40250Y10168D01*
X-39257Y10521D01*
X-38321Y10406D01*
X-37648Y10086D01*
X-36770Y9503D01*
X-35744Y8190D01*
X-35391Y7197D01*
X-35243Y6467D01*
X-35358Y5531D01*
X-35941Y4653D01*
X-37779Y3217D01*
X-35601Y13800D02*
X-35921Y13127D01*
X-36036Y12191D01*
X-35889Y11461D01*
X-35536Y10468D01*
X-34510Y9155D01*
X-33632Y8572D01*
X-32959Y8252D01*
X-32023Y8137D01*
X-31293Y8285D01*
X-30242Y9105D01*
X-29922Y9778D01*
X-29807Y10714D01*
X-29955Y11444D01*
X-30308Y12437D01*
X-31334Y13750D01*
X-32212Y14333D01*
X-32885Y14653D01*
X-33821Y14768D01*
X-34551Y14620D01*
X-35601Y13800D01*
X-35742Y-1725D02*
X-36672Y-1577D01*
X-37677Y-1895D01*
X-38756Y-2679D01*
X-39369Y-3536D01*
X-39516Y-4467D01*
X-39124Y-5006D01*
X-38463Y-5350D01*
X-37997Y-5423D01*
X-37262Y-5301D01*
X-35253Y-4665D01*
X-34518Y-4543D01*
X-34052Y-4617D01*
X-33391Y-4960D01*
X-32803Y-5769D01*
X-32951Y-6700D01*
X-33564Y-7557D01*
X-34642Y-8341D01*
X-35647Y-8659D01*
X-36578Y-8511D01*
X-35062Y5D02*
X-30948Y-5657D01*
X-35062Y5D02*
X-33175Y1376D01*
X-32170Y1694D01*
X-31239Y1547D01*
X-30577Y1204D01*
X-29720Y591D01*
X-28741Y-758D01*
X-28423Y-1762D01*
X-28301Y-2497D01*
X-28448Y-3428D01*
X-29061Y-4286D01*
X-30948Y-5657D01*
X-30020Y3668D02*
X-25907Y-1994D01*
X-49107Y15280D02*
X-50042Y15394D01*
X-51035Y15042D01*
X-52086Y14221D01*
X-52668Y13343D01*
X-52783Y12407D01*
X-52373Y11882D01*
X-51700Y11562D01*
X-51232Y11504D01*
X-50502Y11652D01*
X-48516Y12358D01*
X-47785Y12506D01*
X-47318Y12448D01*
X-46645Y12128D01*
X-46029Y11340D01*
X-46144Y10405D01*
X-46727Y9527D01*
X-47777Y8706D01*
X-48770Y8353D01*
X-49706Y8468D01*
X-44196Y19116D02*
X-45131Y19231D01*
X-46124Y18878D01*
X-47175Y18058D01*
X-47758Y17179D01*
X-47872Y16244D01*
X-47462Y15719D01*
X-46789Y15399D01*
X-46321Y15341D01*
X-45591Y15489D01*
X-43605Y16195D01*
X-42874Y16343D01*
X-42407Y16285D01*
X-41734Y15965D01*
X-41118Y15177D01*
X-41233Y14242D01*
X-41816Y13363D01*
X-42866Y12543D01*
X-43859Y12190D01*
X-44795Y12305D01*
X-55874Y24679D02*
X-56807Y24810D01*
X-57807Y24474D01*
X-58871Y23672D01*
X-59469Y22804D01*
X-59600Y21871D01*
X-59199Y21339D01*
X-58532Y21007D01*
X-58065Y20941D01*
X-57332Y21076D01*
X-55334Y21747D01*
X-54601Y21882D01*
X-54135Y21817D01*
X-53467Y21485D01*
X-52866Y20686D01*
X-52997Y19753D01*
X-53595Y18885D01*
X-54659Y18083D01*
X-55658Y17747D01*
X-56592Y17879D01*
X-50230Y28098D02*
X-50897Y28429D01*
X-51830Y28560D01*
X-52563Y28425D01*
X-53628Y27623D01*
X-53960Y26956D01*
X-54091Y26022D01*
X-53956Y25290D01*
X-53620Y24290D01*
X-52618Y22960D01*
X-51750Y22362D01*
X-51082Y22030D01*
X-50149Y21899D01*
X-49416Y22034D01*
X-48351Y22836D01*
X-48020Y23503D01*
X-47888Y24437D01*
X-48024Y25170D01*
X-49662Y30612D02*
X-45450Y25022D01*
X-45936Y33419D02*
X-46854Y26885D01*
X-46526Y29219D02*
X-41724Y27830D01*
D33*
X-317690Y40117D02*
Y43116D01*
X-316691Y42116D01*
X-315691Y43116D01*
Y40117D01*
X-312692Y42116D02*
X-314191D01*
X-314691Y41616D01*
Y40616D01*
X-314191Y40117D01*
X-312692D01*
X-311692D02*
Y43116D01*
X-310692Y42116D01*
X-309693Y43116D01*
Y40117D01*
X-308193Y42116D02*
X-307194D01*
X-306694Y41616D01*
Y40117D01*
X-308193D01*
X-308693Y40616D01*
X-308193Y41116D01*
X-306694D01*
X-305694Y40117D02*
X-304195D01*
X-303695Y40616D01*
X-304195Y41116D01*
X-305194D01*
X-305694Y41616D01*
X-305194Y42116D01*
X-303695D01*
X-302195Y42616D02*
Y42116D01*
X-302695D01*
X-301695D01*
X-302195D01*
Y40616D01*
X-301695Y40117D01*
X-298696D02*
X-299696D01*
X-300196Y40616D01*
Y41616D01*
X-299696Y42116D01*
X-298696D01*
X-298197Y41616D01*
Y41116D01*
X-300196D01*
X-297197Y42116D02*
Y40117D01*
Y41116D01*
X-296697Y41616D01*
X-296197Y42116D01*
X-295697D01*
X-291199Y43116D02*
Y40616D01*
X-290699Y40117D01*
X-289699D01*
X-289199Y40616D01*
Y43116D01*
X-288200Y40117D02*
Y42116D01*
X-286700D01*
X-286200Y41616D01*
Y40117D01*
X-285201D02*
X-284201D01*
X-284701D01*
Y42116D01*
X-285201D01*
X-282701D02*
X-281702Y40117D01*
X-280702Y42116D01*
X-278203Y40117D02*
X-279203D01*
X-279702Y40616D01*
Y41616D01*
X-279203Y42116D01*
X-278203D01*
X-277703Y41616D01*
Y41116D01*
X-279702D01*
X-276703Y42116D02*
Y40117D01*
Y41116D01*
X-276204Y41616D01*
X-275704Y42116D01*
X-275204D01*
X-273704Y40117D02*
X-272205D01*
X-271705Y40616D01*
X-272205Y41116D01*
X-273205D01*
X-273704Y41616D01*
X-273205Y42116D01*
X-271705D01*
X-270705Y40117D02*
X-269706D01*
X-270205D01*
Y42116D01*
X-270705D01*
X-267706Y42616D02*
Y42116D01*
X-268206D01*
X-267206D01*
X-267706D01*
Y40616D01*
X-267206Y40117D01*
X-265707Y42116D02*
Y40616D01*
X-265207Y40117D01*
X-263708D01*
Y39617D01*
X-264207Y39117D01*
X-264707D01*
X-263708Y40117D02*
Y42116D01*
X-317690Y36597D02*
Y33598D01*
X-316691Y34598D01*
X-315691Y33598D01*
Y36597D01*
X-314691Y33598D02*
X-313691D01*
X-314191D01*
Y35598D01*
X-314691D01*
X-312192D02*
Y33598D01*
Y34598D01*
X-311692Y35098D01*
X-311192Y35598D01*
X-310692D01*
X-307693Y33598D02*
X-308693D01*
X-309193Y34098D01*
Y35098D01*
X-308693Y35598D01*
X-307693D01*
X-307194Y35098D01*
Y34598D01*
X-309193D01*
X-306194Y33598D02*
X-305194D01*
X-305694D01*
Y36597D01*
X-306194D01*
X-302195Y33598D02*
X-303195D01*
X-303695Y34098D01*
Y35098D01*
X-303195Y35598D01*
X-302195D01*
X-301695Y35098D01*
Y34598D01*
X-303695D01*
X-300696Y33598D02*
X-299196D01*
X-298696Y34098D01*
X-299196Y34598D01*
X-300196D01*
X-300696Y35098D01*
X-300196Y35598D01*
X-298696D01*
X-297697Y33598D02*
X-296197D01*
X-295697Y34098D01*
X-296197Y34598D01*
X-297197D01*
X-297697Y35098D01*
X-297197Y35598D01*
X-295697D01*
X-289699Y36097D02*
X-290199Y36597D01*
X-291199D01*
X-291699Y36097D01*
Y35598D01*
X-291199Y35098D01*
X-290199D01*
X-289699Y34598D01*
Y34098D01*
X-290199Y33598D01*
X-291199D01*
X-291699Y34098D01*
X-288699Y35598D02*
Y34098D01*
X-288200Y33598D01*
X-286700D01*
Y33098D01*
X-287200Y32599D01*
X-287700D01*
X-286700Y33598D02*
Y35598D01*
X-285700Y33598D02*
X-284201D01*
X-283701Y34098D01*
X-284201Y34598D01*
X-285201D01*
X-285700Y35098D01*
X-285201Y35598D01*
X-283701D01*
X-282202Y36097D02*
Y35598D01*
X-282701D01*
X-281702D01*
X-282202D01*
Y34098D01*
X-281702Y33598D01*
X-278703D02*
X-279702D01*
X-280202Y34098D01*
Y35098D01*
X-279702Y35598D01*
X-278703D01*
X-278203Y35098D01*
Y34598D01*
X-280202D01*
X-277203Y33598D02*
Y35598D01*
X-276703D01*
X-276204Y35098D01*
Y33598D01*
Y35098D01*
X-275704Y35598D01*
X-275204Y35098D01*
Y33598D01*
X-274204D02*
X-272705D01*
X-272205Y34098D01*
X-272705Y34598D01*
X-273704D01*
X-274204Y35098D01*
X-273704Y35598D01*
X-272205D01*
X-317690Y27080D02*
Y30079D01*
X-316191D01*
X-315691Y29579D01*
Y28579D01*
X-316191Y28079D01*
X-317690D01*
X-316691D02*
X-315691Y27080D01*
X-313192D02*
X-314191D01*
X-314691Y27580D01*
Y28579D01*
X-314191Y29079D01*
X-313192D01*
X-312692Y28579D01*
Y28079D01*
X-314691D01*
X-311692Y27080D02*
X-310193D01*
X-309693Y27580D01*
X-310193Y28079D01*
X-311192D01*
X-311692Y28579D01*
X-311192Y29079D01*
X-309693D01*
X-307194Y27080D02*
X-308193D01*
X-308693Y27580D01*
Y28579D01*
X-308193Y29079D01*
X-307194D01*
X-306694Y28579D01*
Y28079D01*
X-308693D01*
X-305194Y29079D02*
X-304195D01*
X-303695Y28579D01*
Y27080D01*
X-305194D01*
X-305694Y27580D01*
X-305194Y28079D01*
X-303695D01*
X-302695Y29079D02*
Y27080D01*
Y28079D01*
X-302195Y28579D01*
X-301695Y29079D01*
X-301196D01*
X-297697D02*
X-299196D01*
X-299696Y28579D01*
Y27580D01*
X-299196Y27080D01*
X-297697D01*
X-296697Y30079D02*
Y27080D01*
Y28579D01*
X-296197Y29079D01*
X-295197D01*
X-294698Y28579D01*
Y27080D01*
X-288699Y29579D02*
X-289199Y30079D01*
X-290199D01*
X-290699Y29579D01*
Y27580D01*
X-290199Y27080D01*
X-289199D01*
X-288699Y27580D01*
Y28579D01*
X-289699D01*
X-287700Y29079D02*
Y27080D01*
Y28079D01*
X-287200Y28579D01*
X-286700Y29079D01*
X-286200D01*
X-284201Y27080D02*
X-283201D01*
X-282701Y27580D01*
Y28579D01*
X-283201Y29079D01*
X-284201D01*
X-284701Y28579D01*
Y27580D01*
X-284201Y27080D01*
X-281702Y29079D02*
Y27580D01*
X-281202Y27080D01*
X-279702D01*
Y29079D01*
X-278703Y26080D02*
Y29079D01*
X-277203D01*
X-276703Y28579D01*
Y27580D01*
X-277203Y27080D01*
X-278703D01*
M02*
