G04*
G04 #@! TF.GenerationSoftware,Altium Limited,Altium Designer,22.6.1 (34)*
G04*
G04 Layer_Color=16711935*
%FSLAX44Y44*%
%MOMM*%
G71*
G04*
G04 #@! TF.SameCoordinates,55340204-0453-48C6-9AD9-4A0BB80BD5D4*
G04*
G04*
G04 #@! TF.FilePolarity,Negative*
G04*
G01*
G75*
%ADD36C,0.3032*%
%ADD37C,1.8032*%
%ADD38R,1.8032X1.8032*%
%ADD39R,1.8032X1.8032*%
G04:AMPARAMS|DCode=40|XSize=1.0032mm|YSize=2.0032mm|CornerRadius=0mm|HoleSize=0mm|Usage=FLASHONLY|Rotation=350.000|XOffset=0mm|YOffset=0mm|HoleType=Round|Shape=Round|*
%AMOVALD40*
21,1,1.0000,1.0032,0.0000,0.0000,80.0*
1,1,1.0032,-0.0868,-0.4924*
1,1,1.0032,0.0868,0.4924*
%
%ADD40OVALD40*%

G04:AMPARAMS|DCode=41|XSize=1.0032mm|YSize=2.0032mm|CornerRadius=0mm|HoleSize=0mm|Usage=FLASHONLY|Rotation=357.000|XOffset=0mm|YOffset=0mm|HoleType=Round|Shape=Round|*
%AMOVALD41*
21,1,1.0000,1.0032,0.0000,0.0000,87.0*
1,1,1.0032,-0.0262,-0.4993*
1,1,1.0032,0.0262,0.4993*
%
%ADD41OVALD41*%

G04:AMPARAMS|DCode=42|XSize=1.0032mm|YSize=2.0032mm|CornerRadius=0mm|HoleSize=0mm|Usage=FLASHONLY|Rotation=244.000|XOffset=0mm|YOffset=0mm|HoleType=Round|Shape=Round|*
%AMOVALD42*
21,1,1.0000,1.0032,0.0000,0.0000,334.0*
1,1,1.0032,-0.4494,0.2192*
1,1,1.0032,0.4494,-0.2192*
%
%ADD42OVALD42*%

G04:AMPARAMS|DCode=43|XSize=1.0032mm|YSize=2.0032mm|CornerRadius=0mm|HoleSize=0mm|Usage=FLASHONLY|Rotation=154.000|XOffset=0mm|YOffset=0mm|HoleType=Round|Shape=Round|*
%AMOVALD43*
21,1,1.0000,1.0032,0.0000,0.0000,244.0*
1,1,1.0032,0.2192,0.4494*
1,1,1.0032,-0.2192,-0.4494*
%
%ADD43OVALD43*%

G04:AMPARAMS|DCode=44|XSize=1.0032mm|YSize=2.0032mm|CornerRadius=0mm|HoleSize=0mm|Usage=FLASHONLY|Rotation=155.000|XOffset=0mm|YOffset=0mm|HoleType=Round|Shape=Round|*
%AMOVALD44*
21,1,1.0000,1.0032,0.0000,0.0000,245.0*
1,1,1.0032,0.2113,0.4532*
1,1,1.0032,-0.2113,-0.4532*
%
%ADD44OVALD44*%

G04:AMPARAMS|DCode=45|XSize=1.0032mm|YSize=2.0032mm|CornerRadius=0mm|HoleSize=0mm|Usage=FLASHONLY|Rotation=309.000|XOffset=0mm|YOffset=0mm|HoleType=Round|Shape=Round|*
%AMOVALD45*
21,1,1.0000,1.0032,0.0000,0.0000,39.0*
1,1,1.0032,-0.3886,-0.3147*
1,1,1.0032,0.3886,0.3147*
%
%ADD45OVALD45*%

G04:AMPARAMS|DCode=46|XSize=1.0032mm|YSize=2.0032mm|CornerRadius=0mm|HoleSize=0mm|Usage=FLASHONLY|Rotation=308.000|XOffset=0mm|YOffset=0mm|HoleType=Round|Shape=Round|*
%AMOVALD46*
21,1,1.0000,1.0032,0.0000,0.0000,38.0*
1,1,1.0032,-0.3940,-0.3078*
1,1,1.0032,0.3940,0.3078*
%
%ADD46OVALD46*%

G04:AMPARAMS|DCode=47|XSize=1.0032mm|YSize=2.0032mm|CornerRadius=0mm|HoleSize=0mm|Usage=FLASHONLY|Rotation=245.000|XOffset=0mm|YOffset=0mm|HoleType=Round|Shape=Round|*
%AMOVALD47*
21,1,1.0000,1.0032,0.0000,0.0000,335.0*
1,1,1.0032,-0.4532,0.2113*
1,1,1.0032,0.4532,-0.2113*
%
%ADD47OVALD47*%

%ADD48C,1.0032*%
D36*
X623570Y191770D02*
D03*
X633730Y191770D02*
D03*
X-654050Y195580D02*
D03*
X-633732Y195850D02*
D03*
X-643890Y195580D02*
D03*
X-623573Y195850D02*
D03*
X-613415D02*
D03*
X-664210Y195580D02*
D03*
X582930Y-176530D02*
D03*
X101600Y191770D02*
D03*
X121920Y191770D02*
D03*
X111760Y191770D02*
D03*
X132080D02*
D03*
X142240Y191770D02*
D03*
X48260Y191770D02*
D03*
X68580D02*
D03*
X58420Y191770D02*
D03*
X78740Y191770D02*
D03*
X88900Y191770D02*
D03*
X100330Y-176530D02*
D03*
X120650D02*
D03*
X110490D02*
D03*
X130810D02*
D03*
X140970D02*
D03*
X48260D02*
D03*
X68580D02*
D03*
X58420D02*
D03*
X78740D02*
D03*
X88900D02*
D03*
X635000D02*
D03*
X624840Y-176530D02*
D03*
X604520Y-176530D02*
D03*
X614680Y-176530D02*
D03*
X594360D02*
D03*
X-666747Y-176530D02*
D03*
X612140Y191770D02*
D03*
X591820Y191770D02*
D03*
X601980Y191770D02*
D03*
X581660Y191770D02*
D03*
X-614685Y-176530D02*
D03*
X-624843D02*
D03*
X-645160D02*
D03*
X-635002D02*
D03*
X-655319D02*
D03*
X-595630Y-8891D02*
D03*
X-595630Y11430D02*
D03*
X-595630Y1270D02*
D03*
X-595630Y21590D02*
D03*
X-595629Y31750D02*
D03*
X562610Y31751D02*
D03*
X562610Y11430D02*
D03*
X562610Y21590D02*
D03*
X562610Y1270D02*
D03*
X562609Y-8890D02*
D03*
X473711Y194310D02*
D03*
X453390Y194310D02*
D03*
X463550Y194310D02*
D03*
X443230Y194310D02*
D03*
X433070Y194310D02*
D03*
X284480Y194310D02*
D03*
X264160Y194310D02*
D03*
X274320Y194310D02*
D03*
X254000Y194310D02*
D03*
X243840Y194310D02*
D03*
X25400Y31750D02*
D03*
Y11430D02*
D03*
X25400Y21590D02*
D03*
X25400Y1270D02*
D03*
Y-8890D02*
D03*
X162560Y31750D02*
D03*
Y11430D02*
D03*
X162560Y21590D02*
D03*
X162560Y1270D02*
D03*
Y-8890D02*
D03*
X473710Y-176530D02*
D03*
X453390D02*
D03*
X463550D02*
D03*
X443230D02*
D03*
X433070D02*
D03*
X284480D02*
D03*
X264160D02*
D03*
X274320D02*
D03*
X254000D02*
D03*
X243840D02*
D03*
X-107950D02*
D03*
X-128270D02*
D03*
X-118110D02*
D03*
X-138430D02*
D03*
X-148590D02*
D03*
X-444500D02*
D03*
X-464820D02*
D03*
X-454660D02*
D03*
X-474980D02*
D03*
X-485140D02*
D03*
X-107950Y195580D02*
D03*
X-128270D02*
D03*
X-118110D02*
D03*
X-138430D02*
D03*
X-148590D02*
D03*
X-444500D02*
D03*
X-464820D02*
D03*
X-454660D02*
D03*
X-474980D02*
D03*
X-485140D02*
D03*
D37*
X-280190Y-122720D02*
D03*
X-402191Y53580D02*
D03*
Y28180D02*
D03*
Y2780D02*
D03*
Y-22620D02*
D03*
Y-48020D02*
D03*
Y-73420D02*
D03*
X-191490Y136780D02*
D03*
D38*
X-305590Y-122720D02*
D03*
X-216890Y136780D02*
D03*
D39*
X-402191Y78980D02*
D03*
D40*
X-196369Y68334D02*
D03*
D41*
X-207833Y69276D02*
D03*
D42*
X-68394Y-62135D02*
D03*
D43*
X-129005Y-54516D02*
D03*
D44*
X-118458Y-60039D02*
D03*
D45*
X-70659Y8468D02*
D03*
X-57659Y-8532D02*
D03*
D46*
X-64226Y-73D02*
D03*
X-51226Y-16673D02*
D03*
D47*
X-59371Y-30988D02*
D03*
D48*
X470570Y-4050D02*
D03*
X484070Y-21250D02*
D03*
X464070Y4750D02*
D03*
X409870Y-54050D02*
D03*
X420370Y-59550D02*
D03*
X340670Y63150D02*
D03*
X475470Y-31950D02*
D03*
X466470Y-63050D02*
D03*
X477370Y-12550D02*
D03*
X329570Y64050D02*
D03*
M02*
