M48
;Layer_Color=9474304
;FILE_FORMAT=4:4
METRIC,LZ
;TYPE=PLATED
T1F00S00C0.5100
T2F00S00C0.6900
T3F00S00C1.1000
T4F00S00C2.9464
;TYPE=NON_PLATED
T5F00S00C0.7620
%
T01
X-0012769Y-0005182
X-0011719Y-0005732
X-0007109Y-0006082
X-0006209Y-0002972
X-0005359Y-0001852
X-0005999Y-0001042
X-0006659Y-0000192
X-0007299Y0000658
X-0019689Y0006538
X-0020799Y0006628
T02
X0046647Y-0006305
X0047547Y-0003195
X0048407Y-0002125
X0047737Y-0001255
X0047057Y-0000405
X0046407Y0000475
X0042037Y-0005955
X0040987Y-0005405
X0034067Y0006315
X0032957Y0006405
T03
X-0030559Y-0012272
X-0028019Y-0012272
X-00402191Y-0007342
Y-0004802
Y-0002262
Y0000278
Y0002818
Y0005358
Y0007898
X-0021689Y0013678
X-0019149Y0013678
T04
X0045147Y-0010965
X0026637Y-0002955
X-0008599Y-0010752
X-0027099Y-0002732
X-0029299Y0010668
X-0012209Y0008608
X0024457Y0010455
X0041537Y0008375
T05
X0043307Y-0017653
X0044323
X0045339
X0046355
X0047371
X0058293Y-0017653
X0059436Y-0017653
X0060452Y-0017653
X0061468Y-0017653
X0062484
X00635Y-0017653
X00562609Y-0000889
X0056261Y0000127
X0056261Y0001143
X0056261Y0002159
X0056261Y00031751
X0016256Y0003175
X0016256Y0002159
X0016256Y0001143
Y0000127
Y-0000889
X0014097Y-0017653
X0013081
X0012065
X0011049
X0010033
X000889
X0007874
X0006858
X0005842
X0004826
X0024384
X00254
X0026416
X0027432
X0028448
X-0010795
X-0011811
X-0012827
X-0013843
X-0014859
X000254Y-0000889
Y0000127
Y0001143
X000254Y0002159
X000254Y0003175
X-00595629Y0003175
X-0059563Y0002159
X-0059563Y0001143
X-0059563Y0000127
X-0059563Y-00008891
X-00614685Y-0017653
X-00624843
X-00635002
X-0064516
X-00655319
X-00666747
X-0048514
X-0047498
X-0046482
X-0045466
X-004445
Y0019558
X-0045466
X-0046482
X-0047498
X-0048514
X-00613415Y0019585
X-00623573
X-00633732
X-0064389Y0019558
X-0065405
X-0066421
X-0014859
X-0013843
X-0012827
X-0011811
X-0010795
X0004826Y0019177
X0005842Y0019177
X0006858Y0019177
X0007874Y0019177
X000889Y0019177
X001016Y0019177
X0011176Y0019177
X0012192Y0019177
X0013208Y0019177
X0014224Y0019177
X0024384Y0019431
X00254Y0019431
X0026416Y0019431
X0027432Y0019431
X0028448Y0019431
X0043307Y0019431
X0044323Y0019431
X0045339Y0019431
X0046355Y0019431
X00473711Y0019431
X0058166Y0019177
X0059182Y0019177
X0060198Y0019177
X0061214Y0019177
X0062357Y0019177
X0063373Y0019177
M30
