G04*
G04 #@! TF.GenerationSoftware,Altium Limited,Altium Designer,22.6.1 (34)*
G04*
G04 Layer_Color=8388736*
%FSLAX44Y44*%
%MOMM*%
G71*
G04*
G04 #@! TF.SameCoordinates,55340204-0453-48C6-9AD9-4A0BB80BD5D4*
G04*
G04*
G04 #@! TF.FilePolarity,Positive*
G04*
G01*
G75*
%ADD49C,3.0000*%
D49*
X562370Y177800D02*
G03*
X547370Y192800I-15000J0D01*
G01*
X562370Y177800D02*
G03*
X547370Y192800I-15000J0D01*
G01*
Y-176700D02*
G03*
X562370Y-161700I0J15000D01*
G01*
X547370Y-176700D02*
G03*
X562370Y-161700I0J15000D01*
G01*
X177370Y192800D02*
G03*
X162370Y177800I0J-15000D01*
G01*
X177370Y192800D02*
G03*
X162370Y177800I0J-15000D01*
G01*
Y-161700D02*
G03*
X177370Y-176700I15000J0D01*
G01*
X162370Y-161700D02*
G03*
X177370Y-176700I15000J0D01*
G01*
X24610Y179480D02*
G03*
X9610Y194480I-15000J0D01*
G01*
X24610Y179480D02*
G03*
X9610Y194480I-15000J0D01*
G01*
Y-175020D02*
G03*
X24610Y-160020I0J15000D01*
G01*
X9610Y-175020D02*
G03*
X24610Y-160020I0J15000D01*
G01*
X-580390Y194480D02*
G03*
X-595390Y179480I0J-15000D01*
G01*
X-580390Y194480D02*
G03*
X-595390Y179480I0J-15000D01*
G01*
Y-160020D02*
G03*
X-580390Y-175020I15000J0D01*
G01*
X-595390Y-160020D02*
G03*
X-580390Y-175020I15000J0D01*
G01*
X162370Y51435D02*
Y177800D01*
Y-161700D02*
Y-28575D01*
X24610Y51435D02*
Y194310D01*
Y-175260D02*
Y-28575D01*
X562370Y51435D02*
Y177800D01*
Y-161700D02*
Y-28575D01*
X-595390Y51435D02*
Y179480D01*
Y-160020D02*
Y-28575D01*
X493395Y192800D02*
X547370D01*
X304165D02*
X413385D01*
X493395Y-176700D02*
X547370D01*
X304165D02*
X413385D01*
X177370Y192800D02*
X224155D01*
X177370Y-176700D02*
X224155D01*
X-88265Y194480D02*
X9610D01*
X-424815D02*
X-168275D01*
X-88265Y-175020D02*
X9610D01*
X-424815D02*
X-168275D01*
X-580390Y194480D02*
X-504825D01*
X-580390Y-175020D02*
X-504825D01*
M02*
