G04*
G04 #@! TF.GenerationSoftware,Altium Limited,Altium Designer,22.6.1 (34)*
G04*
G04 Layer_Physical_Order=2*
G04 Layer_Color=16711680*
%FSLAX44Y44*%
%MOMM*%
G71*
G04*
G04 #@! TF.SameCoordinates,55340204-0453-48C6-9AD9-4A0BB80BD5D4*
G04*
G04*
G04 #@! TF.FilePolarity,Positive*
G04*
G01*
G75*
%ADD14C,0.1000*%
%ADD15C,1.6000*%
%ADD16R,1.6000X1.6000*%
%ADD17R,1.6000X1.6000*%
G04:AMPARAMS|DCode=18|XSize=0.8mm|YSize=1.8mm|CornerRadius=0mm|HoleSize=0mm|Usage=FLASHONLY|Rotation=350.000|XOffset=0mm|YOffset=0mm|HoleType=Round|Shape=Round|*
%AMOVALD18*
21,1,1.0000,0.8000,0.0000,0.0000,80.0*
1,1,0.8000,-0.0868,-0.4924*
1,1,0.8000,0.0868,0.4924*
%
%ADD18OVALD18*%

G04:AMPARAMS|DCode=19|XSize=0.8mm|YSize=1.8mm|CornerRadius=0mm|HoleSize=0mm|Usage=FLASHONLY|Rotation=357.000|XOffset=0mm|YOffset=0mm|HoleType=Round|Shape=Round|*
%AMOVALD19*
21,1,1.0000,0.8000,0.0000,0.0000,87.0*
1,1,0.8000,-0.0262,-0.4993*
1,1,0.8000,0.0262,0.4993*
%
%ADD19OVALD19*%

G04:AMPARAMS|DCode=20|XSize=0.8mm|YSize=1.8mm|CornerRadius=0mm|HoleSize=0mm|Usage=FLASHONLY|Rotation=244.000|XOffset=0mm|YOffset=0mm|HoleType=Round|Shape=Round|*
%AMOVALD20*
21,1,1.0000,0.8000,0.0000,0.0000,334.0*
1,1,0.8000,-0.4494,0.2192*
1,1,0.8000,0.4494,-0.2192*
%
%ADD20OVALD20*%

G04:AMPARAMS|DCode=21|XSize=0.8mm|YSize=1.8mm|CornerRadius=0mm|HoleSize=0mm|Usage=FLASHONLY|Rotation=154.000|XOffset=0mm|YOffset=0mm|HoleType=Round|Shape=Round|*
%AMOVALD21*
21,1,1.0000,0.8000,0.0000,0.0000,244.0*
1,1,0.8000,0.2192,0.4494*
1,1,0.8000,-0.2192,-0.4494*
%
%ADD21OVALD21*%

G04:AMPARAMS|DCode=22|XSize=0.8mm|YSize=1.8mm|CornerRadius=0mm|HoleSize=0mm|Usage=FLASHONLY|Rotation=155.000|XOffset=0mm|YOffset=0mm|HoleType=Round|Shape=Round|*
%AMOVALD22*
21,1,1.0000,0.8000,0.0000,0.0000,245.0*
1,1,0.8000,0.2113,0.4532*
1,1,0.8000,-0.2113,-0.4532*
%
%ADD22OVALD22*%

G04:AMPARAMS|DCode=23|XSize=0.8mm|YSize=1.8mm|CornerRadius=0mm|HoleSize=0mm|Usage=FLASHONLY|Rotation=309.000|XOffset=0mm|YOffset=0mm|HoleType=Round|Shape=Round|*
%AMOVALD23*
21,1,1.0000,0.8000,0.0000,0.0000,39.0*
1,1,0.8000,-0.3886,-0.3147*
1,1,0.8000,0.3886,0.3147*
%
%ADD23OVALD23*%

G04:AMPARAMS|DCode=24|XSize=0.8mm|YSize=1.8mm|CornerRadius=0mm|HoleSize=0mm|Usage=FLASHONLY|Rotation=308.000|XOffset=0mm|YOffset=0mm|HoleType=Round|Shape=Round|*
%AMOVALD24*
21,1,1.0000,0.8000,0.0000,0.0000,38.0*
1,1,0.8000,-0.3940,-0.3078*
1,1,0.8000,0.3940,0.3078*
%
%ADD24OVALD24*%

G04:AMPARAMS|DCode=25|XSize=0.8mm|YSize=1.8mm|CornerRadius=0mm|HoleSize=0mm|Usage=FLASHONLY|Rotation=245.000|XOffset=0mm|YOffset=0mm|HoleType=Round|Shape=Round|*
%AMOVALD25*
21,1,1.0000,0.8000,0.0000,0.0000,335.0*
1,1,0.8000,-0.4532,0.2113*
1,1,0.8000,0.4532,-0.2113*
%
%ADD25OVALD25*%

%ADD26C,6.3500*%
%ADD27C,0.8000*%
G36*
X4610Y-152720D02*
X-574790D01*
Y172780D01*
X-574090Y173480D01*
X4610D01*
Y-152720D01*
D02*
G37*
%LPC*%
G36*
X-203769Y153193D02*
X-230612D01*
X-230787Y153158D01*
X-230965D01*
X-231114Y153128D01*
X-231279Y153060D01*
X-231305Y153055D01*
X-231328Y153040D01*
X-231768Y152858D01*
X-231768Y152858D01*
X-231768Y152858D01*
X-232018Y152607D01*
X-232268Y152358D01*
X-232268Y152357D01*
X-232268Y152357D01*
X-232450Y151917D01*
X-232465Y151895D01*
X-232470Y151869D01*
X-232539Y151704D01*
Y151704D01*
X-232539Y151704D01*
X-232568Y151555D01*
X-232568Y151376D01*
X-232603Y151201D01*
Y25272D01*
X-232576Y25136D01*
Y25110D01*
X-232568Y25071D01*
Y24918D01*
X-232541Y24783D01*
X-232493Y24667D01*
X-232465Y24486D01*
X-232445Y24454D01*
X-232438Y24417D01*
X-232317Y24236D01*
X-232288Y24155D01*
X-232276Y24143D01*
X-232271Y24129D01*
X-232211Y24069D01*
X-232096Y23882D01*
X-232066Y23860D01*
X-232045Y23829D01*
X-231893Y23727D01*
X-231808Y23635D01*
X-231696Y23553D01*
X-231557Y23489D01*
X-231525Y23465D01*
X-231502Y23455D01*
X-231390Y23373D01*
X-155971Y-11565D01*
X-155833Y-11598D01*
X-155830Y-11600D01*
X-155815Y-11604D01*
X-155797Y-11616D01*
X-155763Y-11630D01*
X-155693Y-11644D01*
X-155562Y-11698D01*
X-155457Y-11719D01*
X-155353Y-11744D01*
X-155212Y-11750D01*
X-155143Y-11767D01*
X-155105Y-11768D01*
X-155085Y-11765D01*
X-155069Y-11768D01*
X-155065Y-11767D01*
X-154926Y-11795D01*
X-97994Y-11795D01*
X-86003Y-23786D01*
Y-43945D01*
X-85865Y-44639D01*
X-85472Y-45227D01*
X-84276Y-46423D01*
X-83688Y-46816D01*
X-82994Y-46954D01*
X-81610D01*
X-34269Y-46954D01*
X-34094Y-46919D01*
X-33915D01*
X-33766Y-46889D01*
X-33601Y-46821D01*
X-33575Y-46816D01*
X-33553Y-46801D01*
X-33113Y-46619D01*
X-33113Y-46619D01*
X-33112Y-46619D01*
X-32862Y-46368D01*
X-32612Y-46119D01*
X-32612Y-46118D01*
X-32612Y-46118D01*
X-32430Y-45678D01*
X-32415Y-45656D01*
X-32410Y-45630D01*
X-32342Y-45465D01*
Y-45465D01*
X-32342Y-45465D01*
X-32312Y-45316D01*
X-32312Y-45138D01*
X-32277Y-44962D01*
Y202D01*
X-32312Y377D01*
Y555D01*
X-32345Y720D01*
X-32345Y720D01*
Y720D01*
X-32413Y885D01*
X-32415Y895D01*
X-32421Y904D01*
X-32540Y1190D01*
X-32542Y1200D01*
X-32547Y1208D01*
X-32616Y1373D01*
X-32616Y1373D01*
X-32616Y1374D01*
X-32709Y1514D01*
X-32835Y1640D01*
X-32935Y1788D01*
X-59582Y28436D01*
X-59731Y28535D01*
X-59857Y28661D01*
X-59997Y28754D01*
X-59997Y28754D01*
X-59997Y28755D01*
X-60162Y28823D01*
X-60170Y28828D01*
X-60180Y28830D01*
X-60467Y28949D01*
X-60475Y28955D01*
X-60485Y28957D01*
X-60650Y29025D01*
X-60650D01*
X-60650Y29025D01*
X-60815Y29058D01*
X-60994D01*
X-61169Y29093D01*
X-164426D01*
X-201777Y44163D01*
Y57042D01*
X-200507Y57739D01*
X-200025Y57432D01*
X-199605Y57299D01*
X-197620Y68555D01*
X-195635Y79811D01*
X-196076Y79830D01*
X-197757Y79457D01*
X-199284Y78662D01*
X-200554Y77498D01*
X-200936Y76900D01*
X-202427Y76923D01*
X-203193Y78211D01*
X-202782Y79489D01*
X-202774Y79495D01*
X-202757Y79511D01*
X-202627Y79592D01*
X-202515Y79699D01*
X-202493Y79713D01*
X-202476Y79729D01*
X-202469Y79740D01*
X-202313Y79844D01*
X-202227Y79973D01*
X-202114Y80079D01*
X-202032Y80264D01*
X-201920Y80432D01*
X-201890Y80584D01*
X-201827Y80725D01*
X-201822Y80913D01*
X-201817Y80925D01*
X-201812Y80948D01*
Y80973D01*
X-201782Y81125D01*
Y81279D01*
X-201777Y81301D01*
Y130978D01*
X-200507Y131318D01*
X-199924Y130308D01*
X-197962Y128346D01*
X-195558Y126958D01*
X-192878Y126240D01*
X-192760D01*
Y136780D01*
Y147320D01*
X-192878D01*
X-195558Y146602D01*
X-197962Y145214D01*
X-199924Y143252D01*
X-200507Y142242D01*
X-201777Y142582D01*
Y151201D01*
X-201812Y151377D01*
Y151555D01*
X-201842Y151704D01*
X-201910Y151869D01*
X-201915Y151895D01*
X-201930Y151917D01*
X-202113Y152358D01*
X-202113Y152358D01*
X-202113Y152358D01*
X-202363Y152608D01*
X-202613Y152858D01*
X-202613Y152858D01*
X-202613Y152858D01*
X-203053Y153040D01*
X-203075Y153055D01*
X-203101Y153060D01*
X-203266Y153128D01*
X-203266D01*
X-203266Y153128D01*
X-203415Y153158D01*
X-203594Y153158D01*
X-203769Y153193D01*
D02*
G37*
G36*
X-190103Y147320D02*
X-190220D01*
Y138050D01*
X-180950D01*
Y138168D01*
X-181668Y140848D01*
X-183056Y143252D01*
X-185019Y145214D01*
X-187422Y146602D01*
X-190103Y147320D01*
D02*
G37*
G36*
X-180950Y135510D02*
X-190220D01*
Y126240D01*
X-190103D01*
X-187422Y126958D01*
X-185019Y128346D01*
X-183056Y130308D01*
X-181668Y132712D01*
X-180950Y135393D01*
Y135510D01*
D02*
G37*
G36*
X-290351Y140208D02*
X-295629D01*
X-300841Y139382D01*
X-305860Y137752D01*
X-310563Y135356D01*
X-314832Y132254D01*
X-318564Y128522D01*
X-321666Y124253D01*
X-324062Y119550D01*
X-325693Y114531D01*
X-326518Y109319D01*
Y104041D01*
X-325693Y98829D01*
X-324062Y93810D01*
X-321666Y89108D01*
X-318564Y84838D01*
X-314832Y81106D01*
X-310563Y78004D01*
X-305860Y75608D01*
X-300841Y73978D01*
X-295629Y73152D01*
X-290351D01*
X-285139Y73978D01*
X-280120Y75608D01*
X-275418Y78004D01*
X-271148Y81106D01*
X-267416Y84838D01*
X-264314Y89108D01*
X-261919Y93810D01*
X-260288Y98829D01*
X-259462Y104041D01*
Y109319D01*
X-260288Y114531D01*
X-261919Y119550D01*
X-264314Y124253D01*
X-267416Y128522D01*
X-271148Y132254D01*
X-275418Y135356D01*
X-280120Y137752D01*
X-285139Y139382D01*
X-290351Y140208D01*
D02*
G37*
G36*
X-392413Y88758D02*
X-411968D01*
Y69202D01*
X-392413D01*
Y88758D01*
D02*
G37*
G36*
X-193134Y79370D02*
X-194898Y69365D01*
X-189653Y68440D01*
X-189005Y72113D01*
X-188930Y73833D01*
X-189302Y75514D01*
X-190098Y77042D01*
X-191261Y78312D01*
X-192713Y79237D01*
X-193134Y79370D01*
D02*
G37*
G36*
X-195339Y66863D02*
X-197103Y56858D01*
X-196663Y56839D01*
X-194981Y57212D01*
X-193454Y58007D01*
X-192184Y59170D01*
X-191259Y60623D01*
X-190741Y62265D01*
X-190093Y65938D01*
X-195339Y66863D01*
D02*
G37*
G36*
X-119452Y119608D02*
X-124729D01*
X-129941Y118782D01*
X-134960Y117152D01*
X-139663Y114756D01*
X-143932Y111654D01*
X-147664Y107922D01*
X-150766Y103652D01*
X-153162Y98950D01*
X-154793Y93931D01*
X-155618Y88719D01*
Y83441D01*
X-154793Y78229D01*
X-153162Y73210D01*
X-150766Y68507D01*
X-147664Y64238D01*
X-143932Y60506D01*
X-139663Y57404D01*
X-134960Y55008D01*
X-129941Y53377D01*
X-124729Y52552D01*
X-119452D01*
X-114239Y53377D01*
X-109220Y55008D01*
X-104518Y57404D01*
X-100248Y60506D01*
X-96516Y64238D01*
X-93414Y68507D01*
X-91018Y73210D01*
X-89388Y78229D01*
X-88562Y83441D01*
Y88719D01*
X-89388Y93931D01*
X-91018Y98950D01*
X-93414Y103652D01*
X-96516Y107922D01*
X-100248Y111654D01*
X-104518Y114756D01*
X-109220Y117152D01*
X-114239Y118782D01*
X-119452Y119608D01*
D02*
G37*
G36*
X-400903Y63358D02*
X-403478D01*
X-405965Y62691D01*
X-408194Y61404D01*
X-410015Y59584D01*
X-411302Y57354D01*
X-411968Y54867D01*
Y52292D01*
X-411302Y49806D01*
X-410015Y47576D01*
X-408194Y45755D01*
X-405965Y44468D01*
X-403478Y43802D01*
X-400903D01*
X-398416Y44468D01*
X-396187Y45755D01*
X-394366Y47576D01*
X-393079Y49806D01*
X-392412Y52292D01*
Y54867D01*
X-393079Y57354D01*
X-394366Y59584D01*
X-396187Y61404D01*
X-398416Y62691D01*
X-400903Y63358D01*
D02*
G37*
G36*
X-400903Y37958D02*
X-403478D01*
X-405965Y37292D01*
X-408194Y36004D01*
X-410015Y34184D01*
X-411302Y31954D01*
X-411968Y29467D01*
Y26893D01*
X-411302Y24406D01*
X-410015Y22176D01*
X-408194Y20356D01*
X-405965Y19068D01*
X-403478Y18402D01*
X-400903D01*
X-398416Y19068D01*
X-396187Y20356D01*
X-394366Y22176D01*
X-393079Y24406D01*
X-392413Y26893D01*
Y29467D01*
X-393079Y31954D01*
X-394366Y34184D01*
X-396187Y36004D01*
X-398416Y37292D01*
X-400903Y37958D01*
D02*
G37*
G36*
X-400903Y12558D02*
X-403478D01*
X-405964Y11892D01*
X-408194Y10604D01*
X-410014Y8784D01*
X-411302Y6554D01*
X-411968Y4067D01*
Y1493D01*
X-411302Y-994D01*
X-410014Y-3224D01*
X-408194Y-5044D01*
X-405964Y-6332D01*
X-403478Y-6998D01*
X-400903D01*
X-398416Y-6332D01*
X-396186Y-5044D01*
X-394366Y-3224D01*
X-393078Y-994D01*
X-392412Y1493D01*
Y4067D01*
X-393078Y6554D01*
X-394366Y8784D01*
X-396186Y10604D01*
X-398416Y11892D01*
X-400903Y12558D01*
D02*
G37*
G36*
Y-12842D02*
X-403478D01*
X-405964Y-13508D01*
X-408194Y-14796D01*
X-410014Y-16616D01*
X-411302Y-18846D01*
X-411968Y-21333D01*
Y-23907D01*
X-411302Y-26394D01*
X-410014Y-28624D01*
X-408194Y-30444D01*
X-405964Y-31732D01*
X-403478Y-32398D01*
X-400903D01*
X-398416Y-31732D01*
X-396186Y-30444D01*
X-394366Y-28624D01*
X-393078Y-26394D01*
X-392412Y-23907D01*
Y-21333D01*
X-393078Y-18846D01*
X-394366Y-16616D01*
X-396186Y-14796D01*
X-398416Y-13508D01*
X-400903Y-12842D01*
D02*
G37*
G36*
X-400903Y-38242D02*
X-403478D01*
X-405964Y-38909D01*
X-408194Y-40196D01*
X-410015Y-42016D01*
X-411302Y-44246D01*
X-411968Y-46733D01*
Y-49307D01*
X-411302Y-51794D01*
X-410015Y-54024D01*
X-408194Y-55844D01*
X-405964Y-57132D01*
X-403478Y-57798D01*
X-400903D01*
X-398416Y-57132D01*
X-396186Y-55844D01*
X-394366Y-54024D01*
X-393079Y-51794D01*
X-392412Y-49307D01*
Y-46733D01*
X-393079Y-44246D01*
X-394366Y-42016D01*
X-396186Y-40196D01*
X-398416Y-38909D01*
X-400903Y-38242D01*
D02*
G37*
G36*
X-73348Y-53363D02*
X-75035Y-53706D01*
X-76576Y-54475D01*
X-77866Y-55616D01*
X-78109Y-55983D01*
X-68979Y-60437D01*
X-66644Y-55649D01*
X-69996Y-54014D01*
X-71629Y-53468D01*
X-73348Y-53363D01*
D02*
G37*
G36*
X-268351Y6208D02*
X-273629D01*
X-278841Y5382D01*
X-283860Y3752D01*
X-288563Y1356D01*
X-292832Y-1746D01*
X-296564Y-5478D01*
X-299666Y-9747D01*
X-302062Y-14450D01*
X-303693Y-19469D01*
X-304518Y-24681D01*
Y-29959D01*
X-303693Y-35171D01*
X-302062Y-40190D01*
X-299666Y-44893D01*
X-296564Y-49162D01*
X-292832Y-52894D01*
X-288563Y-55996D01*
X-283860Y-58392D01*
X-278841Y-60023D01*
X-273629Y-60848D01*
X-268351D01*
X-263139Y-60023D01*
X-258120Y-58392D01*
X-253418Y-55996D01*
X-249148Y-52894D01*
X-245416Y-49162D01*
X-242314Y-44893D01*
X-239918Y-40190D01*
X-238288Y-35171D01*
X-237462Y-29959D01*
Y-24681D01*
X-238288Y-19469D01*
X-239918Y-14450D01*
X-242314Y-9747D01*
X-245416Y-5478D01*
X-249148Y-1746D01*
X-253418Y1356D01*
X-258120Y3752D01*
X-263139Y5382D01*
X-268351Y6208D01*
D02*
G37*
G36*
X-64361Y-56763D02*
X-66696Y-61550D01*
X-57565Y-66004D01*
X-57425Y-65586D01*
X-57319Y-63867D01*
X-57663Y-62179D01*
X-58431Y-60638D01*
X-59572Y-59349D01*
X-61008Y-58398D01*
X-64361Y-56763D01*
D02*
G37*
G36*
X-79223Y-58266D02*
X-79363Y-58685D01*
X-79468Y-60403D01*
X-79125Y-62091D01*
X-78356Y-63632D01*
X-77215Y-64922D01*
X-75779Y-65872D01*
X-72427Y-67507D01*
X-70092Y-62720D01*
X-79223Y-58266D01*
D02*
G37*
G36*
X-126454Y-44142D02*
X-128731Y-44452D01*
X-130717Y-45610D01*
X-132108Y-47440D01*
X-136492Y-56428D01*
X-137077Y-58651D01*
X-136767Y-60928D01*
X-135609Y-62914D01*
X-133780Y-64305D01*
X-131557Y-64891D01*
X-129279Y-64581D01*
X-127588Y-63594D01*
X-126581Y-64156D01*
X-126451Y-64289D01*
X-126457Y-64314D01*
X-126107Y-66585D01*
X-124915Y-68551D01*
X-123061Y-69910D01*
X-120828Y-70456D01*
X-118556Y-70106D01*
X-116591Y-68914D01*
X-115232Y-67060D01*
X-111006Y-57997D01*
X-110459Y-55764D01*
X-110809Y-53492D01*
X-112001Y-51527D01*
X-113855Y-50168D01*
X-116088Y-49622D01*
X-118360Y-49971D01*
X-119731Y-50803D01*
X-120164Y-50652D01*
X-120975Y-50073D01*
X-121243Y-48105D01*
X-122401Y-46119D01*
X-124231Y-44727D01*
X-126454Y-44142D01*
D02*
G37*
G36*
X-67809Y-63833D02*
X-70144Y-68621D01*
X-66792Y-70256D01*
X-65159Y-70802D01*
X-63440Y-70907D01*
X-61752Y-70564D01*
X-60211Y-69796D01*
X-58921Y-68655D01*
X-58678Y-68287D01*
X-67809Y-63833D01*
D02*
G37*
G36*
X-400803Y-62880D02*
X-400920D01*
Y-72150D01*
X-391650D01*
Y-72032D01*
X-392369Y-69352D01*
X-393756Y-66948D01*
X-395719Y-64986D01*
X-398122Y-63598D01*
X-400803Y-62880D01*
D02*
G37*
G36*
X-403460D02*
X-403578D01*
X-406259Y-63598D01*
X-408662Y-64986D01*
X-410624Y-66948D01*
X-412012Y-69352D01*
X-412730Y-72032D01*
Y-72150D01*
X-403460D01*
Y-62880D01*
D02*
G37*
G36*
X-391650Y-74690D02*
X-400920D01*
Y-83960D01*
X-400803D01*
X-398122Y-83242D01*
X-395719Y-81854D01*
X-393756Y-79892D01*
X-392369Y-77488D01*
X-391650Y-74808D01*
Y-74690D01*
D02*
G37*
G36*
X-403460D02*
X-412730D01*
Y-74808D01*
X-412012Y-77488D01*
X-410624Y-79892D01*
X-408662Y-81854D01*
X-406259Y-83242D01*
X-403578Y-83960D01*
X-403460D01*
Y-74690D01*
D02*
G37*
G36*
X-278803Y-112180D02*
X-278920D01*
Y-121450D01*
X-269650D01*
Y-121332D01*
X-270368Y-118652D01*
X-271756Y-116248D01*
X-273718Y-114286D01*
X-276122Y-112898D01*
X-278803Y-112180D01*
D02*
G37*
G36*
X-281460D02*
X-281578D01*
X-284258Y-112898D01*
X-286662Y-114286D01*
X-288624Y-116248D01*
X-290012Y-118652D01*
X-290730Y-121332D01*
Y-121450D01*
X-281460D01*
Y-112180D01*
D02*
G37*
G36*
X-295812Y-112942D02*
X-315368D01*
Y-132498D01*
X-295812D01*
Y-112942D01*
D02*
G37*
G36*
X-269650Y-123990D02*
X-278920D01*
Y-133260D01*
X-278803D01*
X-276122Y-132542D01*
X-273718Y-131154D01*
X-271756Y-129192D01*
X-270368Y-126788D01*
X-269650Y-124107D01*
Y-123990D01*
D02*
G37*
G36*
X-281460D02*
X-290730D01*
Y-124107D01*
X-290012Y-126788D01*
X-288624Y-129192D01*
X-286662Y-131154D01*
X-284258Y-132542D01*
X-281578Y-133260D01*
X-281460D01*
Y-123990D01*
D02*
G37*
G36*
X-83351Y-73992D02*
X-88629D01*
X-93841Y-74818D01*
X-98860Y-76448D01*
X-103563Y-78844D01*
X-107832Y-81946D01*
X-111564Y-85678D01*
X-114666Y-89948D01*
X-117062Y-94650D01*
X-118693Y-99669D01*
X-119518Y-104881D01*
Y-110159D01*
X-118693Y-115371D01*
X-117062Y-120390D01*
X-114666Y-125092D01*
X-111564Y-129362D01*
X-107832Y-133094D01*
X-103563Y-136196D01*
X-98860Y-138592D01*
X-93841Y-140223D01*
X-88629Y-141048D01*
X-83351D01*
X-78139Y-140223D01*
X-73120Y-138592D01*
X-68418Y-136196D01*
X-64148Y-133094D01*
X-60416Y-129362D01*
X-57314Y-125092D01*
X-54918Y-120390D01*
X-53288Y-115371D01*
X-52462Y-110159D01*
Y-104881D01*
X-53288Y-99669D01*
X-54918Y-94650D01*
X-57314Y-89948D01*
X-60416Y-85678D01*
X-64148Y-81946D01*
X-68418Y-78844D01*
X-73120Y-76448D01*
X-78139Y-74818D01*
X-83351Y-73992D01*
D02*
G37*
%LPD*%
G36*
X-203620Y151350D02*
X-203590Y151201D01*
Y142855D01*
Y130905D01*
Y81301D01*
X-203595Y81279D01*
Y81125D01*
X-203724Y81044D01*
X-203741Y81028D01*
X-204124Y80786D01*
X-204245Y80672D01*
X-204387Y80584D01*
X-204499Y80430D01*
X-204637Y80299D01*
X-204855Y80219D01*
X-205533Y80543D01*
X-205967Y80623D01*
X-206565Y69209D01*
X-207163Y57796D01*
X-206723Y57831D01*
X-205100Y58405D01*
X-204860Y58570D01*
X-203590Y57902D01*
Y42940D01*
X-202456Y42482D01*
X-164778Y27280D01*
X-61169D01*
X-61004Y27247D01*
X-60864Y27154D01*
X-34216Y506D01*
X-34123Y366D01*
X-34090Y202D01*
Y-44962D01*
X-34120Y-45111D01*
X-34269Y-45141D01*
X-81610Y-45141D01*
X-82994D01*
X-84190Y-43945D01*
Y-23035D01*
X-97243Y-9982D01*
X-97994D01*
X-154926Y-9982D01*
X-155031Y-9957D01*
X-155068Y-9955D01*
X-155103Y-9941D01*
X-155209Y-9920D01*
X-230628Y25018D01*
X-230740Y25100D01*
X-230763Y25110D01*
Y25136D01*
X-230790Y25272D01*
Y151201D01*
X-230761Y151350D01*
X-230612Y151380D01*
X-203769D01*
X-203620Y151350D01*
D02*
G37*
%LPC*%
G36*
X-206350Y147320D02*
X-215620D01*
Y138050D01*
X-206350D01*
Y147320D01*
D02*
G37*
G36*
X-218160D02*
X-227430D01*
Y138050D01*
X-218160D01*
Y147320D01*
D02*
G37*
G36*
X-206350Y135510D02*
X-215620D01*
Y126240D01*
X-206350D01*
Y135510D01*
D02*
G37*
G36*
X-218160D02*
X-227430D01*
Y126240D01*
X-218160D01*
Y135510D01*
D02*
G37*
G36*
X-208503Y80756D02*
X-208943Y80721D01*
X-210566Y80147D01*
X-211985Y79171D01*
X-213104Y77862D01*
X-213845Y76307D01*
X-214159Y74614D01*
X-214354Y70889D01*
X-209035Y70611D01*
X-208503Y80756D01*
D02*
G37*
G36*
X-214487Y68353D02*
X-214682Y64628D01*
X-214547Y62911D01*
X-213972Y61288D01*
X-212997Y59869D01*
X-211688Y58751D01*
X-210133Y58009D01*
X-209700Y57929D01*
X-209168Y68074D01*
X-214487Y68353D01*
D02*
G37*
G36*
X-66157Y17473D02*
X-68446Y17263D01*
X-70480Y16193D01*
X-78252Y9900D01*
X-79722Y8132D01*
X-80403Y5937D01*
X-80193Y3648D01*
X-79123Y1614D01*
X-77355Y144D01*
X-75160Y-538D01*
X-74486Y-476D01*
X-73696Y-1470D01*
X-74014Y-2433D01*
X-73843Y-4726D01*
X-72808Y-6778D01*
X-71067Y-8279D01*
X-68884Y-8999D01*
X-68074Y-8938D01*
X-67117Y-10141D01*
X-67403Y-11063D01*
X-67193Y-13352D01*
X-66123Y-15386D01*
X-64356Y-16856D01*
X-62160Y-17538D01*
X-61622Y-17488D01*
X-60832Y-18482D01*
X-61013Y-19033D01*
X-60843Y-21326D01*
X-60633Y-21743D01*
X-60684Y-21867D01*
X-61541Y-22762D01*
X-62757Y-22378D01*
X-64478Y-22303D01*
X-66159Y-22676D01*
X-67686Y-23471D01*
X-68956Y-24635D01*
X-69193Y-25007D01*
X-58835Y-29837D01*
X-48476Y-34667D01*
X-48344Y-34246D01*
X-48268Y-32526D01*
X-48641Y-30845D01*
X-49436Y-29317D01*
X-50600Y-28048D01*
X-52052Y-27123D01*
X-53221Y-26577D01*
X-53154Y-25208D01*
X-51539Y-24394D01*
X-43659Y-18237D01*
X-42159Y-16496D01*
X-41439Y-14313D01*
X-41609Y-12020D01*
X-42644Y-9968D01*
X-44385Y-8467D01*
X-46568Y-7747D01*
X-47376Y-7807D01*
X-48166Y-6813D01*
X-47914Y-6001D01*
X-48124Y-3712D01*
X-49195Y-1678D01*
X-50962Y-208D01*
X-53157Y474D01*
X-53942Y401D01*
X-54733Y1395D01*
X-54439Y2287D01*
X-54609Y4580D01*
X-55644Y6632D01*
X-57385Y8133D01*
X-59568Y8853D01*
X-60267Y8801D01*
X-61223Y10003D01*
X-60914Y10999D01*
X-61124Y13288D01*
X-62195Y15322D01*
X-63962Y16792D01*
X-66157Y17473D01*
D02*
G37*
G36*
X-70266Y-27309D02*
X-70399Y-27729D01*
X-70474Y-29450D01*
X-70101Y-31131D01*
X-69306Y-32658D01*
X-68143Y-33928D01*
X-66691Y-34853D01*
X-63310Y-36430D01*
X-61059Y-31602D01*
X-70266Y-27309D01*
D02*
G37*
G36*
X-58757Y-32676D02*
X-61008Y-37503D01*
X-57628Y-39079D01*
X-55985Y-39597D01*
X-54265Y-39672D01*
X-52584Y-39300D01*
X-51056Y-38504D01*
X-49787Y-37341D01*
X-49550Y-36969D01*
X-58757Y-32676D01*
D02*
G37*
%LPD*%
D14*
X623570Y191770D02*
D03*
X633730Y191770D02*
D03*
X-654050Y195580D02*
D03*
X-633732Y195850D02*
D03*
X-643890Y195580D02*
D03*
X-623573Y195850D02*
D03*
X-613415D02*
D03*
X-664210Y195580D02*
D03*
X582930Y-176530D02*
D03*
X101600Y191770D02*
D03*
X121920Y191770D02*
D03*
X111760Y191770D02*
D03*
X132080D02*
D03*
X142240Y191770D02*
D03*
X48260Y191770D02*
D03*
X68580D02*
D03*
X58420Y191770D02*
D03*
X78740Y191770D02*
D03*
X88900Y191770D02*
D03*
X100330Y-176530D02*
D03*
X120650D02*
D03*
X110490D02*
D03*
X130810D02*
D03*
X140970D02*
D03*
X48260D02*
D03*
X68580D02*
D03*
X58420D02*
D03*
X78740D02*
D03*
X88900D02*
D03*
X635000D02*
D03*
X624840Y-176530D02*
D03*
X604520Y-176530D02*
D03*
X614680Y-176530D02*
D03*
X594360D02*
D03*
X-666747Y-176530D02*
D03*
X612140Y191770D02*
D03*
X591820Y191770D02*
D03*
X601980Y191770D02*
D03*
X581660Y191770D02*
D03*
X-614685Y-176530D02*
D03*
X-624843D02*
D03*
X-645160D02*
D03*
X-635002D02*
D03*
X-655319D02*
D03*
X-595630Y-8891D02*
D03*
X-595630Y11430D02*
D03*
X-595630Y1270D02*
D03*
X-595630Y21590D02*
D03*
X-595629Y31750D02*
D03*
X562610Y31751D02*
D03*
X562610Y11430D02*
D03*
X562610Y21590D02*
D03*
X562610Y1270D02*
D03*
X562609Y-8890D02*
D03*
X473711Y194310D02*
D03*
X453390Y194310D02*
D03*
X463550Y194310D02*
D03*
X443230Y194310D02*
D03*
X433070Y194310D02*
D03*
X284480Y194310D02*
D03*
X264160Y194310D02*
D03*
X274320Y194310D02*
D03*
X254000Y194310D02*
D03*
X243840Y194310D02*
D03*
X25400Y31750D02*
D03*
Y11430D02*
D03*
X25400Y21590D02*
D03*
X25400Y1270D02*
D03*
Y-8890D02*
D03*
X162560Y31750D02*
D03*
Y11430D02*
D03*
X162560Y21590D02*
D03*
X162560Y1270D02*
D03*
Y-8890D02*
D03*
X473710Y-176530D02*
D03*
X453390D02*
D03*
X463550D02*
D03*
X443230D02*
D03*
X433070D02*
D03*
X284480D02*
D03*
X264160D02*
D03*
X274320D02*
D03*
X254000D02*
D03*
X243840D02*
D03*
X-107950D02*
D03*
X-128270D02*
D03*
X-118110D02*
D03*
X-138430D02*
D03*
X-148590D02*
D03*
X-444500D02*
D03*
X-464820D02*
D03*
X-454660D02*
D03*
X-474980D02*
D03*
X-485140D02*
D03*
X-107950Y195580D02*
D03*
X-128270D02*
D03*
X-118110D02*
D03*
X-138430D02*
D03*
X-148590D02*
D03*
X-444500D02*
D03*
X-464820D02*
D03*
X-454660D02*
D03*
X-474980D02*
D03*
X-485140D02*
D03*
D15*
X-280190Y-122720D02*
D03*
X-402191Y53580D02*
D03*
Y28180D02*
D03*
Y2780D02*
D03*
Y-22620D02*
D03*
Y-48020D02*
D03*
Y-73420D02*
D03*
X-191490Y136780D02*
D03*
D16*
X-305590Y-122720D02*
D03*
X-216890Y136780D02*
D03*
D17*
X-402191Y78980D02*
D03*
D18*
X-196369Y68334D02*
D03*
D19*
X-207833Y69276D02*
D03*
D20*
X-68394Y-62135D02*
D03*
D21*
X-129005Y-54516D02*
D03*
D22*
X-118458Y-60039D02*
D03*
D23*
X-70659Y8468D02*
D03*
X-57659Y-8532D02*
D03*
D24*
X-64226Y-73D02*
D03*
X-51226Y-16673D02*
D03*
D25*
X-59371Y-30988D02*
D03*
D26*
X-122090Y86080D02*
D03*
X-85990Y-107520D02*
D03*
X-270990Y-27320D02*
D03*
X-292990Y106680D02*
D03*
X266370Y-29550D02*
D03*
X415370Y83750D02*
D03*
X451470Y-109650D02*
D03*
X244570Y104550D02*
D03*
D27*
X470570Y-4050D02*
D03*
X484070Y-21250D02*
D03*
X464070Y4750D02*
D03*
X409870Y-54050D02*
D03*
X420370Y-59550D02*
D03*
X340670Y63150D02*
D03*
X475470Y-31950D02*
D03*
X466470Y-63050D02*
D03*
X477370Y-12550D02*
D03*
X329570Y64050D02*
D03*
M02*
