G04*
G04 #@! TF.GenerationSoftware,Altium Limited,Altium Designer,23.1.1 (15)*
G04*
G04 Layer_Color=16711935*
%FSLAX44Y44*%
%MOMM*%
G71*
G04*
G04 #@! TF.SameCoordinates,100C43C9-C46F-4F4B-8117-E4150AEC662F*
G04*
G04*
G04 #@! TF.FilePolarity,Positive*
G04*
G01*
G75*
%ADD11C,0.2000*%
G36*
X761816Y950221D02*
X761900Y950212D01*
X762001Y950202D01*
X762103Y950193D01*
X762223Y950165D01*
X762473Y950110D01*
X762750Y950027D01*
X762889Y949971D01*
X763018Y949907D01*
X763148Y949823D01*
X763277Y949740D01*
X763287Y949731D01*
X763305Y949722D01*
X763342Y949694D01*
X763388Y949648D01*
X763434Y949602D01*
X763499Y949537D01*
X763564Y949463D01*
X763638Y949389D01*
X763712Y949296D01*
X763786Y949185D01*
X763869Y949074D01*
X763943Y948954D01*
X764008Y948816D01*
X764082Y948677D01*
X764137Y948529D01*
X764193Y948363D01*
X763360Y948168D01*
Y948178D01*
X763351Y948196D01*
X763333Y948233D01*
X763314Y948279D01*
X763296Y948335D01*
X763268Y948409D01*
X763194Y948557D01*
X763102Y948723D01*
X762991Y948889D01*
X762852Y949047D01*
X762704Y949185D01*
X762685Y949204D01*
X762630Y949241D01*
X762538Y949287D01*
X762417Y949352D01*
X762260Y949407D01*
X762085Y949463D01*
X761872Y949500D01*
X761641Y949509D01*
X761567D01*
X761521Y949500D01*
X761456D01*
X761382Y949491D01*
X761206Y949463D01*
X761012Y949426D01*
X760809Y949361D01*
X760596Y949269D01*
X760402Y949148D01*
X760393D01*
X760383Y949130D01*
X760319Y949084D01*
X760235Y949010D01*
X760134Y948899D01*
X760014Y948760D01*
X759903Y948603D01*
X759801Y948409D01*
X759708Y948196D01*
Y948187D01*
X759699Y948168D01*
X759690Y948141D01*
X759681Y948094D01*
X759662Y948039D01*
X759644Y947974D01*
X759616Y947817D01*
X759579Y947632D01*
X759542Y947429D01*
X759523Y947207D01*
X759514Y946966D01*
Y946957D01*
Y946929D01*
Y946883D01*
Y946828D01*
X759523Y946763D01*
Y946680D01*
X759533Y946587D01*
X759542Y946486D01*
X759570Y946264D01*
X759616Y946023D01*
X759671Y945783D01*
X759745Y945543D01*
Y945533D01*
X759755Y945515D01*
X759773Y945487D01*
X759792Y945441D01*
X759847Y945330D01*
X759930Y945201D01*
X760032Y945053D01*
X760162Y944895D01*
X760309Y944757D01*
X760485Y944627D01*
X760494D01*
X760513Y944618D01*
X760540Y944600D01*
X760577Y944581D01*
X760624Y944563D01*
X760679Y944535D01*
X760809Y944479D01*
X760975Y944424D01*
X761160Y944378D01*
X761363Y944341D01*
X761576Y944332D01*
X761641D01*
X761696Y944341D01*
X761761D01*
X761826Y944350D01*
X761992Y944387D01*
X762186Y944433D01*
X762380Y944507D01*
X762584Y944609D01*
X762685Y944664D01*
X762778Y944738D01*
X762787Y944747D01*
X762796Y944757D01*
X762824Y944784D01*
X762861Y944812D01*
X762898Y944858D01*
X762944Y944914D01*
X763000Y944969D01*
X763046Y945043D01*
X763102Y945127D01*
X763166Y945219D01*
X763222Y945312D01*
X763277Y945422D01*
X763324Y945543D01*
X763370Y945672D01*
X763416Y945811D01*
X763453Y945959D01*
X764304Y945746D01*
Y945737D01*
X764294Y945700D01*
X764276Y945644D01*
X764248Y945570D01*
X764220Y945487D01*
X764183Y945386D01*
X764137Y945275D01*
X764082Y945154D01*
X763952Y944895D01*
X763786Y944637D01*
X763684Y944507D01*
X763582Y944378D01*
X763471Y944267D01*
X763342Y944156D01*
X763333Y944146D01*
X763314Y944128D01*
X763268Y944110D01*
X763222Y944073D01*
X763148Y944026D01*
X763074Y943980D01*
X762972Y943934D01*
X762870Y943888D01*
X762750Y943832D01*
X762621Y943786D01*
X762482Y943740D01*
X762334Y943693D01*
X762177Y943656D01*
X762011Y943638D01*
X761835Y943620D01*
X761650Y943610D01*
X761548D01*
X761474Y943620D01*
X761391D01*
X761289Y943629D01*
X761179Y943647D01*
X761049Y943666D01*
X760781Y943712D01*
X760504Y943786D01*
X760226Y943888D01*
X760097Y943952D01*
X759967Y944026D01*
X759958Y944036D01*
X759940Y944045D01*
X759903Y944073D01*
X759866Y944110D01*
X759810Y944146D01*
X759745Y944202D01*
X759671Y944267D01*
X759597Y944341D01*
X759523Y944424D01*
X759440Y944507D01*
X759274Y944720D01*
X759117Y944969D01*
X758978Y945247D01*
Y945256D01*
X758960Y945284D01*
X758950Y945330D01*
X758923Y945386D01*
X758904Y945459D01*
X758876Y945552D01*
X758839Y945654D01*
X758812Y945764D01*
X758784Y945885D01*
X758747Y946023D01*
X758701Y946310D01*
X758664Y946634D01*
X758645Y946966D01*
Y946976D01*
Y947013D01*
Y947068D01*
X758654Y947133D01*
Y947225D01*
X758664Y947318D01*
X758673Y947438D01*
X758691Y947558D01*
X758738Y947826D01*
X758802Y948122D01*
X758895Y948418D01*
X759024Y948705D01*
X759034Y948714D01*
X759043Y948742D01*
X759061Y948779D01*
X759098Y948825D01*
X759135Y948889D01*
X759181Y948963D01*
X759302Y949130D01*
X759459Y949315D01*
X759644Y949500D01*
X759856Y949685D01*
X760106Y949842D01*
X760115Y949851D01*
X760143Y949860D01*
X760180Y949879D01*
X760226Y949907D01*
X760300Y949934D01*
X760374Y949962D01*
X760467Y949999D01*
X760568Y950036D01*
X760679Y950073D01*
X760799Y950110D01*
X761058Y950165D01*
X761354Y950212D01*
X761659Y950230D01*
X761752D01*
X761816Y950221D01*
D02*
G37*
G36*
X767983Y943721D02*
X767197D01*
Y948723D01*
X767188Y948714D01*
X767142Y948677D01*
X767086Y948621D01*
X766994Y948557D01*
X766892Y948474D01*
X766763Y948381D01*
X766615Y948279D01*
X766449Y948178D01*
X766439D01*
X766430Y948168D01*
X766375Y948131D01*
X766282Y948085D01*
X766171Y948030D01*
X766042Y947965D01*
X765903Y947900D01*
X765764Y947835D01*
X765626Y947780D01*
Y948538D01*
X765635D01*
X765653Y948557D01*
X765690Y948566D01*
X765737Y948594D01*
X765792Y948621D01*
X765857Y948658D01*
X766014Y948751D01*
X766199Y948853D01*
X766384Y948982D01*
X766578Y949130D01*
X766772Y949287D01*
X766781Y949296D01*
X766791Y949306D01*
X766818Y949333D01*
X766855Y949361D01*
X766938Y949454D01*
X767049Y949565D01*
X767160Y949694D01*
X767281Y949842D01*
X767382Y949990D01*
X767475Y950147D01*
X767983D01*
Y943721D01*
D02*
G37*
G36*
X775859Y960038D02*
X775850D01*
X775813D01*
X775757D01*
X775684Y960048D01*
X775600Y960057D01*
X775508Y960075D01*
X775415Y960094D01*
X775314Y960131D01*
X775304D01*
X775295Y960140D01*
X775240Y960159D01*
X775156Y960196D01*
X775045Y960251D01*
X774916Y960325D01*
X774768Y960417D01*
X774620Y960519D01*
X774463Y960649D01*
X774454D01*
X774445Y960667D01*
X774389Y960713D01*
X774306Y960797D01*
X774186Y960917D01*
X774047Y961055D01*
X773881Y961231D01*
X773696Y961444D01*
X773502Y961675D01*
X773492Y961684D01*
X773465Y961721D01*
X773418Y961777D01*
X773363Y961841D01*
X773289Y961925D01*
X773206Y962026D01*
X773113Y962128D01*
X773011Y962248D01*
X772790Y962479D01*
X772568Y962710D01*
X772457Y962821D01*
X772346Y962923D01*
X772244Y963016D01*
X772142Y963089D01*
X772133D01*
X772124Y963108D01*
X772096Y963126D01*
X772059Y963145D01*
X771957Y963210D01*
X771837Y963284D01*
X771689Y963348D01*
X771532Y963413D01*
X771357Y963450D01*
X771190Y963468D01*
X771181D01*
X771172D01*
X771116Y963459D01*
X771024Y963450D01*
X770922Y963422D01*
X770792Y963385D01*
X770663Y963321D01*
X770534Y963237D01*
X770404Y963126D01*
X770386Y963108D01*
X770349Y963062D01*
X770303Y962997D01*
X770238Y962895D01*
X770182Y962766D01*
X770127Y962618D01*
X770090Y962442D01*
X770081Y962248D01*
Y962193D01*
X770090Y962156D01*
X770099Y962045D01*
X770127Y961915D01*
X770164Y961777D01*
X770229Y961619D01*
X770312Y961471D01*
X770423Y961333D01*
X770441Y961314D01*
X770487Y961277D01*
X770561Y961222D01*
X770672Y961166D01*
X770802Y961102D01*
X770968Y961046D01*
X771153Y961009D01*
X771366Y960991D01*
X771283Y960186D01*
X771273D01*
X771246Y960196D01*
X771199D01*
X771135Y960205D01*
X771061Y960223D01*
X770977Y960242D01*
X770876Y960269D01*
X770774Y960297D01*
X770552Y960371D01*
X770330Y960482D01*
X770219Y960547D01*
X770108Y960630D01*
X770007Y960713D01*
X769914Y960806D01*
X769905Y960815D01*
X769896Y960834D01*
X769868Y960861D01*
X769840Y960908D01*
X769803Y960963D01*
X769766Y961028D01*
X769720Y961102D01*
X769674Y961194D01*
X769628Y961296D01*
X769581Y961407D01*
X769544Y961527D01*
X769507Y961656D01*
X769480Y961795D01*
X769452Y961943D01*
X769443Y962100D01*
X769433Y962267D01*
Y962359D01*
X769443Y962424D01*
X769452Y962498D01*
X769461Y962590D01*
X769480Y962692D01*
X769498Y962794D01*
X769563Y963034D01*
X769655Y963274D01*
X769711Y963394D01*
X769775Y963515D01*
X769859Y963626D01*
X769951Y963727D01*
X769960Y963737D01*
X769970Y963755D01*
X770007Y963774D01*
X770044Y963811D01*
X770090Y963857D01*
X770155Y963903D01*
X770219Y963949D01*
X770303Y964005D01*
X770478Y964097D01*
X770700Y964190D01*
X770811Y964227D01*
X770940Y964245D01*
X771070Y964264D01*
X771209Y964273D01*
X771227D01*
X771273D01*
X771347Y964264D01*
X771449Y964254D01*
X771560Y964236D01*
X771689Y964199D01*
X771828Y964162D01*
X771967Y964107D01*
X771985Y964097D01*
X772031Y964079D01*
X772105Y964042D01*
X772207Y963986D01*
X772318Y963912D01*
X772457Y963820D01*
X772595Y963709D01*
X772753Y963579D01*
X772771Y963561D01*
X772827Y963515D01*
X772873Y963468D01*
X772919Y963422D01*
X772974Y963367D01*
X773048Y963293D01*
X773122Y963219D01*
X773206Y963126D01*
X773298Y963034D01*
X773400Y962923D01*
X773502Y962803D01*
X773622Y962673D01*
X773742Y962525D01*
X773871Y962377D01*
X773881Y962368D01*
X773899Y962350D01*
X773927Y962313D01*
X773964Y962267D01*
X774019Y962211D01*
X774075Y962146D01*
X774195Y961999D01*
X774334Y961841D01*
X774472Y961693D01*
X774593Y961564D01*
X774639Y961508D01*
X774685Y961462D01*
X774694Y961453D01*
X774722Y961425D01*
X774759Y961388D01*
X774814Y961342D01*
X774879Y961296D01*
X774944Y961240D01*
X775101Y961129D01*
Y964282D01*
X775859D01*
Y960038D01*
D02*
G37*
G36*
X773881Y959419D02*
X773936Y959400D01*
X774010Y959373D01*
X774093Y959345D01*
X774195Y959308D01*
X774306Y959262D01*
X774426Y959206D01*
X774685Y959077D01*
X774944Y958910D01*
X775073Y958809D01*
X775203Y958707D01*
X775314Y958596D01*
X775425Y958467D01*
X775434Y958457D01*
X775452Y958439D01*
X775471Y958393D01*
X775508Y958346D01*
X775554Y958272D01*
X775600Y958198D01*
X775647Y958097D01*
X775693Y957995D01*
X775748Y957875D01*
X775794Y957746D01*
X775841Y957607D01*
X775887Y957459D01*
X775924Y957302D01*
X775942Y957135D01*
X775961Y956960D01*
X775970Y956775D01*
Y956673D01*
X775961Y956599D01*
Y956516D01*
X775952Y956414D01*
X775933Y956303D01*
X775915Y956174D01*
X775868Y955906D01*
X775794Y955628D01*
X775693Y955351D01*
X775628Y955221D01*
X775554Y955092D01*
X775545Y955083D01*
X775536Y955064D01*
X775508Y955027D01*
X775471Y954990D01*
X775434Y954935D01*
X775378Y954870D01*
X775314Y954796D01*
X775240Y954722D01*
X775156Y954648D01*
X775073Y954565D01*
X774861Y954399D01*
X774611Y954241D01*
X774334Y954103D01*
X774324D01*
X774297Y954084D01*
X774250Y954075D01*
X774195Y954047D01*
X774121Y954029D01*
X774028Y954001D01*
X773927Y953964D01*
X773816Y953936D01*
X773696Y953909D01*
X773557Y953872D01*
X773270Y953825D01*
X772947Y953788D01*
X772614Y953770D01*
X772605D01*
X772568D01*
X772512D01*
X772448Y953779D01*
X772355D01*
X772263Y953788D01*
X772142Y953798D01*
X772022Y953816D01*
X771754Y953862D01*
X771458Y953927D01*
X771162Y954019D01*
X770876Y954149D01*
X770866Y954158D01*
X770839Y954167D01*
X770802Y954186D01*
X770756Y954223D01*
X770691Y954260D01*
X770617Y954306D01*
X770451Y954426D01*
X770266Y954584D01*
X770081Y954768D01*
X769896Y954981D01*
X769738Y955231D01*
X769729Y955240D01*
X769720Y955268D01*
X769702Y955305D01*
X769674Y955351D01*
X769646Y955425D01*
X769618Y955499D01*
X769581Y955591D01*
X769544Y955693D01*
X769507Y955804D01*
X769470Y955924D01*
X769415Y956183D01*
X769369Y956479D01*
X769350Y956784D01*
Y956876D01*
X769360Y956941D01*
X769369Y957024D01*
X769378Y957126D01*
X769387Y957228D01*
X769415Y957348D01*
X769470Y957598D01*
X769554Y957875D01*
X769609Y958014D01*
X769674Y958143D01*
X769757Y958272D01*
X769840Y958402D01*
X769849Y958411D01*
X769859Y958430D01*
X769886Y958467D01*
X769933Y958513D01*
X769979Y958559D01*
X770044Y958624D01*
X770118Y958689D01*
X770192Y958763D01*
X770284Y958837D01*
X770395Y958910D01*
X770506Y958994D01*
X770626Y959068D01*
X770765Y959132D01*
X770903Y959206D01*
X771051Y959262D01*
X771218Y959317D01*
X771412Y958485D01*
X771403D01*
X771384Y958476D01*
X771347Y958457D01*
X771301Y958439D01*
X771246Y958420D01*
X771172Y958393D01*
X771024Y958319D01*
X770857Y958226D01*
X770691Y958115D01*
X770534Y957977D01*
X770395Y957829D01*
X770377Y957810D01*
X770340Y957755D01*
X770293Y957662D01*
X770229Y957542D01*
X770173Y957385D01*
X770118Y957209D01*
X770081Y956997D01*
X770071Y956765D01*
Y956692D01*
X770081Y956645D01*
Y956581D01*
X770090Y956507D01*
X770118Y956331D01*
X770155Y956137D01*
X770219Y955933D01*
X770312Y955721D01*
X770432Y955527D01*
Y955517D01*
X770451Y955508D01*
X770497Y955443D01*
X770571Y955360D01*
X770682Y955258D01*
X770820Y955138D01*
X770977Y955027D01*
X771172Y954926D01*
X771384Y954833D01*
X771394D01*
X771412Y954824D01*
X771440Y954815D01*
X771486Y954805D01*
X771541Y954787D01*
X771606Y954768D01*
X771763Y954741D01*
X771948Y954704D01*
X772152Y954667D01*
X772374Y954648D01*
X772614Y954639D01*
X772623D01*
X772651D01*
X772697D01*
X772753D01*
X772817Y954648D01*
X772900D01*
X772993Y954658D01*
X773095Y954667D01*
X773317Y954694D01*
X773557Y954741D01*
X773797Y954796D01*
X774038Y954870D01*
X774047D01*
X774065Y954879D01*
X774093Y954898D01*
X774139Y954916D01*
X774250Y954972D01*
X774380Y955055D01*
X774528Y955157D01*
X774685Y955286D01*
X774824Y955434D01*
X774953Y955610D01*
Y955619D01*
X774962Y955638D01*
X774981Y955665D01*
X774999Y955702D01*
X775018Y955748D01*
X775045Y955804D01*
X775101Y955933D01*
X775156Y956100D01*
X775203Y956285D01*
X775240Y956488D01*
X775249Y956701D01*
Y956765D01*
X775240Y956821D01*
Y956886D01*
X775230Y956950D01*
X775193Y957117D01*
X775147Y957311D01*
X775073Y957505D01*
X774972Y957709D01*
X774916Y957810D01*
X774842Y957903D01*
X774833Y957912D01*
X774824Y957921D01*
X774796Y957949D01*
X774768Y957986D01*
X774722Y958023D01*
X774666Y958069D01*
X774611Y958125D01*
X774537Y958171D01*
X774454Y958226D01*
X774361Y958291D01*
X774269Y958346D01*
X774158Y958402D01*
X774038Y958448D01*
X773908Y958494D01*
X773770Y958541D01*
X773622Y958578D01*
X773834Y959428D01*
X773844D01*
X773881Y959419D01*
D02*
G37*
D11*
X750770Y939110D02*
Y948110D01*
Y939110D02*
X766520Y939110D01*
Y948110D01*
X750770Y948110D02*
X766520Y948110D01*
X771470Y945895D02*
X780470D01*
Y961645D01*
X771470D02*
X780470D01*
X771470Y945895D02*
Y961645D01*
M02*
