G04*
G04 #@! TF.GenerationSoftware,Altium Limited,Altium Designer,22.6.1 (34)*
G04*
G04 Layer_Color=16711935*
%FSLAX44Y44*%
%MOMM*%
G71*
G04*
G04 #@! TF.SameCoordinates,710D9251-245E-4E71-9F22-FE530993EF8F*
G04*
G04*
G04 #@! TF.FilePolarity,Negative*
G04*
G01*
G75*
%ADD29C,0.3032*%
%ADD30C,0.2032*%
D29*
X203099Y-325380D02*
D03*
X203100Y-315220D02*
D03*
X203100Y-305060D02*
D03*
X204099Y139620D02*
D03*
X204100Y149780D02*
D03*
X204100Y159940D02*
D03*
X203099Y370620D02*
D03*
X203100Y380780D02*
D03*
X203100Y390940D02*
D03*
X-301901Y-323380D02*
D03*
X-301900Y-313220D02*
D03*
X-301900Y-303060D02*
D03*
X-301901Y-91880D02*
D03*
X-301900Y-81720D02*
D03*
X-301900Y-71560D02*
D03*
X-304500Y138840D02*
D03*
X-304500Y149000D02*
D03*
X-304500Y159160D02*
D03*
X-303500Y371340D02*
D03*
X-303500Y381500D02*
D03*
X-303500Y391660D02*
D03*
X-376000Y407500D02*
D03*
Y-288500D02*
D03*
X-375000Y-58500D02*
D03*
X-375920Y173991D02*
D03*
X204469Y-96520D02*
D03*
X204470Y-86360D02*
D03*
X204470Y-76200D02*
D03*
X129541Y407670D02*
D03*
X109220Y407670D02*
D03*
X119380Y407670D02*
D03*
X99060Y407670D02*
D03*
X88900Y407671D02*
D03*
X112491Y340354D02*
D03*
X102333Y340531D02*
D03*
X92175Y340709D02*
D03*
X173500Y306500D02*
D03*
X165000Y310000D02*
D03*
X173500Y76500D02*
D03*
X165500Y80000D02*
D03*
X111760Y109220D02*
D03*
X101600Y109220D02*
D03*
X91440Y109221D02*
D03*
X129541Y175260D02*
D03*
X109220Y175260D02*
D03*
X119380Y175260D02*
D03*
X99060Y175260D02*
D03*
X88900Y175261D02*
D03*
X173000Y-157000D02*
D03*
X164500Y-153000D02*
D03*
X173000Y-388500D02*
D03*
X164500Y-385000D02*
D03*
X129541Y-55880D02*
D03*
X109220Y-55880D02*
D03*
X119380Y-55880D02*
D03*
X99060Y-55880D02*
D03*
X88900Y-55879D02*
D03*
X129541Y-288290D02*
D03*
X109220Y-288290D02*
D03*
X119380Y-288290D02*
D03*
X99060Y-288290D02*
D03*
X88900Y-288289D02*
D03*
X-396240Y407670D02*
D03*
X-386080Y407670D02*
D03*
X-406400Y407670D02*
D03*
X-416560Y407671D02*
D03*
X-394970Y336550D02*
D03*
X-405130Y336550D02*
D03*
X-415290Y336551D02*
D03*
X-334303Y303208D02*
D03*
X-343850Y306683D02*
D03*
X-332500Y-156500D02*
D03*
X-341000Y-154000D02*
D03*
X-333556Y74517D02*
D03*
X-342000Y77500D02*
D03*
X-394970Y107950D02*
D03*
X-405130Y107950D02*
D03*
X-415290Y107951D02*
D03*
X-396240Y173990D02*
D03*
X-386080Y173990D02*
D03*
X-406400Y173990D02*
D03*
X-416560Y173991D02*
D03*
X-396000Y-58500D02*
D03*
X-385500D02*
D03*
X-406500D02*
D03*
X-416500D02*
D03*
X-332000Y-387500D02*
D03*
X-341500Y-384500D02*
D03*
X-396240Y-288290D02*
D03*
X-386080Y-288290D02*
D03*
X-406400Y-288290D02*
D03*
X-416560Y-288289D02*
D03*
X102870Y-127000D02*
D03*
X113030Y-127000D02*
D03*
X92710Y-127000D02*
D03*
X-403860Y-123190D02*
D03*
X-393700Y-123190D02*
D03*
X-414020Y-123190D02*
D03*
X101600Y-354330D02*
D03*
X111760Y-354330D02*
D03*
X91440Y-354330D02*
D03*
X-403500Y-356000D02*
D03*
X-392500D02*
D03*
X-414000D02*
D03*
D30*
X-419189Y-318941D02*
D03*
X87061D02*
D03*
X-419189Y-87441D02*
D03*
X87061D02*
D03*
X-419189Y144059D02*
D03*
X87061D02*
D03*
X-419189Y375559D02*
D03*
X87061D02*
D03*
M02*
