G04*
G04 #@! TF.GenerationSoftware,Altium Limited,Altium Designer,22.6.1 (34)*
G04*
G04 Layer_Color=32896*
%FSLAX44Y44*%
%MOMM*%
G71*
G04*
G04 #@! TF.SameCoordinates,710D9251-245E-4E71-9F22-FE530993EF8F*
G04*
G04*
G04 #@! TF.FilePolarity,Positive*
G04*
G01*
G75*
%ADD23C,0.0800*%
D23*
X-385626Y-333400D02*
X-384991Y-332765D01*
X-383722D01*
X-383087Y-333400D01*
Y-335939D01*
X-383722Y-336574D01*
X-384991D01*
X-385626Y-335939D01*
X-386896Y-336574D02*
X-388165D01*
X-387531D01*
Y-332765D01*
X-386896Y-333400D01*
X120624D02*
X121259Y-332765D01*
X122528D01*
X123163Y-333400D01*
Y-335939D01*
X122528Y-336574D01*
X121259D01*
X120624Y-335939D01*
X119354Y-336574D02*
X118085D01*
X118719D01*
Y-332765D01*
X119354Y-333400D01*
X-385626Y-101900D02*
X-384991Y-101265D01*
X-383722D01*
X-383087Y-101900D01*
Y-104439D01*
X-383722Y-105074D01*
X-384991D01*
X-385626Y-104439D01*
X-386896Y-105074D02*
X-388165D01*
X-387531D01*
Y-101265D01*
X-386896Y-101900D01*
X120624D02*
X121259Y-101265D01*
X122528D01*
X123163Y-101900D01*
Y-104439D01*
X122528Y-105074D01*
X121259D01*
X120624Y-104439D01*
X119354Y-105074D02*
X118085D01*
X118719D01*
Y-101265D01*
X119354Y-101900D01*
X-385626Y129600D02*
X-384991Y130235D01*
X-383722D01*
X-383087Y129600D01*
Y127061D01*
X-383722Y126426D01*
X-384991D01*
X-385626Y127061D01*
X-386896Y126426D02*
X-388165D01*
X-387531D01*
Y130235D01*
X-386896Y129600D01*
X120624D02*
X121259Y130235D01*
X122528D01*
X123163Y129600D01*
Y127061D01*
X122528Y126426D01*
X121259D01*
X120624Y127061D01*
X119354Y126426D02*
X118085D01*
X118719D01*
Y130235D01*
X119354Y129600D01*
X-385626Y361100D02*
X-384991Y361735D01*
X-383722D01*
X-383087Y361100D01*
Y358561D01*
X-383722Y357926D01*
X-384991D01*
X-385626Y358561D01*
X-386896Y357926D02*
X-388165D01*
X-387531D01*
Y361735D01*
X-386896Y361100D01*
X120624D02*
X121259Y361735D01*
X122528D01*
X123163Y361100D01*
Y358561D01*
X122528Y357926D01*
X121259D01*
X120624Y358561D01*
X119354Y357926D02*
X118085D01*
X118719D01*
Y361735D01*
X119354Y361100D01*
M02*
