G04*
G04 #@! TF.GenerationSoftware,Altium Limited,Altium Designer,22.6.1 (34)*
G04*
G04 Layer_Physical_Order=1*
G04 Layer_Color=255*
%FSLAX44Y44*%
%MOMM*%
G71*
G04*
G04 #@! TF.SameCoordinates,710D9251-245E-4E71-9F22-FE530993EF8F*
G04*
G04*
G04 #@! TF.FilePolarity,Positive*
G04*
G01*
G75*
%ADD10C,0.3150*%
%ADD11C,0.2540*%
%ADD12C,0.3450*%
%ADD13R,0.1000X0.3300*%
%ADD14R,0.4541X0.3627*%
%ADD15C,0.7200*%
%ADD16C,0.6100*%
%ADD17C,0.5600*%
%ADD18C,0.2000*%
%ADD19C,0.0700*%
%ADD20C,0.1000*%
G36*
X186524Y333081D02*
X186324Y332081D01*
X185724D01*
X185524Y333081D01*
Y333181D01*
X186524D01*
Y333081D01*
D02*
G37*
G36*
X181524D02*
X181324Y332081D01*
X180724D01*
X180524Y333081D01*
Y333181D01*
X181524D01*
Y333081D01*
D02*
G37*
G36*
X177624Y338088D02*
X176974Y337531D01*
Y333433D01*
X176499Y332959D01*
X176324Y332081D01*
X175724D01*
X175564Y332880D01*
X175524Y332914D01*
X175524Y345808D01*
X174184Y352531D01*
X177624Y352531D01*
Y338088D01*
D02*
G37*
G36*
X171524Y345765D02*
Y339031D01*
Y332931D01*
X171492Y332924D01*
X171324Y332081D01*
X170724D01*
X170583Y332784D01*
X169785Y333831D01*
Y339108D01*
X169822D01*
Y343585D01*
X169821Y343584D01*
X169801Y343788D01*
X169645Y344165D01*
X169357Y344454D01*
X168980Y344611D01*
X168776Y344631D01*
X163672Y344631D01*
Y350931D01*
X166983D01*
X171524Y345765D01*
D02*
G37*
G36*
X-319726Y333081D02*
X-319926Y332081D01*
X-320526D01*
X-320726Y333081D01*
Y333181D01*
X-319726D01*
Y333081D01*
D02*
G37*
G36*
X-324726D02*
X-324926Y332081D01*
X-325526D01*
X-325726Y333081D01*
Y333181D01*
X-324726D01*
Y333081D01*
D02*
G37*
G36*
X-328626Y338088D02*
X-329276Y337531D01*
Y333433D01*
X-329751Y332959D01*
X-329926Y332081D01*
X-330526D01*
X-330686Y332880D01*
X-330726Y332914D01*
X-330726Y345808D01*
X-332066Y352531D01*
X-328626Y352531D01*
Y338088D01*
D02*
G37*
G36*
X-334726Y345765D02*
Y339031D01*
Y332931D01*
X-334758Y332924D01*
X-334926Y332081D01*
X-335526D01*
X-335667Y332784D01*
X-336465Y333831D01*
Y339108D01*
X-336428D01*
Y343585D01*
X-336429Y343584D01*
X-336449Y343788D01*
X-336605Y344165D01*
X-336893Y344454D01*
X-337270Y344611D01*
X-337474Y344631D01*
X-342578Y344631D01*
Y350931D01*
X-339267D01*
X-334726Y345765D01*
D02*
G37*
G36*
X184024Y333081D02*
X184924Y332081D01*
Y327581D01*
X183824Y326581D01*
X183224D01*
X182124Y327581D01*
Y332081D01*
X183024Y333081D01*
Y333281D01*
X184024D01*
Y333081D01*
D02*
G37*
G36*
X179024D02*
X179924Y332081D01*
Y327581D01*
X178824Y326581D01*
X178224D01*
X177124Y327581D01*
Y332081D01*
X178024Y333081D01*
Y333281D01*
X179024D01*
Y333081D01*
D02*
G37*
G36*
X174505Y345837D02*
X174510Y345824D01*
X174517Y345798D01*
X174521Y345771D01*
X174524Y345744D01*
X174524Y345731D01*
X174524Y345731D01*
X174524Y342354D01*
X174524Y332525D01*
X174924Y332081D01*
Y327581D01*
X173824Y326581D01*
X173224D01*
X172124Y327581D01*
Y332081D01*
X172524Y332525D01*
Y333051D01*
Y337211D01*
Y345445D01*
X168879Y351431D01*
X168805Y351556D01*
X168728Y351836D01*
X168728Y352126D01*
X168805Y352406D01*
X168878Y352530D01*
X168878Y352530D01*
X172118Y352531D01*
X174505Y345837D01*
D02*
G37*
G36*
X-322226Y333081D02*
X-321326Y332081D01*
Y327581D01*
X-322426Y326581D01*
X-323026D01*
X-324126Y327581D01*
Y332081D01*
X-323226Y333081D01*
Y333281D01*
X-322226D01*
Y333081D01*
D02*
G37*
G36*
X-327226D02*
X-326326Y332081D01*
Y327581D01*
X-327426Y326581D01*
X-328026D01*
X-329126Y327581D01*
Y332081D01*
X-328226Y333081D01*
Y333281D01*
X-327226D01*
Y333081D01*
D02*
G37*
G36*
X-331745Y345837D02*
X-331740Y345824D01*
X-331733Y345798D01*
X-331729Y345771D01*
X-331726Y345744D01*
X-331726Y345731D01*
X-331726Y345731D01*
X-331726Y342354D01*
X-331726Y332525D01*
X-331326Y332081D01*
Y327581D01*
X-332426Y326581D01*
X-333026D01*
X-334126Y327581D01*
Y332081D01*
X-333726Y332525D01*
Y333051D01*
Y337211D01*
Y345445D01*
X-337371Y351431D01*
X-337445Y351556D01*
X-337522Y351836D01*
X-337522Y352126D01*
X-337445Y352406D01*
X-337372Y352530D01*
X-337371Y352530D01*
X-334132Y352531D01*
X-331745Y345837D01*
D02*
G37*
G36*
X193524Y333581D02*
Y333481D01*
X193448Y333298D01*
X193307Y333157D01*
X193123Y333081D01*
X190824D01*
X190434Y333042D01*
X189713Y332744D01*
X189161Y332192D01*
X188862Y331471D01*
X188824Y331081D01*
Y329081D01*
X188862Y328691D01*
X189161Y327970D01*
X189713Y327418D01*
X190434Y327119D01*
X190824Y327081D01*
X193023D01*
X193390Y326929D01*
X193672Y326647D01*
X193824Y326280D01*
Y326081D01*
Y322081D01*
Y321981D01*
X193748Y321798D01*
X193607Y321657D01*
X193423Y321581D01*
X189524D01*
Y320081D01*
X188524D01*
Y326281D01*
X187824Y327281D01*
Y332181D01*
X188524Y333081D01*
Y343381D01*
X193524D01*
Y333581D01*
D02*
G37*
G36*
X187424Y326281D02*
Y321581D01*
X186524D01*
Y320081D01*
X185524D01*
Y321581D01*
X184624D01*
Y326281D01*
X185724Y327281D01*
X186324D01*
X187424Y326281D01*
D02*
G37*
G36*
X184024Y321081D02*
Y320081D01*
X183024D01*
Y321081D01*
X183224Y321681D01*
X183824D01*
X184024Y321081D01*
D02*
G37*
G36*
X182424Y326281D02*
Y321581D01*
X181524D01*
Y320081D01*
X180524D01*
Y321581D01*
X179624D01*
Y326281D01*
X180724Y327281D01*
X181324D01*
X182424Y326281D01*
D02*
G37*
G36*
X179024Y321081D02*
Y320081D01*
X178024D01*
Y321081D01*
X178224Y321681D01*
X178824D01*
X179024Y321081D01*
D02*
G37*
G36*
X177424Y326281D02*
Y321581D01*
X176524D01*
Y320081D01*
X175524D01*
Y321581D01*
X174624D01*
Y326281D01*
X175724Y327281D01*
X176324D01*
X177424Y326281D01*
D02*
G37*
G36*
X174024Y321081D02*
Y320081D01*
X173024D01*
Y321081D01*
X173224Y321681D01*
X173824D01*
X174024Y321081D01*
D02*
G37*
G36*
X172424Y326281D02*
Y321581D01*
X171524D01*
Y320081D01*
X170524D01*
Y321581D01*
X169624D01*
Y326281D01*
X170724Y327281D01*
X171324D01*
X172424Y326281D01*
D02*
G37*
G36*
X168524Y333081D02*
X169224Y332181D01*
Y327281D01*
X168524Y326281D01*
Y320081D01*
X167524D01*
Y321581D01*
X163624D01*
X163441Y321657D01*
X163300Y321798D01*
X163224Y321981D01*
Y322081D01*
Y326081D01*
Y326280D01*
X163376Y326647D01*
X163657Y326929D01*
X164025Y327081D01*
X166224D01*
X166614Y327119D01*
X167335Y327418D01*
X167887Y327970D01*
X168185Y328691D01*
X168224Y329081D01*
Y331081D01*
X168185Y331471D01*
X167887Y332192D01*
X167335Y332744D01*
X166614Y333042D01*
X166224Y333081D01*
X163924D01*
X163741Y333157D01*
X163600Y333298D01*
X163524Y333481D01*
Y333581D01*
Y343381D01*
X168524D01*
Y333081D01*
D02*
G37*
G36*
X-312726Y333581D02*
Y333481D01*
X-312802Y333298D01*
X-312943Y333157D01*
X-313127Y333081D01*
X-315426D01*
X-315816Y333042D01*
X-316537Y332744D01*
X-317089Y332192D01*
X-317388Y331471D01*
X-317426Y331081D01*
Y329081D01*
X-317388Y328691D01*
X-317089Y327970D01*
X-316537Y327418D01*
X-315816Y327119D01*
X-315426Y327081D01*
X-313227D01*
X-312860Y326929D01*
X-312578Y326647D01*
X-312426Y326280D01*
Y326081D01*
Y322081D01*
Y321981D01*
X-312502Y321798D01*
X-312643Y321657D01*
X-312827Y321581D01*
X-316726D01*
Y320081D01*
X-317726D01*
Y326281D01*
X-318426Y327281D01*
Y332181D01*
X-317726Y333081D01*
Y343381D01*
X-312726D01*
Y333581D01*
D02*
G37*
G36*
X-318826Y326281D02*
Y321581D01*
X-319726D01*
Y320081D01*
X-320726D01*
Y321581D01*
X-321626D01*
Y326281D01*
X-320526Y327281D01*
X-319926D01*
X-318826Y326281D01*
D02*
G37*
G36*
X-322226Y321081D02*
Y320081D01*
X-323226D01*
Y321081D01*
X-323026Y321681D01*
X-322426D01*
X-322226Y321081D01*
D02*
G37*
G36*
X-323826Y326281D02*
Y321581D01*
X-324726D01*
Y320081D01*
X-325726D01*
Y321581D01*
X-326626D01*
Y326281D01*
X-325526Y327281D01*
X-324926D01*
X-323826Y326281D01*
D02*
G37*
G36*
X-327226Y321081D02*
Y320081D01*
X-328226D01*
Y321081D01*
X-328026Y321681D01*
X-327426D01*
X-327226Y321081D01*
D02*
G37*
G36*
X-328826Y326281D02*
Y321581D01*
X-329726D01*
Y320081D01*
X-330726D01*
Y321581D01*
X-331626D01*
Y326281D01*
X-330526Y327281D01*
X-329926D01*
X-328826Y326281D01*
D02*
G37*
G36*
X-332226Y321081D02*
Y320081D01*
X-333226D01*
Y321081D01*
X-333026Y321681D01*
X-332426D01*
X-332226Y321081D01*
D02*
G37*
G36*
X-333826Y326281D02*
Y321581D01*
X-334726D01*
Y320081D01*
X-335726D01*
Y321581D01*
X-336626D01*
Y326281D01*
X-335526Y327281D01*
X-334926D01*
X-333826Y326281D01*
D02*
G37*
G36*
X-337726Y333081D02*
X-337026Y332181D01*
Y327281D01*
X-337726Y326281D01*
Y320081D01*
X-338726D01*
Y321581D01*
X-342626D01*
X-342809Y321657D01*
X-342950Y321798D01*
X-343026Y321981D01*
Y322081D01*
Y326081D01*
Y326280D01*
X-342874Y326647D01*
X-342593Y326929D01*
X-342225Y327081D01*
X-340026D01*
X-339636Y327119D01*
X-338915Y327418D01*
X-338363Y327970D01*
X-338065Y328691D01*
X-338026Y329081D01*
Y331081D01*
X-338065Y331471D01*
X-338363Y332192D01*
X-338915Y332744D01*
X-339636Y333042D01*
X-340026Y333081D01*
X-342326D01*
X-342509Y333157D01*
X-342650Y333298D01*
X-342726Y333481D01*
Y333581D01*
Y343381D01*
X-337726D01*
Y333081D01*
D02*
G37*
G36*
X186524Y101581D02*
X186324Y100581D01*
X185724D01*
X185524Y101581D01*
Y101681D01*
X186524D01*
Y101581D01*
D02*
G37*
G36*
X181524D02*
X181324Y100581D01*
X180724D01*
X180524Y101581D01*
Y101681D01*
X181524D01*
Y101581D01*
D02*
G37*
G36*
X177624Y106588D02*
X176974Y106031D01*
Y101933D01*
X176499Y101459D01*
X176324Y100581D01*
X175724D01*
X175564Y101380D01*
X175524Y101413D01*
X175524Y114308D01*
X174184Y121031D01*
X177624Y121031D01*
Y106588D01*
D02*
G37*
G36*
X171524Y114265D02*
Y107531D01*
Y101431D01*
X171492Y101424D01*
X171324Y100581D01*
X170724D01*
X170583Y101284D01*
X169785Y102331D01*
Y107608D01*
X169822D01*
Y112085D01*
X169821Y112084D01*
X169801Y112288D01*
X169645Y112665D01*
X169357Y112954D01*
X168980Y113111D01*
X168776Y113131D01*
X163672Y113131D01*
Y119431D01*
X166983D01*
X171524Y114265D01*
D02*
G37*
G36*
X-319726Y101581D02*
X-319926Y100581D01*
X-320526D01*
X-320726Y101581D01*
Y101681D01*
X-319726D01*
Y101581D01*
D02*
G37*
G36*
X-324726D02*
X-324926Y100581D01*
X-325526D01*
X-325726Y101581D01*
Y101681D01*
X-324726D01*
Y101581D01*
D02*
G37*
G36*
X-328626Y106588D02*
X-329276Y106031D01*
Y101933D01*
X-329751Y101459D01*
X-329926Y100581D01*
X-330526D01*
X-330686Y101380D01*
X-330726Y101413D01*
X-330726Y114308D01*
X-332066Y121031D01*
X-328626Y121031D01*
Y106588D01*
D02*
G37*
G36*
X-334726Y114265D02*
Y107531D01*
Y101431D01*
X-334758Y101424D01*
X-334926Y100581D01*
X-335526D01*
X-335667Y101284D01*
X-336465Y102331D01*
Y107608D01*
X-336428D01*
Y112085D01*
X-336429Y112084D01*
X-336449Y112288D01*
X-336605Y112665D01*
X-336893Y112954D01*
X-337270Y113111D01*
X-337474Y113131D01*
X-342578Y113131D01*
Y119431D01*
X-339267D01*
X-334726Y114265D01*
D02*
G37*
G36*
X184024Y101581D02*
X184924Y100581D01*
Y96081D01*
X183824Y95081D01*
X183224D01*
X182124Y96081D01*
Y100581D01*
X183024Y101581D01*
Y101781D01*
X184024D01*
Y101581D01*
D02*
G37*
G36*
X179024D02*
X179924Y100581D01*
Y96081D01*
X178824Y95081D01*
X178224D01*
X177124Y96081D01*
Y100581D01*
X178024Y101581D01*
Y101781D01*
X179024D01*
Y101581D01*
D02*
G37*
G36*
X174505Y114337D02*
X174510Y114324D01*
X174517Y114298D01*
X174521Y114271D01*
X174524Y114244D01*
X174524Y114231D01*
X174524Y114231D01*
X174524Y110854D01*
X174524Y101025D01*
X174924Y100581D01*
Y96081D01*
X173824Y95081D01*
X173224D01*
X172124Y96081D01*
Y100581D01*
X172524Y101025D01*
Y101551D01*
Y105711D01*
Y113945D01*
X168879Y119931D01*
X168805Y120056D01*
X168728Y120336D01*
X168728Y120626D01*
X168805Y120906D01*
X168878Y121030D01*
X168878Y121030D01*
X172118Y121031D01*
X174505Y114337D01*
D02*
G37*
G36*
X-322226Y101581D02*
X-321326Y100581D01*
Y96081D01*
X-322426Y95081D01*
X-323026D01*
X-324126Y96081D01*
Y100581D01*
X-323226Y101581D01*
Y101781D01*
X-322226D01*
Y101581D01*
D02*
G37*
G36*
X-327226D02*
X-326326Y100581D01*
Y96081D01*
X-327426Y95081D01*
X-328026D01*
X-329126Y96081D01*
Y100581D01*
X-328226Y101581D01*
Y101781D01*
X-327226D01*
Y101581D01*
D02*
G37*
G36*
X-331745Y114337D02*
X-331740Y114324D01*
X-331733Y114298D01*
X-331729Y114271D01*
X-331726Y114244D01*
X-331726Y114231D01*
X-331726Y114231D01*
X-331726Y110854D01*
X-331726Y101025D01*
X-331326Y100581D01*
Y96081D01*
X-332426Y95081D01*
X-333026D01*
X-334126Y96081D01*
Y100581D01*
X-333726Y101025D01*
Y101551D01*
Y105711D01*
Y113945D01*
X-337371Y119931D01*
X-337445Y120056D01*
X-337522Y120336D01*
X-337522Y120626D01*
X-337445Y120906D01*
X-337372Y121030D01*
X-337371Y121030D01*
X-334132Y121031D01*
X-331745Y114337D01*
D02*
G37*
G36*
X193524Y102081D02*
Y101981D01*
X193448Y101798D01*
X193307Y101657D01*
X193123Y101581D01*
X190824D01*
X190434Y101542D01*
X189713Y101244D01*
X189161Y100692D01*
X188862Y99971D01*
X188824Y99581D01*
Y97581D01*
X188862Y97191D01*
X189161Y96470D01*
X189713Y95918D01*
X190434Y95619D01*
X190824Y95581D01*
X193023D01*
X193390Y95429D01*
X193672Y95147D01*
X193824Y94780D01*
Y94581D01*
Y90581D01*
Y90481D01*
X193748Y90298D01*
X193607Y90157D01*
X193423Y90081D01*
X189524D01*
Y88581D01*
X188524D01*
Y94781D01*
X187824Y95781D01*
Y100681D01*
X188524Y101581D01*
Y111881D01*
X193524D01*
Y102081D01*
D02*
G37*
G36*
X187424Y94781D02*
Y90081D01*
X186524D01*
Y88581D01*
X185524D01*
Y90081D01*
X184624D01*
Y94781D01*
X185724Y95781D01*
X186324D01*
X187424Y94781D01*
D02*
G37*
G36*
X184024Y89581D02*
Y88581D01*
X183024D01*
Y89581D01*
X183224Y90181D01*
X183824D01*
X184024Y89581D01*
D02*
G37*
G36*
X182424Y94781D02*
Y90081D01*
X181524D01*
Y88581D01*
X180524D01*
Y90081D01*
X179624D01*
Y94781D01*
X180724Y95781D01*
X181324D01*
X182424Y94781D01*
D02*
G37*
G36*
X179024Y89581D02*
Y88581D01*
X178024D01*
Y89581D01*
X178224Y90181D01*
X178824D01*
X179024Y89581D01*
D02*
G37*
G36*
X177424Y94781D02*
Y90081D01*
X176524D01*
Y88581D01*
X175524D01*
Y90081D01*
X174624D01*
Y94781D01*
X175724Y95781D01*
X176324D01*
X177424Y94781D01*
D02*
G37*
G36*
X174024Y89581D02*
Y88581D01*
X173024D01*
Y89581D01*
X173224Y90181D01*
X173824D01*
X174024Y89581D01*
D02*
G37*
G36*
X172424Y94781D02*
Y90081D01*
X171524D01*
Y88581D01*
X170524D01*
Y90081D01*
X169624D01*
Y94781D01*
X170724Y95781D01*
X171324D01*
X172424Y94781D01*
D02*
G37*
G36*
X168524Y101581D02*
X169224Y100681D01*
Y95781D01*
X168524Y94781D01*
Y88581D01*
X167524D01*
Y90081D01*
X163624D01*
X163441Y90157D01*
X163300Y90298D01*
X163224Y90481D01*
Y90581D01*
Y94581D01*
Y94780D01*
X163376Y95147D01*
X163657Y95429D01*
X164025Y95581D01*
X166224D01*
X166614Y95619D01*
X167335Y95918D01*
X167887Y96470D01*
X168185Y97191D01*
X168224Y97581D01*
Y99581D01*
X168185Y99971D01*
X167887Y100692D01*
X167335Y101244D01*
X166614Y101542D01*
X166224Y101581D01*
X163924D01*
X163741Y101657D01*
X163600Y101798D01*
X163524Y101981D01*
Y102081D01*
Y111881D01*
X168524D01*
Y101581D01*
D02*
G37*
G36*
X-312726Y102081D02*
Y101981D01*
X-312802Y101798D01*
X-312943Y101657D01*
X-313127Y101581D01*
X-315426D01*
X-315816Y101542D01*
X-316537Y101244D01*
X-317089Y100692D01*
X-317388Y99971D01*
X-317426Y99581D01*
Y97581D01*
X-317388Y97191D01*
X-317089Y96470D01*
X-316537Y95918D01*
X-315816Y95619D01*
X-315426Y95581D01*
X-313227D01*
X-312860Y95429D01*
X-312578Y95147D01*
X-312426Y94780D01*
Y94581D01*
Y90581D01*
Y90481D01*
X-312502Y90298D01*
X-312643Y90157D01*
X-312827Y90081D01*
X-316726D01*
Y88581D01*
X-317726D01*
Y94781D01*
X-318426Y95781D01*
Y100681D01*
X-317726Y101581D01*
Y111881D01*
X-312726D01*
Y102081D01*
D02*
G37*
G36*
X-318826Y94781D02*
Y90081D01*
X-319726D01*
Y88581D01*
X-320726D01*
Y90081D01*
X-321626D01*
Y94781D01*
X-320526Y95781D01*
X-319926D01*
X-318826Y94781D01*
D02*
G37*
G36*
X-322226Y89581D02*
Y88581D01*
X-323226D01*
Y89581D01*
X-323026Y90181D01*
X-322426D01*
X-322226Y89581D01*
D02*
G37*
G36*
X-323826Y94781D02*
Y90081D01*
X-324726D01*
Y88581D01*
X-325726D01*
Y90081D01*
X-326626D01*
Y94781D01*
X-325526Y95781D01*
X-324926D01*
X-323826Y94781D01*
D02*
G37*
G36*
X-327226Y89581D02*
Y88581D01*
X-328226D01*
Y89581D01*
X-328026Y90181D01*
X-327426D01*
X-327226Y89581D01*
D02*
G37*
G36*
X-328826Y94781D02*
Y90081D01*
X-329726D01*
Y88581D01*
X-330726D01*
Y90081D01*
X-331626D01*
Y94781D01*
X-330526Y95781D01*
X-329926D01*
X-328826Y94781D01*
D02*
G37*
G36*
X-332226Y89581D02*
Y88581D01*
X-333226D01*
Y89581D01*
X-333026Y90181D01*
X-332426D01*
X-332226Y89581D01*
D02*
G37*
G36*
X-333826Y94781D02*
Y90081D01*
X-334726D01*
Y88581D01*
X-335726D01*
Y90081D01*
X-336626D01*
Y94781D01*
X-335526Y95781D01*
X-334926D01*
X-333826Y94781D01*
D02*
G37*
G36*
X-337726Y101581D02*
X-337026Y100681D01*
Y95781D01*
X-337726Y94781D01*
Y88581D01*
X-338726D01*
Y90081D01*
X-342626D01*
X-342809Y90157D01*
X-342950Y90298D01*
X-343026Y90481D01*
Y90581D01*
Y94581D01*
Y94780D01*
X-342874Y95147D01*
X-342593Y95429D01*
X-342225Y95581D01*
X-340026D01*
X-339636Y95619D01*
X-338915Y95918D01*
X-338363Y96470D01*
X-338065Y97191D01*
X-338026Y97581D01*
Y99581D01*
X-338065Y99971D01*
X-338363Y100692D01*
X-338915Y101244D01*
X-339636Y101542D01*
X-340026Y101581D01*
X-342326D01*
X-342509Y101657D01*
X-342650Y101798D01*
X-342726Y101981D01*
Y102081D01*
Y111881D01*
X-337726D01*
Y101581D01*
D02*
G37*
G36*
X186524Y-129919D02*
X186324Y-130919D01*
X185724D01*
X185524Y-129919D01*
Y-129819D01*
X186524D01*
Y-129919D01*
D02*
G37*
G36*
X181524D02*
X181324Y-130919D01*
X180724D01*
X180524Y-129919D01*
Y-129819D01*
X181524D01*
Y-129919D01*
D02*
G37*
G36*
X177624Y-124912D02*
X176974Y-125469D01*
Y-129567D01*
X176499Y-130041D01*
X176324Y-130919D01*
X175724D01*
X175564Y-130120D01*
X175524Y-130086D01*
X175524Y-117192D01*
X174184Y-110469D01*
X177624Y-110469D01*
Y-124912D01*
D02*
G37*
G36*
X171524Y-117235D02*
Y-123969D01*
Y-130069D01*
X171492Y-130076D01*
X171324Y-130919D01*
X170724D01*
X170583Y-130216D01*
X169785Y-129169D01*
Y-123892D01*
X169822D01*
Y-119415D01*
X169821Y-119416D01*
X169801Y-119212D01*
X169645Y-118835D01*
X169357Y-118546D01*
X168980Y-118389D01*
X168776Y-118369D01*
X163672Y-118369D01*
Y-112069D01*
X166983D01*
X171524Y-117235D01*
D02*
G37*
G36*
X-319726Y-129919D02*
X-319926Y-130919D01*
X-320526D01*
X-320726Y-129919D01*
Y-129819D01*
X-319726D01*
Y-129919D01*
D02*
G37*
G36*
X-324726D02*
X-324926Y-130919D01*
X-325526D01*
X-325726Y-129919D01*
Y-129819D01*
X-324726D01*
Y-129919D01*
D02*
G37*
G36*
X-328626Y-124912D02*
X-329276Y-125469D01*
Y-129567D01*
X-329751Y-130041D01*
X-329926Y-130919D01*
X-330526D01*
X-330686Y-130120D01*
X-330726Y-130086D01*
X-330726Y-117192D01*
X-332066Y-110469D01*
X-328626Y-110469D01*
Y-124912D01*
D02*
G37*
G36*
X-334726Y-117235D02*
Y-123969D01*
Y-130069D01*
X-334758Y-130076D01*
X-334926Y-130919D01*
X-335526D01*
X-335667Y-130216D01*
X-336465Y-129169D01*
Y-123892D01*
X-336428D01*
Y-119415D01*
X-336429Y-119416D01*
X-336449Y-119212D01*
X-336605Y-118835D01*
X-336893Y-118546D01*
X-337270Y-118389D01*
X-337474Y-118369D01*
X-342578Y-118369D01*
Y-112069D01*
X-339267D01*
X-334726Y-117235D01*
D02*
G37*
G36*
X184024Y-129919D02*
X184924Y-130919D01*
Y-135419D01*
X183824Y-136419D01*
X183224D01*
X182124Y-135419D01*
Y-130919D01*
X183024Y-129919D01*
Y-129719D01*
X184024D01*
Y-129919D01*
D02*
G37*
G36*
X179024D02*
X179924Y-130919D01*
Y-135419D01*
X178824Y-136419D01*
X178224D01*
X177124Y-135419D01*
Y-130919D01*
X178024Y-129919D01*
Y-129719D01*
X179024D01*
Y-129919D01*
D02*
G37*
G36*
X174505Y-117163D02*
X174510Y-117176D01*
X174517Y-117202D01*
X174521Y-117229D01*
X174524Y-117256D01*
X174524Y-117269D01*
X174524Y-117269D01*
X174524Y-120646D01*
X174524Y-130475D01*
X174924Y-130919D01*
Y-135419D01*
X173824Y-136419D01*
X173224D01*
X172124Y-135419D01*
Y-130919D01*
X172524Y-130475D01*
Y-129949D01*
Y-125789D01*
Y-117555D01*
X168879Y-111569D01*
X168805Y-111444D01*
X168728Y-111165D01*
X168728Y-110874D01*
X168805Y-110595D01*
X168878Y-110470D01*
X168878Y-110470D01*
X172118Y-110469D01*
X174505Y-117163D01*
D02*
G37*
G36*
X-322226Y-129919D02*
X-321326Y-130919D01*
Y-135419D01*
X-322426Y-136419D01*
X-323026D01*
X-324126Y-135419D01*
Y-130919D01*
X-323226Y-129919D01*
Y-129719D01*
X-322226D01*
Y-129919D01*
D02*
G37*
G36*
X-327226D02*
X-326326Y-130919D01*
Y-135419D01*
X-327426Y-136419D01*
X-328026D01*
X-329126Y-135419D01*
Y-130919D01*
X-328226Y-129919D01*
Y-129719D01*
X-327226D01*
Y-129919D01*
D02*
G37*
G36*
X-331745Y-117163D02*
X-331740Y-117176D01*
X-331733Y-117202D01*
X-331729Y-117229D01*
X-331726Y-117256D01*
X-331726Y-117269D01*
X-331726Y-117269D01*
X-331726Y-120646D01*
X-331726Y-130475D01*
X-331326Y-130919D01*
Y-135419D01*
X-332426Y-136419D01*
X-333026D01*
X-334126Y-135419D01*
Y-130919D01*
X-333726Y-130475D01*
Y-129949D01*
Y-125789D01*
Y-117555D01*
X-337371Y-111569D01*
X-337445Y-111444D01*
X-337522Y-111165D01*
X-337522Y-110874D01*
X-337445Y-110595D01*
X-337372Y-110470D01*
X-337371Y-110470D01*
X-334132Y-110469D01*
X-331745Y-117163D01*
D02*
G37*
G36*
X193524Y-129419D02*
Y-129519D01*
X193448Y-129702D01*
X193307Y-129843D01*
X193123Y-129919D01*
X190824D01*
X190434Y-129958D01*
X189713Y-130256D01*
X189161Y-130808D01*
X188862Y-131529D01*
X188824Y-131919D01*
Y-133919D01*
X188862Y-134309D01*
X189161Y-135030D01*
X189713Y-135582D01*
X190434Y-135881D01*
X190824Y-135919D01*
X193023D01*
X193390Y-136071D01*
X193672Y-136353D01*
X193824Y-136720D01*
Y-136919D01*
Y-140919D01*
Y-141019D01*
X193748Y-141202D01*
X193607Y-141343D01*
X193423Y-141419D01*
X189524D01*
Y-142919D01*
X188524D01*
Y-136719D01*
X187824Y-135719D01*
Y-130819D01*
X188524Y-129919D01*
Y-119619D01*
X193524D01*
Y-129419D01*
D02*
G37*
G36*
X187424Y-136719D02*
Y-141419D01*
X186524D01*
Y-142919D01*
X185524D01*
Y-141419D01*
X184624D01*
Y-136719D01*
X185724Y-135719D01*
X186324D01*
X187424Y-136719D01*
D02*
G37*
G36*
X184024Y-141919D02*
Y-142919D01*
X183024D01*
Y-141919D01*
X183224Y-141319D01*
X183824D01*
X184024Y-141919D01*
D02*
G37*
G36*
X182424Y-136719D02*
Y-141419D01*
X181524D01*
Y-142919D01*
X180524D01*
Y-141419D01*
X179624D01*
Y-136719D01*
X180724Y-135719D01*
X181324D01*
X182424Y-136719D01*
D02*
G37*
G36*
X179024Y-141919D02*
Y-142919D01*
X178024D01*
Y-141919D01*
X178224Y-141319D01*
X178824D01*
X179024Y-141919D01*
D02*
G37*
G36*
X177424Y-136719D02*
Y-141419D01*
X176524D01*
Y-142919D01*
X175524D01*
Y-141419D01*
X174624D01*
Y-136719D01*
X175724Y-135719D01*
X176324D01*
X177424Y-136719D01*
D02*
G37*
G36*
X174024Y-141919D02*
Y-142919D01*
X173024D01*
Y-141919D01*
X173224Y-141319D01*
X173824D01*
X174024Y-141919D01*
D02*
G37*
G36*
X172424Y-136719D02*
Y-141419D01*
X171524D01*
Y-142919D01*
X170524D01*
Y-141419D01*
X169624D01*
Y-136719D01*
X170724Y-135719D01*
X171324D01*
X172424Y-136719D01*
D02*
G37*
G36*
X168524Y-129919D02*
X169224Y-130819D01*
Y-135719D01*
X168524Y-136719D01*
Y-142919D01*
X167524D01*
Y-141419D01*
X163624D01*
X163441Y-141343D01*
X163300Y-141202D01*
X163224Y-141019D01*
Y-140919D01*
Y-136919D01*
Y-136720D01*
X163376Y-136353D01*
X163657Y-136071D01*
X164025Y-135919D01*
X166224D01*
X166614Y-135881D01*
X167335Y-135582D01*
X167887Y-135030D01*
X168185Y-134309D01*
X168224Y-133919D01*
Y-131919D01*
X168185Y-131529D01*
X167887Y-130808D01*
X167335Y-130256D01*
X166614Y-129958D01*
X166224Y-129919D01*
X163924D01*
X163741Y-129843D01*
X163600Y-129702D01*
X163524Y-129519D01*
Y-129419D01*
Y-119619D01*
X168524D01*
Y-129919D01*
D02*
G37*
G36*
X-312726Y-129419D02*
Y-129519D01*
X-312802Y-129702D01*
X-312943Y-129843D01*
X-313127Y-129919D01*
X-315426D01*
X-315816Y-129958D01*
X-316537Y-130256D01*
X-317089Y-130808D01*
X-317388Y-131529D01*
X-317426Y-131919D01*
Y-133919D01*
X-317388Y-134309D01*
X-317089Y-135030D01*
X-316537Y-135582D01*
X-315816Y-135881D01*
X-315426Y-135919D01*
X-313227D01*
X-312860Y-136071D01*
X-312578Y-136353D01*
X-312426Y-136720D01*
Y-136919D01*
Y-140919D01*
Y-141019D01*
X-312502Y-141202D01*
X-312643Y-141343D01*
X-312827Y-141419D01*
X-316726D01*
Y-142919D01*
X-317726D01*
Y-136719D01*
X-318426Y-135719D01*
Y-130819D01*
X-317726Y-129919D01*
Y-119619D01*
X-312726D01*
Y-129419D01*
D02*
G37*
G36*
X-318826Y-136719D02*
Y-141419D01*
X-319726D01*
Y-142919D01*
X-320726D01*
Y-141419D01*
X-321626D01*
Y-136719D01*
X-320526Y-135719D01*
X-319926D01*
X-318826Y-136719D01*
D02*
G37*
G36*
X-322226Y-141919D02*
Y-142919D01*
X-323226D01*
Y-141919D01*
X-323026Y-141319D01*
X-322426D01*
X-322226Y-141919D01*
D02*
G37*
G36*
X-323826Y-136719D02*
Y-141419D01*
X-324726D01*
Y-142919D01*
X-325726D01*
Y-141419D01*
X-326626D01*
Y-136719D01*
X-325526Y-135719D01*
X-324926D01*
X-323826Y-136719D01*
D02*
G37*
G36*
X-327226Y-141919D02*
Y-142919D01*
X-328226D01*
Y-141919D01*
X-328026Y-141319D01*
X-327426D01*
X-327226Y-141919D01*
D02*
G37*
G36*
X-328826Y-136719D02*
Y-141419D01*
X-329726D01*
Y-142919D01*
X-330726D01*
Y-141419D01*
X-331626D01*
Y-136719D01*
X-330526Y-135719D01*
X-329926D01*
X-328826Y-136719D01*
D02*
G37*
G36*
X-332226Y-141919D02*
Y-142919D01*
X-333226D01*
Y-141919D01*
X-333026Y-141319D01*
X-332426D01*
X-332226Y-141919D01*
D02*
G37*
G36*
X-333826Y-136719D02*
Y-141419D01*
X-334726D01*
Y-142919D01*
X-335726D01*
Y-141419D01*
X-336626D01*
Y-136719D01*
X-335526Y-135719D01*
X-334926D01*
X-333826Y-136719D01*
D02*
G37*
G36*
X-337726Y-129919D02*
X-337026Y-130819D01*
Y-135719D01*
X-337726Y-136719D01*
Y-142919D01*
X-338726D01*
Y-141419D01*
X-342626D01*
X-342809Y-141343D01*
X-342950Y-141202D01*
X-343026Y-141019D01*
Y-140919D01*
Y-136919D01*
Y-136720D01*
X-342874Y-136353D01*
X-342593Y-136071D01*
X-342225Y-135919D01*
X-340026D01*
X-339636Y-135881D01*
X-338915Y-135582D01*
X-338363Y-135030D01*
X-338065Y-134309D01*
X-338026Y-133919D01*
Y-131919D01*
X-338065Y-131529D01*
X-338363Y-130808D01*
X-338915Y-130256D01*
X-339636Y-129958D01*
X-340026Y-129919D01*
X-342326D01*
X-342509Y-129843D01*
X-342650Y-129702D01*
X-342726Y-129519D01*
Y-129419D01*
Y-119619D01*
X-337726D01*
Y-129919D01*
D02*
G37*
G36*
X186524Y-361419D02*
X186324Y-362419D01*
X185724D01*
X185524Y-361419D01*
Y-361319D01*
X186524D01*
Y-361419D01*
D02*
G37*
G36*
X181524D02*
X181324Y-362419D01*
X180724D01*
X180524Y-361419D01*
Y-361319D01*
X181524D01*
Y-361419D01*
D02*
G37*
G36*
X177624Y-356412D02*
X176974Y-356969D01*
Y-361067D01*
X176499Y-361541D01*
X176324Y-362419D01*
X175724D01*
X175564Y-361620D01*
X175524Y-361586D01*
X175524Y-348692D01*
X174184Y-341969D01*
X177624Y-341969D01*
Y-356412D01*
D02*
G37*
G36*
X171524Y-348735D02*
Y-355469D01*
Y-361569D01*
X171492Y-361576D01*
X171324Y-362419D01*
X170724D01*
X170583Y-361716D01*
X169785Y-360669D01*
Y-355392D01*
X169822D01*
Y-350915D01*
X169821Y-350916D01*
X169801Y-350712D01*
X169645Y-350335D01*
X169357Y-350046D01*
X168980Y-349889D01*
X168776Y-349869D01*
X163672Y-349869D01*
Y-343569D01*
X166983D01*
X171524Y-348735D01*
D02*
G37*
G36*
X-319726Y-361419D02*
X-319926Y-362419D01*
X-320526D01*
X-320726Y-361419D01*
Y-361319D01*
X-319726D01*
Y-361419D01*
D02*
G37*
G36*
X-324726D02*
X-324926Y-362419D01*
X-325526D01*
X-325726Y-361419D01*
Y-361319D01*
X-324726D01*
Y-361419D01*
D02*
G37*
G36*
X-328626Y-356412D02*
X-329276Y-356969D01*
Y-361067D01*
X-329751Y-361541D01*
X-329926Y-362419D01*
X-330526D01*
X-330686Y-361620D01*
X-330726Y-361586D01*
X-330726Y-348692D01*
X-332066Y-341969D01*
X-328626Y-341969D01*
Y-356412D01*
D02*
G37*
G36*
X-334726Y-348735D02*
Y-355469D01*
Y-361569D01*
X-334758Y-361576D01*
X-334926Y-362419D01*
X-335526D01*
X-335667Y-361716D01*
X-336465Y-360669D01*
Y-355392D01*
X-336428D01*
Y-350915D01*
X-336429Y-350916D01*
X-336449Y-350712D01*
X-336605Y-350335D01*
X-336893Y-350046D01*
X-337270Y-349889D01*
X-337474Y-349869D01*
X-342578Y-349869D01*
Y-343569D01*
X-339267D01*
X-334726Y-348735D01*
D02*
G37*
G36*
X184024Y-361419D02*
X184924Y-362419D01*
Y-366919D01*
X183824Y-367919D01*
X183224D01*
X182124Y-366919D01*
Y-362419D01*
X183024Y-361419D01*
Y-361219D01*
X184024D01*
Y-361419D01*
D02*
G37*
G36*
X179024D02*
X179924Y-362419D01*
Y-366919D01*
X178824Y-367919D01*
X178224D01*
X177124Y-366919D01*
Y-362419D01*
X178024Y-361419D01*
Y-361219D01*
X179024D01*
Y-361419D01*
D02*
G37*
G36*
X174505Y-348663D02*
X174510Y-348676D01*
X174517Y-348702D01*
X174521Y-348729D01*
X174524Y-348756D01*
X174524Y-348769D01*
X174524Y-348769D01*
X174524Y-352146D01*
X174524Y-361975D01*
X174924Y-362419D01*
Y-366919D01*
X173824Y-367919D01*
X173224D01*
X172124Y-366919D01*
Y-362419D01*
X172524Y-361975D01*
Y-361449D01*
Y-357289D01*
Y-349055D01*
X168879Y-343069D01*
X168805Y-342944D01*
X168728Y-342664D01*
X168728Y-342374D01*
X168805Y-342094D01*
X168878Y-341970D01*
X168878Y-341970D01*
X172118Y-341969D01*
X174505Y-348663D01*
D02*
G37*
G36*
X-322226Y-361419D02*
X-321326Y-362419D01*
Y-366919D01*
X-322426Y-367919D01*
X-323026D01*
X-324126Y-366919D01*
Y-362419D01*
X-323226Y-361419D01*
Y-361219D01*
X-322226D01*
Y-361419D01*
D02*
G37*
G36*
X-327226D02*
X-326326Y-362419D01*
Y-366919D01*
X-327426Y-367919D01*
X-328026D01*
X-329126Y-366919D01*
Y-362419D01*
X-328226Y-361419D01*
Y-361219D01*
X-327226D01*
Y-361419D01*
D02*
G37*
G36*
X-331745Y-348663D02*
X-331740Y-348676D01*
X-331733Y-348702D01*
X-331729Y-348729D01*
X-331726Y-348756D01*
X-331726Y-348769D01*
X-331726Y-348769D01*
X-331726Y-352146D01*
X-331726Y-361975D01*
X-331326Y-362419D01*
Y-366919D01*
X-332426Y-367919D01*
X-333026D01*
X-334126Y-366919D01*
Y-362419D01*
X-333726Y-361975D01*
Y-361449D01*
Y-357289D01*
Y-349055D01*
X-337371Y-343069D01*
X-337445Y-342944D01*
X-337522Y-342664D01*
X-337522Y-342374D01*
X-337445Y-342094D01*
X-337372Y-341970D01*
X-337371Y-341970D01*
X-334132Y-341969D01*
X-331745Y-348663D01*
D02*
G37*
G36*
X193524Y-360919D02*
Y-361019D01*
X193448Y-361202D01*
X193307Y-361343D01*
X193123Y-361419D01*
X190824D01*
X190434Y-361458D01*
X189713Y-361756D01*
X189161Y-362308D01*
X188862Y-363029D01*
X188824Y-363419D01*
Y-365419D01*
X188862Y-365809D01*
X189161Y-366530D01*
X189713Y-367082D01*
X190434Y-367381D01*
X190824Y-367419D01*
X193023D01*
X193390Y-367571D01*
X193672Y-367853D01*
X193824Y-368220D01*
Y-368419D01*
Y-372419D01*
Y-372519D01*
X193748Y-372702D01*
X193607Y-372843D01*
X193423Y-372919D01*
X189524D01*
Y-374419D01*
X188524D01*
Y-368219D01*
X187824Y-367219D01*
Y-362319D01*
X188524Y-361419D01*
Y-351119D01*
X193524D01*
Y-360919D01*
D02*
G37*
G36*
X187424Y-368219D02*
Y-372919D01*
X186524D01*
Y-374419D01*
X185524D01*
Y-372919D01*
X184624D01*
Y-368219D01*
X185724Y-367219D01*
X186324D01*
X187424Y-368219D01*
D02*
G37*
G36*
X184024Y-373419D02*
Y-374419D01*
X183024D01*
Y-373419D01*
X183224Y-372819D01*
X183824D01*
X184024Y-373419D01*
D02*
G37*
G36*
X182424Y-368219D02*
Y-372919D01*
X181524D01*
Y-374419D01*
X180524D01*
Y-372919D01*
X179624D01*
Y-368219D01*
X180724Y-367219D01*
X181324D01*
X182424Y-368219D01*
D02*
G37*
G36*
X179024Y-373419D02*
Y-374419D01*
X178024D01*
Y-373419D01*
X178224Y-372819D01*
X178824D01*
X179024Y-373419D01*
D02*
G37*
G36*
X177424Y-368219D02*
Y-372919D01*
X176524D01*
Y-374419D01*
X175524D01*
Y-372919D01*
X174624D01*
Y-368219D01*
X175724Y-367219D01*
X176324D01*
X177424Y-368219D01*
D02*
G37*
G36*
X174024Y-373419D02*
Y-374419D01*
X173024D01*
Y-373419D01*
X173224Y-372819D01*
X173824D01*
X174024Y-373419D01*
D02*
G37*
G36*
X172424Y-368219D02*
Y-372919D01*
X171524D01*
Y-374419D01*
X170524D01*
Y-372919D01*
X169624D01*
Y-368219D01*
X170724Y-367219D01*
X171324D01*
X172424Y-368219D01*
D02*
G37*
G36*
X168524Y-361419D02*
X169224Y-362319D01*
Y-367219D01*
X168524Y-368219D01*
Y-374419D01*
X167524D01*
Y-372919D01*
X163624D01*
X163441Y-372843D01*
X163300Y-372702D01*
X163224Y-372519D01*
Y-372419D01*
Y-368419D01*
Y-368220D01*
X163376Y-367853D01*
X163657Y-367571D01*
X164025Y-367419D01*
X166224D01*
X166614Y-367381D01*
X167335Y-367082D01*
X167887Y-366530D01*
X168185Y-365809D01*
X168224Y-365419D01*
Y-363419D01*
X168185Y-363029D01*
X167887Y-362308D01*
X167335Y-361756D01*
X166614Y-361458D01*
X166224Y-361419D01*
X163924D01*
X163741Y-361343D01*
X163600Y-361202D01*
X163524Y-361019D01*
Y-360919D01*
Y-351119D01*
X168524D01*
Y-361419D01*
D02*
G37*
G36*
X-312726Y-360919D02*
Y-361019D01*
X-312802Y-361202D01*
X-312943Y-361343D01*
X-313127Y-361419D01*
X-315426D01*
X-315816Y-361458D01*
X-316537Y-361756D01*
X-317089Y-362308D01*
X-317388Y-363029D01*
X-317426Y-363419D01*
Y-365419D01*
X-317388Y-365809D01*
X-317089Y-366530D01*
X-316537Y-367082D01*
X-315816Y-367381D01*
X-315426Y-367419D01*
X-313227D01*
X-312860Y-367571D01*
X-312578Y-367853D01*
X-312426Y-368220D01*
Y-368419D01*
Y-372419D01*
Y-372519D01*
X-312502Y-372702D01*
X-312643Y-372843D01*
X-312827Y-372919D01*
X-316726D01*
Y-374419D01*
X-317726D01*
Y-368219D01*
X-318426Y-367219D01*
Y-362319D01*
X-317726Y-361419D01*
Y-351119D01*
X-312726D01*
Y-360919D01*
D02*
G37*
G36*
X-318826Y-368219D02*
Y-372919D01*
X-319726D01*
Y-374419D01*
X-320726D01*
Y-372919D01*
X-321626D01*
Y-368219D01*
X-320526Y-367219D01*
X-319926D01*
X-318826Y-368219D01*
D02*
G37*
G36*
X-322226Y-373419D02*
Y-374419D01*
X-323226D01*
Y-373419D01*
X-323026Y-372819D01*
X-322426D01*
X-322226Y-373419D01*
D02*
G37*
G36*
X-323826Y-368219D02*
Y-372919D01*
X-324726D01*
Y-374419D01*
X-325726D01*
Y-372919D01*
X-326626D01*
Y-368219D01*
X-325526Y-367219D01*
X-324926D01*
X-323826Y-368219D01*
D02*
G37*
G36*
X-327226Y-373419D02*
Y-374419D01*
X-328226D01*
Y-373419D01*
X-328026Y-372819D01*
X-327426D01*
X-327226Y-373419D01*
D02*
G37*
G36*
X-328826Y-368219D02*
Y-372919D01*
X-329726D01*
Y-374419D01*
X-330726D01*
Y-372919D01*
X-331626D01*
Y-368219D01*
X-330526Y-367219D01*
X-329926D01*
X-328826Y-368219D01*
D02*
G37*
G36*
X-332226Y-373419D02*
Y-374419D01*
X-333226D01*
Y-373419D01*
X-333026Y-372819D01*
X-332426D01*
X-332226Y-373419D01*
D02*
G37*
G36*
X-333826Y-368219D02*
Y-372919D01*
X-334726D01*
Y-374419D01*
X-335726D01*
Y-372919D01*
X-336626D01*
Y-368219D01*
X-335526Y-367219D01*
X-334926D01*
X-333826Y-368219D01*
D02*
G37*
G36*
X-337726Y-361419D02*
X-337026Y-362319D01*
Y-367219D01*
X-337726Y-368219D01*
Y-374419D01*
X-338726D01*
Y-372919D01*
X-342626D01*
X-342809Y-372843D01*
X-342950Y-372702D01*
X-343026Y-372519D01*
Y-372419D01*
Y-368419D01*
Y-368220D01*
X-342874Y-367853D01*
X-342593Y-367571D01*
X-342225Y-367419D01*
X-340026D01*
X-339636Y-367381D01*
X-338915Y-367082D01*
X-338363Y-366530D01*
X-338065Y-365809D01*
X-338026Y-365419D01*
Y-363419D01*
X-338065Y-363029D01*
X-338363Y-362308D01*
X-338915Y-361756D01*
X-339636Y-361458D01*
X-340026Y-361419D01*
X-342326D01*
X-342509Y-361343D01*
X-342650Y-361202D01*
X-342726Y-361019D01*
Y-360919D01*
Y-351119D01*
X-337726D01*
Y-361419D01*
D02*
G37*
D10*
X-414601Y-318969D02*
G03*
X-414601Y-318969I-4625J0D01*
G01*
X91649D02*
G03*
X91649Y-318969I-4625J0D01*
G01*
X-414601Y-87469D02*
G03*
X-414601Y-87469I-4625J0D01*
G01*
X91649D02*
G03*
X91649Y-87469I-4625J0D01*
G01*
X-414601Y144031D02*
G03*
X-414601Y144031I-4625J0D01*
G01*
X91649D02*
G03*
X91649Y144031I-4625J0D01*
G01*
X-414601Y375531D02*
G03*
X-414601Y375531I-4625J0D01*
G01*
X91649D02*
G03*
X91649Y375531I-4625J0D01*
G01*
D11*
X-414326Y-318969D02*
G03*
X-414526Y-319169I0J-200D01*
G01*
X-422626Y-322269D02*
G03*
X-425526Y-325168I0J-2899D01*
G01*
X-425626Y-312069D02*
G03*
X-422726Y-314969I2900J0D01*
G01*
X-341084Y-345689D02*
G03*
X-340922Y-344827I-2378J892D01*
G01*
X-425526Y-329119D02*
Y-325168D01*
X-425626Y-312069D02*
Y-308819D01*
X-425526D01*
X-340922Y-344827D02*
X-340922Y-344821D01*
X-376707Y-328762D02*
X-376626Y-328769D01*
X-377727Y-328670D02*
X-376707Y-328762D01*
X-376876Y-328819D02*
X-376726Y-328969D01*
X-398126Y-328670D02*
X-397976Y-328819D01*
X91924Y-318969D02*
G03*
X91724Y-319169I0J-200D01*
G01*
X83624Y-322269D02*
G03*
X80724Y-325168I0J-2899D01*
G01*
X80624Y-312069D02*
G03*
X83524Y-314969I2900J0D01*
G01*
X165166Y-345689D02*
G03*
X165328Y-344827I-2378J892D01*
G01*
X80724Y-329119D02*
Y-325168D01*
X80624Y-312069D02*
Y-308819D01*
X80724D01*
X165328Y-344827D02*
X165328Y-344821D01*
X129543Y-328762D02*
X129624Y-328769D01*
X128523Y-328670D02*
X129543Y-328762D01*
X129374Y-328819D02*
X129524Y-328969D01*
X108124Y-328670D02*
X108274Y-328819D01*
X-414326Y-87469D02*
G03*
X-414526Y-87669I0J-200D01*
G01*
X-422626Y-90769D02*
G03*
X-425526Y-93668I0J-2899D01*
G01*
X-425626Y-80569D02*
G03*
X-422726Y-83469I2900J0D01*
G01*
X-341084Y-114189D02*
G03*
X-340922Y-113327I-2378J892D01*
G01*
X-425526Y-97619D02*
Y-93668D01*
X-425626Y-80569D02*
Y-77319D01*
X-425526D01*
X-340922Y-113327D02*
X-340922Y-113321D01*
X-376707Y-97262D02*
X-376626Y-97269D01*
X-377727Y-97170D02*
X-376707Y-97262D01*
X-376876Y-97319D02*
X-376726Y-97469D01*
X-398126Y-97170D02*
X-397976Y-97319D01*
X91924Y-87469D02*
G03*
X91724Y-87669I0J-200D01*
G01*
X83624Y-90769D02*
G03*
X80724Y-93668I0J-2899D01*
G01*
X80624Y-80569D02*
G03*
X83524Y-83469I2900J0D01*
G01*
X165166Y-114189D02*
G03*
X165328Y-113327I-2378J892D01*
G01*
X80724Y-97619D02*
Y-93668D01*
X80624Y-80569D02*
Y-77319D01*
X80724D01*
X165328Y-113327D02*
X165328Y-113321D01*
X129543Y-97262D02*
X129624Y-97269D01*
X128523Y-97170D02*
X129543Y-97262D01*
X129374Y-97319D02*
X129524Y-97469D01*
X108124Y-97170D02*
X108274Y-97319D01*
X-414326Y144031D02*
G03*
X-414526Y143831I0J-200D01*
G01*
X-422626Y140731D02*
G03*
X-425526Y137831I0J-2899D01*
G01*
X-425626Y150931D02*
G03*
X-422726Y148031I2900J0D01*
G01*
X-341084Y117311D02*
G03*
X-340922Y118173I-2378J892D01*
G01*
X-425526Y133881D02*
Y137831D01*
X-425626Y150931D02*
Y154181D01*
X-425526D01*
X-340922Y118173D02*
X-340922Y118179D01*
X-376707Y134238D02*
X-376626Y134231D01*
X-377727Y134330D02*
X-376707Y134238D01*
X-376876Y134181D02*
X-376726Y134031D01*
X-398126Y134330D02*
X-397976Y134181D01*
X91924Y144031D02*
G03*
X91724Y143831I0J-200D01*
G01*
X83624Y140731D02*
G03*
X80724Y137831I0J-2899D01*
G01*
X80624Y150931D02*
G03*
X83524Y148031I2900J0D01*
G01*
X165166Y117311D02*
G03*
X165328Y118173I-2378J892D01*
G01*
X80724Y133881D02*
Y137831D01*
X80624Y150931D02*
Y154181D01*
X80724D01*
X165328Y118173D02*
X165328Y118179D01*
X129543Y134238D02*
X129624Y134231D01*
X128523Y134330D02*
X129543Y134238D01*
X129374Y134181D02*
X129524Y134031D01*
X108124Y134330D02*
X108274Y134181D01*
X-414326Y375531D02*
G03*
X-414526Y375331I0J-200D01*
G01*
X-422626Y372231D02*
G03*
X-425526Y369332I0J-2899D01*
G01*
X-425626Y382431D02*
G03*
X-422726Y379531I2900J0D01*
G01*
X-341084Y348811D02*
G03*
X-340922Y349673I-2378J892D01*
G01*
X-425526Y365381D02*
Y369332D01*
X-425626Y382431D02*
Y385681D01*
X-425526D01*
X-340922Y349673D02*
X-340922Y349679D01*
X-376707Y365738D02*
X-376626Y365731D01*
X-377727Y365830D02*
X-376707Y365738D01*
X-376876Y365681D02*
X-376726Y365531D01*
X-398126Y365830D02*
X-397976Y365681D01*
X91924Y375531D02*
G03*
X91724Y375331I0J-200D01*
G01*
X83624Y372231D02*
G03*
X80724Y369332I0J-2899D01*
G01*
X80624Y382431D02*
G03*
X83524Y379531I2900J0D01*
G01*
X165166Y348811D02*
G03*
X165328Y349673I-2378J892D01*
G01*
X80724Y365381D02*
Y369332D01*
X80624Y382431D02*
Y385681D01*
X80724D01*
X165328Y349673D02*
X165328Y349679D01*
X129543Y365738D02*
X129624Y365731D01*
X128523Y365830D02*
X129543Y365738D01*
X129374Y365681D02*
X129524Y365531D01*
X108124Y365830D02*
X108274Y365681D01*
D12*
X-330326Y-328269D02*
G03*
X-344626Y-313969I-14300J0D01*
G01*
X-335826Y-328445D02*
G03*
X-335849Y-328062I-3450J-13D01*
G01*
X-335849Y-328062D02*
G03*
X-345701Y-319161I-9989J-1153D01*
G01*
X-360894Y-329069D02*
G03*
X-352827Y-325493I19J10843D01*
G01*
X-350293Y-324369D02*
G03*
X-352827Y-325493I13J-3450D01*
G01*
X-340922Y-330569D02*
G03*
X-347122Y-324369I-6200J0D01*
G01*
X-414326Y-318969D02*
X-398126D01*
X-330326Y-341969D02*
Y-328269D01*
X-386526Y-313969D02*
X-344626D01*
X-397714Y-309780D02*
X-390715D01*
X-386526Y-313969D01*
X-398125Y-309369D02*
X-397714Y-309780D01*
X-335826Y-341969D02*
Y-328445D01*
X-335849Y-328062D02*
X-335849D01*
X-398126Y-318969D02*
X-345701Y-319161D01*
X-360894Y-329069D02*
X-360894Y-329069D01*
X-350293Y-324369D02*
X-347122D01*
X-370726Y-329069D02*
X-360894D01*
X-340922Y-344821D02*
Y-330569D01*
X-398126Y-328670D02*
X-377727D01*
X175924Y-328269D02*
G03*
X161624Y-313969I-14300J0D01*
G01*
X170424Y-328445D02*
G03*
X170401Y-328062I-3450J-13D01*
G01*
X170401Y-328062D02*
G03*
X160549Y-319161I-9989J-1153D01*
G01*
X145356Y-329069D02*
G03*
X153423Y-325493I19J10843D01*
G01*
X155957Y-324369D02*
G03*
X153423Y-325493I13J-3450D01*
G01*
X165328Y-330569D02*
G03*
X159128Y-324369I-6200J0D01*
G01*
X91924Y-318969D02*
X108124D01*
X175924Y-341969D02*
Y-328269D01*
X119724Y-313969D02*
X161624D01*
X108536Y-309780D02*
X115535D01*
X119724Y-313969D01*
X108125Y-309369D02*
X108536Y-309780D01*
X170424Y-341969D02*
Y-328445D01*
X170401Y-328062D02*
X170401D01*
X108124Y-318969D02*
X160549Y-319161D01*
X145356Y-329069D02*
X145356Y-329069D01*
X155957Y-324369D02*
X159128D01*
X135524Y-329069D02*
X145356D01*
X165328Y-344821D02*
Y-330569D01*
X108124Y-328670D02*
X128523D01*
X-330326Y-96769D02*
G03*
X-344626Y-82469I-14300J0D01*
G01*
X-335826Y-96945D02*
G03*
X-335849Y-96562I-3450J-13D01*
G01*
X-335849Y-96562D02*
G03*
X-345701Y-87661I-9989J-1153D01*
G01*
X-360894Y-97569D02*
G03*
X-352827Y-93993I19J10843D01*
G01*
X-350293Y-92869D02*
G03*
X-352827Y-93993I13J-3450D01*
G01*
X-340922Y-99069D02*
G03*
X-347122Y-92869I-6200J0D01*
G01*
X-414326Y-87469D02*
X-398126D01*
X-330326Y-110469D02*
Y-96769D01*
X-386526Y-82469D02*
X-344626D01*
X-397714Y-78280D02*
X-390715D01*
X-386526Y-82469D01*
X-398125Y-77869D02*
X-397714Y-78280D01*
X-335826Y-110469D02*
Y-96945D01*
X-335849Y-96562D02*
X-335849D01*
X-398126Y-87469D02*
X-345701Y-87661D01*
X-360894Y-97569D02*
X-360894Y-97569D01*
X-350293Y-92869D02*
X-347122D01*
X-370726Y-97569D02*
X-360894D01*
X-340922Y-113321D02*
Y-99069D01*
X-398126Y-97170D02*
X-377727D01*
X175924Y-96769D02*
G03*
X161624Y-82469I-14300J0D01*
G01*
X170424Y-96945D02*
G03*
X170401Y-96562I-3450J-13D01*
G01*
X170401Y-96562D02*
G03*
X160549Y-87661I-9989J-1153D01*
G01*
X145356Y-97569D02*
G03*
X153423Y-93993I19J10843D01*
G01*
X155957Y-92869D02*
G03*
X153423Y-93993I13J-3450D01*
G01*
X165328Y-99069D02*
G03*
X159128Y-92869I-6200J0D01*
G01*
X91924Y-87469D02*
X108124D01*
X175924Y-110469D02*
Y-96769D01*
X119724Y-82469D02*
X161624D01*
X108536Y-78280D02*
X115535D01*
X119724Y-82469D01*
X108125Y-77869D02*
X108536Y-78280D01*
X170424Y-110469D02*
Y-96945D01*
X170401Y-96562D02*
X170401D01*
X108124Y-87469D02*
X160549Y-87661D01*
X145356Y-97569D02*
X145356Y-97569D01*
X155957Y-92869D02*
X159128D01*
X135524Y-97569D02*
X145356D01*
X165328Y-113321D02*
Y-99069D01*
X108124Y-97170D02*
X128523D01*
X-330326Y134731D02*
G03*
X-344626Y149031I-14300J0D01*
G01*
X-335826Y134555D02*
G03*
X-335849Y134938I-3450J-13D01*
G01*
X-335849Y134938D02*
G03*
X-345701Y143839I-9989J-1153D01*
G01*
X-360894Y133931D02*
G03*
X-352827Y137507I19J10843D01*
G01*
X-350293Y138631D02*
G03*
X-352827Y137507I13J-3450D01*
G01*
X-340922Y132431D02*
G03*
X-347122Y138631I-6200J0D01*
G01*
X-414326Y144031D02*
X-398126D01*
X-330326Y121031D02*
Y134731D01*
X-386526Y149031D02*
X-344626D01*
X-397714Y153220D02*
X-390715D01*
X-386526Y149031D01*
X-398125Y153631D02*
X-397714Y153220D01*
X-335826Y121031D02*
Y134555D01*
X-335849Y134938D02*
X-335849D01*
X-398126Y144031D02*
X-345701Y143839D01*
X-360894Y133931D02*
X-360894Y133931D01*
X-350293Y138631D02*
X-347122D01*
X-370726Y133931D02*
X-360894D01*
X-340922Y118179D02*
Y132431D01*
X-398126Y134330D02*
X-377727D01*
X175924Y134731D02*
G03*
X161624Y149031I-14300J0D01*
G01*
X170424Y134555D02*
G03*
X170401Y134938I-3450J-13D01*
G01*
X170401Y134938D02*
G03*
X160549Y143839I-9989J-1153D01*
G01*
X145356Y133931D02*
G03*
X153423Y137507I19J10843D01*
G01*
X155957Y138631D02*
G03*
X153423Y137507I13J-3450D01*
G01*
X165328Y132431D02*
G03*
X159128Y138631I-6200J0D01*
G01*
X91924Y144031D02*
X108124D01*
X175924Y121031D02*
Y134731D01*
X119724Y149031D02*
X161624D01*
X108536Y153220D02*
X115535D01*
X119724Y149031D01*
X108125Y153631D02*
X108536Y153220D01*
X170424Y121031D02*
Y134555D01*
X170401Y134938D02*
X170401D01*
X108124Y144031D02*
X160549Y143839D01*
X145356Y133931D02*
X145356Y133931D01*
X155957Y138631D02*
X159128D01*
X135524Y133931D02*
X145356D01*
X165328Y118179D02*
Y132431D01*
X108124Y134330D02*
X128523D01*
X-330326Y366231D02*
G03*
X-344626Y380531I-14300J0D01*
G01*
X-335826Y366055D02*
G03*
X-335849Y366438I-3450J-13D01*
G01*
X-335849Y366438D02*
G03*
X-345701Y375339I-9989J-1153D01*
G01*
X-360894Y365431D02*
G03*
X-352827Y369007I19J10843D01*
G01*
X-350293Y370131D02*
G03*
X-352827Y369007I13J-3450D01*
G01*
X-340922Y363931D02*
G03*
X-347122Y370131I-6200J0D01*
G01*
X-414326Y375531D02*
X-398126D01*
X-330326Y352531D02*
Y366231D01*
X-386526Y380531D02*
X-344626D01*
X-397714Y384720D02*
X-390715D01*
X-386526Y380531D01*
X-398125Y385131D02*
X-397714Y384720D01*
X-335826Y352531D02*
Y366055D01*
X-335849Y366438D02*
X-335849D01*
X-398126Y375531D02*
X-345701Y375339D01*
X-360894Y365431D02*
X-360894Y365431D01*
X-350293Y370131D02*
X-347122D01*
X-370726Y365431D02*
X-360894D01*
X-340922Y349679D02*
Y363931D01*
X-398126Y365830D02*
X-377727D01*
X175924Y366231D02*
G03*
X161624Y380531I-14300J0D01*
G01*
X170424Y366055D02*
G03*
X170401Y366438I-3450J-13D01*
G01*
X170401Y366438D02*
G03*
X160549Y375339I-9989J-1153D01*
G01*
X145356Y365431D02*
G03*
X153423Y369007I19J10843D01*
G01*
X155957Y370131D02*
G03*
X153423Y369007I13J-3450D01*
G01*
X165328Y363931D02*
G03*
X159128Y370131I-6200J0D01*
G01*
X91924Y375531D02*
X108124D01*
X175924Y352531D02*
Y366231D01*
X119724Y380531D02*
X161624D01*
X108536Y384720D02*
X115535D01*
X119724Y380531D01*
X108125Y385131D02*
X108536Y384720D01*
X170424Y352531D02*
Y366055D01*
X170401Y366438D02*
X170401D01*
X108124Y375531D02*
X160549Y375339D01*
X145356Y365431D02*
X145356Y365431D01*
X155957Y370131D02*
X159128D01*
X135524Y365431D02*
X145356D01*
X165328Y349679D02*
Y363931D01*
X108124Y365830D02*
X128523D01*
D13*
X-335226Y-359769D02*
D03*
X-332726D02*
D03*
X-330226D02*
D03*
X-327726D02*
D03*
X-325226D02*
D03*
X-322726D02*
D03*
X-320226D02*
D03*
X171024D02*
D03*
X173524D02*
D03*
X176024D02*
D03*
X178524D02*
D03*
X181024D02*
D03*
X183524D02*
D03*
X186024D02*
D03*
X-335226Y-128269D02*
D03*
X-332726D02*
D03*
X-330226D02*
D03*
X-327726D02*
D03*
X-325226D02*
D03*
X-322726D02*
D03*
X-320226D02*
D03*
X171024D02*
D03*
X173524D02*
D03*
X176024D02*
D03*
X178524D02*
D03*
X181024D02*
D03*
X183524D02*
D03*
X186024D02*
D03*
X-335226Y103231D02*
D03*
X-332726D02*
D03*
X-330226D02*
D03*
X-327726D02*
D03*
X-325226D02*
D03*
X-322726D02*
D03*
X-320226D02*
D03*
X171024D02*
D03*
X173524D02*
D03*
X176024D02*
D03*
X178524D02*
D03*
X181024D02*
D03*
X183524D02*
D03*
X186024D02*
D03*
X-335226Y334731D02*
D03*
X-332726D02*
D03*
X-330226D02*
D03*
X-327726D02*
D03*
X-325226D02*
D03*
X-322726D02*
D03*
X-320226D02*
D03*
X171024D02*
D03*
X173524D02*
D03*
X176024D02*
D03*
X178524D02*
D03*
X181024D02*
D03*
X183524D02*
D03*
X186024D02*
D03*
D14*
X-370640Y-328969D02*
D03*
X-376726D02*
D03*
X135610D02*
D03*
X129524D02*
D03*
X-370640Y-97469D02*
D03*
X-376726D02*
D03*
X135610D02*
D03*
X129524D02*
D03*
X-370640Y134031D02*
D03*
X-376726D02*
D03*
X135610D02*
D03*
X129524D02*
D03*
X-370640Y365531D02*
D03*
X-376726D02*
D03*
X135610D02*
D03*
X129524D02*
D03*
D15*
X-398125Y-309369D02*
D03*
X-398126Y-328670D02*
D03*
X108125Y-309369D02*
D03*
X108124Y-328670D02*
D03*
X-398125Y-77869D02*
D03*
X-398126Y-97170D02*
D03*
X108125Y-77869D02*
D03*
X108124Y-97170D02*
D03*
X-398125Y153631D02*
D03*
X-398126Y134330D02*
D03*
X108125Y153631D02*
D03*
X108124Y134330D02*
D03*
X-398125Y385131D02*
D03*
X-398126Y365830D02*
D03*
X108125Y385131D02*
D03*
X108124Y365830D02*
D03*
D16*
X-398126Y-318969D02*
D03*
X108124D02*
D03*
X-398126Y-87469D02*
D03*
X108124D02*
D03*
X-398126Y144031D02*
D03*
X108124D02*
D03*
X-398126Y375531D02*
D03*
X108124D02*
D03*
D17*
X-425526Y-308819D02*
D03*
X-425526Y-329119D02*
D03*
X80724Y-308819D02*
D03*
X80724Y-329119D02*
D03*
X-425526Y-77319D02*
D03*
X-425526Y-97619D02*
D03*
X80724Y-77319D02*
D03*
X80724Y-97619D02*
D03*
X-425526Y154181D02*
D03*
X-425526Y133881D02*
D03*
X80724Y154181D02*
D03*
X80724Y133881D02*
D03*
X-425526Y385681D02*
D03*
X-425526Y365381D02*
D03*
X80724Y385681D02*
D03*
X80724Y365381D02*
D03*
D18*
X-424306Y-318969D02*
D03*
X81944D02*
D03*
X-424306Y-87469D02*
D03*
X81944D02*
D03*
X-424306Y144031D02*
D03*
X81944D02*
D03*
X-424306Y375531D02*
D03*
X81944D02*
D03*
D19*
X-335226Y-359769D02*
Y-359469D01*
Y-373419D02*
Y-359769D01*
Y-359469D02*
Y-359419D01*
X-327726Y-373419D02*
Y-359419D01*
X-325226Y-373419D02*
Y-359769D01*
Y-359419D01*
X-322726Y-373419D02*
Y-359769D01*
Y-359419D01*
X-332726Y-373419D02*
Y-359769D01*
Y-359419D01*
X-330226Y-373419D02*
Y-359769D01*
Y-359419D01*
X-320226Y-373419D02*
Y-359769D01*
Y-359419D01*
X171024Y-359769D02*
Y-359469D01*
Y-373419D02*
Y-359769D01*
Y-359469D02*
Y-359419D01*
X178524Y-373419D02*
Y-359419D01*
X181024Y-373419D02*
Y-359769D01*
Y-359419D01*
X183524Y-373419D02*
Y-359769D01*
Y-359419D01*
X173524Y-373419D02*
Y-359769D01*
Y-359419D01*
X176024Y-373419D02*
Y-359769D01*
Y-359419D01*
X186024Y-373419D02*
Y-359769D01*
Y-359419D01*
X-335226Y-128269D02*
Y-127969D01*
Y-141919D02*
Y-128269D01*
Y-127969D02*
Y-127919D01*
X-327726Y-141919D02*
Y-127919D01*
X-325226Y-141919D02*
Y-128269D01*
Y-127919D01*
X-322726Y-141919D02*
Y-128269D01*
Y-127919D01*
X-332726Y-141919D02*
Y-128269D01*
Y-127919D01*
X-330226Y-141919D02*
Y-128269D01*
Y-127919D01*
X-320226Y-141919D02*
Y-128269D01*
Y-127919D01*
X171024Y-128269D02*
Y-127969D01*
Y-141919D02*
Y-128269D01*
Y-127969D02*
Y-127919D01*
X178524Y-141919D02*
Y-127919D01*
X181024Y-141919D02*
Y-128269D01*
Y-127919D01*
X183524Y-141919D02*
Y-128269D01*
Y-127919D01*
X173524Y-141919D02*
Y-128269D01*
Y-127919D01*
X176024Y-141919D02*
Y-128269D01*
Y-127919D01*
X186024Y-141919D02*
Y-128269D01*
Y-127919D01*
X-335226Y103231D02*
Y103531D01*
Y89581D02*
Y103231D01*
Y103531D02*
Y103581D01*
X-327726Y89581D02*
Y103581D01*
X-325226Y89581D02*
Y103231D01*
Y103581D01*
X-322726Y89581D02*
Y103231D01*
Y103581D01*
X-332726Y89581D02*
Y103231D01*
Y103581D01*
X-330226Y89581D02*
Y103231D01*
Y103581D01*
X-320226Y89581D02*
Y103231D01*
Y103581D01*
X171024Y103231D02*
Y103531D01*
Y89581D02*
Y103231D01*
Y103531D02*
Y103581D01*
X178524Y89581D02*
Y103581D01*
X181024Y89581D02*
Y103231D01*
Y103581D01*
X183524Y89581D02*
Y103231D01*
Y103581D01*
X173524Y89581D02*
Y103231D01*
Y103581D01*
X176024Y89581D02*
Y103231D01*
Y103581D01*
X186024Y89581D02*
Y103231D01*
Y103581D01*
X-335226Y334731D02*
Y335031D01*
Y321081D02*
Y334731D01*
Y335031D02*
Y335081D01*
X-327726Y321081D02*
Y335081D01*
X-325226Y321081D02*
Y334731D01*
Y335081D01*
X-322726Y321081D02*
Y334731D01*
Y335081D01*
X-332726Y321081D02*
Y334731D01*
Y335081D01*
X-330226Y321081D02*
Y334731D01*
Y335081D01*
X-320226Y321081D02*
Y334731D01*
Y335081D01*
X171024Y334731D02*
Y335031D01*
Y321081D02*
Y334731D01*
Y335031D02*
Y335081D01*
X178524Y321081D02*
Y335081D01*
X181024Y321081D02*
Y334731D01*
Y335081D01*
X183524Y321081D02*
Y334731D01*
Y335081D01*
X173524Y321081D02*
Y334731D01*
Y335081D01*
X176024Y321081D02*
Y334731D01*
Y335081D01*
X186024Y321081D02*
Y334731D01*
Y335081D01*
D20*
X203099Y-325380D02*
D03*
X203100Y-315220D02*
D03*
X203100Y-305060D02*
D03*
X204099Y139620D02*
D03*
X204100Y149780D02*
D03*
X204100Y159940D02*
D03*
X203099Y370620D02*
D03*
X203100Y380780D02*
D03*
X203100Y390940D02*
D03*
X-301901Y-323380D02*
D03*
X-301900Y-313220D02*
D03*
X-301900Y-303060D02*
D03*
X-301901Y-91880D02*
D03*
X-301900Y-81720D02*
D03*
X-301900Y-71560D02*
D03*
X-304500Y138840D02*
D03*
X-304500Y149000D02*
D03*
X-304500Y159160D02*
D03*
X-303500Y371340D02*
D03*
X-303500Y381500D02*
D03*
X-303500Y391660D02*
D03*
X-376000Y407500D02*
D03*
Y-288500D02*
D03*
X-375000Y-58500D02*
D03*
X-375920Y173991D02*
D03*
X204469Y-96520D02*
D03*
X204470Y-86360D02*
D03*
X204470Y-76200D02*
D03*
X129541Y407670D02*
D03*
X109220Y407670D02*
D03*
X119380Y407670D02*
D03*
X99060Y407670D02*
D03*
X88900Y407671D02*
D03*
X112491Y340354D02*
D03*
X102333Y340531D02*
D03*
X92175Y340709D02*
D03*
X173500Y306500D02*
D03*
X165000Y310000D02*
D03*
X173500Y76500D02*
D03*
X165500Y80000D02*
D03*
X111760Y109220D02*
D03*
X101600Y109220D02*
D03*
X91440Y109221D02*
D03*
X129541Y175260D02*
D03*
X109220Y175260D02*
D03*
X119380Y175260D02*
D03*
X99060Y175260D02*
D03*
X88900Y175261D02*
D03*
X173000Y-157000D02*
D03*
X164500Y-153000D02*
D03*
X173000Y-388500D02*
D03*
X164500Y-385000D02*
D03*
X129541Y-55880D02*
D03*
X109220Y-55880D02*
D03*
X119380Y-55880D02*
D03*
X99060Y-55880D02*
D03*
X88900Y-55879D02*
D03*
X129541Y-288290D02*
D03*
X109220Y-288290D02*
D03*
X119380Y-288290D02*
D03*
X99060Y-288290D02*
D03*
X88900Y-288289D02*
D03*
X-396240Y407670D02*
D03*
X-386080Y407670D02*
D03*
X-406400Y407670D02*
D03*
X-416560Y407671D02*
D03*
X-394970Y336550D02*
D03*
X-405130Y336550D02*
D03*
X-415290Y336551D02*
D03*
X-334303Y303208D02*
D03*
X-343850Y306683D02*
D03*
X-332500Y-156500D02*
D03*
X-341000Y-154000D02*
D03*
X-333556Y74517D02*
D03*
X-342000Y77500D02*
D03*
X-394970Y107950D02*
D03*
X-405130Y107950D02*
D03*
X-415290Y107951D02*
D03*
X-396240Y173990D02*
D03*
X-386080Y173990D02*
D03*
X-406400Y173990D02*
D03*
X-416560Y173991D02*
D03*
X-396000Y-58500D02*
D03*
X-385500D02*
D03*
X-406500D02*
D03*
X-416500D02*
D03*
X-332000Y-387500D02*
D03*
X-341500Y-384500D02*
D03*
X-396240Y-288290D02*
D03*
X-386080Y-288290D02*
D03*
X-406400Y-288290D02*
D03*
X-416560Y-288289D02*
D03*
X102870Y-127000D02*
D03*
X113030Y-127000D02*
D03*
X92710Y-127000D02*
D03*
X-403860Y-123190D02*
D03*
X-393700Y-123190D02*
D03*
X-414020Y-123190D02*
D03*
X101600Y-354330D02*
D03*
X111760Y-354330D02*
D03*
X91440Y-354330D02*
D03*
X-403500Y-356000D02*
D03*
X-392500D02*
D03*
X-414000D02*
D03*
M02*
