M48
;Layer_Color=9474304
;FILE_FORMAT=4:4
METRIC,LZ
;TYPE=NON_PLATED
T1F00S00C0.4110
T2F00S00C0.7620
%
T01
X00087061Y-00318941
X-00419189
Y-00087441
X00087061
Y00144059
Y00375559
X-00419189
Y00144059
T02
X0009144Y-0035433
X001016Y-0035433
X0011176Y-0035433
X001645Y-00385
X00173Y-003885
X00203099Y-0032538
X002031Y-0031522
X-003019Y-0031322
X-00301901Y-0032338
X-00332Y-003875
X-003415Y-003845
X-003925Y-00356
X-004035
X-00414
X-0041656Y-00288289
X-004064Y-0028829
X-0039624Y-0028829
X-0038608Y-0028829
X-00376Y-002885
X-003019Y-0030306
X-003325Y-001565
X-00341Y-00154
X-003937Y-0012319
X-0040386Y-0012319
X-0041402Y-0012319
X-004165Y-000585
X-004065
X-00396
X-003855
X-00375
X-003019Y-0007156
X-003019Y-0008172
X-00301901Y-0009188
X-00333556Y00074517
X-00342Y000775
X001655Y0008
X001735Y000765
X00129541Y-0005588
X0011938Y-0005588
X0010922Y-0005588
X0009906Y-0005588
X000889Y-00055879
X0009271Y-00127
X0010287Y-00127
X0011303Y-00127
X001645Y-00153
X00173Y-00157
X00204469Y-0009652
X0020447Y-0008636
X0020447Y-000762
X002031Y-0030506
X00129541Y-0028829
X0011938Y-0028829
X0010922Y-0028829
X0009906Y-0028829
X000889Y-00288289
X0009144Y00109221
X001016Y0010922
X0011176Y0010922
X0010922Y0017526
X0009906Y0017526
X000889Y00175261
X0011938Y0017526
X00129541Y0017526
X002041Y0015994
X002041Y0014978
X00204099Y0013962
X001735Y003065
X00165Y0031
X00112491Y00340354
X00102333Y00340531
X00092175Y00340709
X000889Y00407671
X0009906Y0040767
X0010922Y0040767
X0011938Y0040767
X00129541Y0040767
X002031Y0039094
X002031Y0038078
X00203099Y0037062
X-003035Y0037134
X-003035Y003815
X-003035Y0039166
X-00376Y004075
X-0038608Y0040767
X-0039624Y0040767
X-004064Y0040767
X-0041656Y00407671
X-0041529Y00336551
X-0040513Y0033655
X-0039497Y0033655
X-0034385Y00306683
X-00334303Y00303208
X-0037592Y00173991
X-0038608Y0017399
X-0039624Y0017399
X-004064Y0017399
X-0041656Y00173991
X-0041529Y00107951
X-0040513Y0010795
X-0039497Y0010795
X-003045Y0013884
X-003045Y00149
X-003045Y0015916
M30
