G04*
G04 #@! TF.GenerationSoftware,Altium Limited,Altium Designer,22.0.2 (36)*
G04*
G04 Layer_Color=8388736*
%FSLAX25Y25*%
%MOIN*%
G70*
G04*
G04 #@! TF.SameCoordinates,C0FC8E1B-DD9C-4E20-AA03-C8AD4D6FB2F1*
G04*
G04*
G04 #@! TF.FilePolarity,Negative*
G04*
G01*
G75*
%ADD13R,0.01788X0.01428*%
%ADD18C,0.01840*%
%ADD19C,0.03435*%
%ADD20C,0.03002*%
%ADD21C,0.03005*%
%ADD22C,0.01387*%
%ADD23C,0.02805*%
%ADD24C,0.00600*%
G36*
X-5709Y-1575D02*
X-5826D01*
X-6043Y-1485D01*
X-6209Y-1319D01*
X-6299Y-1102D01*
Y-984D01*
D01*
Y1181D01*
Y1259D01*
X-6239Y1404D01*
X-6129Y1515D01*
X-5984Y1575D01*
X-5906D01*
D01*
X-4724D01*
X-4648Y1582D01*
X-4506Y1641D01*
X-4397Y1750D01*
X-4338Y1892D01*
X-4331Y1969D01*
D01*
Y2756D01*
X-4338Y2833D01*
X-4397Y2975D01*
X-4506Y3083D01*
X-4648Y3142D01*
X-4724Y3150D01*
D01*
X-5906D01*
X-5984D01*
X-6129Y3210D01*
X-6239Y3320D01*
X-6299Y3465D01*
Y3543D01*
D01*
Y4843D01*
X6299D01*
Y3543D01*
Y3465D01*
X6239Y3320D01*
X6129Y3210D01*
X5984Y3150D01*
X5906D01*
D01*
X4724D01*
X4648Y3142D01*
X4506Y3083D01*
X4397Y2975D01*
X4338Y2833D01*
X4331Y2756D01*
D01*
Y1969D01*
X4338Y1892D01*
X4397Y1750D01*
X4506Y1641D01*
X4648Y1582D01*
X4724Y1575D01*
D01*
X5906D01*
X5984D01*
X6129Y1515D01*
X6239Y1404D01*
X6299Y1259D01*
Y1181D01*
D01*
Y-984D01*
Y-1102D01*
X6209Y-1319D01*
X6043Y-1485D01*
X5826Y-1575D01*
X5709D01*
D01*
X-5709D01*
D02*
G37*
D13*
X70357Y15551D02*
D03*
X72753D02*
D03*
X-12842Y24213D02*
D03*
X-15238D02*
D03*
D18*
X83474Y19252D02*
G03*
X81464Y21063I-1821J0D01*
G01*
D02*
G03*
X79833Y19252I189J-1811D01*
G01*
D02*
G03*
X81093Y17520I1821J0D01*
G01*
D02*
G03*
X83474Y19252I561J1732D01*
G01*
X-28652Y19291D02*
G03*
X-30052Y21063I-1821J0D01*
G01*
D02*
G03*
X-32283Y19094I-421J-1772D01*
G01*
X-30052Y17520D02*
G03*
X-28652Y19291I-421J1772D01*
G01*
X-32283Y19094D02*
G03*
X-30052Y17520I1810J197D01*
G01*
D19*
X89961Y23031D02*
D03*
Y15433D02*
D03*
X-38780Y15512D02*
D03*
Y23110D02*
D03*
D20*
X89961Y19252D02*
D03*
X-38780Y19291D02*
D03*
D21*
X79173Y23248D02*
D03*
X-27992Y15295D02*
D03*
D22*
X79654Y19252D02*
D03*
X-28472Y19291D02*
D03*
D23*
X79173Y15256D02*
D03*
X-27992Y23287D02*
D03*
D24*
X81693Y19291D02*
D03*
X-30480Y19291D02*
D03*
M02*
