G04*
G04 #@! TF.GenerationSoftware,Altium Limited,Altium Designer,22.0.2 (36)*
G04*
G04 Layer_Physical_Order=1*
G04 Layer_Color=255*
%FSLAX25Y25*%
%MOIN*%
G70*
G04*
G04 #@! TF.SameCoordinates,C0FC8E1B-DD9C-4E20-AA03-C8AD4D6FB2F1*
G04*
G04*
G04 #@! TF.FilePolarity,Positive*
G04*
G01*
G75*
%ADD13R,0.01788X0.01428*%
%ADD14C,0.02835*%
%ADD15C,0.02402*%
%ADD16C,0.02205*%
%ADD17C,0.00787*%
%ADD25C,0.01500*%
%ADD26C,0.01240*%
%ADD27R,0.00394X0.01299*%
%ADD28C,0.02000*%
%ADD29C,0.00600*%
%ADD30C,0.01457*%
%ADD31C,0.00276*%
G36*
X5906Y8071D02*
X3937Y8071D01*
X3937Y8071D01*
X3855Y8077D01*
X3699Y8030D01*
X3584Y7915D01*
X3537Y7759D01*
X3543Y7677D01*
Y3937D01*
X3150Y3543D01*
D01*
X3071Y3150D01*
X2835D01*
X2756Y3543D01*
Y8268D01*
X4474Y10630D01*
X5906D01*
Y8071D01*
D02*
G37*
G36*
X1772Y10630D02*
X1181Y8661D01*
Y4724D01*
Y3543D01*
X1102Y3150D01*
X866D01*
X787Y3543D01*
Y3543D01*
X591Y3740D01*
Y5118D01*
X394Y5315D01*
Y10827D01*
X591Y11426D01*
X1772D01*
Y10630D01*
D02*
G37*
G36*
X-394Y10827D02*
Y5315D01*
X-591Y5118D01*
Y3740D01*
X-787Y3543D01*
D01*
X-866Y3150D01*
X-1102D01*
X-1181Y3543D01*
D01*
Y3543D01*
Y3583D01*
Y8661D01*
X-1772Y10630D01*
Y11426D01*
X-591D01*
X-394Y10827D01*
D02*
G37*
G36*
X-2756Y8268D02*
Y4724D01*
Y3583D01*
Y3543D01*
X-2835Y3150D01*
X-3071D01*
X-3150Y3543D01*
D01*
X-3543Y3937D01*
X-3543Y7677D01*
X-3537Y7759D01*
X-3584Y7915D01*
X-3700Y8030D01*
X-3855Y8077D01*
X-3937Y8071D01*
X-3937Y8071D01*
X-5906Y8071D01*
Y10630D01*
X-4474D01*
X-2756Y8268D01*
D02*
G37*
G36*
X3740Y10630D02*
X2362Y8465D01*
Y3325D01*
X2520Y3150D01*
Y1378D01*
X2087Y984D01*
X1850D01*
X1417Y1378D01*
Y3150D01*
X1575Y3325D01*
Y8661D01*
X2559Y11417D01*
X3740D01*
Y10630D01*
D02*
G37*
G36*
X197Y3543D02*
X551Y3150D01*
Y1378D01*
X118Y984D01*
X-118D01*
X-551Y1378D01*
Y3150D01*
X-197Y3543D01*
Y3622D01*
X197D01*
Y3543D01*
D02*
G37*
G36*
X-1575Y8661D02*
Y3325D01*
X-1417Y3150D01*
Y1378D01*
X-1850Y984D01*
X-2087D01*
X-2520Y1378D01*
Y3150D01*
X-2362Y3325D01*
Y8465D01*
X-3740Y10630D01*
Y11417D01*
X-2559D01*
X-1575Y8661D01*
D02*
G37*
G36*
X5906Y3740D02*
Y3701D01*
X5875Y3629D01*
X5820Y3573D01*
X5748Y3543D01*
X4843D01*
X4689Y3528D01*
X4405Y3411D01*
X4188Y3193D01*
X4070Y2909D01*
X4055Y2756D01*
Y1969D01*
X4070Y1815D01*
X4188Y1531D01*
X4405Y1314D01*
X4689Y1196D01*
X4843Y1181D01*
X5708D01*
X5853Y1121D01*
X5964Y1010D01*
X6024Y866D01*
Y787D01*
Y-787D01*
Y-827D01*
X5994Y-899D01*
X5938Y-954D01*
X5866Y-984D01*
X4331D01*
Y-1575D01*
X3937D01*
Y866D01*
X3661Y1260D01*
Y3189D01*
X3937Y3543D01*
Y7598D01*
X5906D01*
Y3740D01*
D02*
G37*
G36*
X3504Y866D02*
Y-984D01*
X3150D01*
Y-1575D01*
X2756D01*
Y-984D01*
X2402D01*
Y866D01*
X2835Y1260D01*
X3071D01*
X3504Y866D01*
D02*
G37*
G36*
X2165Y-1181D02*
Y-1575D01*
X1772D01*
Y-1181D01*
X1850Y-945D01*
X2087D01*
X2165Y-1181D01*
D02*
G37*
G36*
X1535Y866D02*
Y-984D01*
X1181D01*
Y-1575D01*
X787D01*
Y-984D01*
X433D01*
Y866D01*
X866Y1260D01*
X1102D01*
X1535Y866D01*
D02*
G37*
G36*
X197Y-1181D02*
Y-1575D01*
X-197D01*
Y-1181D01*
X-118Y-945D01*
X118D01*
X197Y-1181D01*
D02*
G37*
G36*
X-433Y866D02*
Y-984D01*
X-787D01*
Y-1575D01*
X-1181D01*
Y-984D01*
X-1535D01*
Y866D01*
X-1102Y1260D01*
X-866D01*
X-433Y866D01*
D02*
G37*
G36*
X-1772Y-1181D02*
Y-1575D01*
X-2165D01*
Y-1181D01*
X-2087Y-945D01*
X-1850D01*
X-1772Y-1181D01*
D02*
G37*
G36*
X-2402Y866D02*
Y-984D01*
X-2756D01*
Y-1575D01*
X-3150D01*
Y-984D01*
X-3504D01*
Y866D01*
X-3071Y1260D01*
X-2835D01*
X-2402Y866D01*
D02*
G37*
G36*
X-3937Y3543D02*
X-3661Y3189D01*
Y1260D01*
X-3937Y866D01*
Y-1575D01*
X-4331D01*
Y-984D01*
X-5866D01*
X-5938Y-954D01*
X-5994Y-899D01*
X-6024Y-827D01*
Y-787D01*
Y787D01*
Y866D01*
X-5964Y1010D01*
X-5853Y1121D01*
X-5708Y1181D01*
X-4843D01*
X-4689Y1196D01*
X-4405Y1314D01*
X-4188Y1531D01*
X-4070Y1815D01*
X-4055Y1969D01*
Y2756D01*
X-4070Y2909D01*
X-4188Y3193D01*
X-4405Y3411D01*
X-4689Y3528D01*
X-4843Y3543D01*
X-5748D01*
X-5820Y3573D01*
X-5875Y3629D01*
X-5906Y3701D01*
Y3740D01*
Y7598D01*
X-3937D01*
Y3543D01*
D02*
G37*
D13*
X70357Y15551D02*
D03*
X72753D02*
D03*
X-12842Y24213D02*
D03*
X-15238D02*
D03*
D14*
X89961Y23031D02*
D03*
Y15433D02*
D03*
X-38780Y15512D02*
D03*
Y23110D02*
D03*
D15*
X89961Y19252D02*
D03*
X-38780Y19291D02*
D03*
D16*
X79173Y23248D02*
D03*
Y15256D02*
D03*
X-27992Y15295D02*
D03*
Y23287D02*
D03*
D17*
X79654Y19252D02*
D03*
X-28472Y19291D02*
D03*
D25*
X-5118Y17520D02*
G03*
X-6693Y19094I-1575J0D01*
G01*
X68033Y22047D02*
G03*
X68032Y22047I-1J-79D01*
G01*
X68110Y21969D02*
G03*
X68033Y22047I-79J0D01*
G01*
X6693Y23031D02*
G03*
X1181Y17520I0J-5512D01*
G01*
X6693Y21063D02*
G03*
X3150Y17520I0J-3543D01*
G01*
X-3150D02*
G03*
X-6693Y21063I-3543J0D01*
G01*
X6693Y19094D02*
G03*
X5118Y17520I0J-1575D01*
G01*
X-1181D02*
G03*
X-6693Y23031I-5512J0D01*
G01*
X-27505Y13167D02*
X-27111D01*
X-36599D02*
X-27505D01*
X-12992Y19094D02*
X-6693D01*
X-5118Y9843D02*
Y17520D01*
X-14707Y17380D02*
X-12992Y19094D01*
X-27000Y13189D02*
X-23653Y16535D01*
X-38780Y15512D02*
X-36599Y13331D01*
X66142Y19291D02*
X79793D01*
X79173Y15256D02*
X81093Y17175D01*
X77640Y25435D02*
X87557D01*
X74213Y22008D02*
X77640Y25435D01*
X68032Y22047D02*
X68150D01*
X68110Y21969D02*
X68150Y22008D01*
X68033Y22047D02*
X68307D01*
X6693Y23031D02*
X66969D01*
X67953Y22047D02*
X68033D01*
X1181Y11024D02*
Y17520D01*
X87557Y25435D02*
X89961Y23031D01*
X72835Y15748D02*
X75197D01*
X77797Y13148D01*
X79833D02*
X87675D01*
X89961Y15433D01*
X79793Y19291D02*
X79833Y19252D01*
X6693Y21063D02*
X64370D01*
X3150Y11024D02*
Y17520D01*
X-16732Y21063D02*
X-6693D01*
X-3150Y11024D02*
Y17520D01*
X-38780Y23110D02*
X-36398Y25492D01*
X-20133D02*
X-18854Y24213D01*
X-36398Y25492D02*
X-20133D01*
X5118Y9843D02*
Y17520D01*
X66142Y15748D02*
X70438D01*
X6693Y19094D02*
X62795D01*
X-30052Y17355D02*
X-27992Y15295D01*
X-30052Y21228D02*
X-27992Y23287D01*
X-38780Y19291D02*
X-32480D01*
X-28472D02*
X-18504D01*
X-18854Y24213D02*
X-15238D01*
X-18504Y19291D02*
X-16732Y21063D01*
X-7874Y24213D02*
X-6693Y23031D01*
X-12842Y24213D02*
X-7874D01*
X62795Y19094D02*
X66142Y15748D01*
X64370Y21063D02*
X66142Y19291D01*
X66969Y23031D02*
X67953Y22047D01*
X-1181Y11024D02*
Y17520D01*
X68150Y22008D02*
X74213D01*
D26*
X83474Y19252D02*
G03*
X81464Y21063I-1821J0D01*
G01*
D02*
G03*
X79833Y19252I189J-1811D01*
G01*
D02*
G03*
X81093Y17520I1821J0D01*
G01*
D02*
G03*
X83474Y19252I561J1732D01*
G01*
X-28652Y19291D02*
G03*
X-30052Y21063I-1821J0D01*
G01*
D02*
G03*
X-32283Y19094I-421J-1772D01*
G01*
X-30052Y17520D02*
G03*
X-28652Y19291I-421J1772D01*
G01*
X-32283Y19094D02*
G03*
X-30052Y17520I1810J197D01*
G01*
X79279Y23248D02*
X81464Y21063D01*
X79173Y23248D02*
X79279D01*
X83474Y19252D02*
X89961D01*
D27*
X2953Y4193D02*
D03*
X1969D02*
D03*
X984D02*
D03*
X0D02*
D03*
X-984D02*
D03*
X-1969D02*
D03*
X-2953D02*
D03*
D28*
X-15551Y16535D02*
X-15050Y17036D01*
X-23653Y16535D02*
X-15551D01*
D29*
X-27089Y13189D02*
X-27000D01*
X-27483D02*
X-27089D01*
X-27505Y13167D02*
X-27483Y13189D01*
X81093Y17175D02*
Y17520D01*
X79173Y15256D02*
Y15600D01*
X-30052Y21063D02*
Y21228D01*
X-32480Y19291D02*
X-32283Y19094D01*
X-30052Y17355D02*
Y17520D01*
D30*
X77797Y13148D02*
X79833D01*
D31*
X2953Y4193D02*
Y4331D01*
Y-1181D02*
Y4193D01*
X-984D02*
Y4331D01*
Y-1181D02*
Y4193D01*
X-1969D02*
Y4331D01*
Y-1181D02*
Y4193D01*
X-2953D02*
Y4331D01*
Y-1181D02*
Y4193D01*
X1969D02*
Y4331D01*
Y-1181D02*
Y4193D01*
X984D02*
Y4331D01*
Y-1181D02*
Y4193D01*
X0Y-1181D02*
Y4331D01*
M02*
