G04*
G04 #@! TF.GenerationSoftware,Altium Limited,Altium Designer,22.0.2 (36)*
G04*
G04 Layer_Color=16711935*
%FSLAX25Y25*%
%MOIN*%
G70*
G04*
G04 #@! TF.SameCoordinates,A7A34655-709E-4B41-B7F3-9F89ABBABE90*
G04*
G04*
G04 #@! TF.FilePolarity,Positive*
G04*
G01*
G75*
%ADD11C,0.00787*%
G36*
X470626Y293511D02*
X470622D01*
X470608D01*
X470586D01*
X470556Y293515D01*
X470524Y293518D01*
X470487Y293526D01*
X470451Y293533D01*
X470411Y293548D01*
X470407D01*
X470404Y293551D01*
X470382Y293559D01*
X470349Y293573D01*
X470305Y293595D01*
X470254Y293624D01*
X470196Y293660D01*
X470138Y293701D01*
X470076Y293751D01*
X470072D01*
X470069Y293759D01*
X470047Y293777D01*
X470014Y293810D01*
X469967Y293857D01*
X469912Y293912D01*
X469847Y293981D01*
X469774Y294064D01*
X469698Y294156D01*
X469694Y294159D01*
X469683Y294174D01*
X469665Y294196D01*
X469643Y294221D01*
X469614Y294254D01*
X469581Y294294D01*
X469545Y294334D01*
X469504Y294381D01*
X469417Y294472D01*
X469330Y294563D01*
X469286Y294607D01*
X469242Y294647D01*
X469202Y294683D01*
X469162Y294712D01*
X469159D01*
X469155Y294720D01*
X469144Y294727D01*
X469130Y294734D01*
X469090Y294760D01*
X469042Y294789D01*
X468984Y294814D01*
X468922Y294840D01*
X468853Y294854D01*
X468787Y294862D01*
X468784D01*
X468780D01*
X468758Y294858D01*
X468722Y294854D01*
X468682Y294843D01*
X468631Y294829D01*
X468580Y294803D01*
X468529Y294771D01*
X468478Y294727D01*
X468471Y294720D01*
X468456Y294702D01*
X468438Y294676D01*
X468412Y294636D01*
X468391Y294585D01*
X468369Y294527D01*
X468354Y294458D01*
X468351Y294381D01*
Y294359D01*
X468354Y294345D01*
X468358Y294301D01*
X468369Y294250D01*
X468383Y294196D01*
X468409Y294134D01*
X468442Y294075D01*
X468485Y294021D01*
X468493Y294014D01*
X468511Y293999D01*
X468540Y293977D01*
X468584Y293955D01*
X468635Y293930D01*
X468700Y293908D01*
X468773Y293893D01*
X468857Y293886D01*
X468824Y293569D01*
X468820D01*
X468809Y293573D01*
X468791D01*
X468766Y293577D01*
X468737Y293584D01*
X468704Y293591D01*
X468664Y293602D01*
X468624Y293613D01*
X468536Y293642D01*
X468449Y293686D01*
X468405Y293711D01*
X468362Y293744D01*
X468322Y293777D01*
X468285Y293813D01*
X468282Y293817D01*
X468278Y293824D01*
X468267Y293835D01*
X468256Y293853D01*
X468242Y293875D01*
X468227Y293901D01*
X468209Y293930D01*
X468190Y293966D01*
X468172Y294006D01*
X468154Y294050D01*
X468140Y294097D01*
X468125Y294148D01*
X468114Y294203D01*
X468103Y294261D01*
X468099Y294323D01*
X468096Y294388D01*
Y294425D01*
X468099Y294450D01*
X468103Y294479D01*
X468107Y294516D01*
X468114Y294556D01*
X468121Y294596D01*
X468147Y294690D01*
X468183Y294785D01*
X468205Y294832D01*
X468230Y294880D01*
X468263Y294923D01*
X468300Y294964D01*
X468303Y294967D01*
X468307Y294974D01*
X468322Y294982D01*
X468336Y294996D01*
X468354Y295015D01*
X468380Y295033D01*
X468405Y295051D01*
X468438Y295073D01*
X468507Y295109D01*
X468595Y295146D01*
X468638Y295160D01*
X468689Y295167D01*
X468740Y295175D01*
X468795Y295178D01*
X468802D01*
X468820D01*
X468849Y295175D01*
X468889Y295171D01*
X468933Y295164D01*
X468984Y295149D01*
X469039Y295135D01*
X469093Y295113D01*
X469101Y295109D01*
X469119Y295102D01*
X469148Y295087D01*
X469188Y295065D01*
X469232Y295036D01*
X469286Y295000D01*
X469341Y294956D01*
X469403Y294905D01*
X469410Y294898D01*
X469432Y294880D01*
X469450Y294862D01*
X469468Y294843D01*
X469490Y294822D01*
X469519Y294793D01*
X469548Y294763D01*
X469581Y294727D01*
X469617Y294690D01*
X469657Y294647D01*
X469698Y294600D01*
X469745Y294549D01*
X469792Y294490D01*
X469843Y294432D01*
X469847Y294428D01*
X469854Y294421D01*
X469865Y294407D01*
X469879Y294388D01*
X469901Y294367D01*
X469923Y294341D01*
X469971Y294283D01*
X470025Y294221D01*
X470080Y294163D01*
X470127Y294112D01*
X470145Y294090D01*
X470163Y294072D01*
X470167Y294068D01*
X470178Y294057D01*
X470192Y294043D01*
X470214Y294024D01*
X470240Y294006D01*
X470265Y293984D01*
X470327Y293941D01*
Y295182D01*
X470626D01*
Y293511D01*
D02*
G37*
G36*
X469847Y293267D02*
X469869Y293260D01*
X469898Y293249D01*
X469930Y293238D01*
X469971Y293224D01*
X470014Y293205D01*
X470061Y293184D01*
X470163Y293133D01*
X470265Y293067D01*
X470316Y293027D01*
X470367Y292987D01*
X470411Y292943D01*
X470455Y292892D01*
X470458Y292889D01*
X470466Y292881D01*
X470473Y292863D01*
X470487Y292845D01*
X470506Y292816D01*
X470524Y292787D01*
X470542Y292747D01*
X470560Y292707D01*
X470582Y292659D01*
X470600Y292608D01*
X470618Y292554D01*
X470637Y292496D01*
X470651Y292434D01*
X470658Y292368D01*
X470666Y292299D01*
X470669Y292226D01*
Y292186D01*
X470666Y292157D01*
Y292124D01*
X470662Y292084D01*
X470655Y292041D01*
X470647Y291990D01*
X470629Y291884D01*
X470600Y291775D01*
X470560Y291666D01*
X470535Y291615D01*
X470506Y291564D01*
X470502Y291560D01*
X470498Y291553D01*
X470487Y291538D01*
X470473Y291524D01*
X470458Y291502D01*
X470436Y291476D01*
X470411Y291447D01*
X470382Y291418D01*
X470349Y291389D01*
X470316Y291356D01*
X470232Y291291D01*
X470134Y291229D01*
X470025Y291174D01*
X470021D01*
X470011Y291167D01*
X469992Y291163D01*
X469971Y291153D01*
X469941Y291145D01*
X469905Y291134D01*
X469865Y291120D01*
X469821Y291109D01*
X469774Y291098D01*
X469719Y291083D01*
X469606Y291065D01*
X469479Y291051D01*
X469348Y291043D01*
X469344D01*
X469330D01*
X469308D01*
X469282Y291047D01*
X469246D01*
X469210Y291051D01*
X469162Y291054D01*
X469115Y291061D01*
X469009Y291080D01*
X468893Y291105D01*
X468777Y291142D01*
X468664Y291193D01*
X468660Y291196D01*
X468649Y291200D01*
X468635Y291207D01*
X468616Y291222D01*
X468591Y291236D01*
X468562Y291254D01*
X468496Y291302D01*
X468424Y291364D01*
X468351Y291436D01*
X468278Y291520D01*
X468216Y291618D01*
X468212Y291622D01*
X468209Y291633D01*
X468201Y291648D01*
X468190Y291666D01*
X468180Y291695D01*
X468169Y291724D01*
X468154Y291760D01*
X468140Y291800D01*
X468125Y291844D01*
X468110Y291891D01*
X468089Y291993D01*
X468070Y292110D01*
X468063Y292230D01*
Y292266D01*
X468067Y292292D01*
X468070Y292324D01*
X468074Y292365D01*
X468078Y292405D01*
X468089Y292452D01*
X468110Y292550D01*
X468143Y292659D01*
X468165Y292714D01*
X468190Y292765D01*
X468223Y292816D01*
X468256Y292867D01*
X468260Y292870D01*
X468263Y292878D01*
X468274Y292892D01*
X468292Y292911D01*
X468311Y292929D01*
X468336Y292954D01*
X468365Y292980D01*
X468394Y293009D01*
X468431Y293038D01*
X468474Y293067D01*
X468518Y293100D01*
X468565Y293129D01*
X468620Y293155D01*
X468675Y293184D01*
X468733Y293205D01*
X468798Y293227D01*
X468875Y292900D01*
X468871D01*
X468864Y292896D01*
X468849Y292889D01*
X468831Y292881D01*
X468809Y292874D01*
X468780Y292863D01*
X468722Y292834D01*
X468656Y292798D01*
X468591Y292754D01*
X468529Y292700D01*
X468474Y292641D01*
X468467Y292634D01*
X468453Y292612D01*
X468434Y292576D01*
X468409Y292528D01*
X468387Y292466D01*
X468365Y292397D01*
X468351Y292314D01*
X468347Y292223D01*
Y292194D01*
X468351Y292175D01*
Y292150D01*
X468354Y292121D01*
X468365Y292052D01*
X468380Y291975D01*
X468405Y291895D01*
X468442Y291811D01*
X468489Y291735D01*
Y291731D01*
X468496Y291728D01*
X468514Y291702D01*
X468544Y291669D01*
X468587Y291629D01*
X468642Y291582D01*
X468704Y291538D01*
X468780Y291498D01*
X468864Y291462D01*
X468867D01*
X468875Y291458D01*
X468886Y291455D01*
X468904Y291451D01*
X468926Y291444D01*
X468951Y291436D01*
X469013Y291425D01*
X469086Y291411D01*
X469166Y291396D01*
X469253Y291389D01*
X469348Y291385D01*
X469352D01*
X469363D01*
X469381D01*
X469403D01*
X469428Y291389D01*
X469461D01*
X469497Y291393D01*
X469537Y291396D01*
X469625Y291407D01*
X469719Y291425D01*
X469814Y291447D01*
X469909Y291476D01*
X469912D01*
X469919Y291480D01*
X469930Y291487D01*
X469949Y291495D01*
X469992Y291516D01*
X470043Y291549D01*
X470101Y291589D01*
X470163Y291640D01*
X470218Y291699D01*
X470269Y291768D01*
Y291771D01*
X470273Y291778D01*
X470280Y291790D01*
X470287Y291804D01*
X470294Y291822D01*
X470305Y291844D01*
X470327Y291895D01*
X470349Y291961D01*
X470367Y292033D01*
X470382Y292113D01*
X470385Y292197D01*
Y292223D01*
X470382Y292245D01*
Y292270D01*
X470378Y292295D01*
X470364Y292361D01*
X470345Y292437D01*
X470316Y292514D01*
X470276Y292594D01*
X470254Y292634D01*
X470225Y292670D01*
X470222Y292674D01*
X470218Y292678D01*
X470207Y292688D01*
X470196Y292703D01*
X470178Y292718D01*
X470156Y292736D01*
X470134Y292758D01*
X470105Y292776D01*
X470072Y292798D01*
X470036Y292823D01*
X470000Y292845D01*
X469956Y292867D01*
X469909Y292885D01*
X469858Y292903D01*
X469803Y292921D01*
X469745Y292936D01*
X469829Y293271D01*
X469832D01*
X469847Y293267D01*
D02*
G37*
G36*
X476396Y292024D02*
X476429D01*
X476469Y292020D01*
X476512Y292013D01*
X476564Y292006D01*
X476669Y291988D01*
X476778Y291958D01*
X476888Y291918D01*
X476938Y291893D01*
X476989Y291864D01*
X476993Y291860D01*
X477000Y291857D01*
X477015Y291846D01*
X477029Y291831D01*
X477051Y291816D01*
X477077Y291795D01*
X477106Y291769D01*
X477135Y291740D01*
X477164Y291707D01*
X477197Y291674D01*
X477262Y291591D01*
X477324Y291493D01*
X477379Y291383D01*
Y291380D01*
X477386Y291369D01*
X477390Y291351D01*
X477401Y291329D01*
X477408Y291300D01*
X477419Y291263D01*
X477433Y291223D01*
X477444Y291179D01*
X477455Y291132D01*
X477470Y291078D01*
X477488Y290965D01*
X477503Y290837D01*
X477510Y290706D01*
Y290703D01*
Y290688D01*
Y290666D01*
X477506Y290641D01*
Y290604D01*
X477503Y290568D01*
X477499Y290521D01*
X477492Y290473D01*
X477473Y290368D01*
X477448Y290251D01*
X477412Y290135D01*
X477361Y290022D01*
X477357Y290018D01*
X477353Y290007D01*
X477346Y289993D01*
X477331Y289975D01*
X477317Y289949D01*
X477299Y289920D01*
X477251Y289855D01*
X477190Y289782D01*
X477117Y289709D01*
X477033Y289636D01*
X476935Y289574D01*
X476931Y289571D01*
X476920Y289567D01*
X476906Y289560D01*
X476888Y289549D01*
X476858Y289538D01*
X476829Y289527D01*
X476793Y289512D01*
X476753Y289498D01*
X476709Y289483D01*
X476662Y289469D01*
X476560Y289447D01*
X476443Y289429D01*
X476323Y289421D01*
X476287D01*
X476261Y289425D01*
X476229Y289429D01*
X476189Y289432D01*
X476149Y289436D01*
X476101Y289447D01*
X476003Y289469D01*
X475894Y289501D01*
X475839Y289523D01*
X475788Y289549D01*
X475737Y289581D01*
X475686Y289614D01*
X475683Y289618D01*
X475675Y289621D01*
X475661Y289633D01*
X475643Y289651D01*
X475624Y289669D01*
X475599Y289694D01*
X475573Y289723D01*
X475544Y289753D01*
X475515Y289789D01*
X475486Y289833D01*
X475453Y289876D01*
X475424Y289924D01*
X475399Y289978D01*
X475370Y290033D01*
X475348Y290091D01*
X475326Y290157D01*
X475654Y290233D01*
Y290229D01*
X475657Y290222D01*
X475664Y290208D01*
X475672Y290189D01*
X475679Y290167D01*
X475690Y290138D01*
X475719Y290080D01*
X475755Y290015D01*
X475799Y289949D01*
X475854Y289887D01*
X475912Y289833D01*
X475919Y289825D01*
X475941Y289811D01*
X475978Y289793D01*
X476025Y289767D01*
X476087Y289745D01*
X476156Y289723D01*
X476239Y289709D01*
X476331Y289705D01*
X476360D01*
X476378Y289709D01*
X476403D01*
X476433Y289713D01*
X476502Y289723D01*
X476578Y289738D01*
X476658Y289763D01*
X476742Y289800D01*
X476818Y289847D01*
X476822D01*
X476826Y289855D01*
X476851Y289873D01*
X476884Y289902D01*
X476924Y289946D01*
X476971Y290000D01*
X477015Y290062D01*
X477055Y290138D01*
X477091Y290222D01*
Y290226D01*
X477095Y290233D01*
X477099Y290244D01*
X477102Y290262D01*
X477109Y290284D01*
X477117Y290310D01*
X477128Y290371D01*
X477142Y290444D01*
X477157Y290524D01*
X477164Y290612D01*
X477168Y290706D01*
Y290710D01*
Y290721D01*
Y290739D01*
Y290761D01*
X477164Y290786D01*
Y290819D01*
X477161Y290856D01*
X477157Y290896D01*
X477146Y290983D01*
X477128Y291078D01*
X477106Y291172D01*
X477077Y291267D01*
Y291270D01*
X477073Y291278D01*
X477066Y291289D01*
X477059Y291307D01*
X477037Y291351D01*
X477004Y291402D01*
X476964Y291460D01*
X476913Y291522D01*
X476855Y291576D01*
X476786Y291627D01*
X476782D01*
X476775Y291631D01*
X476764Y291638D01*
X476749Y291645D01*
X476731Y291653D01*
X476709Y291664D01*
X476658Y291685D01*
X476593Y291707D01*
X476520Y291725D01*
X476440Y291740D01*
X476356Y291744D01*
X476331D01*
X476309Y291740D01*
X476283D01*
X476258Y291736D01*
X476192Y291722D01*
X476116Y291704D01*
X476039Y291674D01*
X475959Y291634D01*
X475919Y291613D01*
X475883Y291583D01*
X475879Y291580D01*
X475876Y291576D01*
X475865Y291565D01*
X475850Y291554D01*
X475836Y291536D01*
X475817Y291514D01*
X475796Y291493D01*
X475777Y291463D01*
X475755Y291431D01*
X475730Y291394D01*
X475708Y291358D01*
X475686Y291314D01*
X475668Y291267D01*
X475650Y291216D01*
X475632Y291161D01*
X475617Y291103D01*
X475282Y291187D01*
Y291190D01*
X475286Y291205D01*
X475293Y291227D01*
X475304Y291256D01*
X475315Y291289D01*
X475329Y291329D01*
X475348Y291372D01*
X475370Y291420D01*
X475421Y291522D01*
X475486Y291623D01*
X475526Y291674D01*
X475566Y291725D01*
X475610Y291769D01*
X475661Y291813D01*
X475664Y291816D01*
X475672Y291824D01*
X475690Y291831D01*
X475708Y291846D01*
X475737Y291864D01*
X475766Y291882D01*
X475806Y291900D01*
X475846Y291918D01*
X475894Y291940D01*
X475945Y291958D01*
X475999Y291977D01*
X476057Y291995D01*
X476119Y292009D01*
X476185Y292017D01*
X476254Y292024D01*
X476327Y292028D01*
X476367D01*
X476396Y292024D01*
D02*
G37*
G36*
X474143Y290015D02*
X474147Y290018D01*
X474165Y290033D01*
X474187Y290055D01*
X474223Y290080D01*
X474263Y290113D01*
X474314Y290149D01*
X474372Y290189D01*
X474438Y290229D01*
X474441D01*
X474445Y290233D01*
X474467Y290248D01*
X474503Y290266D01*
X474547Y290288D01*
X474598Y290313D01*
X474652Y290339D01*
X474707Y290364D01*
X474762Y290386D01*
Y290088D01*
X474758D01*
X474751Y290080D01*
X474736Y290076D01*
X474718Y290066D01*
X474696Y290055D01*
X474671Y290040D01*
X474609Y290004D01*
X474536Y289964D01*
X474463Y289913D01*
X474387Y289855D01*
X474310Y289793D01*
X474307Y289789D01*
X474303Y289785D01*
X474292Y289774D01*
X474278Y289763D01*
X474245Y289727D01*
X474201Y289683D01*
X474157Y289633D01*
X474110Y289574D01*
X474070Y289516D01*
X474034Y289454D01*
X473834D01*
Y291984D01*
X474143D01*
Y290015D01*
D02*
G37*
D11*
X468898Y287943D02*
Y294144D01*
X472441D01*
Y287943D02*
Y294144D01*
X468898Y287943D02*
X472441D01*
X474409Y290256D02*
X480610D01*
X474409D02*
Y293799D01*
X480610D01*
Y290256D02*
Y293799D01*
M02*
