G04*
G04 #@! TF.GenerationSoftware,Altium Limited,Altium Designer,22.0.2 (36)*
G04*
G04 Layer_Physical_Order=1*
G04 Layer_Color=255*
%FSLAX25Y25*%
%MOIN*%
G70*
G04*
G04 #@! TF.SameCoordinates,A7A34655-709E-4B41-B7F3-9F89ABBABE90*
G04*
G04*
G04 #@! TF.FilePolarity,Positive*
G04*
G01*
G75*
%ADD10C,0.01000*%
%ADD13R,0.01575X0.01968*%
%ADD14R,0.02657X0.01772*%
%ADD15R,0.01772X0.02657*%
%ADD16C,0.02205*%
%ADD17C,0.00787*%
%ADD18C,0.02835*%
%ADD19C,0.02402*%
%ADD20O,0.05906X0.03937*%
%ADD21O,0.03937X0.05906*%
%ADD31C,0.01240*%
%ADD32C,0.00394*%
D10*
X478445Y281004D02*
X481504Y284063D01*
X478445Y280807D02*
Y281004D01*
X481504Y284063D02*
Y287569D01*
X479331Y289742D02*
X481504Y287569D01*
X479331Y289742D02*
Y292028D01*
X474236Y282850D02*
X476083Y281004D01*
Y280807D02*
Y281004D01*
X470768Y283858D02*
X471776Y282850D01*
X474236D01*
X477074Y286221D02*
X477264D01*
X475689Y287606D02*
Y292028D01*
Y287606D02*
X477074Y286221D01*
X474819Y298000D02*
Y304486D01*
Y293340D02*
X475689Y292471D01*
Y292028D02*
Y292471D01*
X474819Y293340D02*
Y298000D01*
X478949Y295238D02*
X479331Y294856D01*
X478598Y298000D02*
X478949Y297649D01*
Y295238D02*
Y297649D01*
X479331Y292028D02*
Y294856D01*
X470325Y284006D02*
Y289272D01*
X470718Y283908D02*
X470768Y283858D01*
X470669Y289222D02*
X470718Y289173D01*
X470835Y293029D02*
Y297835D01*
X471000Y298000D01*
X470669Y292864D02*
X470835Y293029D01*
X474819Y308128D02*
X475478Y308787D01*
X474159D02*
X474819Y308128D01*
Y308307D01*
X475478Y308787D02*
X478815D01*
X470823D02*
X474159D01*
D13*
X476083Y280807D02*
D03*
X478445D02*
D03*
D14*
X470669Y289222D02*
D03*
Y292864D02*
D03*
D15*
X479331Y292028D02*
D03*
X475689D02*
D03*
D16*
X470823Y308787D02*
D03*
X478815D02*
D03*
D17*
X474819Y308307D02*
D03*
D18*
X471000Y298000D02*
D03*
X478598D02*
D03*
D19*
X474819D02*
D03*
D20*
X477264Y286221D02*
D03*
D21*
X470374Y283957D02*
D03*
D31*
X476640Y306307D02*
G03*
X476640Y306307I-1821J0D01*
G01*
D32*
X474803Y306299D02*
D03*
M02*
